M48
; DRILL file {KiCad 9.0.7} date 2026-02-25T22:30:33-0600
; FORMAT={-:-/ absolute / metric / decimal}
; #@! TF.CreationDate,2026-02-25T22:30:33-06:00
; #@! TF.GenerationSoftware,Kicad,Pcbnew,9.0.7
; #@! TF.FileFunction,Plated,1,2,PTH
FMAT,2
METRIC
; #@! TA.AperFunction,Plated,PTH,ViaDrill
T1C0.300
; #@! TA.AperFunction,Plated,PTH,ComponentDrill
T2C0.600
; #@! TA.AperFunction,Plated,PTH,ComponentDrill
T3C0.700
; #@! TA.AperFunction,Plated,PTH,ComponentDrill
T4C0.800
; #@! TA.AperFunction,Plated,PTH,ComponentDrill
T5C0.900
; #@! TA.AperFunction,Plated,PTH,ComponentDrill
T6C1.000
; #@! TA.AperFunction,Plated,PTH,ComponentDrill
T7C1.100
; #@! TA.AperFunction,Plated,PTH,ComponentDrill
T8C1.300
; #@! TA.AperFunction,Plated,PTH,ComponentDrill
T9C3.100
%
G90
G05
T1
X96.9Y-163.2
X97.0Y-154.1
X98.0Y-159.9
X98.1Y-126.4
X98.2Y-135.1
X99.3Y-123.7
X99.3Y-148.0
X99.3Y-182.05
X100.91Y-120.2
X101.6Y-178.7
X102.18Y-120.2
X102.3Y-167.5
X103.5Y-120.2
X103.6Y-184.7
X104.4Y-156.2
X104.7Y-120.2
X104.7Y-152.8
X105.9Y-120.2
X106.9Y-136.8
X107.26Y-120.2
X107.7Y-143.0
X108.3Y-127.9
X108.3Y-129.3
X108.3Y-130.6
X108.3Y-152.6
X108.5Y-120.2
X108.9Y-157.8
X109.7Y-120.2
X109.7Y-127.9
X109.7Y-129.3
X109.7Y-130.7
X110.2Y-113.8
X110.7Y-161.1
X111.0Y-120.1
X111.1Y-127.9
X111.1Y-129.2
X111.1Y-130.7
X111.4Y-148.3
X112.053Y-150.45
X112.3Y-137.9
X112.5Y-153.2
X112.5Y-154.1
X112.5Y-155.0
X113.3Y-153.2
X113.4Y-154.1
X113.4Y-155.0
X113.61Y-137.9
X114.2Y-153.2
X114.2Y-154.1
X114.2Y-155.0
X114.9Y-120.2
X115.0Y-148.1
X115.0Y-149.6
X115.8Y-188.2
X116.4Y-158.3
X116.4Y-162.5
X117.3Y-141.65
X117.8Y-188.1
X118.9Y-116.3
X119.8Y-165.4
X120.723Y-155.15
X121.7Y-165.5
X122.7Y-129.62
X122.8Y-132.16
X124.078Y-152.7
X126.6Y-137.7
X132.0Y-139.1
X133.1Y-147.9
X133.3Y-185.04
X133.4Y-156.9
X134.2Y-185.04
X135.1Y-185.04
X135.4Y-110.3
X136.1Y-179.0
X136.138Y-183.84
X136.2Y-195.8
X136.9Y-165.0
X140.3Y-161.0
X140.4Y-170.175
X142.8Y-113.2
X143.8Y-127.6
X146.0Y-116.2
X146.0Y-117.1
X146.0Y-117.9
X146.2Y-170.3
X146.3Y-112.2
X146.4Y-120.7
X146.8Y-116.2
X146.9Y-117.1
X146.9Y-117.9
X147.3Y-110.9
X147.3Y-112.2
X147.7Y-116.2
X147.8Y-117.1
X147.8Y-117.9
X148.6Y-116.2
X148.6Y-117.1
X148.6Y-117.9
X149.3Y-166.1
X149.4Y-114.0
X150.4Y-114.5
X151.1Y-127.0
X151.6Y-178.3
X151.8Y-159.9
X152.3Y-112.4
X153.4Y-159.9
X154.6Y-119.8
X156.7Y-118.5
X156.9Y-109.6
X160.332Y-113.8
X161.8Y-107.8
T3
X131.85Y-171.6
X134.35Y-171.6
X137.4Y-128.7
X139.9Y-128.7
T4
X90.975Y-183.55
X95.975Y-183.55
X128.2Y-192.5
X128.2Y-196.0
X155.85Y-154.28
X155.85Y-157.78
T5
X91.79Y-118.45
X91.79Y-120.99
X99.1Y-172.06
X101.64Y-172.06
X110.09Y-184.3
X110.09Y-186.84
T6
X93.8Y-134.0
X93.8Y-136.54
X93.8Y-139.08
X93.8Y-141.62
X128.9Y-127.08
X128.9Y-129.62
X128.9Y-132.16
X128.9Y-134.7
T7
X167.2Y-159.36
X167.2Y-164.44
X167.932Y-112.57
X167.932Y-117.65
T8
X92.0Y-194.3
X92.08Y-161.9
X92.08Y-166.9
X92.08Y-171.9
X92.23Y-110.95
X97.0Y-194.3
X97.23Y-110.95
X102.0Y-194.3
X102.23Y-110.95
X110.6Y-194.2
X115.6Y-194.2
X120.6Y-194.2
T9
X157.4Y-177.2
X160.4Y-172.4
X163.2Y-177.2
T2
X90.48Y-146.54G85X89.88Y-146.54
G05
X90.48Y-155.18G85X89.88Y-155.18
G05
X94.91Y-146.54G85X93.81Y-146.54
G05
X94.91Y-155.18G85X93.81Y-155.18
G05
M30
