%TF.GenerationSoftware,KiCad,Pcbnew,9.0.7*%
%TF.CreationDate,2026-02-25T22:32:00-06:00*%
%TF.ProjectId,circle_of_life,63697263-6c65-45f6-9f66-5f6c6966652e,rev?*%
%TF.SameCoordinates,Original*%
%TF.FileFunction,Soldermask,Bot*%
%TF.FilePolarity,Negative*%
%FSLAX46Y46*%
G04 Gerber Fmt 4.6, Leading zero omitted, Abs format (unit mm)*
G04 Created by KiCad (PCBNEW 9.0.7) date 2026-02-25 22:32:00*
%MOMM*%
%LPD*%
G01*
G04 APERTURE LIST*
G04 Aperture macros list*
%AMRoundRect*
0 Rectangle with rounded corners*
0 $1 Rounding radius*
0 $2 $3 $4 $5 $6 $7 $8 $9 X,Y pos of 4 corners*
0 Add a 4 corners polygon primitive as box body*
4,1,4,$2,$3,$4,$5,$6,$7,$8,$9,$2,$3,0*
0 Add four circle primitives for the rounded corners*
1,1,$1+$1,$2,$3*
1,1,$1+$1,$4,$5*
1,1,$1+$1,$6,$7*
1,1,$1+$1,$8,$9*
0 Add four rect primitives between the rounded corners*
20,1,$1+$1,$2,$3,$4,$5,0*
20,1,$1+$1,$4,$5,$6,$7,0*
20,1,$1+$1,$6,$7,$8,$9,0*
20,1,$1+$1,$8,$9,$2,$3,0*%
G04 Aperture macros list end*
%ADD10R,1.700000X1.700000*%
%ADD11C,1.700000*%
%ADD12C,0.650000*%
%ADD13O,2.100000X1.000000*%
%ADD14O,1.600000X1.000000*%
%ADD15C,1.950000*%
%ADD16R,1.200000X1.200000*%
%ADD17C,1.200000*%
%ADD18R,4.650000X4.650000*%
%ADD19C,4.650000*%
%ADD20C,1.650000*%
%ADD21R,1.800000X1.800000*%
%ADD22C,1.800000*%
%ADD23R,1.100000X1.100000*%
%ADD24C,1.100000*%
%ADD25R,0.950000X0.800000*%
%ADD26RoundRect,0.250000X-0.250000X-0.475000X0.250000X-0.475000X0.250000X0.475000X-0.250000X0.475000X0*%
%ADD27RoundRect,0.250000X0.475000X-0.250000X0.475000X0.250000X-0.475000X0.250000X-0.475000X-0.250000X0*%
%ADD28R,0.940000X0.810000*%
%ADD29RoundRect,0.250000X0.250000X0.475000X-0.250000X0.475000X-0.250000X-0.475000X0.250000X-0.475000X0*%
%ADD30R,0.800000X0.950000*%
%ADD31RoundRect,0.250000X-0.475000X0.250000X-0.475000X-0.250000X0.475000X-0.250000X0.475000X0.250000X0*%
G04 APERTURE END LIST*
D10*
%TO.C,J7*%
X128900000Y-134700000D03*
D11*
X128900000Y-132160000D03*
X128900000Y-129620000D03*
X128900000Y-127080000D03*
%TD*%
D12*
%TO.C,P1*%
X93830000Y-147970000D03*
X93830000Y-153750000D03*
D13*
X94360000Y-146540000D03*
D14*
X90180000Y-146540000D03*
D13*
X94360000Y-155180000D03*
D14*
X90180000Y-155180000D03*
%TD*%
D15*
%TO.C,J4*%
X92080000Y-171900000D03*
X92080000Y-166900000D03*
X92080000Y-161900000D03*
%TD*%
D10*
%TO.C,J8*%
X93800000Y-141620000D03*
D11*
X93800000Y-139080000D03*
X93800000Y-136540000D03*
X93800000Y-134000000D03*
%TD*%
D15*
%TO.C,J6*%
X92230000Y-110950000D03*
X97230000Y-110950000D03*
X102230000Y-110950000D03*
%TD*%
D16*
%TO.C,C36*%
X128200000Y-192500000D03*
D17*
X128200000Y-196000000D03*
%TD*%
D16*
%TO.C,C12*%
X155850000Y-157780000D03*
D17*
X155850000Y-154280000D03*
%TD*%
D18*
%TO.C,J3*%
X157400000Y-177200000D03*
D19*
X163200000Y-177200000D03*
X160400000Y-172400000D03*
%TD*%
D15*
%TO.C,J2*%
X92000000Y-194300000D03*
X97000000Y-194300000D03*
X102000000Y-194300000D03*
%TD*%
D20*
%TO.C,J11*%
X167931944Y-117649586D03*
X167931944Y-112569586D03*
%TD*%
D21*
%TO.C,D5*%
X91790000Y-120990000D03*
D22*
X91790000Y-118450000D03*
%TD*%
D15*
%TO.C,J5*%
X110600000Y-194200000D03*
X115600000Y-194200000D03*
X120600000Y-194200000D03*
%TD*%
D21*
%TO.C,D6*%
X110090000Y-184300000D03*
D22*
X110090000Y-186840000D03*
%TD*%
D21*
%TO.C,D7*%
X101640000Y-172060000D03*
D22*
X99100000Y-172060000D03*
%TD*%
D20*
%TO.C,J1*%
X167200000Y-159360000D03*
X167200000Y-164440000D03*
%TD*%
D16*
%TO.C,C13*%
X95975000Y-183550000D03*
D17*
X90975000Y-183550000D03*
%TD*%
D23*
%TO.C,C37*%
X137400000Y-128700000D03*
D24*
X139900000Y-128700000D03*
%TD*%
D23*
%TO.C,C29*%
X131850000Y-171600000D03*
D24*
X134350000Y-171600000D03*
%TD*%
D25*
%TO.C,R17*%
X150600000Y-113310000D03*
X150600000Y-111710000D03*
%TD*%
D26*
%TO.C,C34*%
X93700000Y-109220000D03*
X95600000Y-109220000D03*
%TD*%
D27*
%TO.C,C16*%
X154400000Y-156980000D03*
X154400000Y-155080000D03*
%TD*%
D28*
%TO.C,C22*%
X150800000Y-119800000D03*
X150800000Y-118460000D03*
%TD*%
D26*
%TO.C,C35*%
X93740000Y-111700000D03*
X95640000Y-111700000D03*
%TD*%
D29*
%TO.C,C25*%
X152935796Y-109510000D03*
X151035796Y-109510000D03*
%TD*%
D25*
%TO.C,R16*%
X152700000Y-118200000D03*
X152700000Y-119800000D03*
%TD*%
D29*
%TO.C,C32*%
X113780000Y-195800000D03*
X111880000Y-195800000D03*
%TD*%
D30*
%TO.C,R2*%
X100880000Y-113400000D03*
X102480000Y-113400000D03*
%TD*%
D29*
%TO.C,C14*%
X95450000Y-194300000D03*
X93550000Y-194300000D03*
%TD*%
D31*
%TO.C,C30*%
X93100000Y-168320000D03*
X93100000Y-170220000D03*
%TD*%
%TO.C,C31*%
X91100000Y-168320000D03*
X91100000Y-170220000D03*
%TD*%
D29*
%TO.C,C33*%
X113660000Y-191800000D03*
X111760000Y-191800000D03*
%TD*%
M02*
