%TF.GenerationSoftware,KiCad,Pcbnew,9.0.7*%
%TF.CreationDate,2026-02-25T22:32:00-06:00*%
%TF.ProjectId,circle_of_life,63697263-6c65-45f6-9f66-5f6c6966652e,rev?*%
%TF.SameCoordinates,Original*%
%TF.FileFunction,Copper,L2,Bot*%
%TF.FilePolarity,Positive*%
%FSLAX46Y46*%
G04 Gerber Fmt 4.6, Leading zero omitted, Abs format (unit mm)*
G04 Created by KiCad (PCBNEW 9.0.7) date 2026-02-25 22:32:00*
%MOMM*%
%LPD*%
G01*
G04 APERTURE LIST*
G04 Aperture macros list*
%AMRoundRect*
0 Rectangle with rounded corners*
0 $1 Rounding radius*
0 $2 $3 $4 $5 $6 $7 $8 $9 X,Y pos of 4 corners*
0 Add a 4 corners polygon primitive as box body*
4,1,4,$2,$3,$4,$5,$6,$7,$8,$9,$2,$3,0*
0 Add four circle primitives for the rounded corners*
1,1,$1+$1,$2,$3*
1,1,$1+$1,$4,$5*
1,1,$1+$1,$6,$7*
1,1,$1+$1,$8,$9*
0 Add four rect primitives between the rounded corners*
20,1,$1+$1,$2,$3,$4,$5,0*
20,1,$1+$1,$4,$5,$6,$7,0*
20,1,$1+$1,$6,$7,$8,$9,0*
20,1,$1+$1,$8,$9,$2,$3,0*%
G04 Aperture macros list end*
%TA.AperFunction,ComponentPad*%
%ADD10R,1.700000X1.700000*%
%TD*%
%TA.AperFunction,ComponentPad*%
%ADD11C,1.700000*%
%TD*%
%TA.AperFunction,HeatsinkPad*%
%ADD12O,2.100000X1.000000*%
%TD*%
%TA.AperFunction,HeatsinkPad*%
%ADD13O,1.600000X1.000000*%
%TD*%
%TA.AperFunction,ComponentPad*%
%ADD14C,1.950000*%
%TD*%
%TA.AperFunction,ComponentPad*%
%ADD15R,1.200000X1.200000*%
%TD*%
%TA.AperFunction,ComponentPad*%
%ADD16C,1.200000*%
%TD*%
%TA.AperFunction,ComponentPad*%
%ADD17R,4.650000X4.650000*%
%TD*%
%TA.AperFunction,ComponentPad*%
%ADD18C,4.650000*%
%TD*%
%TA.AperFunction,ComponentPad*%
%ADD19C,1.650000*%
%TD*%
%TA.AperFunction,ComponentPad*%
%ADD20R,1.800000X1.800000*%
%TD*%
%TA.AperFunction,ComponentPad*%
%ADD21C,1.800000*%
%TD*%
%TA.AperFunction,ComponentPad*%
%ADD22R,1.100000X1.100000*%
%TD*%
%TA.AperFunction,ComponentPad*%
%ADD23C,1.100000*%
%TD*%
%TA.AperFunction,SMDPad,CuDef*%
%ADD24R,0.950000X0.800000*%
%TD*%
%TA.AperFunction,SMDPad,CuDef*%
%ADD25RoundRect,0.250000X-0.250000X-0.475000X0.250000X-0.475000X0.250000X0.475000X-0.250000X0.475000X0*%
%TD*%
%TA.AperFunction,SMDPad,CuDef*%
%ADD26RoundRect,0.250000X0.475000X-0.250000X0.475000X0.250000X-0.475000X0.250000X-0.475000X-0.250000X0*%
%TD*%
%TA.AperFunction,SMDPad,CuDef*%
%ADD27R,0.940000X0.810000*%
%TD*%
%TA.AperFunction,SMDPad,CuDef*%
%ADD28RoundRect,0.250000X0.250000X0.475000X-0.250000X0.475000X-0.250000X-0.475000X0.250000X-0.475000X0*%
%TD*%
%TA.AperFunction,SMDPad,CuDef*%
%ADD29R,0.800000X0.950000*%
%TD*%
%TA.AperFunction,SMDPad,CuDef*%
%ADD30RoundRect,0.250000X-0.475000X0.250000X-0.475000X-0.250000X0.475000X-0.250000X0.475000X0.250000X0*%
%TD*%
%TA.AperFunction,ViaPad*%
%ADD31C,0.600000*%
%TD*%
%TA.AperFunction,Conductor*%
%ADD32C,0.500000*%
%TD*%
%TA.AperFunction,Conductor*%
%ADD33C,0.300000*%
%TD*%
%TA.AperFunction,Conductor*%
%ADD34C,0.250000*%
%TD*%
G04 APERTURE END LIST*
D10*
%TO.P,J7,1,Pin_1*%
%TO.N,+3.3V*%
X128900000Y-134700000D03*
D11*
%TO.P,J7,2,Pin_2*%
%TO.N,TXD0*%
X128900000Y-132160000D03*
%TO.P,J7,3,Pin_3*%
%TO.N,RXD0*%
X128900000Y-129620000D03*
%TO.P,J7,4,Pin_4*%
%TO.N,GND*%
X128900000Y-127080000D03*
%TD*%
D12*
%TO.P,P1,S1,SHIELD*%
%TO.N,GND*%
X94360000Y-146540000D03*
D13*
X90180000Y-146540000D03*
D12*
X94360000Y-155180000D03*
D13*
X90180000Y-155180000D03*
%TD*%
D14*
%TO.P,J4,1,Pin_1*%
%TO.N,GND*%
X92080000Y-171900000D03*
%TO.P,J4,2,Pin_2*%
%TO.N,+5V*%
X92080000Y-166900000D03*
%TO.P,J4,3,Pin_3*%
%TO.N,PH_SGN*%
X92080000Y-161900000D03*
%TD*%
D10*
%TO.P,J8,1,Pin_1*%
%TO.N,TMS*%
X93800000Y-141620000D03*
D11*
%TO.P,J8,2,Pin_2*%
%TO.N,TDI*%
X93800000Y-139080000D03*
%TO.P,J8,3,Pin_3*%
%TO.N,TCK*%
X93800000Y-136540000D03*
%TO.P,J8,4,Pin_4*%
%TO.N,TDO*%
X93800000Y-134000000D03*
%TD*%
D14*
%TO.P,J6,1,Pin_1*%
%TO.N,+3.3V*%
X92230000Y-110950000D03*
%TO.P,J6,2,Pin_2*%
%TO.N,GND*%
X97230000Y-110950000D03*
%TO.P,J6,3,Pin_3*%
%TO.N,TMP_SGN*%
X102230000Y-110950000D03*
%TD*%
D15*
%TO.P,C36,1*%
%TO.N,+5V*%
X128200000Y-192500000D03*
D16*
%TO.P,C36,2*%
%TO.N,GND*%
X128200000Y-196000000D03*
%TD*%
D15*
%TO.P,C12,1*%
%TO.N,+12V*%
X155850000Y-157780000D03*
D16*
%TO.P,C12,2*%
%TO.N,GND*%
X155850000Y-154280000D03*
%TD*%
D17*
%TO.P,J3,1,1*%
%TO.N,Net-(F2-Pad1)*%
X157400000Y-177200000D03*
D18*
%TO.P,J3,2,2*%
%TO.N,GND*%
X163200000Y-177200000D03*
%TO.P,J3,3,3*%
X160400000Y-172400000D03*
%TD*%
D14*
%TO.P,J2,1,Pin_1*%
%TO.N,GND*%
X92000000Y-194300000D03*
%TO.P,J2,2,Pin_2*%
%TO.N,+5V*%
X97000000Y-194300000D03*
%TO.P,J2,3,Pin_3*%
%TO.N,Net-(J2-Pin_3)*%
X102000000Y-194300000D03*
%TD*%
D19*
%TO.P,J11,1,Pin_1*%
%TO.N,LEDS*%
X167931944Y-117649586D03*
%TO.P,J11,2,Pin_2*%
%TO.N,GND*%
X167931944Y-112569586D03*
%TD*%
D20*
%TO.P,D5,1,K*%
%TO.N,GND*%
X91790000Y-120990000D03*
D21*
%TO.P,D5,2,A*%
%TO.N,Net-(D5-A)*%
X91790000Y-118450000D03*
%TD*%
D14*
%TO.P,J5,1,Pin_1*%
%TO.N,GND*%
X110600000Y-194200000D03*
%TO.P,J5,2,Pin_2*%
%TO.N,+5V*%
X115600000Y-194200000D03*
%TO.P,J5,3,Pin_3*%
%TO.N,FLOW_SGN*%
X120600000Y-194200000D03*
%TD*%
D20*
%TO.P,D6,1,K*%
%TO.N,GND*%
X110090000Y-184300000D03*
D21*
%TO.P,D6,2,A*%
%TO.N,Net-(D6-A)*%
X110090000Y-186840000D03*
%TD*%
D20*
%TO.P,D7,1,K*%
%TO.N,GND*%
X101640000Y-172060000D03*
D21*
%TO.P,D7,2,A*%
%TO.N,Net-(D7-A)*%
X99100000Y-172060000D03*
%TD*%
D19*
%TO.P,J1,1,Pin_1*%
%TO.N,+12V*%
X167200000Y-159360000D03*
%TO.P,J1,2,Pin_2*%
%TO.N,Net-(D4-A)*%
X167200000Y-164440000D03*
%TD*%
D15*
%TO.P,C13,1*%
%TO.N,+5V*%
X95975000Y-183550000D03*
D16*
%TO.P,C13,2*%
%TO.N,GND*%
X90975000Y-183550000D03*
%TD*%
D22*
%TO.P,C37,1*%
%TO.N,+12V*%
X137400000Y-128700000D03*
D23*
%TO.P,C37,2*%
%TO.N,GND*%
X139900000Y-128700000D03*
%TD*%
D22*
%TO.P,C29,1*%
%TO.N,+12V*%
X131850000Y-171600000D03*
D23*
%TO.P,C29,2*%
%TO.N,GND*%
X134350000Y-171600000D03*
%TD*%
D24*
%TO.P,R17,1*%
%TO.N,Net-(IC4-ISMON)*%
X150600000Y-113310000D03*
%TO.P,R17,2*%
%TO.N,Net-(C25-Pad2)*%
X150600000Y-111710000D03*
%TD*%
D25*
%TO.P,C34,1*%
%TO.N,+3.3V*%
X93700000Y-109220000D03*
%TO.P,C34,2*%
%TO.N,GND*%
X95600000Y-109220000D03*
%TD*%
D26*
%TO.P,C16,1*%
%TO.N,+12V*%
X154400000Y-156980000D03*
%TO.P,C16,2*%
%TO.N,GND*%
X154400000Y-155080000D03*
%TD*%
D27*
%TO.P,C22,1*%
%TO.N,INTV*%
X150800000Y-119800000D03*
%TO.P,C22,2*%
%TO.N,GND*%
X150800000Y-118460000D03*
%TD*%
D25*
%TO.P,C35,1*%
%TO.N,+3.3V*%
X93740000Y-111700000D03*
%TO.P,C35,2*%
%TO.N,GND*%
X95640000Y-111700000D03*
%TD*%
D28*
%TO.P,C25,1*%
%TO.N,GND*%
X152935796Y-109510000D03*
%TO.P,C25,2*%
%TO.N,Net-(C25-Pad2)*%
X151035796Y-109510000D03*
%TD*%
D24*
%TO.P,R16,1*%
%TO.N,Net-(IC4-~{FAULT})*%
X152700000Y-118200000D03*
%TO.P,R16,2*%
%TO.N,INTV*%
X152700000Y-119800000D03*
%TD*%
D28*
%TO.P,C32,1*%
%TO.N,+5V*%
X113780000Y-195800000D03*
%TO.P,C32,2*%
%TO.N,GND*%
X111880000Y-195800000D03*
%TD*%
D29*
%TO.P,R2,1*%
%TO.N,+3.3V*%
X100880000Y-113400000D03*
%TO.P,R2,2*%
%TO.N,TMP_SGN*%
X102480000Y-113400000D03*
%TD*%
D28*
%TO.P,C14,1*%
%TO.N,+5V*%
X95450000Y-194300000D03*
%TO.P,C14,2*%
%TO.N,GND*%
X93550000Y-194300000D03*
%TD*%
D30*
%TO.P,C30,1*%
%TO.N,+5V*%
X93100000Y-168320000D03*
%TO.P,C30,2*%
%TO.N,GND*%
X93100000Y-170220000D03*
%TD*%
%TO.P,C31,1*%
%TO.N,+5V*%
X91100000Y-168320000D03*
%TO.P,C31,2*%
%TO.N,GND*%
X91100000Y-170220000D03*
%TD*%
D28*
%TO.P,C33,1*%
%TO.N,+5V*%
X113660000Y-191800000D03*
%TO.P,C33,2*%
%TO.N,GND*%
X111760000Y-191800000D03*
%TD*%
D31*
%TO.N,GND*%
X96900000Y-163200000D03*
X146000000Y-117900000D03*
X147700000Y-116200000D03*
X135100000Y-185040000D03*
X156900000Y-109600000D03*
X146900000Y-117100000D03*
X112500000Y-155000000D03*
X146800000Y-116200000D03*
X104700000Y-152800000D03*
X99300000Y-123700000D03*
X136200000Y-195800000D03*
X117300000Y-141650000D03*
X152300000Y-112400000D03*
X148600000Y-117900000D03*
X111100000Y-130700000D03*
X99300000Y-148000000D03*
X142800000Y-113200000D03*
X149300000Y-166100000D03*
X133300000Y-185040000D03*
X143800000Y-127600000D03*
X110700000Y-161100000D03*
X148600000Y-116200000D03*
X119800000Y-165400000D03*
X118900000Y-116300000D03*
X146000000Y-117100000D03*
X101600000Y-178700000D03*
X104400000Y-156200000D03*
X146200000Y-170300000D03*
X111100000Y-127900000D03*
X109700000Y-130700000D03*
X107700000Y-143000000D03*
X133100000Y-147900000D03*
X151600000Y-178300000D03*
X111100000Y-129200000D03*
X146000000Y-116200000D03*
X108300000Y-127900000D03*
X147300000Y-110900000D03*
X108300000Y-129300000D03*
X136900000Y-165000000D03*
X109700000Y-129300000D03*
X134200000Y-185040000D03*
X114200000Y-153200000D03*
X114200000Y-155000000D03*
X136100000Y-179000000D03*
X113400000Y-154100000D03*
X97000000Y-154100000D03*
X112500000Y-153200000D03*
X133400000Y-156900000D03*
X147800000Y-117900000D03*
X120722935Y-155150000D03*
X113300000Y-153200000D03*
X113400000Y-155000000D03*
X154600000Y-119800000D03*
X103600000Y-184700000D03*
X148600000Y-117100000D03*
X147800000Y-117100000D03*
X146900000Y-117900000D03*
X116400000Y-158300000D03*
X121700000Y-165500000D03*
X151100000Y-127000000D03*
X132000000Y-139100000D03*
X153400000Y-159900000D03*
X112500000Y-154100000D03*
X116400000Y-162500000D03*
X114200000Y-154100000D03*
X108300000Y-130600000D03*
X109700000Y-127900000D03*
%TO.N,+3.3V*%
X108900000Y-157800000D03*
X108300000Y-152600000D03*
%TO.N,ISP*%
X156700000Y-118500000D03*
X161800000Y-107800000D03*
%TO.N,INTV*%
X146400000Y-120700000D03*
%TO.N,MCU_EN*%
X114900000Y-120200000D03*
X124077717Y-152700000D03*
%TO.N,IO0*%
X115000000Y-148100000D03*
X111400000Y-148300000D03*
%TO.N,EN*%
X140300000Y-161000000D03*
X140400000Y-170175000D03*
X136138000Y-183840000D03*
X126600000Y-137700000D03*
%TO.N,TDI*%
X100910000Y-120200000D03*
%TO.N,PUMP_SGN*%
X151800000Y-159900000D03*
X104700000Y-120200000D03*
%TO.N,TEMP_FAULT*%
X109700000Y-120200000D03*
X102300000Y-167500000D03*
%TO.N,FLOW_SGN*%
X105900000Y-120200000D03*
X117800000Y-188100000D03*
%TO.N,TCK*%
X98100000Y-126400000D03*
%TO.N,TDO*%
X98200000Y-135100000D03*
%TO.N,PWM_DIM*%
X110200000Y-113800000D03*
X135400000Y-110300000D03*
X107260000Y-120200000D03*
X147300000Y-112200000D03*
%TO.N,TMP_SGN*%
X103500000Y-120200000D03*
%TO.N,FLOW_FAULT*%
X111000000Y-120100000D03*
X115800000Y-188200000D03*
%TO.N,TMS*%
X102180000Y-120200000D03*
%TO.N,PH_SGN*%
X98000000Y-159900000D03*
X108500000Y-120200000D03*
%TO.N,Net-(IC4-ISMON)*%
X150400000Y-114500000D03*
%TO.N,Net-(IC4-~{FAULT})*%
X149400000Y-114000000D03*
%TO.N,Net-(IC4-PWMTG)*%
X160331944Y-113800000D03*
X146300000Y-112200000D03*
%TO.N,SRV_SGN_3.3V*%
X106900000Y-136800000D03*
X99300000Y-182050000D03*
%TO.N,DTR*%
X115000000Y-149600000D03*
X112052935Y-150450000D03*
%TO.N,TXD0*%
X122800000Y-132160000D03*
X113610000Y-137900000D03*
%TO.N,RXD0*%
X122700000Y-129620000D03*
X112300000Y-137900000D03*
%TD*%
D32*
%TO.N,GND*%
X154770000Y-155360000D02*
X155850000Y-154280000D01*
D33*
X95320000Y-111540000D02*
X95480000Y-111700000D01*
X95480000Y-111700000D02*
X96480000Y-111700000D01*
D32*
X154400000Y-155360000D02*
X154770000Y-155360000D01*
D33*
X95320000Y-109950000D02*
X95320000Y-111540000D01*
X96480000Y-111700000D02*
X97230000Y-110950000D01*
%TO.N,+5V*%
X115270000Y-193500000D02*
X115270000Y-193900000D01*
X114440000Y-194880000D02*
X115270000Y-194050000D01*
X95170000Y-194300000D02*
X97000000Y-194300000D01*
X113500000Y-195400000D02*
X114020000Y-194880000D01*
X115270000Y-194050000D02*
X115270000Y-193900000D01*
X91100000Y-168600000D02*
X91100000Y-167880000D01*
X114020000Y-194880000D02*
X114440000Y-194880000D01*
X93100000Y-168480000D02*
X93100000Y-167920000D01*
X113870000Y-192100000D02*
X115270000Y-193500000D01*
X93100000Y-167920000D02*
X92080000Y-166900000D01*
X91100000Y-167880000D02*
X92080000Y-166900000D01*
X113500000Y-192100000D02*
X113870000Y-192100000D01*
%TO.N,+3.3V*%
X93900000Y-111915000D02*
X95385000Y-113400000D01*
X93980000Y-109500000D02*
X93700000Y-109220000D01*
X93980000Y-111620000D02*
X93980000Y-109500000D01*
X108900000Y-157800000D02*
X108900000Y-153200000D01*
X93900000Y-111700000D02*
X93900000Y-111915000D01*
X93900000Y-111700000D02*
X92980000Y-111700000D01*
X92980000Y-111700000D02*
X92230000Y-110950000D01*
X93900000Y-111700000D02*
X93980000Y-111620000D01*
X108900000Y-153200000D02*
X108300000Y-152600000D01*
X95385000Y-113400000D02*
X100880000Y-113400000D01*
D32*
%TO.N,+12V*%
X154770000Y-156700000D02*
X155850000Y-157780000D01*
X154400000Y-156700000D02*
X154770000Y-156700000D01*
D33*
%TO.N,ISP*%
X161800000Y-115600000D02*
X161800000Y-107800000D01*
X156700000Y-118500000D02*
X158900000Y-118500000D01*
X158900000Y-118500000D02*
X161400000Y-116000000D01*
X161400000Y-116000000D02*
X161800000Y-115600000D01*
%TO.N,INTV*%
X147300000Y-119800000D02*
X150800000Y-119800000D01*
X146400000Y-120700000D02*
X147300000Y-119800000D01*
X150800000Y-119800000D02*
X152700000Y-119800000D01*
%TO.N,Net-(C25-Pad2)*%
X150600000Y-111710000D02*
X150600000Y-109521204D01*
X150600000Y-109521204D02*
X150588796Y-109510000D01*
%TO.N,MCU_EN*%
X123600000Y-128900000D02*
X123600000Y-152222283D01*
X114900000Y-120200000D02*
X123600000Y-128900000D01*
X123600000Y-152222283D02*
X124077717Y-152700000D01*
%TO.N,IO0*%
X111400000Y-148300000D02*
X111600000Y-148100000D01*
X111600000Y-148100000D02*
X115000000Y-148100000D01*
%TO.N,EN*%
X140400000Y-170175000D02*
X140400000Y-179578000D01*
X131349000Y-139369654D02*
X140300000Y-148320654D01*
X140400000Y-179578000D02*
X136138000Y-183840000D01*
X131349000Y-139249000D02*
X131349000Y-139369654D01*
X140300000Y-148320654D02*
X140300000Y-161000000D01*
X129800000Y-137700000D02*
X131349000Y-139249000D01*
X126600000Y-137700000D02*
X129800000Y-137700000D01*
%TO.N,TDI*%
X95140654Y-139080000D02*
X93800000Y-139080000D01*
X100910000Y-120200000D02*
X100910000Y-133310654D01*
X100910000Y-133310654D02*
X95140654Y-139080000D01*
%TO.N,PUMP_SGN*%
X104700000Y-116000000D02*
X108700000Y-112000000D01*
X108700000Y-112000000D02*
X117100000Y-112000000D01*
X117100000Y-112000000D02*
X151800000Y-146700000D01*
X151800000Y-146700000D02*
X151800000Y-159900000D01*
X104700000Y-120200000D02*
X104700000Y-116000000D01*
%TO.N,TEMP_FAULT*%
X106399000Y-133401000D02*
X100200000Y-139600000D01*
X98700000Y-161900000D02*
X98700000Y-166400000D01*
X106399000Y-123501000D02*
X106399000Y-133401000D01*
X99100000Y-167000000D02*
X99600000Y-167500000D01*
X99600000Y-167500000D02*
X102300000Y-167500000D01*
X100200000Y-139600000D02*
X100200000Y-149999000D01*
X98700000Y-166400000D02*
X98900000Y-166600000D01*
X99100000Y-166900000D02*
X99100000Y-167000000D01*
X98900000Y-166600000D02*
X98900000Y-166700000D01*
X109700000Y-120200000D02*
X106399000Y-123501000D01*
X100300000Y-150099000D02*
X100300000Y-160300000D01*
X98900000Y-166700000D02*
X99100000Y-166900000D01*
X100200000Y-149999000D02*
X100300000Y-150099000D01*
X100300000Y-160300000D02*
X98700000Y-161900000D01*
%TO.N,FLOW_SGN*%
X125279346Y-141300000D02*
X125200000Y-141220654D01*
X116000000Y-113000000D02*
X109300000Y-113000000D01*
X125000000Y-122000000D02*
X119551000Y-116551000D01*
X125200000Y-141220654D02*
X125200000Y-134579346D01*
X119551000Y-116030346D02*
X119169654Y-115649000D01*
X125200000Y-134579346D02*
X125000000Y-134379346D01*
X125400000Y-142220654D02*
X125149000Y-141969654D01*
X125149000Y-141969654D02*
X125149000Y-141430346D01*
X122000000Y-166120654D02*
X122351000Y-165769654D01*
X119169654Y-115649000D02*
X118649000Y-115649000D01*
X122000000Y-185100000D02*
X122000000Y-166120654D01*
X125000000Y-134379346D02*
X125000000Y-122000000D01*
X125400000Y-162181346D02*
X125400000Y-142220654D01*
X125149000Y-141430346D02*
X125279346Y-141300000D01*
X119551000Y-116551000D02*
X119551000Y-116030346D01*
X122351000Y-165230346D02*
X125400000Y-162181346D01*
X117800000Y-188100000D02*
X119000000Y-188100000D01*
X109300000Y-113000000D02*
X105900000Y-116400000D01*
X118649000Y-115649000D02*
X116000000Y-113000000D01*
X119000000Y-188100000D02*
X122000000Y-185100000D01*
X105900000Y-116400000D02*
X105900000Y-120200000D01*
X122351000Y-165769654D02*
X122351000Y-165230346D01*
%TO.N,TCK*%
X92400000Y-136600000D02*
X92460000Y-136540000D01*
X91900000Y-132600000D02*
X91900000Y-136000000D01*
X98100000Y-126400000D02*
X91900000Y-132600000D01*
X92460000Y-136540000D02*
X93800000Y-136540000D01*
X92400000Y-136500000D02*
X92400000Y-136600000D01*
X91900000Y-136000000D02*
X92400000Y-136500000D01*
%TO.N,TDO*%
X94900000Y-135100000D02*
X93800000Y-134000000D01*
X98200000Y-135100000D02*
X94900000Y-135100000D01*
%TO.N,PWM_DIM*%
X139400000Y-113800000D02*
X139500000Y-113900000D01*
X107260000Y-116740000D02*
X110200000Y-113800000D01*
X139300000Y-113900000D02*
X139400000Y-113800000D01*
X139500000Y-113900000D02*
X145600000Y-113900000D01*
X135400000Y-110300000D02*
X139000000Y-113900000D01*
X107260000Y-120200000D02*
X107260000Y-116740000D01*
X145600000Y-113900000D02*
X147300000Y-112200000D01*
X139000000Y-113900000D02*
X139300000Y-113900000D01*
%TO.N,TMP_SGN*%
X102480000Y-119180000D02*
X102480000Y-113400000D01*
X103500000Y-120200000D02*
X102480000Y-119180000D01*
X102480000Y-113400000D02*
X102480000Y-111200000D01*
X102480000Y-111200000D02*
X102230000Y-110950000D01*
%TO.N,FLOW_FAULT*%
X110200000Y-127479346D02*
X110200000Y-120900000D01*
X110351000Y-129569654D02*
X110351000Y-129030346D01*
X114900000Y-188200000D02*
X111800000Y-185100000D01*
X110200000Y-128879346D02*
X110200000Y-128320654D01*
X111800000Y-153200000D02*
X110200000Y-151600000D01*
X110351000Y-130969654D02*
X110351000Y-130430346D01*
X110200000Y-120900000D02*
X111000000Y-120100000D01*
X110200000Y-131120654D02*
X110351000Y-130969654D01*
X110200000Y-129720654D02*
X110351000Y-129569654D01*
X110351000Y-129030346D02*
X110200000Y-128879346D01*
X110351000Y-128169654D02*
X110351000Y-127630346D01*
X111800000Y-185100000D02*
X111800000Y-153200000D01*
X110200000Y-130279346D02*
X110200000Y-129720654D01*
X115800000Y-188200000D02*
X114900000Y-188200000D01*
X110200000Y-151600000D02*
X110200000Y-131120654D01*
X110200000Y-128320654D02*
X110351000Y-128169654D01*
X110351000Y-130430346D02*
X110200000Y-130279346D01*
X110351000Y-127630346D02*
X110200000Y-127479346D01*
%TO.N,TMS*%
X102180000Y-120200000D02*
X102180000Y-133240000D01*
X102180000Y-133240000D02*
X93800000Y-141620000D01*
%TO.N,PH_SGN*%
X104049000Y-133051000D02*
X98000000Y-139100000D01*
X98000000Y-139100000D02*
X98000000Y-159900000D01*
X104049000Y-124651000D02*
X104049000Y-133051000D01*
X108500000Y-120200000D02*
X104049000Y-124651000D01*
%TO.N,Net-(IC4-ISMON)*%
X150400000Y-113510000D02*
X150600000Y-113310000D01*
X150400000Y-114500000D02*
X150400000Y-113510000D01*
%TO.N,Net-(IC4-~{FAULT})*%
X149400000Y-114900000D02*
X149400000Y-114000000D01*
X152700000Y-118200000D02*
X149400000Y-114900000D01*
%TO.N,Net-(IC4-PWMTG)*%
X148600000Y-107600000D02*
X146300000Y-109900000D01*
X157200000Y-107600000D02*
X148600000Y-107600000D01*
X160300000Y-110700000D02*
X157200000Y-107600000D01*
X160331944Y-113800000D02*
X160300000Y-113768056D01*
X146300000Y-109900000D02*
X146300000Y-112200000D01*
X160300000Y-113768056D02*
X160300000Y-110700000D01*
%TO.N,SRV_SGN_3.3V*%
X106900000Y-143400000D02*
X106800000Y-143500000D01*
X106800000Y-143500000D02*
X106800000Y-174500000D01*
X99300000Y-182000000D02*
X99300000Y-182050000D01*
X106800000Y-174500000D02*
X99300000Y-182000000D01*
X106900000Y-136800000D02*
X106900000Y-143400000D01*
D34*
%TO.N,DTR*%
X112952935Y-149550000D02*
X112052935Y-150450000D01*
X114950000Y-149550000D02*
X112952935Y-149550000D01*
X115000000Y-149600000D02*
X114950000Y-149550000D01*
%TO.N,TXD0*%
X119350000Y-132160000D02*
X122800000Y-132160000D01*
X113610000Y-137900000D02*
X119350000Y-132160000D01*
%TO.N,RXD0*%
X120580000Y-129620000D02*
X122700000Y-129620000D01*
X112300000Y-137900000D02*
X120580000Y-129620000D01*
%TD*%
%TA.AperFunction,Conductor*%
%TO.N,GND*%
G36*
X170015677Y-105719685D02*
G01*
X170036319Y-105736319D01*
X172863681Y-108563681D01*
X172897166Y-108625004D01*
X172900000Y-108651362D01*
X172900000Y-197848638D01*
X172880315Y-197915677D01*
X172863681Y-197936319D01*
X170736819Y-200063181D01*
X170675496Y-200096666D01*
X170649138Y-200099500D01*
X88050862Y-200099500D01*
X87983823Y-200079815D01*
X87963181Y-200063181D01*
X86436819Y-198536819D01*
X86403334Y-198475496D01*
X86400500Y-198449138D01*
X86400500Y-193791739D01*
X94849500Y-193791739D01*
X94849500Y-194808260D01*
X94859426Y-194876391D01*
X94910803Y-194981485D01*
X94993514Y-195064196D01*
X94993515Y-195064196D01*
X94993517Y-195064198D01*
X95098607Y-195115573D01*
X95118813Y-195118517D01*
X95166739Y-195125500D01*
X95166740Y-195125500D01*
X95733261Y-195125500D01*
X95755971Y-195122191D01*
X95801393Y-195115573D01*
X95906483Y-195064198D01*
X95988786Y-194981894D01*
X96050107Y-194948411D01*
X96119799Y-194953395D01*
X96175733Y-194995266D01*
X96176785Y-194996693D01*
X96179650Y-195000637D01*
X96299360Y-195120347D01*
X96299365Y-195120351D01*
X96418817Y-195207137D01*
X96436315Y-195219850D01*
X96532425Y-195268820D01*
X96587146Y-195296703D01*
X96587148Y-195296703D01*
X96587151Y-195296705D01*
X96673450Y-195324745D01*
X96748152Y-195349018D01*
X96915351Y-195375500D01*
X96915356Y-195375500D01*
X97084649Y-195375500D01*
X97251847Y-195349018D01*
X97412849Y-195296705D01*
X97563685Y-195219850D01*
X97700641Y-195120346D01*
X97820346Y-195000641D01*
X97919850Y-194863685D01*
X97996705Y-194712849D01*
X98049018Y-194551847D01*
X98062852Y-194464504D01*
X98075500Y-194384649D01*
X98075500Y-194215350D01*
X100924500Y-194215350D01*
X100924500Y-194384649D01*
X100950981Y-194551847D01*
X101003296Y-194712853D01*
X101080152Y-194863688D01*
X101179648Y-195000634D01*
X101179652Y-195000639D01*
X101299360Y-195120347D01*
X101299365Y-195120351D01*
X101418817Y-195207137D01*
X101436315Y-195219850D01*
X101532425Y-195268820D01*
X101587146Y-195296703D01*
X101587148Y-195296703D01*
X101587151Y-195296705D01*
X101673450Y-195324745D01*
X101748152Y-195349018D01*
X101915351Y-195375500D01*
X101915356Y-195375500D01*
X102084649Y-195375500D01*
X102251847Y-195349018D01*
X102412849Y-195296705D01*
X102563685Y-195219850D01*
X102700641Y-195120346D01*
X102820346Y-195000641D01*
X102919850Y-194863685D01*
X102996705Y-194712849D01*
X103049018Y-194551847D01*
X103062852Y-194464504D01*
X103075500Y-194384649D01*
X103075500Y-194215350D01*
X103049018Y-194048152D01*
X103016526Y-193948153D01*
X102996705Y-193887151D01*
X102996703Y-193887148D01*
X102996703Y-193887146D01*
X102949500Y-193794506D01*
X102919850Y-193736315D01*
X102907137Y-193718817D01*
X102820351Y-193599365D01*
X102820347Y-193599360D01*
X102700639Y-193479652D01*
X102700634Y-193479648D01*
X102563688Y-193380152D01*
X102563687Y-193380151D01*
X102563685Y-193380150D01*
X102516582Y-193356150D01*
X102412853Y-193303296D01*
X102251847Y-193250981D01*
X102084649Y-193224500D01*
X102084644Y-193224500D01*
X101915356Y-193224500D01*
X101915351Y-193224500D01*
X101748152Y-193250981D01*
X101587146Y-193303296D01*
X101436311Y-193380152D01*
X101299365Y-193479648D01*
X101299360Y-193479652D01*
X101179652Y-193599360D01*
X101179648Y-193599365D01*
X101080152Y-193736311D01*
X101003296Y-193887146D01*
X100950981Y-194048152D01*
X100924500Y-194215350D01*
X98075500Y-194215350D01*
X98049018Y-194048152D01*
X98016526Y-193948153D01*
X97996705Y-193887151D01*
X97996703Y-193887148D01*
X97996703Y-193887146D01*
X97949500Y-193794506D01*
X97919850Y-193736315D01*
X97907137Y-193718817D01*
X97820351Y-193599365D01*
X97820347Y-193599360D01*
X97700639Y-193479652D01*
X97700634Y-193479648D01*
X97563688Y-193380152D01*
X97563687Y-193380151D01*
X97563685Y-193380150D01*
X97516582Y-193356150D01*
X97412853Y-193303296D01*
X97251847Y-193250981D01*
X97084649Y-193224500D01*
X97084644Y-193224500D01*
X96915356Y-193224500D01*
X96915351Y-193224500D01*
X96748152Y-193250981D01*
X96587146Y-193303296D01*
X96436311Y-193380152D01*
X96299365Y-193479648D01*
X96299360Y-193479652D01*
X96179650Y-193599362D01*
X96176781Y-193603312D01*
X96121449Y-193645975D01*
X96051835Y-193651951D01*
X95990041Y-193619342D01*
X95988785Y-193618103D01*
X95906485Y-193535803D01*
X95801391Y-193484426D01*
X95733261Y-193474500D01*
X95733260Y-193474500D01*
X95166740Y-193474500D01*
X95166739Y-193474500D01*
X95098608Y-193484426D01*
X94993514Y-193535803D01*
X94910803Y-193618514D01*
X94859426Y-193723608D01*
X94849500Y-193791739D01*
X86400500Y-193791739D01*
X86400500Y-191291739D01*
X113059500Y-191291739D01*
X113059500Y-192308260D01*
X113069426Y-192376391D01*
X113120803Y-192481485D01*
X113203514Y-192564196D01*
X113203515Y-192564196D01*
X113203517Y-192564198D01*
X113308607Y-192615573D01*
X113342673Y-192620536D01*
X113376739Y-192625500D01*
X113376740Y-192625500D01*
X113943259Y-192625500D01*
X113943260Y-192625500D01*
X113967212Y-192622010D01*
X114036390Y-192631823D01*
X114072772Y-192657033D01*
X114761762Y-193346023D01*
X114795247Y-193407346D01*
X114790263Y-193477038D01*
X114774400Y-193506589D01*
X114680149Y-193636315D01*
X114603296Y-193787146D01*
X114550981Y-193948152D01*
X114524500Y-194115350D01*
X114524500Y-194284643D01*
X114536027Y-194357426D01*
X114535325Y-194362851D01*
X114537237Y-194367976D01*
X114530896Y-194397124D01*
X114527071Y-194426720D01*
X114523238Y-194432324D01*
X114522385Y-194436249D01*
X114501237Y-194464500D01*
X114372556Y-194593182D01*
X114311236Y-194626666D01*
X114284877Y-194629500D01*
X113970170Y-194629500D01*
X113878102Y-194667636D01*
X113878101Y-194667637D01*
X113607558Y-194938181D01*
X113546235Y-194971666D01*
X113519877Y-194974500D01*
X113496739Y-194974500D01*
X113428608Y-194984426D01*
X113323514Y-195035803D01*
X113240803Y-195118514D01*
X113189426Y-195223608D01*
X113179500Y-195291739D01*
X113179500Y-196308260D01*
X113189426Y-196376391D01*
X113240803Y-196481485D01*
X113323514Y-196564196D01*
X113323515Y-196564196D01*
X113323517Y-196564198D01*
X113428607Y-196615573D01*
X113462673Y-196620536D01*
X113496739Y-196625500D01*
X113496740Y-196625500D01*
X114063261Y-196625500D01*
X114085971Y-196622191D01*
X114131393Y-196615573D01*
X114236483Y-196564198D01*
X114319198Y-196481483D01*
X114370573Y-196376393D01*
X114380500Y-196308260D01*
X114380500Y-195291740D01*
X114377679Y-195272378D01*
X114387492Y-195203201D01*
X114433147Y-195150311D01*
X114478642Y-195136859D01*
X114477851Y-195132882D01*
X114489824Y-195130500D01*
X114489828Y-195130500D01*
X114581897Y-195092364D01*
X114688957Y-194985303D01*
X114750276Y-194951819D01*
X114819968Y-194956803D01*
X114864317Y-194985304D01*
X114899360Y-195020347D01*
X114899365Y-195020351D01*
X115018817Y-195107137D01*
X115036315Y-195119850D01*
X115132425Y-195168820D01*
X115187146Y-195196703D01*
X115187148Y-195196703D01*
X115187151Y-195196705D01*
X115273450Y-195224745D01*
X115348152Y-195249018D01*
X115515351Y-195275500D01*
X115515356Y-195275500D01*
X115684649Y-195275500D01*
X115851847Y-195249018D01*
X116012849Y-195196705D01*
X116163685Y-195119850D01*
X116300641Y-195020346D01*
X116420346Y-194900641D01*
X116519850Y-194763685D01*
X116596705Y-194612849D01*
X116649018Y-194451847D01*
X116675500Y-194284649D01*
X116675500Y-194115350D01*
X119524500Y-194115350D01*
X119524500Y-194284649D01*
X119550981Y-194451847D01*
X119603296Y-194612853D01*
X119680152Y-194763688D01*
X119779648Y-194900634D01*
X119779652Y-194900639D01*
X119899360Y-195020347D01*
X119899365Y-195020351D01*
X120018817Y-195107137D01*
X120036315Y-195119850D01*
X120132425Y-195168820D01*
X120187146Y-195196703D01*
X120187148Y-195196703D01*
X120187151Y-195196705D01*
X120273450Y-195224745D01*
X120348152Y-195249018D01*
X120515351Y-195275500D01*
X120515356Y-195275500D01*
X120684649Y-195275500D01*
X120851847Y-195249018D01*
X121012849Y-195196705D01*
X121163685Y-195119850D01*
X121300641Y-195020346D01*
X121420346Y-194900641D01*
X121519850Y-194763685D01*
X121596705Y-194612849D01*
X121649018Y-194451847D01*
X121675500Y-194284649D01*
X121675500Y-194115350D01*
X121649018Y-193948152D01*
X121624745Y-193873450D01*
X121596705Y-193787151D01*
X121596703Y-193787148D01*
X121596703Y-193787146D01*
X121564328Y-193723607D01*
X121519850Y-193636315D01*
X121446824Y-193535803D01*
X121420351Y-193499365D01*
X121420347Y-193499360D01*
X121300639Y-193379652D01*
X121300634Y-193379648D01*
X121163688Y-193280152D01*
X121163687Y-193280151D01*
X121163685Y-193280150D01*
X121106438Y-193250981D01*
X121012853Y-193203296D01*
X120851847Y-193150981D01*
X120684649Y-193124500D01*
X120684644Y-193124500D01*
X120515356Y-193124500D01*
X120515351Y-193124500D01*
X120348152Y-193150981D01*
X120187146Y-193203296D01*
X120036311Y-193280152D01*
X119899365Y-193379648D01*
X119899360Y-193379652D01*
X119779652Y-193499360D01*
X119779648Y-193499365D01*
X119680152Y-193636311D01*
X119603296Y-193787146D01*
X119550981Y-193948152D01*
X119524500Y-194115350D01*
X116675500Y-194115350D01*
X116649018Y-193948152D01*
X116624745Y-193873450D01*
X116596705Y-193787151D01*
X116596703Y-193787148D01*
X116596703Y-193787146D01*
X116564328Y-193723607D01*
X116519850Y-193636315D01*
X116446824Y-193535803D01*
X116420351Y-193499365D01*
X116420347Y-193499360D01*
X116300639Y-193379652D01*
X116300634Y-193379648D01*
X116163688Y-193280152D01*
X116163687Y-193280151D01*
X116163685Y-193280150D01*
X116106438Y-193250981D01*
X116012853Y-193203296D01*
X115851847Y-193150981D01*
X115684649Y-193124500D01*
X115684644Y-193124500D01*
X115515356Y-193124500D01*
X115515351Y-193124500D01*
X115347615Y-193151067D01*
X115278322Y-193142113D01*
X115240536Y-193116275D01*
X114296819Y-192172558D01*
X114282115Y-192145630D01*
X114265523Y-192119812D01*
X114264631Y-192113611D01*
X114263334Y-192111235D01*
X114260500Y-192084877D01*
X114260500Y-191890098D01*
X127499500Y-191890098D01*
X127499500Y-193109894D01*
X127499501Y-193109902D01*
X127505330Y-193139212D01*
X127527542Y-193172457D01*
X127544219Y-193183599D01*
X127560787Y-193194669D01*
X127560790Y-193194669D01*
X127560791Y-193194670D01*
X127570647Y-193196630D01*
X127590101Y-193200500D01*
X128809898Y-193200499D01*
X128839213Y-193194669D01*
X128872457Y-193172457D01*
X128894669Y-193139213D01*
X128900500Y-193109899D01*
X128900499Y-191890102D01*
X128894669Y-191860787D01*
X128894668Y-191860785D01*
X128872457Y-191827542D01*
X128839214Y-191805332D01*
X128839215Y-191805332D01*
X128839213Y-191805331D01*
X128839211Y-191805330D01*
X128839208Y-191805329D01*
X128809901Y-191799500D01*
X127590105Y-191799500D01*
X127590097Y-191799501D01*
X127560787Y-191805330D01*
X127527542Y-191827542D01*
X127505332Y-191860785D01*
X127505329Y-191860791D01*
X127499500Y-191890098D01*
X114260500Y-191890098D01*
X114260500Y-191291739D01*
X114250573Y-191223608D01*
X114250573Y-191223607D01*
X114199198Y-191118517D01*
X114199196Y-191118515D01*
X114199196Y-191118514D01*
X114116485Y-191035803D01*
X114011391Y-190984426D01*
X113943261Y-190974500D01*
X113943260Y-190974500D01*
X113376740Y-190974500D01*
X113376739Y-190974500D01*
X113308608Y-190984426D01*
X113203514Y-191035803D01*
X113120803Y-191118514D01*
X113069426Y-191223608D01*
X113059500Y-191291739D01*
X86400500Y-191291739D01*
X86400500Y-186938543D01*
X109089499Y-186938543D01*
X109127947Y-187131829D01*
X109127950Y-187131839D01*
X109203364Y-187313907D01*
X109203371Y-187313920D01*
X109312860Y-187477781D01*
X109312863Y-187477785D01*
X109452214Y-187617136D01*
X109452218Y-187617139D01*
X109616079Y-187726628D01*
X109616092Y-187726635D01*
X109743772Y-187779521D01*
X109798165Y-187802051D01*
X109798169Y-187802051D01*
X109798170Y-187802052D01*
X109991456Y-187840500D01*
X109991459Y-187840500D01*
X110188543Y-187840500D01*
X110325881Y-187813181D01*
X110381835Y-187802051D01*
X110563523Y-187726794D01*
X110563907Y-187726635D01*
X110563907Y-187726634D01*
X110563914Y-187726632D01*
X110727782Y-187617139D01*
X110867139Y-187477782D01*
X110976632Y-187313914D01*
X111052051Y-187131835D01*
X111090500Y-186938541D01*
X111090500Y-186741459D01*
X111090500Y-186741456D01*
X111052052Y-186548170D01*
X111052051Y-186548169D01*
X111052051Y-186548165D01*
X111052049Y-186548160D01*
X110976635Y-186366092D01*
X110976628Y-186366079D01*
X110867139Y-186202218D01*
X110867136Y-186202214D01*
X110727785Y-186062863D01*
X110727781Y-186062860D01*
X110563920Y-185953371D01*
X110563907Y-185953364D01*
X110381839Y-185877950D01*
X110381829Y-185877947D01*
X110188543Y-185839500D01*
X110188541Y-185839500D01*
X109991459Y-185839500D01*
X109991457Y-185839500D01*
X109798170Y-185877947D01*
X109798160Y-185877950D01*
X109616092Y-185953364D01*
X109616079Y-185953371D01*
X109452218Y-186062860D01*
X109452214Y-186062863D01*
X109312863Y-186202214D01*
X109312860Y-186202218D01*
X109203371Y-186366079D01*
X109203364Y-186366092D01*
X109127950Y-186548160D01*
X109127947Y-186548170D01*
X109089500Y-186741456D01*
X109089500Y-186741459D01*
X109089500Y-186938541D01*
X109089500Y-186938543D01*
X109089499Y-186938543D01*
X86400500Y-186938543D01*
X86400500Y-182940098D01*
X95274500Y-182940098D01*
X95274500Y-184159894D01*
X95274501Y-184159902D01*
X95280330Y-184189212D01*
X95302542Y-184222457D01*
X95319219Y-184233599D01*
X95335787Y-184244669D01*
X95335790Y-184244669D01*
X95335791Y-184244670D01*
X95345647Y-184246630D01*
X95365101Y-184250500D01*
X96584898Y-184250499D01*
X96614213Y-184244669D01*
X96647457Y-184222457D01*
X96669669Y-184189213D01*
X96675500Y-184159899D01*
X96675499Y-182940102D01*
X96669669Y-182910787D01*
X96669668Y-182910785D01*
X96647457Y-182877542D01*
X96614214Y-182855332D01*
X96614215Y-182855332D01*
X96614213Y-182855331D01*
X96614211Y-182855330D01*
X96614208Y-182855329D01*
X96584901Y-182849500D01*
X95365105Y-182849500D01*
X95365097Y-182849501D01*
X95335787Y-182855330D01*
X95302542Y-182877542D01*
X95280332Y-182910785D01*
X95280329Y-182910791D01*
X95274500Y-182940098D01*
X86400500Y-182940098D01*
X86400500Y-181997273D01*
X98899500Y-181997273D01*
X98899500Y-182102727D01*
X98926793Y-182204587D01*
X98979520Y-182295913D01*
X99054087Y-182370480D01*
X99145413Y-182423207D01*
X99247273Y-182450500D01*
X99247275Y-182450500D01*
X99352725Y-182450500D01*
X99352727Y-182450500D01*
X99454587Y-182423207D01*
X99545913Y-182370480D01*
X99620480Y-182295913D01*
X99673207Y-182204587D01*
X99700500Y-182102727D01*
X99700500Y-182005121D01*
X99720185Y-181938082D01*
X99736814Y-181917445D01*
X106941895Y-174712364D01*
X106941897Y-174712364D01*
X107012364Y-174641897D01*
X107028160Y-174603760D01*
X107050501Y-174549827D01*
X107050501Y-174450172D01*
X107050501Y-174440183D01*
X107050500Y-174440169D01*
X107050500Y-152547273D01*
X107899500Y-152547273D01*
X107899500Y-152652727D01*
X107926793Y-152754587D01*
X107979520Y-152845913D01*
X108054087Y-152920480D01*
X108145413Y-152973207D01*
X108247273Y-153000500D01*
X108294877Y-153000500D01*
X108361916Y-153020185D01*
X108382558Y-153036819D01*
X108613181Y-153267442D01*
X108646666Y-153328765D01*
X108649500Y-153355123D01*
X108649500Y-157432745D01*
X108629815Y-157499784D01*
X108613181Y-157520426D01*
X108579521Y-157554085D01*
X108526794Y-157645410D01*
X108526793Y-157645413D01*
X108499500Y-157747273D01*
X108499500Y-157852727D01*
X108526793Y-157954587D01*
X108579520Y-158045913D01*
X108654087Y-158120480D01*
X108745413Y-158173207D01*
X108847273Y-158200500D01*
X108847275Y-158200500D01*
X108952725Y-158200500D01*
X108952727Y-158200500D01*
X109054587Y-158173207D01*
X109145913Y-158120480D01*
X109220480Y-158045913D01*
X109273207Y-157954587D01*
X109300500Y-157852727D01*
X109300500Y-157747273D01*
X109273207Y-157645413D01*
X109220480Y-157554087D01*
X109186819Y-157520426D01*
X109153334Y-157459103D01*
X109150500Y-157432745D01*
X109150500Y-153150173D01*
X109150499Y-153150170D01*
X109129925Y-153100500D01*
X109112364Y-153058103D01*
X109041897Y-152987636D01*
X108736819Y-152682558D01*
X108703334Y-152621235D01*
X108700500Y-152594877D01*
X108700500Y-152547275D01*
X108700500Y-152547273D01*
X108673207Y-152445413D01*
X108620480Y-152354087D01*
X108545913Y-152279520D01*
X108454587Y-152226793D01*
X108352727Y-152199500D01*
X108247273Y-152199500D01*
X108145413Y-152226793D01*
X108145410Y-152226794D01*
X108054085Y-152279521D01*
X107979521Y-152354085D01*
X107926794Y-152445410D01*
X107926793Y-152445413D01*
X107899500Y-152547273D01*
X107050500Y-152547273D01*
X107050500Y-143655123D01*
X107070185Y-143588084D01*
X107086819Y-143567442D01*
X107112364Y-143541897D01*
X107150500Y-143449828D01*
X107150500Y-143350173D01*
X107150500Y-137167255D01*
X107170185Y-137100216D01*
X107186819Y-137079574D01*
X107220480Y-137045913D01*
X107273207Y-136954587D01*
X107300500Y-136852727D01*
X107300500Y-136747273D01*
X107273207Y-136645413D01*
X107220480Y-136554087D01*
X107145913Y-136479520D01*
X107054587Y-136426793D01*
X106952727Y-136399500D01*
X106847273Y-136399500D01*
X106745413Y-136426793D01*
X106745410Y-136426794D01*
X106654085Y-136479521D01*
X106579521Y-136554085D01*
X106526794Y-136645410D01*
X106526793Y-136645413D01*
X106499500Y-136747273D01*
X106499500Y-136852726D01*
X106526793Y-136954586D01*
X106526794Y-136954589D01*
X106579521Y-137045914D01*
X106613181Y-137079574D01*
X106646666Y-137140897D01*
X106649500Y-137167255D01*
X106649500Y-143244877D01*
X106629815Y-143311916D01*
X106613181Y-143332558D01*
X106587637Y-143358101D01*
X106587636Y-143358102D01*
X106549500Y-143450170D01*
X106549500Y-174344877D01*
X106529815Y-174411916D01*
X106513181Y-174432558D01*
X99332558Y-181613181D01*
X99271235Y-181646666D01*
X99255324Y-181648376D01*
X99255333Y-181648439D01*
X99247273Y-181649500D01*
X99145413Y-181676793D01*
X99145410Y-181676794D01*
X99054085Y-181729521D01*
X98979521Y-181804085D01*
X98926794Y-181895410D01*
X98926793Y-181895413D01*
X98899500Y-181997273D01*
X86400500Y-181997273D01*
X86400500Y-172158543D01*
X98099499Y-172158543D01*
X98137947Y-172351829D01*
X98137950Y-172351839D01*
X98213364Y-172533907D01*
X98213371Y-172533920D01*
X98322860Y-172697781D01*
X98322863Y-172697785D01*
X98462214Y-172837136D01*
X98462218Y-172837139D01*
X98626079Y-172946628D01*
X98626092Y-172946635D01*
X98808160Y-173022049D01*
X98808165Y-173022051D01*
X98808169Y-173022051D01*
X98808170Y-173022052D01*
X99001456Y-173060500D01*
X99001459Y-173060500D01*
X99198543Y-173060500D01*
X99328582Y-173034632D01*
X99391835Y-173022051D01*
X99573914Y-172946632D01*
X99737782Y-172837139D01*
X99877139Y-172697782D01*
X99986632Y-172533914D01*
X100062051Y-172351835D01*
X100082208Y-172250499D01*
X100100500Y-172158543D01*
X100100500Y-171961456D01*
X100062052Y-171768170D01*
X100062051Y-171768169D01*
X100062051Y-171768165D01*
X100062049Y-171768160D01*
X99986635Y-171586092D01*
X99986628Y-171586079D01*
X99877139Y-171422218D01*
X99877136Y-171422214D01*
X99737785Y-171282863D01*
X99737781Y-171282860D01*
X99573920Y-171173371D01*
X99573907Y-171173364D01*
X99391839Y-171097950D01*
X99391829Y-171097947D01*
X99198543Y-171059500D01*
X99198541Y-171059500D01*
X99001459Y-171059500D01*
X99001457Y-171059500D01*
X98808170Y-171097947D01*
X98808160Y-171097950D01*
X98626092Y-171173364D01*
X98626079Y-171173371D01*
X98462218Y-171282860D01*
X98462214Y-171282863D01*
X98322863Y-171422214D01*
X98322860Y-171422218D01*
X98213371Y-171586079D01*
X98213364Y-171586092D01*
X98137950Y-171768160D01*
X98137947Y-171768170D01*
X98099500Y-171961456D01*
X98099500Y-171961459D01*
X98099500Y-172158541D01*
X98099500Y-172158543D01*
X98099499Y-172158543D01*
X86400500Y-172158543D01*
X86400500Y-168036739D01*
X90274500Y-168036739D01*
X90274500Y-168603260D01*
X90284426Y-168671391D01*
X90335803Y-168776485D01*
X90418514Y-168859196D01*
X90418515Y-168859196D01*
X90418517Y-168859198D01*
X90523607Y-168910573D01*
X90557673Y-168915536D01*
X90591739Y-168920500D01*
X90591740Y-168920500D01*
X91608261Y-168920500D01*
X91630971Y-168917191D01*
X91676393Y-168910573D01*
X91781483Y-168859198D01*
X91864198Y-168776483D01*
X91915573Y-168671393D01*
X91925500Y-168603260D01*
X91925500Y-168099500D01*
X91928050Y-168090814D01*
X91926762Y-168081853D01*
X91937740Y-168057812D01*
X91945185Y-168032461D01*
X91952025Y-168026533D01*
X91955787Y-168018297D01*
X91978021Y-168004007D01*
X91997989Y-167986706D01*
X92008503Y-167984418D01*
X92014565Y-167980523D01*
X92049500Y-167975500D01*
X92150500Y-167975500D01*
X92217539Y-167995185D01*
X92263294Y-168047989D01*
X92274500Y-168099500D01*
X92274500Y-168603260D01*
X92284426Y-168671391D01*
X92335803Y-168776485D01*
X92418514Y-168859196D01*
X92418515Y-168859196D01*
X92418517Y-168859198D01*
X92523607Y-168910573D01*
X92557673Y-168915536D01*
X92591739Y-168920500D01*
X92591740Y-168920500D01*
X93608261Y-168920500D01*
X93630971Y-168917191D01*
X93676393Y-168910573D01*
X93781483Y-168859198D01*
X93864198Y-168776483D01*
X93915573Y-168671393D01*
X93925500Y-168603260D01*
X93925500Y-168036740D01*
X93915573Y-167968607D01*
X93864198Y-167863517D01*
X93864196Y-167863515D01*
X93864196Y-167863514D01*
X93781485Y-167780803D01*
X93676391Y-167729426D01*
X93608261Y-167719500D01*
X93608260Y-167719500D01*
X93305122Y-167719500D01*
X93275681Y-167710855D01*
X93245695Y-167704332D01*
X93240679Y-167700577D01*
X93238083Y-167699815D01*
X93217441Y-167683181D01*
X93062911Y-167528651D01*
X93029426Y-167467328D01*
X93034410Y-167397636D01*
X93040108Y-167384674D01*
X93076702Y-167312855D01*
X93076702Y-167312854D01*
X93076705Y-167312849D01*
X93129018Y-167151847D01*
X93145176Y-167049828D01*
X93155500Y-166984649D01*
X93155500Y-166815350D01*
X93129018Y-166648152D01*
X93076703Y-166487146D01*
X93025999Y-166387636D01*
X92999850Y-166336315D01*
X92955867Y-166275777D01*
X92900351Y-166199365D01*
X92900347Y-166199360D01*
X92780639Y-166079652D01*
X92780634Y-166079648D01*
X92643688Y-165980152D01*
X92643687Y-165980151D01*
X92643685Y-165980150D01*
X92596582Y-165956150D01*
X92492853Y-165903296D01*
X92331847Y-165850981D01*
X92164649Y-165824500D01*
X92164644Y-165824500D01*
X91995356Y-165824500D01*
X91995351Y-165824500D01*
X91828152Y-165850981D01*
X91667146Y-165903296D01*
X91516311Y-165980152D01*
X91379365Y-166079648D01*
X91379360Y-166079652D01*
X91259652Y-166199360D01*
X91259648Y-166199365D01*
X91160152Y-166336311D01*
X91083296Y-166487146D01*
X91030981Y-166648152D01*
X91004500Y-166815350D01*
X91004500Y-166984649D01*
X91030981Y-167151847D01*
X91083297Y-167312856D01*
X91119891Y-167384675D01*
X91124452Y-167408964D01*
X91133090Y-167432122D01*
X91130788Y-167442702D01*
X91132787Y-167453344D01*
X91123492Y-167476243D01*
X91118239Y-167500395D01*
X91108301Y-167513670D01*
X91106510Y-167518084D01*
X91097088Y-167528650D01*
X90958103Y-167667636D01*
X90958102Y-167667636D01*
X90958101Y-167667637D01*
X90942558Y-167683181D01*
X90881235Y-167716666D01*
X90854877Y-167719500D01*
X90591739Y-167719500D01*
X90523608Y-167729426D01*
X90418514Y-167780803D01*
X90335803Y-167863514D01*
X90284426Y-167968608D01*
X90274500Y-168036739D01*
X86400500Y-168036739D01*
X86400500Y-161815350D01*
X91004500Y-161815350D01*
X91004500Y-161984649D01*
X91030981Y-162151847D01*
X91083296Y-162312853D01*
X91160152Y-162463688D01*
X91259648Y-162600634D01*
X91259652Y-162600639D01*
X91379360Y-162720347D01*
X91379365Y-162720351D01*
X91498817Y-162807137D01*
X91516315Y-162819850D01*
X91612425Y-162868820D01*
X91667146Y-162896703D01*
X91667148Y-162896703D01*
X91667151Y-162896705D01*
X91753450Y-162924745D01*
X91828152Y-162949018D01*
X91995351Y-162975500D01*
X91995356Y-162975500D01*
X92164649Y-162975500D01*
X92331847Y-162949018D01*
X92492849Y-162896705D01*
X92643685Y-162819850D01*
X92780641Y-162720346D01*
X92900346Y-162600641D01*
X92999850Y-162463685D01*
X93076705Y-162312849D01*
X93129018Y-162151847D01*
X93148915Y-162026223D01*
X93155500Y-161984649D01*
X93155500Y-161815350D01*
X93129018Y-161648152D01*
X93076703Y-161487146D01*
X93018647Y-161373207D01*
X92999850Y-161336315D01*
X92934170Y-161245914D01*
X92900351Y-161199365D01*
X92900347Y-161199360D01*
X92780639Y-161079652D01*
X92780634Y-161079648D01*
X92643688Y-160980152D01*
X92643687Y-160980151D01*
X92643685Y-160980150D01*
X92596582Y-160956150D01*
X92492853Y-160903296D01*
X92331847Y-160850981D01*
X92164649Y-160824500D01*
X92164644Y-160824500D01*
X91995356Y-160824500D01*
X91995351Y-160824500D01*
X91828152Y-160850981D01*
X91667146Y-160903296D01*
X91516311Y-160980152D01*
X91379365Y-161079648D01*
X91379360Y-161079652D01*
X91259652Y-161199360D01*
X91259648Y-161199365D01*
X91160152Y-161336311D01*
X91083296Y-161487146D01*
X91030981Y-161648152D01*
X91004500Y-161815350D01*
X86400500Y-161815350D01*
X86400500Y-159847273D01*
X97599500Y-159847273D01*
X97599500Y-159952727D01*
X97626793Y-160054587D01*
X97679520Y-160145913D01*
X97754087Y-160220480D01*
X97845413Y-160273207D01*
X97947273Y-160300500D01*
X97947275Y-160300500D01*
X98052725Y-160300500D01*
X98052727Y-160300500D01*
X98154587Y-160273207D01*
X98245913Y-160220480D01*
X98320480Y-160145913D01*
X98373207Y-160054587D01*
X98400500Y-159952727D01*
X98400500Y-159847273D01*
X98373207Y-159745413D01*
X98320480Y-159654087D01*
X98286819Y-159620426D01*
X98253334Y-159559103D01*
X98250500Y-159532745D01*
X98250500Y-139255121D01*
X98270185Y-139188082D01*
X98286814Y-139167445D01*
X104173455Y-133280803D01*
X104173458Y-133280802D01*
X104190896Y-133263364D01*
X104190897Y-133263364D01*
X104261364Y-133192897D01*
X104299500Y-133100828D01*
X104299500Y-124806122D01*
X104319185Y-124739083D01*
X104335819Y-124718441D01*
X108417441Y-120636819D01*
X108478764Y-120603334D01*
X108484755Y-120602184D01*
X108494868Y-120600500D01*
X108552727Y-120600500D01*
X108647710Y-120575049D01*
X108653629Y-120574064D01*
X108682589Y-120577573D01*
X108711752Y-120578268D01*
X108716863Y-120581727D01*
X108722991Y-120582470D01*
X108745457Y-120601079D01*
X108769615Y-120617430D01*
X108772044Y-120623103D01*
X108776798Y-120627041D01*
X108785636Y-120654843D01*
X108797119Y-120681659D01*
X108796095Y-120687745D01*
X108797965Y-120693627D01*
X108790371Y-120721787D01*
X108785533Y-120750561D01*
X108780832Y-120757161D01*
X108779774Y-120761087D01*
X108774877Y-120765523D01*
X108761677Y-120784061D01*
X106257103Y-123288636D01*
X106186637Y-123359101D01*
X106186636Y-123359102D01*
X106148500Y-123451170D01*
X106148500Y-133245876D01*
X106128815Y-133312915D01*
X106112181Y-133333557D01*
X100040661Y-139405076D01*
X100040662Y-139405077D01*
X99987636Y-139458103D01*
X99949500Y-139550170D01*
X99949500Y-150048829D01*
X99987636Y-150140897D01*
X100013181Y-150166442D01*
X100046666Y-150227765D01*
X100049500Y-150254123D01*
X100049500Y-160144876D01*
X100029815Y-160211915D01*
X100013181Y-160232557D01*
X98540661Y-161705076D01*
X98540662Y-161705077D01*
X98487636Y-161758103D01*
X98449500Y-161850170D01*
X98449500Y-166449829D01*
X98487636Y-166541897D01*
X98613181Y-166667441D01*
X98646666Y-166728764D01*
X98648260Y-166743595D01*
X98649500Y-166749829D01*
X98687636Y-166841897D01*
X98813181Y-166967441D01*
X98846666Y-167028764D01*
X98848260Y-167043595D01*
X98849500Y-167049829D01*
X98887636Y-167141897D01*
X99380565Y-167634825D01*
X99380568Y-167634829D01*
X99380569Y-167634829D01*
X99387635Y-167641895D01*
X99387636Y-167641897D01*
X99428920Y-167683181D01*
X99458103Y-167712364D01*
X99485068Y-167723534D01*
X99550169Y-167750500D01*
X99550170Y-167750500D01*
X99550172Y-167750501D01*
X99550173Y-167750501D01*
X99664262Y-167750501D01*
X99664270Y-167750500D01*
X101932745Y-167750500D01*
X101999784Y-167770185D01*
X102020426Y-167786819D01*
X102054087Y-167820480D01*
X102145413Y-167873207D01*
X102247273Y-167900500D01*
X102247275Y-167900500D01*
X102352725Y-167900500D01*
X102352727Y-167900500D01*
X102454587Y-167873207D01*
X102545913Y-167820480D01*
X102620480Y-167745913D01*
X102673207Y-167654587D01*
X102700500Y-167552727D01*
X102700500Y-167447273D01*
X102673207Y-167345413D01*
X102620480Y-167254087D01*
X102545913Y-167179520D01*
X102454587Y-167126793D01*
X102352727Y-167099500D01*
X102247273Y-167099500D01*
X102145413Y-167126793D01*
X102145410Y-167126794D01*
X102054085Y-167179521D01*
X102020426Y-167213181D01*
X101959103Y-167246666D01*
X101932745Y-167249500D01*
X99755122Y-167249500D01*
X99688083Y-167229815D01*
X99667441Y-167213181D01*
X99386820Y-166932559D01*
X99353335Y-166871236D01*
X99351740Y-166856405D01*
X99350500Y-166850170D01*
X99312364Y-166758104D01*
X99312363Y-166758102D01*
X99234828Y-166680567D01*
X99186819Y-166632557D01*
X99153335Y-166571234D01*
X99151740Y-166556407D01*
X99150500Y-166550170D01*
X99112364Y-166458104D01*
X99112363Y-166458102D01*
X99034828Y-166380567D01*
X98986818Y-166332556D01*
X98953334Y-166271233D01*
X98950500Y-166244876D01*
X98950500Y-162055121D01*
X98970185Y-161988082D01*
X98986814Y-161967445D01*
X100441895Y-160512364D01*
X100441897Y-160512364D01*
X100512364Y-160441897D01*
X100528160Y-160403760D01*
X100550501Y-160349827D01*
X100550501Y-160250172D01*
X100550501Y-160240183D01*
X100550500Y-160240169D01*
X100550500Y-150049173D01*
X100550499Y-150049170D01*
X100550358Y-150048829D01*
X100512364Y-149957103D01*
X100486819Y-149931558D01*
X100453334Y-149870235D01*
X100450500Y-149843877D01*
X100450500Y-139755121D01*
X100470185Y-139688082D01*
X100486814Y-139667445D01*
X106523455Y-133630803D01*
X106523458Y-133630802D01*
X106540896Y-133613364D01*
X106540897Y-133613364D01*
X106611364Y-133542897D01*
X106649500Y-133450828D01*
X106649500Y-123656123D01*
X106669185Y-123589084D01*
X106685819Y-123568442D01*
X109617442Y-120636819D01*
X109678765Y-120603334D01*
X109684275Y-120602265D01*
X109694624Y-120600500D01*
X109752727Y-120600500D01*
X109854476Y-120573236D01*
X109860150Y-120572269D01*
X109889357Y-120575692D01*
X109918755Y-120576392D01*
X109923660Y-120579712D01*
X109929545Y-120580402D01*
X109952265Y-120599073D01*
X109976617Y-120615555D01*
X109978949Y-120621000D01*
X109983526Y-120624762D01*
X109992545Y-120652750D01*
X110004121Y-120679783D01*
X110003138Y-120685625D01*
X110004956Y-120691265D01*
X109997409Y-120719691D01*
X109992534Y-120748685D01*
X109988942Y-120754950D01*
X109949500Y-120850170D01*
X109949500Y-127529175D01*
X109987636Y-127621243D01*
X110064181Y-127697788D01*
X110078884Y-127724715D01*
X110095477Y-127750534D01*
X110096368Y-127756734D01*
X110097666Y-127759111D01*
X110100500Y-127785469D01*
X110100500Y-128014531D01*
X110080815Y-128081570D01*
X110064181Y-128102212D01*
X109987637Y-128178755D01*
X109987636Y-128178756D01*
X109949500Y-128270824D01*
X109949500Y-128929175D01*
X109987636Y-129021243D01*
X110064181Y-129097788D01*
X110078884Y-129124715D01*
X110095477Y-129150534D01*
X110096368Y-129156734D01*
X110097666Y-129159111D01*
X110100500Y-129185469D01*
X110100500Y-129414531D01*
X110080815Y-129481570D01*
X110064181Y-129502212D01*
X109987637Y-129578755D01*
X109987636Y-129578756D01*
X109949500Y-129670824D01*
X109949500Y-130329175D01*
X109987636Y-130421243D01*
X110064181Y-130497788D01*
X110078884Y-130524715D01*
X110095477Y-130550534D01*
X110096368Y-130556734D01*
X110097666Y-130559111D01*
X110100500Y-130585469D01*
X110100500Y-130814531D01*
X110080815Y-130881570D01*
X110064181Y-130902212D01*
X109987637Y-130978755D01*
X109987636Y-130978756D01*
X109949500Y-131070824D01*
X109949500Y-151649829D01*
X109987636Y-151741897D01*
X111513181Y-153267441D01*
X111546666Y-153328764D01*
X111549500Y-153355122D01*
X111549500Y-185050172D01*
X111549500Y-185149828D01*
X111587636Y-185241897D01*
X114687636Y-188341897D01*
X114758103Y-188412364D01*
X114850172Y-188450500D01*
X115432745Y-188450500D01*
X115499784Y-188470185D01*
X115520426Y-188486819D01*
X115554087Y-188520480D01*
X115645413Y-188573207D01*
X115747273Y-188600500D01*
X115747275Y-188600500D01*
X115852725Y-188600500D01*
X115852727Y-188600500D01*
X115954587Y-188573207D01*
X116045913Y-188520480D01*
X116120480Y-188445913D01*
X116173207Y-188354587D01*
X116200500Y-188252727D01*
X116200500Y-188147273D01*
X116173207Y-188045413D01*
X116120480Y-187954087D01*
X116045913Y-187879520D01*
X115954587Y-187826793D01*
X115852727Y-187799500D01*
X115747273Y-187799500D01*
X115645413Y-187826793D01*
X115645410Y-187826794D01*
X115554085Y-187879521D01*
X115520426Y-187913181D01*
X115459103Y-187946666D01*
X115432745Y-187949500D01*
X115055123Y-187949500D01*
X114988084Y-187929815D01*
X114967442Y-187913181D01*
X112086819Y-185032558D01*
X112053334Y-184971235D01*
X112050500Y-184944877D01*
X112050500Y-153264270D01*
X112050501Y-153264261D01*
X112050501Y-153150174D01*
X112050500Y-153150170D01*
X112012364Y-153058104D01*
X112012363Y-153058102D01*
X111934832Y-152980571D01*
X111934825Y-152980565D01*
X110486819Y-151532558D01*
X110453334Y-151471235D01*
X110450500Y-151444877D01*
X110450500Y-150397273D01*
X111652435Y-150397273D01*
X111652435Y-150502727D01*
X111679728Y-150604587D01*
X111732455Y-150695913D01*
X111807022Y-150770480D01*
X111898348Y-150823207D01*
X112000208Y-150850500D01*
X112000210Y-150850500D01*
X112105660Y-150850500D01*
X112105662Y-150850500D01*
X112207522Y-150823207D01*
X112298848Y-150770480D01*
X112373415Y-150695913D01*
X112426142Y-150604587D01*
X112453435Y-150502727D01*
X112453435Y-150419766D01*
X112473120Y-150352727D01*
X112489754Y-150332085D01*
X113010021Y-149811819D01*
X113071344Y-149778334D01*
X113097702Y-149775500D01*
X114567276Y-149775500D01*
X114634315Y-149795185D01*
X114674662Y-149837499D01*
X114679520Y-149845913D01*
X114754087Y-149920480D01*
X114845413Y-149973207D01*
X114947273Y-150000500D01*
X114947275Y-150000500D01*
X115052725Y-150000500D01*
X115052727Y-150000500D01*
X115154587Y-149973207D01*
X115245913Y-149920480D01*
X115320480Y-149845913D01*
X115373207Y-149754587D01*
X115400500Y-149652727D01*
X115400500Y-149547273D01*
X115373207Y-149445413D01*
X115320480Y-149354087D01*
X115245913Y-149279520D01*
X115154587Y-149226793D01*
X115052727Y-149199500D01*
X114947273Y-149199500D01*
X114845413Y-149226793D01*
X114845410Y-149226794D01*
X114754085Y-149279521D01*
X114745426Y-149288181D01*
X114684103Y-149321666D01*
X114657745Y-149324500D01*
X112908080Y-149324500D01*
X112908078Y-149324500D01*
X112908076Y-149324501D01*
X112825201Y-149358827D01*
X112825199Y-149358829D01*
X112170848Y-150013181D01*
X112109525Y-150046666D01*
X112083167Y-150049500D01*
X112000208Y-150049500D01*
X111898348Y-150076793D01*
X111898345Y-150076794D01*
X111807020Y-150129521D01*
X111732456Y-150204085D01*
X111679729Y-150295410D01*
X111679728Y-150295413D01*
X111652435Y-150397273D01*
X110450500Y-150397273D01*
X110450500Y-148247273D01*
X110999500Y-148247273D01*
X110999500Y-148352727D01*
X111026793Y-148454587D01*
X111079520Y-148545913D01*
X111154087Y-148620480D01*
X111245413Y-148673207D01*
X111347273Y-148700500D01*
X111347275Y-148700500D01*
X111452725Y-148700500D01*
X111452727Y-148700500D01*
X111554587Y-148673207D01*
X111645913Y-148620480D01*
X111720480Y-148545913D01*
X111773207Y-148454587D01*
X111776470Y-148442407D01*
X111812834Y-148382747D01*
X111875680Y-148352217D01*
X111896245Y-148350500D01*
X114632745Y-148350500D01*
X114699784Y-148370185D01*
X114720426Y-148386819D01*
X114754087Y-148420480D01*
X114845413Y-148473207D01*
X114947273Y-148500500D01*
X114947275Y-148500500D01*
X115052725Y-148500500D01*
X115052727Y-148500500D01*
X115154587Y-148473207D01*
X115245913Y-148420480D01*
X115320480Y-148345913D01*
X115373207Y-148254587D01*
X115400500Y-148152727D01*
X115400500Y-148047273D01*
X115373207Y-147945413D01*
X115320480Y-147854087D01*
X115245913Y-147779520D01*
X115154587Y-147726793D01*
X115052727Y-147699500D01*
X114947273Y-147699500D01*
X114845413Y-147726793D01*
X114845410Y-147726794D01*
X114754085Y-147779521D01*
X114720426Y-147813181D01*
X114659103Y-147846666D01*
X114632745Y-147849500D01*
X111649830Y-147849500D01*
X111649828Y-147849499D01*
X111550173Y-147849499D01*
X111496240Y-147871839D01*
X111482064Y-147877710D01*
X111482062Y-147877711D01*
X111452249Y-147890061D01*
X111404796Y-147899500D01*
X111347273Y-147899500D01*
X111245413Y-147926793D01*
X111245410Y-147926794D01*
X111154085Y-147979521D01*
X111079521Y-148054085D01*
X111026794Y-148145410D01*
X111026793Y-148145413D01*
X110999500Y-148247273D01*
X110450500Y-148247273D01*
X110450500Y-137847273D01*
X111899500Y-137847273D01*
X111899500Y-137952727D01*
X111926793Y-138054587D01*
X111979520Y-138145913D01*
X112054087Y-138220480D01*
X112145413Y-138273207D01*
X112247273Y-138300500D01*
X112247275Y-138300500D01*
X112352725Y-138300500D01*
X112352727Y-138300500D01*
X112454587Y-138273207D01*
X112545913Y-138220480D01*
X112620480Y-138145913D01*
X112673207Y-138054587D01*
X112700500Y-137952727D01*
X112700500Y-137869766D01*
X112707104Y-137847273D01*
X113209500Y-137847273D01*
X113209500Y-137952727D01*
X113236793Y-138054587D01*
X113289520Y-138145913D01*
X113364087Y-138220480D01*
X113455413Y-138273207D01*
X113557273Y-138300500D01*
X113557275Y-138300500D01*
X113662725Y-138300500D01*
X113662727Y-138300500D01*
X113764587Y-138273207D01*
X113855913Y-138220480D01*
X113930480Y-138145913D01*
X113983207Y-138054587D01*
X114010500Y-137952727D01*
X114010500Y-137869766D01*
X114030185Y-137802727D01*
X114046819Y-137782085D01*
X119407086Y-132421819D01*
X119468409Y-132388334D01*
X119494767Y-132385500D01*
X122407744Y-132385500D01*
X122474783Y-132405185D01*
X122495425Y-132421818D01*
X122554087Y-132480480D01*
X122645413Y-132533207D01*
X122747273Y-132560500D01*
X122747275Y-132560500D01*
X122852725Y-132560500D01*
X122852727Y-132560500D01*
X122954587Y-132533207D01*
X123045913Y-132480480D01*
X123120480Y-132405913D01*
X123120482Y-132405908D01*
X123125426Y-132399467D01*
X123127502Y-132401060D01*
X123168668Y-132361801D01*
X123237274Y-132348571D01*
X123302142Y-132374532D01*
X123342676Y-132431442D01*
X123349500Y-132472011D01*
X123349500Y-152272112D01*
X123387636Y-152364180D01*
X123640898Y-152617441D01*
X123674383Y-152678764D01*
X123677217Y-152705122D01*
X123677217Y-152752727D01*
X123704510Y-152854587D01*
X123757237Y-152945913D01*
X123831804Y-153020480D01*
X123923130Y-153073207D01*
X124024990Y-153100500D01*
X124024992Y-153100500D01*
X124130442Y-153100500D01*
X124130444Y-153100500D01*
X124232304Y-153073207D01*
X124323630Y-153020480D01*
X124398197Y-152945913D01*
X124450924Y-152854587D01*
X124478217Y-152752727D01*
X124478217Y-152647273D01*
X124450924Y-152545413D01*
X124398197Y-152454087D01*
X124323630Y-152379520D01*
X124232304Y-152326793D01*
X124130444Y-152299500D01*
X124130443Y-152299500D01*
X124082839Y-152299500D01*
X124053399Y-152290855D01*
X124023412Y-152284332D01*
X124018396Y-152280577D01*
X124015800Y-152279815D01*
X123995163Y-152263185D01*
X123886817Y-152154839D01*
X123853334Y-152093518D01*
X123850500Y-152067160D01*
X123850500Y-128850173D01*
X123850499Y-128850170D01*
X123841945Y-128829518D01*
X123812364Y-128758103D01*
X123741897Y-128687636D01*
X115336818Y-120282557D01*
X115303334Y-120221235D01*
X115300500Y-120194877D01*
X115300500Y-120147275D01*
X115300500Y-120147273D01*
X115273207Y-120045413D01*
X115220480Y-119954087D01*
X115145913Y-119879520D01*
X115054587Y-119826793D01*
X114952727Y-119799500D01*
X114847273Y-119799500D01*
X114745413Y-119826793D01*
X114745410Y-119826794D01*
X114654085Y-119879521D01*
X114579521Y-119954085D01*
X114526794Y-120045410D01*
X114526793Y-120045413D01*
X114499500Y-120147273D01*
X114499500Y-120252727D01*
X114526793Y-120354587D01*
X114579520Y-120445913D01*
X114654087Y-120520480D01*
X114745413Y-120573207D01*
X114847273Y-120600500D01*
X114894877Y-120600500D01*
X114961916Y-120620185D01*
X114982558Y-120636819D01*
X123313181Y-128967442D01*
X123346666Y-129028765D01*
X123349500Y-129055123D01*
X123349500Y-131847988D01*
X123329815Y-131915027D01*
X123277011Y-131960782D01*
X123207853Y-131970726D01*
X123144297Y-131941701D01*
X123126278Y-131919878D01*
X123125426Y-131920533D01*
X123120480Y-131914087D01*
X123045914Y-131839521D01*
X123045913Y-131839520D01*
X122954587Y-131786793D01*
X122852727Y-131759500D01*
X122747273Y-131759500D01*
X122645413Y-131786793D01*
X122645410Y-131786794D01*
X122554087Y-131839520D01*
X122495425Y-131898182D01*
X122434101Y-131931666D01*
X122407744Y-131934500D01*
X119409297Y-131934500D01*
X119409289Y-131934499D01*
X119394855Y-131934499D01*
X119305145Y-131934499D01*
X119305143Y-131934499D01*
X119270813Y-131948719D01*
X119246539Y-131958774D01*
X119246537Y-131958774D01*
X119222264Y-131968829D01*
X113727913Y-137463181D01*
X113666590Y-137496666D01*
X113640232Y-137499500D01*
X113557273Y-137499500D01*
X113455413Y-137526793D01*
X113455410Y-137526794D01*
X113364085Y-137579521D01*
X113289521Y-137654085D01*
X113236794Y-137745410D01*
X113236793Y-137745413D01*
X113209500Y-137847273D01*
X112707104Y-137847273D01*
X112709144Y-137840325D01*
X112715668Y-137810339D01*
X112719422Y-137805323D01*
X112720185Y-137802727D01*
X112736819Y-137782085D01*
X112767439Y-137751465D01*
X114717205Y-135801700D01*
X118636157Y-131882748D01*
X120637087Y-129881819D01*
X120698410Y-129848334D01*
X120724768Y-129845500D01*
X122307744Y-129845500D01*
X122374783Y-129865185D01*
X122395425Y-129881818D01*
X122454087Y-129940480D01*
X122545413Y-129993207D01*
X122647273Y-130020500D01*
X122647275Y-130020500D01*
X122752725Y-130020500D01*
X122752727Y-130020500D01*
X122854587Y-129993207D01*
X122945913Y-129940480D01*
X123020480Y-129865913D01*
X123073207Y-129774587D01*
X123100500Y-129672727D01*
X123100500Y-129567273D01*
X123073207Y-129465413D01*
X123020480Y-129374087D01*
X122945913Y-129299520D01*
X122879059Y-129260922D01*
X122854589Y-129246794D01*
X122854588Y-129246793D01*
X122854587Y-129246793D01*
X122752727Y-129219500D01*
X122647273Y-129219500D01*
X122545413Y-129246793D01*
X122545410Y-129246794D01*
X122454087Y-129299520D01*
X122395425Y-129358182D01*
X122334101Y-129391666D01*
X122307744Y-129394500D01*
X120624854Y-129394500D01*
X120535145Y-129394500D01*
X120535143Y-129394500D01*
X120535141Y-129394501D01*
X120452266Y-129428827D01*
X120452264Y-129428829D01*
X112417913Y-137463181D01*
X112356590Y-137496666D01*
X112330232Y-137499500D01*
X112247273Y-137499500D01*
X112145413Y-137526793D01*
X112145410Y-137526794D01*
X112054085Y-137579521D01*
X111979521Y-137654085D01*
X111926794Y-137745410D01*
X111926793Y-137745413D01*
X111899500Y-137847273D01*
X110450500Y-137847273D01*
X110450500Y-131275777D01*
X110470185Y-131208738D01*
X110486819Y-131188096D01*
X110563364Y-131111551D01*
X110601500Y-131019482D01*
X110601500Y-130919826D01*
X110601500Y-130380518D01*
X110563364Y-130288449D01*
X110492897Y-130217982D01*
X110486819Y-130211904D01*
X110472115Y-130184976D01*
X110455523Y-130159158D01*
X110454631Y-130152957D01*
X110453334Y-130150581D01*
X110450500Y-130124223D01*
X110450500Y-129875777D01*
X110470185Y-129808738D01*
X110486819Y-129788096D01*
X110500329Y-129774586D01*
X110563364Y-129711551D01*
X110601500Y-129619482D01*
X110601500Y-129519826D01*
X110601500Y-128980518D01*
X110563364Y-128888449D01*
X110492897Y-128817982D01*
X110486819Y-128811904D01*
X110472115Y-128784976D01*
X110455523Y-128759158D01*
X110454631Y-128752957D01*
X110453334Y-128750581D01*
X110450500Y-128724223D01*
X110450500Y-128475777D01*
X110470185Y-128408738D01*
X110486819Y-128388096D01*
X110563364Y-128311551D01*
X110601500Y-128219482D01*
X110601500Y-128119826D01*
X110601500Y-127580518D01*
X110563364Y-127488449D01*
X110492897Y-127417982D01*
X110486819Y-127411904D01*
X110453334Y-127350581D01*
X110450500Y-127324223D01*
X110450500Y-121055122D01*
X110470185Y-120988083D01*
X110486819Y-120967441D01*
X110917441Y-120536819D01*
X110978764Y-120503334D01*
X111005122Y-120500500D01*
X111052725Y-120500500D01*
X111052727Y-120500500D01*
X111154587Y-120473207D01*
X111245913Y-120420480D01*
X111320480Y-120345913D01*
X111373207Y-120254587D01*
X111400500Y-120152727D01*
X111400500Y-120047273D01*
X111373207Y-119945413D01*
X111320480Y-119854087D01*
X111245913Y-119779520D01*
X111154587Y-119726793D01*
X111052727Y-119699500D01*
X110947273Y-119699500D01*
X110845413Y-119726793D01*
X110845410Y-119726794D01*
X110754085Y-119779521D01*
X110679521Y-119854085D01*
X110626794Y-119945410D01*
X110626793Y-119945413D01*
X110599500Y-120047273D01*
X110599500Y-120094876D01*
X110579815Y-120161915D01*
X110563181Y-120182557D01*
X110284061Y-120461677D01*
X110222738Y-120495162D01*
X110153046Y-120490178D01*
X110097113Y-120448306D01*
X110072696Y-120382842D01*
X110076604Y-120341907D01*
X110100500Y-120252727D01*
X110100500Y-120147273D01*
X110073207Y-120045413D01*
X110020480Y-119954087D01*
X109945913Y-119879520D01*
X109854587Y-119826793D01*
X109752727Y-119799500D01*
X109647273Y-119799500D01*
X109545413Y-119826793D01*
X109545410Y-119826794D01*
X109454085Y-119879521D01*
X109379521Y-119954085D01*
X109326794Y-120045410D01*
X109326793Y-120045413D01*
X109299500Y-120147273D01*
X109299500Y-120194877D01*
X109279815Y-120261916D01*
X109263181Y-120282558D01*
X109084061Y-120461677D01*
X109022738Y-120495162D01*
X108953046Y-120490178D01*
X108897113Y-120448306D01*
X108872696Y-120382842D01*
X108876604Y-120341907D01*
X108900500Y-120252727D01*
X108900500Y-120147273D01*
X108873207Y-120045413D01*
X108820480Y-119954087D01*
X108745913Y-119879520D01*
X108654587Y-119826793D01*
X108552727Y-119799500D01*
X108447273Y-119799500D01*
X108345413Y-119826793D01*
X108345410Y-119826794D01*
X108254085Y-119879521D01*
X108179521Y-119954085D01*
X108126794Y-120045410D01*
X108126793Y-120045413D01*
X108099500Y-120147273D01*
X108099500Y-120194876D01*
X108079815Y-120261915D01*
X108063181Y-120282557D01*
X107810248Y-120535490D01*
X107748925Y-120568975D01*
X107679233Y-120563991D01*
X107623300Y-120522119D01*
X107598883Y-120456655D01*
X107613735Y-120388382D01*
X107615139Y-120385880D01*
X107633207Y-120354587D01*
X107660500Y-120252727D01*
X107660500Y-120147273D01*
X107633207Y-120045413D01*
X107580480Y-119954087D01*
X107546819Y-119920426D01*
X107513334Y-119859103D01*
X107510500Y-119832745D01*
X107510500Y-116895122D01*
X107530185Y-116828083D01*
X107546819Y-116807441D01*
X110117441Y-114236819D01*
X110178764Y-114203334D01*
X110205122Y-114200500D01*
X110252725Y-114200500D01*
X110252727Y-114200500D01*
X110354587Y-114173207D01*
X110445913Y-114120480D01*
X110520480Y-114045913D01*
X110573207Y-113954587D01*
X110600500Y-113852727D01*
X110600500Y-113747273D01*
X110573207Y-113645413D01*
X110520480Y-113554087D01*
X110445913Y-113479520D01*
X110445912Y-113479519D01*
X110439467Y-113474574D01*
X110441059Y-113472498D01*
X110401794Y-113431315D01*
X110388574Y-113362708D01*
X110414545Y-113297844D01*
X110471461Y-113257318D01*
X110512012Y-113250500D01*
X115844877Y-113250500D01*
X115911916Y-113270185D01*
X115932558Y-113286819D01*
X118429565Y-115783825D01*
X118429568Y-115783829D01*
X118429569Y-115783829D01*
X118436635Y-115790895D01*
X118436636Y-115790897D01*
X118503841Y-115858102D01*
X118507103Y-115861364D01*
X118534068Y-115872534D01*
X118599169Y-115899500D01*
X118599170Y-115899500D01*
X118599172Y-115899501D01*
X118599173Y-115899501D01*
X118713262Y-115899501D01*
X118713270Y-115899500D01*
X119014531Y-115899500D01*
X119043971Y-115908144D01*
X119073958Y-115914668D01*
X119078973Y-115918422D01*
X119081570Y-115919185D01*
X119102207Y-115935814D01*
X119264182Y-116097788D01*
X119297666Y-116159110D01*
X119300500Y-116185468D01*
X119300500Y-116501172D01*
X119300500Y-116600828D01*
X119338636Y-116692897D01*
X122035844Y-119390105D01*
X124713181Y-122067441D01*
X124746666Y-122128764D01*
X124749500Y-122155122D01*
X124749500Y-134429175D01*
X124787636Y-134521243D01*
X124913181Y-134646787D01*
X124946666Y-134708110D01*
X124949500Y-134734469D01*
X124949500Y-141232726D01*
X124940061Y-141280178D01*
X124898501Y-141380514D01*
X124898500Y-141380517D01*
X124898500Y-141380518D01*
X124898500Y-141919826D01*
X124898500Y-142019482D01*
X124936636Y-142111551D01*
X125113182Y-142288096D01*
X125146666Y-142349417D01*
X125149500Y-142375776D01*
X125149500Y-162026223D01*
X125129815Y-162093262D01*
X125113181Y-162113904D01*
X122138637Y-165088447D01*
X122138636Y-165088448D01*
X122100500Y-165180516D01*
X122100500Y-165614531D01*
X122080815Y-165681570D01*
X122064181Y-165702212D01*
X121787637Y-165978755D01*
X121787636Y-165978756D01*
X121749500Y-166070824D01*
X121749500Y-184944877D01*
X121729815Y-185011916D01*
X121713181Y-185032558D01*
X118932558Y-187813181D01*
X118871235Y-187846666D01*
X118844877Y-187849500D01*
X118167255Y-187849500D01*
X118100216Y-187829815D01*
X118079574Y-187813181D01*
X118045914Y-187779521D01*
X118045913Y-187779520D01*
X117954587Y-187726793D01*
X117852727Y-187699500D01*
X117747273Y-187699500D01*
X117645413Y-187726793D01*
X117645410Y-187726794D01*
X117554085Y-187779521D01*
X117479521Y-187854085D01*
X117426794Y-187945410D01*
X117426793Y-187945413D01*
X117399500Y-188047273D01*
X117399500Y-188152727D01*
X117426793Y-188254587D01*
X117479520Y-188345913D01*
X117554087Y-188420480D01*
X117645413Y-188473207D01*
X117747273Y-188500500D01*
X117747275Y-188500500D01*
X117852725Y-188500500D01*
X117852727Y-188500500D01*
X117954587Y-188473207D01*
X118045913Y-188420480D01*
X118079574Y-188386819D01*
X118140897Y-188353334D01*
X118167255Y-188350500D01*
X119049826Y-188350500D01*
X119049828Y-188350500D01*
X119141897Y-188312364D01*
X122141895Y-185312364D01*
X122141897Y-185312364D01*
X122212364Y-185241897D01*
X122228160Y-185203760D01*
X122250501Y-185149827D01*
X122250501Y-185050172D01*
X122250501Y-185040183D01*
X122250500Y-185040169D01*
X122250500Y-183787273D01*
X135737500Y-183787273D01*
X135737500Y-183892727D01*
X135764793Y-183994587D01*
X135817520Y-184085913D01*
X135892087Y-184160480D01*
X135983413Y-184213207D01*
X136085273Y-184240500D01*
X136085275Y-184240500D01*
X136190725Y-184240500D01*
X136190727Y-184240500D01*
X136292587Y-184213207D01*
X136383913Y-184160480D01*
X136458480Y-184085913D01*
X136511207Y-183994587D01*
X136538500Y-183892727D01*
X136538500Y-183845123D01*
X136558185Y-183778084D01*
X136574819Y-183757442D01*
X138528176Y-181804085D01*
X140612364Y-179719897D01*
X140650500Y-179627828D01*
X140650500Y-179528172D01*
X140650500Y-174865098D01*
X154974500Y-174865098D01*
X154974500Y-179534894D01*
X154974501Y-179534902D01*
X154980330Y-179564212D01*
X155002542Y-179597457D01*
X155019219Y-179608599D01*
X155035787Y-179619669D01*
X155035790Y-179619669D01*
X155035791Y-179619670D01*
X155045647Y-179621630D01*
X155065101Y-179625500D01*
X159734898Y-179625499D01*
X159764213Y-179619669D01*
X159797457Y-179597457D01*
X159819669Y-179564213D01*
X159825500Y-179534899D01*
X159825499Y-174865102D01*
X159819669Y-174835787D01*
X159819668Y-174835785D01*
X159797457Y-174802542D01*
X159764214Y-174780332D01*
X159764215Y-174780332D01*
X159764213Y-174780331D01*
X159764211Y-174780330D01*
X159764208Y-174780329D01*
X159734901Y-174774500D01*
X155065105Y-174774500D01*
X155065097Y-174774501D01*
X155035787Y-174780330D01*
X155002542Y-174802542D01*
X154980332Y-174835785D01*
X154980329Y-174835791D01*
X154974500Y-174865098D01*
X140650500Y-174865098D01*
X140650500Y-170542255D01*
X140670185Y-170475216D01*
X140686819Y-170454574D01*
X140720480Y-170420913D01*
X140773207Y-170329587D01*
X140800500Y-170227727D01*
X140800500Y-170122273D01*
X140773207Y-170020413D01*
X140720480Y-169929087D01*
X140645913Y-169854520D01*
X140554587Y-169801793D01*
X140452727Y-169774500D01*
X140347273Y-169774500D01*
X140245413Y-169801793D01*
X140245410Y-169801794D01*
X140154085Y-169854521D01*
X140079521Y-169929085D01*
X140026794Y-170020410D01*
X140026793Y-170020413D01*
X139999500Y-170122273D01*
X139999500Y-170227726D01*
X140026793Y-170329586D01*
X140026794Y-170329589D01*
X140079521Y-170420914D01*
X140113181Y-170454574D01*
X140146666Y-170515897D01*
X140149500Y-170542255D01*
X140149500Y-179422877D01*
X140129815Y-179489916D01*
X140113181Y-179510558D01*
X136220558Y-183403181D01*
X136159235Y-183436666D01*
X136132877Y-183439500D01*
X136085273Y-183439500D01*
X135983413Y-183466793D01*
X135983410Y-183466794D01*
X135892085Y-183519521D01*
X135817521Y-183594085D01*
X135764794Y-183685410D01*
X135764793Y-183685413D01*
X135737500Y-183787273D01*
X122250500Y-183787273D01*
X122250500Y-171040098D01*
X131199500Y-171040098D01*
X131199500Y-172159894D01*
X131199501Y-172159902D01*
X131205330Y-172189212D01*
X131227542Y-172222457D01*
X131244219Y-172233599D01*
X131260787Y-172244669D01*
X131260790Y-172244669D01*
X131260791Y-172244670D01*
X131270647Y-172246630D01*
X131290101Y-172250500D01*
X132409898Y-172250499D01*
X132439213Y-172244669D01*
X132472457Y-172222457D01*
X132494669Y-172189213D01*
X132500500Y-172159899D01*
X132500499Y-171040102D01*
X132494669Y-171010787D01*
X132494668Y-171010785D01*
X132472457Y-170977542D01*
X132439214Y-170955332D01*
X132439215Y-170955332D01*
X132439213Y-170955331D01*
X132439211Y-170955330D01*
X132439208Y-170955329D01*
X132409901Y-170949500D01*
X131290105Y-170949500D01*
X131290097Y-170949501D01*
X131260787Y-170955330D01*
X131227542Y-170977542D01*
X131205332Y-171010785D01*
X131205329Y-171010791D01*
X131199500Y-171040098D01*
X122250500Y-171040098D01*
X122250500Y-166275777D01*
X122270185Y-166208738D01*
X122286819Y-166188096D01*
X122404091Y-166070824D01*
X122563364Y-165911551D01*
X122601500Y-165819482D01*
X122601500Y-165719826D01*
X122601500Y-165385469D01*
X122621185Y-165318430D01*
X122637819Y-165297788D01*
X123404451Y-164531156D01*
X166274499Y-164531156D01*
X166310065Y-164709952D01*
X166310068Y-164709962D01*
X166379831Y-164878387D01*
X166379833Y-164878391D01*
X166481113Y-165029967D01*
X166481119Y-165029975D01*
X166610024Y-165158880D01*
X166610032Y-165158886D01*
X166761608Y-165260166D01*
X166761612Y-165260168D01*
X166902271Y-165318430D01*
X166930042Y-165329933D01*
X166930046Y-165329933D01*
X166930047Y-165329934D01*
X167108843Y-165365500D01*
X167108846Y-165365500D01*
X167291156Y-165365500D01*
X167448974Y-165334107D01*
X167469958Y-165329933D01*
X167638389Y-165260167D01*
X167638391Y-165260166D01*
X167713672Y-165209864D01*
X167789972Y-165158883D01*
X167918883Y-165029972D01*
X168020167Y-164878389D01*
X168089933Y-164709958D01*
X168125500Y-164531154D01*
X168125500Y-164348846D01*
X168125500Y-164348843D01*
X168089934Y-164170047D01*
X168089933Y-164170046D01*
X168089933Y-164170042D01*
X168089931Y-164170037D01*
X168020168Y-164001612D01*
X168020166Y-164001608D01*
X167918886Y-163850032D01*
X167918880Y-163850024D01*
X167789975Y-163721119D01*
X167789967Y-163721113D01*
X167638391Y-163619833D01*
X167638387Y-163619831D01*
X167469962Y-163550068D01*
X167469952Y-163550065D01*
X167291156Y-163514500D01*
X167291154Y-163514500D01*
X167108846Y-163514500D01*
X167108844Y-163514500D01*
X166930047Y-163550065D01*
X166930037Y-163550068D01*
X166761612Y-163619831D01*
X166761608Y-163619833D01*
X166610032Y-163721113D01*
X166610024Y-163721119D01*
X166481119Y-163850024D01*
X166481113Y-163850032D01*
X166379833Y-164001608D01*
X166379831Y-164001612D01*
X166310068Y-164170037D01*
X166310065Y-164170047D01*
X166274500Y-164348843D01*
X166274500Y-164348846D01*
X166274500Y-164531154D01*
X166274500Y-164531156D01*
X166274499Y-164531156D01*
X123404451Y-164531156D01*
X123680534Y-164255073D01*
X124421107Y-163514500D01*
X125612364Y-162323243D01*
X125650500Y-162231174D01*
X125650500Y-162131518D01*
X125650500Y-142284924D01*
X125650501Y-142284915D01*
X125650501Y-142170828D01*
X125650500Y-142170824D01*
X125612364Y-142078758D01*
X125612363Y-142078756D01*
X125534831Y-142001224D01*
X125534828Y-142001222D01*
X125435818Y-141902211D01*
X125402334Y-141840887D01*
X125399500Y-141814530D01*
X125399500Y-141585469D01*
X125419185Y-141518430D01*
X125435819Y-141497788D01*
X125491710Y-141441897D01*
X125529846Y-141349828D01*
X125529846Y-141250172D01*
X125491710Y-141158103D01*
X125486819Y-141153212D01*
X125453334Y-141091889D01*
X125450500Y-141065531D01*
X125450500Y-137647273D01*
X126199500Y-137647273D01*
X126199500Y-137752727D01*
X126226793Y-137854587D01*
X126279520Y-137945913D01*
X126354087Y-138020480D01*
X126445413Y-138073207D01*
X126547273Y-138100500D01*
X126547275Y-138100500D01*
X126652725Y-138100500D01*
X126652727Y-138100500D01*
X126754587Y-138073207D01*
X126845913Y-138020480D01*
X126879574Y-137986819D01*
X126940897Y-137953334D01*
X126967255Y-137950500D01*
X129644877Y-137950500D01*
X129711916Y-137970185D01*
X129732558Y-137986819D01*
X131062181Y-139316441D01*
X131095666Y-139377764D01*
X131098500Y-139404122D01*
X131098500Y-139419483D01*
X131136636Y-139511551D01*
X131136637Y-139511552D01*
X140013181Y-148388095D01*
X140046666Y-148449418D01*
X140049500Y-148475776D01*
X140049500Y-160632745D01*
X140029815Y-160699784D01*
X140013181Y-160720426D01*
X139979521Y-160754085D01*
X139926794Y-160845410D01*
X139926793Y-160845413D01*
X139899500Y-160947273D01*
X139899500Y-161052727D01*
X139926793Y-161154587D01*
X139979520Y-161245913D01*
X140054087Y-161320480D01*
X140145413Y-161373207D01*
X140247273Y-161400500D01*
X140247275Y-161400500D01*
X140352725Y-161400500D01*
X140352727Y-161400500D01*
X140454587Y-161373207D01*
X140545913Y-161320480D01*
X140620480Y-161245913D01*
X140673207Y-161154587D01*
X140700500Y-161052727D01*
X140700500Y-160947273D01*
X140673207Y-160845413D01*
X140620480Y-160754087D01*
X140586819Y-160720426D01*
X140553334Y-160659103D01*
X140550500Y-160632745D01*
X140550500Y-148384924D01*
X140550501Y-148384915D01*
X140550501Y-148270828D01*
X140550500Y-148270824D01*
X140512364Y-148178758D01*
X140512363Y-148178756D01*
X140434832Y-148101225D01*
X140434825Y-148101219D01*
X131635819Y-139302212D01*
X131602334Y-139240889D01*
X131599500Y-139214531D01*
X131599500Y-139199173D01*
X131599499Y-139199170D01*
X131586356Y-139167440D01*
X131561364Y-139107103D01*
X131490897Y-139036636D01*
X131483832Y-139029571D01*
X131483825Y-139029565D01*
X129941897Y-137487636D01*
X129849829Y-137449500D01*
X129849828Y-137449500D01*
X126967255Y-137449500D01*
X126900216Y-137429815D01*
X126879574Y-137413181D01*
X126845914Y-137379521D01*
X126845913Y-137379520D01*
X126754587Y-137326793D01*
X126652727Y-137299500D01*
X126547273Y-137299500D01*
X126445413Y-137326793D01*
X126445410Y-137326794D01*
X126354085Y-137379521D01*
X126279521Y-137454085D01*
X126226794Y-137545410D01*
X126226793Y-137545413D01*
X126199500Y-137647273D01*
X125450500Y-137647273D01*
X125450500Y-134643616D01*
X125450501Y-134643607D01*
X125450501Y-134529520D01*
X125450500Y-134529516D01*
X125412364Y-134437450D01*
X125412363Y-134437448D01*
X125334828Y-134359913D01*
X125286818Y-134311902D01*
X125253334Y-134250579D01*
X125250500Y-134224222D01*
X125250500Y-133840098D01*
X127949500Y-133840098D01*
X127949500Y-135559894D01*
X127949501Y-135559902D01*
X127955330Y-135589212D01*
X127977542Y-135622457D01*
X127994219Y-135633599D01*
X128010787Y-135644669D01*
X128010790Y-135644669D01*
X128010791Y-135644670D01*
X128020647Y-135646630D01*
X128040101Y-135650500D01*
X129759898Y-135650499D01*
X129789213Y-135644669D01*
X129822457Y-135622457D01*
X129844669Y-135589213D01*
X129850500Y-135559899D01*
X129850499Y-133840102D01*
X129844669Y-133810787D01*
X129844668Y-133810785D01*
X129822457Y-133777542D01*
X129789214Y-133755332D01*
X129789215Y-133755332D01*
X129789213Y-133755331D01*
X129789211Y-133755330D01*
X129789208Y-133755329D01*
X129759901Y-133749500D01*
X128040105Y-133749500D01*
X128040097Y-133749501D01*
X128010787Y-133755330D01*
X127977542Y-133777542D01*
X127955332Y-133810785D01*
X127955329Y-133810791D01*
X127949500Y-133840098D01*
X125250500Y-133840098D01*
X125250500Y-132066379D01*
X127949500Y-132066379D01*
X127949500Y-132253620D01*
X127986025Y-132437243D01*
X127986027Y-132437251D01*
X128057676Y-132610228D01*
X128057681Y-132610237D01*
X128161697Y-132765907D01*
X128161700Y-132765911D01*
X128294088Y-132898299D01*
X128294092Y-132898302D01*
X128449762Y-133002318D01*
X128449768Y-133002321D01*
X128449769Y-133002322D01*
X128622749Y-133073973D01*
X128806379Y-133110499D01*
X128806383Y-133110500D01*
X128806384Y-133110500D01*
X128993617Y-133110500D01*
X128993618Y-133110499D01*
X129177251Y-133073973D01*
X129350231Y-133002322D01*
X129505908Y-132898302D01*
X129638302Y-132765908D01*
X129742322Y-132610231D01*
X129813973Y-132437251D01*
X129850500Y-132253616D01*
X129850500Y-132066384D01*
X129813973Y-131882749D01*
X129742322Y-131709769D01*
X129742321Y-131709768D01*
X129742318Y-131709762D01*
X129638302Y-131554092D01*
X129638299Y-131554088D01*
X129505911Y-131421700D01*
X129505907Y-131421697D01*
X129350237Y-131317681D01*
X129350228Y-131317676D01*
X129177251Y-131246027D01*
X129177243Y-131246025D01*
X128993620Y-131209500D01*
X128993616Y-131209500D01*
X128806384Y-131209500D01*
X128806379Y-131209500D01*
X128622756Y-131246025D01*
X128622748Y-131246027D01*
X128449771Y-131317676D01*
X128449762Y-131317681D01*
X128294092Y-131421697D01*
X128294088Y-131421700D01*
X128161700Y-131554088D01*
X128161697Y-131554092D01*
X128057681Y-131709762D01*
X128057676Y-131709771D01*
X127986027Y-131882748D01*
X127986025Y-131882756D01*
X127949500Y-132066379D01*
X125250500Y-132066379D01*
X125250500Y-129526379D01*
X127949500Y-129526379D01*
X127949500Y-129713620D01*
X127986025Y-129897243D01*
X127986027Y-129897251D01*
X128057676Y-130070228D01*
X128057681Y-130070237D01*
X128161697Y-130225907D01*
X128161700Y-130225911D01*
X128294088Y-130358299D01*
X128294092Y-130358302D01*
X128449762Y-130462318D01*
X128449768Y-130462321D01*
X128449769Y-130462322D01*
X128622749Y-130533973D01*
X128806379Y-130570499D01*
X128806383Y-130570500D01*
X128806384Y-130570500D01*
X128993617Y-130570500D01*
X128993618Y-130570499D01*
X129177251Y-130533973D01*
X129350231Y-130462322D01*
X129505908Y-130358302D01*
X129638302Y-130225908D01*
X129742322Y-130070231D01*
X129813973Y-129897251D01*
X129850500Y-129713616D01*
X129850500Y-129526384D01*
X129813973Y-129342749D01*
X129742322Y-129169769D01*
X129742321Y-129169768D01*
X129742318Y-129169762D01*
X129638302Y-129014092D01*
X129638299Y-129014088D01*
X129505911Y-128881700D01*
X129505907Y-128881697D01*
X129350237Y-128777681D01*
X129350228Y-128777676D01*
X129177251Y-128706027D01*
X129177243Y-128706025D01*
X128993620Y-128669500D01*
X128993616Y-128669500D01*
X128806384Y-128669500D01*
X128806379Y-128669500D01*
X128622756Y-128706025D01*
X128622748Y-128706027D01*
X128449771Y-128777676D01*
X128449762Y-128777681D01*
X128294092Y-128881697D01*
X128294088Y-128881700D01*
X128161700Y-129014088D01*
X128161697Y-129014092D01*
X128057681Y-129169762D01*
X128057676Y-129169771D01*
X127986027Y-129342748D01*
X127986025Y-129342756D01*
X127949500Y-129526379D01*
X125250500Y-129526379D01*
X125250500Y-122064270D01*
X125250501Y-122064261D01*
X125250501Y-121950174D01*
X125250500Y-121950170D01*
X125212364Y-121858104D01*
X125212363Y-121858102D01*
X125134832Y-121780571D01*
X125134825Y-121780565D01*
X119837819Y-116483558D01*
X119804334Y-116422235D01*
X119801500Y-116395877D01*
X119801500Y-116094616D01*
X119801501Y-116094607D01*
X119801501Y-115980520D01*
X119801500Y-115980516D01*
X119763364Y-115888450D01*
X119763363Y-115888448D01*
X119685832Y-115810917D01*
X119685825Y-115810911D01*
X119311551Y-115436636D01*
X119219483Y-115398500D01*
X119219482Y-115398500D01*
X118804122Y-115398500D01*
X118737083Y-115378815D01*
X118716441Y-115362181D01*
X117453759Y-114099499D01*
X116141897Y-112787636D01*
X116049829Y-112749500D01*
X116049828Y-112749500D01*
X109349828Y-112749500D01*
X109250172Y-112749500D01*
X109250170Y-112749500D01*
X109158102Y-112787636D01*
X105687636Y-116258102D01*
X105649500Y-116350170D01*
X105649500Y-119832745D01*
X105629815Y-119899784D01*
X105613181Y-119920426D01*
X105579521Y-119954085D01*
X105526794Y-120045410D01*
X105526793Y-120045413D01*
X105499500Y-120147273D01*
X105499500Y-120252727D01*
X105526793Y-120354587D01*
X105579520Y-120445913D01*
X105654087Y-120520480D01*
X105745413Y-120573207D01*
X105847273Y-120600500D01*
X105847275Y-120600500D01*
X105952725Y-120600500D01*
X105952727Y-120600500D01*
X106054587Y-120573207D01*
X106145913Y-120520480D01*
X106220480Y-120445913D01*
X106273207Y-120354587D01*
X106300500Y-120252727D01*
X106300500Y-120147273D01*
X106273207Y-120045413D01*
X106220480Y-119954087D01*
X106186819Y-119920426D01*
X106153334Y-119859103D01*
X106150500Y-119832745D01*
X106150500Y-116555123D01*
X106170185Y-116488084D01*
X106186819Y-116467442D01*
X109367442Y-113286819D01*
X109428765Y-113253334D01*
X109455123Y-113250500D01*
X109887988Y-113250500D01*
X109955027Y-113270185D01*
X110000782Y-113322989D01*
X110010726Y-113392147D01*
X109981701Y-113455703D01*
X109959878Y-113473721D01*
X109960533Y-113474574D01*
X109954087Y-113479519D01*
X109879521Y-113554085D01*
X109826794Y-113645410D01*
X109826793Y-113645413D01*
X109799500Y-113747273D01*
X109799500Y-113794876D01*
X109779815Y-113861915D01*
X109763181Y-113882557D01*
X107100661Y-116545076D01*
X107100662Y-116545077D01*
X107047636Y-116598103D01*
X107009500Y-116690170D01*
X107009500Y-119832745D01*
X106989815Y-119899784D01*
X106973181Y-119920426D01*
X106939521Y-119954085D01*
X106886794Y-120045410D01*
X106886793Y-120045413D01*
X106859500Y-120147273D01*
X106859500Y-120252727D01*
X106886793Y-120354587D01*
X106939520Y-120445913D01*
X107014087Y-120520480D01*
X107105413Y-120573207D01*
X107207273Y-120600500D01*
X107207275Y-120600500D01*
X107312725Y-120600500D01*
X107312727Y-120600500D01*
X107414587Y-120573207D01*
X107445810Y-120555180D01*
X107513707Y-120538707D01*
X107579734Y-120561558D01*
X107622926Y-120616479D01*
X107629569Y-120686032D01*
X107597554Y-120748135D01*
X107595490Y-120750248D01*
X103889661Y-124456076D01*
X103889662Y-124456077D01*
X103836636Y-124509103D01*
X103798500Y-124601170D01*
X103798500Y-132895876D01*
X103778815Y-132962915D01*
X103762181Y-132983557D01*
X97840661Y-138905076D01*
X97840662Y-138905077D01*
X97787636Y-138958103D01*
X97749500Y-139050170D01*
X97749500Y-159532745D01*
X97729815Y-159599784D01*
X97713181Y-159620426D01*
X97679521Y-159654085D01*
X97626794Y-159745410D01*
X97626793Y-159745413D01*
X97599500Y-159847273D01*
X86400500Y-159847273D01*
X86400500Y-153680817D01*
X93304500Y-153680817D01*
X93304500Y-153819182D01*
X93340312Y-153952835D01*
X93340313Y-153952838D01*
X93409492Y-154072661D01*
X93409494Y-154072664D01*
X93409495Y-154072665D01*
X93507335Y-154170505D01*
X93627164Y-154239688D01*
X93760817Y-154275500D01*
X93760819Y-154275500D01*
X93899181Y-154275500D01*
X93899183Y-154275500D01*
X94032836Y-154239688D01*
X94152665Y-154170505D01*
X94250505Y-154072665D01*
X94319688Y-153952836D01*
X94355500Y-153819183D01*
X94355500Y-153680817D01*
X94319688Y-153547164D01*
X94250505Y-153427335D01*
X94152665Y-153329495D01*
X94152664Y-153329494D01*
X94152661Y-153329492D01*
X94032838Y-153260313D01*
X94032837Y-153260312D01*
X94032836Y-153260312D01*
X93899183Y-153224500D01*
X93760817Y-153224500D01*
X93627164Y-153260312D01*
X93627161Y-153260313D01*
X93507338Y-153329492D01*
X93507333Y-153329496D01*
X93409496Y-153427333D01*
X93409492Y-153427338D01*
X93340313Y-153547161D01*
X93340312Y-153547164D01*
X93304500Y-153680817D01*
X86400500Y-153680817D01*
X86400500Y-147900817D01*
X93304500Y-147900817D01*
X93304500Y-148039183D01*
X93334924Y-148152725D01*
X93340312Y-148172835D01*
X93340313Y-148172838D01*
X93409492Y-148292661D01*
X93409494Y-148292664D01*
X93409495Y-148292665D01*
X93507335Y-148390505D01*
X93627164Y-148459688D01*
X93760817Y-148495500D01*
X93760819Y-148495500D01*
X93899181Y-148495500D01*
X93899183Y-148495500D01*
X94032836Y-148459688D01*
X94152665Y-148390505D01*
X94250505Y-148292665D01*
X94319688Y-148172836D01*
X94355500Y-148039183D01*
X94355500Y-147900817D01*
X94319688Y-147767164D01*
X94250505Y-147647335D01*
X94152665Y-147549495D01*
X94152664Y-147549494D01*
X94152661Y-147549492D01*
X94032838Y-147480313D01*
X94032837Y-147480312D01*
X94032836Y-147480312D01*
X93899183Y-147444500D01*
X93760817Y-147444500D01*
X93627164Y-147480312D01*
X93627161Y-147480313D01*
X93507338Y-147549492D01*
X93507333Y-147549496D01*
X93409496Y-147647333D01*
X93409492Y-147647338D01*
X93340313Y-147767161D01*
X93340312Y-147767164D01*
X93304500Y-147900817D01*
X86400500Y-147900817D01*
X86400500Y-140760098D01*
X92849500Y-140760098D01*
X92849500Y-142479894D01*
X92849501Y-142479902D01*
X92855330Y-142509212D01*
X92877542Y-142542457D01*
X92894219Y-142553599D01*
X92910787Y-142564669D01*
X92910790Y-142564669D01*
X92910791Y-142564670D01*
X92920647Y-142566630D01*
X92940101Y-142570500D01*
X94659898Y-142570499D01*
X94689213Y-142564669D01*
X94722457Y-142542457D01*
X94744669Y-142509213D01*
X94750500Y-142479899D01*
X94750499Y-141075121D01*
X94770184Y-141008083D01*
X94786813Y-140987446D01*
X102321895Y-133452364D01*
X102321897Y-133452364D01*
X102392364Y-133381897D01*
X102415343Y-133326420D01*
X102430501Y-133289827D01*
X102430501Y-133190172D01*
X102430501Y-133180183D01*
X102430500Y-133180169D01*
X102430500Y-120567255D01*
X102450185Y-120500216D01*
X102466819Y-120479574D01*
X102473188Y-120473205D01*
X102500480Y-120445913D01*
X102553207Y-120354587D01*
X102580500Y-120252727D01*
X102580500Y-120147273D01*
X102553207Y-120045413D01*
X102500480Y-119954087D01*
X102425913Y-119879520D01*
X102334587Y-119826793D01*
X102232727Y-119799500D01*
X102127273Y-119799500D01*
X102025413Y-119826793D01*
X102025410Y-119826794D01*
X101934085Y-119879521D01*
X101859521Y-119954085D01*
X101806794Y-120045410D01*
X101806793Y-120045413D01*
X101779500Y-120147273D01*
X101779500Y-120252727D01*
X101806793Y-120354587D01*
X101844836Y-120420480D01*
X101859521Y-120445914D01*
X101893181Y-120479574D01*
X101926666Y-120540897D01*
X101929500Y-120567255D01*
X101929500Y-133084876D01*
X101909815Y-133151915D01*
X101893181Y-133172557D01*
X94432556Y-140633181D01*
X94371233Y-140666666D01*
X94344875Y-140669500D01*
X92940105Y-140669500D01*
X92940097Y-140669501D01*
X92910787Y-140675330D01*
X92877542Y-140697542D01*
X92855332Y-140730785D01*
X92855329Y-140730791D01*
X92849500Y-140760098D01*
X86400500Y-140760098D01*
X86400500Y-132550170D01*
X91649500Y-132550170D01*
X91649500Y-136049829D01*
X91687636Y-136141897D01*
X92113181Y-136567441D01*
X92146666Y-136628764D01*
X92148260Y-136643596D01*
X92149500Y-136649828D01*
X92187636Y-136741897D01*
X92258103Y-136812364D01*
X92350172Y-136850500D01*
X92350174Y-136850500D01*
X92449826Y-136850500D01*
X92449828Y-136850500D01*
X92541897Y-136812364D01*
X92541902Y-136812358D01*
X92543342Y-136811398D01*
X92546972Y-136810261D01*
X92553180Y-136807690D01*
X92553410Y-136808245D01*
X92561388Y-136805747D01*
X92577298Y-136795523D01*
X92608257Y-136791071D01*
X92610019Y-136790520D01*
X92612233Y-136790500D01*
X92792092Y-136790500D01*
X92859131Y-136810185D01*
X92904886Y-136862989D01*
X92906653Y-136867047D01*
X92957676Y-136990227D01*
X92957681Y-136990237D01*
X93061697Y-137145907D01*
X93061700Y-137145911D01*
X93194088Y-137278299D01*
X93194092Y-137278302D01*
X93349762Y-137382318D01*
X93349768Y-137382321D01*
X93349769Y-137382322D01*
X93522749Y-137453973D01*
X93691986Y-137487636D01*
X93706379Y-137490499D01*
X93706383Y-137490500D01*
X93706384Y-137490500D01*
X93893617Y-137490500D01*
X93893618Y-137490499D01*
X94077251Y-137453973D01*
X94250231Y-137382322D01*
X94405908Y-137278302D01*
X94538302Y-137145908D01*
X94642322Y-136990231D01*
X94713973Y-136817251D01*
X94750500Y-136633616D01*
X94750500Y-136446384D01*
X94713973Y-136262749D01*
X94642322Y-136089769D01*
X94642321Y-136089768D01*
X94642318Y-136089762D01*
X94538302Y-135934092D01*
X94538299Y-135934088D01*
X94405911Y-135801700D01*
X94405907Y-135801697D01*
X94250237Y-135697681D01*
X94250228Y-135697676D01*
X94077251Y-135626027D01*
X94077243Y-135626025D01*
X93893620Y-135589500D01*
X93893616Y-135589500D01*
X93706384Y-135589500D01*
X93706379Y-135589500D01*
X93522756Y-135626025D01*
X93522748Y-135626027D01*
X93349771Y-135697676D01*
X93349762Y-135697681D01*
X93194092Y-135801697D01*
X93194088Y-135801700D01*
X93061700Y-135934088D01*
X93061697Y-135934092D01*
X92957681Y-136089762D01*
X92957676Y-136089772D01*
X92906653Y-136212953D01*
X92894109Y-136228518D01*
X92885805Y-136246703D01*
X92872634Y-136255167D01*
X92862812Y-136267356D01*
X92843844Y-136273668D01*
X92827027Y-136284477D01*
X92799466Y-136288439D01*
X92796518Y-136289421D01*
X92792092Y-136289500D01*
X92595122Y-136289500D01*
X92528083Y-136269815D01*
X92507441Y-136253181D01*
X92186819Y-135932558D01*
X92153334Y-135871235D01*
X92150500Y-135844877D01*
X92150500Y-133906379D01*
X92849500Y-133906379D01*
X92849500Y-134093620D01*
X92886025Y-134277243D01*
X92886027Y-134277251D01*
X92957676Y-134450228D01*
X92957681Y-134450237D01*
X93061697Y-134605907D01*
X93061700Y-134605911D01*
X93194088Y-134738299D01*
X93194092Y-134738302D01*
X93349762Y-134842318D01*
X93349768Y-134842321D01*
X93349769Y-134842322D01*
X93522749Y-134913973D01*
X93680795Y-134945410D01*
X93706379Y-134950499D01*
X93706383Y-134950500D01*
X93706384Y-134950500D01*
X93893617Y-134950500D01*
X93893618Y-134950499D01*
X94077251Y-134913973D01*
X94200436Y-134862947D01*
X94269903Y-134855479D01*
X94332382Y-134886754D01*
X94335543Y-134889804D01*
X94493013Y-135047273D01*
X94680565Y-135234825D01*
X94680568Y-135234829D01*
X94687636Y-135241897D01*
X94758103Y-135312364D01*
X94850172Y-135350500D01*
X97832745Y-135350500D01*
X97899784Y-135370185D01*
X97920426Y-135386819D01*
X97954087Y-135420480D01*
X98045413Y-135473207D01*
X98112238Y-135491112D01*
X98171897Y-135527475D01*
X98202427Y-135590321D01*
X98194133Y-135659697D01*
X98167825Y-135698567D01*
X95073212Y-138793181D01*
X95046284Y-138807884D01*
X95020466Y-138824477D01*
X95014265Y-138825368D01*
X95011889Y-138826666D01*
X94985531Y-138829500D01*
X94807908Y-138829500D01*
X94740869Y-138809815D01*
X94695114Y-138757011D01*
X94693347Y-138752953D01*
X94642323Y-138629772D01*
X94642323Y-138629771D01*
X94642322Y-138629769D01*
X94642320Y-138629766D01*
X94642318Y-138629762D01*
X94538302Y-138474092D01*
X94538299Y-138474088D01*
X94405911Y-138341700D01*
X94405907Y-138341697D01*
X94250237Y-138237681D01*
X94250228Y-138237676D01*
X94077251Y-138166027D01*
X94077243Y-138166025D01*
X93893620Y-138129500D01*
X93893616Y-138129500D01*
X93706384Y-138129500D01*
X93706379Y-138129500D01*
X93522756Y-138166025D01*
X93522748Y-138166027D01*
X93349771Y-138237676D01*
X93349762Y-138237681D01*
X93194092Y-138341697D01*
X93194088Y-138341700D01*
X93061700Y-138474088D01*
X93061697Y-138474092D01*
X92957681Y-138629762D01*
X92957676Y-138629771D01*
X92886027Y-138802748D01*
X92886025Y-138802756D01*
X92849500Y-138986379D01*
X92849500Y-139173620D01*
X92886025Y-139357243D01*
X92886027Y-139357251D01*
X92957676Y-139530228D01*
X92957681Y-139530237D01*
X93061697Y-139685907D01*
X93061700Y-139685911D01*
X93194088Y-139818299D01*
X93194092Y-139818302D01*
X93349762Y-139922318D01*
X93349768Y-139922321D01*
X93349769Y-139922322D01*
X93522749Y-139993973D01*
X93706379Y-140030499D01*
X93706383Y-140030500D01*
X93706384Y-140030500D01*
X93893617Y-140030500D01*
X93893618Y-140030499D01*
X94077251Y-139993973D01*
X94250231Y-139922322D01*
X94405908Y-139818302D01*
X94538302Y-139685908D01*
X94642322Y-139530231D01*
X94693347Y-139407047D01*
X94737188Y-139352644D01*
X94803482Y-139330579D01*
X94807908Y-139330500D01*
X95190480Y-139330500D01*
X95190482Y-139330500D01*
X95282551Y-139292364D01*
X101122364Y-133452551D01*
X101160500Y-133360482D01*
X101160500Y-133260827D01*
X101160500Y-120567255D01*
X101180185Y-120500216D01*
X101196819Y-120479574D01*
X101203188Y-120473205D01*
X101230480Y-120445913D01*
X101283207Y-120354587D01*
X101310500Y-120252727D01*
X101310500Y-120147273D01*
X101283207Y-120045413D01*
X101230480Y-119954087D01*
X101155913Y-119879520D01*
X101064587Y-119826793D01*
X100962727Y-119799500D01*
X100857273Y-119799500D01*
X100755413Y-119826793D01*
X100755410Y-119826794D01*
X100664085Y-119879521D01*
X100589521Y-119954085D01*
X100536794Y-120045410D01*
X100536793Y-120045413D01*
X100509500Y-120147273D01*
X100509500Y-120252727D01*
X100536793Y-120354587D01*
X100574836Y-120420480D01*
X100589521Y-120445914D01*
X100623181Y-120479574D01*
X100656666Y-120540897D01*
X100659500Y-120567255D01*
X100659500Y-133155531D01*
X100639815Y-133222570D01*
X100623181Y-133243212D01*
X98798567Y-135067825D01*
X98737244Y-135101310D01*
X98667552Y-135096326D01*
X98611619Y-135054454D01*
X98591113Y-135012240D01*
X98573207Y-134945413D01*
X98520480Y-134854087D01*
X98445913Y-134779520D01*
X98354587Y-134726793D01*
X98252727Y-134699500D01*
X98147273Y-134699500D01*
X98045413Y-134726793D01*
X98045410Y-134726794D01*
X97954085Y-134779521D01*
X97920426Y-134813181D01*
X97859103Y-134846666D01*
X97832745Y-134849500D01*
X95055122Y-134849500D01*
X94988083Y-134829815D01*
X94967441Y-134813181D01*
X94837366Y-134683106D01*
X94689826Y-134535566D01*
X94656343Y-134474245D01*
X94661327Y-134404553D01*
X94662934Y-134400467D01*
X94713973Y-134277251D01*
X94750500Y-134093616D01*
X94750500Y-133906384D01*
X94713973Y-133722749D01*
X94642322Y-133549769D01*
X94642321Y-133549768D01*
X94642318Y-133549762D01*
X94538302Y-133394092D01*
X94538299Y-133394088D01*
X94405911Y-133261700D01*
X94405907Y-133261697D01*
X94250237Y-133157681D01*
X94250228Y-133157676D01*
X94077251Y-133086027D01*
X94077243Y-133086025D01*
X93893620Y-133049500D01*
X93893616Y-133049500D01*
X93706384Y-133049500D01*
X93706379Y-133049500D01*
X93522756Y-133086025D01*
X93522748Y-133086027D01*
X93349771Y-133157676D01*
X93349762Y-133157681D01*
X93194092Y-133261697D01*
X93194088Y-133261700D01*
X93061700Y-133394088D01*
X93061697Y-133394092D01*
X92957681Y-133549762D01*
X92957676Y-133549771D01*
X92886027Y-133722748D01*
X92886025Y-133722756D01*
X92849500Y-133906379D01*
X92150500Y-133906379D01*
X92150500Y-132755123D01*
X92170185Y-132688084D01*
X92186819Y-132667442D01*
X98017442Y-126836819D01*
X98078765Y-126803334D01*
X98105123Y-126800500D01*
X98152725Y-126800500D01*
X98152727Y-126800500D01*
X98254587Y-126773207D01*
X98345913Y-126720480D01*
X98420480Y-126645913D01*
X98473207Y-126554587D01*
X98500500Y-126452727D01*
X98500500Y-126347273D01*
X98473207Y-126245413D01*
X98420480Y-126154087D01*
X98345913Y-126079520D01*
X98254587Y-126026793D01*
X98152727Y-125999500D01*
X98047273Y-125999500D01*
X97945413Y-126026793D01*
X97945410Y-126026794D01*
X97854085Y-126079521D01*
X97779521Y-126154085D01*
X97726794Y-126245410D01*
X97726793Y-126245413D01*
X97699500Y-126347273D01*
X97699500Y-126394877D01*
X97679815Y-126461916D01*
X97663181Y-126482558D01*
X91687637Y-132458101D01*
X91687636Y-132458102D01*
X91649500Y-132550170D01*
X86400500Y-132550170D01*
X86400500Y-118548543D01*
X90789499Y-118548543D01*
X90827947Y-118741829D01*
X90827950Y-118741839D01*
X90903364Y-118923907D01*
X90903371Y-118923920D01*
X91012860Y-119087781D01*
X91012863Y-119087785D01*
X91152214Y-119227136D01*
X91152218Y-119227139D01*
X91316079Y-119336628D01*
X91316092Y-119336635D01*
X91445175Y-119390102D01*
X91498165Y-119412051D01*
X91498169Y-119412051D01*
X91498170Y-119412052D01*
X91691456Y-119450500D01*
X91691459Y-119450500D01*
X91888543Y-119450500D01*
X92018582Y-119424632D01*
X92081835Y-119412051D01*
X92263914Y-119336632D01*
X92427782Y-119227139D01*
X92567139Y-119087782D01*
X92676632Y-118923914D01*
X92752051Y-118741835D01*
X92772465Y-118639208D01*
X92790500Y-118548543D01*
X92790500Y-118351456D01*
X92752052Y-118158170D01*
X92752051Y-118158169D01*
X92752051Y-118158165D01*
X92739057Y-118126794D01*
X92676635Y-117976092D01*
X92676628Y-117976079D01*
X92567139Y-117812218D01*
X92567136Y-117812214D01*
X92427785Y-117672863D01*
X92427781Y-117672860D01*
X92263920Y-117563371D01*
X92263907Y-117563364D01*
X92081839Y-117487950D01*
X92081829Y-117487947D01*
X91888543Y-117449500D01*
X91888541Y-117449500D01*
X91691459Y-117449500D01*
X91691457Y-117449500D01*
X91498170Y-117487947D01*
X91498160Y-117487950D01*
X91316092Y-117563364D01*
X91316079Y-117563371D01*
X91152218Y-117672860D01*
X91152214Y-117672863D01*
X91012863Y-117812214D01*
X91012860Y-117812218D01*
X90903371Y-117976079D01*
X90903364Y-117976092D01*
X90827950Y-118158160D01*
X90827947Y-118158170D01*
X90789500Y-118351456D01*
X90789500Y-118351459D01*
X90789500Y-118548541D01*
X90789500Y-118548543D01*
X90789499Y-118548543D01*
X86400500Y-118548543D01*
X86400500Y-110865350D01*
X91154500Y-110865350D01*
X91154500Y-111034649D01*
X91180981Y-111201847D01*
X91233296Y-111362853D01*
X91310152Y-111513688D01*
X91409648Y-111650634D01*
X91409652Y-111650639D01*
X91529360Y-111770347D01*
X91529365Y-111770351D01*
X91569486Y-111799500D01*
X91666315Y-111869850D01*
X91749753Y-111912364D01*
X91817146Y-111946703D01*
X91817148Y-111946703D01*
X91817151Y-111946705D01*
X91870866Y-111964158D01*
X91978152Y-111999018D01*
X92145351Y-112025500D01*
X92145356Y-112025500D01*
X92314649Y-112025500D01*
X92481847Y-111999018D01*
X92481850Y-111999017D01*
X92642849Y-111946705D01*
X92718030Y-111908397D01*
X92786699Y-111895501D01*
X92802191Y-111898053D01*
X92830266Y-111904527D01*
X92838103Y-111912364D01*
X92930172Y-111950500D01*
X93029615Y-111950500D01*
X93043365Y-111953671D01*
X93062015Y-111964158D01*
X93082539Y-111970185D01*
X93091858Y-111980939D01*
X93104266Y-111987917D01*
X93114285Y-112006822D01*
X93128294Y-112022989D01*
X93132082Y-112040401D01*
X93136985Y-112049653D01*
X93136179Y-112059236D01*
X93139500Y-112074500D01*
X93139500Y-112208260D01*
X93149426Y-112276391D01*
X93200803Y-112381485D01*
X93283514Y-112464196D01*
X93283515Y-112464196D01*
X93283517Y-112464198D01*
X93388607Y-112515573D01*
X93402238Y-112517559D01*
X93456739Y-112525500D01*
X93456740Y-112525500D01*
X94023261Y-112525500D01*
X94077762Y-112517559D01*
X94146939Y-112527372D01*
X94183321Y-112552582D01*
X95172636Y-113541897D01*
X95243103Y-113612364D01*
X95335172Y-113650500D01*
X100255501Y-113650500D01*
X100322540Y-113670185D01*
X100368295Y-113722989D01*
X100379501Y-113774500D01*
X100379501Y-113884902D01*
X100385330Y-113914212D01*
X100407542Y-113947457D01*
X100418214Y-113954587D01*
X100440787Y-113969669D01*
X100440790Y-113969669D01*
X100440791Y-113969670D01*
X100450647Y-113971630D01*
X100470101Y-113975500D01*
X101289898Y-113975499D01*
X101319213Y-113969669D01*
X101352457Y-113947457D01*
X101374669Y-113914213D01*
X101380500Y-113884899D01*
X101380499Y-112915102D01*
X101374669Y-112885787D01*
X101374668Y-112885785D01*
X101352457Y-112852542D01*
X101319214Y-112830332D01*
X101319215Y-112830332D01*
X101319213Y-112830331D01*
X101319211Y-112830330D01*
X101319208Y-112830329D01*
X101289901Y-112824500D01*
X100470105Y-112824500D01*
X100470097Y-112824501D01*
X100440787Y-112830330D01*
X100407542Y-112852542D01*
X100385332Y-112885785D01*
X100385329Y-112885791D01*
X100379500Y-112915098D01*
X100379500Y-113025500D01*
X100359815Y-113092539D01*
X100307011Y-113138294D01*
X100255500Y-113149500D01*
X95540123Y-113149500D01*
X95473084Y-113129815D01*
X95452442Y-113113181D01*
X94376819Y-112037558D01*
X94343334Y-111976235D01*
X94340500Y-111949877D01*
X94340500Y-111191739D01*
X94330573Y-111123608D01*
X94330573Y-111123607D01*
X94279198Y-111018517D01*
X94279196Y-111018515D01*
X94279196Y-111018514D01*
X94266819Y-111006137D01*
X94252115Y-110979209D01*
X94235523Y-110953391D01*
X94234631Y-110947190D01*
X94233334Y-110944814D01*
X94230500Y-110918456D01*
X94230500Y-110865350D01*
X101154500Y-110865350D01*
X101154500Y-111034649D01*
X101180981Y-111201847D01*
X101233296Y-111362853D01*
X101310152Y-111513688D01*
X101409648Y-111650634D01*
X101409652Y-111650639D01*
X101529360Y-111770347D01*
X101529365Y-111770351D01*
X101569486Y-111799500D01*
X101666315Y-111869850D01*
X101749753Y-111912364D01*
X101817146Y-111946703D01*
X101817148Y-111946703D01*
X101817151Y-111946705D01*
X101978153Y-111999018D01*
X102098381Y-112018060D01*
X102124898Y-112022260D01*
X102188032Y-112052189D01*
X102224964Y-112111500D01*
X102229500Y-112144733D01*
X102229500Y-112700500D01*
X102209815Y-112767539D01*
X102157011Y-112813294D01*
X102105503Y-112824500D01*
X102070106Y-112824500D01*
X102070097Y-112824501D01*
X102040787Y-112830330D01*
X102007542Y-112852542D01*
X101985332Y-112885785D01*
X101985329Y-112885791D01*
X101979500Y-112915098D01*
X101979500Y-113884894D01*
X101979501Y-113884902D01*
X101985330Y-113914212D01*
X102007542Y-113947457D01*
X102018214Y-113954587D01*
X102040787Y-113969669D01*
X102040790Y-113969669D01*
X102040791Y-113969670D01*
X102055444Y-113972584D01*
X102070101Y-113975500D01*
X102105499Y-113975499D01*
X102172537Y-113995182D01*
X102218293Y-114047985D01*
X102229500Y-114099499D01*
X102229500Y-119229829D01*
X102260773Y-119305329D01*
X102267636Y-119321897D01*
X102672533Y-119726794D01*
X103063181Y-120117441D01*
X103096666Y-120178764D01*
X103099500Y-120205122D01*
X103099500Y-120252727D01*
X103126793Y-120354587D01*
X103179520Y-120445913D01*
X103254087Y-120520480D01*
X103345413Y-120573207D01*
X103447273Y-120600500D01*
X103447275Y-120600500D01*
X103552725Y-120600500D01*
X103552727Y-120600500D01*
X103654587Y-120573207D01*
X103745913Y-120520480D01*
X103820480Y-120445913D01*
X103873207Y-120354587D01*
X103900500Y-120252727D01*
X103900500Y-120147273D01*
X104299500Y-120147273D01*
X104299500Y-120252727D01*
X104326793Y-120354587D01*
X104379520Y-120445913D01*
X104454087Y-120520480D01*
X104545413Y-120573207D01*
X104647273Y-120600500D01*
X104647275Y-120600500D01*
X104752725Y-120600500D01*
X104752727Y-120600500D01*
X104854587Y-120573207D01*
X104945913Y-120520480D01*
X105020480Y-120445913D01*
X105073207Y-120354587D01*
X105100500Y-120252727D01*
X105100500Y-120147273D01*
X105073207Y-120045413D01*
X105020480Y-119954087D01*
X104986819Y-119920426D01*
X104953334Y-119859103D01*
X104950500Y-119832745D01*
X104950500Y-116155123D01*
X104970185Y-116088084D01*
X104986819Y-116067442D01*
X108767442Y-112286819D01*
X108828765Y-112253334D01*
X108855123Y-112250500D01*
X116944877Y-112250500D01*
X117011916Y-112270185D01*
X117032558Y-112286819D01*
X151513181Y-146767441D01*
X151546666Y-146828764D01*
X151549500Y-146855122D01*
X151549500Y-159532745D01*
X151529815Y-159599784D01*
X151513181Y-159620426D01*
X151479521Y-159654085D01*
X151426794Y-159745410D01*
X151426793Y-159745413D01*
X151399500Y-159847273D01*
X151399500Y-159952727D01*
X151426793Y-160054587D01*
X151479520Y-160145913D01*
X151554087Y-160220480D01*
X151645413Y-160273207D01*
X151747273Y-160300500D01*
X151747275Y-160300500D01*
X151852725Y-160300500D01*
X151852727Y-160300500D01*
X151954587Y-160273207D01*
X152045913Y-160220480D01*
X152120480Y-160145913D01*
X152173207Y-160054587D01*
X152200500Y-159952727D01*
X152200500Y-159847273D01*
X152173207Y-159745413D01*
X152120480Y-159654087D01*
X152086819Y-159620426D01*
X152053334Y-159559103D01*
X152050500Y-159532745D01*
X152050500Y-159451156D01*
X166274499Y-159451156D01*
X166310065Y-159629952D01*
X166310068Y-159629962D01*
X166379831Y-159798387D01*
X166379833Y-159798391D01*
X166481113Y-159949967D01*
X166481119Y-159949975D01*
X166610024Y-160078880D01*
X166610032Y-160078886D01*
X166761608Y-160180166D01*
X166761612Y-160180168D01*
X166888092Y-160232557D01*
X166930042Y-160249933D01*
X166930046Y-160249933D01*
X166930047Y-160249934D01*
X167108843Y-160285500D01*
X167108846Y-160285500D01*
X167291156Y-160285500D01*
X167468756Y-160250172D01*
X167469958Y-160249933D01*
X167638389Y-160180167D01*
X167638391Y-160180166D01*
X167713672Y-160129864D01*
X167789972Y-160078883D01*
X167918883Y-159949972D01*
X168020167Y-159798389D01*
X168042112Y-159745410D01*
X168089931Y-159629962D01*
X168089933Y-159629958D01*
X168125500Y-159451154D01*
X168125500Y-159268846D01*
X168125500Y-159268843D01*
X168089934Y-159090047D01*
X168089933Y-159090046D01*
X168089933Y-159090042D01*
X168089931Y-159090037D01*
X168020168Y-158921612D01*
X168020166Y-158921608D01*
X167918886Y-158770032D01*
X167918880Y-158770024D01*
X167789975Y-158641119D01*
X167789967Y-158641113D01*
X167638391Y-158539833D01*
X167638387Y-158539831D01*
X167469962Y-158470068D01*
X167469952Y-158470065D01*
X167291156Y-158434500D01*
X167291154Y-158434500D01*
X167108846Y-158434500D01*
X167108844Y-158434500D01*
X166930047Y-158470065D01*
X166930037Y-158470068D01*
X166761612Y-158539831D01*
X166761608Y-158539833D01*
X166610032Y-158641113D01*
X166610024Y-158641119D01*
X166481119Y-158770024D01*
X166481113Y-158770032D01*
X166379833Y-158921608D01*
X166379831Y-158921612D01*
X166310068Y-159090037D01*
X166310065Y-159090047D01*
X166274500Y-159268843D01*
X166274500Y-159268846D01*
X166274500Y-159451154D01*
X166274500Y-159451156D01*
X166274499Y-159451156D01*
X152050500Y-159451156D01*
X152050500Y-156696739D01*
X153574500Y-156696739D01*
X153574500Y-157263260D01*
X153584426Y-157331391D01*
X153635803Y-157436485D01*
X153718514Y-157519196D01*
X153718515Y-157519196D01*
X153718517Y-157519198D01*
X153823607Y-157570573D01*
X153855240Y-157575182D01*
X153891739Y-157580500D01*
X153891740Y-157580500D01*
X154908261Y-157580500D01*
X154944760Y-157575182D01*
X154976393Y-157570573D01*
X154976394Y-157570572D01*
X154985595Y-157567730D01*
X154986468Y-157570558D01*
X155039891Y-157561428D01*
X155104193Y-157588760D01*
X155143511Y-157646518D01*
X155149500Y-157684590D01*
X155149500Y-158389894D01*
X155149501Y-158389902D01*
X155155330Y-158419212D01*
X155177542Y-158452457D01*
X155194219Y-158463599D01*
X155210787Y-158474669D01*
X155210790Y-158474669D01*
X155210791Y-158474670D01*
X155220647Y-158476630D01*
X155240101Y-158480500D01*
X156459898Y-158480499D01*
X156489213Y-158474669D01*
X156522457Y-158452457D01*
X156544669Y-158419213D01*
X156550500Y-158389899D01*
X156550499Y-157170102D01*
X156544669Y-157140787D01*
X156522457Y-157107542D01*
X156489214Y-157085332D01*
X156489215Y-157085332D01*
X156489213Y-157085331D01*
X156489211Y-157085330D01*
X156489208Y-157085329D01*
X156459901Y-157079500D01*
X156459899Y-157079500D01*
X155696544Y-157079500D01*
X155629505Y-157059815D01*
X155608863Y-157043181D01*
X155246813Y-156681131D01*
X155220235Y-156637047D01*
X155219802Y-156637259D01*
X155217396Y-156632338D01*
X155216021Y-156630057D01*
X155215574Y-156628610D01*
X155215573Y-156628607D01*
X155164198Y-156523517D01*
X155164196Y-156523515D01*
X155164196Y-156523514D01*
X155081485Y-156440803D01*
X155081483Y-156440802D01*
X154976393Y-156389427D01*
X154976391Y-156389426D01*
X154976389Y-156389425D01*
X154941738Y-156384377D01*
X154912163Y-156376234D01*
X154905284Y-156373384D01*
X154836111Y-156354850D01*
X154816144Y-156349500D01*
X154353856Y-156349500D01*
X154264712Y-156373386D01*
X154264711Y-156373386D01*
X154257663Y-156375275D01*
X154225570Y-156379500D01*
X153891739Y-156379500D01*
X153823608Y-156389426D01*
X153718514Y-156440803D01*
X153635803Y-156523514D01*
X153584426Y-156628608D01*
X153574500Y-156696739D01*
X152050500Y-156696739D01*
X152050500Y-146764270D01*
X152050501Y-146764261D01*
X152050501Y-146650174D01*
X152050500Y-146650170D01*
X152012364Y-146558104D01*
X152012363Y-146558102D01*
X151934832Y-146480571D01*
X151934825Y-146480565D01*
X133675951Y-128221690D01*
X133594359Y-128140098D01*
X136749500Y-128140098D01*
X136749500Y-129259894D01*
X136749501Y-129259902D01*
X136755330Y-129289212D01*
X136777542Y-129322457D01*
X136794219Y-129333599D01*
X136810787Y-129344669D01*
X136810790Y-129344669D01*
X136810791Y-129344670D01*
X136820647Y-129346630D01*
X136840101Y-129350500D01*
X137959898Y-129350499D01*
X137989213Y-129344669D01*
X138022457Y-129322457D01*
X138044669Y-129289213D01*
X138050500Y-129259899D01*
X138050499Y-128140102D01*
X138044669Y-128110787D01*
X138025148Y-128081570D01*
X138022457Y-128077542D01*
X137989214Y-128055332D01*
X137989215Y-128055332D01*
X137989213Y-128055331D01*
X137989211Y-128055330D01*
X137989208Y-128055329D01*
X137959901Y-128049500D01*
X136840105Y-128049500D01*
X136840097Y-128049501D01*
X136810787Y-128055330D01*
X136777542Y-128077542D01*
X136755332Y-128110785D01*
X136755329Y-128110791D01*
X136749500Y-128140098D01*
X133594359Y-128140098D01*
X126101534Y-120647273D01*
X145999500Y-120647273D01*
X145999500Y-120752727D01*
X146026793Y-120854587D01*
X146079520Y-120945913D01*
X146154087Y-121020480D01*
X146245413Y-121073207D01*
X146347273Y-121100500D01*
X146347275Y-121100500D01*
X146452725Y-121100500D01*
X146452727Y-121100500D01*
X146554587Y-121073207D01*
X146645913Y-121020480D01*
X146720480Y-120945913D01*
X146773207Y-120854587D01*
X146800500Y-120752727D01*
X146800500Y-120705123D01*
X146820185Y-120638084D01*
X146836819Y-120617442D01*
X147367442Y-120086819D01*
X147428765Y-120053334D01*
X147455123Y-120050500D01*
X150105501Y-120050500D01*
X150172540Y-120070185D01*
X150218295Y-120122989D01*
X150229501Y-120174500D01*
X150229501Y-120214902D01*
X150235330Y-120244212D01*
X150257542Y-120277457D01*
X150274219Y-120288599D01*
X150290787Y-120299669D01*
X150290790Y-120299669D01*
X150290791Y-120299670D01*
X150300647Y-120301630D01*
X150320101Y-120305500D01*
X151279898Y-120305499D01*
X151309213Y-120299669D01*
X151342457Y-120277457D01*
X151364669Y-120244213D01*
X151369240Y-120221235D01*
X151370500Y-120214901D01*
X151370500Y-120174500D01*
X151390185Y-120107461D01*
X151442989Y-120061706D01*
X151494500Y-120050500D01*
X152000501Y-120050500D01*
X152067540Y-120070185D01*
X152113295Y-120122989D01*
X152124501Y-120174500D01*
X152124501Y-120209902D01*
X152130330Y-120239212D01*
X152152542Y-120272457D01*
X152160026Y-120277457D01*
X152185787Y-120294669D01*
X152185790Y-120294669D01*
X152185791Y-120294670D01*
X152195647Y-120296630D01*
X152215101Y-120300500D01*
X153184898Y-120300499D01*
X153214213Y-120294669D01*
X153247457Y-120272457D01*
X153269669Y-120239213D01*
X153275500Y-120209899D01*
X153275499Y-119390102D01*
X153269669Y-119360787D01*
X153253530Y-119336632D01*
X153247457Y-119327542D01*
X153214214Y-119305332D01*
X153214215Y-119305332D01*
X153214213Y-119305331D01*
X153214211Y-119305330D01*
X153214208Y-119305329D01*
X153184901Y-119299500D01*
X152215105Y-119299500D01*
X152215097Y-119299501D01*
X152185787Y-119305330D01*
X152152542Y-119327542D01*
X152130332Y-119360785D01*
X152130329Y-119360791D01*
X152124500Y-119390098D01*
X152124500Y-119425500D01*
X152104815Y-119492539D01*
X152052011Y-119538294D01*
X152000500Y-119549500D01*
X151494499Y-119549500D01*
X151427460Y-119529815D01*
X151381705Y-119477011D01*
X151370499Y-119425500D01*
X151370499Y-119385105D01*
X151370498Y-119385097D01*
X151364669Y-119355787D01*
X151342457Y-119322542D01*
X151309214Y-119300332D01*
X151309215Y-119300332D01*
X151309213Y-119300331D01*
X151309211Y-119300330D01*
X151309208Y-119300329D01*
X151279901Y-119294500D01*
X150320105Y-119294500D01*
X150320097Y-119294501D01*
X150290787Y-119300330D01*
X150257542Y-119322542D01*
X150235332Y-119355785D01*
X150235329Y-119355791D01*
X150229500Y-119385098D01*
X150229500Y-119425500D01*
X150209815Y-119492539D01*
X150157011Y-119538294D01*
X150105500Y-119549500D01*
X147250170Y-119549500D01*
X147158102Y-119587636D01*
X147158101Y-119587637D01*
X146482558Y-120263181D01*
X146421235Y-120296666D01*
X146394877Y-120299500D01*
X146347273Y-120299500D01*
X146245413Y-120326793D01*
X146245410Y-120326794D01*
X146154085Y-120379521D01*
X146079521Y-120454085D01*
X146026794Y-120545410D01*
X146026793Y-120545413D01*
X145999500Y-120647273D01*
X126101534Y-120647273D01*
X117241897Y-111787636D01*
X117149829Y-111749500D01*
X117149828Y-111749500D01*
X108749828Y-111749500D01*
X108650172Y-111749500D01*
X108650170Y-111749500D01*
X108558102Y-111787636D01*
X104487636Y-115858102D01*
X104449500Y-115950170D01*
X104449500Y-119832745D01*
X104429815Y-119899784D01*
X104413181Y-119920426D01*
X104379521Y-119954085D01*
X104326794Y-120045410D01*
X104326793Y-120045413D01*
X104299500Y-120147273D01*
X103900500Y-120147273D01*
X103873207Y-120045413D01*
X103820480Y-119954087D01*
X103745913Y-119879520D01*
X103654587Y-119826793D01*
X103552727Y-119799500D01*
X103552726Y-119799500D01*
X103505122Y-119799500D01*
X103438083Y-119779815D01*
X103417441Y-119763181D01*
X102766819Y-119112558D01*
X102733334Y-119051235D01*
X102730500Y-119024877D01*
X102730500Y-114099499D01*
X102750185Y-114032460D01*
X102802989Y-113986705D01*
X102854500Y-113975499D01*
X102889895Y-113975499D01*
X102889898Y-113975499D01*
X102919213Y-113969669D01*
X102952457Y-113947457D01*
X102974669Y-113914213D01*
X102980500Y-113884899D01*
X102980499Y-112915102D01*
X102974669Y-112885787D01*
X102974668Y-112885785D01*
X102952457Y-112852542D01*
X102919214Y-112830332D01*
X102919215Y-112830332D01*
X102919213Y-112830331D01*
X102919211Y-112830330D01*
X102919208Y-112830329D01*
X102889901Y-112824500D01*
X102889899Y-112824500D01*
X102854500Y-112824500D01*
X102787461Y-112804815D01*
X102741706Y-112752011D01*
X102730500Y-112700500D01*
X102730500Y-111978012D01*
X102750185Y-111910973D01*
X102789724Y-111872276D01*
X102793672Y-111869856D01*
X102793685Y-111869850D01*
X102930641Y-111770346D01*
X103050346Y-111650641D01*
X103149850Y-111513685D01*
X103226705Y-111362849D01*
X103279018Y-111201847D01*
X103291410Y-111123607D01*
X103305500Y-111034649D01*
X103305500Y-110865350D01*
X103279018Y-110698152D01*
X103253780Y-110620478D01*
X103226705Y-110537151D01*
X103226703Y-110537148D01*
X103226703Y-110537146D01*
X103149850Y-110386315D01*
X103095880Y-110312031D01*
X103095879Y-110312028D01*
X103050351Y-110249365D01*
X103050347Y-110249360D01*
X103048260Y-110247273D01*
X134999500Y-110247273D01*
X134999500Y-110352726D01*
X135026793Y-110454586D01*
X135026794Y-110454589D01*
X135040922Y-110479059D01*
X135079520Y-110545913D01*
X135154087Y-110620480D01*
X135245413Y-110673207D01*
X135347273Y-110700500D01*
X135394877Y-110700500D01*
X135461916Y-110720185D01*
X135482558Y-110736819D01*
X138780565Y-114034825D01*
X138780568Y-114034829D01*
X138787636Y-114041897D01*
X138858103Y-114112364D01*
X138950172Y-114150500D01*
X138950174Y-114150500D01*
X139349827Y-114150500D01*
X139349828Y-114150500D01*
X139352546Y-114149373D01*
X139358949Y-114148685D01*
X139361808Y-114148117D01*
X139361858Y-114148372D01*
X139422015Y-114141905D01*
X139447452Y-114149373D01*
X139450172Y-114150500D01*
X139450173Y-114150500D01*
X145649826Y-114150500D01*
X145649828Y-114150500D01*
X145741897Y-114112364D01*
X145906988Y-113947273D01*
X148999500Y-113947273D01*
X148999500Y-114052727D01*
X149026793Y-114154587D01*
X149052887Y-114199784D01*
X149079521Y-114245914D01*
X149113181Y-114279574D01*
X149146666Y-114340897D01*
X149149500Y-114367255D01*
X149149500Y-114850172D01*
X149149500Y-114949828D01*
X149187636Y-115041897D01*
X150649500Y-116503761D01*
X152088181Y-117942441D01*
X152121666Y-118003764D01*
X152124500Y-118030122D01*
X152124500Y-118609894D01*
X152124501Y-118609902D01*
X152130330Y-118639212D01*
X152152542Y-118672457D01*
X152169219Y-118683599D01*
X152185787Y-118694669D01*
X152185790Y-118694669D01*
X152185791Y-118694670D01*
X152195647Y-118696630D01*
X152215101Y-118700500D01*
X153184898Y-118700499D01*
X153214213Y-118694669D01*
X153247457Y-118672457D01*
X153269669Y-118639213D01*
X153269670Y-118639208D01*
X153275500Y-118609901D01*
X153275500Y-118447273D01*
X156299500Y-118447273D01*
X156299500Y-118552727D01*
X156326793Y-118654587D01*
X156379520Y-118745913D01*
X156454087Y-118820480D01*
X156545413Y-118873207D01*
X156647273Y-118900500D01*
X156647275Y-118900500D01*
X156752725Y-118900500D01*
X156752727Y-118900500D01*
X156854587Y-118873207D01*
X156945913Y-118820480D01*
X156979574Y-118786819D01*
X157040897Y-118753334D01*
X157067255Y-118750500D01*
X158949826Y-118750500D01*
X158949828Y-118750500D01*
X159041897Y-118712364D01*
X160013518Y-117740742D01*
X167006443Y-117740742D01*
X167042009Y-117919538D01*
X167042012Y-117919548D01*
X167111775Y-118087973D01*
X167111777Y-118087977D01*
X167213057Y-118239553D01*
X167213063Y-118239561D01*
X167341968Y-118368466D01*
X167341976Y-118368472D01*
X167493552Y-118469752D01*
X167493556Y-118469754D01*
X167661981Y-118539517D01*
X167661986Y-118539519D01*
X167661990Y-118539519D01*
X167661991Y-118539520D01*
X167840787Y-118575086D01*
X167840790Y-118575086D01*
X168023100Y-118575086D01*
X168156546Y-118548541D01*
X168201902Y-118539519D01*
X168370333Y-118469753D01*
X168370335Y-118469752D01*
X168445616Y-118419450D01*
X168521916Y-118368469D01*
X168650827Y-118239558D01*
X168726174Y-118126793D01*
X168752110Y-118087977D01*
X168752112Y-118087973D01*
X168798457Y-117976086D01*
X168821877Y-117919544D01*
X168847626Y-117790097D01*
X168857444Y-117740742D01*
X168857444Y-117558429D01*
X168821878Y-117379633D01*
X168821877Y-117379632D01*
X168821877Y-117379628D01*
X168821875Y-117379623D01*
X168752112Y-117211198D01*
X168752110Y-117211194D01*
X168650830Y-117059618D01*
X168650824Y-117059610D01*
X168521919Y-116930705D01*
X168521911Y-116930699D01*
X168370335Y-116829419D01*
X168370331Y-116829417D01*
X168201906Y-116759654D01*
X168201896Y-116759651D01*
X168023100Y-116724086D01*
X168023098Y-116724086D01*
X167840790Y-116724086D01*
X167840788Y-116724086D01*
X167661991Y-116759651D01*
X167661981Y-116759654D01*
X167493556Y-116829417D01*
X167493552Y-116829419D01*
X167341976Y-116930699D01*
X167341968Y-116930705D01*
X167213063Y-117059610D01*
X167213057Y-117059618D01*
X167111777Y-117211194D01*
X167111775Y-117211198D01*
X167042012Y-117379623D01*
X167042009Y-117379633D01*
X167006444Y-117558429D01*
X167006444Y-117558432D01*
X167006444Y-117740740D01*
X167006444Y-117740742D01*
X167006443Y-117740742D01*
X160013518Y-117740742D01*
X161524455Y-116229803D01*
X161524458Y-116229802D01*
X161541896Y-116212364D01*
X161541897Y-116212364D01*
X162012364Y-115741897D01*
X162050500Y-115649828D01*
X162050500Y-115550173D01*
X162050500Y-108167255D01*
X162070185Y-108100216D01*
X162086819Y-108079574D01*
X162120480Y-108045913D01*
X162173207Y-107954587D01*
X162200500Y-107852727D01*
X162200500Y-107747273D01*
X162173207Y-107645413D01*
X162120480Y-107554087D01*
X162045913Y-107479520D01*
X161954587Y-107426793D01*
X161852727Y-107399500D01*
X161747273Y-107399500D01*
X161645413Y-107426793D01*
X161645410Y-107426794D01*
X161554085Y-107479521D01*
X161479521Y-107554085D01*
X161426794Y-107645410D01*
X161426793Y-107645413D01*
X161399500Y-107747273D01*
X161399500Y-107852726D01*
X161426793Y-107954586D01*
X161426794Y-107954589D01*
X161479521Y-108045914D01*
X161513181Y-108079574D01*
X161546666Y-108140897D01*
X161549500Y-108167255D01*
X161549500Y-115444877D01*
X161529815Y-115511916D01*
X161513181Y-115532558D01*
X158832558Y-118213181D01*
X158771235Y-118246666D01*
X158744877Y-118249500D01*
X157067255Y-118249500D01*
X157000216Y-118229815D01*
X156979574Y-118213181D01*
X156945914Y-118179521D01*
X156945913Y-118179520D01*
X156854587Y-118126793D01*
X156752727Y-118099500D01*
X156647273Y-118099500D01*
X156545413Y-118126793D01*
X156545410Y-118126794D01*
X156454085Y-118179521D01*
X156379521Y-118254085D01*
X156326794Y-118345410D01*
X156326793Y-118345413D01*
X156299500Y-118447273D01*
X153275500Y-118447273D01*
X153275500Y-118439146D01*
X153275499Y-117790105D01*
X153275498Y-117790097D01*
X153269669Y-117760787D01*
X153247457Y-117727542D01*
X153214214Y-117705332D01*
X153214215Y-117705332D01*
X153214213Y-117705331D01*
X153214211Y-117705330D01*
X153214208Y-117705329D01*
X153184901Y-117699500D01*
X153184899Y-117699500D01*
X152605122Y-117699500D01*
X152538083Y-117679815D01*
X152517441Y-117663181D01*
X149686819Y-114832558D01*
X149653334Y-114771235D01*
X149650500Y-114744877D01*
X149650500Y-114447273D01*
X149999500Y-114447273D01*
X149999500Y-114552727D01*
X150026793Y-114654587D01*
X150079520Y-114745913D01*
X150154087Y-114820480D01*
X150245413Y-114873207D01*
X150347273Y-114900500D01*
X150347275Y-114900500D01*
X150452725Y-114900500D01*
X150452727Y-114900500D01*
X150554587Y-114873207D01*
X150645913Y-114820480D01*
X150720480Y-114745913D01*
X150773207Y-114654587D01*
X150800500Y-114552727D01*
X150800500Y-114447273D01*
X150773207Y-114345413D01*
X150720480Y-114254087D01*
X150686819Y-114220426D01*
X150672115Y-114193498D01*
X150655523Y-114167680D01*
X150654631Y-114161479D01*
X150653334Y-114159103D01*
X150650500Y-114132745D01*
X150650500Y-113934499D01*
X150670185Y-113867460D01*
X150722989Y-113821705D01*
X150774500Y-113810499D01*
X151084895Y-113810499D01*
X151084898Y-113810499D01*
X151114213Y-113804669D01*
X151147457Y-113782457D01*
X151169669Y-113749213D01*
X151175500Y-113719899D01*
X151175499Y-112900102D01*
X151169669Y-112870787D01*
X151169668Y-112870785D01*
X151147457Y-112837542D01*
X151114214Y-112815332D01*
X151114215Y-112815332D01*
X151114213Y-112815331D01*
X151114211Y-112815330D01*
X151114208Y-112815329D01*
X151084901Y-112809500D01*
X150115105Y-112809500D01*
X150115097Y-112809501D01*
X150085787Y-112815330D01*
X150052542Y-112837542D01*
X150030332Y-112870785D01*
X150030329Y-112870791D01*
X150024500Y-112900098D01*
X150024500Y-113719894D01*
X150024501Y-113719902D01*
X150030330Y-113749212D01*
X150047227Y-113774500D01*
X150052543Y-113782457D01*
X150085787Y-113804669D01*
X150085789Y-113804669D01*
X150094387Y-113810414D01*
X150099479Y-113816507D01*
X150106703Y-113819806D01*
X150121565Y-113842932D01*
X150139194Y-113864025D01*
X150141146Y-113873401D01*
X150144477Y-113878584D01*
X150149500Y-113913519D01*
X150149500Y-114132745D01*
X150129815Y-114199784D01*
X150113181Y-114220426D01*
X150079521Y-114254085D01*
X150026794Y-114345410D01*
X150026793Y-114345413D01*
X149999500Y-114447273D01*
X149650500Y-114447273D01*
X149650500Y-114367255D01*
X149670185Y-114300216D01*
X149686819Y-114279574D01*
X149720480Y-114245913D01*
X149773207Y-114154587D01*
X149800500Y-114052727D01*
X149800500Y-113947273D01*
X149773207Y-113845413D01*
X149720480Y-113754087D01*
X149645913Y-113679520D01*
X149554587Y-113626793D01*
X149452727Y-113599500D01*
X149347273Y-113599500D01*
X149245413Y-113626793D01*
X149245410Y-113626794D01*
X149154085Y-113679521D01*
X149079521Y-113754085D01*
X149026794Y-113845410D01*
X149026793Y-113845413D01*
X148999500Y-113947273D01*
X145906988Y-113947273D01*
X147217442Y-112636819D01*
X147278765Y-112603334D01*
X147305123Y-112600500D01*
X147352725Y-112600500D01*
X147352727Y-112600500D01*
X147454587Y-112573207D01*
X147545913Y-112520480D01*
X147620480Y-112445913D01*
X147673207Y-112354587D01*
X147700500Y-112252727D01*
X147700500Y-112147273D01*
X147673207Y-112045413D01*
X147620480Y-111954087D01*
X147545913Y-111879520D01*
X147454587Y-111826793D01*
X147352727Y-111799500D01*
X147247273Y-111799500D01*
X147145413Y-111826793D01*
X147145410Y-111826794D01*
X147054085Y-111879521D01*
X146979521Y-111954085D01*
X146926794Y-112045410D01*
X146926793Y-112045413D01*
X146919775Y-112071606D01*
X146883410Y-112131267D01*
X146820563Y-112161796D01*
X146751188Y-112153501D01*
X146697310Y-112109016D01*
X146693998Y-112103852D01*
X146684808Y-112088712D01*
X146673207Y-112045413D01*
X146620480Y-111954087D01*
X146576251Y-111909858D01*
X146568498Y-111897084D01*
X146563204Y-111877179D01*
X146553334Y-111859103D01*
X146550500Y-111832745D01*
X146550500Y-111300098D01*
X150024500Y-111300098D01*
X150024500Y-112119894D01*
X150024501Y-112119902D01*
X150030330Y-112149212D01*
X150052542Y-112182457D01*
X150069219Y-112193599D01*
X150085787Y-112204669D01*
X150085790Y-112204669D01*
X150085791Y-112204670D01*
X150095647Y-112206630D01*
X150115101Y-112210500D01*
X151084898Y-112210499D01*
X151114213Y-112204669D01*
X151147457Y-112182457D01*
X151169669Y-112149213D01*
X151175500Y-112119899D01*
X151175499Y-111300102D01*
X151169669Y-111270787D01*
X151169668Y-111270785D01*
X151147457Y-111237542D01*
X151114214Y-111215332D01*
X151114215Y-111215332D01*
X151114213Y-111215331D01*
X151114211Y-111215330D01*
X151114208Y-111215329D01*
X151084901Y-111209500D01*
X151084899Y-111209500D01*
X150974500Y-111209500D01*
X150907461Y-111189815D01*
X150861706Y-111137011D01*
X150850500Y-111085500D01*
X150850500Y-110459500D01*
X150870185Y-110392461D01*
X150922989Y-110346706D01*
X150974500Y-110335500D01*
X151319057Y-110335500D01*
X151341767Y-110332191D01*
X151387189Y-110325573D01*
X151492279Y-110274198D01*
X151574994Y-110191483D01*
X151626369Y-110086393D01*
X151636296Y-110018260D01*
X151636296Y-109001740D01*
X151626369Y-108933607D01*
X151574994Y-108828517D01*
X151574992Y-108828515D01*
X151574992Y-108828514D01*
X151492281Y-108745803D01*
X151387187Y-108694426D01*
X151319057Y-108684500D01*
X151319056Y-108684500D01*
X150752536Y-108684500D01*
X150752535Y-108684500D01*
X150684404Y-108694426D01*
X150579310Y-108745803D01*
X150496599Y-108828514D01*
X150445222Y-108933608D01*
X150435296Y-109001739D01*
X150435296Y-109257877D01*
X150415611Y-109324916D01*
X150398977Y-109345558D01*
X150376433Y-109368101D01*
X150376432Y-109368102D01*
X150338296Y-109460170D01*
X150338296Y-109559829D01*
X150340061Y-109564089D01*
X150349500Y-109611542D01*
X150349500Y-111085500D01*
X150329815Y-111152539D01*
X150277011Y-111198294D01*
X150225501Y-111209500D01*
X150115105Y-111209500D01*
X150115097Y-111209501D01*
X150085787Y-111215330D01*
X150052542Y-111237542D01*
X150030332Y-111270785D01*
X150030329Y-111270791D01*
X150024500Y-111300098D01*
X146550500Y-111300098D01*
X146550500Y-110055123D01*
X146570185Y-109988084D01*
X146586819Y-109967442D01*
X148667442Y-107886819D01*
X148728765Y-107853334D01*
X148755123Y-107850500D01*
X157044877Y-107850500D01*
X157111916Y-107870185D01*
X157132558Y-107886819D01*
X160013181Y-110767442D01*
X160046666Y-110828765D01*
X160049500Y-110855123D01*
X160049500Y-113464689D01*
X160029815Y-113531728D01*
X160013181Y-113552370D01*
X160011465Y-113554085D01*
X159958738Y-113645410D01*
X159958737Y-113645413D01*
X159931444Y-113747273D01*
X159931444Y-113852727D01*
X159958737Y-113954587D01*
X160011464Y-114045913D01*
X160086031Y-114120480D01*
X160177357Y-114173207D01*
X160279217Y-114200500D01*
X160279219Y-114200500D01*
X160384669Y-114200500D01*
X160384671Y-114200500D01*
X160486531Y-114173207D01*
X160577857Y-114120480D01*
X160652424Y-114045913D01*
X160705151Y-113954587D01*
X160732444Y-113852727D01*
X160732444Y-113747273D01*
X160705151Y-113645413D01*
X160652424Y-113554087D01*
X160586818Y-113488481D01*
X160553334Y-113427157D01*
X160550500Y-113400800D01*
X160550500Y-110650173D01*
X160550499Y-110650170D01*
X160538200Y-110620478D01*
X160512364Y-110558103D01*
X160441897Y-110487636D01*
X157341897Y-107387636D01*
X157249829Y-107349500D01*
X157249828Y-107349500D01*
X148649828Y-107349500D01*
X148550172Y-107349500D01*
X148550170Y-107349500D01*
X148458102Y-107387636D01*
X146087636Y-109758102D01*
X146049500Y-109850170D01*
X146049500Y-111832745D01*
X146029815Y-111899784D01*
X146013181Y-111920426D01*
X145979521Y-111954085D01*
X145926794Y-112045410D01*
X145926793Y-112045413D01*
X145899500Y-112147273D01*
X145899500Y-112252727D01*
X145926793Y-112354587D01*
X145979520Y-112445913D01*
X146054087Y-112520480D01*
X146145413Y-112573207D01*
X146247273Y-112600500D01*
X146247281Y-112600500D01*
X146255333Y-112601561D01*
X146255115Y-112603212D01*
X146312916Y-112620185D01*
X146358671Y-112672989D01*
X146368615Y-112742147D01*
X146339590Y-112805703D01*
X146333558Y-112812181D01*
X145532558Y-113613181D01*
X145471235Y-113646666D01*
X145444877Y-113649500D01*
X139655123Y-113649500D01*
X139588084Y-113629815D01*
X139567442Y-113613181D01*
X139541897Y-113587636D01*
X139449829Y-113549500D01*
X139449828Y-113549500D01*
X139449827Y-113549500D01*
X139350172Y-113549500D01*
X139350170Y-113549500D01*
X139258103Y-113587636D01*
X139237679Y-113608060D01*
X139176355Y-113641544D01*
X139106663Y-113636558D01*
X139062318Y-113608058D01*
X135836819Y-110382558D01*
X135803334Y-110321235D01*
X135800500Y-110294877D01*
X135800500Y-110247275D01*
X135800500Y-110247273D01*
X135773207Y-110145413D01*
X135720480Y-110054087D01*
X135645913Y-109979520D01*
X135554587Y-109926793D01*
X135452727Y-109899500D01*
X135347273Y-109899500D01*
X135245413Y-109926793D01*
X135245410Y-109926794D01*
X135154085Y-109979521D01*
X135079521Y-110054085D01*
X135026794Y-110145410D01*
X135026793Y-110145413D01*
X134999500Y-110247273D01*
X103048260Y-110247273D01*
X102930639Y-110129652D01*
X102930634Y-110129648D01*
X102793688Y-110030152D01*
X102793687Y-110030151D01*
X102793685Y-110030150D01*
X102741894Y-110003761D01*
X102642853Y-109953296D01*
X102481847Y-109900981D01*
X102314649Y-109874500D01*
X102314644Y-109874500D01*
X102145356Y-109874500D01*
X102145351Y-109874500D01*
X101978152Y-109900981D01*
X101817146Y-109953296D01*
X101666311Y-110030152D01*
X101529365Y-110129648D01*
X101529360Y-110129652D01*
X101409652Y-110249360D01*
X101409648Y-110249365D01*
X101310152Y-110386311D01*
X101233296Y-110537146D01*
X101180981Y-110698152D01*
X101154500Y-110865350D01*
X94230500Y-110865350D01*
X94230500Y-109947962D01*
X94243100Y-109893502D01*
X94290572Y-109796395D01*
X94290573Y-109796392D01*
X94300500Y-109728260D01*
X94300500Y-108711739D01*
X94290573Y-108643608D01*
X94290573Y-108643607D01*
X94239198Y-108538517D01*
X94239196Y-108538515D01*
X94239196Y-108538514D01*
X94156485Y-108455803D01*
X94051391Y-108404426D01*
X93983261Y-108394500D01*
X93983260Y-108394500D01*
X93416740Y-108394500D01*
X93416739Y-108394500D01*
X93348608Y-108404426D01*
X93243514Y-108455803D01*
X93160803Y-108538514D01*
X93109426Y-108643608D01*
X93099500Y-108711739D01*
X93099500Y-109728260D01*
X93109426Y-109796391D01*
X93160803Y-109901485D01*
X93243514Y-109984196D01*
X93243515Y-109984196D01*
X93243517Y-109984198D01*
X93348607Y-110035573D01*
X93382673Y-110040536D01*
X93416739Y-110045500D01*
X93416740Y-110045500D01*
X93605500Y-110045500D01*
X93672539Y-110065185D01*
X93718294Y-110117989D01*
X93729500Y-110169500D01*
X93729500Y-110750500D01*
X93727405Y-110757632D01*
X93728654Y-110764963D01*
X93717694Y-110790703D01*
X93709815Y-110817539D01*
X93704196Y-110822407D01*
X93701284Y-110829249D01*
X93678146Y-110844979D01*
X93657011Y-110863294D01*
X93648221Y-110865325D01*
X93643504Y-110868533D01*
X93614945Y-110873016D01*
X93608711Y-110874458D01*
X93607090Y-110874500D01*
X93456740Y-110874500D01*
X93424228Y-110879236D01*
X93416852Y-110879428D01*
X93389927Y-110872274D01*
X93362340Y-110868360D01*
X93356623Y-110863425D01*
X93349325Y-110861486D01*
X93330539Y-110840908D01*
X93309451Y-110822704D01*
X93306232Y-110814282D01*
X93302218Y-110809885D01*
X93300342Y-110798870D01*
X93291168Y-110774867D01*
X93289599Y-110764963D01*
X93285142Y-110736819D01*
X93279018Y-110698152D01*
X93253780Y-110620478D01*
X93226705Y-110537151D01*
X93226703Y-110537148D01*
X93226703Y-110537146D01*
X93198820Y-110482425D01*
X93149850Y-110386315D01*
X93125446Y-110352726D01*
X93050351Y-110249365D01*
X93050347Y-110249360D01*
X92930639Y-110129652D01*
X92930634Y-110129648D01*
X92793688Y-110030152D01*
X92793687Y-110030151D01*
X92793685Y-110030150D01*
X92741894Y-110003761D01*
X92642853Y-109953296D01*
X92481847Y-109900981D01*
X92314649Y-109874500D01*
X92314644Y-109874500D01*
X92145356Y-109874500D01*
X92145351Y-109874500D01*
X91978152Y-109900981D01*
X91817146Y-109953296D01*
X91666311Y-110030152D01*
X91529365Y-110129648D01*
X91529360Y-110129652D01*
X91409652Y-110249360D01*
X91409648Y-110249365D01*
X91310152Y-110386311D01*
X91233296Y-110537146D01*
X91180981Y-110698152D01*
X91154500Y-110865350D01*
X86400500Y-110865350D01*
X86400500Y-108750862D01*
X86420185Y-108683823D01*
X86436819Y-108663181D01*
X89363681Y-105736319D01*
X89425004Y-105702834D01*
X89451362Y-105700000D01*
X169948638Y-105700000D01*
X170015677Y-105719685D01*
G37*
%TD.AperFunction*%
%TD*%
M02*
