%TF.GenerationSoftware,KiCad,Pcbnew,9.0.7*%
%TF.CreationDate,2026-02-25T22:30:07-06:00*%
%TF.ProjectId,circle_of_life,63697263-6c65-45f6-9f66-5f6c6966652e,rev?*%
%TF.SameCoordinates,Original*%
%TF.FileFunction,Legend,Top*%
%TF.FilePolarity,Positive*%
%FSLAX46Y46*%
G04 Gerber Fmt 4.6, Leading zero omitted, Abs format (unit mm)*
G04 Created by KiCad (PCBNEW 9.0.7) date 2026-02-25 22:30:07*
%MOMM*%
%LPD*%
G01*
G04 APERTURE LIST*
%ADD10C,0.200000*%
%ADD11C,0.254000*%
%ADD12C,0.150000*%
%ADD13C,0.120000*%
%ADD14C,0.100000*%
%ADD15C,0.250000*%
%ADD16C,0.127000*%
%ADD17C,0.152400*%
G04 APERTURE END LIST*
D10*
X146372054Y-139304950D02*
X147514911Y-139304950D01*
X146943482Y-141304950D02*
X146943482Y-139304950D01*
X148943483Y-141209712D02*
X148753007Y-141304950D01*
X148753007Y-141304950D02*
X148372054Y-141304950D01*
X148372054Y-141304950D02*
X148181578Y-141209712D01*
X148181578Y-141209712D02*
X148086340Y-141019235D01*
X148086340Y-141019235D02*
X148086340Y-140257331D01*
X148086340Y-140257331D02*
X148181578Y-140066854D01*
X148181578Y-140066854D02*
X148372054Y-139971616D01*
X148372054Y-139971616D02*
X148753007Y-139971616D01*
X148753007Y-139971616D02*
X148943483Y-140066854D01*
X148943483Y-140066854D02*
X149038721Y-140257331D01*
X149038721Y-140257331D02*
X149038721Y-140447807D01*
X149038721Y-140447807D02*
X148086340Y-140638283D01*
X150753007Y-141304950D02*
X150753007Y-140257331D01*
X150753007Y-140257331D02*
X150657769Y-140066854D01*
X150657769Y-140066854D02*
X150467293Y-139971616D01*
X150467293Y-139971616D02*
X150086340Y-139971616D01*
X150086340Y-139971616D02*
X149895864Y-140066854D01*
X150753007Y-141209712D02*
X150562531Y-141304950D01*
X150562531Y-141304950D02*
X150086340Y-141304950D01*
X150086340Y-141304950D02*
X149895864Y-141209712D01*
X149895864Y-141209712D02*
X149800626Y-141019235D01*
X149800626Y-141019235D02*
X149800626Y-140828759D01*
X149800626Y-140828759D02*
X149895864Y-140638283D01*
X149895864Y-140638283D02*
X150086340Y-140543045D01*
X150086340Y-140543045D02*
X150562531Y-140543045D01*
X150562531Y-140543045D02*
X150753007Y-140447807D01*
X151705388Y-141304950D02*
X151705388Y-139971616D01*
X151705388Y-140162092D02*
X151800626Y-140066854D01*
X151800626Y-140066854D02*
X151991102Y-139971616D01*
X151991102Y-139971616D02*
X152276817Y-139971616D01*
X152276817Y-139971616D02*
X152467293Y-140066854D01*
X152467293Y-140066854D02*
X152562531Y-140257331D01*
X152562531Y-140257331D02*
X152562531Y-141304950D01*
X152562531Y-140257331D02*
X152657769Y-140066854D01*
X152657769Y-140066854D02*
X152848245Y-139971616D01*
X152848245Y-139971616D02*
X153133959Y-139971616D01*
X153133959Y-139971616D02*
X153324436Y-140066854D01*
X153324436Y-140066854D02*
X153419674Y-140257331D01*
X153419674Y-140257331D02*
X153419674Y-141304950D01*
X155705389Y-139304950D02*
X157038722Y-139304950D01*
X157038722Y-139304950D02*
X156181579Y-141304950D01*
X157610151Y-139304950D02*
X158848246Y-139304950D01*
X158848246Y-139304950D02*
X158181579Y-140066854D01*
X158181579Y-140066854D02*
X158467294Y-140066854D01*
X158467294Y-140066854D02*
X158657770Y-140162092D01*
X158657770Y-140162092D02*
X158753008Y-140257331D01*
X158753008Y-140257331D02*
X158848246Y-140447807D01*
X158848246Y-140447807D02*
X158848246Y-140923997D01*
X158848246Y-140923997D02*
X158753008Y-141114473D01*
X158753008Y-141114473D02*
X158657770Y-141209712D01*
X158657770Y-141209712D02*
X158467294Y-141304950D01*
X158467294Y-141304950D02*
X157895865Y-141304950D01*
X157895865Y-141304950D02*
X157705389Y-141209712D01*
X157705389Y-141209712D02*
X157610151Y-141114473D01*
X147800625Y-144334361D02*
X147705387Y-144429600D01*
X147705387Y-144429600D02*
X147419673Y-144524838D01*
X147419673Y-144524838D02*
X147229197Y-144524838D01*
X147229197Y-144524838D02*
X146943482Y-144429600D01*
X146943482Y-144429600D02*
X146753006Y-144239123D01*
X146753006Y-144239123D02*
X146657768Y-144048647D01*
X146657768Y-144048647D02*
X146562530Y-143667695D01*
X146562530Y-143667695D02*
X146562530Y-143381980D01*
X146562530Y-143381980D02*
X146657768Y-143001028D01*
X146657768Y-143001028D02*
X146753006Y-142810552D01*
X146753006Y-142810552D02*
X146943482Y-142620076D01*
X146943482Y-142620076D02*
X147229197Y-142524838D01*
X147229197Y-142524838D02*
X147419673Y-142524838D01*
X147419673Y-142524838D02*
X147705387Y-142620076D01*
X147705387Y-142620076D02*
X147800625Y-142715314D01*
X148657768Y-144524838D02*
X148657768Y-143191504D01*
X148657768Y-142524838D02*
X148562530Y-142620076D01*
X148562530Y-142620076D02*
X148657768Y-142715314D01*
X148657768Y-142715314D02*
X148753006Y-142620076D01*
X148753006Y-142620076D02*
X148657768Y-142524838D01*
X148657768Y-142524838D02*
X148657768Y-142715314D01*
X149610149Y-144524838D02*
X149610149Y-143191504D01*
X149610149Y-143572457D02*
X149705387Y-143381980D01*
X149705387Y-143381980D02*
X149800625Y-143286742D01*
X149800625Y-143286742D02*
X149991101Y-143191504D01*
X149991101Y-143191504D02*
X150181578Y-143191504D01*
X151705387Y-144429600D02*
X151514911Y-144524838D01*
X151514911Y-144524838D02*
X151133958Y-144524838D01*
X151133958Y-144524838D02*
X150943482Y-144429600D01*
X150943482Y-144429600D02*
X150848244Y-144334361D01*
X150848244Y-144334361D02*
X150753006Y-144143885D01*
X150753006Y-144143885D02*
X150753006Y-143572457D01*
X150753006Y-143572457D02*
X150848244Y-143381980D01*
X150848244Y-143381980D02*
X150943482Y-143286742D01*
X150943482Y-143286742D02*
X151133958Y-143191504D01*
X151133958Y-143191504D02*
X151514911Y-143191504D01*
X151514911Y-143191504D02*
X151705387Y-143286742D01*
X152848244Y-144524838D02*
X152657768Y-144429600D01*
X152657768Y-144429600D02*
X152562530Y-144239123D01*
X152562530Y-144239123D02*
X152562530Y-142524838D01*
X154372054Y-144429600D02*
X154181578Y-144524838D01*
X154181578Y-144524838D02*
X153800625Y-144524838D01*
X153800625Y-144524838D02*
X153610149Y-144429600D01*
X153610149Y-144429600D02*
X153514911Y-144239123D01*
X153514911Y-144239123D02*
X153514911Y-143477219D01*
X153514911Y-143477219D02*
X153610149Y-143286742D01*
X153610149Y-143286742D02*
X153800625Y-143191504D01*
X153800625Y-143191504D02*
X154181578Y-143191504D01*
X154181578Y-143191504D02*
X154372054Y-143286742D01*
X154372054Y-143286742D02*
X154467292Y-143477219D01*
X154467292Y-143477219D02*
X154467292Y-143667695D01*
X154467292Y-143667695D02*
X153514911Y-143858171D01*
X157133959Y-144524838D02*
X156943483Y-144429600D01*
X156943483Y-144429600D02*
X156848245Y-144334361D01*
X156848245Y-144334361D02*
X156753007Y-144143885D01*
X156753007Y-144143885D02*
X156753007Y-143572457D01*
X156753007Y-143572457D02*
X156848245Y-143381980D01*
X156848245Y-143381980D02*
X156943483Y-143286742D01*
X156943483Y-143286742D02*
X157133959Y-143191504D01*
X157133959Y-143191504D02*
X157419674Y-143191504D01*
X157419674Y-143191504D02*
X157610150Y-143286742D01*
X157610150Y-143286742D02*
X157705388Y-143381980D01*
X157705388Y-143381980D02*
X157800626Y-143572457D01*
X157800626Y-143572457D02*
X157800626Y-144143885D01*
X157800626Y-144143885D02*
X157705388Y-144334361D01*
X157705388Y-144334361D02*
X157610150Y-144429600D01*
X157610150Y-144429600D02*
X157419674Y-144524838D01*
X157419674Y-144524838D02*
X157133959Y-144524838D01*
X158372055Y-143191504D02*
X159133959Y-143191504D01*
X158657769Y-144524838D02*
X158657769Y-142810552D01*
X158657769Y-142810552D02*
X158753007Y-142620076D01*
X158753007Y-142620076D02*
X158943483Y-142524838D01*
X158943483Y-142524838D02*
X159133959Y-142524838D01*
X162276817Y-144524838D02*
X161324436Y-144524838D01*
X161324436Y-144524838D02*
X161324436Y-142524838D01*
X162943484Y-144524838D02*
X162943484Y-143191504D01*
X162943484Y-142524838D02*
X162848246Y-142620076D01*
X162848246Y-142620076D02*
X162943484Y-142715314D01*
X162943484Y-142715314D02*
X163038722Y-142620076D01*
X163038722Y-142620076D02*
X162943484Y-142524838D01*
X162943484Y-142524838D02*
X162943484Y-142715314D01*
X163610151Y-143191504D02*
X164372055Y-143191504D01*
X163895865Y-144524838D02*
X163895865Y-142810552D01*
X163895865Y-142810552D02*
X163991103Y-142620076D01*
X163991103Y-142620076D02*
X164181579Y-142524838D01*
X164181579Y-142524838D02*
X164372055Y-142524838D01*
X165800627Y-144429600D02*
X165610151Y-144524838D01*
X165610151Y-144524838D02*
X165229198Y-144524838D01*
X165229198Y-144524838D02*
X165038722Y-144429600D01*
X165038722Y-144429600D02*
X164943484Y-144239123D01*
X164943484Y-144239123D02*
X164943484Y-143477219D01*
X164943484Y-143477219D02*
X165038722Y-143286742D01*
X165038722Y-143286742D02*
X165229198Y-143191504D01*
X165229198Y-143191504D02*
X165610151Y-143191504D01*
X165610151Y-143191504D02*
X165800627Y-143286742D01*
X165800627Y-143286742D02*
X165895865Y-143477219D01*
X165895865Y-143477219D02*
X165895865Y-143667695D01*
X165895865Y-143667695D02*
X164943484Y-143858171D01*
X167991104Y-142524838D02*
X168657770Y-144524838D01*
X168657770Y-144524838D02*
X169324437Y-142524838D01*
X171038723Y-144524838D02*
X169895866Y-144524838D01*
X170467294Y-144524838D02*
X170467294Y-142524838D01*
X170467294Y-142524838D02*
X170276818Y-142810552D01*
X170276818Y-142810552D02*
X170086342Y-143001028D01*
X170086342Y-143001028D02*
X169895866Y-143096266D01*
D11*
X149174318Y-112516428D02*
X148569556Y-112939762D01*
X149174318Y-113242143D02*
X147904318Y-113242143D01*
X147904318Y-113242143D02*
X147904318Y-112758333D01*
X147904318Y-112758333D02*
X147964794Y-112637381D01*
X147964794Y-112637381D02*
X148025270Y-112576904D01*
X148025270Y-112576904D02*
X148146222Y-112516428D01*
X148146222Y-112516428D02*
X148327651Y-112516428D01*
X148327651Y-112516428D02*
X148448603Y-112576904D01*
X148448603Y-112576904D02*
X148509080Y-112637381D01*
X148509080Y-112637381D02*
X148569556Y-112758333D01*
X148569556Y-112758333D02*
X148569556Y-113242143D01*
X149174318Y-111306904D02*
X149174318Y-112032619D01*
X149174318Y-111669762D02*
X147904318Y-111669762D01*
X147904318Y-111669762D02*
X148085746Y-111790714D01*
X148085746Y-111790714D02*
X148206699Y-111911666D01*
X148206699Y-111911666D02*
X148267175Y-112032619D01*
X148448603Y-110581190D02*
X148388127Y-110702142D01*
X148388127Y-110702142D02*
X148327651Y-110762619D01*
X148327651Y-110762619D02*
X148206699Y-110823095D01*
X148206699Y-110823095D02*
X148146222Y-110823095D01*
X148146222Y-110823095D02*
X148025270Y-110762619D01*
X148025270Y-110762619D02*
X147964794Y-110702142D01*
X147964794Y-110702142D02*
X147904318Y-110581190D01*
X147904318Y-110581190D02*
X147904318Y-110339285D01*
X147904318Y-110339285D02*
X147964794Y-110218333D01*
X147964794Y-110218333D02*
X148025270Y-110157857D01*
X148025270Y-110157857D02*
X148146222Y-110097380D01*
X148146222Y-110097380D02*
X148206699Y-110097380D01*
X148206699Y-110097380D02*
X148327651Y-110157857D01*
X148327651Y-110157857D02*
X148388127Y-110218333D01*
X148388127Y-110218333D02*
X148448603Y-110339285D01*
X148448603Y-110339285D02*
X148448603Y-110581190D01*
X148448603Y-110581190D02*
X148509080Y-110702142D01*
X148509080Y-110702142D02*
X148569556Y-110762619D01*
X148569556Y-110762619D02*
X148690508Y-110823095D01*
X148690508Y-110823095D02*
X148932413Y-110823095D01*
X148932413Y-110823095D02*
X149053365Y-110762619D01*
X149053365Y-110762619D02*
X149113842Y-110702142D01*
X149113842Y-110702142D02*
X149174318Y-110581190D01*
X149174318Y-110581190D02*
X149174318Y-110339285D01*
X149174318Y-110339285D02*
X149113842Y-110218333D01*
X149113842Y-110218333D02*
X149053365Y-110157857D01*
X149053365Y-110157857D02*
X148932413Y-110097380D01*
X148932413Y-110097380D02*
X148690508Y-110097380D01*
X148690508Y-110097380D02*
X148569556Y-110157857D01*
X148569556Y-110157857D02*
X148509080Y-110218333D01*
X148509080Y-110218333D02*
X148448603Y-110339285D01*
X98638333Y-161754318D02*
X98214999Y-161149556D01*
X97912618Y-161754318D02*
X97912618Y-160484318D01*
X97912618Y-160484318D02*
X98396428Y-160484318D01*
X98396428Y-160484318D02*
X98517380Y-160544794D01*
X98517380Y-160544794D02*
X98577857Y-160605270D01*
X98577857Y-160605270D02*
X98638333Y-160726222D01*
X98638333Y-160726222D02*
X98638333Y-160907651D01*
X98638333Y-160907651D02*
X98577857Y-161028603D01*
X98577857Y-161028603D02*
X98517380Y-161089080D01*
X98517380Y-161089080D02*
X98396428Y-161149556D01*
X98396428Y-161149556D02*
X97912618Y-161149556D01*
X99243095Y-161754318D02*
X99484999Y-161754318D01*
X99484999Y-161754318D02*
X99605952Y-161693842D01*
X99605952Y-161693842D02*
X99666428Y-161633365D01*
X99666428Y-161633365D02*
X99787380Y-161451937D01*
X99787380Y-161451937D02*
X99847857Y-161210032D01*
X99847857Y-161210032D02*
X99847857Y-160726222D01*
X99847857Y-160726222D02*
X99787380Y-160605270D01*
X99787380Y-160605270D02*
X99726904Y-160544794D01*
X99726904Y-160544794D02*
X99605952Y-160484318D01*
X99605952Y-160484318D02*
X99364047Y-160484318D01*
X99364047Y-160484318D02*
X99243095Y-160544794D01*
X99243095Y-160544794D02*
X99182618Y-160605270D01*
X99182618Y-160605270D02*
X99122142Y-160726222D01*
X99122142Y-160726222D02*
X99122142Y-161028603D01*
X99122142Y-161028603D02*
X99182618Y-161149556D01*
X99182618Y-161149556D02*
X99243095Y-161210032D01*
X99243095Y-161210032D02*
X99364047Y-161270508D01*
X99364047Y-161270508D02*
X99605952Y-161270508D01*
X99605952Y-161270508D02*
X99726904Y-161210032D01*
X99726904Y-161210032D02*
X99787380Y-161149556D01*
X99787380Y-161149556D02*
X99847857Y-161028603D01*
D12*
X128566666Y-136534819D02*
X128566666Y-137249104D01*
X128566666Y-137249104D02*
X128519047Y-137391961D01*
X128519047Y-137391961D02*
X128423809Y-137487200D01*
X128423809Y-137487200D02*
X128280952Y-137534819D01*
X128280952Y-137534819D02*
X128185714Y-137534819D01*
X128947619Y-136534819D02*
X129614285Y-136534819D01*
X129614285Y-136534819D02*
X129185714Y-137534819D01*
D11*
X139137318Y-121788666D02*
X139137318Y-122393428D01*
X139137318Y-122393428D02*
X137867318Y-122393428D01*
X139137318Y-120700094D02*
X139137318Y-121425809D01*
X139137318Y-121062952D02*
X137867318Y-121062952D01*
X137867318Y-121062952D02*
X138048746Y-121183904D01*
X138048746Y-121183904D02*
X138169699Y-121304856D01*
X138169699Y-121304856D02*
X138230175Y-121425809D01*
D12*
X142379580Y-126042857D02*
X142427200Y-126090476D01*
X142427200Y-126090476D02*
X142474819Y-126233333D01*
X142474819Y-126233333D02*
X142474819Y-126328571D01*
X142474819Y-126328571D02*
X142427200Y-126471428D01*
X142427200Y-126471428D02*
X142331961Y-126566666D01*
X142331961Y-126566666D02*
X142236723Y-126614285D01*
X142236723Y-126614285D02*
X142046247Y-126661904D01*
X142046247Y-126661904D02*
X141903390Y-126661904D01*
X141903390Y-126661904D02*
X141712914Y-126614285D01*
X141712914Y-126614285D02*
X141617676Y-126566666D01*
X141617676Y-126566666D02*
X141522438Y-126471428D01*
X141522438Y-126471428D02*
X141474819Y-126328571D01*
X141474819Y-126328571D02*
X141474819Y-126233333D01*
X141474819Y-126233333D02*
X141522438Y-126090476D01*
X141522438Y-126090476D02*
X141570057Y-126042857D01*
X142474819Y-125090476D02*
X142474819Y-125661904D01*
X142474819Y-125376190D02*
X141474819Y-125376190D01*
X141474819Y-125376190D02*
X141617676Y-125471428D01*
X141617676Y-125471428D02*
X141712914Y-125566666D01*
X141712914Y-125566666D02*
X141760533Y-125661904D01*
X141903390Y-124519047D02*
X141855771Y-124614285D01*
X141855771Y-124614285D02*
X141808152Y-124661904D01*
X141808152Y-124661904D02*
X141712914Y-124709523D01*
X141712914Y-124709523D02*
X141665295Y-124709523D01*
X141665295Y-124709523D02*
X141570057Y-124661904D01*
X141570057Y-124661904D02*
X141522438Y-124614285D01*
X141522438Y-124614285D02*
X141474819Y-124519047D01*
X141474819Y-124519047D02*
X141474819Y-124328571D01*
X141474819Y-124328571D02*
X141522438Y-124233333D01*
X141522438Y-124233333D02*
X141570057Y-124185714D01*
X141570057Y-124185714D02*
X141665295Y-124138095D01*
X141665295Y-124138095D02*
X141712914Y-124138095D01*
X141712914Y-124138095D02*
X141808152Y-124185714D01*
X141808152Y-124185714D02*
X141855771Y-124233333D01*
X141855771Y-124233333D02*
X141903390Y-124328571D01*
X141903390Y-124328571D02*
X141903390Y-124519047D01*
X141903390Y-124519047D02*
X141951009Y-124614285D01*
X141951009Y-124614285D02*
X141998628Y-124661904D01*
X141998628Y-124661904D02*
X142093866Y-124709523D01*
X142093866Y-124709523D02*
X142284342Y-124709523D01*
X142284342Y-124709523D02*
X142379580Y-124661904D01*
X142379580Y-124661904D02*
X142427200Y-124614285D01*
X142427200Y-124614285D02*
X142474819Y-124519047D01*
X142474819Y-124519047D02*
X142474819Y-124328571D01*
X142474819Y-124328571D02*
X142427200Y-124233333D01*
X142427200Y-124233333D02*
X142379580Y-124185714D01*
X142379580Y-124185714D02*
X142284342Y-124138095D01*
X142284342Y-124138095D02*
X142093866Y-124138095D01*
X142093866Y-124138095D02*
X141998628Y-124185714D01*
X141998628Y-124185714D02*
X141951009Y-124233333D01*
X141951009Y-124233333D02*
X141903390Y-124328571D01*
X138607142Y-120409580D02*
X138559523Y-120457200D01*
X138559523Y-120457200D02*
X138416666Y-120504819D01*
X138416666Y-120504819D02*
X138321428Y-120504819D01*
X138321428Y-120504819D02*
X138178571Y-120457200D01*
X138178571Y-120457200D02*
X138083333Y-120361961D01*
X138083333Y-120361961D02*
X138035714Y-120266723D01*
X138035714Y-120266723D02*
X137988095Y-120076247D01*
X137988095Y-120076247D02*
X137988095Y-119933390D01*
X137988095Y-119933390D02*
X138035714Y-119742914D01*
X138035714Y-119742914D02*
X138083333Y-119647676D01*
X138083333Y-119647676D02*
X138178571Y-119552438D01*
X138178571Y-119552438D02*
X138321428Y-119504819D01*
X138321428Y-119504819D02*
X138416666Y-119504819D01*
X138416666Y-119504819D02*
X138559523Y-119552438D01*
X138559523Y-119552438D02*
X138607142Y-119600057D01*
X139559523Y-120504819D02*
X138988095Y-120504819D01*
X139273809Y-120504819D02*
X139273809Y-119504819D01*
X139273809Y-119504819D02*
X139178571Y-119647676D01*
X139178571Y-119647676D02*
X139083333Y-119742914D01*
X139083333Y-119742914D02*
X138988095Y-119790533D01*
X140035714Y-120504819D02*
X140226190Y-120504819D01*
X140226190Y-120504819D02*
X140321428Y-120457200D01*
X140321428Y-120457200D02*
X140369047Y-120409580D01*
X140369047Y-120409580D02*
X140464285Y-120266723D01*
X140464285Y-120266723D02*
X140511904Y-120076247D01*
X140511904Y-120076247D02*
X140511904Y-119695295D01*
X140511904Y-119695295D02*
X140464285Y-119600057D01*
X140464285Y-119600057D02*
X140416666Y-119552438D01*
X140416666Y-119552438D02*
X140321428Y-119504819D01*
X140321428Y-119504819D02*
X140130952Y-119504819D01*
X140130952Y-119504819D02*
X140035714Y-119552438D01*
X140035714Y-119552438D02*
X139988095Y-119600057D01*
X139988095Y-119600057D02*
X139940476Y-119695295D01*
X139940476Y-119695295D02*
X139940476Y-119933390D01*
X139940476Y-119933390D02*
X139988095Y-120028628D01*
X139988095Y-120028628D02*
X140035714Y-120076247D01*
X140035714Y-120076247D02*
X140130952Y-120123866D01*
X140130952Y-120123866D02*
X140321428Y-120123866D01*
X140321428Y-120123866D02*
X140416666Y-120076247D01*
X140416666Y-120076247D02*
X140464285Y-120028628D01*
X140464285Y-120028628D02*
X140511904Y-119933390D01*
D11*
X102194318Y-162746428D02*
X101589556Y-163169762D01*
X102194318Y-163472143D02*
X100924318Y-163472143D01*
X100924318Y-163472143D02*
X100924318Y-162988333D01*
X100924318Y-162988333D02*
X100984794Y-162867381D01*
X100984794Y-162867381D02*
X101045270Y-162806904D01*
X101045270Y-162806904D02*
X101166222Y-162746428D01*
X101166222Y-162746428D02*
X101347651Y-162746428D01*
X101347651Y-162746428D02*
X101468603Y-162806904D01*
X101468603Y-162806904D02*
X101529080Y-162867381D01*
X101529080Y-162867381D02*
X101589556Y-162988333D01*
X101589556Y-162988333D02*
X101589556Y-163472143D01*
X102194318Y-161536904D02*
X102194318Y-162262619D01*
X102194318Y-161899762D02*
X100924318Y-161899762D01*
X100924318Y-161899762D02*
X101105746Y-162020714D01*
X101105746Y-162020714D02*
X101226699Y-162141666D01*
X101226699Y-162141666D02*
X101287175Y-162262619D01*
X102194318Y-160327380D02*
X102194318Y-161053095D01*
X102194318Y-160690238D02*
X100924318Y-160690238D01*
X100924318Y-160690238D02*
X101105746Y-160811190D01*
X101105746Y-160811190D02*
X101226699Y-160932142D01*
X101226699Y-160932142D02*
X101287175Y-161053095D01*
D12*
X97329819Y-151598094D02*
X96329819Y-151598094D01*
X96329819Y-151598094D02*
X96329819Y-151217142D01*
X96329819Y-151217142D02*
X96377438Y-151121904D01*
X96377438Y-151121904D02*
X96425057Y-151074285D01*
X96425057Y-151074285D02*
X96520295Y-151026666D01*
X96520295Y-151026666D02*
X96663152Y-151026666D01*
X96663152Y-151026666D02*
X96758390Y-151074285D01*
X96758390Y-151074285D02*
X96806009Y-151121904D01*
X96806009Y-151121904D02*
X96853628Y-151217142D01*
X96853628Y-151217142D02*
X96853628Y-151598094D01*
X97329819Y-150074285D02*
X97329819Y-150645713D01*
X97329819Y-150359999D02*
X96329819Y-150359999D01*
X96329819Y-150359999D02*
X96472676Y-150455237D01*
X96472676Y-150455237D02*
X96567914Y-150550475D01*
X96567914Y-150550475D02*
X96615533Y-150645713D01*
D11*
X91134318Y-167923332D02*
X92041461Y-167923332D01*
X92041461Y-167923332D02*
X92222889Y-167983809D01*
X92222889Y-167983809D02*
X92343842Y-168104761D01*
X92343842Y-168104761D02*
X92404318Y-168286190D01*
X92404318Y-168286190D02*
X92404318Y-168407142D01*
X91557651Y-166774285D02*
X92404318Y-166774285D01*
X91073842Y-167076666D02*
X91980984Y-167379047D01*
X91980984Y-167379047D02*
X91980984Y-166592856D01*
D12*
X129810135Y-146133332D02*
X129857754Y-145990475D01*
X129857754Y-145990475D02*
X129857754Y-145752380D01*
X129857754Y-145752380D02*
X129810135Y-145657142D01*
X129810135Y-145657142D02*
X129762515Y-145609523D01*
X129762515Y-145609523D02*
X129667277Y-145561904D01*
X129667277Y-145561904D02*
X129572039Y-145561904D01*
X129572039Y-145561904D02*
X129476801Y-145609523D01*
X129476801Y-145609523D02*
X129429182Y-145657142D01*
X129429182Y-145657142D02*
X129381563Y-145752380D01*
X129381563Y-145752380D02*
X129333944Y-145942856D01*
X129333944Y-145942856D02*
X129286325Y-146038094D01*
X129286325Y-146038094D02*
X129238706Y-146085713D01*
X129238706Y-146085713D02*
X129143468Y-146133332D01*
X129143468Y-146133332D02*
X129048230Y-146133332D01*
X129048230Y-146133332D02*
X128952992Y-146085713D01*
X128952992Y-146085713D02*
X128905373Y-146038094D01*
X128905373Y-146038094D02*
X128857754Y-145942856D01*
X128857754Y-145942856D02*
X128857754Y-145704761D01*
X128857754Y-145704761D02*
X128905373Y-145561904D01*
X128857754Y-145228570D02*
X129857754Y-144990475D01*
X129857754Y-144990475D02*
X129143468Y-144799999D01*
X129143468Y-144799999D02*
X129857754Y-144609523D01*
X129857754Y-144609523D02*
X128857754Y-144371428D01*
X128952992Y-144038094D02*
X128905373Y-143990475D01*
X128905373Y-143990475D02*
X128857754Y-143895237D01*
X128857754Y-143895237D02*
X128857754Y-143657142D01*
X128857754Y-143657142D02*
X128905373Y-143561904D01*
X128905373Y-143561904D02*
X128952992Y-143514285D01*
X128952992Y-143514285D02*
X129048230Y-143466666D01*
X129048230Y-143466666D02*
X129143468Y-143466666D01*
X129143468Y-143466666D02*
X129286325Y-143514285D01*
X129286325Y-143514285D02*
X129857754Y-144085713D01*
X129857754Y-144085713D02*
X129857754Y-143466666D01*
D11*
X136074318Y-152566428D02*
X135469556Y-152989762D01*
X136074318Y-153292143D02*
X134804318Y-153292143D01*
X134804318Y-153292143D02*
X134804318Y-152808333D01*
X134804318Y-152808333D02*
X134864794Y-152687381D01*
X134864794Y-152687381D02*
X134925270Y-152626904D01*
X134925270Y-152626904D02*
X135046222Y-152566428D01*
X135046222Y-152566428D02*
X135227651Y-152566428D01*
X135227651Y-152566428D02*
X135348603Y-152626904D01*
X135348603Y-152626904D02*
X135409080Y-152687381D01*
X135409080Y-152687381D02*
X135469556Y-152808333D01*
X135469556Y-152808333D02*
X135469556Y-153292143D01*
X134925270Y-152082619D02*
X134864794Y-152022143D01*
X134864794Y-152022143D02*
X134804318Y-151901190D01*
X134804318Y-151901190D02*
X134804318Y-151598809D01*
X134804318Y-151598809D02*
X134864794Y-151477857D01*
X134864794Y-151477857D02*
X134925270Y-151417381D01*
X134925270Y-151417381D02*
X135046222Y-151356904D01*
X135046222Y-151356904D02*
X135167175Y-151356904D01*
X135167175Y-151356904D02*
X135348603Y-151417381D01*
X135348603Y-151417381D02*
X136074318Y-152143095D01*
X136074318Y-152143095D02*
X136074318Y-151356904D01*
X135227651Y-150268333D02*
X136074318Y-150268333D01*
X134743842Y-150570714D02*
X135650984Y-150873095D01*
X135650984Y-150873095D02*
X135650984Y-150086904D01*
D12*
X93466666Y-143454819D02*
X93466666Y-144169104D01*
X93466666Y-144169104D02*
X93419047Y-144311961D01*
X93419047Y-144311961D02*
X93323809Y-144407200D01*
X93323809Y-144407200D02*
X93180952Y-144454819D01*
X93180952Y-144454819D02*
X93085714Y-144454819D01*
X94085714Y-143883390D02*
X93990476Y-143835771D01*
X93990476Y-143835771D02*
X93942857Y-143788152D01*
X93942857Y-143788152D02*
X93895238Y-143692914D01*
X93895238Y-143692914D02*
X93895238Y-143645295D01*
X93895238Y-143645295D02*
X93942857Y-143550057D01*
X93942857Y-143550057D02*
X93990476Y-143502438D01*
X93990476Y-143502438D02*
X94085714Y-143454819D01*
X94085714Y-143454819D02*
X94276190Y-143454819D01*
X94276190Y-143454819D02*
X94371428Y-143502438D01*
X94371428Y-143502438D02*
X94419047Y-143550057D01*
X94419047Y-143550057D02*
X94466666Y-143645295D01*
X94466666Y-143645295D02*
X94466666Y-143692914D01*
X94466666Y-143692914D02*
X94419047Y-143788152D01*
X94419047Y-143788152D02*
X94371428Y-143835771D01*
X94371428Y-143835771D02*
X94276190Y-143883390D01*
X94276190Y-143883390D02*
X94085714Y-143883390D01*
X94085714Y-143883390D02*
X93990476Y-143931009D01*
X93990476Y-143931009D02*
X93942857Y-143978628D01*
X93942857Y-143978628D02*
X93895238Y-144073866D01*
X93895238Y-144073866D02*
X93895238Y-144264342D01*
X93895238Y-144264342D02*
X93942857Y-144359580D01*
X93942857Y-144359580D02*
X93990476Y-144407200D01*
X93990476Y-144407200D02*
X94085714Y-144454819D01*
X94085714Y-144454819D02*
X94276190Y-144454819D01*
X94276190Y-144454819D02*
X94371428Y-144407200D01*
X94371428Y-144407200D02*
X94419047Y-144359580D01*
X94419047Y-144359580D02*
X94466666Y-144264342D01*
X94466666Y-144264342D02*
X94466666Y-144073866D01*
X94466666Y-144073866D02*
X94419047Y-143978628D01*
X94419047Y-143978628D02*
X94371428Y-143931009D01*
X94371428Y-143931009D02*
X94276190Y-143883390D01*
D11*
X151833571Y-161924318D02*
X151410237Y-161319556D01*
X151107856Y-161924318D02*
X151107856Y-160654318D01*
X151107856Y-160654318D02*
X151591666Y-160654318D01*
X151591666Y-160654318D02*
X151712618Y-160714794D01*
X151712618Y-160714794D02*
X151773095Y-160775270D01*
X151773095Y-160775270D02*
X151833571Y-160896222D01*
X151833571Y-160896222D02*
X151833571Y-161077651D01*
X151833571Y-161077651D02*
X151773095Y-161198603D01*
X151773095Y-161198603D02*
X151712618Y-161259080D01*
X151712618Y-161259080D02*
X151591666Y-161319556D01*
X151591666Y-161319556D02*
X151107856Y-161319556D01*
X153043095Y-161924318D02*
X152317380Y-161924318D01*
X152680237Y-161924318D02*
X152680237Y-160654318D01*
X152680237Y-160654318D02*
X152559285Y-160835746D01*
X152559285Y-160835746D02*
X152438333Y-160956699D01*
X152438333Y-160956699D02*
X152317380Y-161017175D01*
X153466428Y-160654318D02*
X154252619Y-160654318D01*
X154252619Y-160654318D02*
X153829285Y-161138127D01*
X153829285Y-161138127D02*
X154010714Y-161138127D01*
X154010714Y-161138127D02*
X154131666Y-161198603D01*
X154131666Y-161198603D02*
X154192142Y-161259080D01*
X154192142Y-161259080D02*
X154252619Y-161380032D01*
X154252619Y-161380032D02*
X154252619Y-161682413D01*
X154252619Y-161682413D02*
X154192142Y-161803365D01*
X154192142Y-161803365D02*
X154131666Y-161863842D01*
X154131666Y-161863842D02*
X154010714Y-161924318D01*
X154010714Y-161924318D02*
X153647857Y-161924318D01*
X153647857Y-161924318D02*
X153526904Y-161863842D01*
X153526904Y-161863842D02*
X153466428Y-161803365D01*
D12*
X133410135Y-155633332D02*
X133457754Y-155490475D01*
X133457754Y-155490475D02*
X133457754Y-155252380D01*
X133457754Y-155252380D02*
X133410135Y-155157142D01*
X133410135Y-155157142D02*
X133362515Y-155109523D01*
X133362515Y-155109523D02*
X133267277Y-155061904D01*
X133267277Y-155061904D02*
X133172039Y-155061904D01*
X133172039Y-155061904D02*
X133076801Y-155109523D01*
X133076801Y-155109523D02*
X133029182Y-155157142D01*
X133029182Y-155157142D02*
X132981563Y-155252380D01*
X132981563Y-155252380D02*
X132933944Y-155442856D01*
X132933944Y-155442856D02*
X132886325Y-155538094D01*
X132886325Y-155538094D02*
X132838706Y-155585713D01*
X132838706Y-155585713D02*
X132743468Y-155633332D01*
X132743468Y-155633332D02*
X132648230Y-155633332D01*
X132648230Y-155633332D02*
X132552992Y-155585713D01*
X132552992Y-155585713D02*
X132505373Y-155538094D01*
X132505373Y-155538094D02*
X132457754Y-155442856D01*
X132457754Y-155442856D02*
X132457754Y-155204761D01*
X132457754Y-155204761D02*
X132505373Y-155061904D01*
X132457754Y-154728570D02*
X133457754Y-154490475D01*
X133457754Y-154490475D02*
X132743468Y-154299999D01*
X132743468Y-154299999D02*
X133457754Y-154109523D01*
X133457754Y-154109523D02*
X132457754Y-153871428D01*
X133457754Y-152966666D02*
X133457754Y-153538094D01*
X133457754Y-153252380D02*
X132457754Y-153252380D01*
X132457754Y-153252380D02*
X132600611Y-153347618D01*
X132600611Y-153347618D02*
X132695849Y-153442856D01*
X132695849Y-153442856D02*
X132743468Y-153538094D01*
D11*
X138374318Y-154566428D02*
X137769556Y-154989762D01*
X138374318Y-155292143D02*
X137104318Y-155292143D01*
X137104318Y-155292143D02*
X137104318Y-154808333D01*
X137104318Y-154808333D02*
X137164794Y-154687381D01*
X137164794Y-154687381D02*
X137225270Y-154626904D01*
X137225270Y-154626904D02*
X137346222Y-154566428D01*
X137346222Y-154566428D02*
X137527651Y-154566428D01*
X137527651Y-154566428D02*
X137648603Y-154626904D01*
X137648603Y-154626904D02*
X137709080Y-154687381D01*
X137709080Y-154687381D02*
X137769556Y-154808333D01*
X137769556Y-154808333D02*
X137769556Y-155292143D01*
X137225270Y-154082619D02*
X137164794Y-154022143D01*
X137164794Y-154022143D02*
X137104318Y-153901190D01*
X137104318Y-153901190D02*
X137104318Y-153598809D01*
X137104318Y-153598809D02*
X137164794Y-153477857D01*
X137164794Y-153477857D02*
X137225270Y-153417381D01*
X137225270Y-153417381D02*
X137346222Y-153356904D01*
X137346222Y-153356904D02*
X137467175Y-153356904D01*
X137467175Y-153356904D02*
X137648603Y-153417381D01*
X137648603Y-153417381D02*
X138374318Y-154143095D01*
X138374318Y-154143095D02*
X138374318Y-153356904D01*
X137104318Y-152207857D02*
X137104318Y-152812619D01*
X137104318Y-152812619D02*
X137709080Y-152873095D01*
X137709080Y-152873095D02*
X137648603Y-152812619D01*
X137648603Y-152812619D02*
X137588127Y-152691666D01*
X137588127Y-152691666D02*
X137588127Y-152389285D01*
X137588127Y-152389285D02*
X137648603Y-152268333D01*
X137648603Y-152268333D02*
X137709080Y-152207857D01*
X137709080Y-152207857D02*
X137830032Y-152147380D01*
X137830032Y-152147380D02*
X138132413Y-152147380D01*
X138132413Y-152147380D02*
X138253365Y-152207857D01*
X138253365Y-152207857D02*
X138313842Y-152268333D01*
X138313842Y-152268333D02*
X138374318Y-152389285D01*
X138374318Y-152389285D02*
X138374318Y-152691666D01*
X138374318Y-152691666D02*
X138313842Y-152812619D01*
X138313842Y-152812619D02*
X138253365Y-152873095D01*
D12*
X133183333Y-179979580D02*
X133135714Y-180027200D01*
X133135714Y-180027200D02*
X132992857Y-180074819D01*
X132992857Y-180074819D02*
X132897619Y-180074819D01*
X132897619Y-180074819D02*
X132754762Y-180027200D01*
X132754762Y-180027200D02*
X132659524Y-179931961D01*
X132659524Y-179931961D02*
X132611905Y-179836723D01*
X132611905Y-179836723D02*
X132564286Y-179646247D01*
X132564286Y-179646247D02*
X132564286Y-179503390D01*
X132564286Y-179503390D02*
X132611905Y-179312914D01*
X132611905Y-179312914D02*
X132659524Y-179217676D01*
X132659524Y-179217676D02*
X132754762Y-179122438D01*
X132754762Y-179122438D02*
X132897619Y-179074819D01*
X132897619Y-179074819D02*
X132992857Y-179074819D01*
X132992857Y-179074819D02*
X133135714Y-179122438D01*
X133135714Y-179122438D02*
X133183333Y-179170057D01*
X134088095Y-179074819D02*
X133611905Y-179074819D01*
X133611905Y-179074819D02*
X133564286Y-179551009D01*
X133564286Y-179551009D02*
X133611905Y-179503390D01*
X133611905Y-179503390D02*
X133707143Y-179455771D01*
X133707143Y-179455771D02*
X133945238Y-179455771D01*
X133945238Y-179455771D02*
X134040476Y-179503390D01*
X134040476Y-179503390D02*
X134088095Y-179551009D01*
X134088095Y-179551009D02*
X134135714Y-179646247D01*
X134135714Y-179646247D02*
X134135714Y-179884342D01*
X134135714Y-179884342D02*
X134088095Y-179979580D01*
X134088095Y-179979580D02*
X134040476Y-180027200D01*
X134040476Y-180027200D02*
X133945238Y-180074819D01*
X133945238Y-180074819D02*
X133707143Y-180074819D01*
X133707143Y-180074819D02*
X133611905Y-180027200D01*
X133611905Y-180027200D02*
X133564286Y-179979580D01*
X97857142Y-148324819D02*
X97523809Y-147848628D01*
X97285714Y-148324819D02*
X97285714Y-147324819D01*
X97285714Y-147324819D02*
X97666666Y-147324819D01*
X97666666Y-147324819D02*
X97761904Y-147372438D01*
X97761904Y-147372438D02*
X97809523Y-147420057D01*
X97809523Y-147420057D02*
X97857142Y-147515295D01*
X97857142Y-147515295D02*
X97857142Y-147658152D01*
X97857142Y-147658152D02*
X97809523Y-147753390D01*
X97809523Y-147753390D02*
X97761904Y-147801009D01*
X97761904Y-147801009D02*
X97666666Y-147848628D01*
X97666666Y-147848628D02*
X97285714Y-147848628D01*
X98190476Y-147324819D02*
X98809523Y-147324819D01*
X98809523Y-147324819D02*
X98476190Y-147705771D01*
X98476190Y-147705771D02*
X98619047Y-147705771D01*
X98619047Y-147705771D02*
X98714285Y-147753390D01*
X98714285Y-147753390D02*
X98761904Y-147801009D01*
X98761904Y-147801009D02*
X98809523Y-147896247D01*
X98809523Y-147896247D02*
X98809523Y-148134342D01*
X98809523Y-148134342D02*
X98761904Y-148229580D01*
X98761904Y-148229580D02*
X98714285Y-148277200D01*
X98714285Y-148277200D02*
X98619047Y-148324819D01*
X98619047Y-148324819D02*
X98333333Y-148324819D01*
X98333333Y-148324819D02*
X98238095Y-148277200D01*
X98238095Y-148277200D02*
X98190476Y-148229580D01*
X99142857Y-147324819D02*
X99761904Y-147324819D01*
X99761904Y-147324819D02*
X99428571Y-147705771D01*
X99428571Y-147705771D02*
X99571428Y-147705771D01*
X99571428Y-147705771D02*
X99666666Y-147753390D01*
X99666666Y-147753390D02*
X99714285Y-147801009D01*
X99714285Y-147801009D02*
X99761904Y-147896247D01*
X99761904Y-147896247D02*
X99761904Y-148134342D01*
X99761904Y-148134342D02*
X99714285Y-148229580D01*
X99714285Y-148229580D02*
X99666666Y-148277200D01*
X99666666Y-148277200D02*
X99571428Y-148324819D01*
X99571428Y-148324819D02*
X99285714Y-148324819D01*
X99285714Y-148324819D02*
X99190476Y-148277200D01*
X99190476Y-148277200D02*
X99142857Y-148229580D01*
X101857142Y-181839580D02*
X101809523Y-181887200D01*
X101809523Y-181887200D02*
X101666666Y-181934819D01*
X101666666Y-181934819D02*
X101571428Y-181934819D01*
X101571428Y-181934819D02*
X101428571Y-181887200D01*
X101428571Y-181887200D02*
X101333333Y-181791961D01*
X101333333Y-181791961D02*
X101285714Y-181696723D01*
X101285714Y-181696723D02*
X101238095Y-181506247D01*
X101238095Y-181506247D02*
X101238095Y-181363390D01*
X101238095Y-181363390D02*
X101285714Y-181172914D01*
X101285714Y-181172914D02*
X101333333Y-181077676D01*
X101333333Y-181077676D02*
X101428571Y-180982438D01*
X101428571Y-180982438D02*
X101571428Y-180934819D01*
X101571428Y-180934819D02*
X101666666Y-180934819D01*
X101666666Y-180934819D02*
X101809523Y-180982438D01*
X101809523Y-180982438D02*
X101857142Y-181030057D01*
X102714285Y-181268152D02*
X102714285Y-181934819D01*
X102476190Y-180887200D02*
X102238095Y-181601485D01*
X102238095Y-181601485D02*
X102857142Y-181601485D01*
X103190476Y-181030057D02*
X103238095Y-180982438D01*
X103238095Y-180982438D02*
X103333333Y-180934819D01*
X103333333Y-180934819D02*
X103571428Y-180934819D01*
X103571428Y-180934819D02*
X103666666Y-180982438D01*
X103666666Y-180982438D02*
X103714285Y-181030057D01*
X103714285Y-181030057D02*
X103761904Y-181125295D01*
X103761904Y-181125295D02*
X103761904Y-181220533D01*
X103761904Y-181220533D02*
X103714285Y-181363390D01*
X103714285Y-181363390D02*
X103142857Y-181934819D01*
X103142857Y-181934819D02*
X103761904Y-181934819D01*
D11*
X121297253Y-159439762D02*
X120027253Y-159439762D01*
X121176300Y-158109285D02*
X121236777Y-158169761D01*
X121236777Y-158169761D02*
X121297253Y-158351190D01*
X121297253Y-158351190D02*
X121297253Y-158472142D01*
X121297253Y-158472142D02*
X121236777Y-158653571D01*
X121236777Y-158653571D02*
X121115824Y-158774523D01*
X121115824Y-158774523D02*
X120994872Y-158835000D01*
X120994872Y-158835000D02*
X120752967Y-158895476D01*
X120752967Y-158895476D02*
X120571538Y-158895476D01*
X120571538Y-158895476D02*
X120329634Y-158835000D01*
X120329634Y-158835000D02*
X120208681Y-158774523D01*
X120208681Y-158774523D02*
X120087729Y-158653571D01*
X120087729Y-158653571D02*
X120027253Y-158472142D01*
X120027253Y-158472142D02*
X120027253Y-158351190D01*
X120027253Y-158351190D02*
X120087729Y-158169761D01*
X120087729Y-158169761D02*
X120148205Y-158109285D01*
X120148205Y-157625476D02*
X120087729Y-157565000D01*
X120087729Y-157565000D02*
X120027253Y-157444047D01*
X120027253Y-157444047D02*
X120027253Y-157141666D01*
X120027253Y-157141666D02*
X120087729Y-157020714D01*
X120087729Y-157020714D02*
X120148205Y-156960238D01*
X120148205Y-156960238D02*
X120269157Y-156899761D01*
X120269157Y-156899761D02*
X120390110Y-156899761D01*
X120390110Y-156899761D02*
X120571538Y-156960238D01*
X120571538Y-156960238D02*
X121297253Y-157685952D01*
X121297253Y-157685952D02*
X121297253Y-156899761D01*
D12*
X117077754Y-150345357D02*
X116601563Y-150678690D01*
X117077754Y-150916785D02*
X116077754Y-150916785D01*
X116077754Y-150916785D02*
X116077754Y-150535833D01*
X116077754Y-150535833D02*
X116125373Y-150440595D01*
X116125373Y-150440595D02*
X116172992Y-150392976D01*
X116172992Y-150392976D02*
X116268230Y-150345357D01*
X116268230Y-150345357D02*
X116411087Y-150345357D01*
X116411087Y-150345357D02*
X116506325Y-150392976D01*
X116506325Y-150392976D02*
X116553944Y-150440595D01*
X116553944Y-150440595D02*
X116601563Y-150535833D01*
X116601563Y-150535833D02*
X116601563Y-150916785D01*
X116077754Y-150012023D02*
X116077754Y-149392976D01*
X116077754Y-149392976D02*
X116458706Y-149726309D01*
X116458706Y-149726309D02*
X116458706Y-149583452D01*
X116458706Y-149583452D02*
X116506325Y-149488214D01*
X116506325Y-149488214D02*
X116553944Y-149440595D01*
X116553944Y-149440595D02*
X116649182Y-149392976D01*
X116649182Y-149392976D02*
X116887277Y-149392976D01*
X116887277Y-149392976D02*
X116982515Y-149440595D01*
X116982515Y-149440595D02*
X117030135Y-149488214D01*
X117030135Y-149488214D02*
X117077754Y-149583452D01*
X117077754Y-149583452D02*
X117077754Y-149869166D01*
X117077754Y-149869166D02*
X117030135Y-149964404D01*
X117030135Y-149964404D02*
X116982515Y-150012023D01*
X116077754Y-149059642D02*
X116077754Y-148392976D01*
X116077754Y-148392976D02*
X117077754Y-148821547D01*
D11*
X96206667Y-110004318D02*
X96206667Y-110911461D01*
X96206667Y-110911461D02*
X96146190Y-111092889D01*
X96146190Y-111092889D02*
X96025238Y-111213842D01*
X96025238Y-111213842D02*
X95843809Y-111274318D01*
X95843809Y-111274318D02*
X95722857Y-111274318D01*
X97355714Y-110004318D02*
X97113809Y-110004318D01*
X97113809Y-110004318D02*
X96992857Y-110064794D01*
X96992857Y-110064794D02*
X96932381Y-110125270D01*
X96932381Y-110125270D02*
X96811428Y-110306699D01*
X96811428Y-110306699D02*
X96750952Y-110548603D01*
X96750952Y-110548603D02*
X96750952Y-111032413D01*
X96750952Y-111032413D02*
X96811428Y-111153365D01*
X96811428Y-111153365D02*
X96871905Y-111213842D01*
X96871905Y-111213842D02*
X96992857Y-111274318D01*
X96992857Y-111274318D02*
X97234762Y-111274318D01*
X97234762Y-111274318D02*
X97355714Y-111213842D01*
X97355714Y-111213842D02*
X97416190Y-111153365D01*
X97416190Y-111153365D02*
X97476667Y-111032413D01*
X97476667Y-111032413D02*
X97476667Y-110730032D01*
X97476667Y-110730032D02*
X97416190Y-110609080D01*
X97416190Y-110609080D02*
X97355714Y-110548603D01*
X97355714Y-110548603D02*
X97234762Y-110488127D01*
X97234762Y-110488127D02*
X96992857Y-110488127D01*
X96992857Y-110488127D02*
X96871905Y-110548603D01*
X96871905Y-110548603D02*
X96811428Y-110609080D01*
X96811428Y-110609080D02*
X96750952Y-110730032D01*
X143303365Y-116126428D02*
X143363842Y-116186904D01*
X143363842Y-116186904D02*
X143424318Y-116368333D01*
X143424318Y-116368333D02*
X143424318Y-116489285D01*
X143424318Y-116489285D02*
X143363842Y-116670714D01*
X143363842Y-116670714D02*
X143242889Y-116791666D01*
X143242889Y-116791666D02*
X143121937Y-116852143D01*
X143121937Y-116852143D02*
X142880032Y-116912619D01*
X142880032Y-116912619D02*
X142698603Y-116912619D01*
X142698603Y-116912619D02*
X142456699Y-116852143D01*
X142456699Y-116852143D02*
X142335746Y-116791666D01*
X142335746Y-116791666D02*
X142214794Y-116670714D01*
X142214794Y-116670714D02*
X142154318Y-116489285D01*
X142154318Y-116489285D02*
X142154318Y-116368333D01*
X142154318Y-116368333D02*
X142214794Y-116186904D01*
X142214794Y-116186904D02*
X142275270Y-116126428D01*
X142275270Y-115642619D02*
X142214794Y-115582143D01*
X142214794Y-115582143D02*
X142154318Y-115461190D01*
X142154318Y-115461190D02*
X142154318Y-115158809D01*
X142154318Y-115158809D02*
X142214794Y-115037857D01*
X142214794Y-115037857D02*
X142275270Y-114977381D01*
X142275270Y-114977381D02*
X142396222Y-114916904D01*
X142396222Y-114916904D02*
X142517175Y-114916904D01*
X142517175Y-114916904D02*
X142698603Y-114977381D01*
X142698603Y-114977381D02*
X143424318Y-115703095D01*
X143424318Y-115703095D02*
X143424318Y-114916904D01*
X142154318Y-114130714D02*
X142154318Y-114009761D01*
X142154318Y-114009761D02*
X142214794Y-113888809D01*
X142214794Y-113888809D02*
X142275270Y-113828333D01*
X142275270Y-113828333D02*
X142396222Y-113767857D01*
X142396222Y-113767857D02*
X142638127Y-113707380D01*
X142638127Y-113707380D02*
X142940508Y-113707380D01*
X142940508Y-113707380D02*
X143182413Y-113767857D01*
X143182413Y-113767857D02*
X143303365Y-113828333D01*
X143303365Y-113828333D02*
X143363842Y-113888809D01*
X143363842Y-113888809D02*
X143424318Y-114009761D01*
X143424318Y-114009761D02*
X143424318Y-114130714D01*
X143424318Y-114130714D02*
X143363842Y-114251666D01*
X143363842Y-114251666D02*
X143303365Y-114312142D01*
X143303365Y-114312142D02*
X143182413Y-114372619D01*
X143182413Y-114372619D02*
X142940508Y-114433095D01*
X142940508Y-114433095D02*
X142638127Y-114433095D01*
X142638127Y-114433095D02*
X142396222Y-114372619D01*
X142396222Y-114372619D02*
X142275270Y-114312142D01*
X142275270Y-114312142D02*
X142214794Y-114251666D01*
X142214794Y-114251666D02*
X142154318Y-114130714D01*
D12*
X107510077Y-158289580D02*
X107462458Y-158337200D01*
X107462458Y-158337200D02*
X107319601Y-158384819D01*
X107319601Y-158384819D02*
X107224363Y-158384819D01*
X107224363Y-158384819D02*
X107081506Y-158337200D01*
X107081506Y-158337200D02*
X106986268Y-158241961D01*
X106986268Y-158241961D02*
X106938649Y-158146723D01*
X106938649Y-158146723D02*
X106891030Y-157956247D01*
X106891030Y-157956247D02*
X106891030Y-157813390D01*
X106891030Y-157813390D02*
X106938649Y-157622914D01*
X106938649Y-157622914D02*
X106986268Y-157527676D01*
X106986268Y-157527676D02*
X107081506Y-157432438D01*
X107081506Y-157432438D02*
X107224363Y-157384819D01*
X107224363Y-157384819D02*
X107319601Y-157384819D01*
X107319601Y-157384819D02*
X107462458Y-157432438D01*
X107462458Y-157432438D02*
X107510077Y-157480057D01*
X108367220Y-157718152D02*
X108367220Y-158384819D01*
X108129125Y-157337200D02*
X107891030Y-158051485D01*
X107891030Y-158051485D02*
X108510077Y-158051485D01*
X109319601Y-157718152D02*
X109319601Y-158384819D01*
X109081506Y-157337200D02*
X108843411Y-158051485D01*
X108843411Y-158051485D02*
X109462458Y-158051485D01*
X128760077Y-141089580D02*
X128712458Y-141137200D01*
X128712458Y-141137200D02*
X128569601Y-141184819D01*
X128569601Y-141184819D02*
X128474363Y-141184819D01*
X128474363Y-141184819D02*
X128331506Y-141137200D01*
X128331506Y-141137200D02*
X128236268Y-141041961D01*
X128236268Y-141041961D02*
X128188649Y-140946723D01*
X128188649Y-140946723D02*
X128141030Y-140756247D01*
X128141030Y-140756247D02*
X128141030Y-140613390D01*
X128141030Y-140613390D02*
X128188649Y-140422914D01*
X128188649Y-140422914D02*
X128236268Y-140327676D01*
X128236268Y-140327676D02*
X128331506Y-140232438D01*
X128331506Y-140232438D02*
X128474363Y-140184819D01*
X128474363Y-140184819D02*
X128569601Y-140184819D01*
X128569601Y-140184819D02*
X128712458Y-140232438D01*
X128712458Y-140232438D02*
X128760077Y-140280057D01*
X129617220Y-140518152D02*
X129617220Y-141184819D01*
X129379125Y-140137200D02*
X129141030Y-140851485D01*
X129141030Y-140851485D02*
X129760077Y-140851485D01*
X130664839Y-141184819D02*
X130093411Y-141184819D01*
X130379125Y-141184819D02*
X130379125Y-140184819D01*
X130379125Y-140184819D02*
X130283887Y-140327676D01*
X130283887Y-140327676D02*
X130188649Y-140422914D01*
X130188649Y-140422914D02*
X130093411Y-140470533D01*
D11*
X119974318Y-188116428D02*
X119369556Y-188539762D01*
X119974318Y-188842143D02*
X118704318Y-188842143D01*
X118704318Y-188842143D02*
X118704318Y-188358333D01*
X118704318Y-188358333D02*
X118764794Y-188237381D01*
X118764794Y-188237381D02*
X118825270Y-188176904D01*
X118825270Y-188176904D02*
X118946222Y-188116428D01*
X118946222Y-188116428D02*
X119127651Y-188116428D01*
X119127651Y-188116428D02*
X119248603Y-188176904D01*
X119248603Y-188176904D02*
X119309080Y-188237381D01*
X119309080Y-188237381D02*
X119369556Y-188358333D01*
X119369556Y-188358333D02*
X119369556Y-188842143D01*
X119974318Y-186906904D02*
X119974318Y-187632619D01*
X119974318Y-187269762D02*
X118704318Y-187269762D01*
X118704318Y-187269762D02*
X118885746Y-187390714D01*
X118885746Y-187390714D02*
X119006699Y-187511666D01*
X119006699Y-187511666D02*
X119067175Y-187632619D01*
X118704318Y-186120714D02*
X118704318Y-185999761D01*
X118704318Y-185999761D02*
X118764794Y-185878809D01*
X118764794Y-185878809D02*
X118825270Y-185818333D01*
X118825270Y-185818333D02*
X118946222Y-185757857D01*
X118946222Y-185757857D02*
X119188127Y-185697380D01*
X119188127Y-185697380D02*
X119490508Y-185697380D01*
X119490508Y-185697380D02*
X119732413Y-185757857D01*
X119732413Y-185757857D02*
X119853365Y-185818333D01*
X119853365Y-185818333D02*
X119913842Y-185878809D01*
X119913842Y-185878809D02*
X119974318Y-185999761D01*
X119974318Y-185999761D02*
X119974318Y-186120714D01*
X119974318Y-186120714D02*
X119913842Y-186241666D01*
X119913842Y-186241666D02*
X119853365Y-186302142D01*
X119853365Y-186302142D02*
X119732413Y-186362619D01*
X119732413Y-186362619D02*
X119490508Y-186423095D01*
X119490508Y-186423095D02*
X119188127Y-186423095D01*
X119188127Y-186423095D02*
X118946222Y-186362619D01*
X118946222Y-186362619D02*
X118825270Y-186302142D01*
X118825270Y-186302142D02*
X118764794Y-186241666D01*
X118764794Y-186241666D02*
X118704318Y-186120714D01*
X159160991Y-116495270D02*
X159040039Y-116434794D01*
X159040039Y-116434794D02*
X158919086Y-116313842D01*
X158919086Y-116313842D02*
X158737658Y-116132413D01*
X158737658Y-116132413D02*
X158616705Y-116071937D01*
X158616705Y-116071937D02*
X158495753Y-116071937D01*
X158556229Y-116374318D02*
X158435277Y-116313842D01*
X158435277Y-116313842D02*
X158314324Y-116192889D01*
X158314324Y-116192889D02*
X158253848Y-115950984D01*
X158253848Y-115950984D02*
X158253848Y-115527651D01*
X158253848Y-115527651D02*
X158314324Y-115285746D01*
X158314324Y-115285746D02*
X158435277Y-115164794D01*
X158435277Y-115164794D02*
X158556229Y-115104318D01*
X158556229Y-115104318D02*
X158798134Y-115104318D01*
X158798134Y-115104318D02*
X158919086Y-115164794D01*
X158919086Y-115164794D02*
X159040039Y-115285746D01*
X159040039Y-115285746D02*
X159100515Y-115527651D01*
X159100515Y-115527651D02*
X159100515Y-115950984D01*
X159100515Y-115950984D02*
X159040039Y-116192889D01*
X159040039Y-116192889D02*
X158919086Y-116313842D01*
X158919086Y-116313842D02*
X158798134Y-116374318D01*
X158798134Y-116374318D02*
X158556229Y-116374318D01*
X159584324Y-115225270D02*
X159644800Y-115164794D01*
X159644800Y-115164794D02*
X159765753Y-115104318D01*
X159765753Y-115104318D02*
X160068134Y-115104318D01*
X160068134Y-115104318D02*
X160189086Y-115164794D01*
X160189086Y-115164794D02*
X160249562Y-115225270D01*
X160249562Y-115225270D02*
X160310039Y-115346222D01*
X160310039Y-115346222D02*
X160310039Y-115467175D01*
X160310039Y-115467175D02*
X160249562Y-115648603D01*
X160249562Y-115648603D02*
X159523848Y-116374318D01*
X159523848Y-116374318D02*
X160310039Y-116374318D01*
D12*
X154089580Y-115052857D02*
X154137200Y-115100476D01*
X154137200Y-115100476D02*
X154184819Y-115243333D01*
X154184819Y-115243333D02*
X154184819Y-115338571D01*
X154184819Y-115338571D02*
X154137200Y-115481428D01*
X154137200Y-115481428D02*
X154041961Y-115576666D01*
X154041961Y-115576666D02*
X153946723Y-115624285D01*
X153946723Y-115624285D02*
X153756247Y-115671904D01*
X153756247Y-115671904D02*
X153613390Y-115671904D01*
X153613390Y-115671904D02*
X153422914Y-115624285D01*
X153422914Y-115624285D02*
X153327676Y-115576666D01*
X153327676Y-115576666D02*
X153232438Y-115481428D01*
X153232438Y-115481428D02*
X153184819Y-115338571D01*
X153184819Y-115338571D02*
X153184819Y-115243333D01*
X153184819Y-115243333D02*
X153232438Y-115100476D01*
X153232438Y-115100476D02*
X153280057Y-115052857D01*
X153280057Y-114671904D02*
X153232438Y-114624285D01*
X153232438Y-114624285D02*
X153184819Y-114529047D01*
X153184819Y-114529047D02*
X153184819Y-114290952D01*
X153184819Y-114290952D02*
X153232438Y-114195714D01*
X153232438Y-114195714D02*
X153280057Y-114148095D01*
X153280057Y-114148095D02*
X153375295Y-114100476D01*
X153375295Y-114100476D02*
X153470533Y-114100476D01*
X153470533Y-114100476D02*
X153613390Y-114148095D01*
X153613390Y-114148095D02*
X154184819Y-114719523D01*
X154184819Y-114719523D02*
X154184819Y-114100476D01*
X153518152Y-113243333D02*
X154184819Y-113243333D01*
X153137200Y-113481428D02*
X153851485Y-113719523D01*
X153851485Y-113719523D02*
X153851485Y-113100476D01*
D11*
X128653365Y-193316428D02*
X128713842Y-193376904D01*
X128713842Y-193376904D02*
X128774318Y-193558333D01*
X128774318Y-193558333D02*
X128774318Y-193679285D01*
X128774318Y-193679285D02*
X128713842Y-193860714D01*
X128713842Y-193860714D02*
X128592889Y-193981666D01*
X128592889Y-193981666D02*
X128471937Y-194042143D01*
X128471937Y-194042143D02*
X128230032Y-194102619D01*
X128230032Y-194102619D02*
X128048603Y-194102619D01*
X128048603Y-194102619D02*
X127806699Y-194042143D01*
X127806699Y-194042143D02*
X127685746Y-193981666D01*
X127685746Y-193981666D02*
X127564794Y-193860714D01*
X127564794Y-193860714D02*
X127504318Y-193679285D01*
X127504318Y-193679285D02*
X127504318Y-193558333D01*
X127504318Y-193558333D02*
X127564794Y-193376904D01*
X127564794Y-193376904D02*
X127625270Y-193316428D01*
X127504318Y-192893095D02*
X127504318Y-192106904D01*
X127504318Y-192106904D02*
X127988127Y-192530238D01*
X127988127Y-192530238D02*
X127988127Y-192348809D01*
X127988127Y-192348809D02*
X128048603Y-192227857D01*
X128048603Y-192227857D02*
X128109080Y-192167381D01*
X128109080Y-192167381D02*
X128230032Y-192106904D01*
X128230032Y-192106904D02*
X128532413Y-192106904D01*
X128532413Y-192106904D02*
X128653365Y-192167381D01*
X128653365Y-192167381D02*
X128713842Y-192227857D01*
X128713842Y-192227857D02*
X128774318Y-192348809D01*
X128774318Y-192348809D02*
X128774318Y-192711666D01*
X128774318Y-192711666D02*
X128713842Y-192832619D01*
X128713842Y-192832619D02*
X128653365Y-192893095D01*
X127504318Y-191018333D02*
X127504318Y-191260238D01*
X127504318Y-191260238D02*
X127564794Y-191381190D01*
X127564794Y-191381190D02*
X127625270Y-191441666D01*
X127625270Y-191441666D02*
X127806699Y-191562619D01*
X127806699Y-191562619D02*
X128048603Y-191623095D01*
X128048603Y-191623095D02*
X128532413Y-191623095D01*
X128532413Y-191623095D02*
X128653365Y-191562619D01*
X128653365Y-191562619D02*
X128713842Y-191502142D01*
X128713842Y-191502142D02*
X128774318Y-191381190D01*
X128774318Y-191381190D02*
X128774318Y-191139285D01*
X128774318Y-191139285D02*
X128713842Y-191018333D01*
X128713842Y-191018333D02*
X128653365Y-190957857D01*
X128653365Y-190957857D02*
X128532413Y-190897380D01*
X128532413Y-190897380D02*
X128230032Y-190897380D01*
X128230032Y-190897380D02*
X128109080Y-190957857D01*
X128109080Y-190957857D02*
X128048603Y-191018333D01*
X128048603Y-191018333D02*
X127988127Y-191139285D01*
X127988127Y-191139285D02*
X127988127Y-191381190D01*
X127988127Y-191381190D02*
X128048603Y-191502142D01*
X128048603Y-191502142D02*
X128109080Y-191562619D01*
X128109080Y-191562619D02*
X128230032Y-191623095D01*
D12*
X99957142Y-166969580D02*
X99909523Y-167017200D01*
X99909523Y-167017200D02*
X99766666Y-167064819D01*
X99766666Y-167064819D02*
X99671428Y-167064819D01*
X99671428Y-167064819D02*
X99528571Y-167017200D01*
X99528571Y-167017200D02*
X99433333Y-166921961D01*
X99433333Y-166921961D02*
X99385714Y-166826723D01*
X99385714Y-166826723D02*
X99338095Y-166636247D01*
X99338095Y-166636247D02*
X99338095Y-166493390D01*
X99338095Y-166493390D02*
X99385714Y-166302914D01*
X99385714Y-166302914D02*
X99433333Y-166207676D01*
X99433333Y-166207676D02*
X99528571Y-166112438D01*
X99528571Y-166112438D02*
X99671428Y-166064819D01*
X99671428Y-166064819D02*
X99766666Y-166064819D01*
X99766666Y-166064819D02*
X99909523Y-166112438D01*
X99909523Y-166112438D02*
X99957142Y-166160057D01*
X100909523Y-167064819D02*
X100338095Y-167064819D01*
X100623809Y-167064819D02*
X100623809Y-166064819D01*
X100623809Y-166064819D02*
X100528571Y-166207676D01*
X100528571Y-166207676D02*
X100433333Y-166302914D01*
X100433333Y-166302914D02*
X100338095Y-166350533D01*
X101814285Y-166064819D02*
X101338095Y-166064819D01*
X101338095Y-166064819D02*
X101290476Y-166541009D01*
X101290476Y-166541009D02*
X101338095Y-166493390D01*
X101338095Y-166493390D02*
X101433333Y-166445771D01*
X101433333Y-166445771D02*
X101671428Y-166445771D01*
X101671428Y-166445771D02*
X101766666Y-166493390D01*
X101766666Y-166493390D02*
X101814285Y-166541009D01*
X101814285Y-166541009D02*
X101861904Y-166636247D01*
X101861904Y-166636247D02*
X101861904Y-166874342D01*
X101861904Y-166874342D02*
X101814285Y-166969580D01*
X101814285Y-166969580D02*
X101766666Y-167017200D01*
X101766666Y-167017200D02*
X101671428Y-167064819D01*
X101671428Y-167064819D02*
X101433333Y-167064819D01*
X101433333Y-167064819D02*
X101338095Y-167017200D01*
X101338095Y-167017200D02*
X101290476Y-166969580D01*
X132933333Y-177779580D02*
X132885714Y-177827200D01*
X132885714Y-177827200D02*
X132742857Y-177874819D01*
X132742857Y-177874819D02*
X132647619Y-177874819D01*
X132647619Y-177874819D02*
X132504762Y-177827200D01*
X132504762Y-177827200D02*
X132409524Y-177731961D01*
X132409524Y-177731961D02*
X132361905Y-177636723D01*
X132361905Y-177636723D02*
X132314286Y-177446247D01*
X132314286Y-177446247D02*
X132314286Y-177303390D01*
X132314286Y-177303390D02*
X132361905Y-177112914D01*
X132361905Y-177112914D02*
X132409524Y-177017676D01*
X132409524Y-177017676D02*
X132504762Y-176922438D01*
X132504762Y-176922438D02*
X132647619Y-176874819D01*
X132647619Y-176874819D02*
X132742857Y-176874819D01*
X132742857Y-176874819D02*
X132885714Y-176922438D01*
X132885714Y-176922438D02*
X132933333Y-176970057D01*
X133266667Y-176874819D02*
X133885714Y-176874819D01*
X133885714Y-176874819D02*
X133552381Y-177255771D01*
X133552381Y-177255771D02*
X133695238Y-177255771D01*
X133695238Y-177255771D02*
X133790476Y-177303390D01*
X133790476Y-177303390D02*
X133838095Y-177351009D01*
X133838095Y-177351009D02*
X133885714Y-177446247D01*
X133885714Y-177446247D02*
X133885714Y-177684342D01*
X133885714Y-177684342D02*
X133838095Y-177779580D01*
X133838095Y-177779580D02*
X133790476Y-177827200D01*
X133790476Y-177827200D02*
X133695238Y-177874819D01*
X133695238Y-177874819D02*
X133409524Y-177874819D01*
X133409524Y-177874819D02*
X133314286Y-177827200D01*
X133314286Y-177827200D02*
X133266667Y-177779580D01*
X113680077Y-161474819D02*
X113346744Y-160998628D01*
X113108649Y-161474819D02*
X113108649Y-160474819D01*
X113108649Y-160474819D02*
X113489601Y-160474819D01*
X113489601Y-160474819D02*
X113584839Y-160522438D01*
X113584839Y-160522438D02*
X113632458Y-160570057D01*
X113632458Y-160570057D02*
X113680077Y-160665295D01*
X113680077Y-160665295D02*
X113680077Y-160808152D01*
X113680077Y-160808152D02*
X113632458Y-160903390D01*
X113632458Y-160903390D02*
X113584839Y-160951009D01*
X113584839Y-160951009D02*
X113489601Y-160998628D01*
X113489601Y-160998628D02*
X113108649Y-160998628D01*
X114013411Y-160474819D02*
X114632458Y-160474819D01*
X114632458Y-160474819D02*
X114299125Y-160855771D01*
X114299125Y-160855771D02*
X114441982Y-160855771D01*
X114441982Y-160855771D02*
X114537220Y-160903390D01*
X114537220Y-160903390D02*
X114584839Y-160951009D01*
X114584839Y-160951009D02*
X114632458Y-161046247D01*
X114632458Y-161046247D02*
X114632458Y-161284342D01*
X114632458Y-161284342D02*
X114584839Y-161379580D01*
X114584839Y-161379580D02*
X114537220Y-161427200D01*
X114537220Y-161427200D02*
X114441982Y-161474819D01*
X114441982Y-161474819D02*
X114156268Y-161474819D01*
X114156268Y-161474819D02*
X114061030Y-161427200D01*
X114061030Y-161427200D02*
X114013411Y-161379580D01*
X115251506Y-160474819D02*
X115346744Y-160474819D01*
X115346744Y-160474819D02*
X115441982Y-160522438D01*
X115441982Y-160522438D02*
X115489601Y-160570057D01*
X115489601Y-160570057D02*
X115537220Y-160665295D01*
X115537220Y-160665295D02*
X115584839Y-160855771D01*
X115584839Y-160855771D02*
X115584839Y-161093866D01*
X115584839Y-161093866D02*
X115537220Y-161284342D01*
X115537220Y-161284342D02*
X115489601Y-161379580D01*
X115489601Y-161379580D02*
X115441982Y-161427200D01*
X115441982Y-161427200D02*
X115346744Y-161474819D01*
X115346744Y-161474819D02*
X115251506Y-161474819D01*
X115251506Y-161474819D02*
X115156268Y-161427200D01*
X115156268Y-161427200D02*
X115108649Y-161379580D01*
X115108649Y-161379580D02*
X115061030Y-161284342D01*
X115061030Y-161284342D02*
X115013411Y-161093866D01*
X115013411Y-161093866D02*
X115013411Y-160855771D01*
X115013411Y-160855771D02*
X115061030Y-160665295D01*
X115061030Y-160665295D02*
X115108649Y-160570057D01*
X115108649Y-160570057D02*
X115156268Y-160522438D01*
X115156268Y-160522438D02*
X115251506Y-160474819D01*
D11*
X151183571Y-123674318D02*
X150760237Y-123069556D01*
X150457856Y-123674318D02*
X150457856Y-122404318D01*
X150457856Y-122404318D02*
X150941666Y-122404318D01*
X150941666Y-122404318D02*
X151062618Y-122464794D01*
X151062618Y-122464794D02*
X151123095Y-122525270D01*
X151123095Y-122525270D02*
X151183571Y-122646222D01*
X151183571Y-122646222D02*
X151183571Y-122827651D01*
X151183571Y-122827651D02*
X151123095Y-122948603D01*
X151123095Y-122948603D02*
X151062618Y-123009080D01*
X151062618Y-123009080D02*
X150941666Y-123069556D01*
X150941666Y-123069556D02*
X150457856Y-123069556D01*
X152393095Y-123674318D02*
X151667380Y-123674318D01*
X152030237Y-123674318D02*
X152030237Y-122404318D01*
X152030237Y-122404318D02*
X151909285Y-122585746D01*
X151909285Y-122585746D02*
X151788333Y-122706699D01*
X151788333Y-122706699D02*
X151667380Y-122767175D01*
X152997857Y-123674318D02*
X153239761Y-123674318D01*
X153239761Y-123674318D02*
X153360714Y-123613842D01*
X153360714Y-123613842D02*
X153421190Y-123553365D01*
X153421190Y-123553365D02*
X153542142Y-123371937D01*
X153542142Y-123371937D02*
X153602619Y-123130032D01*
X153602619Y-123130032D02*
X153602619Y-122646222D01*
X153602619Y-122646222D02*
X153542142Y-122525270D01*
X153542142Y-122525270D02*
X153481666Y-122464794D01*
X153481666Y-122464794D02*
X153360714Y-122404318D01*
X153360714Y-122404318D02*
X153118809Y-122404318D01*
X153118809Y-122404318D02*
X152997857Y-122464794D01*
X152997857Y-122464794D02*
X152937380Y-122525270D01*
X152937380Y-122525270D02*
X152876904Y-122646222D01*
X152876904Y-122646222D02*
X152876904Y-122948603D01*
X152876904Y-122948603D02*
X152937380Y-123069556D01*
X152937380Y-123069556D02*
X152997857Y-123130032D01*
X152997857Y-123130032D02*
X153118809Y-123190508D01*
X153118809Y-123190508D02*
X153360714Y-123190508D01*
X153360714Y-123190508D02*
X153481666Y-123130032D01*
X153481666Y-123130032D02*
X153542142Y-123069556D01*
X153542142Y-123069556D02*
X153602619Y-122948603D01*
D12*
X151757142Y-121839580D02*
X151709523Y-121887200D01*
X151709523Y-121887200D02*
X151566666Y-121934819D01*
X151566666Y-121934819D02*
X151471428Y-121934819D01*
X151471428Y-121934819D02*
X151328571Y-121887200D01*
X151328571Y-121887200D02*
X151233333Y-121791961D01*
X151233333Y-121791961D02*
X151185714Y-121696723D01*
X151185714Y-121696723D02*
X151138095Y-121506247D01*
X151138095Y-121506247D02*
X151138095Y-121363390D01*
X151138095Y-121363390D02*
X151185714Y-121172914D01*
X151185714Y-121172914D02*
X151233333Y-121077676D01*
X151233333Y-121077676D02*
X151328571Y-120982438D01*
X151328571Y-120982438D02*
X151471428Y-120934819D01*
X151471428Y-120934819D02*
X151566666Y-120934819D01*
X151566666Y-120934819D02*
X151709523Y-120982438D01*
X151709523Y-120982438D02*
X151757142Y-121030057D01*
X152138095Y-121030057D02*
X152185714Y-120982438D01*
X152185714Y-120982438D02*
X152280952Y-120934819D01*
X152280952Y-120934819D02*
X152519047Y-120934819D01*
X152519047Y-120934819D02*
X152614285Y-120982438D01*
X152614285Y-120982438D02*
X152661904Y-121030057D01*
X152661904Y-121030057D02*
X152709523Y-121125295D01*
X152709523Y-121125295D02*
X152709523Y-121220533D01*
X152709523Y-121220533D02*
X152661904Y-121363390D01*
X152661904Y-121363390D02*
X152090476Y-121934819D01*
X152090476Y-121934819D02*
X152709523Y-121934819D01*
X153042857Y-120934819D02*
X153661904Y-120934819D01*
X153661904Y-120934819D02*
X153328571Y-121315771D01*
X153328571Y-121315771D02*
X153471428Y-121315771D01*
X153471428Y-121315771D02*
X153566666Y-121363390D01*
X153566666Y-121363390D02*
X153614285Y-121411009D01*
X153614285Y-121411009D02*
X153661904Y-121506247D01*
X153661904Y-121506247D02*
X153661904Y-121744342D01*
X153661904Y-121744342D02*
X153614285Y-121839580D01*
X153614285Y-121839580D02*
X153566666Y-121887200D01*
X153566666Y-121887200D02*
X153471428Y-121934819D01*
X153471428Y-121934819D02*
X153185714Y-121934819D01*
X153185714Y-121934819D02*
X153090476Y-121887200D01*
X153090476Y-121887200D02*
X153042857Y-121839580D01*
D11*
X151183571Y-125874318D02*
X150760237Y-125269556D01*
X150457856Y-125874318D02*
X150457856Y-124604318D01*
X150457856Y-124604318D02*
X150941666Y-124604318D01*
X150941666Y-124604318D02*
X151062618Y-124664794D01*
X151062618Y-124664794D02*
X151123095Y-124725270D01*
X151123095Y-124725270D02*
X151183571Y-124846222D01*
X151183571Y-124846222D02*
X151183571Y-125027651D01*
X151183571Y-125027651D02*
X151123095Y-125148603D01*
X151123095Y-125148603D02*
X151062618Y-125209080D01*
X151062618Y-125209080D02*
X150941666Y-125269556D01*
X150941666Y-125269556D02*
X150457856Y-125269556D01*
X151667380Y-124725270D02*
X151727856Y-124664794D01*
X151727856Y-124664794D02*
X151848809Y-124604318D01*
X151848809Y-124604318D02*
X152151190Y-124604318D01*
X152151190Y-124604318D02*
X152272142Y-124664794D01*
X152272142Y-124664794D02*
X152332618Y-124725270D01*
X152332618Y-124725270D02*
X152393095Y-124846222D01*
X152393095Y-124846222D02*
X152393095Y-124967175D01*
X152393095Y-124967175D02*
X152332618Y-125148603D01*
X152332618Y-125148603D02*
X151606904Y-125874318D01*
X151606904Y-125874318D02*
X152393095Y-125874318D01*
X153179285Y-124604318D02*
X153300238Y-124604318D01*
X153300238Y-124604318D02*
X153421190Y-124664794D01*
X153421190Y-124664794D02*
X153481666Y-124725270D01*
X153481666Y-124725270D02*
X153542142Y-124846222D01*
X153542142Y-124846222D02*
X153602619Y-125088127D01*
X153602619Y-125088127D02*
X153602619Y-125390508D01*
X153602619Y-125390508D02*
X153542142Y-125632413D01*
X153542142Y-125632413D02*
X153481666Y-125753365D01*
X153481666Y-125753365D02*
X153421190Y-125813842D01*
X153421190Y-125813842D02*
X153300238Y-125874318D01*
X153300238Y-125874318D02*
X153179285Y-125874318D01*
X153179285Y-125874318D02*
X153058333Y-125813842D01*
X153058333Y-125813842D02*
X152997857Y-125753365D01*
X152997857Y-125753365D02*
X152937380Y-125632413D01*
X152937380Y-125632413D02*
X152876904Y-125390508D01*
X152876904Y-125390508D02*
X152876904Y-125088127D01*
X152876904Y-125088127D02*
X152937380Y-124846222D01*
X152937380Y-124846222D02*
X152997857Y-124725270D01*
X152997857Y-124725270D02*
X153058333Y-124664794D01*
X153058333Y-124664794D02*
X153179285Y-124604318D01*
D12*
X118806268Y-162579580D02*
X118758649Y-162627200D01*
X118758649Y-162627200D02*
X118615792Y-162674819D01*
X118615792Y-162674819D02*
X118520554Y-162674819D01*
X118520554Y-162674819D02*
X118377697Y-162627200D01*
X118377697Y-162627200D02*
X118282459Y-162531961D01*
X118282459Y-162531961D02*
X118234840Y-162436723D01*
X118234840Y-162436723D02*
X118187221Y-162246247D01*
X118187221Y-162246247D02*
X118187221Y-162103390D01*
X118187221Y-162103390D02*
X118234840Y-161912914D01*
X118234840Y-161912914D02*
X118282459Y-161817676D01*
X118282459Y-161817676D02*
X118377697Y-161722438D01*
X118377697Y-161722438D02*
X118520554Y-161674819D01*
X118520554Y-161674819D02*
X118615792Y-161674819D01*
X118615792Y-161674819D02*
X118758649Y-161722438D01*
X118758649Y-161722438D02*
X118806268Y-161770057D01*
X119758649Y-162674819D02*
X119187221Y-162674819D01*
X119472935Y-162674819D02*
X119472935Y-161674819D01*
X119472935Y-161674819D02*
X119377697Y-161817676D01*
X119377697Y-161817676D02*
X119282459Y-161912914D01*
X119282459Y-161912914D02*
X119187221Y-161960533D01*
D11*
X149274318Y-125216428D02*
X148669556Y-125639762D01*
X149274318Y-125942143D02*
X148004318Y-125942143D01*
X148004318Y-125942143D02*
X148004318Y-125458333D01*
X148004318Y-125458333D02*
X148064794Y-125337381D01*
X148064794Y-125337381D02*
X148125270Y-125276904D01*
X148125270Y-125276904D02*
X148246222Y-125216428D01*
X148246222Y-125216428D02*
X148427651Y-125216428D01*
X148427651Y-125216428D02*
X148548603Y-125276904D01*
X148548603Y-125276904D02*
X148609080Y-125337381D01*
X148609080Y-125337381D02*
X148669556Y-125458333D01*
X148669556Y-125458333D02*
X148669556Y-125942143D01*
X148125270Y-124732619D02*
X148064794Y-124672143D01*
X148064794Y-124672143D02*
X148004318Y-124551190D01*
X148004318Y-124551190D02*
X148004318Y-124248809D01*
X148004318Y-124248809D02*
X148064794Y-124127857D01*
X148064794Y-124127857D02*
X148125270Y-124067381D01*
X148125270Y-124067381D02*
X148246222Y-124006904D01*
X148246222Y-124006904D02*
X148367175Y-124006904D01*
X148367175Y-124006904D02*
X148548603Y-124067381D01*
X148548603Y-124067381D02*
X149274318Y-124793095D01*
X149274318Y-124793095D02*
X149274318Y-124006904D01*
X148125270Y-123523095D02*
X148064794Y-123462619D01*
X148064794Y-123462619D02*
X148004318Y-123341666D01*
X148004318Y-123341666D02*
X148004318Y-123039285D01*
X148004318Y-123039285D02*
X148064794Y-122918333D01*
X148064794Y-122918333D02*
X148125270Y-122857857D01*
X148125270Y-122857857D02*
X148246222Y-122797380D01*
X148246222Y-122797380D02*
X148367175Y-122797380D01*
X148367175Y-122797380D02*
X148548603Y-122857857D01*
X148548603Y-122857857D02*
X149274318Y-123583571D01*
X149274318Y-123583571D02*
X149274318Y-122797380D01*
D12*
X122306268Y-165939580D02*
X122258649Y-165987200D01*
X122258649Y-165987200D02*
X122115792Y-166034819D01*
X122115792Y-166034819D02*
X122020554Y-166034819D01*
X122020554Y-166034819D02*
X121877697Y-165987200D01*
X121877697Y-165987200D02*
X121782459Y-165891961D01*
X121782459Y-165891961D02*
X121734840Y-165796723D01*
X121734840Y-165796723D02*
X121687221Y-165606247D01*
X121687221Y-165606247D02*
X121687221Y-165463390D01*
X121687221Y-165463390D02*
X121734840Y-165272914D01*
X121734840Y-165272914D02*
X121782459Y-165177676D01*
X121782459Y-165177676D02*
X121877697Y-165082438D01*
X121877697Y-165082438D02*
X122020554Y-165034819D01*
X122020554Y-165034819D02*
X122115792Y-165034819D01*
X122115792Y-165034819D02*
X122258649Y-165082438D01*
X122258649Y-165082438D02*
X122306268Y-165130057D01*
X122687221Y-165130057D02*
X122734840Y-165082438D01*
X122734840Y-165082438D02*
X122830078Y-165034819D01*
X122830078Y-165034819D02*
X123068173Y-165034819D01*
X123068173Y-165034819D02*
X123163411Y-165082438D01*
X123163411Y-165082438D02*
X123211030Y-165130057D01*
X123211030Y-165130057D02*
X123258649Y-165225295D01*
X123258649Y-165225295D02*
X123258649Y-165320533D01*
X123258649Y-165320533D02*
X123211030Y-165463390D01*
X123211030Y-165463390D02*
X122639602Y-166034819D01*
X122639602Y-166034819D02*
X123258649Y-166034819D01*
D11*
X156303365Y-158596428D02*
X156363842Y-158656904D01*
X156363842Y-158656904D02*
X156424318Y-158838333D01*
X156424318Y-158838333D02*
X156424318Y-158959285D01*
X156424318Y-158959285D02*
X156363842Y-159140714D01*
X156363842Y-159140714D02*
X156242889Y-159261666D01*
X156242889Y-159261666D02*
X156121937Y-159322143D01*
X156121937Y-159322143D02*
X155880032Y-159382619D01*
X155880032Y-159382619D02*
X155698603Y-159382619D01*
X155698603Y-159382619D02*
X155456699Y-159322143D01*
X155456699Y-159322143D02*
X155335746Y-159261666D01*
X155335746Y-159261666D02*
X155214794Y-159140714D01*
X155214794Y-159140714D02*
X155154318Y-158959285D01*
X155154318Y-158959285D02*
X155154318Y-158838333D01*
X155154318Y-158838333D02*
X155214794Y-158656904D01*
X155214794Y-158656904D02*
X155275270Y-158596428D01*
X156424318Y-157386904D02*
X156424318Y-158112619D01*
X156424318Y-157749762D02*
X155154318Y-157749762D01*
X155154318Y-157749762D02*
X155335746Y-157870714D01*
X155335746Y-157870714D02*
X155456699Y-157991666D01*
X155456699Y-157991666D02*
X155517175Y-158112619D01*
X155275270Y-156903095D02*
X155214794Y-156842619D01*
X155214794Y-156842619D02*
X155154318Y-156721666D01*
X155154318Y-156721666D02*
X155154318Y-156419285D01*
X155154318Y-156419285D02*
X155214794Y-156298333D01*
X155214794Y-156298333D02*
X155275270Y-156237857D01*
X155275270Y-156237857D02*
X155396222Y-156177380D01*
X155396222Y-156177380D02*
X155517175Y-156177380D01*
X155517175Y-156177380D02*
X155698603Y-156237857D01*
X155698603Y-156237857D02*
X156424318Y-156963571D01*
X156424318Y-156963571D02*
X156424318Y-156177380D01*
D12*
X123057696Y-145852557D02*
X122962458Y-145804938D01*
X122962458Y-145804938D02*
X122867220Y-145709700D01*
X122867220Y-145709700D02*
X122724363Y-145566842D01*
X122724363Y-145566842D02*
X122629125Y-145519223D01*
X122629125Y-145519223D02*
X122533887Y-145519223D01*
X122581506Y-145757319D02*
X122486268Y-145709700D01*
X122486268Y-145709700D02*
X122391030Y-145614461D01*
X122391030Y-145614461D02*
X122343411Y-145423985D01*
X122343411Y-145423985D02*
X122343411Y-145090652D01*
X122343411Y-145090652D02*
X122391030Y-144900176D01*
X122391030Y-144900176D02*
X122486268Y-144804938D01*
X122486268Y-144804938D02*
X122581506Y-144757319D01*
X122581506Y-144757319D02*
X122771982Y-144757319D01*
X122771982Y-144757319D02*
X122867220Y-144804938D01*
X122867220Y-144804938D02*
X122962458Y-144900176D01*
X122962458Y-144900176D02*
X123010077Y-145090652D01*
X123010077Y-145090652D02*
X123010077Y-145423985D01*
X123010077Y-145423985D02*
X122962458Y-145614461D01*
X122962458Y-145614461D02*
X122867220Y-145709700D01*
X122867220Y-145709700D02*
X122771982Y-145757319D01*
X122771982Y-145757319D02*
X122581506Y-145757319D01*
X123867220Y-145090652D02*
X123867220Y-145757319D01*
X123629125Y-144709700D02*
X123391030Y-145423985D01*
X123391030Y-145423985D02*
X124010077Y-145423985D01*
D11*
X139238333Y-165674318D02*
X138814999Y-165069556D01*
X138512618Y-165674318D02*
X138512618Y-164404318D01*
X138512618Y-164404318D02*
X138996428Y-164404318D01*
X138996428Y-164404318D02*
X139117380Y-164464794D01*
X139117380Y-164464794D02*
X139177857Y-164525270D01*
X139177857Y-164525270D02*
X139238333Y-164646222D01*
X139238333Y-164646222D02*
X139238333Y-164827651D01*
X139238333Y-164827651D02*
X139177857Y-164948603D01*
X139177857Y-164948603D02*
X139117380Y-165009080D01*
X139117380Y-165009080D02*
X138996428Y-165069556D01*
X138996428Y-165069556D02*
X138512618Y-165069556D01*
X140326904Y-164827651D02*
X140326904Y-165674318D01*
X140024523Y-164343842D02*
X139722142Y-165250984D01*
X139722142Y-165250984D02*
X140508333Y-165250984D01*
X136988333Y-181374318D02*
X136564999Y-180769556D01*
X136262618Y-181374318D02*
X136262618Y-180104318D01*
X136262618Y-180104318D02*
X136746428Y-180104318D01*
X136746428Y-180104318D02*
X136867380Y-180164794D01*
X136867380Y-180164794D02*
X136927857Y-180225270D01*
X136927857Y-180225270D02*
X136988333Y-180346222D01*
X136988333Y-180346222D02*
X136988333Y-180527651D01*
X136988333Y-180527651D02*
X136927857Y-180648603D01*
X136927857Y-180648603D02*
X136867380Y-180709080D01*
X136867380Y-180709080D02*
X136746428Y-180769556D01*
X136746428Y-180769556D02*
X136262618Y-180769556D01*
X138076904Y-180104318D02*
X137834999Y-180104318D01*
X137834999Y-180104318D02*
X137714047Y-180164794D01*
X137714047Y-180164794D02*
X137653571Y-180225270D01*
X137653571Y-180225270D02*
X137532618Y-180406699D01*
X137532618Y-180406699D02*
X137472142Y-180648603D01*
X137472142Y-180648603D02*
X137472142Y-181132413D01*
X137472142Y-181132413D02*
X137532618Y-181253365D01*
X137532618Y-181253365D02*
X137593095Y-181313842D01*
X137593095Y-181313842D02*
X137714047Y-181374318D01*
X137714047Y-181374318D02*
X137955952Y-181374318D01*
X137955952Y-181374318D02*
X138076904Y-181313842D01*
X138076904Y-181313842D02*
X138137380Y-181253365D01*
X138137380Y-181253365D02*
X138197857Y-181132413D01*
X138197857Y-181132413D02*
X138197857Y-180830032D01*
X138197857Y-180830032D02*
X138137380Y-180709080D01*
X138137380Y-180709080D02*
X138076904Y-180648603D01*
X138076904Y-180648603D02*
X137955952Y-180588127D01*
X137955952Y-180588127D02*
X137714047Y-180588127D01*
X137714047Y-180588127D02*
X137593095Y-180648603D01*
X137593095Y-180648603D02*
X137532618Y-180709080D01*
X137532618Y-180709080D02*
X137472142Y-180830032D01*
X139238333Y-163424318D02*
X138814999Y-162819556D01*
X138512618Y-163424318D02*
X138512618Y-162154318D01*
X138512618Y-162154318D02*
X138996428Y-162154318D01*
X138996428Y-162154318D02*
X139117380Y-162214794D01*
X139117380Y-162214794D02*
X139177857Y-162275270D01*
X139177857Y-162275270D02*
X139238333Y-162396222D01*
X139238333Y-162396222D02*
X139238333Y-162577651D01*
X139238333Y-162577651D02*
X139177857Y-162698603D01*
X139177857Y-162698603D02*
X139117380Y-162759080D01*
X139117380Y-162759080D02*
X138996428Y-162819556D01*
X138996428Y-162819556D02*
X138512618Y-162819556D01*
X139661666Y-162154318D02*
X140508333Y-162154318D01*
X140508333Y-162154318D02*
X139964047Y-163424318D01*
D12*
X112442515Y-159792857D02*
X112490135Y-159840476D01*
X112490135Y-159840476D02*
X112537754Y-159983333D01*
X112537754Y-159983333D02*
X112537754Y-160078571D01*
X112537754Y-160078571D02*
X112490135Y-160221428D01*
X112490135Y-160221428D02*
X112394896Y-160316666D01*
X112394896Y-160316666D02*
X112299658Y-160364285D01*
X112299658Y-160364285D02*
X112109182Y-160411904D01*
X112109182Y-160411904D02*
X111966325Y-160411904D01*
X111966325Y-160411904D02*
X111775849Y-160364285D01*
X111775849Y-160364285D02*
X111680611Y-160316666D01*
X111680611Y-160316666D02*
X111585373Y-160221428D01*
X111585373Y-160221428D02*
X111537754Y-160078571D01*
X111537754Y-160078571D02*
X111537754Y-159983333D01*
X111537754Y-159983333D02*
X111585373Y-159840476D01*
X111585373Y-159840476D02*
X111632992Y-159792857D01*
X111871087Y-158935714D02*
X112537754Y-158935714D01*
X111490135Y-159173809D02*
X112204420Y-159411904D01*
X112204420Y-159411904D02*
X112204420Y-158792857D01*
X111537754Y-157935714D02*
X111537754Y-158411904D01*
X111537754Y-158411904D02*
X112013944Y-158459523D01*
X112013944Y-158459523D02*
X111966325Y-158411904D01*
X111966325Y-158411904D02*
X111918706Y-158316666D01*
X111918706Y-158316666D02*
X111918706Y-158078571D01*
X111918706Y-158078571D02*
X111966325Y-157983333D01*
X111966325Y-157983333D02*
X112013944Y-157935714D01*
X112013944Y-157935714D02*
X112109182Y-157888095D01*
X112109182Y-157888095D02*
X112347277Y-157888095D01*
X112347277Y-157888095D02*
X112442515Y-157935714D01*
X112442515Y-157935714D02*
X112490135Y-157983333D01*
X112490135Y-157983333D02*
X112537754Y-158078571D01*
X112537754Y-158078571D02*
X112537754Y-158316666D01*
X112537754Y-158316666D02*
X112490135Y-158411904D01*
X112490135Y-158411904D02*
X112442515Y-158459523D01*
D11*
X138508858Y-184011666D02*
X137904096Y-184435000D01*
X138508858Y-184737381D02*
X137238858Y-184737381D01*
X137238858Y-184737381D02*
X137238858Y-184253571D01*
X137238858Y-184253571D02*
X137299334Y-184132619D01*
X137299334Y-184132619D02*
X137359810Y-184072142D01*
X137359810Y-184072142D02*
X137480762Y-184011666D01*
X137480762Y-184011666D02*
X137662191Y-184011666D01*
X137662191Y-184011666D02*
X137783143Y-184072142D01*
X137783143Y-184072142D02*
X137843620Y-184132619D01*
X137843620Y-184132619D02*
X137904096Y-184253571D01*
X137904096Y-184253571D02*
X137904096Y-184737381D01*
X137238858Y-182862619D02*
X137238858Y-183467381D01*
X137238858Y-183467381D02*
X137843620Y-183527857D01*
X137843620Y-183527857D02*
X137783143Y-183467381D01*
X137783143Y-183467381D02*
X137722667Y-183346428D01*
X137722667Y-183346428D02*
X137722667Y-183044047D01*
X137722667Y-183044047D02*
X137783143Y-182923095D01*
X137783143Y-182923095D02*
X137843620Y-182862619D01*
X137843620Y-182862619D02*
X137964572Y-182802142D01*
X137964572Y-182802142D02*
X138266953Y-182802142D01*
X138266953Y-182802142D02*
X138387905Y-182862619D01*
X138387905Y-182862619D02*
X138448382Y-182923095D01*
X138448382Y-182923095D02*
X138508858Y-183044047D01*
X138508858Y-183044047D02*
X138508858Y-183346428D01*
X138508858Y-183346428D02*
X138448382Y-183467381D01*
X138448382Y-183467381D02*
X138387905Y-183527857D01*
X144283571Y-113513365D02*
X144223095Y-113573842D01*
X144223095Y-113573842D02*
X144041666Y-113634318D01*
X144041666Y-113634318D02*
X143920714Y-113634318D01*
X143920714Y-113634318D02*
X143739285Y-113573842D01*
X143739285Y-113573842D02*
X143618333Y-113452889D01*
X143618333Y-113452889D02*
X143557856Y-113331937D01*
X143557856Y-113331937D02*
X143497380Y-113090032D01*
X143497380Y-113090032D02*
X143497380Y-112908603D01*
X143497380Y-112908603D02*
X143557856Y-112666699D01*
X143557856Y-112666699D02*
X143618333Y-112545746D01*
X143618333Y-112545746D02*
X143739285Y-112424794D01*
X143739285Y-112424794D02*
X143920714Y-112364318D01*
X143920714Y-112364318D02*
X144041666Y-112364318D01*
X144041666Y-112364318D02*
X144223095Y-112424794D01*
X144223095Y-112424794D02*
X144283571Y-112485270D01*
X144767380Y-112485270D02*
X144827856Y-112424794D01*
X144827856Y-112424794D02*
X144948809Y-112364318D01*
X144948809Y-112364318D02*
X145251190Y-112364318D01*
X145251190Y-112364318D02*
X145372142Y-112424794D01*
X145372142Y-112424794D02*
X145432618Y-112485270D01*
X145432618Y-112485270D02*
X145493095Y-112606222D01*
X145493095Y-112606222D02*
X145493095Y-112727175D01*
X145493095Y-112727175D02*
X145432618Y-112908603D01*
X145432618Y-112908603D02*
X144706904Y-113634318D01*
X144706904Y-113634318D02*
X145493095Y-113634318D01*
X146702619Y-113634318D02*
X145976904Y-113634318D01*
X146339761Y-113634318D02*
X146339761Y-112364318D01*
X146339761Y-112364318D02*
X146218809Y-112545746D01*
X146218809Y-112545746D02*
X146097857Y-112666699D01*
X146097857Y-112666699D02*
X145976904Y-112727175D01*
X162614667Y-175191318D02*
X162614667Y-176098461D01*
X162614667Y-176098461D02*
X162554190Y-176279889D01*
X162554190Y-176279889D02*
X162433238Y-176400842D01*
X162433238Y-176400842D02*
X162251809Y-176461318D01*
X162251809Y-176461318D02*
X162130857Y-176461318D01*
X163098476Y-175191318D02*
X163884667Y-175191318D01*
X163884667Y-175191318D02*
X163461333Y-175675127D01*
X163461333Y-175675127D02*
X163642762Y-175675127D01*
X163642762Y-175675127D02*
X163763714Y-175735603D01*
X163763714Y-175735603D02*
X163824190Y-175796080D01*
X163824190Y-175796080D02*
X163884667Y-175917032D01*
X163884667Y-175917032D02*
X163884667Y-176219413D01*
X163884667Y-176219413D02*
X163824190Y-176340365D01*
X163824190Y-176340365D02*
X163763714Y-176400842D01*
X163763714Y-176400842D02*
X163642762Y-176461318D01*
X163642762Y-176461318D02*
X163279905Y-176461318D01*
X163279905Y-176461318D02*
X163158952Y-176400842D01*
X163158952Y-176400842D02*
X163098476Y-176340365D01*
D12*
X132179580Y-152392857D02*
X132227200Y-152440476D01*
X132227200Y-152440476D02*
X132274819Y-152583333D01*
X132274819Y-152583333D02*
X132274819Y-152678571D01*
X132274819Y-152678571D02*
X132227200Y-152821428D01*
X132227200Y-152821428D02*
X132131961Y-152916666D01*
X132131961Y-152916666D02*
X132036723Y-152964285D01*
X132036723Y-152964285D02*
X131846247Y-153011904D01*
X131846247Y-153011904D02*
X131703390Y-153011904D01*
X131703390Y-153011904D02*
X131512914Y-152964285D01*
X131512914Y-152964285D02*
X131417676Y-152916666D01*
X131417676Y-152916666D02*
X131322438Y-152821428D01*
X131322438Y-152821428D02*
X131274819Y-152678571D01*
X131274819Y-152678571D02*
X131274819Y-152583333D01*
X131274819Y-152583333D02*
X131322438Y-152440476D01*
X131322438Y-152440476D02*
X131370057Y-152392857D01*
X131274819Y-152059523D02*
X131274819Y-151440476D01*
X131274819Y-151440476D02*
X131655771Y-151773809D01*
X131655771Y-151773809D02*
X131655771Y-151630952D01*
X131655771Y-151630952D02*
X131703390Y-151535714D01*
X131703390Y-151535714D02*
X131751009Y-151488095D01*
X131751009Y-151488095D02*
X131846247Y-151440476D01*
X131846247Y-151440476D02*
X132084342Y-151440476D01*
X132084342Y-151440476D02*
X132179580Y-151488095D01*
X132179580Y-151488095D02*
X132227200Y-151535714D01*
X132227200Y-151535714D02*
X132274819Y-151630952D01*
X132274819Y-151630952D02*
X132274819Y-151916666D01*
X132274819Y-151916666D02*
X132227200Y-152011904D01*
X132227200Y-152011904D02*
X132179580Y-152059523D01*
X131703390Y-150869047D02*
X131655771Y-150964285D01*
X131655771Y-150964285D02*
X131608152Y-151011904D01*
X131608152Y-151011904D02*
X131512914Y-151059523D01*
X131512914Y-151059523D02*
X131465295Y-151059523D01*
X131465295Y-151059523D02*
X131370057Y-151011904D01*
X131370057Y-151011904D02*
X131322438Y-150964285D01*
X131322438Y-150964285D02*
X131274819Y-150869047D01*
X131274819Y-150869047D02*
X131274819Y-150678571D01*
X131274819Y-150678571D02*
X131322438Y-150583333D01*
X131322438Y-150583333D02*
X131370057Y-150535714D01*
X131370057Y-150535714D02*
X131465295Y-150488095D01*
X131465295Y-150488095D02*
X131512914Y-150488095D01*
X131512914Y-150488095D02*
X131608152Y-150535714D01*
X131608152Y-150535714D02*
X131655771Y-150583333D01*
X131655771Y-150583333D02*
X131703390Y-150678571D01*
X131703390Y-150678571D02*
X131703390Y-150869047D01*
X131703390Y-150869047D02*
X131751009Y-150964285D01*
X131751009Y-150964285D02*
X131798628Y-151011904D01*
X131798628Y-151011904D02*
X131893866Y-151059523D01*
X131893866Y-151059523D02*
X132084342Y-151059523D01*
X132084342Y-151059523D02*
X132179580Y-151011904D01*
X132179580Y-151011904D02*
X132227200Y-150964285D01*
X132227200Y-150964285D02*
X132274819Y-150869047D01*
X132274819Y-150869047D02*
X132274819Y-150678571D01*
X132274819Y-150678571D02*
X132227200Y-150583333D01*
X132227200Y-150583333D02*
X132179580Y-150535714D01*
X132179580Y-150535714D02*
X132084342Y-150488095D01*
X132084342Y-150488095D02*
X131893866Y-150488095D01*
X131893866Y-150488095D02*
X131798628Y-150535714D01*
X131798628Y-150535714D02*
X131751009Y-150583333D01*
X131751009Y-150583333D02*
X131703390Y-150678571D01*
D11*
X147924318Y-118299762D02*
X146654318Y-118299762D01*
X147803365Y-116969285D02*
X147863842Y-117029761D01*
X147863842Y-117029761D02*
X147924318Y-117211190D01*
X147924318Y-117211190D02*
X147924318Y-117332142D01*
X147924318Y-117332142D02*
X147863842Y-117513571D01*
X147863842Y-117513571D02*
X147742889Y-117634523D01*
X147742889Y-117634523D02*
X147621937Y-117695000D01*
X147621937Y-117695000D02*
X147380032Y-117755476D01*
X147380032Y-117755476D02*
X147198603Y-117755476D01*
X147198603Y-117755476D02*
X146956699Y-117695000D01*
X146956699Y-117695000D02*
X146835746Y-117634523D01*
X146835746Y-117634523D02*
X146714794Y-117513571D01*
X146714794Y-117513571D02*
X146654318Y-117332142D01*
X146654318Y-117332142D02*
X146654318Y-117211190D01*
X146654318Y-117211190D02*
X146714794Y-117029761D01*
X146714794Y-117029761D02*
X146775270Y-116969285D01*
X147077651Y-115880714D02*
X147924318Y-115880714D01*
X146593842Y-116183095D02*
X147500984Y-116485476D01*
X147500984Y-116485476D02*
X147500984Y-115699285D01*
X95976667Y-193354318D02*
X95976667Y-194261461D01*
X95976667Y-194261461D02*
X95916190Y-194442889D01*
X95916190Y-194442889D02*
X95795238Y-194563842D01*
X95795238Y-194563842D02*
X95613809Y-194624318D01*
X95613809Y-194624318D02*
X95492857Y-194624318D01*
X96520952Y-193475270D02*
X96581428Y-193414794D01*
X96581428Y-193414794D02*
X96702381Y-193354318D01*
X96702381Y-193354318D02*
X97004762Y-193354318D01*
X97004762Y-193354318D02*
X97125714Y-193414794D01*
X97125714Y-193414794D02*
X97186190Y-193475270D01*
X97186190Y-193475270D02*
X97246667Y-193596222D01*
X97246667Y-193596222D02*
X97246667Y-193717175D01*
X97246667Y-193717175D02*
X97186190Y-193898603D01*
X97186190Y-193898603D02*
X96460476Y-194624318D01*
X96460476Y-194624318D02*
X97246667Y-194624318D01*
X98638333Y-163754318D02*
X98214999Y-163149556D01*
X97912618Y-163754318D02*
X97912618Y-162484318D01*
X97912618Y-162484318D02*
X98396428Y-162484318D01*
X98396428Y-162484318D02*
X98517380Y-162544794D01*
X98517380Y-162544794D02*
X98577857Y-162605270D01*
X98577857Y-162605270D02*
X98638333Y-162726222D01*
X98638333Y-162726222D02*
X98638333Y-162907651D01*
X98638333Y-162907651D02*
X98577857Y-163028603D01*
X98577857Y-163028603D02*
X98517380Y-163089080D01*
X98517380Y-163089080D02*
X98396428Y-163149556D01*
X98396428Y-163149556D02*
X97912618Y-163149556D01*
X99364047Y-163028603D02*
X99243095Y-162968127D01*
X99243095Y-162968127D02*
X99182618Y-162907651D01*
X99182618Y-162907651D02*
X99122142Y-162786699D01*
X99122142Y-162786699D02*
X99122142Y-162726222D01*
X99122142Y-162726222D02*
X99182618Y-162605270D01*
X99182618Y-162605270D02*
X99243095Y-162544794D01*
X99243095Y-162544794D02*
X99364047Y-162484318D01*
X99364047Y-162484318D02*
X99605952Y-162484318D01*
X99605952Y-162484318D02*
X99726904Y-162544794D01*
X99726904Y-162544794D02*
X99787380Y-162605270D01*
X99787380Y-162605270D02*
X99847857Y-162726222D01*
X99847857Y-162726222D02*
X99847857Y-162786699D01*
X99847857Y-162786699D02*
X99787380Y-162907651D01*
X99787380Y-162907651D02*
X99726904Y-162968127D01*
X99726904Y-162968127D02*
X99605952Y-163028603D01*
X99605952Y-163028603D02*
X99364047Y-163028603D01*
X99364047Y-163028603D02*
X99243095Y-163089080D01*
X99243095Y-163089080D02*
X99182618Y-163149556D01*
X99182618Y-163149556D02*
X99122142Y-163270508D01*
X99122142Y-163270508D02*
X99122142Y-163512413D01*
X99122142Y-163512413D02*
X99182618Y-163633365D01*
X99182618Y-163633365D02*
X99243095Y-163693842D01*
X99243095Y-163693842D02*
X99364047Y-163754318D01*
X99364047Y-163754318D02*
X99605952Y-163754318D01*
X99605952Y-163754318D02*
X99726904Y-163693842D01*
X99726904Y-163693842D02*
X99787380Y-163633365D01*
X99787380Y-163633365D02*
X99847857Y-163512413D01*
X99847857Y-163512413D02*
X99847857Y-163270508D01*
X99847857Y-163270508D02*
X99787380Y-163149556D01*
X99787380Y-163149556D02*
X99726904Y-163089080D01*
X99726904Y-163089080D02*
X99605952Y-163028603D01*
X112484318Y-131989762D02*
X111214318Y-131989762D01*
X112363365Y-130659285D02*
X112423842Y-130719761D01*
X112423842Y-130719761D02*
X112484318Y-130901190D01*
X112484318Y-130901190D02*
X112484318Y-131022142D01*
X112484318Y-131022142D02*
X112423842Y-131203571D01*
X112423842Y-131203571D02*
X112302889Y-131324523D01*
X112302889Y-131324523D02*
X112181937Y-131385000D01*
X112181937Y-131385000D02*
X111940032Y-131445476D01*
X111940032Y-131445476D02*
X111758603Y-131445476D01*
X111758603Y-131445476D02*
X111516699Y-131385000D01*
X111516699Y-131385000D02*
X111395746Y-131324523D01*
X111395746Y-131324523D02*
X111274794Y-131203571D01*
X111274794Y-131203571D02*
X111214318Y-131022142D01*
X111214318Y-131022142D02*
X111214318Y-130901190D01*
X111214318Y-130901190D02*
X111274794Y-130719761D01*
X111274794Y-130719761D02*
X111335270Y-130659285D01*
X112484318Y-129449761D02*
X112484318Y-130175476D01*
X112484318Y-129812619D02*
X111214318Y-129812619D01*
X111214318Y-129812619D02*
X111395746Y-129933571D01*
X111395746Y-129933571D02*
X111516699Y-130054523D01*
X111516699Y-130054523D02*
X111577175Y-130175476D01*
D12*
X115238649Y-144984819D02*
X115238649Y-143984819D01*
X115238649Y-143984819D02*
X115476744Y-143984819D01*
X115476744Y-143984819D02*
X115619601Y-144032438D01*
X115619601Y-144032438D02*
X115714839Y-144127676D01*
X115714839Y-144127676D02*
X115762458Y-144222914D01*
X115762458Y-144222914D02*
X115810077Y-144413390D01*
X115810077Y-144413390D02*
X115810077Y-144556247D01*
X115810077Y-144556247D02*
X115762458Y-144746723D01*
X115762458Y-144746723D02*
X115714839Y-144841961D01*
X115714839Y-144841961D02*
X115619601Y-144937200D01*
X115619601Y-144937200D02*
X115476744Y-144984819D01*
X115476744Y-144984819D02*
X115238649Y-144984819D01*
X116762458Y-144984819D02*
X116191030Y-144984819D01*
X116476744Y-144984819D02*
X116476744Y-143984819D01*
X116476744Y-143984819D02*
X116381506Y-144127676D01*
X116381506Y-144127676D02*
X116286268Y-144222914D01*
X116286268Y-144222914D02*
X116191030Y-144270533D01*
X117381506Y-143984819D02*
X117476744Y-143984819D01*
X117476744Y-143984819D02*
X117571982Y-144032438D01*
X117571982Y-144032438D02*
X117619601Y-144080057D01*
X117619601Y-144080057D02*
X117667220Y-144175295D01*
X117667220Y-144175295D02*
X117714839Y-144365771D01*
X117714839Y-144365771D02*
X117714839Y-144603866D01*
X117714839Y-144603866D02*
X117667220Y-144794342D01*
X117667220Y-144794342D02*
X117619601Y-144889580D01*
X117619601Y-144889580D02*
X117571982Y-144937200D01*
X117571982Y-144937200D02*
X117476744Y-144984819D01*
X117476744Y-144984819D02*
X117381506Y-144984819D01*
X117381506Y-144984819D02*
X117286268Y-144937200D01*
X117286268Y-144937200D02*
X117238649Y-144889580D01*
X117238649Y-144889580D02*
X117191030Y-144794342D01*
X117191030Y-144794342D02*
X117143411Y-144603866D01*
X117143411Y-144603866D02*
X117143411Y-144365771D01*
X117143411Y-144365771D02*
X117191030Y-144175295D01*
X117191030Y-144175295D02*
X117238649Y-144080057D01*
X117238649Y-144080057D02*
X117286268Y-144032438D01*
X117286268Y-144032438D02*
X117381506Y-143984819D01*
X116057142Y-114979580D02*
X116009523Y-115027200D01*
X116009523Y-115027200D02*
X115866666Y-115074819D01*
X115866666Y-115074819D02*
X115771428Y-115074819D01*
X115771428Y-115074819D02*
X115628571Y-115027200D01*
X115628571Y-115027200D02*
X115533333Y-114931961D01*
X115533333Y-114931961D02*
X115485714Y-114836723D01*
X115485714Y-114836723D02*
X115438095Y-114646247D01*
X115438095Y-114646247D02*
X115438095Y-114503390D01*
X115438095Y-114503390D02*
X115485714Y-114312914D01*
X115485714Y-114312914D02*
X115533333Y-114217676D01*
X115533333Y-114217676D02*
X115628571Y-114122438D01*
X115628571Y-114122438D02*
X115771428Y-114074819D01*
X115771428Y-114074819D02*
X115866666Y-114074819D01*
X115866666Y-114074819D02*
X116009523Y-114122438D01*
X116009523Y-114122438D02*
X116057142Y-114170057D01*
X116438095Y-114170057D02*
X116485714Y-114122438D01*
X116485714Y-114122438D02*
X116580952Y-114074819D01*
X116580952Y-114074819D02*
X116819047Y-114074819D01*
X116819047Y-114074819D02*
X116914285Y-114122438D01*
X116914285Y-114122438D02*
X116961904Y-114170057D01*
X116961904Y-114170057D02*
X117009523Y-114265295D01*
X117009523Y-114265295D02*
X117009523Y-114360533D01*
X117009523Y-114360533D02*
X116961904Y-114503390D01*
X116961904Y-114503390D02*
X116390476Y-115074819D01*
X116390476Y-115074819D02*
X117009523Y-115074819D01*
X117580952Y-114503390D02*
X117485714Y-114455771D01*
X117485714Y-114455771D02*
X117438095Y-114408152D01*
X117438095Y-114408152D02*
X117390476Y-114312914D01*
X117390476Y-114312914D02*
X117390476Y-114265295D01*
X117390476Y-114265295D02*
X117438095Y-114170057D01*
X117438095Y-114170057D02*
X117485714Y-114122438D01*
X117485714Y-114122438D02*
X117580952Y-114074819D01*
X117580952Y-114074819D02*
X117771428Y-114074819D01*
X117771428Y-114074819D02*
X117866666Y-114122438D01*
X117866666Y-114122438D02*
X117914285Y-114170057D01*
X117914285Y-114170057D02*
X117961904Y-114265295D01*
X117961904Y-114265295D02*
X117961904Y-114312914D01*
X117961904Y-114312914D02*
X117914285Y-114408152D01*
X117914285Y-114408152D02*
X117866666Y-114455771D01*
X117866666Y-114455771D02*
X117771428Y-114503390D01*
X117771428Y-114503390D02*
X117580952Y-114503390D01*
X117580952Y-114503390D02*
X117485714Y-114551009D01*
X117485714Y-114551009D02*
X117438095Y-114598628D01*
X117438095Y-114598628D02*
X117390476Y-114693866D01*
X117390476Y-114693866D02*
X117390476Y-114884342D01*
X117390476Y-114884342D02*
X117438095Y-114979580D01*
X117438095Y-114979580D02*
X117485714Y-115027200D01*
X117485714Y-115027200D02*
X117580952Y-115074819D01*
X117580952Y-115074819D02*
X117771428Y-115074819D01*
X117771428Y-115074819D02*
X117866666Y-115027200D01*
X117866666Y-115027200D02*
X117914285Y-114979580D01*
X117914285Y-114979580D02*
X117961904Y-114884342D01*
X117961904Y-114884342D02*
X117961904Y-114693866D01*
X117961904Y-114693866D02*
X117914285Y-114598628D01*
X117914285Y-114598628D02*
X117866666Y-114551009D01*
X117866666Y-114551009D02*
X117771428Y-114503390D01*
D11*
X163986262Y-116437680D02*
X164893405Y-116437680D01*
X164893405Y-116437680D02*
X165074833Y-116498157D01*
X165074833Y-116498157D02*
X165195786Y-116619109D01*
X165195786Y-116619109D02*
X165256262Y-116800538D01*
X165256262Y-116800538D02*
X165256262Y-116921490D01*
X165256262Y-115167680D02*
X165256262Y-115893395D01*
X165256262Y-115530538D02*
X163986262Y-115530538D01*
X163986262Y-115530538D02*
X164167690Y-115651490D01*
X164167690Y-115651490D02*
X164288643Y-115772442D01*
X164288643Y-115772442D02*
X164349119Y-115893395D01*
X165256262Y-113958156D02*
X165256262Y-114683871D01*
X165256262Y-114321014D02*
X163986262Y-114321014D01*
X163986262Y-114321014D02*
X164167690Y-114441966D01*
X164167690Y-114441966D02*
X164288643Y-114562918D01*
X164288643Y-114562918D02*
X164349119Y-114683871D01*
X153833571Y-110134318D02*
X153410237Y-109529556D01*
X153107856Y-110134318D02*
X153107856Y-108864318D01*
X153107856Y-108864318D02*
X153591666Y-108864318D01*
X153591666Y-108864318D02*
X153712618Y-108924794D01*
X153712618Y-108924794D02*
X153773095Y-108985270D01*
X153773095Y-108985270D02*
X153833571Y-109106222D01*
X153833571Y-109106222D02*
X153833571Y-109287651D01*
X153833571Y-109287651D02*
X153773095Y-109408603D01*
X153773095Y-109408603D02*
X153712618Y-109469080D01*
X153712618Y-109469080D02*
X153591666Y-109529556D01*
X153591666Y-109529556D02*
X153107856Y-109529556D01*
X155043095Y-110134318D02*
X154317380Y-110134318D01*
X154680237Y-110134318D02*
X154680237Y-108864318D01*
X154680237Y-108864318D02*
X154559285Y-109045746D01*
X154559285Y-109045746D02*
X154438333Y-109166699D01*
X154438333Y-109166699D02*
X154317380Y-109227175D01*
X156192142Y-108864318D02*
X155587380Y-108864318D01*
X155587380Y-108864318D02*
X155526904Y-109469080D01*
X155526904Y-109469080D02*
X155587380Y-109408603D01*
X155587380Y-109408603D02*
X155708333Y-109348127D01*
X155708333Y-109348127D02*
X156010714Y-109348127D01*
X156010714Y-109348127D02*
X156131666Y-109408603D01*
X156131666Y-109408603D02*
X156192142Y-109469080D01*
X156192142Y-109469080D02*
X156252619Y-109590032D01*
X156252619Y-109590032D02*
X156252619Y-109892413D01*
X156252619Y-109892413D02*
X156192142Y-110013365D01*
X156192142Y-110013365D02*
X156131666Y-110073842D01*
X156131666Y-110073842D02*
X156010714Y-110134318D01*
X156010714Y-110134318D02*
X155708333Y-110134318D01*
X155708333Y-110134318D02*
X155587380Y-110073842D01*
X155587380Y-110073842D02*
X155526904Y-110013365D01*
D12*
X109014840Y-142124819D02*
X109014840Y-141124819D01*
X109014840Y-141124819D02*
X109252935Y-141124819D01*
X109252935Y-141124819D02*
X109395792Y-141172438D01*
X109395792Y-141172438D02*
X109491030Y-141267676D01*
X109491030Y-141267676D02*
X109538649Y-141362914D01*
X109538649Y-141362914D02*
X109586268Y-141553390D01*
X109586268Y-141553390D02*
X109586268Y-141696247D01*
X109586268Y-141696247D02*
X109538649Y-141886723D01*
X109538649Y-141886723D02*
X109491030Y-141981961D01*
X109491030Y-141981961D02*
X109395792Y-142077200D01*
X109395792Y-142077200D02*
X109252935Y-142124819D01*
X109252935Y-142124819D02*
X109014840Y-142124819D01*
X110062459Y-142124819D02*
X110252935Y-142124819D01*
X110252935Y-142124819D02*
X110348173Y-142077200D01*
X110348173Y-142077200D02*
X110395792Y-142029580D01*
X110395792Y-142029580D02*
X110491030Y-141886723D01*
X110491030Y-141886723D02*
X110538649Y-141696247D01*
X110538649Y-141696247D02*
X110538649Y-141315295D01*
X110538649Y-141315295D02*
X110491030Y-141220057D01*
X110491030Y-141220057D02*
X110443411Y-141172438D01*
X110443411Y-141172438D02*
X110348173Y-141124819D01*
X110348173Y-141124819D02*
X110157697Y-141124819D01*
X110157697Y-141124819D02*
X110062459Y-141172438D01*
X110062459Y-141172438D02*
X110014840Y-141220057D01*
X110014840Y-141220057D02*
X109967221Y-141315295D01*
X109967221Y-141315295D02*
X109967221Y-141553390D01*
X109967221Y-141553390D02*
X110014840Y-141648628D01*
X110014840Y-141648628D02*
X110062459Y-141696247D01*
X110062459Y-141696247D02*
X110157697Y-141743866D01*
X110157697Y-141743866D02*
X110348173Y-141743866D01*
X110348173Y-141743866D02*
X110443411Y-141696247D01*
X110443411Y-141696247D02*
X110491030Y-141648628D01*
X110491030Y-141648628D02*
X110538649Y-141553390D01*
X133857142Y-153179580D02*
X133809523Y-153227200D01*
X133809523Y-153227200D02*
X133666666Y-153274819D01*
X133666666Y-153274819D02*
X133571428Y-153274819D01*
X133571428Y-153274819D02*
X133428571Y-153227200D01*
X133428571Y-153227200D02*
X133333333Y-153131961D01*
X133333333Y-153131961D02*
X133285714Y-153036723D01*
X133285714Y-153036723D02*
X133238095Y-152846247D01*
X133238095Y-152846247D02*
X133238095Y-152703390D01*
X133238095Y-152703390D02*
X133285714Y-152512914D01*
X133285714Y-152512914D02*
X133333333Y-152417676D01*
X133333333Y-152417676D02*
X133428571Y-152322438D01*
X133428571Y-152322438D02*
X133571428Y-152274819D01*
X133571428Y-152274819D02*
X133666666Y-152274819D01*
X133666666Y-152274819D02*
X133809523Y-152322438D01*
X133809523Y-152322438D02*
X133857142Y-152370057D01*
X134190476Y-152274819D02*
X134809523Y-152274819D01*
X134809523Y-152274819D02*
X134476190Y-152655771D01*
X134476190Y-152655771D02*
X134619047Y-152655771D01*
X134619047Y-152655771D02*
X134714285Y-152703390D01*
X134714285Y-152703390D02*
X134761904Y-152751009D01*
X134761904Y-152751009D02*
X134809523Y-152846247D01*
X134809523Y-152846247D02*
X134809523Y-153084342D01*
X134809523Y-153084342D02*
X134761904Y-153179580D01*
X134761904Y-153179580D02*
X134714285Y-153227200D01*
X134714285Y-153227200D02*
X134619047Y-153274819D01*
X134619047Y-153274819D02*
X134333333Y-153274819D01*
X134333333Y-153274819D02*
X134238095Y-153227200D01*
X134238095Y-153227200D02*
X134190476Y-153179580D01*
X135285714Y-153274819D02*
X135476190Y-153274819D01*
X135476190Y-153274819D02*
X135571428Y-153227200D01*
X135571428Y-153227200D02*
X135619047Y-153179580D01*
X135619047Y-153179580D02*
X135714285Y-153036723D01*
X135714285Y-153036723D02*
X135761904Y-152846247D01*
X135761904Y-152846247D02*
X135761904Y-152465295D01*
X135761904Y-152465295D02*
X135714285Y-152370057D01*
X135714285Y-152370057D02*
X135666666Y-152322438D01*
X135666666Y-152322438D02*
X135571428Y-152274819D01*
X135571428Y-152274819D02*
X135380952Y-152274819D01*
X135380952Y-152274819D02*
X135285714Y-152322438D01*
X135285714Y-152322438D02*
X135238095Y-152370057D01*
X135238095Y-152370057D02*
X135190476Y-152465295D01*
X135190476Y-152465295D02*
X135190476Y-152703390D01*
X135190476Y-152703390D02*
X135238095Y-152798628D01*
X135238095Y-152798628D02*
X135285714Y-152846247D01*
X135285714Y-152846247D02*
X135380952Y-152893866D01*
X135380952Y-152893866D02*
X135571428Y-152893866D01*
X135571428Y-152893866D02*
X135666666Y-152846247D01*
X135666666Y-152846247D02*
X135714285Y-152798628D01*
X135714285Y-152798628D02*
X135761904Y-152703390D01*
D11*
X132960237Y-183974318D02*
X132960237Y-182704318D01*
X134290714Y-183853365D02*
X134230238Y-183913842D01*
X134230238Y-183913842D02*
X134048809Y-183974318D01*
X134048809Y-183974318D02*
X133927857Y-183974318D01*
X133927857Y-183974318D02*
X133746428Y-183913842D01*
X133746428Y-183913842D02*
X133625476Y-183792889D01*
X133625476Y-183792889D02*
X133564999Y-183671937D01*
X133564999Y-183671937D02*
X133504523Y-183430032D01*
X133504523Y-183430032D02*
X133504523Y-183248603D01*
X133504523Y-183248603D02*
X133564999Y-183006699D01*
X133564999Y-183006699D02*
X133625476Y-182885746D01*
X133625476Y-182885746D02*
X133746428Y-182764794D01*
X133746428Y-182764794D02*
X133927857Y-182704318D01*
X133927857Y-182704318D02*
X134048809Y-182704318D01*
X134048809Y-182704318D02*
X134230238Y-182764794D01*
X134230238Y-182764794D02*
X134290714Y-182825270D01*
X134714047Y-182704318D02*
X135500238Y-182704318D01*
X135500238Y-182704318D02*
X135076904Y-183188127D01*
X135076904Y-183188127D02*
X135258333Y-183188127D01*
X135258333Y-183188127D02*
X135379285Y-183248603D01*
X135379285Y-183248603D02*
X135439761Y-183309080D01*
X135439761Y-183309080D02*
X135500238Y-183430032D01*
X135500238Y-183430032D02*
X135500238Y-183732413D01*
X135500238Y-183732413D02*
X135439761Y-183853365D01*
X135439761Y-183853365D02*
X135379285Y-183913842D01*
X135379285Y-183913842D02*
X135258333Y-183974318D01*
X135258333Y-183974318D02*
X134895476Y-183974318D01*
X134895476Y-183974318D02*
X134774523Y-183913842D01*
X134774523Y-183913842D02*
X134714047Y-183853365D01*
X152179047Y-166795270D02*
X152058095Y-166734794D01*
X152058095Y-166734794D02*
X151937142Y-166613842D01*
X151937142Y-166613842D02*
X151755714Y-166432413D01*
X151755714Y-166432413D02*
X151634761Y-166371937D01*
X151634761Y-166371937D02*
X151513809Y-166371937D01*
X151574285Y-166674318D02*
X151453333Y-166613842D01*
X151453333Y-166613842D02*
X151332380Y-166492889D01*
X151332380Y-166492889D02*
X151271904Y-166250984D01*
X151271904Y-166250984D02*
X151271904Y-165827651D01*
X151271904Y-165827651D02*
X151332380Y-165585746D01*
X151332380Y-165585746D02*
X151453333Y-165464794D01*
X151453333Y-165464794D02*
X151574285Y-165404318D01*
X151574285Y-165404318D02*
X151816190Y-165404318D01*
X151816190Y-165404318D02*
X151937142Y-165464794D01*
X151937142Y-165464794D02*
X152058095Y-165585746D01*
X152058095Y-165585746D02*
X152118571Y-165827651D01*
X152118571Y-165827651D02*
X152118571Y-166250984D01*
X152118571Y-166250984D02*
X152058095Y-166492889D01*
X152058095Y-166492889D02*
X151937142Y-166613842D01*
X151937142Y-166613842D02*
X151816190Y-166674318D01*
X151816190Y-166674318D02*
X151574285Y-166674318D01*
X153328095Y-166674318D02*
X152602380Y-166674318D01*
X152965237Y-166674318D02*
X152965237Y-165404318D01*
X152965237Y-165404318D02*
X152844285Y-165585746D01*
X152844285Y-165585746D02*
X152723333Y-165706699D01*
X152723333Y-165706699D02*
X152602380Y-165767175D01*
X147138333Y-176053365D02*
X147077857Y-176113842D01*
X147077857Y-176113842D02*
X146896428Y-176174318D01*
X146896428Y-176174318D02*
X146775476Y-176174318D01*
X146775476Y-176174318D02*
X146594047Y-176113842D01*
X146594047Y-176113842D02*
X146473095Y-175992889D01*
X146473095Y-175992889D02*
X146412618Y-175871937D01*
X146412618Y-175871937D02*
X146352142Y-175630032D01*
X146352142Y-175630032D02*
X146352142Y-175448603D01*
X146352142Y-175448603D02*
X146412618Y-175206699D01*
X146412618Y-175206699D02*
X146473095Y-175085746D01*
X146473095Y-175085746D02*
X146594047Y-174964794D01*
X146594047Y-174964794D02*
X146775476Y-174904318D01*
X146775476Y-174904318D02*
X146896428Y-174904318D01*
X146896428Y-174904318D02*
X147077857Y-174964794D01*
X147077857Y-174964794D02*
X147138333Y-175025270D01*
X147743095Y-176174318D02*
X147984999Y-176174318D01*
X147984999Y-176174318D02*
X148105952Y-176113842D01*
X148105952Y-176113842D02*
X148166428Y-176053365D01*
X148166428Y-176053365D02*
X148287380Y-175871937D01*
X148287380Y-175871937D02*
X148347857Y-175630032D01*
X148347857Y-175630032D02*
X148347857Y-175146222D01*
X148347857Y-175146222D02*
X148287380Y-175025270D01*
X148287380Y-175025270D02*
X148226904Y-174964794D01*
X148226904Y-174964794D02*
X148105952Y-174904318D01*
X148105952Y-174904318D02*
X147864047Y-174904318D01*
X147864047Y-174904318D02*
X147743095Y-174964794D01*
X147743095Y-174964794D02*
X147682618Y-175025270D01*
X147682618Y-175025270D02*
X147622142Y-175146222D01*
X147622142Y-175146222D02*
X147622142Y-175448603D01*
X147622142Y-175448603D02*
X147682618Y-175569556D01*
X147682618Y-175569556D02*
X147743095Y-175630032D01*
X147743095Y-175630032D02*
X147864047Y-175690508D01*
X147864047Y-175690508D02*
X148105952Y-175690508D01*
X148105952Y-175690508D02*
X148226904Y-175630032D01*
X148226904Y-175630032D02*
X148287380Y-175569556D01*
X148287380Y-175569556D02*
X148347857Y-175448603D01*
D12*
X88284819Y-120458094D02*
X87284819Y-120458094D01*
X87284819Y-120458094D02*
X87284819Y-120219999D01*
X87284819Y-120219999D02*
X87332438Y-120077142D01*
X87332438Y-120077142D02*
X87427676Y-119981904D01*
X87427676Y-119981904D02*
X87522914Y-119934285D01*
X87522914Y-119934285D02*
X87713390Y-119886666D01*
X87713390Y-119886666D02*
X87856247Y-119886666D01*
X87856247Y-119886666D02*
X88046723Y-119934285D01*
X88046723Y-119934285D02*
X88141961Y-119981904D01*
X88141961Y-119981904D02*
X88237200Y-120077142D01*
X88237200Y-120077142D02*
X88284819Y-120219999D01*
X88284819Y-120219999D02*
X88284819Y-120458094D01*
X87284819Y-118981904D02*
X87284819Y-119458094D01*
X87284819Y-119458094D02*
X87761009Y-119505713D01*
X87761009Y-119505713D02*
X87713390Y-119458094D01*
X87713390Y-119458094D02*
X87665771Y-119362856D01*
X87665771Y-119362856D02*
X87665771Y-119124761D01*
X87665771Y-119124761D02*
X87713390Y-119029523D01*
X87713390Y-119029523D02*
X87761009Y-118981904D01*
X87761009Y-118981904D02*
X87856247Y-118934285D01*
X87856247Y-118934285D02*
X88094342Y-118934285D01*
X88094342Y-118934285D02*
X88189580Y-118981904D01*
X88189580Y-118981904D02*
X88237200Y-119029523D01*
X88237200Y-119029523D02*
X88284819Y-119124761D01*
X88284819Y-119124761D02*
X88284819Y-119362856D01*
X88284819Y-119362856D02*
X88237200Y-119458094D01*
X88237200Y-119458094D02*
X88189580Y-119505713D01*
D11*
X137762618Y-168674318D02*
X137762618Y-167404318D01*
X137762618Y-167404318D02*
X138064999Y-167404318D01*
X138064999Y-167404318D02*
X138246428Y-167464794D01*
X138246428Y-167464794D02*
X138367380Y-167585746D01*
X138367380Y-167585746D02*
X138427857Y-167706699D01*
X138427857Y-167706699D02*
X138488333Y-167948603D01*
X138488333Y-167948603D02*
X138488333Y-168130032D01*
X138488333Y-168130032D02*
X138427857Y-168371937D01*
X138427857Y-168371937D02*
X138367380Y-168492889D01*
X138367380Y-168492889D02*
X138246428Y-168613842D01*
X138246428Y-168613842D02*
X138064999Y-168674318D01*
X138064999Y-168674318D02*
X137762618Y-168674318D01*
X138911666Y-167404318D02*
X139697857Y-167404318D01*
X139697857Y-167404318D02*
X139274523Y-167888127D01*
X139274523Y-167888127D02*
X139455952Y-167888127D01*
X139455952Y-167888127D02*
X139576904Y-167948603D01*
X139576904Y-167948603D02*
X139637380Y-168009080D01*
X139637380Y-168009080D02*
X139697857Y-168130032D01*
X139697857Y-168130032D02*
X139697857Y-168432413D01*
X139697857Y-168432413D02*
X139637380Y-168553365D01*
X139637380Y-168553365D02*
X139576904Y-168613842D01*
X139576904Y-168613842D02*
X139455952Y-168674318D01*
X139455952Y-168674318D02*
X139093095Y-168674318D01*
X139093095Y-168674318D02*
X138972142Y-168613842D01*
X138972142Y-168613842D02*
X138911666Y-168553365D01*
X112060237Y-154774318D02*
X112060237Y-153504318D01*
X113390714Y-154653365D02*
X113330238Y-154713842D01*
X113330238Y-154713842D02*
X113148809Y-154774318D01*
X113148809Y-154774318D02*
X113027857Y-154774318D01*
X113027857Y-154774318D02*
X112846428Y-154713842D01*
X112846428Y-154713842D02*
X112725476Y-154592889D01*
X112725476Y-154592889D02*
X112664999Y-154471937D01*
X112664999Y-154471937D02*
X112604523Y-154230032D01*
X112604523Y-154230032D02*
X112604523Y-154048603D01*
X112604523Y-154048603D02*
X112664999Y-153806699D01*
X112664999Y-153806699D02*
X112725476Y-153685746D01*
X112725476Y-153685746D02*
X112846428Y-153564794D01*
X112846428Y-153564794D02*
X113027857Y-153504318D01*
X113027857Y-153504318D02*
X113148809Y-153504318D01*
X113148809Y-153504318D02*
X113330238Y-153564794D01*
X113330238Y-153564794D02*
X113390714Y-153625270D01*
X114479285Y-153504318D02*
X114237380Y-153504318D01*
X114237380Y-153504318D02*
X114116428Y-153564794D01*
X114116428Y-153564794D02*
X114055952Y-153625270D01*
X114055952Y-153625270D02*
X113934999Y-153806699D01*
X113934999Y-153806699D02*
X113874523Y-154048603D01*
X113874523Y-154048603D02*
X113874523Y-154532413D01*
X113874523Y-154532413D02*
X113934999Y-154653365D01*
X113934999Y-154653365D02*
X113995476Y-154713842D01*
X113995476Y-154713842D02*
X114116428Y-154774318D01*
X114116428Y-154774318D02*
X114358333Y-154774318D01*
X114358333Y-154774318D02*
X114479285Y-154713842D01*
X114479285Y-154713842D02*
X114539761Y-154653365D01*
X114539761Y-154653365D02*
X114600238Y-154532413D01*
X114600238Y-154532413D02*
X114600238Y-154230032D01*
X114600238Y-154230032D02*
X114539761Y-154109080D01*
X114539761Y-154109080D02*
X114479285Y-154048603D01*
X114479285Y-154048603D02*
X114358333Y-153988127D01*
X114358333Y-153988127D02*
X114116428Y-153988127D01*
X114116428Y-153988127D02*
X113995476Y-154048603D01*
X113995476Y-154048603D02*
X113934999Y-154109080D01*
X113934999Y-154109080D02*
X113874523Y-154230032D01*
D12*
X115787754Y-146342857D02*
X115311563Y-146676190D01*
X115787754Y-146914285D02*
X114787754Y-146914285D01*
X114787754Y-146914285D02*
X114787754Y-146533333D01*
X114787754Y-146533333D02*
X114835373Y-146438095D01*
X114835373Y-146438095D02*
X114882992Y-146390476D01*
X114882992Y-146390476D02*
X114978230Y-146342857D01*
X114978230Y-146342857D02*
X115121087Y-146342857D01*
X115121087Y-146342857D02*
X115216325Y-146390476D01*
X115216325Y-146390476D02*
X115263944Y-146438095D01*
X115263944Y-146438095D02*
X115311563Y-146533333D01*
X115311563Y-146533333D02*
X115311563Y-146914285D01*
X114787754Y-146009523D02*
X114787754Y-145390476D01*
X114787754Y-145390476D02*
X115168706Y-145723809D01*
X115168706Y-145723809D02*
X115168706Y-145580952D01*
X115168706Y-145580952D02*
X115216325Y-145485714D01*
X115216325Y-145485714D02*
X115263944Y-145438095D01*
X115263944Y-145438095D02*
X115359182Y-145390476D01*
X115359182Y-145390476D02*
X115597277Y-145390476D01*
X115597277Y-145390476D02*
X115692515Y-145438095D01*
X115692515Y-145438095D02*
X115740135Y-145485714D01*
X115740135Y-145485714D02*
X115787754Y-145580952D01*
X115787754Y-145580952D02*
X115787754Y-145866666D01*
X115787754Y-145866666D02*
X115740135Y-145961904D01*
X115740135Y-145961904D02*
X115692515Y-146009523D01*
X115787754Y-144914285D02*
X115787754Y-144723809D01*
X115787754Y-144723809D02*
X115740135Y-144628571D01*
X115740135Y-144628571D02*
X115692515Y-144580952D01*
X115692515Y-144580952D02*
X115549658Y-144485714D01*
X115549658Y-144485714D02*
X115359182Y-144438095D01*
X115359182Y-144438095D02*
X114978230Y-144438095D01*
X114978230Y-144438095D02*
X114882992Y-144485714D01*
X114882992Y-144485714D02*
X114835373Y-144533333D01*
X114835373Y-144533333D02*
X114787754Y-144628571D01*
X114787754Y-144628571D02*
X114787754Y-144819047D01*
X114787754Y-144819047D02*
X114835373Y-144914285D01*
X114835373Y-144914285D02*
X114882992Y-144961904D01*
X114882992Y-144961904D02*
X114978230Y-145009523D01*
X114978230Y-145009523D02*
X115216325Y-145009523D01*
X115216325Y-145009523D02*
X115311563Y-144961904D01*
X115311563Y-144961904D02*
X115359182Y-144914285D01*
X115359182Y-144914285D02*
X115406801Y-144819047D01*
X115406801Y-144819047D02*
X115406801Y-144628571D01*
X115406801Y-144628571D02*
X115359182Y-144533333D01*
X115359182Y-144533333D02*
X115311563Y-144485714D01*
X115311563Y-144485714D02*
X115216325Y-144438095D01*
D11*
X155924318Y-116386428D02*
X155319556Y-116809762D01*
X155924318Y-117112143D02*
X154654318Y-117112143D01*
X154654318Y-117112143D02*
X154654318Y-116628333D01*
X154654318Y-116628333D02*
X154714794Y-116507381D01*
X154714794Y-116507381D02*
X154775270Y-116446904D01*
X154775270Y-116446904D02*
X154896222Y-116386428D01*
X154896222Y-116386428D02*
X155077651Y-116386428D01*
X155077651Y-116386428D02*
X155198603Y-116446904D01*
X155198603Y-116446904D02*
X155259080Y-116507381D01*
X155259080Y-116507381D02*
X155319556Y-116628333D01*
X155319556Y-116628333D02*
X155319556Y-117112143D01*
X154775270Y-115902619D02*
X154714794Y-115842143D01*
X154714794Y-115842143D02*
X154654318Y-115721190D01*
X154654318Y-115721190D02*
X154654318Y-115418809D01*
X154654318Y-115418809D02*
X154714794Y-115297857D01*
X154714794Y-115297857D02*
X154775270Y-115237381D01*
X154775270Y-115237381D02*
X154896222Y-115176904D01*
X154896222Y-115176904D02*
X155017175Y-115176904D01*
X155017175Y-115176904D02*
X155198603Y-115237381D01*
X155198603Y-115237381D02*
X155924318Y-115963095D01*
X155924318Y-115963095D02*
X155924318Y-115176904D01*
X154654318Y-114753571D02*
X154654318Y-113967380D01*
X154654318Y-113967380D02*
X155138127Y-114390714D01*
X155138127Y-114390714D02*
X155138127Y-114209285D01*
X155138127Y-114209285D02*
X155198603Y-114088333D01*
X155198603Y-114088333D02*
X155259080Y-114027857D01*
X155259080Y-114027857D02*
X155380032Y-113967380D01*
X155380032Y-113967380D02*
X155682413Y-113967380D01*
X155682413Y-113967380D02*
X155803365Y-114027857D01*
X155803365Y-114027857D02*
X155863842Y-114088333D01*
X155863842Y-114088333D02*
X155924318Y-114209285D01*
X155924318Y-114209285D02*
X155924318Y-114572142D01*
X155924318Y-114572142D02*
X155863842Y-114693095D01*
X155863842Y-114693095D02*
X155803365Y-114753571D01*
D12*
X143033333Y-161654819D02*
X142700000Y-161178628D01*
X142461905Y-161654819D02*
X142461905Y-160654819D01*
X142461905Y-160654819D02*
X142842857Y-160654819D01*
X142842857Y-160654819D02*
X142938095Y-160702438D01*
X142938095Y-160702438D02*
X142985714Y-160750057D01*
X142985714Y-160750057D02*
X143033333Y-160845295D01*
X143033333Y-160845295D02*
X143033333Y-160988152D01*
X143033333Y-160988152D02*
X142985714Y-161083390D01*
X142985714Y-161083390D02*
X142938095Y-161131009D01*
X142938095Y-161131009D02*
X142842857Y-161178628D01*
X142842857Y-161178628D02*
X142461905Y-161178628D01*
X143366667Y-160654819D02*
X143985714Y-160654819D01*
X143985714Y-160654819D02*
X143652381Y-161035771D01*
X143652381Y-161035771D02*
X143795238Y-161035771D01*
X143795238Y-161035771D02*
X143890476Y-161083390D01*
X143890476Y-161083390D02*
X143938095Y-161131009D01*
X143938095Y-161131009D02*
X143985714Y-161226247D01*
X143985714Y-161226247D02*
X143985714Y-161464342D01*
X143985714Y-161464342D02*
X143938095Y-161559580D01*
X143938095Y-161559580D02*
X143890476Y-161607200D01*
X143890476Y-161607200D02*
X143795238Y-161654819D01*
X143795238Y-161654819D02*
X143509524Y-161654819D01*
X143509524Y-161654819D02*
X143414286Y-161607200D01*
X143414286Y-161607200D02*
X143366667Y-161559580D01*
D11*
X157924318Y-165287381D02*
X156654318Y-165287381D01*
X156654318Y-165287381D02*
X156654318Y-164985000D01*
X156654318Y-164985000D02*
X156714794Y-164803571D01*
X156714794Y-164803571D02*
X156835746Y-164682619D01*
X156835746Y-164682619D02*
X156956699Y-164622142D01*
X156956699Y-164622142D02*
X157198603Y-164561666D01*
X157198603Y-164561666D02*
X157380032Y-164561666D01*
X157380032Y-164561666D02*
X157621937Y-164622142D01*
X157621937Y-164622142D02*
X157742889Y-164682619D01*
X157742889Y-164682619D02*
X157863842Y-164803571D01*
X157863842Y-164803571D02*
X157924318Y-164985000D01*
X157924318Y-164985000D02*
X157924318Y-165287381D01*
X157077651Y-163473095D02*
X157924318Y-163473095D01*
X156593842Y-163775476D02*
X157500984Y-164077857D01*
X157500984Y-164077857D02*
X157500984Y-163291666D01*
X129174318Y-186511666D02*
X129174318Y-187116428D01*
X129174318Y-187116428D02*
X127904318Y-187116428D01*
X128025270Y-186148809D02*
X127964794Y-186088333D01*
X127964794Y-186088333D02*
X127904318Y-185967380D01*
X127904318Y-185967380D02*
X127904318Y-185664999D01*
X127904318Y-185664999D02*
X127964794Y-185544047D01*
X127964794Y-185544047D02*
X128025270Y-185483571D01*
X128025270Y-185483571D02*
X128146222Y-185423094D01*
X128146222Y-185423094D02*
X128267175Y-185423094D01*
X128267175Y-185423094D02*
X128448603Y-185483571D01*
X128448603Y-185483571D02*
X129174318Y-186209285D01*
X129174318Y-186209285D02*
X129174318Y-185423094D01*
X111027253Y-146516428D02*
X110422491Y-146939762D01*
X111027253Y-147242143D02*
X109757253Y-147242143D01*
X109757253Y-147242143D02*
X109757253Y-146758333D01*
X109757253Y-146758333D02*
X109817729Y-146637381D01*
X109817729Y-146637381D02*
X109878205Y-146576904D01*
X109878205Y-146576904D02*
X109999157Y-146516428D01*
X109999157Y-146516428D02*
X110180586Y-146516428D01*
X110180586Y-146516428D02*
X110301538Y-146576904D01*
X110301538Y-146576904D02*
X110362015Y-146637381D01*
X110362015Y-146637381D02*
X110422491Y-146758333D01*
X110422491Y-146758333D02*
X110422491Y-147242143D01*
X109757253Y-146093095D02*
X109757253Y-145306904D01*
X109757253Y-145306904D02*
X110241062Y-145730238D01*
X110241062Y-145730238D02*
X110241062Y-145548809D01*
X110241062Y-145548809D02*
X110301538Y-145427857D01*
X110301538Y-145427857D02*
X110362015Y-145367381D01*
X110362015Y-145367381D02*
X110482967Y-145306904D01*
X110482967Y-145306904D02*
X110785348Y-145306904D01*
X110785348Y-145306904D02*
X110906300Y-145367381D01*
X110906300Y-145367381D02*
X110966777Y-145427857D01*
X110966777Y-145427857D02*
X111027253Y-145548809D01*
X111027253Y-145548809D02*
X111027253Y-145911666D01*
X111027253Y-145911666D02*
X110966777Y-146032619D01*
X110966777Y-146032619D02*
X110906300Y-146093095D01*
X110180586Y-144218333D02*
X111027253Y-144218333D01*
X109696777Y-144520714D02*
X110603919Y-144823095D01*
X110603919Y-144823095D02*
X110603919Y-144036904D01*
D12*
X150436905Y-187139819D02*
X150436905Y-186139819D01*
X150436905Y-186139819D02*
X150675000Y-186139819D01*
X150675000Y-186139819D02*
X150817857Y-186187438D01*
X150817857Y-186187438D02*
X150913095Y-186282676D01*
X150913095Y-186282676D02*
X150960714Y-186377914D01*
X150960714Y-186377914D02*
X151008333Y-186568390D01*
X151008333Y-186568390D02*
X151008333Y-186711247D01*
X151008333Y-186711247D02*
X150960714Y-186901723D01*
X150960714Y-186901723D02*
X150913095Y-186996961D01*
X150913095Y-186996961D02*
X150817857Y-187092200D01*
X150817857Y-187092200D02*
X150675000Y-187139819D01*
X150675000Y-187139819D02*
X150436905Y-187139819D01*
X151389286Y-186235057D02*
X151436905Y-186187438D01*
X151436905Y-186187438D02*
X151532143Y-186139819D01*
X151532143Y-186139819D02*
X151770238Y-186139819D01*
X151770238Y-186139819D02*
X151865476Y-186187438D01*
X151865476Y-186187438D02*
X151913095Y-186235057D01*
X151913095Y-186235057D02*
X151960714Y-186330295D01*
X151960714Y-186330295D02*
X151960714Y-186425533D01*
X151960714Y-186425533D02*
X151913095Y-186568390D01*
X151913095Y-186568390D02*
X151341667Y-187139819D01*
X151341667Y-187139819D02*
X151960714Y-187139819D01*
D11*
X151783571Y-163674318D02*
X151360237Y-163069556D01*
X151057856Y-163674318D02*
X151057856Y-162404318D01*
X151057856Y-162404318D02*
X151541666Y-162404318D01*
X151541666Y-162404318D02*
X151662618Y-162464794D01*
X151662618Y-162464794D02*
X151723095Y-162525270D01*
X151723095Y-162525270D02*
X151783571Y-162646222D01*
X151783571Y-162646222D02*
X151783571Y-162827651D01*
X151783571Y-162827651D02*
X151723095Y-162948603D01*
X151723095Y-162948603D02*
X151662618Y-163009080D01*
X151662618Y-163009080D02*
X151541666Y-163069556D01*
X151541666Y-163069556D02*
X151057856Y-163069556D01*
X152993095Y-163674318D02*
X152267380Y-163674318D01*
X152630237Y-163674318D02*
X152630237Y-162404318D01*
X152630237Y-162404318D02*
X152509285Y-162585746D01*
X152509285Y-162585746D02*
X152388333Y-162706699D01*
X152388333Y-162706699D02*
X152267380Y-162767175D01*
X153476904Y-162525270D02*
X153537380Y-162464794D01*
X153537380Y-162464794D02*
X153658333Y-162404318D01*
X153658333Y-162404318D02*
X153960714Y-162404318D01*
X153960714Y-162404318D02*
X154081666Y-162464794D01*
X154081666Y-162464794D02*
X154142142Y-162525270D01*
X154142142Y-162525270D02*
X154202619Y-162646222D01*
X154202619Y-162646222D02*
X154202619Y-162767175D01*
X154202619Y-162767175D02*
X154142142Y-162948603D01*
X154142142Y-162948603D02*
X153416428Y-163674318D01*
X153416428Y-163674318D02*
X154202619Y-163674318D01*
D12*
X138609580Y-114442857D02*
X138657200Y-114490476D01*
X138657200Y-114490476D02*
X138704819Y-114633333D01*
X138704819Y-114633333D02*
X138704819Y-114728571D01*
X138704819Y-114728571D02*
X138657200Y-114871428D01*
X138657200Y-114871428D02*
X138561961Y-114966666D01*
X138561961Y-114966666D02*
X138466723Y-115014285D01*
X138466723Y-115014285D02*
X138276247Y-115061904D01*
X138276247Y-115061904D02*
X138133390Y-115061904D01*
X138133390Y-115061904D02*
X137942914Y-115014285D01*
X137942914Y-115014285D02*
X137847676Y-114966666D01*
X137847676Y-114966666D02*
X137752438Y-114871428D01*
X137752438Y-114871428D02*
X137704819Y-114728571D01*
X137704819Y-114728571D02*
X137704819Y-114633333D01*
X137704819Y-114633333D02*
X137752438Y-114490476D01*
X137752438Y-114490476D02*
X137800057Y-114442857D01*
X138038152Y-113585714D02*
X138704819Y-113585714D01*
X137657200Y-113823809D02*
X138371485Y-114061904D01*
X138371485Y-114061904D02*
X138371485Y-113442857D01*
X137704819Y-113157142D02*
X137704819Y-112538095D01*
X137704819Y-112538095D02*
X138085771Y-112871428D01*
X138085771Y-112871428D02*
X138085771Y-112728571D01*
X138085771Y-112728571D02*
X138133390Y-112633333D01*
X138133390Y-112633333D02*
X138181009Y-112585714D01*
X138181009Y-112585714D02*
X138276247Y-112538095D01*
X138276247Y-112538095D02*
X138514342Y-112538095D01*
X138514342Y-112538095D02*
X138609580Y-112585714D01*
X138609580Y-112585714D02*
X138657200Y-112633333D01*
X138657200Y-112633333D02*
X138704819Y-112728571D01*
X138704819Y-112728571D02*
X138704819Y-113014285D01*
X138704819Y-113014285D02*
X138657200Y-113109523D01*
X138657200Y-113109523D02*
X138609580Y-113157142D01*
X132933333Y-175079580D02*
X132885714Y-175127200D01*
X132885714Y-175127200D02*
X132742857Y-175174819D01*
X132742857Y-175174819D02*
X132647619Y-175174819D01*
X132647619Y-175174819D02*
X132504762Y-175127200D01*
X132504762Y-175127200D02*
X132409524Y-175031961D01*
X132409524Y-175031961D02*
X132361905Y-174936723D01*
X132361905Y-174936723D02*
X132314286Y-174746247D01*
X132314286Y-174746247D02*
X132314286Y-174603390D01*
X132314286Y-174603390D02*
X132361905Y-174412914D01*
X132361905Y-174412914D02*
X132409524Y-174317676D01*
X132409524Y-174317676D02*
X132504762Y-174222438D01*
X132504762Y-174222438D02*
X132647619Y-174174819D01*
X132647619Y-174174819D02*
X132742857Y-174174819D01*
X132742857Y-174174819D02*
X132885714Y-174222438D01*
X132885714Y-174222438D02*
X132933333Y-174270057D01*
X133790476Y-174508152D02*
X133790476Y-175174819D01*
X133552381Y-174127200D02*
X133314286Y-174841485D01*
X133314286Y-174841485D02*
X133933333Y-174841485D01*
D11*
X100824318Y-187511666D02*
X100219556Y-187935000D01*
X100824318Y-188237381D02*
X99554318Y-188237381D01*
X99554318Y-188237381D02*
X99554318Y-187753571D01*
X99554318Y-187753571D02*
X99614794Y-187632619D01*
X99614794Y-187632619D02*
X99675270Y-187572142D01*
X99675270Y-187572142D02*
X99796222Y-187511666D01*
X99796222Y-187511666D02*
X99977651Y-187511666D01*
X99977651Y-187511666D02*
X100098603Y-187572142D01*
X100098603Y-187572142D02*
X100159080Y-187632619D01*
X100159080Y-187632619D02*
X100219556Y-187753571D01*
X100219556Y-187753571D02*
X100219556Y-188237381D01*
X100824318Y-186302142D02*
X100824318Y-187027857D01*
X100824318Y-186665000D02*
X99554318Y-186665000D01*
X99554318Y-186665000D02*
X99735746Y-186785952D01*
X99735746Y-186785952D02*
X99856699Y-186906904D01*
X99856699Y-186906904D02*
X99917175Y-187027857D01*
X155076667Y-188509080D02*
X154653333Y-188509080D01*
X154653333Y-189174318D02*
X154653333Y-187904318D01*
X154653333Y-187904318D02*
X155258095Y-187904318D01*
X155681428Y-188025270D02*
X155741904Y-187964794D01*
X155741904Y-187964794D02*
X155862857Y-187904318D01*
X155862857Y-187904318D02*
X156165238Y-187904318D01*
X156165238Y-187904318D02*
X156286190Y-187964794D01*
X156286190Y-187964794D02*
X156346666Y-188025270D01*
X156346666Y-188025270D02*
X156407143Y-188146222D01*
X156407143Y-188146222D02*
X156407143Y-188267175D01*
X156407143Y-188267175D02*
X156346666Y-188448603D01*
X156346666Y-188448603D02*
X155620952Y-189174318D01*
X155620952Y-189174318D02*
X156407143Y-189174318D01*
X134588333Y-193493365D02*
X134527857Y-193553842D01*
X134527857Y-193553842D02*
X134346428Y-193614318D01*
X134346428Y-193614318D02*
X134225476Y-193614318D01*
X134225476Y-193614318D02*
X134044047Y-193553842D01*
X134044047Y-193553842D02*
X133923095Y-193432889D01*
X133923095Y-193432889D02*
X133862618Y-193311937D01*
X133862618Y-193311937D02*
X133802142Y-193070032D01*
X133802142Y-193070032D02*
X133802142Y-192888603D01*
X133802142Y-192888603D02*
X133862618Y-192646699D01*
X133862618Y-192646699D02*
X133923095Y-192525746D01*
X133923095Y-192525746D02*
X134044047Y-192404794D01*
X134044047Y-192404794D02*
X134225476Y-192344318D01*
X134225476Y-192344318D02*
X134346428Y-192344318D01*
X134346428Y-192344318D02*
X134527857Y-192404794D01*
X134527857Y-192404794D02*
X134588333Y-192465270D01*
X135676904Y-192344318D02*
X135434999Y-192344318D01*
X135434999Y-192344318D02*
X135314047Y-192404794D01*
X135314047Y-192404794D02*
X135253571Y-192465270D01*
X135253571Y-192465270D02*
X135132618Y-192646699D01*
X135132618Y-192646699D02*
X135072142Y-192888603D01*
X135072142Y-192888603D02*
X135072142Y-193372413D01*
X135072142Y-193372413D02*
X135132618Y-193493365D01*
X135132618Y-193493365D02*
X135193095Y-193553842D01*
X135193095Y-193553842D02*
X135314047Y-193614318D01*
X135314047Y-193614318D02*
X135555952Y-193614318D01*
X135555952Y-193614318D02*
X135676904Y-193553842D01*
X135676904Y-193553842D02*
X135737380Y-193493365D01*
X135737380Y-193493365D02*
X135797857Y-193372413D01*
X135797857Y-193372413D02*
X135797857Y-193070032D01*
X135797857Y-193070032D02*
X135737380Y-192949080D01*
X135737380Y-192949080D02*
X135676904Y-192888603D01*
X135676904Y-192888603D02*
X135555952Y-192828127D01*
X135555952Y-192828127D02*
X135314047Y-192828127D01*
X135314047Y-192828127D02*
X135193095Y-192888603D01*
X135193095Y-192888603D02*
X135132618Y-192949080D01*
X135132618Y-192949080D02*
X135072142Y-193070032D01*
X114576667Y-193254318D02*
X114576667Y-194161461D01*
X114576667Y-194161461D02*
X114516190Y-194342889D01*
X114516190Y-194342889D02*
X114395238Y-194463842D01*
X114395238Y-194463842D02*
X114213809Y-194524318D01*
X114213809Y-194524318D02*
X114092857Y-194524318D01*
X115786190Y-193254318D02*
X115181428Y-193254318D01*
X115181428Y-193254318D02*
X115120952Y-193859080D01*
X115120952Y-193859080D02*
X115181428Y-193798603D01*
X115181428Y-193798603D02*
X115302381Y-193738127D01*
X115302381Y-193738127D02*
X115604762Y-193738127D01*
X115604762Y-193738127D02*
X115725714Y-193798603D01*
X115725714Y-193798603D02*
X115786190Y-193859080D01*
X115786190Y-193859080D02*
X115846667Y-193980032D01*
X115846667Y-193980032D02*
X115846667Y-194282413D01*
X115846667Y-194282413D02*
X115786190Y-194403365D01*
X115786190Y-194403365D02*
X115725714Y-194463842D01*
X115725714Y-194463842D02*
X115604762Y-194524318D01*
X115604762Y-194524318D02*
X115302381Y-194524318D01*
X115302381Y-194524318D02*
X115181428Y-194463842D01*
X115181428Y-194463842D02*
X115120952Y-194403365D01*
X116327253Y-146416428D02*
X115722491Y-146839762D01*
X116327253Y-147142143D02*
X115057253Y-147142143D01*
X115057253Y-147142143D02*
X115057253Y-146658333D01*
X115057253Y-146658333D02*
X115117729Y-146537381D01*
X115117729Y-146537381D02*
X115178205Y-146476904D01*
X115178205Y-146476904D02*
X115299157Y-146416428D01*
X115299157Y-146416428D02*
X115480586Y-146416428D01*
X115480586Y-146416428D02*
X115601538Y-146476904D01*
X115601538Y-146476904D02*
X115662015Y-146537381D01*
X115662015Y-146537381D02*
X115722491Y-146658333D01*
X115722491Y-146658333D02*
X115722491Y-147142143D01*
X115057253Y-145993095D02*
X115057253Y-145206904D01*
X115057253Y-145206904D02*
X115541062Y-145630238D01*
X115541062Y-145630238D02*
X115541062Y-145448809D01*
X115541062Y-145448809D02*
X115601538Y-145327857D01*
X115601538Y-145327857D02*
X115662015Y-145267381D01*
X115662015Y-145267381D02*
X115782967Y-145206904D01*
X115782967Y-145206904D02*
X116085348Y-145206904D01*
X116085348Y-145206904D02*
X116206300Y-145267381D01*
X116206300Y-145267381D02*
X116266777Y-145327857D01*
X116266777Y-145327857D02*
X116327253Y-145448809D01*
X116327253Y-145448809D02*
X116327253Y-145811666D01*
X116327253Y-145811666D02*
X116266777Y-145932619D01*
X116266777Y-145932619D02*
X116206300Y-145993095D01*
X115057253Y-144057857D02*
X115057253Y-144662619D01*
X115057253Y-144662619D02*
X115662015Y-144723095D01*
X115662015Y-144723095D02*
X115601538Y-144662619D01*
X115601538Y-144662619D02*
X115541062Y-144541666D01*
X115541062Y-144541666D02*
X115541062Y-144239285D01*
X115541062Y-144239285D02*
X115601538Y-144118333D01*
X115601538Y-144118333D02*
X115662015Y-144057857D01*
X115662015Y-144057857D02*
X115782967Y-143997380D01*
X115782967Y-143997380D02*
X116085348Y-143997380D01*
X116085348Y-143997380D02*
X116206300Y-144057857D01*
X116206300Y-144057857D02*
X116266777Y-144118333D01*
X116266777Y-144118333D02*
X116327253Y-144239285D01*
X116327253Y-144239285D02*
X116327253Y-144541666D01*
X116327253Y-144541666D02*
X116266777Y-144662619D01*
X116266777Y-144662619D02*
X116206300Y-144723095D01*
D12*
X110847754Y-163792857D02*
X110371563Y-164126190D01*
X110847754Y-164364285D02*
X109847754Y-164364285D01*
X109847754Y-164364285D02*
X109847754Y-163983333D01*
X109847754Y-163983333D02*
X109895373Y-163888095D01*
X109895373Y-163888095D02*
X109942992Y-163840476D01*
X109942992Y-163840476D02*
X110038230Y-163792857D01*
X110038230Y-163792857D02*
X110181087Y-163792857D01*
X110181087Y-163792857D02*
X110276325Y-163840476D01*
X110276325Y-163840476D02*
X110323944Y-163888095D01*
X110323944Y-163888095D02*
X110371563Y-163983333D01*
X110371563Y-163983333D02*
X110371563Y-164364285D01*
X109942992Y-163411904D02*
X109895373Y-163364285D01*
X109895373Y-163364285D02*
X109847754Y-163269047D01*
X109847754Y-163269047D02*
X109847754Y-163030952D01*
X109847754Y-163030952D02*
X109895373Y-162935714D01*
X109895373Y-162935714D02*
X109942992Y-162888095D01*
X109942992Y-162888095D02*
X110038230Y-162840476D01*
X110038230Y-162840476D02*
X110133468Y-162840476D01*
X110133468Y-162840476D02*
X110276325Y-162888095D01*
X110276325Y-162888095D02*
X110847754Y-163459523D01*
X110847754Y-163459523D02*
X110847754Y-162840476D01*
X110847754Y-162364285D02*
X110847754Y-162173809D01*
X110847754Y-162173809D02*
X110800135Y-162078571D01*
X110800135Y-162078571D02*
X110752515Y-162030952D01*
X110752515Y-162030952D02*
X110609658Y-161935714D01*
X110609658Y-161935714D02*
X110419182Y-161888095D01*
X110419182Y-161888095D02*
X110038230Y-161888095D01*
X110038230Y-161888095D02*
X109942992Y-161935714D01*
X109942992Y-161935714D02*
X109895373Y-161983333D01*
X109895373Y-161983333D02*
X109847754Y-162078571D01*
X109847754Y-162078571D02*
X109847754Y-162269047D01*
X109847754Y-162269047D02*
X109895373Y-162364285D01*
X109895373Y-162364285D02*
X109942992Y-162411904D01*
X109942992Y-162411904D02*
X110038230Y-162459523D01*
X110038230Y-162459523D02*
X110276325Y-162459523D01*
X110276325Y-162459523D02*
X110371563Y-162411904D01*
X110371563Y-162411904D02*
X110419182Y-162364285D01*
X110419182Y-162364285D02*
X110466801Y-162269047D01*
X110466801Y-162269047D02*
X110466801Y-162078571D01*
X110466801Y-162078571D02*
X110419182Y-161983333D01*
X110419182Y-161983333D02*
X110371563Y-161935714D01*
X110371563Y-161935714D02*
X110276325Y-161888095D01*
D11*
X160774318Y-110141428D02*
X160169556Y-110564762D01*
X160774318Y-110867143D02*
X159504318Y-110867143D01*
X159504318Y-110867143D02*
X159504318Y-110383333D01*
X159504318Y-110383333D02*
X159564794Y-110262381D01*
X159564794Y-110262381D02*
X159625270Y-110201904D01*
X159625270Y-110201904D02*
X159746222Y-110141428D01*
X159746222Y-110141428D02*
X159927651Y-110141428D01*
X159927651Y-110141428D02*
X160048603Y-110201904D01*
X160048603Y-110201904D02*
X160109080Y-110262381D01*
X160109080Y-110262381D02*
X160169556Y-110383333D01*
X160169556Y-110383333D02*
X160169556Y-110867143D01*
X160774318Y-108931904D02*
X160774318Y-109657619D01*
X160774318Y-109294762D02*
X159504318Y-109294762D01*
X159504318Y-109294762D02*
X159685746Y-109415714D01*
X159685746Y-109415714D02*
X159806699Y-109536666D01*
X159806699Y-109536666D02*
X159867175Y-109657619D01*
X159927651Y-107843333D02*
X160774318Y-107843333D01*
X159443842Y-108145714D02*
X160350984Y-108448095D01*
X160350984Y-108448095D02*
X160350984Y-107661904D01*
D12*
X114504819Y-186308094D02*
X113504819Y-186308094D01*
X113504819Y-186308094D02*
X113504819Y-186069999D01*
X113504819Y-186069999D02*
X113552438Y-185927142D01*
X113552438Y-185927142D02*
X113647676Y-185831904D01*
X113647676Y-185831904D02*
X113742914Y-185784285D01*
X113742914Y-185784285D02*
X113933390Y-185736666D01*
X113933390Y-185736666D02*
X114076247Y-185736666D01*
X114076247Y-185736666D02*
X114266723Y-185784285D01*
X114266723Y-185784285D02*
X114361961Y-185831904D01*
X114361961Y-185831904D02*
X114457200Y-185927142D01*
X114457200Y-185927142D02*
X114504819Y-186069999D01*
X114504819Y-186069999D02*
X114504819Y-186308094D01*
X113504819Y-184879523D02*
X113504819Y-185069999D01*
X113504819Y-185069999D02*
X113552438Y-185165237D01*
X113552438Y-185165237D02*
X113600057Y-185212856D01*
X113600057Y-185212856D02*
X113742914Y-185308094D01*
X113742914Y-185308094D02*
X113933390Y-185355713D01*
X113933390Y-185355713D02*
X114314342Y-185355713D01*
X114314342Y-185355713D02*
X114409580Y-185308094D01*
X114409580Y-185308094D02*
X114457200Y-185260475D01*
X114457200Y-185260475D02*
X114504819Y-185165237D01*
X114504819Y-185165237D02*
X114504819Y-184974761D01*
X114504819Y-184974761D02*
X114457200Y-184879523D01*
X114457200Y-184879523D02*
X114409580Y-184831904D01*
X114409580Y-184831904D02*
X114314342Y-184784285D01*
X114314342Y-184784285D02*
X114076247Y-184784285D01*
X114076247Y-184784285D02*
X113981009Y-184831904D01*
X113981009Y-184831904D02*
X113933390Y-184879523D01*
X113933390Y-184879523D02*
X113885771Y-184974761D01*
X113885771Y-184974761D02*
X113885771Y-185165237D01*
X113885771Y-185165237D02*
X113933390Y-185260475D01*
X113933390Y-185260475D02*
X113981009Y-185308094D01*
X113981009Y-185308094D02*
X114076247Y-185355713D01*
X113607142Y-157324819D02*
X113273809Y-156848628D01*
X113035714Y-157324819D02*
X113035714Y-156324819D01*
X113035714Y-156324819D02*
X113416666Y-156324819D01*
X113416666Y-156324819D02*
X113511904Y-156372438D01*
X113511904Y-156372438D02*
X113559523Y-156420057D01*
X113559523Y-156420057D02*
X113607142Y-156515295D01*
X113607142Y-156515295D02*
X113607142Y-156658152D01*
X113607142Y-156658152D02*
X113559523Y-156753390D01*
X113559523Y-156753390D02*
X113511904Y-156801009D01*
X113511904Y-156801009D02*
X113416666Y-156848628D01*
X113416666Y-156848628D02*
X113035714Y-156848628D01*
X113940476Y-156324819D02*
X114559523Y-156324819D01*
X114559523Y-156324819D02*
X114226190Y-156705771D01*
X114226190Y-156705771D02*
X114369047Y-156705771D01*
X114369047Y-156705771D02*
X114464285Y-156753390D01*
X114464285Y-156753390D02*
X114511904Y-156801009D01*
X114511904Y-156801009D02*
X114559523Y-156896247D01*
X114559523Y-156896247D02*
X114559523Y-157134342D01*
X114559523Y-157134342D02*
X114511904Y-157229580D01*
X114511904Y-157229580D02*
X114464285Y-157277200D01*
X114464285Y-157277200D02*
X114369047Y-157324819D01*
X114369047Y-157324819D02*
X114083333Y-157324819D01*
X114083333Y-157324819D02*
X113988095Y-157277200D01*
X113988095Y-157277200D02*
X113940476Y-157229580D01*
X114940476Y-156420057D02*
X114988095Y-156372438D01*
X114988095Y-156372438D02*
X115083333Y-156324819D01*
X115083333Y-156324819D02*
X115321428Y-156324819D01*
X115321428Y-156324819D02*
X115416666Y-156372438D01*
X115416666Y-156372438D02*
X115464285Y-156420057D01*
X115464285Y-156420057D02*
X115511904Y-156515295D01*
X115511904Y-156515295D02*
X115511904Y-156610533D01*
X115511904Y-156610533D02*
X115464285Y-156753390D01*
X115464285Y-156753390D02*
X114892857Y-157324819D01*
X114892857Y-157324819D02*
X115511904Y-157324819D01*
D11*
X106227253Y-154287381D02*
X104957253Y-154287381D01*
X104957253Y-154287381D02*
X104957253Y-153985000D01*
X104957253Y-153985000D02*
X105017729Y-153803571D01*
X105017729Y-153803571D02*
X105138681Y-153682619D01*
X105138681Y-153682619D02*
X105259634Y-153622142D01*
X105259634Y-153622142D02*
X105501538Y-153561666D01*
X105501538Y-153561666D02*
X105682967Y-153561666D01*
X105682967Y-153561666D02*
X105924872Y-153622142D01*
X105924872Y-153622142D02*
X106045824Y-153682619D01*
X106045824Y-153682619D02*
X106166777Y-153803571D01*
X106166777Y-153803571D02*
X106227253Y-153985000D01*
X106227253Y-153985000D02*
X106227253Y-154287381D01*
X105501538Y-152835952D02*
X105441062Y-152956904D01*
X105441062Y-152956904D02*
X105380586Y-153017381D01*
X105380586Y-153017381D02*
X105259634Y-153077857D01*
X105259634Y-153077857D02*
X105199157Y-153077857D01*
X105199157Y-153077857D02*
X105078205Y-153017381D01*
X105078205Y-153017381D02*
X105017729Y-152956904D01*
X105017729Y-152956904D02*
X104957253Y-152835952D01*
X104957253Y-152835952D02*
X104957253Y-152594047D01*
X104957253Y-152594047D02*
X105017729Y-152473095D01*
X105017729Y-152473095D02*
X105078205Y-152412619D01*
X105078205Y-152412619D02*
X105199157Y-152352142D01*
X105199157Y-152352142D02*
X105259634Y-152352142D01*
X105259634Y-152352142D02*
X105380586Y-152412619D01*
X105380586Y-152412619D02*
X105441062Y-152473095D01*
X105441062Y-152473095D02*
X105501538Y-152594047D01*
X105501538Y-152594047D02*
X105501538Y-152835952D01*
X105501538Y-152835952D02*
X105562015Y-152956904D01*
X105562015Y-152956904D02*
X105622491Y-153017381D01*
X105622491Y-153017381D02*
X105743443Y-153077857D01*
X105743443Y-153077857D02*
X105985348Y-153077857D01*
X105985348Y-153077857D02*
X106106300Y-153017381D01*
X106106300Y-153017381D02*
X106166777Y-152956904D01*
X106166777Y-152956904D02*
X106227253Y-152835952D01*
X106227253Y-152835952D02*
X106227253Y-152594047D01*
X106227253Y-152594047D02*
X106166777Y-152473095D01*
X106166777Y-152473095D02*
X106106300Y-152412619D01*
X106106300Y-152412619D02*
X105985348Y-152352142D01*
X105985348Y-152352142D02*
X105743443Y-152352142D01*
X105743443Y-152352142D02*
X105622491Y-152412619D01*
X105622491Y-152412619D02*
X105562015Y-152473095D01*
X105562015Y-152473095D02*
X105501538Y-152594047D01*
D12*
X106431905Y-168524819D02*
X106431905Y-167524819D01*
X106431905Y-167524819D02*
X106670000Y-167524819D01*
X106670000Y-167524819D02*
X106812857Y-167572438D01*
X106812857Y-167572438D02*
X106908095Y-167667676D01*
X106908095Y-167667676D02*
X106955714Y-167762914D01*
X106955714Y-167762914D02*
X107003333Y-167953390D01*
X107003333Y-167953390D02*
X107003333Y-168096247D01*
X107003333Y-168096247D02*
X106955714Y-168286723D01*
X106955714Y-168286723D02*
X106908095Y-168381961D01*
X106908095Y-168381961D02*
X106812857Y-168477200D01*
X106812857Y-168477200D02*
X106670000Y-168524819D01*
X106670000Y-168524819D02*
X106431905Y-168524819D01*
X107336667Y-167524819D02*
X108003333Y-167524819D01*
X108003333Y-167524819D02*
X107574762Y-168524819D01*
D11*
X145974318Y-185837381D02*
X144704318Y-185837381D01*
X144704318Y-185837381D02*
X144704318Y-185535000D01*
X144704318Y-185535000D02*
X144764794Y-185353571D01*
X144764794Y-185353571D02*
X144885746Y-185232619D01*
X144885746Y-185232619D02*
X145006699Y-185172142D01*
X145006699Y-185172142D02*
X145248603Y-185111666D01*
X145248603Y-185111666D02*
X145430032Y-185111666D01*
X145430032Y-185111666D02*
X145671937Y-185172142D01*
X145671937Y-185172142D02*
X145792889Y-185232619D01*
X145792889Y-185232619D02*
X145913842Y-185353571D01*
X145913842Y-185353571D02*
X145974318Y-185535000D01*
X145974318Y-185535000D02*
X145974318Y-185837381D01*
X145974318Y-183902142D02*
X145974318Y-184627857D01*
X145974318Y-184265000D02*
X144704318Y-184265000D01*
X144704318Y-184265000D02*
X144885746Y-184385952D01*
X144885746Y-184385952D02*
X145006699Y-184506904D01*
X145006699Y-184506904D02*
X145067175Y-184627857D01*
X150583571Y-110134318D02*
X150160237Y-109529556D01*
X149857856Y-110134318D02*
X149857856Y-108864318D01*
X149857856Y-108864318D02*
X150341666Y-108864318D01*
X150341666Y-108864318D02*
X150462618Y-108924794D01*
X150462618Y-108924794D02*
X150523095Y-108985270D01*
X150523095Y-108985270D02*
X150583571Y-109106222D01*
X150583571Y-109106222D02*
X150583571Y-109287651D01*
X150583571Y-109287651D02*
X150523095Y-109408603D01*
X150523095Y-109408603D02*
X150462618Y-109469080D01*
X150462618Y-109469080D02*
X150341666Y-109529556D01*
X150341666Y-109529556D02*
X149857856Y-109529556D01*
X151067380Y-108985270D02*
X151127856Y-108924794D01*
X151127856Y-108924794D02*
X151248809Y-108864318D01*
X151248809Y-108864318D02*
X151551190Y-108864318D01*
X151551190Y-108864318D02*
X151672142Y-108924794D01*
X151672142Y-108924794D02*
X151732618Y-108985270D01*
X151732618Y-108985270D02*
X151793095Y-109106222D01*
X151793095Y-109106222D02*
X151793095Y-109227175D01*
X151793095Y-109227175D02*
X151732618Y-109408603D01*
X151732618Y-109408603D02*
X151006904Y-110134318D01*
X151006904Y-110134318D02*
X151793095Y-110134318D01*
X153002619Y-110134318D02*
X152276904Y-110134318D01*
X152639761Y-110134318D02*
X152639761Y-108864318D01*
X152639761Y-108864318D02*
X152518809Y-109045746D01*
X152518809Y-109045746D02*
X152397857Y-109166699D01*
X152397857Y-109166699D02*
X152276904Y-109227175D01*
D12*
X121837754Y-150345357D02*
X121361563Y-150678690D01*
X121837754Y-150916785D02*
X120837754Y-150916785D01*
X120837754Y-150916785D02*
X120837754Y-150535833D01*
X120837754Y-150535833D02*
X120885373Y-150440595D01*
X120885373Y-150440595D02*
X120932992Y-150392976D01*
X120932992Y-150392976D02*
X121028230Y-150345357D01*
X121028230Y-150345357D02*
X121171087Y-150345357D01*
X121171087Y-150345357D02*
X121266325Y-150392976D01*
X121266325Y-150392976D02*
X121313944Y-150440595D01*
X121313944Y-150440595D02*
X121361563Y-150535833D01*
X121361563Y-150535833D02*
X121361563Y-150916785D01*
X120837754Y-150012023D02*
X120837754Y-149392976D01*
X120837754Y-149392976D02*
X121218706Y-149726309D01*
X121218706Y-149726309D02*
X121218706Y-149583452D01*
X121218706Y-149583452D02*
X121266325Y-149488214D01*
X121266325Y-149488214D02*
X121313944Y-149440595D01*
X121313944Y-149440595D02*
X121409182Y-149392976D01*
X121409182Y-149392976D02*
X121647277Y-149392976D01*
X121647277Y-149392976D02*
X121742515Y-149440595D01*
X121742515Y-149440595D02*
X121790135Y-149488214D01*
X121790135Y-149488214D02*
X121837754Y-149583452D01*
X121837754Y-149583452D02*
X121837754Y-149869166D01*
X121837754Y-149869166D02*
X121790135Y-149964404D01*
X121790135Y-149964404D02*
X121742515Y-150012023D01*
X120837754Y-148535833D02*
X120837754Y-148726309D01*
X120837754Y-148726309D02*
X120885373Y-148821547D01*
X120885373Y-148821547D02*
X120932992Y-148869166D01*
X120932992Y-148869166D02*
X121075849Y-148964404D01*
X121075849Y-148964404D02*
X121266325Y-149012023D01*
X121266325Y-149012023D02*
X121647277Y-149012023D01*
X121647277Y-149012023D02*
X121742515Y-148964404D01*
X121742515Y-148964404D02*
X121790135Y-148916785D01*
X121790135Y-148916785D02*
X121837754Y-148821547D01*
X121837754Y-148821547D02*
X121837754Y-148631071D01*
X121837754Y-148631071D02*
X121790135Y-148535833D01*
X121790135Y-148535833D02*
X121742515Y-148488214D01*
X121742515Y-148488214D02*
X121647277Y-148440595D01*
X121647277Y-148440595D02*
X121409182Y-148440595D01*
X121409182Y-148440595D02*
X121313944Y-148488214D01*
X121313944Y-148488214D02*
X121266325Y-148535833D01*
X121266325Y-148535833D02*
X121218706Y-148631071D01*
X121218706Y-148631071D02*
X121218706Y-148821547D01*
X121218706Y-148821547D02*
X121266325Y-148916785D01*
X121266325Y-148916785D02*
X121313944Y-148964404D01*
X121313944Y-148964404D02*
X121409182Y-149012023D01*
X154029580Y-112702857D02*
X154077200Y-112750476D01*
X154077200Y-112750476D02*
X154124819Y-112893333D01*
X154124819Y-112893333D02*
X154124819Y-112988571D01*
X154124819Y-112988571D02*
X154077200Y-113131428D01*
X154077200Y-113131428D02*
X153981961Y-113226666D01*
X153981961Y-113226666D02*
X153886723Y-113274285D01*
X153886723Y-113274285D02*
X153696247Y-113321904D01*
X153696247Y-113321904D02*
X153553390Y-113321904D01*
X153553390Y-113321904D02*
X153362914Y-113274285D01*
X153362914Y-113274285D02*
X153267676Y-113226666D01*
X153267676Y-113226666D02*
X153172438Y-113131428D01*
X153172438Y-113131428D02*
X153124819Y-112988571D01*
X153124819Y-112988571D02*
X153124819Y-112893333D01*
X153124819Y-112893333D02*
X153172438Y-112750476D01*
X153172438Y-112750476D02*
X153220057Y-112702857D01*
X153220057Y-112321904D02*
X153172438Y-112274285D01*
X153172438Y-112274285D02*
X153124819Y-112179047D01*
X153124819Y-112179047D02*
X153124819Y-111940952D01*
X153124819Y-111940952D02*
X153172438Y-111845714D01*
X153172438Y-111845714D02*
X153220057Y-111798095D01*
X153220057Y-111798095D02*
X153315295Y-111750476D01*
X153315295Y-111750476D02*
X153410533Y-111750476D01*
X153410533Y-111750476D02*
X153553390Y-111798095D01*
X153553390Y-111798095D02*
X154124819Y-112369523D01*
X154124819Y-112369523D02*
X154124819Y-111750476D01*
X153124819Y-110893333D02*
X153124819Y-111083809D01*
X153124819Y-111083809D02*
X153172438Y-111179047D01*
X153172438Y-111179047D02*
X153220057Y-111226666D01*
X153220057Y-111226666D02*
X153362914Y-111321904D01*
X153362914Y-111321904D02*
X153553390Y-111369523D01*
X153553390Y-111369523D02*
X153934342Y-111369523D01*
X153934342Y-111369523D02*
X154029580Y-111321904D01*
X154029580Y-111321904D02*
X154077200Y-111274285D01*
X154077200Y-111274285D02*
X154124819Y-111179047D01*
X154124819Y-111179047D02*
X154124819Y-110988571D01*
X154124819Y-110988571D02*
X154077200Y-110893333D01*
X154077200Y-110893333D02*
X154029580Y-110845714D01*
X154029580Y-110845714D02*
X153934342Y-110798095D01*
X153934342Y-110798095D02*
X153696247Y-110798095D01*
X153696247Y-110798095D02*
X153601009Y-110845714D01*
X153601009Y-110845714D02*
X153553390Y-110893333D01*
X153553390Y-110893333D02*
X153505771Y-110988571D01*
X153505771Y-110988571D02*
X153505771Y-111179047D01*
X153505771Y-111179047D02*
X153553390Y-111274285D01*
X153553390Y-111274285D02*
X153601009Y-111321904D01*
X153601009Y-111321904D02*
X153696247Y-111369523D01*
X102182142Y-185229580D02*
X102134523Y-185277200D01*
X102134523Y-185277200D02*
X101991666Y-185324819D01*
X101991666Y-185324819D02*
X101896428Y-185324819D01*
X101896428Y-185324819D02*
X101753571Y-185277200D01*
X101753571Y-185277200D02*
X101658333Y-185181961D01*
X101658333Y-185181961D02*
X101610714Y-185086723D01*
X101610714Y-185086723D02*
X101563095Y-184896247D01*
X101563095Y-184896247D02*
X101563095Y-184753390D01*
X101563095Y-184753390D02*
X101610714Y-184562914D01*
X101610714Y-184562914D02*
X101658333Y-184467676D01*
X101658333Y-184467676D02*
X101753571Y-184372438D01*
X101753571Y-184372438D02*
X101896428Y-184324819D01*
X101896428Y-184324819D02*
X101991666Y-184324819D01*
X101991666Y-184324819D02*
X102134523Y-184372438D01*
X102134523Y-184372438D02*
X102182142Y-184420057D01*
X103039285Y-184658152D02*
X103039285Y-185324819D01*
X102801190Y-184277200D02*
X102563095Y-184991485D01*
X102563095Y-184991485D02*
X103182142Y-184991485D01*
X103753571Y-184324819D02*
X103848809Y-184324819D01*
X103848809Y-184324819D02*
X103944047Y-184372438D01*
X103944047Y-184372438D02*
X103991666Y-184420057D01*
X103991666Y-184420057D02*
X104039285Y-184515295D01*
X104039285Y-184515295D02*
X104086904Y-184705771D01*
X104086904Y-184705771D02*
X104086904Y-184943866D01*
X104086904Y-184943866D02*
X104039285Y-185134342D01*
X104039285Y-185134342D02*
X103991666Y-185229580D01*
X103991666Y-185229580D02*
X103944047Y-185277200D01*
X103944047Y-185277200D02*
X103848809Y-185324819D01*
X103848809Y-185324819D02*
X103753571Y-185324819D01*
X103753571Y-185324819D02*
X103658333Y-185277200D01*
X103658333Y-185277200D02*
X103610714Y-185229580D01*
X103610714Y-185229580D02*
X103563095Y-185134342D01*
X103563095Y-185134342D02*
X103515476Y-184943866D01*
X103515476Y-184943866D02*
X103515476Y-184705771D01*
X103515476Y-184705771D02*
X103563095Y-184515295D01*
X103563095Y-184515295D02*
X103610714Y-184420057D01*
X103610714Y-184420057D02*
X103658333Y-184372438D01*
X103658333Y-184372438D02*
X103753571Y-184324819D01*
X133763333Y-194479580D02*
X133715714Y-194527200D01*
X133715714Y-194527200D02*
X133572857Y-194574819D01*
X133572857Y-194574819D02*
X133477619Y-194574819D01*
X133477619Y-194574819D02*
X133334762Y-194527200D01*
X133334762Y-194527200D02*
X133239524Y-194431961D01*
X133239524Y-194431961D02*
X133191905Y-194336723D01*
X133191905Y-194336723D02*
X133144286Y-194146247D01*
X133144286Y-194146247D02*
X133144286Y-194003390D01*
X133144286Y-194003390D02*
X133191905Y-193812914D01*
X133191905Y-193812914D02*
X133239524Y-193717676D01*
X133239524Y-193717676D02*
X133334762Y-193622438D01*
X133334762Y-193622438D02*
X133477619Y-193574819D01*
X133477619Y-193574819D02*
X133572857Y-193574819D01*
X133572857Y-193574819D02*
X133715714Y-193622438D01*
X133715714Y-193622438D02*
X133763333Y-193670057D01*
X134334762Y-194003390D02*
X134239524Y-193955771D01*
X134239524Y-193955771D02*
X134191905Y-193908152D01*
X134191905Y-193908152D02*
X134144286Y-193812914D01*
X134144286Y-193812914D02*
X134144286Y-193765295D01*
X134144286Y-193765295D02*
X134191905Y-193670057D01*
X134191905Y-193670057D02*
X134239524Y-193622438D01*
X134239524Y-193622438D02*
X134334762Y-193574819D01*
X134334762Y-193574819D02*
X134525238Y-193574819D01*
X134525238Y-193574819D02*
X134620476Y-193622438D01*
X134620476Y-193622438D02*
X134668095Y-193670057D01*
X134668095Y-193670057D02*
X134715714Y-193765295D01*
X134715714Y-193765295D02*
X134715714Y-193812914D01*
X134715714Y-193812914D02*
X134668095Y-193908152D01*
X134668095Y-193908152D02*
X134620476Y-193955771D01*
X134620476Y-193955771D02*
X134525238Y-194003390D01*
X134525238Y-194003390D02*
X134334762Y-194003390D01*
X134334762Y-194003390D02*
X134239524Y-194051009D01*
X134239524Y-194051009D02*
X134191905Y-194098628D01*
X134191905Y-194098628D02*
X134144286Y-194193866D01*
X134144286Y-194193866D02*
X134144286Y-194384342D01*
X134144286Y-194384342D02*
X134191905Y-194479580D01*
X134191905Y-194479580D02*
X134239524Y-194527200D01*
X134239524Y-194527200D02*
X134334762Y-194574819D01*
X134334762Y-194574819D02*
X134525238Y-194574819D01*
X134525238Y-194574819D02*
X134620476Y-194527200D01*
X134620476Y-194527200D02*
X134668095Y-194479580D01*
X134668095Y-194479580D02*
X134715714Y-194384342D01*
X134715714Y-194384342D02*
X134715714Y-194193866D01*
X134715714Y-194193866D02*
X134668095Y-194098628D01*
X134668095Y-194098628D02*
X134620476Y-194051009D01*
X134620476Y-194051009D02*
X134525238Y-194003390D01*
D11*
X166504318Y-162023332D02*
X167411461Y-162023332D01*
X167411461Y-162023332D02*
X167592889Y-162083809D01*
X167592889Y-162083809D02*
X167713842Y-162204761D01*
X167713842Y-162204761D02*
X167774318Y-162386190D01*
X167774318Y-162386190D02*
X167774318Y-162507142D01*
X167774318Y-160753332D02*
X167774318Y-161479047D01*
X167774318Y-161116190D02*
X166504318Y-161116190D01*
X166504318Y-161116190D02*
X166685746Y-161237142D01*
X166685746Y-161237142D02*
X166806699Y-161358094D01*
X166806699Y-161358094D02*
X166867175Y-161479047D01*
X95158571Y-184003365D02*
X95098095Y-184063842D01*
X95098095Y-184063842D02*
X94916666Y-184124318D01*
X94916666Y-184124318D02*
X94795714Y-184124318D01*
X94795714Y-184124318D02*
X94614285Y-184063842D01*
X94614285Y-184063842D02*
X94493333Y-183942889D01*
X94493333Y-183942889D02*
X94432856Y-183821937D01*
X94432856Y-183821937D02*
X94372380Y-183580032D01*
X94372380Y-183580032D02*
X94372380Y-183398603D01*
X94372380Y-183398603D02*
X94432856Y-183156699D01*
X94432856Y-183156699D02*
X94493333Y-183035746D01*
X94493333Y-183035746D02*
X94614285Y-182914794D01*
X94614285Y-182914794D02*
X94795714Y-182854318D01*
X94795714Y-182854318D02*
X94916666Y-182854318D01*
X94916666Y-182854318D02*
X95098095Y-182914794D01*
X95098095Y-182914794D02*
X95158571Y-182975270D01*
X96368095Y-184124318D02*
X95642380Y-184124318D01*
X96005237Y-184124318D02*
X96005237Y-182854318D01*
X96005237Y-182854318D02*
X95884285Y-183035746D01*
X95884285Y-183035746D02*
X95763333Y-183156699D01*
X95763333Y-183156699D02*
X95642380Y-183217175D01*
X96791428Y-182854318D02*
X97577619Y-182854318D01*
X97577619Y-182854318D02*
X97154285Y-183338127D01*
X97154285Y-183338127D02*
X97335714Y-183338127D01*
X97335714Y-183338127D02*
X97456666Y-183398603D01*
X97456666Y-183398603D02*
X97517142Y-183459080D01*
X97517142Y-183459080D02*
X97577619Y-183580032D01*
X97577619Y-183580032D02*
X97577619Y-183882413D01*
X97577619Y-183882413D02*
X97517142Y-184003365D01*
X97517142Y-184003365D02*
X97456666Y-184063842D01*
X97456666Y-184063842D02*
X97335714Y-184124318D01*
X97335714Y-184124318D02*
X96972857Y-184124318D01*
X96972857Y-184124318D02*
X96851904Y-184063842D01*
X96851904Y-184063842D02*
X96791428Y-184003365D01*
X106127253Y-157192143D02*
X104857253Y-157192143D01*
X104857253Y-157192143D02*
X104857253Y-156889762D01*
X104857253Y-156889762D02*
X104917729Y-156708333D01*
X104917729Y-156708333D02*
X105038681Y-156587381D01*
X105038681Y-156587381D02*
X105159634Y-156526904D01*
X105159634Y-156526904D02*
X105401538Y-156466428D01*
X105401538Y-156466428D02*
X105582967Y-156466428D01*
X105582967Y-156466428D02*
X105824872Y-156526904D01*
X105824872Y-156526904D02*
X105945824Y-156587381D01*
X105945824Y-156587381D02*
X106066777Y-156708333D01*
X106066777Y-156708333D02*
X106127253Y-156889762D01*
X106127253Y-156889762D02*
X106127253Y-157192143D01*
X106127253Y-155256904D02*
X106127253Y-155982619D01*
X106127253Y-155619762D02*
X104857253Y-155619762D01*
X104857253Y-155619762D02*
X105038681Y-155740714D01*
X105038681Y-155740714D02*
X105159634Y-155861666D01*
X105159634Y-155861666D02*
X105220110Y-155982619D01*
X106127253Y-154047380D02*
X106127253Y-154773095D01*
X106127253Y-154410238D02*
X104857253Y-154410238D01*
X104857253Y-154410238D02*
X105038681Y-154531190D01*
X105038681Y-154531190D02*
X105159634Y-154652142D01*
X105159634Y-154652142D02*
X105220110Y-154773095D01*
X96804318Y-120563586D02*
X96199556Y-120986920D01*
X96804318Y-121289301D02*
X95534318Y-121289301D01*
X95534318Y-121289301D02*
X95534318Y-120805491D01*
X95534318Y-120805491D02*
X95594794Y-120684539D01*
X95594794Y-120684539D02*
X95655270Y-120624062D01*
X95655270Y-120624062D02*
X95776222Y-120563586D01*
X95776222Y-120563586D02*
X95957651Y-120563586D01*
X95957651Y-120563586D02*
X96078603Y-120624062D01*
X96078603Y-120624062D02*
X96139080Y-120684539D01*
X96139080Y-120684539D02*
X96199556Y-120805491D01*
X96199556Y-120805491D02*
X96199556Y-121289301D01*
X95655270Y-120079777D02*
X95594794Y-120019301D01*
X95594794Y-120019301D02*
X95534318Y-119898348D01*
X95534318Y-119898348D02*
X95534318Y-119595967D01*
X95534318Y-119595967D02*
X95594794Y-119475015D01*
X95594794Y-119475015D02*
X95655270Y-119414539D01*
X95655270Y-119414539D02*
X95776222Y-119354062D01*
X95776222Y-119354062D02*
X95897175Y-119354062D01*
X95897175Y-119354062D02*
X96078603Y-119414539D01*
X96078603Y-119414539D02*
X96804318Y-120140253D01*
X96804318Y-120140253D02*
X96804318Y-119354062D01*
X95534318Y-118265491D02*
X95534318Y-118507396D01*
X95534318Y-118507396D02*
X95594794Y-118628348D01*
X95594794Y-118628348D02*
X95655270Y-118688824D01*
X95655270Y-118688824D02*
X95836699Y-118809777D01*
X95836699Y-118809777D02*
X96078603Y-118870253D01*
X96078603Y-118870253D02*
X96562413Y-118870253D01*
X96562413Y-118870253D02*
X96683365Y-118809777D01*
X96683365Y-118809777D02*
X96743842Y-118749300D01*
X96743842Y-118749300D02*
X96804318Y-118628348D01*
X96804318Y-118628348D02*
X96804318Y-118386443D01*
X96804318Y-118386443D02*
X96743842Y-118265491D01*
X96743842Y-118265491D02*
X96683365Y-118205015D01*
X96683365Y-118205015D02*
X96562413Y-118144538D01*
X96562413Y-118144538D02*
X96260032Y-118144538D01*
X96260032Y-118144538D02*
X96139080Y-118205015D01*
X96139080Y-118205015D02*
X96078603Y-118265491D01*
X96078603Y-118265491D02*
X96018127Y-118386443D01*
X96018127Y-118386443D02*
X96018127Y-118628348D01*
X96018127Y-118628348D02*
X96078603Y-118749300D01*
X96078603Y-118749300D02*
X96139080Y-118809777D01*
X96139080Y-118809777D02*
X96260032Y-118870253D01*
X99633571Y-168134318D02*
X99210237Y-167529556D01*
X98907856Y-168134318D02*
X98907856Y-166864318D01*
X98907856Y-166864318D02*
X99391666Y-166864318D01*
X99391666Y-166864318D02*
X99512618Y-166924794D01*
X99512618Y-166924794D02*
X99573095Y-166985270D01*
X99573095Y-166985270D02*
X99633571Y-167106222D01*
X99633571Y-167106222D02*
X99633571Y-167287651D01*
X99633571Y-167287651D02*
X99573095Y-167408603D01*
X99573095Y-167408603D02*
X99512618Y-167469080D01*
X99512618Y-167469080D02*
X99391666Y-167529556D01*
X99391666Y-167529556D02*
X98907856Y-167529556D01*
X100117380Y-166985270D02*
X100177856Y-166924794D01*
X100177856Y-166924794D02*
X100298809Y-166864318D01*
X100298809Y-166864318D02*
X100601190Y-166864318D01*
X100601190Y-166864318D02*
X100722142Y-166924794D01*
X100722142Y-166924794D02*
X100782618Y-166985270D01*
X100782618Y-166985270D02*
X100843095Y-167106222D01*
X100843095Y-167106222D02*
X100843095Y-167227175D01*
X100843095Y-167227175D02*
X100782618Y-167408603D01*
X100782618Y-167408603D02*
X100056904Y-168134318D01*
X100056904Y-168134318D02*
X100843095Y-168134318D01*
X101568809Y-167408603D02*
X101447857Y-167348127D01*
X101447857Y-167348127D02*
X101387380Y-167287651D01*
X101387380Y-167287651D02*
X101326904Y-167166699D01*
X101326904Y-167166699D02*
X101326904Y-167106222D01*
X101326904Y-167106222D02*
X101387380Y-166985270D01*
X101387380Y-166985270D02*
X101447857Y-166924794D01*
X101447857Y-166924794D02*
X101568809Y-166864318D01*
X101568809Y-166864318D02*
X101810714Y-166864318D01*
X101810714Y-166864318D02*
X101931666Y-166924794D01*
X101931666Y-166924794D02*
X101992142Y-166985270D01*
X101992142Y-166985270D02*
X102052619Y-167106222D01*
X102052619Y-167106222D02*
X102052619Y-167166699D01*
X102052619Y-167166699D02*
X101992142Y-167287651D01*
X101992142Y-167287651D02*
X101931666Y-167348127D01*
X101931666Y-167348127D02*
X101810714Y-167408603D01*
X101810714Y-167408603D02*
X101568809Y-167408603D01*
X101568809Y-167408603D02*
X101447857Y-167469080D01*
X101447857Y-167469080D02*
X101387380Y-167529556D01*
X101387380Y-167529556D02*
X101326904Y-167650508D01*
X101326904Y-167650508D02*
X101326904Y-167892413D01*
X101326904Y-167892413D02*
X101387380Y-168013365D01*
X101387380Y-168013365D02*
X101447857Y-168073842D01*
X101447857Y-168073842D02*
X101568809Y-168134318D01*
X101568809Y-168134318D02*
X101810714Y-168134318D01*
X101810714Y-168134318D02*
X101931666Y-168073842D01*
X101931666Y-168073842D02*
X101992142Y-168013365D01*
X101992142Y-168013365D02*
X102052619Y-167892413D01*
X102052619Y-167892413D02*
X102052619Y-167650508D01*
X102052619Y-167650508D02*
X101992142Y-167529556D01*
X101992142Y-167529556D02*
X101931666Y-167469080D01*
X101931666Y-167469080D02*
X101810714Y-167408603D01*
D12*
X123020196Y-149752557D02*
X122924958Y-149704938D01*
X122924958Y-149704938D02*
X122829720Y-149609700D01*
X122829720Y-149609700D02*
X122686863Y-149466842D01*
X122686863Y-149466842D02*
X122591625Y-149419223D01*
X122591625Y-149419223D02*
X122496387Y-149419223D01*
X122544006Y-149657319D02*
X122448768Y-149609700D01*
X122448768Y-149609700D02*
X122353530Y-149514461D01*
X122353530Y-149514461D02*
X122305911Y-149323985D01*
X122305911Y-149323985D02*
X122305911Y-148990652D01*
X122305911Y-148990652D02*
X122353530Y-148800176D01*
X122353530Y-148800176D02*
X122448768Y-148704938D01*
X122448768Y-148704938D02*
X122544006Y-148657319D01*
X122544006Y-148657319D02*
X122734482Y-148657319D01*
X122734482Y-148657319D02*
X122829720Y-148704938D01*
X122829720Y-148704938D02*
X122924958Y-148800176D01*
X122924958Y-148800176D02*
X122972577Y-148990652D01*
X122972577Y-148990652D02*
X122972577Y-149323985D01*
X122972577Y-149323985D02*
X122924958Y-149514461D01*
X122924958Y-149514461D02*
X122829720Y-149609700D01*
X122829720Y-149609700D02*
X122734482Y-149657319D01*
X122734482Y-149657319D02*
X122544006Y-149657319D01*
X123305911Y-148657319D02*
X123924958Y-148657319D01*
X123924958Y-148657319D02*
X123591625Y-149038271D01*
X123591625Y-149038271D02*
X123734482Y-149038271D01*
X123734482Y-149038271D02*
X123829720Y-149085890D01*
X123829720Y-149085890D02*
X123877339Y-149133509D01*
X123877339Y-149133509D02*
X123924958Y-149228747D01*
X123924958Y-149228747D02*
X123924958Y-149466842D01*
X123924958Y-149466842D02*
X123877339Y-149562080D01*
X123877339Y-149562080D02*
X123829720Y-149609700D01*
X123829720Y-149609700D02*
X123734482Y-149657319D01*
X123734482Y-149657319D02*
X123448768Y-149657319D01*
X123448768Y-149657319D02*
X123353530Y-149609700D01*
X123353530Y-149609700D02*
X123305911Y-149562080D01*
X143157142Y-166979580D02*
X143109523Y-167027200D01*
X143109523Y-167027200D02*
X142966666Y-167074819D01*
X142966666Y-167074819D02*
X142871428Y-167074819D01*
X142871428Y-167074819D02*
X142728571Y-167027200D01*
X142728571Y-167027200D02*
X142633333Y-166931961D01*
X142633333Y-166931961D02*
X142585714Y-166836723D01*
X142585714Y-166836723D02*
X142538095Y-166646247D01*
X142538095Y-166646247D02*
X142538095Y-166503390D01*
X142538095Y-166503390D02*
X142585714Y-166312914D01*
X142585714Y-166312914D02*
X142633333Y-166217676D01*
X142633333Y-166217676D02*
X142728571Y-166122438D01*
X142728571Y-166122438D02*
X142871428Y-166074819D01*
X142871428Y-166074819D02*
X142966666Y-166074819D01*
X142966666Y-166074819D02*
X143109523Y-166122438D01*
X143109523Y-166122438D02*
X143157142Y-166170057D01*
X144109523Y-167074819D02*
X143538095Y-167074819D01*
X143823809Y-167074819D02*
X143823809Y-166074819D01*
X143823809Y-166074819D02*
X143728571Y-166217676D01*
X143728571Y-166217676D02*
X143633333Y-166312914D01*
X143633333Y-166312914D02*
X143538095Y-166360533D01*
X145061904Y-167074819D02*
X144490476Y-167074819D01*
X144776190Y-167074819D02*
X144776190Y-166074819D01*
X144776190Y-166074819D02*
X144680952Y-166217676D01*
X144680952Y-166217676D02*
X144585714Y-166312914D01*
X144585714Y-166312914D02*
X144490476Y-166360533D01*
D11*
X134588333Y-190953365D02*
X134527857Y-191013842D01*
X134527857Y-191013842D02*
X134346428Y-191074318D01*
X134346428Y-191074318D02*
X134225476Y-191074318D01*
X134225476Y-191074318D02*
X134044047Y-191013842D01*
X134044047Y-191013842D02*
X133923095Y-190892889D01*
X133923095Y-190892889D02*
X133862618Y-190771937D01*
X133862618Y-190771937D02*
X133802142Y-190530032D01*
X133802142Y-190530032D02*
X133802142Y-190348603D01*
X133802142Y-190348603D02*
X133862618Y-190106699D01*
X133862618Y-190106699D02*
X133923095Y-189985746D01*
X133923095Y-189985746D02*
X134044047Y-189864794D01*
X134044047Y-189864794D02*
X134225476Y-189804318D01*
X134225476Y-189804318D02*
X134346428Y-189804318D01*
X134346428Y-189804318D02*
X134527857Y-189864794D01*
X134527857Y-189864794D02*
X134588333Y-189925270D01*
X135011666Y-189804318D02*
X135858333Y-189804318D01*
X135858333Y-189804318D02*
X135314047Y-191074318D01*
X136583571Y-129153365D02*
X136523095Y-129213842D01*
X136523095Y-129213842D02*
X136341666Y-129274318D01*
X136341666Y-129274318D02*
X136220714Y-129274318D01*
X136220714Y-129274318D02*
X136039285Y-129213842D01*
X136039285Y-129213842D02*
X135918333Y-129092889D01*
X135918333Y-129092889D02*
X135857856Y-128971937D01*
X135857856Y-128971937D02*
X135797380Y-128730032D01*
X135797380Y-128730032D02*
X135797380Y-128548603D01*
X135797380Y-128548603D02*
X135857856Y-128306699D01*
X135857856Y-128306699D02*
X135918333Y-128185746D01*
X135918333Y-128185746D02*
X136039285Y-128064794D01*
X136039285Y-128064794D02*
X136220714Y-128004318D01*
X136220714Y-128004318D02*
X136341666Y-128004318D01*
X136341666Y-128004318D02*
X136523095Y-128064794D01*
X136523095Y-128064794D02*
X136583571Y-128125270D01*
X137006904Y-128004318D02*
X137793095Y-128004318D01*
X137793095Y-128004318D02*
X137369761Y-128488127D01*
X137369761Y-128488127D02*
X137551190Y-128488127D01*
X137551190Y-128488127D02*
X137672142Y-128548603D01*
X137672142Y-128548603D02*
X137732618Y-128609080D01*
X137732618Y-128609080D02*
X137793095Y-128730032D01*
X137793095Y-128730032D02*
X137793095Y-129032413D01*
X137793095Y-129032413D02*
X137732618Y-129153365D01*
X137732618Y-129153365D02*
X137672142Y-129213842D01*
X137672142Y-129213842D02*
X137551190Y-129274318D01*
X137551190Y-129274318D02*
X137188333Y-129274318D01*
X137188333Y-129274318D02*
X137067380Y-129213842D01*
X137067380Y-129213842D02*
X137006904Y-129153365D01*
X138216428Y-128004318D02*
X139063095Y-128004318D01*
X139063095Y-128004318D02*
X138518809Y-129274318D01*
X114914318Y-187571428D02*
X114309556Y-187994762D01*
X114914318Y-188297143D02*
X113644318Y-188297143D01*
X113644318Y-188297143D02*
X113644318Y-187813333D01*
X113644318Y-187813333D02*
X113704794Y-187692381D01*
X113704794Y-187692381D02*
X113765270Y-187631904D01*
X113765270Y-187631904D02*
X113886222Y-187571428D01*
X113886222Y-187571428D02*
X114067651Y-187571428D01*
X114067651Y-187571428D02*
X114188603Y-187631904D01*
X114188603Y-187631904D02*
X114249080Y-187692381D01*
X114249080Y-187692381D02*
X114309556Y-187813333D01*
X114309556Y-187813333D02*
X114309556Y-188297143D01*
X113765270Y-187087619D02*
X113704794Y-187027143D01*
X113704794Y-187027143D02*
X113644318Y-186906190D01*
X113644318Y-186906190D02*
X113644318Y-186603809D01*
X113644318Y-186603809D02*
X113704794Y-186482857D01*
X113704794Y-186482857D02*
X113765270Y-186422381D01*
X113765270Y-186422381D02*
X113886222Y-186361904D01*
X113886222Y-186361904D02*
X114007175Y-186361904D01*
X114007175Y-186361904D02*
X114188603Y-186422381D01*
X114188603Y-186422381D02*
X114914318Y-187148095D01*
X114914318Y-187148095D02*
X114914318Y-186361904D01*
X113644318Y-185938571D02*
X113644318Y-185091904D01*
X113644318Y-185091904D02*
X114914318Y-185636190D01*
X116753571Y-118953365D02*
X116693095Y-119013842D01*
X116693095Y-119013842D02*
X116511666Y-119074318D01*
X116511666Y-119074318D02*
X116390714Y-119074318D01*
X116390714Y-119074318D02*
X116209285Y-119013842D01*
X116209285Y-119013842D02*
X116088333Y-118892889D01*
X116088333Y-118892889D02*
X116027856Y-118771937D01*
X116027856Y-118771937D02*
X115967380Y-118530032D01*
X115967380Y-118530032D02*
X115967380Y-118348603D01*
X115967380Y-118348603D02*
X116027856Y-118106699D01*
X116027856Y-118106699D02*
X116088333Y-117985746D01*
X116088333Y-117985746D02*
X116209285Y-117864794D01*
X116209285Y-117864794D02*
X116390714Y-117804318D01*
X116390714Y-117804318D02*
X116511666Y-117804318D01*
X116511666Y-117804318D02*
X116693095Y-117864794D01*
X116693095Y-117864794D02*
X116753571Y-117925270D01*
X117237380Y-117925270D02*
X117297856Y-117864794D01*
X117297856Y-117864794D02*
X117418809Y-117804318D01*
X117418809Y-117804318D02*
X117721190Y-117804318D01*
X117721190Y-117804318D02*
X117842142Y-117864794D01*
X117842142Y-117864794D02*
X117902618Y-117925270D01*
X117902618Y-117925270D02*
X117963095Y-118046222D01*
X117963095Y-118046222D02*
X117963095Y-118167175D01*
X117963095Y-118167175D02*
X117902618Y-118348603D01*
X117902618Y-118348603D02*
X117176904Y-119074318D01*
X117176904Y-119074318D02*
X117963095Y-119074318D01*
X118386428Y-117804318D02*
X119233095Y-117804318D01*
X119233095Y-117804318D02*
X118688809Y-119074318D01*
D12*
X114109103Y-146342857D02*
X113632912Y-146676190D01*
X114109103Y-146914285D02*
X113109103Y-146914285D01*
X113109103Y-146914285D02*
X113109103Y-146533333D01*
X113109103Y-146533333D02*
X113156722Y-146438095D01*
X113156722Y-146438095D02*
X113204341Y-146390476D01*
X113204341Y-146390476D02*
X113299579Y-146342857D01*
X113299579Y-146342857D02*
X113442436Y-146342857D01*
X113442436Y-146342857D02*
X113537674Y-146390476D01*
X113537674Y-146390476D02*
X113585293Y-146438095D01*
X113585293Y-146438095D02*
X113632912Y-146533333D01*
X113632912Y-146533333D02*
X113632912Y-146914285D01*
X113109103Y-146009523D02*
X113109103Y-145390476D01*
X113109103Y-145390476D02*
X113490055Y-145723809D01*
X113490055Y-145723809D02*
X113490055Y-145580952D01*
X113490055Y-145580952D02*
X113537674Y-145485714D01*
X113537674Y-145485714D02*
X113585293Y-145438095D01*
X113585293Y-145438095D02*
X113680531Y-145390476D01*
X113680531Y-145390476D02*
X113918626Y-145390476D01*
X113918626Y-145390476D02*
X114013864Y-145438095D01*
X114013864Y-145438095D02*
X114061484Y-145485714D01*
X114061484Y-145485714D02*
X114109103Y-145580952D01*
X114109103Y-145580952D02*
X114109103Y-145866666D01*
X114109103Y-145866666D02*
X114061484Y-145961904D01*
X114061484Y-145961904D02*
X114013864Y-146009523D01*
X113537674Y-144819047D02*
X113490055Y-144914285D01*
X113490055Y-144914285D02*
X113442436Y-144961904D01*
X113442436Y-144961904D02*
X113347198Y-145009523D01*
X113347198Y-145009523D02*
X113299579Y-145009523D01*
X113299579Y-145009523D02*
X113204341Y-144961904D01*
X113204341Y-144961904D02*
X113156722Y-144914285D01*
X113156722Y-144914285D02*
X113109103Y-144819047D01*
X113109103Y-144819047D02*
X113109103Y-144628571D01*
X113109103Y-144628571D02*
X113156722Y-144533333D01*
X113156722Y-144533333D02*
X113204341Y-144485714D01*
X113204341Y-144485714D02*
X113299579Y-144438095D01*
X113299579Y-144438095D02*
X113347198Y-144438095D01*
X113347198Y-144438095D02*
X113442436Y-144485714D01*
X113442436Y-144485714D02*
X113490055Y-144533333D01*
X113490055Y-144533333D02*
X113537674Y-144628571D01*
X113537674Y-144628571D02*
X113537674Y-144819047D01*
X113537674Y-144819047D02*
X113585293Y-144914285D01*
X113585293Y-144914285D02*
X113632912Y-144961904D01*
X113632912Y-144961904D02*
X113728150Y-145009523D01*
X113728150Y-145009523D02*
X113918626Y-145009523D01*
X113918626Y-145009523D02*
X114013864Y-144961904D01*
X114013864Y-144961904D02*
X114061484Y-144914285D01*
X114061484Y-144914285D02*
X114109103Y-144819047D01*
X114109103Y-144819047D02*
X114109103Y-144628571D01*
X114109103Y-144628571D02*
X114061484Y-144533333D01*
X114061484Y-144533333D02*
X114013864Y-144485714D01*
X114013864Y-144485714D02*
X113918626Y-144438095D01*
X113918626Y-144438095D02*
X113728150Y-144438095D01*
X113728150Y-144438095D02*
X113632912Y-144485714D01*
X113632912Y-144485714D02*
X113585293Y-144533333D01*
X113585293Y-144533333D02*
X113537674Y-144628571D01*
D11*
X101874318Y-184539762D02*
X100604318Y-184539762D01*
X101753365Y-183209285D02*
X101813842Y-183269761D01*
X101813842Y-183269761D02*
X101874318Y-183451190D01*
X101874318Y-183451190D02*
X101874318Y-183572142D01*
X101874318Y-183572142D02*
X101813842Y-183753571D01*
X101813842Y-183753571D02*
X101692889Y-183874523D01*
X101692889Y-183874523D02*
X101571937Y-183935000D01*
X101571937Y-183935000D02*
X101330032Y-183995476D01*
X101330032Y-183995476D02*
X101148603Y-183995476D01*
X101148603Y-183995476D02*
X100906699Y-183935000D01*
X100906699Y-183935000D02*
X100785746Y-183874523D01*
X100785746Y-183874523D02*
X100664794Y-183753571D01*
X100664794Y-183753571D02*
X100604318Y-183572142D01*
X100604318Y-183572142D02*
X100604318Y-183451190D01*
X100604318Y-183451190D02*
X100664794Y-183269761D01*
X100664794Y-183269761D02*
X100725270Y-183209285D01*
X100604318Y-182060238D02*
X100604318Y-182665000D01*
X100604318Y-182665000D02*
X101209080Y-182725476D01*
X101209080Y-182725476D02*
X101148603Y-182665000D01*
X101148603Y-182665000D02*
X101088127Y-182544047D01*
X101088127Y-182544047D02*
X101088127Y-182241666D01*
X101088127Y-182241666D02*
X101148603Y-182120714D01*
X101148603Y-182120714D02*
X101209080Y-182060238D01*
X101209080Y-182060238D02*
X101330032Y-181999761D01*
X101330032Y-181999761D02*
X101632413Y-181999761D01*
X101632413Y-181999761D02*
X101753365Y-182060238D01*
X101753365Y-182060238D02*
X101813842Y-182120714D01*
X101813842Y-182120714D02*
X101874318Y-182241666D01*
X101874318Y-182241666D02*
X101874318Y-182544047D01*
X101874318Y-182544047D02*
X101813842Y-182665000D01*
X101813842Y-182665000D02*
X101753365Y-182725476D01*
D12*
X143157142Y-168979580D02*
X143109523Y-169027200D01*
X143109523Y-169027200D02*
X142966666Y-169074819D01*
X142966666Y-169074819D02*
X142871428Y-169074819D01*
X142871428Y-169074819D02*
X142728571Y-169027200D01*
X142728571Y-169027200D02*
X142633333Y-168931961D01*
X142633333Y-168931961D02*
X142585714Y-168836723D01*
X142585714Y-168836723D02*
X142538095Y-168646247D01*
X142538095Y-168646247D02*
X142538095Y-168503390D01*
X142538095Y-168503390D02*
X142585714Y-168312914D01*
X142585714Y-168312914D02*
X142633333Y-168217676D01*
X142633333Y-168217676D02*
X142728571Y-168122438D01*
X142728571Y-168122438D02*
X142871428Y-168074819D01*
X142871428Y-168074819D02*
X142966666Y-168074819D01*
X142966666Y-168074819D02*
X143109523Y-168122438D01*
X143109523Y-168122438D02*
X143157142Y-168170057D01*
X144109523Y-169074819D02*
X143538095Y-169074819D01*
X143823809Y-169074819D02*
X143823809Y-168074819D01*
X143823809Y-168074819D02*
X143728571Y-168217676D01*
X143728571Y-168217676D02*
X143633333Y-168312914D01*
X143633333Y-168312914D02*
X143538095Y-168360533D01*
X144728571Y-168074819D02*
X144823809Y-168074819D01*
X144823809Y-168074819D02*
X144919047Y-168122438D01*
X144919047Y-168122438D02*
X144966666Y-168170057D01*
X144966666Y-168170057D02*
X145014285Y-168265295D01*
X145014285Y-168265295D02*
X145061904Y-168455771D01*
X145061904Y-168455771D02*
X145061904Y-168693866D01*
X145061904Y-168693866D02*
X145014285Y-168884342D01*
X145014285Y-168884342D02*
X144966666Y-168979580D01*
X144966666Y-168979580D02*
X144919047Y-169027200D01*
X144919047Y-169027200D02*
X144823809Y-169074819D01*
X144823809Y-169074819D02*
X144728571Y-169074819D01*
X144728571Y-169074819D02*
X144633333Y-169027200D01*
X144633333Y-169027200D02*
X144585714Y-168979580D01*
X144585714Y-168979580D02*
X144538095Y-168884342D01*
X144538095Y-168884342D02*
X144490476Y-168693866D01*
X144490476Y-168693866D02*
X144490476Y-168455771D01*
X144490476Y-168455771D02*
X144538095Y-168265295D01*
X144538095Y-168265295D02*
X144585714Y-168170057D01*
X144585714Y-168170057D02*
X144633333Y-168122438D01*
X144633333Y-168122438D02*
X144728571Y-168074819D01*
D11*
X131033571Y-172053365D02*
X130973095Y-172113842D01*
X130973095Y-172113842D02*
X130791666Y-172174318D01*
X130791666Y-172174318D02*
X130670714Y-172174318D01*
X130670714Y-172174318D02*
X130489285Y-172113842D01*
X130489285Y-172113842D02*
X130368333Y-171992889D01*
X130368333Y-171992889D02*
X130307856Y-171871937D01*
X130307856Y-171871937D02*
X130247380Y-171630032D01*
X130247380Y-171630032D02*
X130247380Y-171448603D01*
X130247380Y-171448603D02*
X130307856Y-171206699D01*
X130307856Y-171206699D02*
X130368333Y-171085746D01*
X130368333Y-171085746D02*
X130489285Y-170964794D01*
X130489285Y-170964794D02*
X130670714Y-170904318D01*
X130670714Y-170904318D02*
X130791666Y-170904318D01*
X130791666Y-170904318D02*
X130973095Y-170964794D01*
X130973095Y-170964794D02*
X131033571Y-171025270D01*
X131517380Y-171025270D02*
X131577856Y-170964794D01*
X131577856Y-170964794D02*
X131698809Y-170904318D01*
X131698809Y-170904318D02*
X132001190Y-170904318D01*
X132001190Y-170904318D02*
X132122142Y-170964794D01*
X132122142Y-170964794D02*
X132182618Y-171025270D01*
X132182618Y-171025270D02*
X132243095Y-171146222D01*
X132243095Y-171146222D02*
X132243095Y-171267175D01*
X132243095Y-171267175D02*
X132182618Y-171448603D01*
X132182618Y-171448603D02*
X131456904Y-172174318D01*
X131456904Y-172174318D02*
X132243095Y-172174318D01*
X132847857Y-172174318D02*
X133089761Y-172174318D01*
X133089761Y-172174318D02*
X133210714Y-172113842D01*
X133210714Y-172113842D02*
X133271190Y-172053365D01*
X133271190Y-172053365D02*
X133392142Y-171871937D01*
X133392142Y-171871937D02*
X133452619Y-171630032D01*
X133452619Y-171630032D02*
X133452619Y-171146222D01*
X133452619Y-171146222D02*
X133392142Y-171025270D01*
X133392142Y-171025270D02*
X133331666Y-170964794D01*
X133331666Y-170964794D02*
X133210714Y-170904318D01*
X133210714Y-170904318D02*
X132968809Y-170904318D01*
X132968809Y-170904318D02*
X132847857Y-170964794D01*
X132847857Y-170964794D02*
X132787380Y-171025270D01*
X132787380Y-171025270D02*
X132726904Y-171146222D01*
X132726904Y-171146222D02*
X132726904Y-171448603D01*
X132726904Y-171448603D02*
X132787380Y-171569556D01*
X132787380Y-171569556D02*
X132847857Y-171630032D01*
X132847857Y-171630032D02*
X132968809Y-171690508D01*
X132968809Y-171690508D02*
X133210714Y-171690508D01*
X133210714Y-171690508D02*
X133331666Y-171630032D01*
X133331666Y-171630032D02*
X133392142Y-171569556D01*
X133392142Y-171569556D02*
X133452619Y-171448603D01*
D12*
X113707142Y-159024819D02*
X113373809Y-158548628D01*
X113135714Y-159024819D02*
X113135714Y-158024819D01*
X113135714Y-158024819D02*
X113516666Y-158024819D01*
X113516666Y-158024819D02*
X113611904Y-158072438D01*
X113611904Y-158072438D02*
X113659523Y-158120057D01*
X113659523Y-158120057D02*
X113707142Y-158215295D01*
X113707142Y-158215295D02*
X113707142Y-158358152D01*
X113707142Y-158358152D02*
X113659523Y-158453390D01*
X113659523Y-158453390D02*
X113611904Y-158501009D01*
X113611904Y-158501009D02*
X113516666Y-158548628D01*
X113516666Y-158548628D02*
X113135714Y-158548628D01*
X114040476Y-158024819D02*
X114659523Y-158024819D01*
X114659523Y-158024819D02*
X114326190Y-158405771D01*
X114326190Y-158405771D02*
X114469047Y-158405771D01*
X114469047Y-158405771D02*
X114564285Y-158453390D01*
X114564285Y-158453390D02*
X114611904Y-158501009D01*
X114611904Y-158501009D02*
X114659523Y-158596247D01*
X114659523Y-158596247D02*
X114659523Y-158834342D01*
X114659523Y-158834342D02*
X114611904Y-158929580D01*
X114611904Y-158929580D02*
X114564285Y-158977200D01*
X114564285Y-158977200D02*
X114469047Y-159024819D01*
X114469047Y-159024819D02*
X114183333Y-159024819D01*
X114183333Y-159024819D02*
X114088095Y-158977200D01*
X114088095Y-158977200D02*
X114040476Y-158929580D01*
X115611904Y-159024819D02*
X115040476Y-159024819D01*
X115326190Y-159024819D02*
X115326190Y-158024819D01*
X115326190Y-158024819D02*
X115230952Y-158167676D01*
X115230952Y-158167676D02*
X115135714Y-158262914D01*
X115135714Y-158262914D02*
X115040476Y-158310533D01*
D11*
X144548365Y-130270828D02*
X144608842Y-130331304D01*
X144608842Y-130331304D02*
X144669318Y-130512733D01*
X144669318Y-130512733D02*
X144669318Y-130633685D01*
X144669318Y-130633685D02*
X144608842Y-130815114D01*
X144608842Y-130815114D02*
X144487889Y-130936066D01*
X144487889Y-130936066D02*
X144366937Y-130996543D01*
X144366937Y-130996543D02*
X144125032Y-131057019D01*
X144125032Y-131057019D02*
X143943603Y-131057019D01*
X143943603Y-131057019D02*
X143701699Y-130996543D01*
X143701699Y-130996543D02*
X143580746Y-130936066D01*
X143580746Y-130936066D02*
X143459794Y-130815114D01*
X143459794Y-130815114D02*
X143399318Y-130633685D01*
X143399318Y-130633685D02*
X143399318Y-130512733D01*
X143399318Y-130512733D02*
X143459794Y-130331304D01*
X143459794Y-130331304D02*
X143520270Y-130270828D01*
X144669318Y-129061304D02*
X144669318Y-129787019D01*
X144669318Y-129424162D02*
X143399318Y-129424162D01*
X143399318Y-129424162D02*
X143580746Y-129545114D01*
X143580746Y-129545114D02*
X143701699Y-129666066D01*
X143701699Y-129666066D02*
X143762175Y-129787019D01*
X143399318Y-128637971D02*
X143399318Y-127791304D01*
X143399318Y-127791304D02*
X144669318Y-128335590D01*
D10*
%TO.C,R18*%
X148300000Y-111700000D02*
X148900000Y-111700000D01*
%TO.C,R9*%
X98850000Y-160880000D02*
X98850000Y-161480000D01*
D13*
%TO.C,J7*%
X127520000Y-133430000D02*
X127520000Y-125700000D01*
X130280000Y-125700000D02*
X127520000Y-125700000D01*
X130280000Y-133430000D02*
X127520000Y-133430000D01*
X130280000Y-133430000D02*
X130280000Y-125700000D01*
X130280000Y-134700000D02*
X130280000Y-136080000D01*
X130280000Y-136080000D02*
X128900000Y-136080000D01*
D10*
%TO.C,L1*%
X135600000Y-122100000D02*
X135600000Y-120400000D01*
X141600000Y-122100000D02*
X141600000Y-120400000D01*
D13*
%TO.C,C18*%
X142965000Y-125661252D02*
X142965000Y-125138748D01*
X144435000Y-125661252D02*
X144435000Y-125138748D01*
D10*
%TO.C,R11*%
X101920000Y-161930000D02*
X101320000Y-161930000D01*
D13*
%TO.C,P1*%
X87330000Y-146160000D02*
X87330000Y-155560000D01*
X89230000Y-146160000D02*
X87330000Y-146160000D01*
X89230000Y-155560000D02*
X87330000Y-155560000D01*
X93130000Y-146160000D02*
X91130000Y-146160000D01*
X93130000Y-155560000D02*
X91130000Y-155560000D01*
D14*
%TO.C,J4*%
X88080000Y-159400000D02*
X95580000Y-159400000D01*
X88080000Y-174400000D02*
X88080000Y-159400000D01*
D10*
X92080000Y-175400000D02*
X92080000Y-175400000D01*
X92080000Y-175600000D02*
X92080000Y-175600000D01*
D14*
X95580000Y-159400000D02*
X95580000Y-174400000D01*
X95580000Y-174400000D02*
X88080000Y-174400000D01*
D10*
X92080000Y-175400000D02*
G75*
G02*
X92080000Y-175600000I0J-100000D01*
G01*
X92080000Y-175600000D02*
G75*
G02*
X92080000Y-175400000I0J100000D01*
G01*
D13*
%TO.C,SW2*%
X126682935Y-143350000D02*
X126682935Y-146250000D01*
X126682935Y-143350000D02*
X127172935Y-142860000D01*
X126682935Y-146250000D02*
X127172935Y-146740000D01*
X128362935Y-142080000D02*
X130442935Y-142080000D01*
X128362935Y-147520000D02*
X130442935Y-147520000D01*
X132122935Y-143350000D02*
X131632935Y-142860000D01*
X132122935Y-143350000D02*
X132122935Y-146250000D01*
X132122935Y-146250000D02*
X131632935Y-146740000D01*
D10*
%TO.C,R24*%
X135800000Y-151750000D02*
X135200000Y-151750000D01*
D13*
%TO.C,J8*%
X92420000Y-140350000D02*
X92420000Y-132620000D01*
X95180000Y-132620000D02*
X92420000Y-132620000D01*
X95180000Y-140350000D02*
X92420000Y-140350000D01*
X95180000Y-140350000D02*
X95180000Y-132620000D01*
X95180000Y-141620000D02*
X95180000Y-143000000D01*
X95180000Y-143000000D02*
X93800000Y-143000000D01*
D10*
%TO.C,R13*%
X152650000Y-161650000D02*
X152650000Y-161050000D01*
D13*
%TO.C,SW1*%
X126682935Y-152850000D02*
X126682935Y-155750000D01*
X126682935Y-152850000D02*
X127172935Y-152360000D01*
X126682935Y-155750000D02*
X127172935Y-156240000D01*
X128362935Y-151580000D02*
X130442935Y-151580000D01*
X128362935Y-157020000D02*
X130442935Y-157020000D01*
X132122935Y-152850000D02*
X131632935Y-152360000D01*
X132122935Y-152850000D02*
X132122935Y-155750000D01*
X132122935Y-155750000D02*
X131632935Y-156240000D01*
D10*
%TO.C,R25*%
X138100000Y-153750000D02*
X137500000Y-153750000D01*
D13*
%TO.C,C5*%
X133088748Y-180565000D02*
X133611252Y-180565000D01*
X133088748Y-182035000D02*
X133611252Y-182035000D01*
%TO.C,R33*%
X98262742Y-148777500D02*
X98737258Y-148777500D01*
X98262742Y-149822500D02*
X98737258Y-149822500D01*
%TO.C,C42*%
X102640580Y-179540000D02*
X102359420Y-179540000D01*
X102640580Y-180560000D02*
X102359420Y-180560000D01*
D10*
%TO.C,IC2*%
X117472935Y-156475000D02*
X123972935Y-156475000D01*
X117472935Y-159925000D02*
X117472935Y-156475000D01*
X117622935Y-162225000D02*
X117622935Y-160275000D01*
X123972935Y-156475000D02*
X123972935Y-159925000D01*
X123972935Y-159925000D02*
X117472935Y-159925000D01*
D13*
%TO.C,R37*%
X117530435Y-149939758D02*
X117530435Y-149465242D01*
X118575435Y-149939758D02*
X118575435Y-149465242D01*
D10*
%TO.C,J6*%
X88530000Y-110950000D02*
X88530000Y-110950000D01*
X88730000Y-110950000D02*
X88730000Y-110950000D01*
D14*
X89730000Y-106950000D02*
X104730000Y-106950000D01*
X89730000Y-114450000D02*
X89730000Y-106950000D01*
X104730000Y-106950000D02*
X104730000Y-114450000D01*
X104730000Y-114450000D02*
X89730000Y-114450000D01*
D10*
X88530000Y-110950000D02*
G75*
G02*
X88730000Y-110950000I100000J0D01*
G01*
X88730000Y-110950000D02*
G75*
G02*
X88530000Y-110950000I-100000J0D01*
G01*
D14*
%TO.C,C20*%
X142800000Y-116310000D02*
X142800000Y-116310000D01*
X142900000Y-116310000D02*
X142900000Y-116310000D01*
X142800000Y-116310000D02*
G75*
G02*
X142900000Y-116310000I50000J0D01*
G01*
X142900000Y-116310000D02*
G75*
G02*
X142800000Y-116310000I-50000J0D01*
G01*
D13*
%TO.C,C44*%
X108414187Y-155515000D02*
X107891683Y-155515000D01*
X108414187Y-156985000D02*
X107891683Y-156985000D01*
%TO.C,C41*%
X129664187Y-138315000D02*
X129141683Y-138315000D01*
X129664187Y-139785000D02*
X129141683Y-139785000D01*
D10*
%TO.C,R10*%
X119100000Y-187300000D02*
X119700000Y-187300000D01*
%TO.C,Q2*%
X159231944Y-114340000D02*
X159331944Y-114340000D01*
X159231944Y-117260000D02*
X159231944Y-114340000D01*
X159331944Y-114340000D02*
X159331944Y-117260000D01*
X159331944Y-117260000D02*
X159231944Y-117260000D01*
X160981944Y-117300000D02*
X159681944Y-117300000D01*
D13*
%TO.C,C24*%
X151790000Y-114269420D02*
X151790000Y-114550580D01*
X152810000Y-114269420D02*
X152810000Y-114550580D01*
D10*
%TO.C,C36*%
X132325000Y-194250000D02*
G75*
G02*
X124075000Y-194250000I-4125000J0D01*
G01*
X124075000Y-194250000D02*
G75*
G02*
X132325000Y-194250000I4125000J0D01*
G01*
D13*
%TO.C,C15*%
X100861252Y-164195000D02*
X100338748Y-164195000D01*
X100861252Y-165665000D02*
X100338748Y-165665000D01*
%TO.C,C3*%
X132838748Y-178365000D02*
X133361252Y-178365000D01*
X132838748Y-179835000D02*
X133361252Y-179835000D01*
%TO.C,R30*%
X114085677Y-161927500D02*
X114560193Y-161927500D01*
X114085677Y-162972500D02*
X114560193Y-162972500D01*
D10*
%TO.C,R19*%
X152000000Y-122575000D02*
X152000000Y-123625000D01*
D13*
%TO.C,C23*%
X152661252Y-119065000D02*
X152138748Y-119065000D01*
X152661252Y-120535000D02*
X152138748Y-120535000D01*
D10*
%TO.C,R20*%
X152000000Y-125825000D02*
X152000000Y-124775000D01*
D13*
%TO.C,C1*%
X118711683Y-163165000D02*
X119234187Y-163165000D01*
X118711683Y-164635000D02*
X119234187Y-164635000D01*
D10*
%TO.C,R22*%
X148000000Y-124400000D02*
X149400000Y-124400000D01*
D13*
%TO.C,C2*%
X122734187Y-163165000D02*
X122211683Y-163165000D01*
X122734187Y-164635000D02*
X122211683Y-164635000D01*
D10*
%TO.C,C12*%
X159975000Y-156030000D02*
G75*
G02*
X151725000Y-156030000I-4125000J0D01*
G01*
X151725000Y-156030000D02*
G75*
G02*
X159975000Y-156030000I4125000J0D01*
G01*
D13*
%TO.C,Q4*%
X122392935Y-146142500D02*
X123912935Y-146142500D01*
X122392935Y-146192500D02*
X122392935Y-146142500D01*
X122392935Y-148092500D02*
X122392935Y-147312500D01*
X122392935Y-149262500D02*
X122392935Y-149212500D01*
X123912935Y-146142500D02*
X123912935Y-147142500D01*
X123912935Y-148262500D02*
X123912935Y-149262500D01*
X123912935Y-149262500D02*
X122392935Y-149262500D01*
X122092935Y-147652500D02*
X121612935Y-147652500D01*
X121852935Y-147322500D01*
X122092935Y-147652500D01*
G36*
X122092935Y-147652500D02*
G01*
X121612935Y-147652500D01*
X121852935Y-147322500D01*
X122092935Y-147652500D01*
G37*
D10*
%TO.C,R4*%
X139450000Y-164575000D02*
X139450000Y-165625000D01*
%TO.C,R6*%
X137200000Y-181325000D02*
X137200000Y-180275000D01*
%TO.C,R7*%
X139450000Y-162325000D02*
X139450000Y-163375000D01*
D13*
%TO.C,C45*%
X110142935Y-159009420D02*
X110142935Y-159290580D01*
X111162935Y-159009420D02*
X111162935Y-159290580D01*
D10*
%TO.C,R5*%
X137409540Y-183800000D02*
X138459540Y-183800000D01*
D14*
%TO.C,C21*%
X146100000Y-113010000D02*
X146100000Y-113010000D01*
X146100000Y-113110000D02*
X146100000Y-113110000D01*
X146100000Y-113010000D02*
G75*
G02*
X146100000Y-113110000I0J-50000D01*
G01*
X146100000Y-113110000D02*
G75*
G02*
X146100000Y-113010000I0J50000D01*
G01*
%TO.C,J3*%
X154500000Y-177200000D02*
X154500000Y-177200000D01*
X154600000Y-177200000D02*
X154600000Y-177200000D01*
D10*
X156500000Y-172700000D02*
X157750000Y-172700000D01*
X156500000Y-174600000D02*
X156500000Y-172700000D01*
X156500000Y-181700000D02*
X156500000Y-179800000D01*
X162950000Y-172700000D02*
X171000000Y-172700000D01*
X171000000Y-172700000D02*
X171000000Y-181700000D01*
X171000000Y-181700000D02*
X156500000Y-181700000D01*
D14*
X154500000Y-177200000D02*
G75*
G02*
X154600000Y-177200000I50000J0D01*
G01*
X154600000Y-177200000D02*
G75*
G02*
X154500000Y-177200000I-50000J0D01*
G01*
D13*
%TO.C,C38*%
X132765000Y-152011252D02*
X132765000Y-151488748D01*
X134235000Y-152011252D02*
X134235000Y-151488748D01*
D15*
%TO.C,IC4*%
X144975000Y-119460000D02*
G75*
G02*
X144725000Y-119460000I-125000J0D01*
G01*
X144725000Y-119460000D02*
G75*
G02*
X144975000Y-119460000I125000J0D01*
G01*
D10*
%TO.C,J2*%
X88300000Y-194300000D02*
X88300000Y-194300000D01*
X88500000Y-194300000D02*
X88500000Y-194300000D01*
D14*
X89500000Y-190300000D02*
X104500000Y-190300000D01*
X89500000Y-197800000D02*
X89500000Y-190300000D01*
X104500000Y-190300000D02*
X104500000Y-197800000D01*
X104500000Y-197800000D02*
X89500000Y-197800000D01*
D10*
X88300000Y-194300000D02*
G75*
G02*
X88500000Y-194300000I100000J0D01*
G01*
X88500000Y-194300000D02*
G75*
G02*
X88300000Y-194300000I-100000J0D01*
G01*
%TO.C,R8*%
X98850000Y-163480000D02*
X98850000Y-162880000D01*
%TO.C,IC1*%
X99410000Y-121750000D02*
X100160000Y-121750000D01*
X99410000Y-124250000D02*
X99410000Y-121750000D01*
X99410000Y-139750000D02*
X99410000Y-137250000D01*
X100160000Y-139750000D02*
X99410000Y-139750000D01*
D14*
X117420000Y-120650000D02*
X117420000Y-120650000D01*
X117420000Y-120750000D02*
X117420000Y-120750000D01*
D10*
X118160000Y-121750000D02*
X124910000Y-121750000D01*
X124910000Y-121750000D02*
X124910000Y-139750000D01*
X124910000Y-139750000D02*
X118160000Y-139750000D01*
D14*
X117420000Y-120650000D02*
G75*
G02*
X117420000Y-120750000I0J-50000D01*
G01*
X117420000Y-120750000D02*
G75*
G02*
X117420000Y-120650000I0J50000D01*
G01*
D13*
%TO.C,D10*%
X115652935Y-143835000D02*
X117937935Y-143835000D01*
X117937935Y-142365000D02*
X115652935Y-142365000D01*
X117937935Y-143835000D02*
X117937935Y-142365000D01*
%TO.C,C28*%
X116438748Y-115565000D02*
X116961252Y-115565000D01*
X116438748Y-117035000D02*
X116961252Y-117035000D01*
D14*
%TO.C,J11*%
X163831944Y-110029586D02*
X172031944Y-110029586D01*
X163831944Y-120189586D02*
X163831944Y-110029586D01*
X172031944Y-110029586D02*
X172031944Y-120189586D01*
X172031944Y-120189586D02*
X163831944Y-120189586D01*
D10*
%TO.C,R15*%
X154650000Y-109260000D02*
X154650000Y-109860000D01*
D13*
%TO.C,D9*%
X108267935Y-142365000D02*
X108267935Y-143835000D01*
X108267935Y-143835000D02*
X110552935Y-143835000D01*
X110552935Y-142365000D02*
X108267935Y-142365000D01*
%TO.C,C39*%
X134238748Y-153765000D02*
X134761252Y-153765000D01*
X134238748Y-155235000D02*
X134761252Y-155235000D01*
D10*
%TO.C,IC3*%
X133125000Y-182500000D02*
X133600000Y-182500000D01*
X133950000Y-182600000D02*
X134450000Y-182600000D01*
X133950000Y-184200000D02*
X133950000Y-182600000D01*
X134450000Y-182600000D02*
X134450000Y-184200000D01*
X134450000Y-184200000D02*
X133950000Y-184200000D01*
%TO.C,Q1*%
X152100000Y-164650000D02*
X152500000Y-164650000D01*
X152100000Y-167550000D02*
X152100000Y-164650000D01*
X152500000Y-164650000D02*
X152500000Y-167550000D01*
X152500000Y-167550000D02*
X152100000Y-167550000D01*
X154150000Y-167600000D02*
X152850000Y-167600000D01*
%TO.C,C9*%
X142675000Y-172450000D02*
X150500000Y-172450000D01*
X145775000Y-178750000D02*
X150500000Y-178750000D01*
D13*
%TO.C,D5*%
X90245000Y-122280000D02*
X93335000Y-122280000D01*
X90245170Y-122280000D02*
G75*
G02*
X91790000Y-116730000I1544830J2560000D01*
G01*
X91790000Y-116730000D02*
G75*
G02*
X93334830Y-122280000I0J-2990000D01*
G01*
X94290000Y-119720000D02*
G75*
G02*
X89290000Y-119720000I-2500000J0D01*
G01*
X89290000Y-119720000D02*
G75*
G02*
X94290000Y-119720000I2500000J0D01*
G01*
D10*
%TO.C,D3*%
X140050000Y-167325000D02*
X137350000Y-167325000D01*
X141000000Y-168875000D02*
X137350000Y-168875000D01*
D15*
%TO.C,IC6*%
X110575000Y-151950000D02*
G75*
G02*
X110325000Y-151950000I-125000J0D01*
G01*
X110325000Y-151950000D02*
G75*
G02*
X110575000Y-151950000I125000J0D01*
G01*
D13*
%TO.C,R39*%
X113380435Y-145462742D02*
X113380435Y-145937258D01*
X114425435Y-145462742D02*
X114425435Y-145937258D01*
D10*
%TO.C,R23*%
X155650000Y-115570000D02*
X155050000Y-115570000D01*
D13*
%TO.C,R3*%
X142972936Y-162115000D02*
X143427064Y-162115000D01*
X142972936Y-163585000D02*
X143427064Y-163585000D01*
D10*
%TO.C,D4*%
X155538000Y-161648000D02*
X155538000Y-167052000D01*
X159162000Y-167052000D02*
X159162000Y-161075000D01*
%TO.C,L2*%
X126250000Y-186300000D02*
X130950000Y-186300000D01*
%TO.C,R34*%
X110152935Y-145700000D02*
X110752935Y-145700000D01*
D16*
%TO.C,D2*%
X150200000Y-183780000D02*
X153000000Y-183780000D01*
X153000000Y-185820000D02*
X150200000Y-185820000D01*
D10*
X154300000Y-184800000D02*
G75*
G02*
X154100000Y-184800000I-100000J0D01*
G01*
X154100000Y-184800000D02*
G75*
G02*
X154300000Y-184800000I100000J0D01*
G01*
%TO.C,R12*%
X152600000Y-162800000D02*
X152600000Y-163400000D01*
D13*
%TO.C,C43*%
X139190000Y-114511252D02*
X139190000Y-113088748D01*
X141010000Y-114511252D02*
X141010000Y-113088748D01*
%TO.C,C4*%
X132838748Y-175665000D02*
X133361252Y-175665000D01*
X132838748Y-177135000D02*
X133361252Y-177135000D01*
D10*
%TO.C,R1*%
X100550000Y-187300000D02*
X99950000Y-187300000D01*
%TO.C,F2*%
X155500000Y-189745000D02*
X155500000Y-187455000D01*
%TO.C,C6*%
X134800000Y-192340000D02*
X134800000Y-193740000D01*
%TO.C,J5*%
X106900000Y-194200000D02*
X106900000Y-194200000D01*
X107100000Y-194200000D02*
X107100000Y-194200000D01*
D14*
X108100000Y-190200000D02*
X123100000Y-190200000D01*
X108100000Y-197700000D02*
X108100000Y-190200000D01*
X123100000Y-190200000D02*
X123100000Y-197700000D01*
X123100000Y-197700000D02*
X108100000Y-197700000D01*
D10*
X106900000Y-194200000D02*
G75*
G02*
X107100000Y-194200000I100000J0D01*
G01*
X107100000Y-194200000D02*
G75*
G02*
X106900000Y-194200000I-100000J0D01*
G01*
%TO.C,R35*%
X115452935Y-145600000D02*
X116052935Y-145600000D01*
D13*
%TO.C,R29*%
X111300435Y-163387258D02*
X111300435Y-162912742D01*
X112345435Y-163387258D02*
X112345435Y-162912742D01*
D10*
%TO.C,R14*%
X160250000Y-106650000D02*
G75*
G02*
X160150000Y-106650000I-50000J0D01*
G01*
X160150000Y-106650000D02*
G75*
G02*
X160250000Y-106650000I50000J0D01*
G01*
D13*
%TO.C,D6*%
X111635000Y-183010000D02*
X108545000Y-183010000D01*
X110090000Y-188560000D02*
G75*
G02*
X108545170Y-183010000I0J2990000D01*
G01*
X111634830Y-183010000D02*
G75*
G02*
X110090000Y-188560000I-1544830J-2560000D01*
G01*
X112590000Y-185570000D02*
G75*
G02*
X107590000Y-185570000I-2500000J0D01*
G01*
X107590000Y-185570000D02*
G75*
G02*
X112590000Y-185570000I2500000J0D01*
G01*
%TO.C,R32*%
X114012742Y-157777500D02*
X114487258Y-157777500D01*
X114012742Y-158822500D02*
X114487258Y-158822500D01*
D14*
%TO.C,D8*%
X105302935Y-154350000D02*
X105302935Y-152800000D01*
X106002935Y-153900000D02*
X106002935Y-152800000D01*
D13*
%TO.C,D7*%
X102930000Y-173605000D02*
X102930000Y-170515000D01*
X97380000Y-172060000D02*
G75*
G02*
X102930000Y-170515170I2990000J0D01*
G01*
X102930000Y-173604830D02*
G75*
G02*
X97380000Y-172060000I-2560000J1544830D01*
G01*
X102870000Y-172060000D02*
G75*
G02*
X97870000Y-172060000I-2500000J0D01*
G01*
X97870000Y-172060000D02*
G75*
G02*
X102870000Y-172060000I2500000J0D01*
G01*
D10*
%TO.C,D1*%
X142448000Y-180930000D02*
X142448000Y-188870000D01*
X148352000Y-188870000D02*
X148352000Y-180300000D01*
%TO.C,R21*%
X151400000Y-109260000D02*
X151400000Y-109860000D01*
D13*
%TO.C,R36*%
X119430435Y-149465242D02*
X119430435Y-149939758D01*
X120475435Y-149465242D02*
X120475435Y-149939758D01*
%TO.C,C26*%
X154615000Y-112321252D02*
X154615000Y-111798748D01*
X156085000Y-112321252D02*
X156085000Y-111798748D01*
%TO.C,C40*%
X102563748Y-185815000D02*
X103086252Y-185815000D01*
X102563748Y-187285000D02*
X103086252Y-187285000D01*
%TO.C,C8*%
X133668748Y-195065000D02*
X134191252Y-195065000D01*
X133668748Y-196535000D02*
X134191252Y-196535000D01*
D14*
%TO.C,J1*%
X163100000Y-156820000D02*
X171300000Y-156820000D01*
X163100000Y-166980000D02*
X163100000Y-156820000D01*
X171300000Y-156820000D02*
X171300000Y-166980000D01*
X171300000Y-166980000D02*
X163100000Y-166980000D01*
D10*
%TO.C,C13*%
X98600000Y-183550000D02*
G75*
G02*
X88350000Y-183550000I-5125000J0D01*
G01*
X88350000Y-183550000D02*
G75*
G02*
X98600000Y-183550000I5125000J0D01*
G01*
D14*
%TO.C,D11*%
X105202935Y-155100000D02*
X105202935Y-156200000D01*
X105902935Y-154650000D02*
X105902935Y-156200000D01*
D10*
%TO.C,R26*%
X95930000Y-119747158D02*
X96530000Y-119747158D01*
%TO.C,R28*%
X100450000Y-167260000D02*
X100450000Y-167860000D01*
D13*
%TO.C,Q3*%
X122355435Y-150042500D02*
X123875435Y-150042500D01*
X122355435Y-150092500D02*
X122355435Y-150042500D01*
X122355435Y-151992500D02*
X122355435Y-151212500D01*
X122355435Y-153162500D02*
X122355435Y-153112500D01*
X123875435Y-150042500D02*
X123875435Y-151042500D01*
X123875435Y-152162500D02*
X123875435Y-153162500D01*
X123875435Y-153162500D02*
X122355435Y-153162500D01*
X122055435Y-151552500D02*
X121575435Y-151552500D01*
X121815435Y-151222500D01*
X122055435Y-151552500D01*
G36*
X122055435Y-151552500D02*
G01*
X121575435Y-151552500D01*
X121815435Y-151222500D01*
X122055435Y-151552500D01*
G37*
%TO.C,C11*%
X143538748Y-167565000D02*
X144061252Y-167565000D01*
X143538748Y-169035000D02*
X144061252Y-169035000D01*
D10*
%TO.C,C7*%
X134800000Y-189800000D02*
X134800000Y-191200000D01*
%TO.C,C37*%
X141925000Y-128700000D02*
G75*
G02*
X135375000Y-128700000I-3275000J0D01*
G01*
X135375000Y-128700000D02*
G75*
G02*
X141925000Y-128700000I3275000J0D01*
G01*
%TO.C,R27*%
X114640000Y-187400000D02*
X114040000Y-187400000D01*
%TO.C,C27*%
X117570000Y-117800000D02*
X117570000Y-119200000D01*
D13*
%TO.C,R38*%
X111701784Y-145462742D02*
X111701784Y-145937258D01*
X112746784Y-145462742D02*
X112746784Y-145937258D01*
D10*
%TO.C,IC5*%
X99850000Y-183000000D02*
X102750000Y-183000000D01*
X99850000Y-183600000D02*
X99850000Y-183000000D01*
X102750000Y-183000000D02*
X102750000Y-183600000D01*
X102750000Y-183600000D02*
X99850000Y-183600000D01*
X102900000Y-181450000D02*
X102900000Y-182650000D01*
D13*
%TO.C,C10*%
X143538748Y-169565000D02*
X144061252Y-169565000D01*
X143538748Y-171035000D02*
X144061252Y-171035000D01*
D10*
%TO.C,C29*%
X136375000Y-171600000D02*
G75*
G02*
X129825000Y-171600000I-3275000J0D01*
G01*
X129825000Y-171600000D02*
G75*
G02*
X136375000Y-171600000I3275000J0D01*
G01*
D13*
%TO.C,R31*%
X114112742Y-159477500D02*
X114587258Y-159477500D01*
X114112742Y-160522500D02*
X114587258Y-160522500D01*
D17*
%TO.C,C17*%
X145111000Y-125390400D02*
X145111000Y-126609600D01*
X146889000Y-126609600D02*
X146889000Y-125390400D01*
%TD*%
M02*
