%TF.GenerationSoftware,KiCad,Pcbnew,9.0.7*%
%TF.CreationDate,2026-03-26T22:20:57-05:00*%
%TF.ProjectId,circle_of_life_v2,63697263-6c65-45f6-9f66-5f6c6966655f,rev?*%
%TF.SameCoordinates,Original*%
%TF.FileFunction,Copper,L2,Bot*%
%TF.FilePolarity,Positive*%
%FSLAX46Y46*%
G04 Gerber Fmt 4.6, Leading zero omitted, Abs format (unit mm)*
G04 Created by KiCad (PCBNEW 9.0.7) date 2026-03-26 22:20:57*
%MOMM*%
%LPD*%
G01*
G04 APERTURE LIST*
G04 Aperture macros list*
%AMRoundRect*
0 Rectangle with rounded corners*
0 $1 Rounding radius*
0 $2 $3 $4 $5 $6 $7 $8 $9 X,Y pos of 4 corners*
0 Add a 4 corners polygon primitive as box body*
4,1,4,$2,$3,$4,$5,$6,$7,$8,$9,$2,$3,0*
0 Add four circle primitives for the rounded corners*
1,1,$1+$1,$2,$3*
1,1,$1+$1,$4,$5*
1,1,$1+$1,$6,$7*
1,1,$1+$1,$8,$9*
0 Add four rect primitives between the rounded corners*
20,1,$1+$1,$2,$3,$4,$5,0*
20,1,$1+$1,$4,$5,$6,$7,0*
20,1,$1+$1,$6,$7,$8,$9,0*
20,1,$1+$1,$8,$9,$2,$3,0*%
G04 Aperture macros list end*
%TA.AperFunction,HeatsinkPad*%
%ADD10O,2.100000X1.000000*%
%TD*%
%TA.AperFunction,HeatsinkPad*%
%ADD11O,1.600000X1.000000*%
%TD*%
%TA.AperFunction,ComponentPad*%
%ADD12C,1.650000*%
%TD*%
%TA.AperFunction,ComponentPad*%
%ADD13C,1.950000*%
%TD*%
%TA.AperFunction,ComponentPad*%
%ADD14R,1.800000X1.800000*%
%TD*%
%TA.AperFunction,ComponentPad*%
%ADD15C,1.800000*%
%TD*%
%TA.AperFunction,ComponentPad*%
%ADD16R,4.650000X4.650000*%
%TD*%
%TA.AperFunction,ComponentPad*%
%ADD17C,4.650000*%
%TD*%
%TA.AperFunction,ComponentPad*%
%ADD18R,1.700000X1.700000*%
%TD*%
%TA.AperFunction,ComponentPad*%
%ADD19C,1.700000*%
%TD*%
%TA.AperFunction,SMDPad,CuDef*%
%ADD20RoundRect,0.250000X-0.475000X0.250000X-0.475000X-0.250000X0.475000X-0.250000X0.475000X0.250000X0*%
%TD*%
%TA.AperFunction,SMDPad,CuDef*%
%ADD21R,0.810000X0.940000*%
%TD*%
%TA.AperFunction,SMDPad,CuDef*%
%ADD22R,0.950000X0.800000*%
%TD*%
%TA.AperFunction,ComponentPad*%
%ADD23R,1.100000X1.100000*%
%TD*%
%TA.AperFunction,ComponentPad*%
%ADD24C,1.100000*%
%TD*%
%TA.AperFunction,SMDPad,CuDef*%
%ADD25RoundRect,0.250000X0.475000X-0.250000X0.475000X0.250000X-0.475000X0.250000X-0.475000X-0.250000X0*%
%TD*%
%TA.AperFunction,SMDPad,CuDef*%
%ADD26RoundRect,0.200000X-0.275000X0.200000X-0.275000X-0.200000X0.275000X-0.200000X0.275000X0.200000X0*%
%TD*%
%TA.AperFunction,ComponentPad*%
%ADD27R,1.200000X1.200000*%
%TD*%
%TA.AperFunction,ComponentPad*%
%ADD28C,1.200000*%
%TD*%
%TA.AperFunction,SMDPad,CuDef*%
%ADD29R,0.800000X0.950000*%
%TD*%
%TA.AperFunction,SMDPad,CuDef*%
%ADD30RoundRect,0.200000X0.275000X-0.200000X0.275000X0.200000X-0.275000X0.200000X-0.275000X-0.200000X0*%
%TD*%
%TA.AperFunction,SMDPad,CuDef*%
%ADD31RoundRect,0.250000X-0.475000X0.337500X-0.475000X-0.337500X0.475000X-0.337500X0.475000X0.337500X0*%
%TD*%
%TA.AperFunction,SMDPad,CuDef*%
%ADD32RoundRect,0.200000X0.200000X0.275000X-0.200000X0.275000X-0.200000X-0.275000X0.200000X-0.275000X0*%
%TD*%
%TA.AperFunction,ViaPad*%
%ADD33C,0.600000*%
%TD*%
%TA.AperFunction,Conductor*%
%ADD34C,0.500000*%
%TD*%
%TA.AperFunction,Conductor*%
%ADD35C,0.200000*%
%TD*%
G04 APERTURE END LIST*
D10*
%TO.P,P1,S1,SHIELD*%
%TO.N,GND*%
X176320000Y-52820000D03*
D11*
X180500000Y-52820000D03*
D10*
X176320000Y-44180000D03*
D11*
X180500000Y-44180000D03*
%TD*%
D12*
%TO.P,J5,1,Pin_1*%
%TO.N,+12V*%
X148990000Y-116400000D03*
%TO.P,J5,2,Pin_2*%
%TO.N,Net-(D8-A)*%
X143910000Y-116400000D03*
%TD*%
D13*
%TO.P,J7,1,Pin_1*%
%TO.N,GND*%
X119050000Y-47550000D03*
%TO.P,J7,2,Pin_2*%
%TO.N,+5V*%
X119050000Y-42550000D03*
%TO.P,J7,3,Pin_3*%
%TO.N,FLOW_SGN*%
X119050000Y-37550000D03*
%TD*%
D14*
%TO.P,D7,1,K*%
%TO.N,GND*%
X116100000Y-103000000D03*
D15*
%TO.P,D7,2,A*%
%TO.N,Net-(D7-A)*%
X118640000Y-103000000D03*
%TD*%
D16*
%TO.P,J4,1,1*%
%TO.N,Net-(F1-Pad1)*%
X131277500Y-106900000D03*
D17*
%TO.P,J4,2,2*%
%TO.N,GND*%
X131277500Y-112700000D03*
%TO.P,J4,3,3*%
X136077500Y-109900000D03*
%TD*%
D13*
%TO.P,J8,1,Pin_1*%
%TO.N,+3.3V*%
X178100000Y-76750000D03*
%TO.P,J8,2,Pin_2*%
%TO.N,GND*%
X178100000Y-71750000D03*
%TO.P,J8,3,Pin_3*%
%TO.N,TMP_SGN*%
X178100000Y-66750000D03*
%TD*%
%TO.P,J3,1,Pin_1*%
%TO.N,GND*%
X119100000Y-85075000D03*
%TO.P,J3,2,Pin_2*%
%TO.N,+5V*%
X119100000Y-80075000D03*
%TO.P,J3,3,Pin_3*%
%TO.N,Net-(J3-Pin_3)*%
X119100000Y-75075000D03*
%TD*%
D12*
%TO.P,J9,1,Pin_1*%
%TO.N,LEDS*%
X172700000Y-116750000D03*
%TO.P,J9,2,Pin_2*%
%TO.N,GND*%
X167620000Y-116750000D03*
%TD*%
D14*
%TO.P,D5,1,K*%
%TO.N,GND*%
X116200000Y-111350000D03*
D15*
%TO.P,D5,2,A*%
%TO.N,Net-(D5-A)*%
X118740000Y-111350000D03*
%TD*%
D13*
%TO.P,J6,1,Pin_1*%
%TO.N,GND*%
X119050000Y-66500000D03*
%TO.P,J6,2,Pin_2*%
%TO.N,+5V*%
X119050000Y-61500000D03*
%TO.P,J6,3,Pin_3*%
%TO.N,Net-(J6-Pin_3)*%
X119050000Y-56500000D03*
%TD*%
D14*
%TO.P,D6,1,K*%
%TO.N,GND*%
X116085000Y-94825000D03*
D15*
%TO.P,D6,2,A*%
%TO.N,Net-(D6-A)*%
X118625000Y-94825000D03*
%TD*%
D18*
%TO.P,J2,1,Pin_1*%
%TO.N,TMS*%
X136765000Y-56300000D03*
D19*
%TO.P,J2,2,Pin_2*%
%TO.N,TDI*%
X139305000Y-56300000D03*
%TO.P,J2,3,Pin_3*%
%TO.N,TCK*%
X141845000Y-56300000D03*
%TO.P,J2,4,Pin_4*%
%TO.N,TDO*%
X144385000Y-56300000D03*
%TD*%
D20*
%TO.P,C26,1*%
%TO.N,+5V*%
X123800000Y-62800000D03*
%TO.P,C26,2*%
%TO.N,GND*%
X123800000Y-64700000D03*
%TD*%
D21*
%TO.P,C35,1*%
%TO.N,INTV*%
X161300000Y-99400000D03*
%TO.P,C35,2*%
%TO.N,GND*%
X162640000Y-99400000D03*
%TD*%
D22*
%TO.P,R41,1*%
%TO.N,Net-(IC1-IO18)*%
X156464000Y-49746000D03*
%TO.P,R41,2*%
%TO.N,PWM_DIM*%
X156464000Y-51346000D03*
%TD*%
D23*
%TO.P,C17,1*%
%TO.N,+5V*%
X137312000Y-76538000D03*
D24*
%TO.P,C17,2*%
%TO.N,GND*%
X137312000Y-79038000D03*
%TD*%
D25*
%TO.P,C28,1*%
%TO.N,+3.3V*%
X173400000Y-73950000D03*
%TO.P,C28,2*%
%TO.N,GND*%
X173400000Y-72050000D03*
%TD*%
D26*
%TO.P,R6,1*%
%TO.N,VBUS*%
X181864000Y-47435000D03*
%TO.P,R6,2*%
%TO.N,GND*%
X181864000Y-49085000D03*
%TD*%
D18*
%TO.P,J1,1,Pin_1*%
%TO.N,+3.3V*%
X157750000Y-35725000D03*
D19*
%TO.P,J1,2,Pin_2*%
%TO.N,TXD0*%
X157750000Y-38265000D03*
%TO.P,J1,3,Pin_3*%
%TO.N,RXD0*%
X157750000Y-40805000D03*
%TO.P,J1,4,Pin_4*%
%TO.N,GND*%
X157750000Y-43345000D03*
%TD*%
D20*
%TO.P,C30,1*%
%TO.N,+5V*%
X121750000Y-44100000D03*
%TO.P,C30,2*%
%TO.N,GND*%
X121750000Y-46000000D03*
%TD*%
D22*
%TO.P,R18,1*%
%TO.N,+3.3V*%
X173000000Y-67425000D03*
%TO.P,R18,2*%
%TO.N,TMP_SGN*%
X173000000Y-65825000D03*
%TD*%
D20*
%TO.P,C37,1*%
%TO.N,GND*%
X161775000Y-91075000D03*
%TO.P,C37,2*%
%TO.N,Net-(IC5-CTRL)*%
X161775000Y-92975000D03*
%TD*%
D27*
%TO.P,C2,1*%
%TO.N,+5V*%
X121600000Y-80700000D03*
D28*
%TO.P,C2,2*%
%TO.N,GND*%
X121600000Y-85700000D03*
%TD*%
D20*
%TO.P,C1,1*%
%TO.N,+5V*%
X116400000Y-81675000D03*
%TO.P,C1,2*%
%TO.N,GND*%
X116400000Y-83575000D03*
%TD*%
D29*
%TO.P,R19,1*%
%TO.N,Net-(J6-Pin_3)*%
X121300000Y-56500000D03*
%TO.P,R19,2*%
%TO.N,Net-(R19-Pad2)*%
X122900000Y-56500000D03*
%TD*%
D22*
%TO.P,R40,1*%
%TO.N,PWM_DIM*%
X164973000Y-101600000D03*
%TO.P,R40,2*%
%TO.N,GND*%
X164973000Y-100000000D03*
%TD*%
D30*
%TO.P,R5,1*%
%TO.N,+5VBUS*%
X179832000Y-49085000D03*
%TO.P,R5,2*%
%TO.N,VBUS*%
X179832000Y-47435000D03*
%TD*%
D25*
%TO.P,C31,1*%
%TO.N,+3.3V*%
X175850000Y-73950000D03*
%TO.P,C31,2*%
%TO.N,GND*%
X175850000Y-72050000D03*
%TD*%
D31*
%TO.P,C15,1*%
%TO.N,+12V*%
X146212000Y-75700500D03*
%TO.P,C15,2*%
%TO.N,GND*%
X146212000Y-77775500D03*
%TD*%
D27*
%TO.P,C10,1*%
%TO.N,+12V*%
X151340000Y-109100000D03*
D28*
%TO.P,C10,2*%
%TO.N,GND*%
X151340000Y-105600000D03*
%TD*%
D32*
%TO.P,R3,1*%
%TO.N,Net-(P1-CC1)*%
X170775000Y-49600000D03*
%TO.P,R3,2*%
%TO.N,GND*%
X169125000Y-49600000D03*
%TD*%
D20*
%TO.P,C29,1*%
%TO.N,+5V*%
X121600000Y-62800000D03*
%TO.P,C29,2*%
%TO.N,GND*%
X121600000Y-64700000D03*
%TD*%
D32*
%TO.P,R39,1*%
%TO.N,Net-(P1-CC2)*%
X170815000Y-46863000D03*
%TO.P,R39,2*%
%TO.N,GND*%
X169165000Y-46863000D03*
%TD*%
D23*
%TO.P,C32,1*%
%TO.N,+12V*%
X174100000Y-86300000D03*
D24*
%TO.P,C32,2*%
%TO.N,GND*%
X174100000Y-83800000D03*
%TD*%
D20*
%TO.P,C27,1*%
%TO.N,+5V*%
X124250000Y-44100000D03*
%TO.P,C27,2*%
%TO.N,GND*%
X124250000Y-46000000D03*
%TD*%
D23*
%TO.P,C11,1*%
%TO.N,+12V*%
X144200000Y-74825000D03*
D24*
%TO.P,C11,2*%
%TO.N,GND*%
X144200000Y-77325000D03*
%TD*%
D22*
%TO.P,R34,1*%
%TO.N,Net-(IC5-~{FAULT})*%
X159600000Y-101100000D03*
%TO.P,R34,2*%
%TO.N,INTV*%
X159600000Y-99500000D03*
%TD*%
D29*
%TO.P,R4,1*%
%TO.N,SRV_SGN*%
X123000000Y-75025000D03*
%TO.P,R4,2*%
%TO.N,Net-(J3-Pin_3)*%
X121400000Y-75025000D03*
%TD*%
D33*
%TO.N,+5V*%
X170500000Y-61200000D03*
X171075000Y-53225000D03*
%TO.N,GND*%
X139350000Y-87575000D03*
X167125000Y-40650000D03*
X164850000Y-96675000D03*
X137075000Y-87575000D03*
X129100000Y-34675000D03*
X166150000Y-46400000D03*
X139425000Y-86500000D03*
X153575000Y-100725000D03*
X146150000Y-42425000D03*
X142225000Y-45050000D03*
X169350000Y-39600000D03*
X182200000Y-58675000D03*
X177950000Y-55275000D03*
X163325000Y-40775000D03*
X162575000Y-97975000D03*
X125200000Y-59750000D03*
X140925000Y-42350000D03*
X167575000Y-100675000D03*
X140025000Y-77850000D03*
X167125000Y-38475000D03*
X163700000Y-97925000D03*
X167125000Y-39550000D03*
X156525000Y-100400000D03*
X146125000Y-41075000D03*
X142225000Y-39800000D03*
X157250000Y-91250000D03*
X164450000Y-37425000D03*
X152275000Y-34625000D03*
X138175000Y-34650000D03*
X172500000Y-35675000D03*
X169300000Y-40675000D03*
X164950000Y-97875000D03*
X140925000Y-43750000D03*
X140025000Y-76050000D03*
X138225000Y-86475000D03*
X144800000Y-60875000D03*
X153475000Y-59425000D03*
X143625000Y-45050000D03*
X140925000Y-40925000D03*
X169350000Y-38525000D03*
X168300000Y-38500000D03*
X140300000Y-87600000D03*
X162600000Y-96700000D03*
X140025000Y-76950000D03*
X168275000Y-40675000D03*
X177350000Y-63375000D03*
X139400000Y-50775000D03*
X140425000Y-86550000D03*
X144790000Y-101060000D03*
X144975000Y-45000000D03*
X138200000Y-87550000D03*
X130375000Y-79500000D03*
X168250000Y-39550000D03*
X159600000Y-70650000D03*
X145025000Y-39750000D03*
X176625000Y-55300000D03*
X148550000Y-78900000D03*
X173250000Y-44500000D03*
X137075000Y-86550000D03*
X166850000Y-102075000D03*
X146175000Y-43825000D03*
X169075000Y-99975000D03*
X163700000Y-96700000D03*
X143575000Y-39750000D03*
X172425000Y-58600000D03*
%TO.N,MCU_EN*%
X161925000Y-45587500D03*
X132750000Y-59150000D03*
X138150000Y-37250000D03*
X138150000Y-37250000D03*
%TO.N,IO0*%
X150475000Y-58850000D03*
X153900000Y-52250000D03*
%TO.N,D+*%
X177292000Y-47625000D03*
X177270207Y-48871793D03*
%TO.N,DTR*%
X161950000Y-49525000D03*
X164675000Y-40660000D03*
%TO.N,RTS*%
X164740000Y-38810000D03*
X166000000Y-44900000D03*
%TO.N,VBUS*%
X170700000Y-41875000D03*
%TO.N,+5VBUS*%
X179451000Y-50165000D03*
%TO.N,Net-(P1-CC2)*%
X173863000Y-46736000D03*
%TO.N,Net-(P1-CC1)*%
X173700000Y-49800000D03*
%TO.N,EN*%
X153250000Y-80625000D03*
X157750000Y-52300000D03*
X141700000Y-79375000D03*
X162900000Y-74150000D03*
%TO.N,PH_SGN*%
X134650000Y-43575000D03*
X130212500Y-45987500D03*
%TO.N,FLOW_SGN*%
X133100000Y-40125000D03*
X126050000Y-37300000D03*
%TO.N,TMP_SGN*%
X157500000Y-48500000D03*
%TO.N,SRV_SGN*%
X134450000Y-47325000D03*
X124125000Y-75000000D03*
X131200000Y-70225000D03*
%TO.N,PH_FAULT*%
X134625000Y-44850000D03*
X123050000Y-112925000D03*
%TO.N,FLOW_FAULT*%
X152146000Y-47371000D03*
X122675000Y-96450000D03*
X126150000Y-61468000D03*
%TO.N,TEMP_FAULT*%
X123250000Y-104700000D03*
X152146000Y-46101000D03*
%TO.N,PUMP_SGN*%
X134425000Y-48650000D03*
X149350000Y-101825000D03*
%TO.N,Net-(R19-Pad2)*%
X124350000Y-56550000D03*
%TO.N,INTV*%
X164550000Y-94400000D03*
%TO.N,Net-(IC5-CTRL)*%
X161789235Y-94435765D03*
%TO.N,ISP*%
X161250000Y-95700000D03*
X173350000Y-103225000D03*
X163075000Y-104025000D03*
X165875000Y-104025000D03*
%TO.N,PWM_DIM*%
X163725000Y-103050000D03*
%TO.N,Net-(IC5-~{FAULT})*%
X159600000Y-102150000D03*
%TO.N,ISN*%
X160250000Y-96600000D03*
X174200000Y-104400000D03*
%TO.N,Net-(Q4-G)*%
X173100000Y-110300000D03*
X180450000Y-109975000D03*
%TO.N,Net-(IC1-IO18)*%
X156475000Y-47752000D03*
%TD*%
D34*
%TO.N,+5V*%
X120900000Y-44100000D02*
X121750000Y-44100000D01*
X170500000Y-53800000D02*
X170500000Y-61200000D01*
X121600000Y-62800000D02*
X123800000Y-62800000D01*
X120550000Y-43750000D02*
X120900000Y-44100000D01*
X171075000Y-53225000D02*
X170500000Y-53800000D01*
X119050000Y-42550000D02*
X120250000Y-43750000D01*
X120350000Y-62800000D02*
X121600000Y-62800000D01*
X117500000Y-81675000D02*
X119100000Y-80075000D01*
X119050000Y-61500000D02*
X120350000Y-62800000D01*
X121450000Y-80075000D02*
X121600000Y-80225000D01*
X120250000Y-43750000D02*
X120550000Y-43750000D01*
X116400000Y-81675000D02*
X117500000Y-81675000D01*
X119100000Y-80075000D02*
X121450000Y-80075000D01*
X121750000Y-44100000D02*
X124250000Y-44100000D01*
%TO.N,+3.3V*%
X173400000Y-73950000D02*
X175850000Y-73950000D01*
X173000000Y-67425000D02*
X172500000Y-67425000D01*
X171700000Y-73325000D02*
X172375000Y-74000000D01*
X172375000Y-74000000D02*
X172425000Y-73950000D01*
X171700000Y-68225000D02*
X171700000Y-73325000D01*
X175850000Y-74500000D02*
X178100000Y-76750000D01*
X172500000Y-67425000D02*
X171700000Y-68225000D01*
X175850000Y-73950000D02*
X175850000Y-74500000D01*
X172425000Y-73950000D02*
X173400000Y-73950000D01*
D35*
%TO.N,MCU_EN*%
X138586000Y-46736000D02*
X138150000Y-46300000D01*
X132750000Y-56750000D02*
X132750000Y-59150000D01*
X160776500Y-46736000D02*
X138586000Y-46736000D01*
X161925000Y-45587500D02*
X160776500Y-46736000D01*
X138150000Y-51350000D02*
X132750000Y-56750000D01*
X138150000Y-46300000D02*
X138150000Y-37250000D01*
X138150000Y-37250000D02*
X138150000Y-51350000D01*
%TO.N,IO0*%
X153900000Y-55425000D02*
X150475000Y-58850000D01*
X153900000Y-52250000D02*
X153900000Y-55425000D01*
%TO.N,D+*%
X177292000Y-48850000D02*
X177270207Y-48871793D01*
X177292000Y-47625000D02*
X177292000Y-48850000D01*
%TO.N,DTR*%
X164675000Y-40660000D02*
X164675000Y-46800000D01*
X164675000Y-46800000D02*
X161950000Y-49525000D01*
%TO.N,RTS*%
X165975000Y-44875000D02*
X165975000Y-40045000D01*
X165975000Y-40045000D02*
X164740000Y-38810000D01*
X166000000Y-44900000D02*
X165975000Y-44875000D01*
%TO.N,VBUS*%
X179832000Y-47435000D02*
X181864000Y-47435000D01*
X176208943Y-46609000D02*
X171474943Y-41875000D01*
X178684000Y-46609000D02*
X176208943Y-46609000D01*
X179832000Y-47435000D02*
X179510000Y-47435000D01*
X171474943Y-41875000D02*
X170700000Y-41875000D01*
X179510000Y-47435000D02*
X178684000Y-46609000D01*
D34*
%TO.N,+5VBUS*%
X179515000Y-49085000D02*
X179832000Y-49085000D01*
X179451000Y-50165000D02*
X179451000Y-49149000D01*
X179451000Y-49149000D02*
X179515000Y-49085000D01*
D35*
%TO.N,Net-(P1-CC2)*%
X173736000Y-46863000D02*
X170815000Y-46863000D01*
X173863000Y-46736000D02*
X173736000Y-46863000D01*
%TO.N,Net-(P1-CC1)*%
X173650000Y-49750000D02*
X171025000Y-49750000D01*
X171025000Y-49750000D02*
X170775000Y-49500000D01*
X173700000Y-49800000D02*
X173650000Y-49750000D01*
D34*
%TO.N,+12V*%
X145074000Y-74825000D02*
X146212000Y-75963000D01*
X144200000Y-74825000D02*
X145074000Y-74825000D01*
D35*
%TO.N,EN*%
X141787998Y-79462998D02*
X141787998Y-79837998D01*
X141700000Y-79375000D02*
X141787998Y-79462998D01*
X162900000Y-69400000D02*
X162900000Y-74150000D01*
X157750000Y-64250000D02*
X162900000Y-69400000D01*
X142575000Y-80625000D02*
X153250000Y-80625000D01*
X141787998Y-79837998D02*
X142575000Y-80625000D01*
X157750000Y-52300000D02*
X157750000Y-64250000D01*
%TO.N,Net-(J3-Pin_3)*%
X121400000Y-75025000D02*
X119150000Y-75025000D01*
X119150000Y-75025000D02*
X119100000Y-75075000D01*
%TO.N,PH_SGN*%
X132625000Y-43575000D02*
X134650000Y-43575000D01*
X130212500Y-45987500D02*
X132625000Y-43575000D01*
%TO.N,FLOW_SGN*%
X126050000Y-37300000D02*
X128875000Y-40125000D01*
X128875000Y-40125000D02*
X133100000Y-40125000D01*
%TO.N,TMP_SGN*%
X167875000Y-65825000D02*
X173000000Y-65825000D01*
X173000000Y-65825000D02*
X177175000Y-65825000D01*
X157500000Y-48500000D02*
X157500000Y-50250000D01*
X177175000Y-65825000D02*
X178100000Y-66750000D01*
X158625000Y-56625000D02*
X167850000Y-65850000D01*
X158625000Y-51375000D02*
X158625000Y-56625000D01*
X157500000Y-50250000D02*
X158625000Y-51375000D01*
X167850000Y-65850000D02*
X167875000Y-65825000D01*
%TO.N,SRV_SGN*%
X131200000Y-50575000D02*
X134450000Y-47325000D01*
X124125000Y-75000000D02*
X123025000Y-75000000D01*
X131200000Y-70225000D02*
X131200000Y-50575000D01*
X123025000Y-75000000D02*
X123000000Y-75025000D01*
%TO.N,PH_FAULT*%
X123950000Y-112025000D02*
X123950000Y-107125000D01*
X129975000Y-47925000D02*
X133050000Y-44850000D01*
X129975000Y-101100000D02*
X129975000Y-79949943D01*
X123050000Y-112925000D02*
X123950000Y-112025000D01*
X129975000Y-79050057D02*
X129975000Y-47925000D01*
X123950000Y-107125000D02*
X129975000Y-101100000D01*
X129774000Y-79748943D02*
X129774000Y-79251057D01*
X129774000Y-79251057D02*
X129975000Y-79050057D01*
X133050000Y-44850000D02*
X134625000Y-44850000D01*
X129975000Y-79949943D02*
X129774000Y-79748943D01*
%TO.N,FLOW_FAULT*%
X123750000Y-96450000D02*
X122675000Y-96450000D01*
X126150000Y-94050000D02*
X123750000Y-96450000D01*
X126150000Y-61468000D02*
X126150000Y-94050000D01*
%TO.N,TEMP_FAULT*%
X135052971Y-37286029D02*
X135052971Y-41922029D01*
X127975000Y-45800000D02*
X127975000Y-98850000D01*
X135690000Y-36649000D02*
X135052971Y-37286029D01*
X151330000Y-36649000D02*
X135690000Y-36649000D01*
X152019000Y-45974000D02*
X152019000Y-37338000D01*
X123250000Y-103575000D02*
X123250000Y-104700000D01*
X131450000Y-42325000D02*
X127975000Y-45800000D01*
X134650000Y-42325000D02*
X131450000Y-42325000D01*
X127975000Y-98850000D02*
X123250000Y-103575000D01*
X135052971Y-41922029D02*
X134650000Y-42325000D01*
X152019000Y-37338000D02*
X151330000Y-36649000D01*
%TO.N,PUMP_SGN*%
X144700000Y-97175000D02*
X149350000Y-101825000D01*
X132000000Y-84500000D02*
X144675000Y-97175000D01*
X132000000Y-51075000D02*
X132000000Y-84500000D01*
X144675000Y-97175000D02*
X144700000Y-97175000D01*
X134425000Y-48650000D02*
X132000000Y-51075000D01*
%TO.N,Net-(R19-Pad2)*%
X122900000Y-56500000D02*
X124300000Y-56500000D01*
X124300000Y-56500000D02*
X124350000Y-56550000D01*
%TO.N,INTV*%
X158050000Y-91200000D02*
X159275000Y-89975000D01*
X159275000Y-89975000D02*
X163150000Y-89975000D01*
X159600000Y-99500000D02*
X158775000Y-99500000D01*
X158050000Y-98775000D02*
X158050000Y-91200000D01*
X159600000Y-99500000D02*
X161200000Y-99500000D01*
X158775000Y-99500000D02*
X158050000Y-98775000D01*
X163150000Y-89975000D02*
X164550000Y-91375000D01*
X164550000Y-91375000D02*
X164550000Y-94400000D01*
X161200000Y-99500000D02*
X161300000Y-99400000D01*
D34*
%TO.N,Net-(IC5-CTRL)*%
X161775000Y-92975000D02*
X161775000Y-94421530D01*
X161775000Y-94421530D02*
X161789235Y-94435765D01*
D35*
%TO.N,ISP*%
X163075000Y-104025000D02*
X165875000Y-104025000D01*
X167700000Y-95700000D02*
X161250000Y-95700000D01*
X173350000Y-101350000D02*
X167700000Y-95700000D01*
X173350000Y-103225000D02*
X173350000Y-101350000D01*
%TO.N,PWM_DIM*%
X156475000Y-51943000D02*
X156475000Y-99000000D01*
X156464000Y-51346000D02*
X156464000Y-51932000D01*
X157750000Y-102950000D02*
X158175000Y-103375000D01*
X163725000Y-103050000D02*
X164539000Y-103050000D01*
X156475000Y-99000000D02*
X157750000Y-100275000D01*
X163400000Y-103375000D02*
X163725000Y-103050000D01*
X156464000Y-51932000D02*
X156475000Y-51943000D01*
X164973000Y-102616000D02*
X164973000Y-101600000D01*
X164539000Y-103050000D02*
X164973000Y-102616000D01*
X157750000Y-100275000D02*
X157750000Y-102950000D01*
X156475000Y-51689000D02*
X156475000Y-51943000D01*
X158175000Y-103375000D02*
X163400000Y-103375000D01*
%TO.N,Net-(IC5-~{FAULT})*%
X159600000Y-102150000D02*
X159600000Y-101100000D01*
%TO.N,ISN*%
X174200000Y-104400000D02*
X174200000Y-101225000D01*
X174200000Y-101225000D02*
X168074000Y-95099000D01*
X168074000Y-95099000D02*
X160851000Y-95099000D01*
X160250000Y-95700000D02*
X160250000Y-96600000D01*
X160851000Y-95099000D02*
X160250000Y-95700000D01*
%TO.N,Net-(J6-Pin_3)*%
X121300000Y-56500000D02*
X119050000Y-56500000D01*
%TO.N,Net-(Q4-G)*%
X173425000Y-109975000D02*
X173100000Y-110300000D01*
X180450000Y-109975000D02*
X173425000Y-109975000D01*
%TO.N,Net-(IC1-IO18)*%
X156475000Y-47752000D02*
X156475000Y-49735000D01*
X156475000Y-49735000D02*
X156464000Y-49746000D01*
%TD*%
%TA.AperFunction,Conductor*%
%TO.N,GND*%
G36*
X151221206Y-36969185D02*
G01*
X151241848Y-36985819D01*
X151682181Y-37426152D01*
X151715666Y-37487475D01*
X151718500Y-37513833D01*
X151718500Y-45807225D01*
X151701887Y-45869224D01*
X151679611Y-45907807D01*
X151679609Y-45907812D01*
X151679608Y-45907814D01*
X151645500Y-46035108D01*
X151645500Y-46166892D01*
X151655002Y-46202354D01*
X151675648Y-46279407D01*
X151673985Y-46349257D01*
X151634822Y-46407119D01*
X151570593Y-46434623D01*
X151555873Y-46435500D01*
X138761833Y-46435500D01*
X138694794Y-46415815D01*
X138674152Y-46399181D01*
X138486819Y-46211848D01*
X138453334Y-46150525D01*
X138450500Y-46124167D01*
X138450500Y-37708676D01*
X138470185Y-37641637D01*
X138486819Y-37620995D01*
X138512472Y-37595342D01*
X138550500Y-37557314D01*
X138616392Y-37443186D01*
X138650500Y-37315892D01*
X138650500Y-37184108D01*
X138629462Y-37105592D01*
X138631125Y-37035743D01*
X138670288Y-36977881D01*
X138734516Y-36950377D01*
X138749237Y-36949500D01*
X151154167Y-36949500D01*
X151221206Y-36969185D01*
G37*
%TD.AperFunction*%
%TA.AperFunction,Conductor*%
G36*
X183325849Y-33995870D02*
G01*
X183392831Y-34015743D01*
X183438438Y-34068675D01*
X183449500Y-34119870D01*
X183449500Y-121675500D01*
X183429815Y-121742539D01*
X183377011Y-121788294D01*
X183325500Y-121799500D01*
X113674500Y-121799500D01*
X113607461Y-121779815D01*
X113561706Y-121727011D01*
X113550500Y-121675500D01*
X113550500Y-118853711D01*
X114574500Y-118853711D01*
X114574500Y-119096288D01*
X114606161Y-119336785D01*
X114668947Y-119571104D01*
X114761773Y-119795205D01*
X114761776Y-119795212D01*
X114883064Y-120005289D01*
X114883066Y-120005292D01*
X114883067Y-120005293D01*
X115030733Y-120197736D01*
X115030739Y-120197743D01*
X115202256Y-120369260D01*
X115202262Y-120369265D01*
X115394711Y-120516936D01*
X115604788Y-120638224D01*
X115828900Y-120731054D01*
X116063211Y-120793838D01*
X116243586Y-120817584D01*
X116303711Y-120825500D01*
X116303712Y-120825500D01*
X116546289Y-120825500D01*
X116594388Y-120819167D01*
X116786789Y-120793838D01*
X117021100Y-120731054D01*
X117245212Y-120638224D01*
X117455289Y-120516936D01*
X117647738Y-120369265D01*
X117819265Y-120197738D01*
X117966936Y-120005289D01*
X118088224Y-119795212D01*
X118181054Y-119571100D01*
X118243838Y-119336789D01*
X118275500Y-119096288D01*
X118275500Y-118853712D01*
X118275500Y-118853711D01*
X178824500Y-118853711D01*
X178824500Y-119096288D01*
X178856161Y-119336785D01*
X178918947Y-119571104D01*
X179011773Y-119795205D01*
X179011776Y-119795212D01*
X179133064Y-120005289D01*
X179133066Y-120005292D01*
X179133067Y-120005293D01*
X179280733Y-120197736D01*
X179280739Y-120197743D01*
X179452256Y-120369260D01*
X179452262Y-120369265D01*
X179644711Y-120516936D01*
X179854788Y-120638224D01*
X180078900Y-120731054D01*
X180313211Y-120793838D01*
X180493586Y-120817584D01*
X180553711Y-120825500D01*
X180553712Y-120825500D01*
X180796289Y-120825500D01*
X180844388Y-120819167D01*
X181036789Y-120793838D01*
X181271100Y-120731054D01*
X181495212Y-120638224D01*
X181705289Y-120516936D01*
X181897738Y-120369265D01*
X182069265Y-120197738D01*
X182216936Y-120005289D01*
X182338224Y-119795212D01*
X182431054Y-119571100D01*
X182493838Y-119336789D01*
X182525500Y-119096288D01*
X182525500Y-118853712D01*
X182493838Y-118613211D01*
X182431054Y-118378900D01*
X182338224Y-118154788D01*
X182216936Y-117944711D01*
X182087096Y-117775500D01*
X182069266Y-117752263D01*
X182069260Y-117752256D01*
X181897743Y-117580739D01*
X181897736Y-117580733D01*
X181705293Y-117433067D01*
X181705292Y-117433066D01*
X181705289Y-117433064D01*
X181495212Y-117311776D01*
X181487996Y-117308787D01*
X181271104Y-117218947D01*
X181036785Y-117156161D01*
X180796289Y-117124500D01*
X180796288Y-117124500D01*
X180553712Y-117124500D01*
X180553711Y-117124500D01*
X180313214Y-117156161D01*
X180078895Y-117218947D01*
X179854794Y-117311773D01*
X179854785Y-117311777D01*
X179644706Y-117433067D01*
X179452263Y-117580733D01*
X179452256Y-117580739D01*
X179280739Y-117752256D01*
X179280733Y-117752263D01*
X179133067Y-117944706D01*
X179011777Y-118154785D01*
X179011773Y-118154794D01*
X178918947Y-118378895D01*
X178856161Y-118613214D01*
X178824500Y-118853711D01*
X118275500Y-118853711D01*
X118243838Y-118613211D01*
X118181054Y-118378900D01*
X118088224Y-118154788D01*
X117966936Y-117944711D01*
X117837096Y-117775500D01*
X117819266Y-117752263D01*
X117819260Y-117752256D01*
X117647743Y-117580739D01*
X117647736Y-117580733D01*
X117455293Y-117433067D01*
X117455292Y-117433066D01*
X117455289Y-117433064D01*
X117245212Y-117311776D01*
X117237996Y-117308787D01*
X117021104Y-117218947D01*
X116786785Y-117156161D01*
X116546289Y-117124500D01*
X116546288Y-117124500D01*
X116303712Y-117124500D01*
X116303711Y-117124500D01*
X116063214Y-117156161D01*
X115828895Y-117218947D01*
X115604794Y-117311773D01*
X115604785Y-117311777D01*
X115394706Y-117433067D01*
X115202263Y-117580733D01*
X115202256Y-117580739D01*
X115030739Y-117752256D01*
X115030733Y-117752263D01*
X114883067Y-117944706D01*
X114761777Y-118154785D01*
X114761773Y-118154794D01*
X114668947Y-118378895D01*
X114606161Y-118613214D01*
X114574500Y-118853711D01*
X113550500Y-118853711D01*
X113550500Y-116298992D01*
X142884500Y-116298992D01*
X142884500Y-116501007D01*
X142923907Y-116699119D01*
X142923909Y-116699127D01*
X143001212Y-116885752D01*
X143001217Y-116885762D01*
X143113441Y-117053718D01*
X143256281Y-117196558D01*
X143424237Y-117308782D01*
X143424241Y-117308784D01*
X143424244Y-117308786D01*
X143610873Y-117386091D01*
X143808992Y-117425499D01*
X143808996Y-117425500D01*
X143808997Y-117425500D01*
X144011004Y-117425500D01*
X144011005Y-117425499D01*
X144209127Y-117386091D01*
X144395756Y-117308786D01*
X144563718Y-117196558D01*
X144706558Y-117053718D01*
X144818786Y-116885756D01*
X144896091Y-116699127D01*
X144935500Y-116501003D01*
X144935500Y-116298997D01*
X144935499Y-116298992D01*
X147964500Y-116298992D01*
X147964500Y-116501007D01*
X148003907Y-116699119D01*
X148003909Y-116699127D01*
X148081212Y-116885752D01*
X148081217Y-116885762D01*
X148193441Y-117053718D01*
X148336281Y-117196558D01*
X148504237Y-117308782D01*
X148504241Y-117308784D01*
X148504244Y-117308786D01*
X148690873Y-117386091D01*
X148888992Y-117425499D01*
X148888996Y-117425500D01*
X148888997Y-117425500D01*
X149091004Y-117425500D01*
X149091005Y-117425499D01*
X149289127Y-117386091D01*
X149475756Y-117308786D01*
X149643718Y-117196558D01*
X149786558Y-117053718D01*
X149898786Y-116885756D01*
X149976091Y-116699127D01*
X149980215Y-116678391D01*
X149986063Y-116648992D01*
X171674500Y-116648992D01*
X171674500Y-116851007D01*
X171713907Y-117049119D01*
X171713909Y-117049127D01*
X171791212Y-117235752D01*
X171791217Y-117235762D01*
X171903441Y-117403718D01*
X172046281Y-117546558D01*
X172214237Y-117658782D01*
X172214241Y-117658784D01*
X172214244Y-117658786D01*
X172400873Y-117736091D01*
X172598992Y-117775499D01*
X172598996Y-117775500D01*
X172598997Y-117775500D01*
X172801004Y-117775500D01*
X172801005Y-117775499D01*
X172999127Y-117736091D01*
X173185756Y-117658786D01*
X173353718Y-117546558D01*
X173496558Y-117403718D01*
X173608786Y-117235756D01*
X173686091Y-117049127D01*
X173725500Y-116851003D01*
X173725500Y-116648997D01*
X173686091Y-116450873D01*
X173608786Y-116264244D01*
X173608784Y-116264241D01*
X173608782Y-116264237D01*
X173496558Y-116096281D01*
X173353718Y-115953441D01*
X173185762Y-115841217D01*
X173185752Y-115841212D01*
X172999127Y-115763909D01*
X172999119Y-115763907D01*
X172801007Y-115724500D01*
X172801003Y-115724500D01*
X172598997Y-115724500D01*
X172598992Y-115724500D01*
X172400880Y-115763907D01*
X172400872Y-115763909D01*
X172214247Y-115841212D01*
X172214237Y-115841217D01*
X172046281Y-115953441D01*
X171903441Y-116096281D01*
X171791217Y-116264237D01*
X171791212Y-116264247D01*
X171713909Y-116450872D01*
X171713907Y-116450880D01*
X171674500Y-116648992D01*
X149986063Y-116648992D01*
X149992081Y-116618742D01*
X149992086Y-116618714D01*
X150015499Y-116501007D01*
X150015500Y-116501003D01*
X150015500Y-116298997D01*
X149976091Y-116100873D01*
X149898786Y-115914244D01*
X149898784Y-115914241D01*
X149898782Y-115914237D01*
X149786558Y-115746281D01*
X149643718Y-115603441D01*
X149475762Y-115491217D01*
X149475752Y-115491212D01*
X149289127Y-115413909D01*
X149289119Y-115413907D01*
X149091007Y-115374500D01*
X149091003Y-115374500D01*
X148888997Y-115374500D01*
X148888992Y-115374500D01*
X148690880Y-115413907D01*
X148690872Y-115413909D01*
X148504247Y-115491212D01*
X148504237Y-115491217D01*
X148336281Y-115603441D01*
X148193441Y-115746281D01*
X148081217Y-115914237D01*
X148081212Y-115914247D01*
X148003909Y-116100872D01*
X148003907Y-116100880D01*
X147964500Y-116298992D01*
X144935499Y-116298992D01*
X144896091Y-116100873D01*
X144818786Y-115914244D01*
X144818784Y-115914241D01*
X144818782Y-115914237D01*
X144706558Y-115746281D01*
X144563718Y-115603441D01*
X144395762Y-115491217D01*
X144395752Y-115491212D01*
X144209127Y-115413909D01*
X144209119Y-115413907D01*
X144011007Y-115374500D01*
X144011003Y-115374500D01*
X143808997Y-115374500D01*
X143808992Y-115374500D01*
X143610880Y-115413907D01*
X143610872Y-115413909D01*
X143424247Y-115491212D01*
X143424237Y-115491217D01*
X143256281Y-115603441D01*
X143113441Y-115746281D01*
X143001217Y-115914237D01*
X143001212Y-115914247D01*
X142923909Y-116100872D01*
X142923907Y-116100880D01*
X142884500Y-116298992D01*
X113550500Y-116298992D01*
X113550500Y-112859108D01*
X122549500Y-112859108D01*
X122549500Y-112990891D01*
X122583608Y-113118187D01*
X122616554Y-113175250D01*
X122649500Y-113232314D01*
X122742686Y-113325500D01*
X122856814Y-113391392D01*
X122984108Y-113425500D01*
X122984110Y-113425500D01*
X123115890Y-113425500D01*
X123115892Y-113425500D01*
X123243186Y-113391392D01*
X123357314Y-113325500D01*
X123450500Y-113232314D01*
X123516392Y-113118186D01*
X123550500Y-112990892D01*
X123550500Y-112900832D01*
X123570185Y-112833793D01*
X123586819Y-112813151D01*
X123782287Y-112617683D01*
X124190460Y-112209511D01*
X124202063Y-112189414D01*
X124230021Y-112140989D01*
X124250500Y-112064562D01*
X124250500Y-110234108D01*
X172599500Y-110234108D01*
X172599500Y-110365892D01*
X172616554Y-110429539D01*
X172633608Y-110493187D01*
X172643654Y-110510586D01*
X172699500Y-110607314D01*
X172792686Y-110700500D01*
X172906814Y-110766392D01*
X173034108Y-110800500D01*
X173034110Y-110800500D01*
X173165890Y-110800500D01*
X173165892Y-110800500D01*
X173293186Y-110766392D01*
X173407314Y-110700500D01*
X173500500Y-110607314D01*
X173566392Y-110493186D01*
X173600094Y-110367405D01*
X173636459Y-110307746D01*
X173699306Y-110277217D01*
X173719869Y-110275500D01*
X179991324Y-110275500D01*
X180058363Y-110295185D01*
X180079005Y-110311819D01*
X180142686Y-110375500D01*
X180256814Y-110441392D01*
X180384108Y-110475500D01*
X180384110Y-110475500D01*
X180515890Y-110475500D01*
X180515892Y-110475500D01*
X180643186Y-110441392D01*
X180757314Y-110375500D01*
X180850500Y-110282314D01*
X180916392Y-110168186D01*
X180950500Y-110040892D01*
X180950500Y-109909108D01*
X180916392Y-109781814D01*
X180850500Y-109667686D01*
X180757314Y-109574500D01*
X180700250Y-109541554D01*
X180643187Y-109508608D01*
X180579539Y-109491554D01*
X180515892Y-109474500D01*
X180384108Y-109474500D01*
X180256812Y-109508608D01*
X180142686Y-109574500D01*
X180142683Y-109574502D01*
X180079005Y-109638181D01*
X180017682Y-109671666D01*
X179991324Y-109674500D01*
X173385438Y-109674500D01*
X173354867Y-109682691D01*
X173309008Y-109694979D01*
X173309007Y-109694980D01*
X173273903Y-109715248D01*
X173273899Y-109715250D01*
X173266110Y-109719748D01*
X173240489Y-109734540D01*
X173206717Y-109768310D01*
X173201021Y-109772810D01*
X173175072Y-109783261D01*
X173150524Y-109796666D01*
X173138612Y-109797946D01*
X173136211Y-109798914D01*
X173133832Y-109798460D01*
X173124166Y-109799500D01*
X173034108Y-109799500D01*
X172906812Y-109833608D01*
X172792686Y-109899500D01*
X172792683Y-109899502D01*
X172699502Y-109992683D01*
X172699500Y-109992686D01*
X172633608Y-110106812D01*
X172617163Y-110168187D01*
X172599500Y-110234108D01*
X124250500Y-110234108D01*
X124250500Y-107300833D01*
X124270185Y-107233794D01*
X124286819Y-107213152D01*
X126944724Y-104555247D01*
X128752000Y-104555247D01*
X128752000Y-109244752D01*
X128763631Y-109303229D01*
X128763632Y-109303230D01*
X128807947Y-109369552D01*
X128874269Y-109413867D01*
X128874270Y-109413868D01*
X128932747Y-109425499D01*
X128932750Y-109425500D01*
X128932752Y-109425500D01*
X133622250Y-109425500D01*
X133622251Y-109425499D01*
X133637068Y-109422552D01*
X133680729Y-109413868D01*
X133680729Y-109413867D01*
X133680731Y-109413867D01*
X133747052Y-109369552D01*
X133791367Y-109303231D01*
X133791367Y-109303229D01*
X133791368Y-109303229D01*
X133802999Y-109244752D01*
X133803000Y-109244750D01*
X133803000Y-108480247D01*
X150539500Y-108480247D01*
X150539500Y-109719752D01*
X150551131Y-109778229D01*
X150551132Y-109778230D01*
X150595447Y-109844552D01*
X150661769Y-109888867D01*
X150661770Y-109888868D01*
X150720247Y-109900499D01*
X150720250Y-109900500D01*
X150720252Y-109900500D01*
X151959750Y-109900500D01*
X151959751Y-109900499D01*
X151974568Y-109897552D01*
X152018229Y-109888868D01*
X152018229Y-109888867D01*
X152018231Y-109888867D01*
X152084552Y-109844552D01*
X152128867Y-109778231D01*
X152128867Y-109778229D01*
X152128868Y-109778229D01*
X152140499Y-109719752D01*
X152140500Y-109719747D01*
X152140500Y-108480249D01*
X152140499Y-108480247D01*
X152128868Y-108421770D01*
X152128867Y-108421769D01*
X152084552Y-108355447D01*
X152018230Y-108311132D01*
X152018229Y-108311131D01*
X151959752Y-108299500D01*
X151959748Y-108299500D01*
X150720252Y-108299500D01*
X150720247Y-108299500D01*
X150661770Y-108311131D01*
X150661769Y-108311132D01*
X150595447Y-108355447D01*
X150551132Y-108421769D01*
X150551131Y-108421770D01*
X150539500Y-108480247D01*
X133803000Y-108480247D01*
X133803000Y-104555249D01*
X133802999Y-104555247D01*
X133791368Y-104496770D01*
X133791367Y-104496769D01*
X133747052Y-104430447D01*
X133680730Y-104386132D01*
X133680729Y-104386131D01*
X133622252Y-104374500D01*
X133622248Y-104374500D01*
X128932752Y-104374500D01*
X128932747Y-104374500D01*
X128874270Y-104386131D01*
X128874269Y-104386132D01*
X128807947Y-104430447D01*
X128763632Y-104496769D01*
X128763631Y-104496770D01*
X128752000Y-104555247D01*
X126944724Y-104555247D01*
X127038492Y-104461479D01*
X128623816Y-102876155D01*
X130215460Y-101284511D01*
X130255022Y-101215988D01*
X130275500Y-101139562D01*
X130275500Y-101060438D01*
X130275500Y-79910381D01*
X130255021Y-79833954D01*
X130252876Y-79830239D01*
X130215464Y-79765438D01*
X130215458Y-79765430D01*
X130110819Y-79660791D01*
X130096115Y-79633863D01*
X130079523Y-79608045D01*
X130078631Y-79601844D01*
X130077334Y-79599468D01*
X130074500Y-79573110D01*
X130074500Y-79426890D01*
X130094185Y-79359851D01*
X130110819Y-79339209D01*
X130140920Y-79309108D01*
X130215460Y-79234568D01*
X130240909Y-79190489D01*
X130255021Y-79166046D01*
X130275500Y-79089619D01*
X130275500Y-48100833D01*
X130295185Y-48033794D01*
X130311819Y-48013152D01*
X133138152Y-45186819D01*
X133199475Y-45153334D01*
X133225833Y-45150500D01*
X134166324Y-45150500D01*
X134233363Y-45170185D01*
X134254005Y-45186819D01*
X134317686Y-45250500D01*
X134431814Y-45316392D01*
X134559108Y-45350500D01*
X134559110Y-45350500D01*
X134690890Y-45350500D01*
X134690892Y-45350500D01*
X134818186Y-45316392D01*
X134932314Y-45250500D01*
X135025500Y-45157314D01*
X135091392Y-45043186D01*
X135125500Y-44915892D01*
X135125500Y-44784108D01*
X135091392Y-44656814D01*
X135025500Y-44542686D01*
X134932314Y-44449500D01*
X134853967Y-44404266D01*
X134818187Y-44383608D01*
X134754539Y-44366554D01*
X134690892Y-44349500D01*
X134559108Y-44349500D01*
X134431812Y-44383608D01*
X134317686Y-44449500D01*
X134317683Y-44449502D01*
X134254005Y-44513181D01*
X134192682Y-44546666D01*
X134166324Y-44549500D01*
X133010438Y-44549500D01*
X132934010Y-44569978D01*
X132865489Y-44609540D01*
X132865486Y-44609542D01*
X129734541Y-47740487D01*
X129734535Y-47740495D01*
X129694982Y-47809004D01*
X129694979Y-47809009D01*
X129674500Y-47885439D01*
X129674500Y-78874224D01*
X129654815Y-78941263D01*
X129638181Y-78961905D01*
X129533541Y-79066544D01*
X129533535Y-79066552D01*
X129493982Y-79135061D01*
X129493979Y-79135066D01*
X129485678Y-79166046D01*
X129473500Y-79211495D01*
X129473500Y-79788505D01*
X129484683Y-79830239D01*
X129493979Y-79864933D01*
X129495809Y-79868102D01*
X129501270Y-79877560D01*
X129533540Y-79933454D01*
X129641958Y-80041872D01*
X129645398Y-80045962D01*
X129657379Y-80073254D01*
X129671666Y-80099418D01*
X129672574Y-80107865D01*
X129673484Y-80109938D01*
X129673074Y-80112516D01*
X129674500Y-80125776D01*
X129674500Y-100924167D01*
X129654815Y-100991206D01*
X129638181Y-101011848D01*
X123709541Y-106940487D01*
X123709535Y-106940495D01*
X123669982Y-107009004D01*
X123669979Y-107009009D01*
X123649500Y-107085439D01*
X123649500Y-111849166D01*
X123629815Y-111916205D01*
X123613181Y-111936847D01*
X123161847Y-112388181D01*
X123100524Y-112421666D01*
X123074166Y-112424500D01*
X122984108Y-112424500D01*
X122856812Y-112458608D01*
X122742686Y-112524500D01*
X122742683Y-112524502D01*
X122649502Y-112617683D01*
X122649500Y-112617686D01*
X122583608Y-112731812D01*
X122549500Y-112859108D01*
X113550500Y-112859108D01*
X113550500Y-111263389D01*
X117639500Y-111263389D01*
X117639500Y-111436611D01*
X117666598Y-111607701D01*
X117720127Y-111772445D01*
X117798768Y-111926788D01*
X117900586Y-112066928D01*
X118023072Y-112189414D01*
X118163212Y-112291232D01*
X118317555Y-112369873D01*
X118482299Y-112423402D01*
X118653389Y-112450500D01*
X118653390Y-112450500D01*
X118826610Y-112450500D01*
X118826611Y-112450500D01*
X118997701Y-112423402D01*
X119162445Y-112369873D01*
X119316788Y-112291232D01*
X119456928Y-112189414D01*
X119579414Y-112066928D01*
X119681232Y-111926788D01*
X119759873Y-111772445D01*
X119813402Y-111607701D01*
X119840500Y-111436611D01*
X119840500Y-111263389D01*
X119813402Y-111092299D01*
X119759873Y-110927555D01*
X119681232Y-110773212D01*
X119579414Y-110633072D01*
X119456928Y-110510586D01*
X119316788Y-110408768D01*
X119162445Y-110330127D01*
X118997701Y-110276598D01*
X118997699Y-110276597D01*
X118997698Y-110276597D01*
X118866271Y-110255781D01*
X118826611Y-110249500D01*
X118653389Y-110249500D01*
X118613728Y-110255781D01*
X118482302Y-110276597D01*
X118317552Y-110330128D01*
X118163211Y-110408768D01*
X118118310Y-110441391D01*
X118023072Y-110510586D01*
X118023070Y-110510588D01*
X118023069Y-110510588D01*
X117900588Y-110633069D01*
X117900588Y-110633070D01*
X117900586Y-110633072D01*
X117856859Y-110693256D01*
X117798768Y-110773211D01*
X117720128Y-110927552D01*
X117666597Y-111092302D01*
X117639500Y-111263389D01*
X113550500Y-111263389D01*
X113550500Y-104634108D01*
X122749500Y-104634108D01*
X122749500Y-104765891D01*
X122783608Y-104893187D01*
X122816554Y-104950250D01*
X122849500Y-105007314D01*
X122942686Y-105100500D01*
X123056814Y-105166392D01*
X123184108Y-105200500D01*
X123184110Y-105200500D01*
X123315890Y-105200500D01*
X123315892Y-105200500D01*
X123443186Y-105166392D01*
X123557314Y-105100500D01*
X123650500Y-105007314D01*
X123716392Y-104893186D01*
X123750500Y-104765892D01*
X123750500Y-104634108D01*
X123716392Y-104506814D01*
X123650500Y-104392686D01*
X123586818Y-104329004D01*
X123553334Y-104267680D01*
X123550500Y-104241323D01*
X123550500Y-103750833D01*
X123570185Y-103683794D01*
X123586819Y-103663152D01*
X125900500Y-101349471D01*
X128215460Y-99034511D01*
X128255021Y-98965989D01*
X128275500Y-98889562D01*
X128275500Y-45975833D01*
X128284144Y-45946392D01*
X128289536Y-45921608D01*
X129712000Y-45921608D01*
X129712000Y-46053392D01*
X129725372Y-46103297D01*
X129746108Y-46180687D01*
X129755115Y-46196287D01*
X129812000Y-46294814D01*
X129905186Y-46388000D01*
X130019314Y-46453892D01*
X130146608Y-46488000D01*
X130146610Y-46488000D01*
X130278390Y-46488000D01*
X130278392Y-46488000D01*
X130405686Y-46453892D01*
X130519814Y-46388000D01*
X130613000Y-46294814D01*
X130678892Y-46180686D01*
X130713000Y-46053392D01*
X130713000Y-45963332D01*
X130732685Y-45896293D01*
X130749319Y-45875651D01*
X132713152Y-43911819D01*
X132774475Y-43878334D01*
X132800833Y-43875500D01*
X134191324Y-43875500D01*
X134258363Y-43895185D01*
X134279005Y-43911819D01*
X134342686Y-43975500D01*
X134456814Y-44041392D01*
X134584108Y-44075500D01*
X134584110Y-44075500D01*
X134715890Y-44075500D01*
X134715892Y-44075500D01*
X134843186Y-44041392D01*
X134957314Y-43975500D01*
X135050500Y-43882314D01*
X135116392Y-43768186D01*
X135150500Y-43640892D01*
X135150500Y-43509108D01*
X135116392Y-43381814D01*
X135050500Y-43267686D01*
X134957314Y-43174500D01*
X134900250Y-43141554D01*
X134843187Y-43108608D01*
X134779539Y-43091554D01*
X134715892Y-43074500D01*
X134584108Y-43074500D01*
X134456812Y-43108608D01*
X134342686Y-43174500D01*
X134342683Y-43174502D01*
X134279005Y-43238181D01*
X134217682Y-43271666D01*
X134191324Y-43274500D01*
X132585438Y-43274500D01*
X132547224Y-43284739D01*
X132509009Y-43294979D01*
X132509004Y-43294982D01*
X132440495Y-43334535D01*
X132440487Y-43334541D01*
X130324347Y-45450681D01*
X130263024Y-45484166D01*
X130236666Y-45487000D01*
X130146608Y-45487000D01*
X130019312Y-45521108D01*
X129905186Y-45587000D01*
X129905183Y-45587002D01*
X129812002Y-45680183D01*
X129812000Y-45680186D01*
X129746108Y-45794312D01*
X129726036Y-45869224D01*
X129712000Y-45921608D01*
X128289536Y-45921608D01*
X128290668Y-45916406D01*
X128294422Y-45911390D01*
X128295185Y-45908794D01*
X128311819Y-45888152D01*
X131538152Y-42661819D01*
X131599475Y-42628334D01*
X131625833Y-42625500D01*
X134689560Y-42625500D01*
X134689562Y-42625500D01*
X134765989Y-42605021D01*
X134834511Y-42565460D01*
X134890460Y-42509511D01*
X135293431Y-42106540D01*
X135297920Y-42098765D01*
X135332992Y-42038018D01*
X135353471Y-41961591D01*
X135353471Y-37461862D01*
X135373156Y-37394823D01*
X135389790Y-37374181D01*
X135778152Y-36985819D01*
X135839475Y-36952334D01*
X135865833Y-36949500D01*
X137550763Y-36949500D01*
X137617802Y-36969185D01*
X137663557Y-37021989D01*
X137673501Y-37091147D01*
X137670538Y-37105590D01*
X137649500Y-37184108D01*
X137649500Y-37315891D01*
X137683608Y-37443187D01*
X137694742Y-37462471D01*
X137749500Y-37557314D01*
X137749502Y-37557316D01*
X137813181Y-37620995D01*
X137846666Y-37682318D01*
X137849500Y-37708676D01*
X137849500Y-51174167D01*
X137829815Y-51241206D01*
X137813181Y-51261848D01*
X132512181Y-56562848D01*
X132450858Y-56596333D01*
X132381166Y-56591349D01*
X132325233Y-56549477D01*
X132300816Y-56484013D01*
X132300500Y-56475167D01*
X132300500Y-51250832D01*
X132320185Y-51183793D01*
X132336814Y-51163156D01*
X134313151Y-49186818D01*
X134374474Y-49153334D01*
X134400832Y-49150500D01*
X134490890Y-49150500D01*
X134490892Y-49150500D01*
X134618186Y-49116392D01*
X134732314Y-49050500D01*
X134825500Y-48957314D01*
X134891392Y-48843186D01*
X134925500Y-48715892D01*
X134925500Y-48584108D01*
X134891392Y-48456814D01*
X134825500Y-48342686D01*
X134732314Y-48249500D01*
X134633910Y-48192686D01*
X134618187Y-48183608D01*
X134516770Y-48156434D01*
X134490892Y-48149500D01*
X134359108Y-48149500D01*
X134350981Y-48149500D01*
X134350981Y-48146300D01*
X134336204Y-48143992D01*
X134306323Y-48141855D01*
X134302052Y-48138658D01*
X134296781Y-48137835D01*
X134274376Y-48117940D01*
X134250389Y-48099984D01*
X134248524Y-48094984D01*
X134244536Y-48091443D01*
X134236443Y-48062593D01*
X134225973Y-48034519D01*
X134227106Y-48029306D01*
X134225666Y-48024170D01*
X134234455Y-47995523D01*
X134240825Y-47966246D01*
X134245255Y-47960327D01*
X134246162Y-47957374D01*
X134261966Y-47938003D01*
X134338153Y-47861816D01*
X134399475Y-47828334D01*
X134425832Y-47825500D01*
X134515890Y-47825500D01*
X134515892Y-47825500D01*
X134643186Y-47791392D01*
X134757314Y-47725500D01*
X134850500Y-47632314D01*
X134916392Y-47518186D01*
X134950500Y-47390892D01*
X134950500Y-47259108D01*
X134916392Y-47131814D01*
X134850500Y-47017686D01*
X134757314Y-46924500D01*
X134675314Y-46877157D01*
X134643187Y-46858608D01*
X134572097Y-46839560D01*
X134515892Y-46824500D01*
X134384108Y-46824500D01*
X134256812Y-46858608D01*
X134142686Y-46924500D01*
X134142683Y-46924502D01*
X134049502Y-47017683D01*
X134049500Y-47017686D01*
X133983608Y-47131812D01*
X133949500Y-47259108D01*
X133949500Y-47349166D01*
X133929815Y-47416205D01*
X133913181Y-47436847D01*
X131015489Y-50334540D01*
X130959541Y-50390487D01*
X130959535Y-50390495D01*
X130919982Y-50459004D01*
X130919979Y-50459009D01*
X130899500Y-50535439D01*
X130899500Y-69766323D01*
X130879815Y-69833362D01*
X130863182Y-69854004D01*
X130799500Y-69917686D01*
X130733608Y-70031812D01*
X130699500Y-70159108D01*
X130699500Y-70290891D01*
X130733608Y-70418187D01*
X130766554Y-70475250D01*
X130799500Y-70532314D01*
X130892686Y-70625500D01*
X131006814Y-70691392D01*
X131134108Y-70725500D01*
X131134110Y-70725500D01*
X131265890Y-70725500D01*
X131265892Y-70725500D01*
X131393186Y-70691392D01*
X131507314Y-70625500D01*
X131507316Y-70625497D01*
X131513499Y-70621928D01*
X131581399Y-70605455D01*
X131647426Y-70628307D01*
X131690617Y-70683228D01*
X131699500Y-70729315D01*
X131699500Y-84539562D01*
X131713152Y-84590513D01*
X131719979Y-84615990D01*
X131719982Y-84615995D01*
X131759535Y-84684504D01*
X131759539Y-84684509D01*
X131759540Y-84684511D01*
X144434540Y-97359511D01*
X144490489Y-97415460D01*
X144535503Y-97441448D01*
X144561183Y-97461154D01*
X148813181Y-101713152D01*
X148846666Y-101774475D01*
X148849500Y-101800833D01*
X148849500Y-101890892D01*
X148859067Y-101926597D01*
X148883608Y-102018187D01*
X148884512Y-102019752D01*
X148949500Y-102132314D01*
X149042686Y-102225500D01*
X149124939Y-102272989D01*
X149153649Y-102289565D01*
X149156814Y-102291392D01*
X149284108Y-102325500D01*
X149284110Y-102325500D01*
X149415890Y-102325500D01*
X149415892Y-102325500D01*
X149543186Y-102291392D01*
X149657314Y-102225500D01*
X149750500Y-102132314D01*
X149816392Y-102018186D01*
X149850500Y-101890892D01*
X149850500Y-101759108D01*
X149816392Y-101631814D01*
X149750500Y-101517686D01*
X149657314Y-101424500D01*
X149600250Y-101391554D01*
X149543187Y-101358608D01*
X149479539Y-101341554D01*
X149415892Y-101324500D01*
X149325833Y-101324500D01*
X149258794Y-101304815D01*
X149238152Y-101288181D01*
X144884512Y-96934541D01*
X144884507Y-96934537D01*
X144860157Y-96920479D01*
X144860154Y-96920477D01*
X144839492Y-96908547D01*
X144813814Y-96888843D01*
X132336819Y-84411848D01*
X132303334Y-84350525D01*
X132300500Y-84324167D01*
X132300500Y-79309108D01*
X141199500Y-79309108D01*
X141199500Y-79440891D01*
X141233608Y-79568187D01*
X141265696Y-79623764D01*
X141299500Y-79682314D01*
X141392686Y-79775500D01*
X141392687Y-79775501D01*
X141392689Y-79775502D01*
X141428016Y-79795898D01*
X141476231Y-79846465D01*
X141485790Y-79871190D01*
X141507975Y-79953982D01*
X141507978Y-79953989D01*
X141543601Y-80015690D01*
X141547535Y-80022505D01*
X141547537Y-80022507D01*
X141547538Y-80022509D01*
X142334540Y-80809511D01*
X142390489Y-80865460D01*
X142390491Y-80865461D01*
X142390495Y-80865464D01*
X142459004Y-80905017D01*
X142459011Y-80905021D01*
X142535438Y-80925500D01*
X142614562Y-80925500D01*
X152791324Y-80925500D01*
X152858363Y-80945185D01*
X152879005Y-80961819D01*
X152942686Y-81025500D01*
X153056814Y-81091392D01*
X153184108Y-81125500D01*
X153184110Y-81125500D01*
X153315890Y-81125500D01*
X153315892Y-81125500D01*
X153443186Y-81091392D01*
X153557314Y-81025500D01*
X153650500Y-80932314D01*
X153716392Y-80818186D01*
X153750500Y-80690892D01*
X153750500Y-80559108D01*
X153716392Y-80431814D01*
X153650500Y-80317686D01*
X153557314Y-80224500D01*
X153458612Y-80167514D01*
X153443187Y-80158608D01*
X153379539Y-80141554D01*
X153315892Y-80124500D01*
X153184108Y-80124500D01*
X153056812Y-80158608D01*
X152942686Y-80224500D01*
X152942683Y-80224502D01*
X152879005Y-80288181D01*
X152817682Y-80321666D01*
X152791324Y-80324500D01*
X142750833Y-80324500D01*
X142683794Y-80304815D01*
X142663152Y-80288181D01*
X142151962Y-79776991D01*
X142118477Y-79715668D01*
X142123461Y-79645976D01*
X142132253Y-79627315D01*
X142166392Y-79568186D01*
X142200500Y-79440892D01*
X142200500Y-79309108D01*
X142166392Y-79181814D01*
X142100500Y-79067686D01*
X142007314Y-78974500D01*
X141922593Y-78925586D01*
X141893187Y-78908608D01*
X141829539Y-78891554D01*
X141765892Y-78874500D01*
X141634108Y-78874500D01*
X141506812Y-78908608D01*
X141392686Y-78974500D01*
X141392683Y-78974502D01*
X141299502Y-79067683D01*
X141299500Y-79067686D01*
X141233608Y-79181812D01*
X141199500Y-79309108D01*
X132300500Y-79309108D01*
X132300500Y-75968247D01*
X136561500Y-75968247D01*
X136561500Y-77107752D01*
X136573131Y-77166229D01*
X136573132Y-77166230D01*
X136617447Y-77232552D01*
X136683769Y-77276867D01*
X136683770Y-77276868D01*
X136742247Y-77288499D01*
X136742250Y-77288500D01*
X136742252Y-77288500D01*
X137881750Y-77288500D01*
X137881751Y-77288499D01*
X137896568Y-77285552D01*
X137940229Y-77276868D01*
X137940229Y-77276867D01*
X137940231Y-77276867D01*
X138006552Y-77232552D01*
X138050867Y-77166231D01*
X138050867Y-77166229D01*
X138050868Y-77166229D01*
X138062499Y-77107752D01*
X138062500Y-77107750D01*
X138062500Y-75968249D01*
X138062499Y-75968247D01*
X138050868Y-75909770D01*
X138050867Y-75909769D01*
X138006552Y-75843447D01*
X137940230Y-75799132D01*
X137940229Y-75799131D01*
X137881752Y-75787500D01*
X137881748Y-75787500D01*
X136742252Y-75787500D01*
X136742247Y-75787500D01*
X136683770Y-75799131D01*
X136683769Y-75799132D01*
X136617447Y-75843447D01*
X136573132Y-75909769D01*
X136573131Y-75909770D01*
X136561500Y-75968247D01*
X132300500Y-75968247D01*
X132300500Y-74255247D01*
X143449500Y-74255247D01*
X143449500Y-75394752D01*
X143461131Y-75453229D01*
X143461132Y-75453230D01*
X143505447Y-75519552D01*
X143571769Y-75563867D01*
X143571770Y-75563868D01*
X143630247Y-75575499D01*
X143630250Y-75575500D01*
X143630252Y-75575500D01*
X144769750Y-75575500D01*
X144769751Y-75575499D01*
X144784568Y-75572552D01*
X144828229Y-75563868D01*
X144828229Y-75563867D01*
X144828231Y-75563867D01*
X144894552Y-75519552D01*
X144905496Y-75503173D01*
X144921661Y-75489663D01*
X144934288Y-75472796D01*
X144947931Y-75467707D01*
X144959105Y-75458369D01*
X144980009Y-75455742D01*
X144999752Y-75448379D01*
X145013980Y-75451474D01*
X145028429Y-75449659D01*
X145047436Y-75458752D01*
X145068025Y-75463231D01*
X145087901Y-75478110D01*
X145091458Y-75479812D01*
X145096279Y-75484382D01*
X145250181Y-75638284D01*
X145283666Y-75699607D01*
X145286500Y-75725965D01*
X145286500Y-76092269D01*
X145289353Y-76122699D01*
X145289353Y-76122701D01*
X145334073Y-76250500D01*
X145334207Y-76250882D01*
X145414850Y-76360150D01*
X145524118Y-76440793D01*
X145566845Y-76455744D01*
X145652299Y-76485646D01*
X145682730Y-76488500D01*
X145682734Y-76488500D01*
X146741270Y-76488500D01*
X146771699Y-76485646D01*
X146771701Y-76485646D01*
X146835790Y-76463219D01*
X146899882Y-76440793D01*
X147009150Y-76360150D01*
X147089793Y-76250882D01*
X147120062Y-76164379D01*
X147134646Y-76122701D01*
X147134646Y-76122699D01*
X147137500Y-76092269D01*
X147137500Y-75308730D01*
X147134646Y-75278300D01*
X147134646Y-75278298D01*
X147089793Y-75150119D01*
X147089792Y-75150117D01*
X147009150Y-75040850D01*
X146899882Y-74960207D01*
X146899880Y-74960206D01*
X146771700Y-74915353D01*
X146741270Y-74912500D01*
X146741266Y-74912500D01*
X145849965Y-74912500D01*
X145782926Y-74892815D01*
X145762284Y-74876181D01*
X145350616Y-74464513D01*
X145350614Y-74464511D01*
X145273173Y-74419800D01*
X145247888Y-74405201D01*
X145230038Y-74400418D01*
X145230033Y-74400417D01*
X145223673Y-74398713D01*
X145133309Y-74374500D01*
X145064830Y-74374500D01*
X145055281Y-74373002D01*
X145032077Y-74362043D01*
X145007461Y-74354815D01*
X145001010Y-74347370D01*
X144992103Y-74343164D01*
X144978507Y-74321401D01*
X144961706Y-74302011D01*
X144959200Y-74290495D01*
X144955085Y-74283907D01*
X144955234Y-74272261D01*
X144952815Y-74261142D01*
X144951097Y-74261312D01*
X144950500Y-74255257D01*
X144950500Y-74255252D01*
X144942671Y-74215891D01*
X144938868Y-74196770D01*
X144938867Y-74196769D01*
X144894552Y-74130447D01*
X144828230Y-74086132D01*
X144828229Y-74086131D01*
X144769752Y-74074500D01*
X144769748Y-74074500D01*
X143630252Y-74074500D01*
X143630247Y-74074500D01*
X143571770Y-74086131D01*
X143571769Y-74086132D01*
X143505447Y-74130447D01*
X143461132Y-74196769D01*
X143461131Y-74196770D01*
X143449500Y-74255247D01*
X132300500Y-74255247D01*
X132300500Y-59683183D01*
X132320185Y-59616144D01*
X132372989Y-59570389D01*
X132442147Y-59560445D01*
X132486498Y-59575795D01*
X132556814Y-59616392D01*
X132684108Y-59650500D01*
X132684110Y-59650500D01*
X132815890Y-59650500D01*
X132815892Y-59650500D01*
X132943186Y-59616392D01*
X133057314Y-59550500D01*
X133150500Y-59457314D01*
X133216392Y-59343186D01*
X133250500Y-59215892D01*
X133250500Y-59084108D01*
X133216392Y-58956814D01*
X133192765Y-58915891D01*
X133155188Y-58850805D01*
X133155186Y-58850803D01*
X133150500Y-58842686D01*
X133091922Y-58784108D01*
X149974500Y-58784108D01*
X149974500Y-58915892D01*
X149985464Y-58956810D01*
X150008608Y-59043187D01*
X150041554Y-59100250D01*
X150074500Y-59157314D01*
X150167686Y-59250500D01*
X150281814Y-59316392D01*
X150409108Y-59350500D01*
X150409110Y-59350500D01*
X150540890Y-59350500D01*
X150540892Y-59350500D01*
X150668186Y-59316392D01*
X150782314Y-59250500D01*
X150875500Y-59157314D01*
X150941392Y-59043186D01*
X150975500Y-58915892D01*
X150975500Y-58825832D01*
X150995185Y-58758793D01*
X151011819Y-58738151D01*
X152521741Y-57228229D01*
X154140460Y-55609511D01*
X154175107Y-55549500D01*
X154180021Y-55540989D01*
X154200500Y-55464562D01*
X154200500Y-52708676D01*
X154220185Y-52641637D01*
X154236819Y-52620995D01*
X154250501Y-52607313D01*
X154300500Y-52557314D01*
X154366392Y-52443186D01*
X154400500Y-52315892D01*
X154400500Y-52184108D01*
X154366392Y-52056814D01*
X154300500Y-51942686D01*
X154207314Y-51849500D01*
X154120712Y-51799500D01*
X154093187Y-51783608D01*
X154026531Y-51765748D01*
X153965892Y-51749500D01*
X153834108Y-51749500D01*
X153706812Y-51783608D01*
X153592686Y-51849500D01*
X153592683Y-51849502D01*
X153499502Y-51942683D01*
X153499500Y-51942686D01*
X153433608Y-52056812D01*
X153399500Y-52184108D01*
X153399500Y-52315891D01*
X153433608Y-52443187D01*
X153462476Y-52493186D01*
X153499500Y-52557314D01*
X153499502Y-52557316D01*
X153563181Y-52620995D01*
X153596666Y-52682318D01*
X153599500Y-52708676D01*
X153599500Y-55249166D01*
X153579815Y-55316205D01*
X153563181Y-55336847D01*
X150586847Y-58313181D01*
X150525524Y-58346666D01*
X150499166Y-58349500D01*
X150409108Y-58349500D01*
X150281812Y-58383608D01*
X150167686Y-58449500D01*
X150167683Y-58449502D01*
X150074502Y-58542683D01*
X150074500Y-58542686D01*
X150008608Y-58656812D01*
X149992896Y-58715451D01*
X149974500Y-58784108D01*
X133091922Y-58784108D01*
X133085761Y-58777947D01*
X133084730Y-58776865D01*
X133069387Y-58747081D01*
X133053334Y-58717680D01*
X133053094Y-58715451D01*
X133052734Y-58714752D01*
X133052868Y-58713349D01*
X133050500Y-58691323D01*
X133050500Y-56925833D01*
X133070185Y-56858794D01*
X133086819Y-56838152D01*
X134494724Y-55430247D01*
X135714500Y-55430247D01*
X135714500Y-57169752D01*
X135726131Y-57228229D01*
X135726132Y-57228230D01*
X135770447Y-57294552D01*
X135836769Y-57338867D01*
X135836770Y-57338868D01*
X135895247Y-57350499D01*
X135895250Y-57350500D01*
X135895252Y-57350500D01*
X137634750Y-57350500D01*
X137634751Y-57350499D01*
X137649568Y-57347552D01*
X137693229Y-57338868D01*
X137693229Y-57338867D01*
X137693231Y-57338867D01*
X137759552Y-57294552D01*
X137803867Y-57228231D01*
X137803867Y-57228229D01*
X137803868Y-57228229D01*
X137815499Y-57169752D01*
X137815500Y-57169750D01*
X137815500Y-56196530D01*
X138254500Y-56196530D01*
X138254500Y-56403469D01*
X138294868Y-56606412D01*
X138294870Y-56606420D01*
X138318952Y-56664560D01*
X138374059Y-56797598D01*
X138382019Y-56809511D01*
X138489024Y-56969657D01*
X138635342Y-57115975D01*
X138635345Y-57115977D01*
X138807402Y-57230941D01*
X138998580Y-57310130D01*
X139143052Y-57338867D01*
X139201530Y-57350499D01*
X139201534Y-57350500D01*
X139201535Y-57350500D01*
X139408466Y-57350500D01*
X139408467Y-57350499D01*
X139611420Y-57310130D01*
X139802598Y-57230941D01*
X139974655Y-57115977D01*
X140120977Y-56969655D01*
X140235941Y-56797598D01*
X140315130Y-56606420D01*
X140355500Y-56403465D01*
X140355500Y-56196535D01*
X140355499Y-56196530D01*
X140794500Y-56196530D01*
X140794500Y-56403469D01*
X140834868Y-56606412D01*
X140834870Y-56606420D01*
X140858952Y-56664560D01*
X140914059Y-56797598D01*
X140922019Y-56809511D01*
X141029024Y-56969657D01*
X141175342Y-57115975D01*
X141175345Y-57115977D01*
X141347402Y-57230941D01*
X141538580Y-57310130D01*
X141683052Y-57338867D01*
X141741530Y-57350499D01*
X141741534Y-57350500D01*
X141741535Y-57350500D01*
X141948466Y-57350500D01*
X141948467Y-57350499D01*
X142151420Y-57310130D01*
X142342598Y-57230941D01*
X142514655Y-57115977D01*
X142660977Y-56969655D01*
X142775941Y-56797598D01*
X142855130Y-56606420D01*
X142895500Y-56403465D01*
X142895500Y-56196535D01*
X142895499Y-56196530D01*
X143334500Y-56196530D01*
X143334500Y-56403469D01*
X143374868Y-56606412D01*
X143374870Y-56606420D01*
X143398952Y-56664560D01*
X143454059Y-56797598D01*
X143462019Y-56809511D01*
X143569024Y-56969657D01*
X143715342Y-57115975D01*
X143715345Y-57115977D01*
X143887402Y-57230941D01*
X144078580Y-57310130D01*
X144223052Y-57338867D01*
X144281530Y-57350499D01*
X144281534Y-57350500D01*
X144281535Y-57350500D01*
X144488466Y-57350500D01*
X144488467Y-57350499D01*
X144691420Y-57310130D01*
X144882598Y-57230941D01*
X145054655Y-57115977D01*
X145200977Y-56969655D01*
X145315941Y-56797598D01*
X145395130Y-56606420D01*
X145435500Y-56403465D01*
X145435500Y-56196535D01*
X145395130Y-55993580D01*
X145315941Y-55802402D01*
X145200977Y-55630345D01*
X145200975Y-55630342D01*
X145054657Y-55484024D01*
X144886655Y-55371770D01*
X144882598Y-55369059D01*
X144803943Y-55336479D01*
X144691420Y-55289870D01*
X144691412Y-55289868D01*
X144488469Y-55249500D01*
X144488465Y-55249500D01*
X144281535Y-55249500D01*
X144281530Y-55249500D01*
X144078587Y-55289868D01*
X144078579Y-55289870D01*
X143887403Y-55369058D01*
X143715342Y-55484024D01*
X143569024Y-55630342D01*
X143454058Y-55802403D01*
X143374870Y-55993579D01*
X143374868Y-55993587D01*
X143334500Y-56196530D01*
X142895499Y-56196530D01*
X142855130Y-55993580D01*
X142775941Y-55802402D01*
X142660977Y-55630345D01*
X142660975Y-55630342D01*
X142514657Y-55484024D01*
X142346655Y-55371770D01*
X142342598Y-55369059D01*
X142263943Y-55336479D01*
X142151420Y-55289870D01*
X142151412Y-55289868D01*
X141948469Y-55249500D01*
X141948465Y-55249500D01*
X141741535Y-55249500D01*
X141741530Y-55249500D01*
X141538587Y-55289868D01*
X141538579Y-55289870D01*
X141347403Y-55369058D01*
X141175342Y-55484024D01*
X141029024Y-55630342D01*
X140914058Y-55802403D01*
X140834870Y-55993579D01*
X140834868Y-55993587D01*
X140794500Y-56196530D01*
X140355499Y-56196530D01*
X140315130Y-55993580D01*
X140235941Y-55802402D01*
X140120977Y-55630345D01*
X140120975Y-55630342D01*
X139974657Y-55484024D01*
X139806655Y-55371770D01*
X139802598Y-55369059D01*
X139723943Y-55336479D01*
X139611420Y-55289870D01*
X139611412Y-55289868D01*
X139408469Y-55249500D01*
X139408465Y-55249500D01*
X139201535Y-55249500D01*
X139201530Y-55249500D01*
X138998587Y-55289868D01*
X138998579Y-55289870D01*
X138807403Y-55369058D01*
X138635342Y-55484024D01*
X138489024Y-55630342D01*
X138374058Y-55802403D01*
X138294870Y-55993579D01*
X138294868Y-55993587D01*
X138254500Y-56196530D01*
X137815500Y-56196530D01*
X137815500Y-55430249D01*
X137815499Y-55430247D01*
X137803868Y-55371770D01*
X137803867Y-55371769D01*
X137759552Y-55305447D01*
X137693230Y-55261132D01*
X137693229Y-55261131D01*
X137634752Y-55249500D01*
X137634748Y-55249500D01*
X135895252Y-55249500D01*
X135895247Y-55249500D01*
X135836770Y-55261131D01*
X135836769Y-55261132D01*
X135770447Y-55305447D01*
X135726132Y-55371769D01*
X135726131Y-55371770D01*
X135714500Y-55430247D01*
X134494724Y-55430247D01*
X134588492Y-55336479D01*
X136401588Y-53523383D01*
X138390460Y-51534511D01*
X138415588Y-51490988D01*
X138430021Y-51465989D01*
X138450500Y-51389562D01*
X138450500Y-50926247D01*
X155788500Y-50926247D01*
X155788500Y-51765752D01*
X155800131Y-51824229D01*
X155800132Y-51824230D01*
X155844447Y-51890552D01*
X155910769Y-51934867D01*
X155910770Y-51934868D01*
X155969247Y-51946499D01*
X155969250Y-51946500D01*
X155969252Y-51946500D01*
X156050500Y-51946500D01*
X156117539Y-51966185D01*
X156163294Y-52018989D01*
X156174500Y-52070500D01*
X156174500Y-99039562D01*
X156176765Y-99048015D01*
X156194979Y-99115990D01*
X156214902Y-99150496D01*
X156214903Y-99150499D01*
X156234537Y-99184507D01*
X156234541Y-99184512D01*
X157413181Y-100363152D01*
X157446666Y-100424475D01*
X157449500Y-100450833D01*
X157449500Y-102989562D01*
X157460821Y-103031812D01*
X157469979Y-103065990D01*
X157469982Y-103065995D01*
X157509535Y-103134504D01*
X157509539Y-103134509D01*
X157509540Y-103134511D01*
X157990489Y-103615460D01*
X158059012Y-103655022D01*
X158135438Y-103675500D01*
X162488893Y-103675500D01*
X162555932Y-103695185D01*
X162601687Y-103747989D01*
X162611631Y-103817147D01*
X162608668Y-103831594D01*
X162608609Y-103831810D01*
X162608608Y-103831814D01*
X162574500Y-103959108D01*
X162574500Y-104090892D01*
X162591554Y-104154539D01*
X162608608Y-104218187D01*
X162621966Y-104241323D01*
X162674500Y-104332314D01*
X162767686Y-104425500D01*
X162881814Y-104491392D01*
X163009108Y-104525500D01*
X163009110Y-104525500D01*
X163140890Y-104525500D01*
X163140892Y-104525500D01*
X163268186Y-104491392D01*
X163382314Y-104425500D01*
X163445995Y-104361819D01*
X163507318Y-104328334D01*
X163533676Y-104325500D01*
X165416324Y-104325500D01*
X165483363Y-104345185D01*
X165504005Y-104361819D01*
X165567686Y-104425500D01*
X165681814Y-104491392D01*
X165809108Y-104525500D01*
X165809110Y-104525500D01*
X165940890Y-104525500D01*
X165940892Y-104525500D01*
X166068186Y-104491392D01*
X166182314Y-104425500D01*
X166275500Y-104332314D01*
X166341392Y-104218186D01*
X166375500Y-104090892D01*
X166375500Y-103959108D01*
X166341392Y-103831814D01*
X166275500Y-103717686D01*
X166182314Y-103624500D01*
X166119631Y-103588310D01*
X166068187Y-103558608D01*
X165981717Y-103535439D01*
X165940892Y-103524500D01*
X165809108Y-103524500D01*
X165681812Y-103558608D01*
X165567686Y-103624500D01*
X165567683Y-103624502D01*
X165504005Y-103688181D01*
X165442682Y-103721666D01*
X165416324Y-103724500D01*
X164020507Y-103724500D01*
X163991921Y-103716106D01*
X163962715Y-103710209D01*
X163958757Y-103706368D01*
X163953468Y-103704815D01*
X163933963Y-103682305D01*
X163912576Y-103661549D01*
X163911322Y-103656177D01*
X163907713Y-103652011D01*
X163903473Y-103622527D01*
X163896704Y-103593506D01*
X163898553Y-103588310D01*
X163897769Y-103582853D01*
X163910145Y-103555752D01*
X163920139Y-103527683D01*
X163924939Y-103523357D01*
X163926794Y-103519297D01*
X163944720Y-103502356D01*
X163951306Y-103497269D01*
X164032314Y-103450500D01*
X164101607Y-103381206D01*
X164107889Y-103376356D01*
X164133341Y-103366426D01*
X164157318Y-103353334D01*
X164170545Y-103351911D01*
X164172980Y-103350962D01*
X164175203Y-103351410D01*
X164183676Y-103350500D01*
X164578560Y-103350500D01*
X164578562Y-103350500D01*
X164654989Y-103330021D01*
X164723511Y-103290460D01*
X164779460Y-103234511D01*
X165213460Y-102800511D01*
X165253022Y-102731988D01*
X165273500Y-102655562D01*
X165273500Y-102576438D01*
X165273500Y-102324500D01*
X165293185Y-102257461D01*
X165345989Y-102211706D01*
X165397500Y-102200500D01*
X165467750Y-102200500D01*
X165467751Y-102200499D01*
X165482568Y-102197552D01*
X165526229Y-102188868D01*
X165526229Y-102188867D01*
X165526231Y-102188867D01*
X165592552Y-102144552D01*
X165636867Y-102078231D01*
X165636867Y-102078229D01*
X165636868Y-102078229D01*
X165648499Y-102019752D01*
X165648500Y-102019750D01*
X165648500Y-101180249D01*
X165648499Y-101180247D01*
X165636868Y-101121770D01*
X165636867Y-101121769D01*
X165592552Y-101055447D01*
X165526230Y-101011132D01*
X165526229Y-101011131D01*
X165467752Y-100999500D01*
X165467748Y-100999500D01*
X164478252Y-100999500D01*
X164478247Y-100999500D01*
X164419770Y-101011131D01*
X164419769Y-101011132D01*
X164353447Y-101055447D01*
X164309132Y-101121769D01*
X164309131Y-101121770D01*
X164297500Y-101180247D01*
X164297500Y-102019752D01*
X164309131Y-102078229D01*
X164309132Y-102078230D01*
X164353447Y-102144552D01*
X164419769Y-102188867D01*
X164419770Y-102188868D01*
X164478247Y-102200499D01*
X164478250Y-102200500D01*
X164478252Y-102200500D01*
X164548500Y-102200500D01*
X164557185Y-102203050D01*
X164566147Y-102201762D01*
X164590187Y-102212740D01*
X164615539Y-102220185D01*
X164621466Y-102227025D01*
X164629703Y-102230787D01*
X164643992Y-102253021D01*
X164661294Y-102272989D01*
X164663581Y-102283503D01*
X164667477Y-102289565D01*
X164672500Y-102324500D01*
X164672500Y-102440167D01*
X164652815Y-102507206D01*
X164636181Y-102527848D01*
X164450848Y-102713181D01*
X164389525Y-102746666D01*
X164363167Y-102749500D01*
X164183676Y-102749500D01*
X164116637Y-102729815D01*
X164095995Y-102713181D01*
X164032316Y-102649502D01*
X164032314Y-102649500D01*
X163974968Y-102616391D01*
X163918187Y-102583608D01*
X163854539Y-102566554D01*
X163790892Y-102549500D01*
X163659108Y-102549500D01*
X163531812Y-102583608D01*
X163417686Y-102649500D01*
X163417683Y-102649502D01*
X163324502Y-102742683D01*
X163324500Y-102742686D01*
X163277265Y-102824500D01*
X163258608Y-102856814D01*
X163243449Y-102913389D01*
X163224906Y-102982594D01*
X163188541Y-103042254D01*
X163125694Y-103072783D01*
X163105131Y-103074500D01*
X158350833Y-103074500D01*
X158321392Y-103065855D01*
X158291406Y-103059332D01*
X158286390Y-103055577D01*
X158283794Y-103054815D01*
X158263152Y-103038181D01*
X158086819Y-102861848D01*
X158053334Y-102800525D01*
X158050500Y-102774167D01*
X158050500Y-100680247D01*
X158924500Y-100680247D01*
X158924500Y-101519752D01*
X158936131Y-101578229D01*
X158936132Y-101578230D01*
X158980447Y-101644552D01*
X159024762Y-101674162D01*
X159046769Y-101688867D01*
X159093708Y-101698203D01*
X159155618Y-101730588D01*
X159190193Y-101791303D01*
X159186454Y-101861073D01*
X159176905Y-101881820D01*
X159133608Y-101956812D01*
X159116744Y-102019752D01*
X159099500Y-102084108D01*
X159099500Y-102215892D01*
X159102483Y-102227025D01*
X159133608Y-102343187D01*
X159166554Y-102400250D01*
X159199500Y-102457314D01*
X159292686Y-102550500D01*
X159406814Y-102616392D01*
X159534108Y-102650500D01*
X159534110Y-102650500D01*
X159665890Y-102650500D01*
X159665892Y-102650500D01*
X159793186Y-102616392D01*
X159907314Y-102550500D01*
X160000500Y-102457314D01*
X160066392Y-102343186D01*
X160100500Y-102215892D01*
X160100500Y-102084108D01*
X160066392Y-101956814D01*
X160028332Y-101890892D01*
X160023095Y-101881821D01*
X160006622Y-101813921D01*
X160029474Y-101747894D01*
X160084395Y-101704704D01*
X160106284Y-101698205D01*
X160153231Y-101688867D01*
X160219552Y-101644552D01*
X160263867Y-101578231D01*
X160263867Y-101578229D01*
X160263868Y-101578229D01*
X160272552Y-101534568D01*
X160275500Y-101519748D01*
X160275500Y-100680252D01*
X160275500Y-100680249D01*
X160275499Y-100680247D01*
X160263868Y-100621770D01*
X160263867Y-100621769D01*
X160219552Y-100555447D01*
X160153230Y-100511132D01*
X160153229Y-100511131D01*
X160094752Y-100499500D01*
X160094748Y-100499500D01*
X159105252Y-100499500D01*
X159105247Y-100499500D01*
X159046770Y-100511131D01*
X159046769Y-100511132D01*
X158980447Y-100555447D01*
X158936132Y-100621769D01*
X158936131Y-100621770D01*
X158924500Y-100680247D01*
X158050500Y-100680247D01*
X158050500Y-100235439D01*
X158030020Y-100159009D01*
X158030017Y-100159004D01*
X157990464Y-100090495D01*
X157990458Y-100090487D01*
X156811819Y-98911848D01*
X156778334Y-98850525D01*
X156775500Y-98824167D01*
X156775500Y-91160438D01*
X157749500Y-91160438D01*
X157749500Y-98814562D01*
X157759470Y-98851769D01*
X157769979Y-98890990D01*
X157769980Y-98890991D01*
X157781607Y-98911131D01*
X157781609Y-98911133D01*
X157809540Y-98959511D01*
X158534540Y-99684511D01*
X158590489Y-99740460D01*
X158590491Y-99740461D01*
X158590495Y-99740464D01*
X158659004Y-99780017D01*
X158659011Y-99780021D01*
X158735438Y-99800500D01*
X158800500Y-99800500D01*
X158867539Y-99820185D01*
X158913294Y-99872989D01*
X158922184Y-99913857D01*
X158923903Y-99913688D01*
X158924500Y-99919752D01*
X158936131Y-99978229D01*
X158936132Y-99978230D01*
X158980447Y-100044552D01*
X159046769Y-100088867D01*
X159046770Y-100088868D01*
X159105247Y-100100499D01*
X159105250Y-100100500D01*
X159105252Y-100100500D01*
X160094750Y-100100500D01*
X160094751Y-100100499D01*
X160109568Y-100097552D01*
X160153229Y-100088868D01*
X160153229Y-100088867D01*
X160153231Y-100088867D01*
X160219552Y-100044552D01*
X160263867Y-99978231D01*
X160263867Y-99978229D01*
X160263868Y-99978229D01*
X160275499Y-99919752D01*
X160275500Y-99919748D01*
X160275500Y-99919741D01*
X160276097Y-99913688D01*
X160277768Y-99913852D01*
X160276762Y-99906853D01*
X160287740Y-99882812D01*
X160295185Y-99857461D01*
X160302025Y-99851533D01*
X160305787Y-99843297D01*
X160328021Y-99829007D01*
X160347989Y-99811706D01*
X160358503Y-99809418D01*
X160364565Y-99805523D01*
X160399500Y-99800500D01*
X160574983Y-99800500D01*
X160642022Y-99820185D01*
X160687777Y-99872989D01*
X160696600Y-99900309D01*
X160706131Y-99948229D01*
X160706132Y-99948230D01*
X160750447Y-100014552D01*
X160816769Y-100058867D01*
X160816770Y-100058868D01*
X160875247Y-100070499D01*
X160875250Y-100070500D01*
X160875252Y-100070500D01*
X161724750Y-100070500D01*
X161724751Y-100070499D01*
X161739568Y-100067552D01*
X161783229Y-100058868D01*
X161783229Y-100058867D01*
X161783231Y-100058867D01*
X161849552Y-100014552D01*
X161893867Y-99948231D01*
X161893867Y-99948229D01*
X161893868Y-99948229D01*
X161905499Y-99889752D01*
X161905500Y-99889750D01*
X161905500Y-98910249D01*
X161905499Y-98910247D01*
X161893868Y-98851770D01*
X161893867Y-98851769D01*
X161849552Y-98785447D01*
X161783230Y-98741132D01*
X161783229Y-98741131D01*
X161724752Y-98729500D01*
X161724748Y-98729500D01*
X160875252Y-98729500D01*
X160875247Y-98729500D01*
X160816770Y-98741131D01*
X160816769Y-98741132D01*
X160750447Y-98785447D01*
X160706132Y-98851769D01*
X160706131Y-98851770D01*
X160694500Y-98910247D01*
X160694500Y-99075500D01*
X160691949Y-99084185D01*
X160693238Y-99093147D01*
X160682259Y-99117187D01*
X160674815Y-99142539D01*
X160667974Y-99148466D01*
X160664213Y-99156703D01*
X160641978Y-99170992D01*
X160622011Y-99188294D01*
X160611496Y-99190581D01*
X160605435Y-99194477D01*
X160570500Y-99199500D01*
X160399500Y-99199500D01*
X160332461Y-99179815D01*
X160286706Y-99127011D01*
X160277815Y-99086142D01*
X160276097Y-99086312D01*
X160275500Y-99080257D01*
X160275500Y-99080252D01*
X160269088Y-99048015D01*
X160263868Y-99021770D01*
X160263867Y-99021769D01*
X160219552Y-98955447D01*
X160153230Y-98911132D01*
X160153229Y-98911131D01*
X160094752Y-98899500D01*
X160094748Y-98899500D01*
X159105252Y-98899500D01*
X159105247Y-98899500D01*
X159046770Y-98911131D01*
X159046769Y-98911132D01*
X158980448Y-98955446D01*
X158934202Y-99024659D01*
X158880589Y-99069463D01*
X158811264Y-99078170D01*
X158748237Y-99048015D01*
X158743419Y-99043448D01*
X158386819Y-98686848D01*
X158353334Y-98625525D01*
X158350500Y-98599167D01*
X158350500Y-91375833D01*
X158370185Y-91308794D01*
X158386819Y-91288152D01*
X159363152Y-90311819D01*
X159424475Y-90278334D01*
X159450833Y-90275500D01*
X162974167Y-90275500D01*
X163041206Y-90295185D01*
X163061848Y-90311819D01*
X164213181Y-91463152D01*
X164246666Y-91524475D01*
X164249500Y-91550833D01*
X164249500Y-93941323D01*
X164229815Y-94008362D01*
X164213182Y-94029004D01*
X164149500Y-94092686D01*
X164083608Y-94206812D01*
X164049500Y-94334108D01*
X164049500Y-94465891D01*
X164083608Y-94593188D01*
X164094758Y-94612498D01*
X164111232Y-94680398D01*
X164088381Y-94746425D01*
X164033460Y-94789617D01*
X163987372Y-94798500D01*
X162370977Y-94798500D01*
X162303938Y-94778815D01*
X162258183Y-94726011D01*
X162248239Y-94656853D01*
X162253723Y-94636855D01*
X162253523Y-94636802D01*
X162255627Y-94628951D01*
X162289735Y-94501657D01*
X162289735Y-94369873D01*
X162255627Y-94242579D01*
X162250969Y-94234511D01*
X162242112Y-94219169D01*
X162225500Y-94157171D01*
X162225500Y-93795802D01*
X162245185Y-93728763D01*
X162297989Y-93683008D01*
X162327519Y-93675122D01*
X162327330Y-93674256D01*
X162334701Y-93672646D01*
X162398790Y-93650219D01*
X162462882Y-93627793D01*
X162572150Y-93547150D01*
X162652793Y-93437882D01*
X162675219Y-93373790D01*
X162697646Y-93309701D01*
X162697646Y-93309699D01*
X162700500Y-93279269D01*
X162700500Y-92670730D01*
X162697646Y-92640300D01*
X162697646Y-92640298D01*
X162652793Y-92512119D01*
X162652792Y-92512117D01*
X162572150Y-92402850D01*
X162462882Y-92322207D01*
X162462880Y-92322206D01*
X162334700Y-92277353D01*
X162304270Y-92274500D01*
X162304266Y-92274500D01*
X161245734Y-92274500D01*
X161245730Y-92274500D01*
X161215300Y-92277353D01*
X161215298Y-92277353D01*
X161087119Y-92322206D01*
X161087117Y-92322207D01*
X160977850Y-92402850D01*
X160897207Y-92512117D01*
X160897206Y-92512119D01*
X160852353Y-92640298D01*
X160852353Y-92640300D01*
X160849500Y-92670730D01*
X160849500Y-93279269D01*
X160852353Y-93309699D01*
X160852353Y-93309701D01*
X160897206Y-93437880D01*
X160897207Y-93437882D01*
X160977850Y-93547150D01*
X161087118Y-93627793D01*
X161119163Y-93639006D01*
X161215298Y-93672646D01*
X161222670Y-93674256D01*
X161222206Y-93676379D01*
X161276982Y-93698198D01*
X161317609Y-93755041D01*
X161324500Y-93795802D01*
X161324500Y-94220069D01*
X161320275Y-94252162D01*
X161288735Y-94369873D01*
X161288735Y-94501657D01*
X161318434Y-94612498D01*
X161324947Y-94636802D01*
X161323157Y-94637281D01*
X161329521Y-94696529D01*
X161298239Y-94759005D01*
X161238147Y-94794651D01*
X161207493Y-94798500D01*
X160811438Y-94798500D01*
X160773224Y-94808739D01*
X160735009Y-94818979D01*
X160735008Y-94818980D01*
X160694837Y-94842173D01*
X160671645Y-94855563D01*
X160666489Y-94858540D01*
X160666484Y-94858543D01*
X160065489Y-95459540D01*
X160009541Y-95515487D01*
X160009535Y-95515495D01*
X159969982Y-95584004D01*
X159969979Y-95584009D01*
X159949500Y-95660439D01*
X159949500Y-96141323D01*
X159929815Y-96208362D01*
X159913182Y-96229004D01*
X159849500Y-96292686D01*
X159783608Y-96406812D01*
X159754381Y-96515891D01*
X159749500Y-96534108D01*
X159749500Y-96665892D01*
X159756083Y-96690460D01*
X159783608Y-96793187D01*
X159816554Y-96850250D01*
X159849500Y-96907314D01*
X159942686Y-97000500D01*
X160056814Y-97066392D01*
X160184108Y-97100500D01*
X160184110Y-97100500D01*
X160315890Y-97100500D01*
X160315892Y-97100500D01*
X160443186Y-97066392D01*
X160557314Y-97000500D01*
X160650500Y-96907314D01*
X160716392Y-96793186D01*
X160750500Y-96665892D01*
X160750500Y-96534108D01*
X160716392Y-96406814D01*
X160650500Y-96292686D01*
X160586818Y-96229004D01*
X160572113Y-96202073D01*
X160555523Y-96176258D01*
X160554631Y-96170055D01*
X160553334Y-96167680D01*
X160550500Y-96141323D01*
X160550500Y-95952206D01*
X160570185Y-95885167D01*
X160622989Y-95839412D01*
X160692147Y-95829468D01*
X160755703Y-95858493D01*
X160781887Y-95890206D01*
X160849497Y-96007310D01*
X160849499Y-96007312D01*
X160849500Y-96007314D01*
X160942686Y-96100500D01*
X161056814Y-96166392D01*
X161184108Y-96200500D01*
X161184110Y-96200500D01*
X161315890Y-96200500D01*
X161315892Y-96200500D01*
X161443186Y-96166392D01*
X161557314Y-96100500D01*
X161620995Y-96036819D01*
X161682318Y-96003334D01*
X161708676Y-96000500D01*
X167524167Y-96000500D01*
X167591206Y-96020185D01*
X167611848Y-96036819D01*
X173013181Y-101438152D01*
X173046666Y-101499475D01*
X173049500Y-101525833D01*
X173049500Y-102766323D01*
X173029815Y-102833362D01*
X173013182Y-102854004D01*
X172949500Y-102917686D01*
X172883608Y-103031812D01*
X172856091Y-103134511D01*
X172849500Y-103159108D01*
X172849500Y-103290892D01*
X172861195Y-103334540D01*
X172883608Y-103418187D01*
X172907174Y-103459004D01*
X172949500Y-103532314D01*
X173042686Y-103625500D01*
X173156814Y-103691392D01*
X173284108Y-103725500D01*
X173284110Y-103725500D01*
X173415890Y-103725500D01*
X173415892Y-103725500D01*
X173543186Y-103691392D01*
X173657314Y-103625500D01*
X173687819Y-103594995D01*
X173749142Y-103561510D01*
X173818834Y-103566494D01*
X173874767Y-103608366D01*
X173899184Y-103673830D01*
X173899500Y-103682676D01*
X173899500Y-103941323D01*
X173879815Y-104008362D01*
X173863182Y-104029004D01*
X173799500Y-104092686D01*
X173733608Y-104206812D01*
X173701806Y-104325500D01*
X173699500Y-104334108D01*
X173699500Y-104465892D01*
X173715472Y-104525500D01*
X173733608Y-104593187D01*
X173766554Y-104650250D01*
X173799500Y-104707314D01*
X173892686Y-104800500D01*
X174006814Y-104866392D01*
X174134108Y-104900500D01*
X174134110Y-104900500D01*
X174265890Y-104900500D01*
X174265892Y-104900500D01*
X174393186Y-104866392D01*
X174507314Y-104800500D01*
X174600500Y-104707314D01*
X174666392Y-104593186D01*
X174700500Y-104465892D01*
X174700500Y-104334108D01*
X174666392Y-104206814D01*
X174600500Y-104092686D01*
X174536818Y-104029004D01*
X174503334Y-103967680D01*
X174500500Y-103941323D01*
X174500500Y-101185439D01*
X174499110Y-101180252D01*
X174480021Y-101109011D01*
X174449096Y-101055447D01*
X174440464Y-101040495D01*
X174440458Y-101040487D01*
X174384511Y-100984540D01*
X168258515Y-94858543D01*
X168258512Y-94858541D01*
X168258511Y-94858540D01*
X168253355Y-94855563D01*
X168189991Y-94818980D01*
X168189990Y-94818979D01*
X168164513Y-94812152D01*
X168113562Y-94798500D01*
X168113560Y-94798500D01*
X165112628Y-94798500D01*
X165045589Y-94778815D01*
X164999834Y-94726011D01*
X164989890Y-94656853D01*
X165005242Y-94612498D01*
X165016391Y-94593188D01*
X165016392Y-94593186D01*
X165050500Y-94465892D01*
X165050500Y-94334108D01*
X165016392Y-94206814D01*
X164950500Y-94092686D01*
X164886818Y-94029004D01*
X164853334Y-93967680D01*
X164850500Y-93941323D01*
X164850500Y-91335439D01*
X164847561Y-91324471D01*
X164830021Y-91259011D01*
X164830017Y-91259004D01*
X164790464Y-91190495D01*
X164790458Y-91190487D01*
X163334512Y-89734541D01*
X163334504Y-89734535D01*
X163265995Y-89694982D01*
X163265990Y-89694979D01*
X163240513Y-89688152D01*
X163189562Y-89674500D01*
X159314562Y-89674500D01*
X159235438Y-89674500D01*
X159159010Y-89694978D01*
X159090489Y-89734540D01*
X159090486Y-89734542D01*
X157809541Y-91015487D01*
X157809535Y-91015495D01*
X157769982Y-91084004D01*
X157769979Y-91084009D01*
X157756439Y-91134540D01*
X157749500Y-91160438D01*
X156775500Y-91160438D01*
X156775500Y-85730247D01*
X173349500Y-85730247D01*
X173349500Y-86869752D01*
X173361131Y-86928229D01*
X173361132Y-86928230D01*
X173405447Y-86994552D01*
X173471769Y-87038867D01*
X173471770Y-87038868D01*
X173530247Y-87050499D01*
X173530250Y-87050500D01*
X173530252Y-87050500D01*
X174669750Y-87050500D01*
X174669751Y-87050499D01*
X174684568Y-87047552D01*
X174728229Y-87038868D01*
X174728229Y-87038867D01*
X174728231Y-87038867D01*
X174794552Y-86994552D01*
X174838867Y-86928231D01*
X174838867Y-86928229D01*
X174838868Y-86928229D01*
X174850499Y-86869752D01*
X174850500Y-86869750D01*
X174850500Y-85730249D01*
X174850499Y-85730247D01*
X174838868Y-85671770D01*
X174838867Y-85671769D01*
X174794552Y-85605447D01*
X174728230Y-85561132D01*
X174728229Y-85561131D01*
X174669752Y-85549500D01*
X174669748Y-85549500D01*
X173530252Y-85549500D01*
X173530247Y-85549500D01*
X173471770Y-85561131D01*
X173471769Y-85561132D01*
X173405447Y-85605447D01*
X173361132Y-85671769D01*
X173361131Y-85671770D01*
X173349500Y-85730247D01*
X156775500Y-85730247D01*
X156775500Y-52070500D01*
X156795185Y-52003461D01*
X156847989Y-51957706D01*
X156899500Y-51946500D01*
X156958750Y-51946500D01*
X156958751Y-51946499D01*
X156973568Y-51943552D01*
X157017229Y-51934868D01*
X157017229Y-51934867D01*
X157017231Y-51934867D01*
X157083552Y-51890552D01*
X157127867Y-51824231D01*
X157127867Y-51824229D01*
X157127868Y-51824229D01*
X157139499Y-51765752D01*
X157139500Y-51765750D01*
X157139500Y-50926249D01*
X157139499Y-50926247D01*
X157127868Y-50867770D01*
X157127867Y-50867769D01*
X157083552Y-50801447D01*
X157017230Y-50757132D01*
X157017229Y-50757131D01*
X156958752Y-50745500D01*
X156958748Y-50745500D01*
X155969252Y-50745500D01*
X155969247Y-50745500D01*
X155910770Y-50757131D01*
X155910769Y-50757132D01*
X155844447Y-50801447D01*
X155800132Y-50867769D01*
X155800131Y-50867770D01*
X155788500Y-50926247D01*
X138450500Y-50926247D01*
X138450500Y-47160500D01*
X138470185Y-47093461D01*
X138522989Y-47047706D01*
X138574500Y-47036500D01*
X151555873Y-47036500D01*
X151622912Y-47056185D01*
X151668667Y-47108989D01*
X151678611Y-47178147D01*
X151675647Y-47192593D01*
X151645500Y-47305108D01*
X151645500Y-47436892D01*
X151653312Y-47466048D01*
X151679608Y-47564187D01*
X151712554Y-47621250D01*
X151745500Y-47678314D01*
X151838686Y-47771500D01*
X151952814Y-47837392D01*
X152080108Y-47871500D01*
X152080110Y-47871500D01*
X152211890Y-47871500D01*
X152211892Y-47871500D01*
X152339186Y-47837392D01*
X152453314Y-47771500D01*
X152546500Y-47678314D01*
X152612392Y-47564186D01*
X152646500Y-47436892D01*
X152646500Y-47305108D01*
X152616352Y-47192593D01*
X152618015Y-47122743D01*
X152657178Y-47064881D01*
X152721407Y-47037377D01*
X152736127Y-47036500D01*
X156269626Y-47036500D01*
X156336665Y-47056185D01*
X156382420Y-47108989D01*
X156392364Y-47178147D01*
X156363339Y-47241703D01*
X156304561Y-47279477D01*
X156301756Y-47280264D01*
X156292334Y-47282789D01*
X156281812Y-47285608D01*
X156167686Y-47351500D01*
X156167683Y-47351502D01*
X156074502Y-47444683D01*
X156074500Y-47444686D01*
X156008608Y-47558812D01*
X156007168Y-47564187D01*
X155974500Y-47686108D01*
X155974500Y-47817892D01*
X155976539Y-47825500D01*
X156008608Y-47945187D01*
X156020767Y-47966246D01*
X156074500Y-48059314D01*
X156074502Y-48059316D01*
X156138181Y-48122995D01*
X156171666Y-48184318D01*
X156174500Y-48210676D01*
X156174500Y-49021500D01*
X156154815Y-49088539D01*
X156102011Y-49134294D01*
X156050500Y-49145500D01*
X155969247Y-49145500D01*
X155910770Y-49157131D01*
X155910769Y-49157132D01*
X155844447Y-49201447D01*
X155800132Y-49267769D01*
X155800131Y-49267770D01*
X155788500Y-49326247D01*
X155788500Y-50165752D01*
X155800131Y-50224229D01*
X155800132Y-50224230D01*
X155844447Y-50290552D01*
X155910769Y-50334867D01*
X155910770Y-50334868D01*
X155969247Y-50346499D01*
X155969250Y-50346500D01*
X155969252Y-50346500D01*
X156958750Y-50346500D01*
X156958751Y-50346499D01*
X156978418Y-50342587D01*
X157017228Y-50334868D01*
X157017228Y-50334867D01*
X157017231Y-50334867D01*
X157040490Y-50319325D01*
X157107165Y-50298447D01*
X157174545Y-50316930D01*
X157216769Y-50360428D01*
X157219978Y-50365987D01*
X157219979Y-50365989D01*
X157234124Y-50390489D01*
X157259539Y-50434509D01*
X157259541Y-50434512D01*
X158288181Y-51463152D01*
X158321666Y-51524475D01*
X158324500Y-51550833D01*
X158324500Y-51867324D01*
X158304815Y-51934363D01*
X158252011Y-51980118D01*
X158182853Y-51990062D01*
X158119297Y-51961037D01*
X158112819Y-51955005D01*
X158057316Y-51899502D01*
X158057314Y-51899500D01*
X157972465Y-51850512D01*
X157943187Y-51833608D01*
X157879539Y-51816554D01*
X157815892Y-51799500D01*
X157684108Y-51799500D01*
X157556812Y-51833608D01*
X157442686Y-51899500D01*
X157442683Y-51899502D01*
X157349502Y-51992683D01*
X157349500Y-51992686D01*
X157283608Y-52106812D01*
X157249500Y-52234108D01*
X157249500Y-52365891D01*
X157283608Y-52493187D01*
X157316554Y-52550250D01*
X157349500Y-52607314D01*
X157349502Y-52607316D01*
X157413181Y-52670995D01*
X157446666Y-52732318D01*
X157449500Y-52758676D01*
X157449500Y-64289562D01*
X157463152Y-64340513D01*
X157469979Y-64365990D01*
X157469982Y-64365995D01*
X157509535Y-64434504D01*
X157509541Y-64434512D01*
X162563181Y-69488152D01*
X162596666Y-69549475D01*
X162599500Y-69575833D01*
X162599500Y-73691323D01*
X162579815Y-73758362D01*
X162563182Y-73779004D01*
X162499500Y-73842686D01*
X162433608Y-73956812D01*
X162399500Y-74084108D01*
X162399500Y-74215891D01*
X162433608Y-74343187D01*
X162444495Y-74362043D01*
X162499500Y-74457314D01*
X162592686Y-74550500D01*
X162706814Y-74616392D01*
X162834108Y-74650500D01*
X162834110Y-74650500D01*
X162965890Y-74650500D01*
X162965892Y-74650500D01*
X163093186Y-74616392D01*
X163207314Y-74550500D01*
X163300500Y-74457314D01*
X163366392Y-74343186D01*
X163400500Y-74215892D01*
X163400500Y-74084108D01*
X163366392Y-73956814D01*
X163300500Y-73842686D01*
X163236818Y-73779004D01*
X163203334Y-73717680D01*
X163200500Y-73691323D01*
X163200500Y-69360439D01*
X163180020Y-69284009D01*
X163180017Y-69284004D01*
X163140464Y-69215495D01*
X163140458Y-69215487D01*
X162090662Y-68165691D01*
X171249500Y-68165691D01*
X171249500Y-73384309D01*
X171253448Y-73399044D01*
X171273712Y-73474672D01*
X171280200Y-73498885D01*
X171280200Y-73498886D01*
X171280201Y-73498887D01*
X171339511Y-73601614D01*
X172014511Y-74276614D01*
X172098386Y-74360489D01*
X172170595Y-74402179D01*
X172201114Y-74419800D01*
X172271233Y-74438587D01*
X172315691Y-74450499D01*
X172315694Y-74450499D01*
X172434307Y-74450499D01*
X172434309Y-74450499D01*
X172449211Y-74446506D01*
X172519060Y-74448167D01*
X172576923Y-74487329D01*
X172581075Y-74492647D01*
X172602844Y-74522144D01*
X172602848Y-74522147D01*
X172602850Y-74522150D01*
X172712118Y-74602793D01*
X172748784Y-74615623D01*
X172840299Y-74647646D01*
X172870730Y-74650500D01*
X172870734Y-74650500D01*
X173929270Y-74650500D01*
X173959699Y-74647646D01*
X173959701Y-74647646D01*
X174023790Y-74625219D01*
X174087882Y-74602793D01*
X174197150Y-74522150D01*
X174249759Y-74450867D01*
X174305406Y-74408616D01*
X174349529Y-74400500D01*
X174900471Y-74400500D01*
X174967510Y-74420185D01*
X175000241Y-74450867D01*
X175052848Y-74522148D01*
X175052849Y-74522148D01*
X175052850Y-74522150D01*
X175162118Y-74602793D01*
X175198784Y-74615623D01*
X175290299Y-74647646D01*
X175320730Y-74650500D01*
X175320734Y-74650500D01*
X175345107Y-74650500D01*
X175412146Y-74670185D01*
X175452493Y-74712498D01*
X175489511Y-74776614D01*
X175489513Y-74776616D01*
X176957145Y-76244248D01*
X176990630Y-76305571D01*
X176987395Y-76370247D01*
X176953445Y-76474734D01*
X176924500Y-76657486D01*
X176924500Y-76842513D01*
X176953445Y-77025265D01*
X177010619Y-77201232D01*
X177010620Y-77201235D01*
X177094622Y-77366096D01*
X177203379Y-77515787D01*
X177334213Y-77646621D01*
X177483904Y-77755378D01*
X177564763Y-77796577D01*
X177648764Y-77839379D01*
X177648767Y-77839380D01*
X177736750Y-77867967D01*
X177824736Y-77896555D01*
X178007486Y-77925500D01*
X178007487Y-77925500D01*
X178192513Y-77925500D01*
X178192514Y-77925500D01*
X178375264Y-77896555D01*
X178551235Y-77839379D01*
X178716096Y-77755378D01*
X178865787Y-77646621D01*
X178996621Y-77515787D01*
X179105378Y-77366096D01*
X179189379Y-77201235D01*
X179246555Y-77025264D01*
X179275500Y-76842514D01*
X179275500Y-76657486D01*
X179246555Y-76474736D01*
X179209324Y-76360149D01*
X179189380Y-76298767D01*
X179189379Y-76298764D01*
X179105377Y-76133903D01*
X178996621Y-75984213D01*
X178865787Y-75853379D01*
X178716096Y-75744622D01*
X178679480Y-75725965D01*
X178551235Y-75660620D01*
X178551232Y-75660619D01*
X178375265Y-75603445D01*
X178216070Y-75578231D01*
X178192514Y-75574500D01*
X178007486Y-75574500D01*
X177983930Y-75578231D01*
X177824734Y-75603445D01*
X177720247Y-75637395D01*
X177650406Y-75639390D01*
X177594248Y-75607145D01*
X176664049Y-74676946D01*
X176630564Y-74615623D01*
X176635548Y-74545931D01*
X176651956Y-74515637D01*
X176727793Y-74412882D01*
X176752188Y-74343164D01*
X176772646Y-74284701D01*
X176772646Y-74284699D01*
X176775500Y-74254269D01*
X176775500Y-73645730D01*
X176772646Y-73615300D01*
X176772646Y-73615298D01*
X176739006Y-73519163D01*
X176727793Y-73487118D01*
X176647150Y-73377850D01*
X176537882Y-73297207D01*
X176537880Y-73297206D01*
X176409700Y-73252353D01*
X176379270Y-73249500D01*
X176379266Y-73249500D01*
X175320734Y-73249500D01*
X175320730Y-73249500D01*
X175290300Y-73252353D01*
X175290298Y-73252353D01*
X175162119Y-73297206D01*
X175162117Y-73297207D01*
X175052848Y-73377851D01*
X175000241Y-73449133D01*
X174944594Y-73491384D01*
X174900471Y-73499500D01*
X174349529Y-73499500D01*
X174282490Y-73479815D01*
X174249759Y-73449133D01*
X174197151Y-73377851D01*
X174087882Y-73297207D01*
X174087880Y-73297206D01*
X173959700Y-73252353D01*
X173929270Y-73249500D01*
X173929266Y-73249500D01*
X172870734Y-73249500D01*
X172870730Y-73249500D01*
X172840300Y-73252353D01*
X172840298Y-73252353D01*
X172712119Y-73297206D01*
X172712117Y-73297207D01*
X172602848Y-73377851D01*
X172602846Y-73377853D01*
X172598004Y-73384414D01*
X172542354Y-73426661D01*
X172472697Y-73432115D01*
X172411150Y-73399044D01*
X172410558Y-73398455D01*
X172186819Y-73174716D01*
X172153334Y-73113393D01*
X172150500Y-73087035D01*
X172150500Y-68462965D01*
X172170185Y-68395926D01*
X172186819Y-68375284D01*
X172500285Y-68061819D01*
X172561608Y-68028334D01*
X172587966Y-68025500D01*
X173494750Y-68025500D01*
X173494751Y-68025499D01*
X173509568Y-68022552D01*
X173553229Y-68013868D01*
X173553229Y-68013867D01*
X173553231Y-68013867D01*
X173619552Y-67969552D01*
X173663867Y-67903231D01*
X173663867Y-67903229D01*
X173663868Y-67903229D01*
X173675499Y-67844752D01*
X173675500Y-67844750D01*
X173675500Y-67005249D01*
X173675499Y-67005247D01*
X173663868Y-66946770D01*
X173663867Y-66946769D01*
X173619552Y-66880447D01*
X173553230Y-66836132D01*
X173553229Y-66836131D01*
X173494752Y-66824500D01*
X173494748Y-66824500D01*
X172505252Y-66824500D01*
X172505247Y-66824500D01*
X172446770Y-66836131D01*
X172446769Y-66836132D01*
X172380447Y-66880447D01*
X172336132Y-66946769D01*
X172335262Y-66951145D01*
X172302874Y-67013055D01*
X172275646Y-67034336D01*
X172223392Y-67064505D01*
X172223384Y-67064511D01*
X171339513Y-67948383D01*
X171339509Y-67948389D01*
X171280201Y-68051112D01*
X171280200Y-68051117D01*
X171249500Y-68165691D01*
X162090662Y-68165691D01*
X158086819Y-64161848D01*
X158053334Y-64100525D01*
X158050500Y-64074167D01*
X158050500Y-52758676D01*
X158059144Y-52729235D01*
X158065668Y-52699249D01*
X158069422Y-52694233D01*
X158070185Y-52691637D01*
X158086819Y-52670995D01*
X158112819Y-52644995D01*
X158174142Y-52611510D01*
X158243834Y-52616494D01*
X158299767Y-52658366D01*
X158324184Y-52723830D01*
X158324500Y-52732676D01*
X158324500Y-56664562D01*
X158336793Y-56710438D01*
X158344979Y-56740990D01*
X158344980Y-56740991D01*
X158373541Y-56790460D01*
X158373542Y-56790462D01*
X158384537Y-56809507D01*
X158384539Y-56809510D01*
X158384540Y-56809511D01*
X167609540Y-66034511D01*
X167665489Y-66090460D01*
X167734012Y-66130021D01*
X167810438Y-66150500D01*
X167810440Y-66150500D01*
X167889559Y-66150500D01*
X167889562Y-66150500D01*
X167965988Y-66130021D01*
X167965990Y-66130019D01*
X167967090Y-66129725D01*
X167999185Y-66125500D01*
X172200500Y-66125500D01*
X172267539Y-66145185D01*
X172313294Y-66197989D01*
X172322184Y-66238857D01*
X172323903Y-66238688D01*
X172324500Y-66244752D01*
X172336131Y-66303229D01*
X172336132Y-66303230D01*
X172380447Y-66369552D01*
X172446769Y-66413867D01*
X172446770Y-66413868D01*
X172505247Y-66425499D01*
X172505250Y-66425500D01*
X172505252Y-66425500D01*
X173494750Y-66425500D01*
X173494751Y-66425499D01*
X173509568Y-66422552D01*
X173553229Y-66413868D01*
X173553229Y-66413867D01*
X173553231Y-66413867D01*
X173619552Y-66369552D01*
X173663867Y-66303231D01*
X173663867Y-66303229D01*
X173663868Y-66303229D01*
X173675499Y-66244752D01*
X173675500Y-66244748D01*
X173675500Y-66244741D01*
X173676097Y-66238688D01*
X173678602Y-66238934D01*
X173695185Y-66182461D01*
X173747989Y-66136706D01*
X173799500Y-66125500D01*
X176896811Y-66125500D01*
X176963850Y-66145185D01*
X177009605Y-66197989D01*
X177019549Y-66267147D01*
X177011368Y-66296963D01*
X177010617Y-66298773D01*
X176953445Y-66474734D01*
X176924500Y-66657486D01*
X176924500Y-66842513D01*
X176953445Y-67025265D01*
X177010619Y-67201232D01*
X177010620Y-67201235D01*
X177094622Y-67366096D01*
X177203379Y-67515787D01*
X177334213Y-67646621D01*
X177483904Y-67755378D01*
X177564763Y-67796577D01*
X177648764Y-67839379D01*
X177648767Y-67839380D01*
X177736750Y-67867967D01*
X177824736Y-67896555D01*
X178007486Y-67925500D01*
X178007487Y-67925500D01*
X178192513Y-67925500D01*
X178192514Y-67925500D01*
X178375264Y-67896555D01*
X178551235Y-67839379D01*
X178716096Y-67755378D01*
X178865787Y-67646621D01*
X178996621Y-67515787D01*
X179105378Y-67366096D01*
X179189379Y-67201235D01*
X179246555Y-67025264D01*
X179275500Y-66842514D01*
X179275500Y-66657486D01*
X179246555Y-66474736D01*
X179190830Y-66303230D01*
X179189380Y-66298767D01*
X179189379Y-66298764D01*
X179111126Y-66145185D01*
X179105378Y-66133904D01*
X178996621Y-65984213D01*
X178865787Y-65853379D01*
X178716096Y-65744622D01*
X178551235Y-65660620D01*
X178551232Y-65660619D01*
X178375265Y-65603445D01*
X178283889Y-65588972D01*
X178192514Y-65574500D01*
X178007486Y-65574500D01*
X177946569Y-65584148D01*
X177824734Y-65603445D01*
X177648765Y-65660620D01*
X177587817Y-65691675D01*
X177566783Y-65695625D01*
X177547171Y-65704199D01*
X177533126Y-65701945D01*
X177519148Y-65704571D01*
X177499315Y-65696521D01*
X177478183Y-65693131D01*
X177460924Y-65680939D01*
X177454408Y-65678294D01*
X177448806Y-65673569D01*
X177446262Y-65671291D01*
X177359511Y-65584540D01*
X177342121Y-65574500D01*
X177325664Y-65564998D01*
X177290990Y-65544979D01*
X177265513Y-65538152D01*
X177214562Y-65524500D01*
X177214560Y-65524500D01*
X173799500Y-65524500D01*
X173732461Y-65504815D01*
X173686706Y-65452011D01*
X173677815Y-65411142D01*
X173676097Y-65411312D01*
X173675500Y-65405257D01*
X173675500Y-65405252D01*
X173675420Y-65404852D01*
X173663868Y-65346770D01*
X173663867Y-65346769D01*
X173619552Y-65280447D01*
X173553230Y-65236132D01*
X173553229Y-65236131D01*
X173494752Y-65224500D01*
X173494748Y-65224500D01*
X172505252Y-65224500D01*
X172505247Y-65224500D01*
X172446770Y-65236131D01*
X172446769Y-65236132D01*
X172380447Y-65280447D01*
X172336132Y-65346769D01*
X172336131Y-65346770D01*
X172324500Y-65405247D01*
X172323903Y-65411312D01*
X172321397Y-65411065D01*
X172304815Y-65467539D01*
X172252011Y-65513294D01*
X172200500Y-65524500D01*
X168000833Y-65524500D01*
X167933794Y-65504815D01*
X167913152Y-65488181D01*
X163559079Y-61134108D01*
X169999500Y-61134108D01*
X169999500Y-61142889D01*
X169999500Y-61265891D01*
X170033608Y-61393187D01*
X170038759Y-61402108D01*
X170099500Y-61507314D01*
X170192686Y-61600500D01*
X170306814Y-61666392D01*
X170434108Y-61700500D01*
X170434110Y-61700500D01*
X170565890Y-61700500D01*
X170565892Y-61700500D01*
X170693186Y-61666392D01*
X170807314Y-61600500D01*
X170900500Y-61507314D01*
X170966392Y-61393186D01*
X171000500Y-61265892D01*
X171000500Y-61134108D01*
X170966392Y-61006814D01*
X170966388Y-61006807D01*
X170963281Y-60999304D01*
X170964616Y-60998751D01*
X170950500Y-60946062D01*
X170950500Y-54037965D01*
X170970185Y-53970926D01*
X170986819Y-53950284D01*
X171213991Y-53723111D01*
X171261228Y-53695842D01*
X171260674Y-53694504D01*
X171268180Y-53691393D01*
X171268186Y-53691392D01*
X171382314Y-53625500D01*
X171475500Y-53532314D01*
X171541392Y-53418186D01*
X171575500Y-53290892D01*
X171575500Y-53159108D01*
X171541392Y-53031814D01*
X171475500Y-52917686D01*
X171382314Y-52824500D01*
X171325250Y-52791554D01*
X171268187Y-52758608D01*
X171204539Y-52741554D01*
X171140892Y-52724500D01*
X171009108Y-52724500D01*
X170881812Y-52758608D01*
X170767686Y-52824500D01*
X170767683Y-52824502D01*
X170674502Y-52917683D01*
X170674498Y-52917689D01*
X170608607Y-53031816D01*
X170605497Y-53039324D01*
X170604161Y-53038770D01*
X170576888Y-53086007D01*
X170139513Y-53523383D01*
X170139509Y-53523389D01*
X170080201Y-53626112D01*
X170080200Y-53626117D01*
X170049500Y-53740691D01*
X170049500Y-60946062D01*
X170049026Y-60947828D01*
X170044972Y-60979264D01*
X170040756Y-60994431D01*
X170033608Y-61006814D01*
X169999500Y-61134108D01*
X163559079Y-61134108D01*
X158961819Y-56536848D01*
X158928334Y-56475525D01*
X158925500Y-56449167D01*
X158925500Y-51335439D01*
X158925500Y-51335438D01*
X158919818Y-51314234D01*
X176274500Y-51314234D01*
X176274500Y-51465766D01*
X176294109Y-51538950D01*
X176313719Y-51612136D01*
X176351602Y-51677750D01*
X176389485Y-51743365D01*
X176496635Y-51850515D01*
X176627865Y-51926281D01*
X176774234Y-51965500D01*
X176774236Y-51965500D01*
X176925764Y-51965500D01*
X176925766Y-51965500D01*
X177072135Y-51926281D01*
X177203365Y-51850515D01*
X177310515Y-51743365D01*
X177386281Y-51612135D01*
X177425500Y-51465766D01*
X177425500Y-51314234D01*
X177386281Y-51167865D01*
X177310515Y-51036635D01*
X177203365Y-50929485D01*
X177135819Y-50890487D01*
X177072136Y-50853719D01*
X176998950Y-50834109D01*
X176925766Y-50814500D01*
X176774234Y-50814500D01*
X176627863Y-50853719D01*
X176496635Y-50929485D01*
X176496632Y-50929487D01*
X176389487Y-51036632D01*
X176389485Y-51036635D01*
X176313719Y-51167863D01*
X176274500Y-51314234D01*
X158919818Y-51314234D01*
X158905021Y-51259011D01*
X158894741Y-51241206D01*
X158865464Y-51190495D01*
X158865458Y-51190487D01*
X157836819Y-50161848D01*
X157803334Y-50100525D01*
X157800500Y-50074167D01*
X157800500Y-49459108D01*
X161449500Y-49459108D01*
X161449500Y-49590891D01*
X161483608Y-49718187D01*
X161516554Y-49775250D01*
X161549500Y-49832314D01*
X161642686Y-49925500D01*
X161756814Y-49991392D01*
X161884108Y-50025500D01*
X161884110Y-50025500D01*
X162015890Y-50025500D01*
X162015892Y-50025500D01*
X162143186Y-49991392D01*
X162257314Y-49925500D01*
X162350500Y-49832314D01*
X162416392Y-49718186D01*
X162450500Y-49590892D01*
X162450500Y-49500832D01*
X162470185Y-49433793D01*
X162486819Y-49413151D01*
X162606495Y-49293475D01*
X170174500Y-49293475D01*
X170174500Y-49906517D01*
X170180753Y-49945997D01*
X170189354Y-50000304D01*
X170246950Y-50113342D01*
X170246952Y-50113344D01*
X170246954Y-50113347D01*
X170336652Y-50203045D01*
X170336654Y-50203046D01*
X170336658Y-50203050D01*
X170449694Y-50260645D01*
X170449698Y-50260647D01*
X170543475Y-50275499D01*
X170543481Y-50275500D01*
X171006518Y-50275499D01*
X171100304Y-50260646D01*
X171213342Y-50203050D01*
X171254544Y-50161848D01*
X171303050Y-50113343D01*
X171308786Y-50105448D01*
X171311059Y-50107100D01*
X171348546Y-50067409D01*
X171411057Y-50050500D01*
X173195107Y-50050500D01*
X173262146Y-50070185D01*
X173292732Y-50102260D01*
X173294552Y-50100865D01*
X173299498Y-50107311D01*
X173299500Y-50107314D01*
X173392686Y-50200500D01*
X173506814Y-50266392D01*
X173634108Y-50300500D01*
X173634110Y-50300500D01*
X173765890Y-50300500D01*
X173765892Y-50300500D01*
X173893186Y-50266392D01*
X174007314Y-50200500D01*
X174100500Y-50107314D01*
X174105238Y-50099108D01*
X178950500Y-50099108D01*
X178950500Y-50230892D01*
X178958473Y-50260647D01*
X178984608Y-50358187D01*
X179017554Y-50415250D01*
X179050500Y-50472314D01*
X179143686Y-50565500D01*
X179257814Y-50631392D01*
X179385108Y-50665500D01*
X179385110Y-50665500D01*
X179516890Y-50665500D01*
X179516892Y-50665500D01*
X179644186Y-50631392D01*
X179758314Y-50565500D01*
X179851500Y-50472314D01*
X179917392Y-50358186D01*
X179951500Y-50230892D01*
X179951500Y-50099108D01*
X179917392Y-49971814D01*
X179917388Y-49971807D01*
X179914281Y-49964304D01*
X179915616Y-49963751D01*
X179913959Y-49957569D01*
X179906523Y-49945997D01*
X179901500Y-49911062D01*
X179901500Y-49809499D01*
X179921185Y-49742460D01*
X179973989Y-49696705D01*
X180025500Y-49685499D01*
X180138517Y-49685499D01*
X180138518Y-49685499D01*
X180232304Y-49670646D01*
X180345342Y-49613050D01*
X180435050Y-49523342D01*
X180492646Y-49410304D01*
X180492646Y-49410302D01*
X180492647Y-49410301D01*
X180504793Y-49333608D01*
X180507500Y-49316519D01*
X180507499Y-48853482D01*
X180492646Y-48759696D01*
X180435050Y-48646658D01*
X180435046Y-48646654D01*
X180435045Y-48646652D01*
X180345347Y-48556954D01*
X180345344Y-48556952D01*
X180345342Y-48556950D01*
X180268517Y-48517805D01*
X180232301Y-48499352D01*
X180138524Y-48484500D01*
X179525482Y-48484500D01*
X179444519Y-48497323D01*
X179431696Y-48499354D01*
X179318658Y-48556950D01*
X179318657Y-48556951D01*
X179318652Y-48556954D01*
X179228954Y-48646652D01*
X179228951Y-48646657D01*
X179228950Y-48646658D01*
X179171354Y-48759696D01*
X179168339Y-48768976D01*
X179166606Y-48768413D01*
X179141727Y-48820883D01*
X179136877Y-48826018D01*
X179090511Y-48872386D01*
X179041476Y-48957316D01*
X179031200Y-48975115D01*
X179031200Y-48975117D01*
X179000500Y-49089691D01*
X179000500Y-49911062D01*
X179000026Y-49912828D01*
X178995972Y-49944264D01*
X178991756Y-49959431D01*
X178984608Y-49971814D01*
X178950500Y-50099108D01*
X174105238Y-50099108D01*
X174166392Y-49993186D01*
X174200500Y-49865892D01*
X174200500Y-49734108D01*
X174166392Y-49606814D01*
X174100500Y-49492686D01*
X174007314Y-49399500D01*
X173901114Y-49338185D01*
X173893187Y-49333608D01*
X173829408Y-49316519D01*
X173765892Y-49299500D01*
X173634108Y-49299500D01*
X173506812Y-49333608D01*
X173392686Y-49399500D01*
X173392683Y-49399502D01*
X173379005Y-49413181D01*
X173317682Y-49446666D01*
X173291324Y-49449500D01*
X171499499Y-49449500D01*
X171432460Y-49429815D01*
X171386705Y-49377011D01*
X171375499Y-49325500D01*
X171375499Y-49293482D01*
X171371427Y-49267770D01*
X171360646Y-49199696D01*
X171303050Y-49086658D01*
X171303046Y-49086654D01*
X171303045Y-49086652D01*
X171213347Y-48996954D01*
X171213344Y-48996952D01*
X171213342Y-48996950D01*
X171135550Y-48957313D01*
X171100301Y-48939352D01*
X171006524Y-48924500D01*
X170543482Y-48924500D01*
X170462519Y-48937323D01*
X170449696Y-48939354D01*
X170336658Y-48996950D01*
X170336657Y-48996951D01*
X170336652Y-48996954D01*
X170246954Y-49086652D01*
X170246951Y-49086657D01*
X170189352Y-49199698D01*
X170174500Y-49293475D01*
X162606495Y-49293475D01*
X163650470Y-48249500D01*
X164915460Y-46984511D01*
X164923549Y-46970500D01*
X164955021Y-46915989D01*
X164975500Y-46839562D01*
X164975500Y-46556475D01*
X170214500Y-46556475D01*
X170214500Y-47169517D01*
X170223209Y-47224502D01*
X170229354Y-47263304D01*
X170286950Y-47376342D01*
X170286952Y-47376344D01*
X170286954Y-47376347D01*
X170376652Y-47466045D01*
X170376654Y-47466046D01*
X170376658Y-47466050D01*
X170478982Y-47518187D01*
X170489698Y-47523647D01*
X170583475Y-47538499D01*
X170583481Y-47538500D01*
X171046518Y-47538499D01*
X171140304Y-47523646D01*
X171253342Y-47466050D01*
X171343050Y-47376342D01*
X171400646Y-47263304D01*
X171400646Y-47263302D01*
X171400647Y-47263301D01*
X171403663Y-47254020D01*
X171406174Y-47254836D01*
X171429820Y-47204963D01*
X171489134Y-47168034D01*
X171522360Y-47163500D01*
X173569226Y-47163500D01*
X173631225Y-47180112D01*
X173669814Y-47202392D01*
X173797108Y-47236500D01*
X173797110Y-47236500D01*
X173928890Y-47236500D01*
X173928892Y-47236500D01*
X174056186Y-47202392D01*
X174170314Y-47136500D01*
X174263500Y-47043314D01*
X174329392Y-46929186D01*
X174363500Y-46801892D01*
X174363500Y-46670108D01*
X174329392Y-46542814D01*
X174263500Y-46428686D01*
X174170314Y-46335500D01*
X174111736Y-46301680D01*
X174056187Y-46269608D01*
X173992539Y-46252554D01*
X173928892Y-46235500D01*
X173797108Y-46235500D01*
X173669812Y-46269608D01*
X173555686Y-46335500D01*
X173555683Y-46335502D01*
X173462502Y-46428683D01*
X173462498Y-46428689D01*
X173421038Y-46500500D01*
X173370471Y-46548716D01*
X173313651Y-46562500D01*
X171522360Y-46562500D01*
X171455321Y-46542815D01*
X171409566Y-46490011D01*
X171404088Y-46471842D01*
X171403663Y-46471981D01*
X171400647Y-46462699D01*
X171400646Y-46462697D01*
X171400646Y-46462696D01*
X171343050Y-46349658D01*
X171343046Y-46349654D01*
X171343045Y-46349652D01*
X171253347Y-46259954D01*
X171253344Y-46259952D01*
X171253342Y-46259950D01*
X171158937Y-46211848D01*
X171140301Y-46202352D01*
X171046524Y-46187500D01*
X170583482Y-46187500D01*
X170502519Y-46200323D01*
X170489696Y-46202354D01*
X170376658Y-46259950D01*
X170376657Y-46259951D01*
X170376652Y-46259954D01*
X170286954Y-46349652D01*
X170286951Y-46349657D01*
X170286950Y-46349658D01*
X170277329Y-46368540D01*
X170229352Y-46462698D01*
X170214500Y-46556475D01*
X164975500Y-46556475D01*
X164975500Y-41118676D01*
X164995185Y-41051637D01*
X165011819Y-41030995D01*
X165075500Y-40967314D01*
X165141392Y-40853186D01*
X165175500Y-40725892D01*
X165175500Y-40594108D01*
X165141392Y-40466814D01*
X165075500Y-40352686D01*
X164982314Y-40259500D01*
X164915341Y-40220833D01*
X164868187Y-40193608D01*
X164804539Y-40176554D01*
X164740892Y-40159500D01*
X164609108Y-40159500D01*
X164481812Y-40193608D01*
X164367686Y-40259500D01*
X164367683Y-40259502D01*
X164274502Y-40352683D01*
X164274500Y-40352686D01*
X164208608Y-40466812D01*
X164174500Y-40594108D01*
X164174500Y-40725891D01*
X164208608Y-40853187D01*
X164240523Y-40908465D01*
X164274500Y-40967314D01*
X164274502Y-40967316D01*
X164338181Y-41030995D01*
X164371666Y-41092318D01*
X164374500Y-41118676D01*
X164374500Y-46624166D01*
X164354815Y-46691205D01*
X164338181Y-46711847D01*
X162061847Y-48988181D01*
X162000524Y-49021666D01*
X161974166Y-49024500D01*
X161884108Y-49024500D01*
X161756812Y-49058608D01*
X161642686Y-49124500D01*
X161642683Y-49124502D01*
X161549502Y-49217683D01*
X161549500Y-49217686D01*
X161483608Y-49331812D01*
X161449500Y-49459108D01*
X157800500Y-49459108D01*
X157800500Y-48958676D01*
X157820185Y-48891637D01*
X157836819Y-48870995D01*
X157864628Y-48843186D01*
X157900500Y-48807314D01*
X157966392Y-48693186D01*
X158000500Y-48565892D01*
X158000500Y-48434108D01*
X157966392Y-48306814D01*
X157900500Y-48192686D01*
X157807314Y-48099500D01*
X157743389Y-48062593D01*
X157693187Y-48033608D01*
X157616842Y-48013152D01*
X157565892Y-47999500D01*
X157434108Y-47999500D01*
X157306812Y-48033608D01*
X157192686Y-48099500D01*
X157192683Y-48099502D01*
X157099502Y-48192683D01*
X157099500Y-48192686D01*
X157033608Y-48306812D01*
X157019275Y-48360307D01*
X156982910Y-48419968D01*
X156920063Y-48450497D01*
X156850688Y-48442202D01*
X156796810Y-48397717D01*
X156775535Y-48331165D01*
X156775500Y-48328214D01*
X156775500Y-48210676D01*
X156795185Y-48143637D01*
X156811819Y-48122995D01*
X156843371Y-48091443D01*
X156875500Y-48059314D01*
X156941392Y-47945186D01*
X156975500Y-47817892D01*
X156975500Y-47686108D01*
X156941392Y-47558814D01*
X156875500Y-47444686D01*
X156782314Y-47351500D01*
X156723741Y-47317683D01*
X156668187Y-47285608D01*
X156661036Y-47283692D01*
X156648279Y-47280274D01*
X156588621Y-47243910D01*
X156558091Y-47181064D01*
X156566385Y-47111688D01*
X156610870Y-47057810D01*
X156677422Y-47036535D01*
X156680374Y-47036500D01*
X160816060Y-47036500D01*
X160816062Y-47036500D01*
X160892489Y-47016021D01*
X160961011Y-46976460D01*
X161016960Y-46920511D01*
X161813151Y-46124318D01*
X161874474Y-46090834D01*
X161900832Y-46088000D01*
X161990890Y-46088000D01*
X161990892Y-46088000D01*
X162118186Y-46053892D01*
X162232314Y-45988000D01*
X162325500Y-45894814D01*
X162391392Y-45780686D01*
X162425500Y-45653392D01*
X162425500Y-45521608D01*
X162391392Y-45394314D01*
X162325500Y-45280186D01*
X162232314Y-45187000D01*
X162167336Y-45149485D01*
X162118187Y-45121108D01*
X162013982Y-45093187D01*
X161990892Y-45087000D01*
X161859108Y-45087000D01*
X161731812Y-45121108D01*
X161617686Y-45187000D01*
X161617683Y-45187002D01*
X161524502Y-45280183D01*
X161524500Y-45280186D01*
X161458608Y-45394312D01*
X161424500Y-45521608D01*
X161424500Y-45611666D01*
X161404815Y-45678705D01*
X161388181Y-45699347D01*
X160688348Y-46399181D01*
X160627025Y-46432666D01*
X160600667Y-46435500D01*
X152736127Y-46435500D01*
X152669088Y-46415815D01*
X152623333Y-46363011D01*
X152613389Y-46293853D01*
X152616352Y-46279407D01*
X152618288Y-46272181D01*
X152646500Y-46166892D01*
X152646500Y-46035108D01*
X152612392Y-45907814D01*
X152546500Y-45793686D01*
X152453314Y-45700500D01*
X152451317Y-45699347D01*
X152381499Y-45659036D01*
X152333284Y-45608469D01*
X152319500Y-45551650D01*
X152319500Y-40701530D01*
X156699500Y-40701530D01*
X156699500Y-40908469D01*
X156739868Y-41111412D01*
X156739870Y-41111420D01*
X156819058Y-41302596D01*
X156934024Y-41474657D01*
X157080342Y-41620975D01*
X157080345Y-41620977D01*
X157252402Y-41735941D01*
X157443580Y-41815130D01*
X157646530Y-41855499D01*
X157646534Y-41855500D01*
X157646535Y-41855500D01*
X157853466Y-41855500D01*
X157853467Y-41855499D01*
X158056420Y-41815130D01*
X158247598Y-41735941D01*
X158419655Y-41620977D01*
X158565977Y-41474655D01*
X158680941Y-41302598D01*
X158760130Y-41111420D01*
X158800500Y-40908465D01*
X158800500Y-40701535D01*
X158760130Y-40498580D01*
X158680941Y-40307402D01*
X158565977Y-40135345D01*
X158565975Y-40135342D01*
X158419657Y-39989024D01*
X158329837Y-39929009D01*
X158247598Y-39874059D01*
X158214837Y-39860489D01*
X158056420Y-39794870D01*
X158056412Y-39794868D01*
X157853469Y-39754500D01*
X157853465Y-39754500D01*
X157646535Y-39754500D01*
X157646530Y-39754500D01*
X157443587Y-39794868D01*
X157443579Y-39794870D01*
X157252403Y-39874058D01*
X157080342Y-39989024D01*
X156934024Y-40135342D01*
X156819058Y-40307403D01*
X156739870Y-40498579D01*
X156739868Y-40498587D01*
X156699500Y-40701530D01*
X152319500Y-40701530D01*
X152319500Y-38161530D01*
X156699500Y-38161530D01*
X156699500Y-38368469D01*
X156739868Y-38571412D01*
X156739870Y-38571420D01*
X156819058Y-38762596D01*
X156934024Y-38934657D01*
X157080342Y-39080975D01*
X157080345Y-39080977D01*
X157252402Y-39195941D01*
X157443580Y-39275130D01*
X157621393Y-39310499D01*
X157646530Y-39315499D01*
X157646534Y-39315500D01*
X157646535Y-39315500D01*
X157853466Y-39315500D01*
X157853467Y-39315499D01*
X158056420Y-39275130D01*
X158247598Y-39195941D01*
X158419655Y-39080977D01*
X158565977Y-38934655D01*
X158680941Y-38762598D01*
X158688600Y-38744108D01*
X164239500Y-38744108D01*
X164239500Y-38875892D01*
X164251814Y-38921848D01*
X164273608Y-39003187D01*
X164306554Y-39060250D01*
X164339500Y-39117314D01*
X164432686Y-39210500D01*
X164546814Y-39276392D01*
X164674108Y-39310500D01*
X164674110Y-39310500D01*
X164764167Y-39310500D01*
X164831206Y-39330185D01*
X164851848Y-39346819D01*
X165638181Y-40133152D01*
X165671666Y-40194475D01*
X165674500Y-40220833D01*
X165674500Y-44466324D01*
X165654815Y-44533363D01*
X165638181Y-44554005D01*
X165599502Y-44592683D01*
X165599500Y-44592686D01*
X165533608Y-44706812D01*
X165499500Y-44834108D01*
X165499500Y-44965891D01*
X165533608Y-45093187D01*
X165549729Y-45121108D01*
X165599500Y-45207314D01*
X165692686Y-45300500D01*
X165806814Y-45366392D01*
X165934108Y-45400500D01*
X165934110Y-45400500D01*
X166065890Y-45400500D01*
X166065892Y-45400500D01*
X166193186Y-45366392D01*
X166307314Y-45300500D01*
X166400500Y-45207314D01*
X166466392Y-45093186D01*
X166500500Y-44965892D01*
X166500500Y-44834108D01*
X166466392Y-44706814D01*
X166400500Y-44592686D01*
X166311819Y-44504005D01*
X166278334Y-44442682D01*
X166275500Y-44416324D01*
X166275500Y-41809108D01*
X170199500Y-41809108D01*
X170199500Y-41940891D01*
X170233608Y-42068187D01*
X170251262Y-42098764D01*
X170299500Y-42182314D01*
X170392686Y-42275500D01*
X170506814Y-42341392D01*
X170634108Y-42375500D01*
X170634110Y-42375500D01*
X170765890Y-42375500D01*
X170765892Y-42375500D01*
X170893186Y-42341392D01*
X171007314Y-42275500D01*
X171070995Y-42211819D01*
X171097922Y-42197115D01*
X171123741Y-42180523D01*
X171129941Y-42179631D01*
X171132318Y-42178334D01*
X171158676Y-42175500D01*
X171299110Y-42175500D01*
X171366149Y-42195185D01*
X171386791Y-42211819D01*
X175968483Y-46793511D01*
X176024432Y-46849460D01*
X176024434Y-46849461D01*
X176024438Y-46849464D01*
X176072405Y-46877157D01*
X176092954Y-46889021D01*
X176169381Y-46909500D01*
X177086626Y-46909500D01*
X177153665Y-46929185D01*
X177199420Y-46981989D01*
X177209364Y-47051147D01*
X177180339Y-47114703D01*
X177121561Y-47152477D01*
X177118756Y-47153264D01*
X177109334Y-47155789D01*
X177098812Y-47158608D01*
X176984686Y-47224500D01*
X176984683Y-47224502D01*
X176891502Y-47317683D01*
X176891500Y-47317686D01*
X176825608Y-47431812D01*
X176791500Y-47559108D01*
X176791500Y-47690891D01*
X176825608Y-47818187D01*
X176850799Y-47861818D01*
X176891500Y-47932314D01*
X176891502Y-47932316D01*
X176955181Y-47995995D01*
X176988666Y-48057318D01*
X176991500Y-48083676D01*
X176991500Y-48391323D01*
X176971815Y-48458362D01*
X176955182Y-48479004D01*
X176869707Y-48564479D01*
X176803815Y-48678605D01*
X176786993Y-48741388D01*
X176769707Y-48805901D01*
X176769707Y-48937685D01*
X176779736Y-48975113D01*
X176803815Y-49064980D01*
X176832170Y-49114091D01*
X176869707Y-49179107D01*
X176962893Y-49272293D01*
X177077021Y-49338185D01*
X177204315Y-49372293D01*
X177204317Y-49372293D01*
X177336097Y-49372293D01*
X177336099Y-49372293D01*
X177463393Y-49338185D01*
X177577521Y-49272293D01*
X177670707Y-49179107D01*
X177736599Y-49064979D01*
X177770707Y-48937685D01*
X177770707Y-48805901D01*
X177736599Y-48678607D01*
X177670707Y-48564479D01*
X177628819Y-48522591D01*
X177595334Y-48461268D01*
X177592500Y-48434910D01*
X177592500Y-48083676D01*
X177612185Y-48016637D01*
X177628819Y-47995995D01*
X177658568Y-47966246D01*
X177692500Y-47932314D01*
X177758392Y-47818186D01*
X177792500Y-47690892D01*
X177792500Y-47559108D01*
X177758392Y-47431814D01*
X177692500Y-47317686D01*
X177599314Y-47224500D01*
X177522434Y-47180113D01*
X177485187Y-47158608D01*
X177478036Y-47156692D01*
X177465279Y-47153274D01*
X177405621Y-47116910D01*
X177375091Y-47054064D01*
X177383385Y-46984688D01*
X177427870Y-46930810D01*
X177494422Y-46909535D01*
X177497374Y-46909500D01*
X178508167Y-46909500D01*
X178575206Y-46929185D01*
X178595848Y-46945819D01*
X179120181Y-47470152D01*
X179153666Y-47531475D01*
X179156500Y-47557832D01*
X179156500Y-47666517D01*
X179165842Y-47725499D01*
X179171354Y-47760304D01*
X179228950Y-47873342D01*
X179228952Y-47873344D01*
X179228954Y-47873347D01*
X179318652Y-47963045D01*
X179318654Y-47963046D01*
X179318658Y-47963050D01*
X179423828Y-48016637D01*
X179431698Y-48020647D01*
X179525475Y-48035499D01*
X179525481Y-48035500D01*
X180138518Y-48035499D01*
X180232304Y-48020646D01*
X180345342Y-47963050D01*
X180435050Y-47873342D01*
X180470787Y-47803203D01*
X180518761Y-47752409D01*
X180581271Y-47735500D01*
X181114728Y-47735500D01*
X181181767Y-47755185D01*
X181225212Y-47803204D01*
X181260949Y-47873340D01*
X181260954Y-47873347D01*
X181350652Y-47963045D01*
X181350654Y-47963046D01*
X181350658Y-47963050D01*
X181455828Y-48016637D01*
X181463698Y-48020647D01*
X181557475Y-48035499D01*
X181557481Y-48035500D01*
X182170518Y-48035499D01*
X182264304Y-48020646D01*
X182377342Y-47963050D01*
X182467050Y-47873342D01*
X182524646Y-47760304D01*
X182524646Y-47760302D01*
X182524647Y-47760301D01*
X182536646Y-47684540D01*
X182539500Y-47666519D01*
X182539499Y-47203482D01*
X182524646Y-47109696D01*
X182467050Y-46996658D01*
X182467046Y-46996654D01*
X182467045Y-46996652D01*
X182377347Y-46906954D01*
X182377344Y-46906952D01*
X182377342Y-46906950D01*
X182282466Y-46858608D01*
X182264301Y-46849352D01*
X182170524Y-46834500D01*
X181557482Y-46834500D01*
X181476519Y-46847323D01*
X181463696Y-46849354D01*
X181350658Y-46906950D01*
X181350657Y-46906951D01*
X181350652Y-46906954D01*
X181260954Y-46996652D01*
X181260951Y-46996657D01*
X181260950Y-46996658D01*
X181225212Y-47066796D01*
X181177239Y-47117591D01*
X181114729Y-47134500D01*
X180581272Y-47134500D01*
X180514233Y-47114815D01*
X180470788Y-47066796D01*
X180439176Y-47004756D01*
X180435050Y-46996658D01*
X180435047Y-46996655D01*
X180435045Y-46996652D01*
X180345347Y-46906954D01*
X180345344Y-46906952D01*
X180345342Y-46906950D01*
X180250466Y-46858608D01*
X180232301Y-46849352D01*
X180138524Y-46834500D01*
X179525481Y-46834500D01*
X179422988Y-46850733D01*
X179353695Y-46841777D01*
X179315911Y-46815940D01*
X178868512Y-46368541D01*
X178868511Y-46368540D01*
X178835806Y-46349658D01*
X178835804Y-46349657D01*
X178835803Y-46349655D01*
X178799994Y-46328981D01*
X178799991Y-46328979D01*
X178761775Y-46318739D01*
X178723562Y-46308500D01*
X178723560Y-46308500D01*
X177253937Y-46308500D01*
X177186898Y-46288815D01*
X177141143Y-46236011D01*
X177131199Y-46166853D01*
X177160224Y-46103297D01*
X177191937Y-46077113D01*
X177192048Y-46077048D01*
X177203365Y-46070515D01*
X177310515Y-45963365D01*
X177386281Y-45832135D01*
X177425500Y-45685766D01*
X177425500Y-45534234D01*
X177386281Y-45387865D01*
X177310515Y-45256635D01*
X177203365Y-45149485D01*
X177137750Y-45111602D01*
X177072136Y-45073719D01*
X176998950Y-45054109D01*
X176925766Y-45034500D01*
X176774234Y-45034500D01*
X176627863Y-45073719D01*
X176496635Y-45149485D01*
X176496632Y-45149487D01*
X176389487Y-45256632D01*
X176389485Y-45256635D01*
X176313719Y-45387863D01*
X176278017Y-45521108D01*
X176274500Y-45534234D01*
X176274500Y-45685766D01*
X176294109Y-45758950D01*
X176313719Y-45832136D01*
X176349906Y-45894813D01*
X176389485Y-45963365D01*
X176496635Y-46070515D01*
X176507865Y-46076998D01*
X176508063Y-46077113D01*
X176556279Y-46127680D01*
X176569501Y-46196287D01*
X176543533Y-46261152D01*
X176486619Y-46301680D01*
X176446063Y-46308500D01*
X176384776Y-46308500D01*
X176317737Y-46288815D01*
X176297095Y-46272181D01*
X171659453Y-41634539D01*
X171647708Y-41627758D01*
X171635962Y-41620977D01*
X171613447Y-41607978D01*
X171590933Y-41594979D01*
X171565456Y-41588152D01*
X171514505Y-41574500D01*
X171514503Y-41574500D01*
X171158676Y-41574500D01*
X171091637Y-41554815D01*
X171070995Y-41538181D01*
X171007316Y-41474502D01*
X171007314Y-41474500D01*
X170950250Y-41441554D01*
X170893187Y-41408608D01*
X170829539Y-41391554D01*
X170765892Y-41374500D01*
X170634108Y-41374500D01*
X170506812Y-41408608D01*
X170392686Y-41474500D01*
X170392683Y-41474502D01*
X170299502Y-41567683D01*
X170299500Y-41567686D01*
X170233608Y-41681812D01*
X170199500Y-41809108D01*
X166275500Y-41809108D01*
X166275500Y-40005440D01*
X166275499Y-40005436D01*
X166271101Y-39989023D01*
X166258097Y-39940489D01*
X166255022Y-39929012D01*
X166215460Y-39860489D01*
X165276819Y-38921848D01*
X165243334Y-38860525D01*
X165240500Y-38834167D01*
X165240500Y-38744110D01*
X165240500Y-38744108D01*
X165206392Y-38616814D01*
X165140500Y-38502686D01*
X165047314Y-38409500D01*
X164990250Y-38376554D01*
X164933187Y-38343608D01*
X164869539Y-38326554D01*
X164805892Y-38309500D01*
X164674108Y-38309500D01*
X164546812Y-38343608D01*
X164432686Y-38409500D01*
X164432683Y-38409502D01*
X164339502Y-38502683D01*
X164339500Y-38502686D01*
X164273608Y-38616812D01*
X164244486Y-38725500D01*
X164239500Y-38744108D01*
X158688600Y-38744108D01*
X158760130Y-38571420D01*
X158800500Y-38368465D01*
X158800500Y-38161535D01*
X158760130Y-37958580D01*
X158680941Y-37767402D01*
X158565977Y-37595345D01*
X158565975Y-37595342D01*
X158419657Y-37449024D01*
X158272241Y-37350525D01*
X158247598Y-37334059D01*
X158203739Y-37315892D01*
X158056420Y-37254870D01*
X158056412Y-37254868D01*
X157853469Y-37214500D01*
X157853465Y-37214500D01*
X157646535Y-37214500D01*
X157646530Y-37214500D01*
X157443587Y-37254868D01*
X157443579Y-37254870D01*
X157252403Y-37334058D01*
X157080342Y-37449024D01*
X156934024Y-37595342D01*
X156819058Y-37767403D01*
X156739870Y-37958579D01*
X156739868Y-37958587D01*
X156699500Y-38161530D01*
X152319500Y-38161530D01*
X152319500Y-37298439D01*
X152313148Y-37274734D01*
X152299021Y-37222011D01*
X152269012Y-37170033D01*
X152259464Y-37153495D01*
X152259458Y-37153487D01*
X151514510Y-36408539D01*
X151498527Y-36399312D01*
X151482544Y-36390084D01*
X151455552Y-36374500D01*
X151445990Y-36368979D01*
X151420513Y-36362152D01*
X151369562Y-36348500D01*
X135650438Y-36348500D01*
X135612224Y-36358739D01*
X135574009Y-36368979D01*
X135549641Y-36383049D01*
X135537456Y-36390084D01*
X135527958Y-36395567D01*
X135505489Y-36408539D01*
X134812512Y-37101516D01*
X134812506Y-37101524D01*
X134772953Y-37170033D01*
X134772950Y-37170038D01*
X134752471Y-37246468D01*
X134752471Y-41746196D01*
X134743826Y-41775636D01*
X134737303Y-41805623D01*
X134733548Y-41810638D01*
X134732786Y-41813235D01*
X134716152Y-41833877D01*
X134561848Y-41988181D01*
X134500525Y-42021666D01*
X134474167Y-42024500D01*
X131410438Y-42024500D01*
X131372224Y-42034739D01*
X131334009Y-42044979D01*
X131334004Y-42044982D01*
X131265495Y-42084535D01*
X131265487Y-42084541D01*
X127734541Y-45615487D01*
X127734535Y-45615495D01*
X127694982Y-45684004D01*
X127694979Y-45684009D01*
X127674500Y-45760439D01*
X127674500Y-98674167D01*
X127654815Y-98741206D01*
X127638181Y-98761848D01*
X123009541Y-103390487D01*
X123009535Y-103390495D01*
X122969982Y-103459004D01*
X122969979Y-103459009D01*
X122958364Y-103502356D01*
X122950338Y-103532313D01*
X122949500Y-103535439D01*
X122949500Y-104241323D01*
X122929815Y-104308362D01*
X122913182Y-104329004D01*
X122849500Y-104392686D01*
X122783608Y-104506812D01*
X122749500Y-104634108D01*
X113550500Y-104634108D01*
X113550500Y-102913389D01*
X117539500Y-102913389D01*
X117539500Y-103086611D01*
X117566598Y-103257701D01*
X117620127Y-103422445D01*
X117698768Y-103576788D01*
X117800586Y-103716928D01*
X117923072Y-103839414D01*
X118063212Y-103941232D01*
X118217555Y-104019873D01*
X118382299Y-104073402D01*
X118553389Y-104100500D01*
X118553390Y-104100500D01*
X118726610Y-104100500D01*
X118726611Y-104100500D01*
X118897701Y-104073402D01*
X119062445Y-104019873D01*
X119216788Y-103941232D01*
X119356928Y-103839414D01*
X119479414Y-103716928D01*
X119581232Y-103576788D01*
X119659873Y-103422445D01*
X119713402Y-103257701D01*
X119740500Y-103086611D01*
X119740500Y-102913389D01*
X119713402Y-102742299D01*
X119659873Y-102577555D01*
X119581232Y-102423212D01*
X119479414Y-102283072D01*
X119356928Y-102160586D01*
X119216788Y-102058768D01*
X119062445Y-101980127D01*
X118897701Y-101926598D01*
X118897699Y-101926597D01*
X118897698Y-101926597D01*
X118766271Y-101905781D01*
X118726611Y-101899500D01*
X118553389Y-101899500D01*
X118513728Y-101905781D01*
X118382302Y-101926597D01*
X118217552Y-101980128D01*
X118063211Y-102058768D01*
X117983256Y-102116859D01*
X117923072Y-102160586D01*
X117923070Y-102160588D01*
X117923069Y-102160588D01*
X117800588Y-102283069D01*
X117800588Y-102283070D01*
X117800586Y-102283072D01*
X117770487Y-102324500D01*
X117698768Y-102423211D01*
X117620128Y-102577552D01*
X117566597Y-102742302D01*
X117547792Y-102861036D01*
X117539500Y-102913389D01*
X113550500Y-102913389D01*
X113550500Y-96384108D01*
X122174500Y-96384108D01*
X122174500Y-96515892D01*
X122191554Y-96579539D01*
X122208608Y-96643187D01*
X122235902Y-96690460D01*
X122274500Y-96757314D01*
X122367686Y-96850500D01*
X122481814Y-96916392D01*
X122609108Y-96950500D01*
X122609110Y-96950500D01*
X122740890Y-96950500D01*
X122740892Y-96950500D01*
X122868186Y-96916392D01*
X122982314Y-96850500D01*
X123045995Y-96786819D01*
X123107318Y-96753334D01*
X123133676Y-96750500D01*
X123789560Y-96750500D01*
X123789562Y-96750500D01*
X123865989Y-96730021D01*
X123934511Y-96690460D01*
X123990460Y-96634511D01*
X126390460Y-94234511D01*
X126430022Y-94165988D01*
X126450500Y-94089562D01*
X126450500Y-94010438D01*
X126450500Y-61926676D01*
X126470185Y-61859637D01*
X126486819Y-61838995D01*
X126550500Y-61775314D01*
X126616392Y-61661186D01*
X126650500Y-61533892D01*
X126650500Y-61402108D01*
X126616392Y-61274814D01*
X126550500Y-61160686D01*
X126457314Y-61067500D01*
X126400250Y-61034554D01*
X126343187Y-61001608D01*
X126259796Y-60979264D01*
X126215892Y-60967500D01*
X126084108Y-60967500D01*
X125956812Y-61001608D01*
X125842686Y-61067500D01*
X125842683Y-61067502D01*
X125749502Y-61160683D01*
X125749500Y-61160686D01*
X125683608Y-61274812D01*
X125649500Y-61402108D01*
X125649500Y-61533891D01*
X125683608Y-61661187D01*
X125706305Y-61700499D01*
X125749500Y-61775314D01*
X125749502Y-61775316D01*
X125813181Y-61838995D01*
X125846666Y-61900318D01*
X125849500Y-61926676D01*
X125849500Y-93874167D01*
X125829815Y-93941206D01*
X125813181Y-93961848D01*
X123661848Y-96113181D01*
X123600525Y-96146666D01*
X123574167Y-96149500D01*
X123133676Y-96149500D01*
X123066637Y-96129815D01*
X123045995Y-96113181D01*
X122982316Y-96049502D01*
X122982314Y-96049500D01*
X122925250Y-96016554D01*
X122868187Y-95983608D01*
X122804539Y-95966554D01*
X122740892Y-95949500D01*
X122609108Y-95949500D01*
X122481812Y-95983608D01*
X122367686Y-96049500D01*
X122367683Y-96049502D01*
X122274502Y-96142683D01*
X122274500Y-96142686D01*
X122208608Y-96256812D01*
X122198996Y-96292686D01*
X122174500Y-96384108D01*
X113550500Y-96384108D01*
X113550500Y-94738389D01*
X117524500Y-94738389D01*
X117524500Y-94911611D01*
X117551598Y-95082701D01*
X117605127Y-95247445D01*
X117683768Y-95401788D01*
X117785586Y-95541928D01*
X117908072Y-95664414D01*
X118048212Y-95766232D01*
X118202555Y-95844873D01*
X118367299Y-95898402D01*
X118538389Y-95925500D01*
X118538390Y-95925500D01*
X118711610Y-95925500D01*
X118711611Y-95925500D01*
X118882701Y-95898402D01*
X119047445Y-95844873D01*
X119201788Y-95766232D01*
X119341928Y-95664414D01*
X119464414Y-95541928D01*
X119566232Y-95401788D01*
X119644873Y-95247445D01*
X119698402Y-95082701D01*
X119725500Y-94911611D01*
X119725500Y-94738389D01*
X119698402Y-94567299D01*
X119644873Y-94402555D01*
X119566232Y-94248212D01*
X119464414Y-94108072D01*
X119341928Y-93985586D01*
X119201788Y-93883768D01*
X119047445Y-93805127D01*
X118882701Y-93751598D01*
X118882699Y-93751597D01*
X118882698Y-93751597D01*
X118751271Y-93730781D01*
X118711611Y-93724500D01*
X118538389Y-93724500D01*
X118498728Y-93730781D01*
X118367302Y-93751597D01*
X118202552Y-93805128D01*
X118048211Y-93883768D01*
X117990733Y-93925529D01*
X117908072Y-93985586D01*
X117908070Y-93985588D01*
X117908069Y-93985588D01*
X117785588Y-94108069D01*
X117785588Y-94108070D01*
X117785586Y-94108072D01*
X117749913Y-94157171D01*
X117683768Y-94248211D01*
X117605128Y-94402552D01*
X117551597Y-94567302D01*
X117540581Y-94636855D01*
X117524500Y-94738389D01*
X113550500Y-94738389D01*
X113550500Y-81370730D01*
X115474500Y-81370730D01*
X115474500Y-81979269D01*
X115477353Y-82009699D01*
X115477353Y-82009701D01*
X115509402Y-82101288D01*
X115522207Y-82137882D01*
X115602850Y-82247150D01*
X115712118Y-82327793D01*
X115754845Y-82342744D01*
X115840299Y-82372646D01*
X115870730Y-82375500D01*
X115870734Y-82375500D01*
X116929270Y-82375500D01*
X116959699Y-82372646D01*
X116959701Y-82372646D01*
X117023790Y-82350219D01*
X117087882Y-82327793D01*
X117197150Y-82247150D01*
X117249759Y-82175867D01*
X117305406Y-82133616D01*
X117349529Y-82125500D01*
X117559308Y-82125500D01*
X117559309Y-82125500D01*
X117649673Y-82101286D01*
X117673887Y-82094799D01*
X117776614Y-82035489D01*
X118594249Y-81217852D01*
X118655570Y-81184369D01*
X118720244Y-81187603D01*
X118824736Y-81221555D01*
X119007486Y-81250500D01*
X119007487Y-81250500D01*
X119192513Y-81250500D01*
X119192514Y-81250500D01*
X119375264Y-81221555D01*
X119551235Y-81164379D01*
X119716096Y-81080378D01*
X119865787Y-80971621D01*
X119996621Y-80840787D01*
X120105378Y-80691096D01*
X120155256Y-80593204D01*
X120203231Y-80542409D01*
X120265741Y-80525500D01*
X120675500Y-80525500D01*
X120742539Y-80545185D01*
X120788294Y-80597989D01*
X120799500Y-80649500D01*
X120799500Y-81319752D01*
X120811131Y-81378229D01*
X120811132Y-81378230D01*
X120855447Y-81444552D01*
X120921769Y-81488867D01*
X120921770Y-81488868D01*
X120980247Y-81500499D01*
X120980250Y-81500500D01*
X120980252Y-81500500D01*
X122219750Y-81500500D01*
X122219751Y-81500499D01*
X122234568Y-81497552D01*
X122278229Y-81488868D01*
X122278229Y-81488867D01*
X122278231Y-81488867D01*
X122344552Y-81444552D01*
X122388867Y-81378231D01*
X122388867Y-81378229D01*
X122388868Y-81378229D01*
X122400499Y-81319752D01*
X122400500Y-81319750D01*
X122400500Y-80080249D01*
X122400499Y-80080247D01*
X122388868Y-80021770D01*
X122388867Y-80021769D01*
X122344552Y-79955447D01*
X122278230Y-79911132D01*
X122278229Y-79911131D01*
X122219752Y-79899500D01*
X122219748Y-79899500D01*
X121962965Y-79899500D01*
X121895926Y-79879815D01*
X121875284Y-79863181D01*
X121726616Y-79714513D01*
X121726614Y-79714511D01*
X121623887Y-79655201D01*
X121623884Y-79655199D01*
X121595181Y-79647509D01*
X121595180Y-79647508D01*
X121595180Y-79647509D01*
X121544252Y-79633863D01*
X121509309Y-79624500D01*
X121509308Y-79624500D01*
X120265741Y-79624500D01*
X120198702Y-79604815D01*
X120155256Y-79556795D01*
X120105377Y-79458903D01*
X119996621Y-79309213D01*
X119865787Y-79178379D01*
X119716096Y-79069622D01*
X119710055Y-79066544D01*
X119551235Y-78985620D01*
X119551232Y-78985619D01*
X119375265Y-78928445D01*
X119250019Y-78908608D01*
X119192514Y-78899500D01*
X119007486Y-78899500D01*
X118949981Y-78908608D01*
X118824734Y-78928445D01*
X118648767Y-78985619D01*
X118648764Y-78985620D01*
X118483903Y-79069622D01*
X118398499Y-79131672D01*
X118334213Y-79178379D01*
X118334211Y-79178381D01*
X118334210Y-79178381D01*
X118203381Y-79309210D01*
X118203381Y-79309211D01*
X118203379Y-79309213D01*
X118181586Y-79339209D01*
X118094622Y-79458903D01*
X118010620Y-79623764D01*
X118010619Y-79623767D01*
X117953445Y-79799734D01*
X117924500Y-79982486D01*
X117924500Y-80167513D01*
X117953445Y-80350265D01*
X117987395Y-80454752D01*
X117989390Y-80524593D01*
X117957145Y-80580751D01*
X117400057Y-81137839D01*
X117338734Y-81171324D01*
X117269042Y-81166340D01*
X117213109Y-81124468D01*
X117212607Y-81123793D01*
X117197150Y-81102850D01*
X117087882Y-81022207D01*
X117087880Y-81022206D01*
X116959700Y-80977353D01*
X116929270Y-80974500D01*
X116929266Y-80974500D01*
X115870734Y-80974500D01*
X115870730Y-80974500D01*
X115840300Y-80977353D01*
X115840298Y-80977353D01*
X115712119Y-81022206D01*
X115712117Y-81022207D01*
X115602850Y-81102850D01*
X115522207Y-81212117D01*
X115522206Y-81212119D01*
X115477353Y-81340298D01*
X115477353Y-81340300D01*
X115474500Y-81370730D01*
X113550500Y-81370730D01*
X113550500Y-74982486D01*
X117924500Y-74982486D01*
X117924500Y-75167513D01*
X117953445Y-75350265D01*
X118010619Y-75526232D01*
X118010620Y-75526235D01*
X118079094Y-75660621D01*
X118094622Y-75691096D01*
X118203379Y-75840787D01*
X118334213Y-75971621D01*
X118483904Y-76080378D01*
X118564763Y-76121577D01*
X118648764Y-76164379D01*
X118648767Y-76164380D01*
X118736750Y-76192967D01*
X118824736Y-76221555D01*
X119007486Y-76250500D01*
X119007487Y-76250500D01*
X119192513Y-76250500D01*
X119192514Y-76250500D01*
X119375264Y-76221555D01*
X119551235Y-76164379D01*
X119716096Y-76080378D01*
X119865787Y-75971621D01*
X119996621Y-75840787D01*
X120105378Y-75691096D01*
X120189379Y-75526235D01*
X120208823Y-75466392D01*
X120226762Y-75411182D01*
X120266199Y-75353507D01*
X120330558Y-75326308D01*
X120344693Y-75325500D01*
X120675500Y-75325500D01*
X120742539Y-75345185D01*
X120788294Y-75397989D01*
X120799500Y-75449500D01*
X120799500Y-75519752D01*
X120811131Y-75578229D01*
X120811132Y-75578230D01*
X120855447Y-75644552D01*
X120921769Y-75688867D01*
X120921770Y-75688868D01*
X120980247Y-75700499D01*
X120980250Y-75700500D01*
X120980252Y-75700500D01*
X121819750Y-75700500D01*
X121819751Y-75700499D01*
X121834568Y-75697552D01*
X121878229Y-75688868D01*
X121878229Y-75688867D01*
X121878231Y-75688867D01*
X121944552Y-75644552D01*
X121988867Y-75578231D01*
X121988867Y-75578229D01*
X121988868Y-75578229D01*
X122000499Y-75519752D01*
X122000500Y-75519750D01*
X122000500Y-74530249D01*
X122000499Y-74530247D01*
X122399500Y-74530247D01*
X122399500Y-75519752D01*
X122411131Y-75578229D01*
X122411132Y-75578230D01*
X122455447Y-75644552D01*
X122521769Y-75688867D01*
X122521770Y-75688868D01*
X122580247Y-75700499D01*
X122580250Y-75700500D01*
X122580252Y-75700500D01*
X123419750Y-75700500D01*
X123419751Y-75700499D01*
X123434568Y-75697552D01*
X123478229Y-75688868D01*
X123478229Y-75688867D01*
X123478231Y-75688867D01*
X123544552Y-75644552D01*
X123588867Y-75578231D01*
X123588867Y-75578229D01*
X123588868Y-75578229D01*
X123600499Y-75519752D01*
X123600500Y-75519750D01*
X123600500Y-75482676D01*
X123620185Y-75415637D01*
X123672989Y-75369882D01*
X123742147Y-75359938D01*
X123805703Y-75388963D01*
X123812181Y-75394995D01*
X123817686Y-75400500D01*
X123931814Y-75466392D01*
X124059108Y-75500500D01*
X124059110Y-75500500D01*
X124190890Y-75500500D01*
X124190892Y-75500500D01*
X124318186Y-75466392D01*
X124432314Y-75400500D01*
X124525500Y-75307314D01*
X124591392Y-75193186D01*
X124625500Y-75065892D01*
X124625500Y-74934108D01*
X124591392Y-74806814D01*
X124525500Y-74692686D01*
X124432314Y-74599500D01*
X124347439Y-74550497D01*
X124318187Y-74533608D01*
X124251094Y-74515631D01*
X124190892Y-74499500D01*
X124059108Y-74499500D01*
X123931812Y-74533608D01*
X123817686Y-74599500D01*
X123811565Y-74605621D01*
X123750240Y-74639103D01*
X123680549Y-74634116D01*
X123624617Y-74592242D01*
X123602783Y-74536008D01*
X123601689Y-74536226D01*
X123588868Y-74471770D01*
X123588867Y-74471769D01*
X123544552Y-74405447D01*
X123478230Y-74361132D01*
X123478229Y-74361131D01*
X123419752Y-74349500D01*
X123419748Y-74349500D01*
X122580252Y-74349500D01*
X122580247Y-74349500D01*
X122521770Y-74361131D01*
X122521769Y-74361132D01*
X122455447Y-74405447D01*
X122411132Y-74471769D01*
X122411131Y-74471770D01*
X122399500Y-74530247D01*
X122000499Y-74530247D01*
X121988868Y-74471770D01*
X121988867Y-74471769D01*
X121944552Y-74405447D01*
X121878230Y-74361132D01*
X121878229Y-74361131D01*
X121819752Y-74349500D01*
X121819748Y-74349500D01*
X120980252Y-74349500D01*
X120980247Y-74349500D01*
X120921770Y-74361131D01*
X120921769Y-74361132D01*
X120855447Y-74405447D01*
X120811132Y-74471769D01*
X120811131Y-74471770D01*
X120799500Y-74530247D01*
X120799500Y-74600500D01*
X120779815Y-74667539D01*
X120727011Y-74713294D01*
X120675500Y-74724500D01*
X120312201Y-74724500D01*
X120245162Y-74704815D01*
X120199407Y-74652011D01*
X120194271Y-74638820D01*
X120189379Y-74623764D01*
X120144776Y-74536226D01*
X120105378Y-74458904D01*
X119996621Y-74309213D01*
X119865787Y-74178379D01*
X119716096Y-74069622D01*
X119551235Y-73985620D01*
X119551232Y-73985619D01*
X119375265Y-73928445D01*
X119283889Y-73913972D01*
X119192514Y-73899500D01*
X119007486Y-73899500D01*
X118946569Y-73909148D01*
X118824734Y-73928445D01*
X118648767Y-73985619D01*
X118648764Y-73985620D01*
X118483903Y-74069622D01*
X118400186Y-74130447D01*
X118334213Y-74178379D01*
X118334211Y-74178381D01*
X118334210Y-74178381D01*
X118203381Y-74309210D01*
X118203381Y-74309211D01*
X118203379Y-74309213D01*
X118166125Y-74360489D01*
X118094622Y-74458903D01*
X118010620Y-74623764D01*
X118010619Y-74623767D01*
X117953445Y-74799734D01*
X117924500Y-74982486D01*
X113550500Y-74982486D01*
X113550500Y-61407486D01*
X117874500Y-61407486D01*
X117874500Y-61592514D01*
X117875765Y-61600499D01*
X117903445Y-61775265D01*
X117960619Y-61951232D01*
X117960620Y-61951235D01*
X118037620Y-62102354D01*
X118044622Y-62116096D01*
X118153379Y-62265787D01*
X118284213Y-62396621D01*
X118433904Y-62505378D01*
X118514763Y-62546577D01*
X118598764Y-62589379D01*
X118598767Y-62589380D01*
X118670245Y-62612604D01*
X118774736Y-62646555D01*
X118957486Y-62675500D01*
X118957487Y-62675500D01*
X119142513Y-62675500D01*
X119142514Y-62675500D01*
X119325264Y-62646555D01*
X119429755Y-62612603D01*
X119499592Y-62610608D01*
X119555750Y-62642853D01*
X120073386Y-63160490D01*
X120176114Y-63219799D01*
X120290691Y-63250500D01*
X120650471Y-63250500D01*
X120717510Y-63270185D01*
X120750241Y-63300867D01*
X120802848Y-63372148D01*
X120802849Y-63372148D01*
X120802850Y-63372150D01*
X120912118Y-63452793D01*
X120954845Y-63467744D01*
X121040299Y-63497646D01*
X121070730Y-63500500D01*
X121070734Y-63500500D01*
X122129270Y-63500500D01*
X122159699Y-63497646D01*
X122159701Y-63497646D01*
X122223790Y-63475219D01*
X122287882Y-63452793D01*
X122397150Y-63372150D01*
X122449759Y-63300867D01*
X122505406Y-63258616D01*
X122549529Y-63250500D01*
X122850471Y-63250500D01*
X122917510Y-63270185D01*
X122950241Y-63300867D01*
X123002848Y-63372148D01*
X123002849Y-63372148D01*
X123002850Y-63372150D01*
X123112118Y-63452793D01*
X123154845Y-63467744D01*
X123240299Y-63497646D01*
X123270730Y-63500500D01*
X123270734Y-63500500D01*
X124329270Y-63500500D01*
X124359699Y-63497646D01*
X124359701Y-63497646D01*
X124423790Y-63475219D01*
X124487882Y-63452793D01*
X124597150Y-63372150D01*
X124677793Y-63262882D01*
X124700219Y-63198790D01*
X124722646Y-63134701D01*
X124722646Y-63134699D01*
X124725500Y-63104269D01*
X124725500Y-62495730D01*
X124722646Y-62465300D01*
X124722646Y-62465298D01*
X124689006Y-62369163D01*
X124677793Y-62337118D01*
X124597150Y-62227850D01*
X124487882Y-62147207D01*
X124487880Y-62147206D01*
X124359700Y-62102353D01*
X124329270Y-62099500D01*
X124329266Y-62099500D01*
X123270734Y-62099500D01*
X123270730Y-62099500D01*
X123240300Y-62102353D01*
X123240298Y-62102353D01*
X123112119Y-62147206D01*
X123112117Y-62147207D01*
X123002848Y-62227851D01*
X122950241Y-62299133D01*
X122894594Y-62341384D01*
X122850471Y-62349500D01*
X122549529Y-62349500D01*
X122482490Y-62329815D01*
X122449759Y-62299133D01*
X122397151Y-62227851D01*
X122287882Y-62147207D01*
X122287880Y-62147206D01*
X122159700Y-62102353D01*
X122129270Y-62099500D01*
X122129266Y-62099500D01*
X121070734Y-62099500D01*
X121070730Y-62099500D01*
X121040300Y-62102353D01*
X121040298Y-62102353D01*
X120912119Y-62147206D01*
X120912117Y-62147207D01*
X120802848Y-62227851D01*
X120750241Y-62299133D01*
X120746261Y-62302154D01*
X120744184Y-62306703D01*
X120718705Y-62323076D01*
X120694594Y-62341384D01*
X120688464Y-62342511D01*
X120685406Y-62344477D01*
X120650471Y-62349500D01*
X120587966Y-62349500D01*
X120520927Y-62329815D01*
X120500285Y-62313181D01*
X120192854Y-62005751D01*
X120159369Y-61944428D01*
X120162603Y-61879756D01*
X120196555Y-61775264D01*
X120225500Y-61592514D01*
X120225500Y-61407486D01*
X120196555Y-61224736D01*
X120145467Y-61067502D01*
X120139380Y-61048767D01*
X120139379Y-61048764D01*
X120055377Y-60883903D01*
X119946621Y-60734213D01*
X119815787Y-60603379D01*
X119666096Y-60494622D01*
X119501235Y-60410620D01*
X119501232Y-60410619D01*
X119325265Y-60353445D01*
X119233889Y-60338972D01*
X119142514Y-60324500D01*
X118957486Y-60324500D01*
X118896569Y-60334148D01*
X118774734Y-60353445D01*
X118598767Y-60410619D01*
X118598764Y-60410620D01*
X118433903Y-60494622D01*
X118348499Y-60556672D01*
X118284213Y-60603379D01*
X118284211Y-60603381D01*
X118284210Y-60603381D01*
X118153381Y-60734210D01*
X118153381Y-60734211D01*
X118153379Y-60734213D01*
X118106672Y-60798499D01*
X118044622Y-60883903D01*
X117960620Y-61048764D01*
X117960619Y-61048767D01*
X117903445Y-61224734D01*
X117895513Y-61274814D01*
X117874500Y-61407486D01*
X113550500Y-61407486D01*
X113550500Y-56407486D01*
X117874500Y-56407486D01*
X117874500Y-56592514D01*
X117878203Y-56615891D01*
X117903445Y-56775265D01*
X117960619Y-56951232D01*
X117960620Y-56951235D01*
X118044560Y-57115975D01*
X118044622Y-57116096D01*
X118153379Y-57265787D01*
X118284213Y-57396621D01*
X118433904Y-57505378D01*
X118514763Y-57546577D01*
X118598764Y-57589379D01*
X118598767Y-57589380D01*
X118686750Y-57617967D01*
X118774736Y-57646555D01*
X118957486Y-57675500D01*
X118957487Y-57675500D01*
X119142513Y-57675500D01*
X119142514Y-57675500D01*
X119325264Y-57646555D01*
X119501235Y-57589379D01*
X119666096Y-57505378D01*
X119815787Y-57396621D01*
X119946621Y-57265787D01*
X120055378Y-57116096D01*
X120139379Y-56951235D01*
X120139619Y-56950497D01*
X120160516Y-56886182D01*
X120199953Y-56828507D01*
X120264311Y-56801308D01*
X120278447Y-56800500D01*
X120575500Y-56800500D01*
X120642539Y-56820185D01*
X120688294Y-56872989D01*
X120699500Y-56924500D01*
X120699500Y-56994752D01*
X120711131Y-57053229D01*
X120711132Y-57053230D01*
X120755447Y-57119552D01*
X120821769Y-57163867D01*
X120821770Y-57163868D01*
X120880247Y-57175499D01*
X120880250Y-57175500D01*
X120880252Y-57175500D01*
X121719750Y-57175500D01*
X121719751Y-57175499D01*
X121734568Y-57172552D01*
X121778229Y-57163868D01*
X121778229Y-57163867D01*
X121778231Y-57163867D01*
X121844552Y-57119552D01*
X121888867Y-57053231D01*
X121888867Y-57053229D01*
X121888868Y-57053229D01*
X121900499Y-56994752D01*
X121900500Y-56994750D01*
X121900500Y-56005249D01*
X121900499Y-56005247D01*
X122299500Y-56005247D01*
X122299500Y-56994752D01*
X122311131Y-57053229D01*
X122311132Y-57053230D01*
X122355447Y-57119552D01*
X122421769Y-57163867D01*
X122421770Y-57163868D01*
X122480247Y-57175499D01*
X122480250Y-57175500D01*
X122480252Y-57175500D01*
X123319750Y-57175500D01*
X123319751Y-57175499D01*
X123334568Y-57172552D01*
X123378229Y-57163868D01*
X123378229Y-57163867D01*
X123378231Y-57163867D01*
X123444552Y-57119552D01*
X123488867Y-57053231D01*
X123488867Y-57053229D01*
X123488868Y-57053229D01*
X123500499Y-56994752D01*
X123500500Y-56994750D01*
X123500500Y-56924500D01*
X123503050Y-56915814D01*
X123501762Y-56906853D01*
X123512740Y-56882812D01*
X123520185Y-56857461D01*
X123527025Y-56851533D01*
X123530787Y-56843297D01*
X123553021Y-56829007D01*
X123572989Y-56811706D01*
X123583503Y-56809418D01*
X123589565Y-56805523D01*
X123624500Y-56800500D01*
X123845107Y-56800500D01*
X123912146Y-56820185D01*
X123942732Y-56852260D01*
X123944552Y-56850865D01*
X123949498Y-56857311D01*
X123949500Y-56857314D01*
X124042686Y-56950500D01*
X124156814Y-57016392D01*
X124284108Y-57050500D01*
X124284110Y-57050500D01*
X124415890Y-57050500D01*
X124415892Y-57050500D01*
X124543186Y-57016392D01*
X124657314Y-56950500D01*
X124750500Y-56857314D01*
X124816392Y-56743186D01*
X124850500Y-56615892D01*
X124850500Y-56484108D01*
X124816392Y-56356814D01*
X124750500Y-56242686D01*
X124657314Y-56149500D01*
X124595511Y-56113818D01*
X124543187Y-56083608D01*
X124479539Y-56066554D01*
X124415892Y-56049500D01*
X124284108Y-56049500D01*
X124156812Y-56083608D01*
X124042686Y-56149500D01*
X124042683Y-56149502D01*
X124029005Y-56163181D01*
X123967682Y-56196666D01*
X123941324Y-56199500D01*
X123624500Y-56199500D01*
X123557461Y-56179815D01*
X123511706Y-56127011D01*
X123500500Y-56075500D01*
X123500500Y-56005249D01*
X123500499Y-56005247D01*
X123488868Y-55946770D01*
X123488867Y-55946769D01*
X123444552Y-55880447D01*
X123378230Y-55836132D01*
X123378229Y-55836131D01*
X123319752Y-55824500D01*
X123319748Y-55824500D01*
X122480252Y-55824500D01*
X122480247Y-55824500D01*
X122421770Y-55836131D01*
X122421769Y-55836132D01*
X122355447Y-55880447D01*
X122311132Y-55946769D01*
X122311131Y-55946770D01*
X122299500Y-56005247D01*
X121900499Y-56005247D01*
X121888868Y-55946770D01*
X121888867Y-55946769D01*
X121844552Y-55880447D01*
X121778230Y-55836132D01*
X121778229Y-55836131D01*
X121719752Y-55824500D01*
X121719748Y-55824500D01*
X120880252Y-55824500D01*
X120880247Y-55824500D01*
X120821770Y-55836131D01*
X120821769Y-55836132D01*
X120755447Y-55880447D01*
X120711132Y-55946769D01*
X120711131Y-55946770D01*
X120699500Y-56005247D01*
X120699500Y-56075500D01*
X120679815Y-56142539D01*
X120627011Y-56188294D01*
X120575500Y-56199500D01*
X120278447Y-56199500D01*
X120211408Y-56179815D01*
X120165653Y-56127011D01*
X120160516Y-56113818D01*
X120139380Y-56048767D01*
X120139379Y-56048764D01*
X120055377Y-55883903D01*
X120020670Y-55836133D01*
X119946621Y-55734213D01*
X119815787Y-55603379D01*
X119666096Y-55494622D01*
X119501235Y-55410620D01*
X119501232Y-55410619D01*
X119325265Y-55353445D01*
X119218146Y-55336479D01*
X119142514Y-55324500D01*
X118957486Y-55324500D01*
X118896569Y-55334148D01*
X118774734Y-55353445D01*
X118598767Y-55410619D01*
X118598764Y-55410620D01*
X118433903Y-55494622D01*
X118370085Y-55540989D01*
X118284213Y-55603379D01*
X118284211Y-55603381D01*
X118284210Y-55603381D01*
X118153381Y-55734210D01*
X118153381Y-55734211D01*
X118153379Y-55734213D01*
X118106672Y-55798499D01*
X118044622Y-55883903D01*
X117960620Y-56048764D01*
X117960619Y-56048767D01*
X117903445Y-56224734D01*
X117903445Y-56224736D01*
X117874500Y-56407486D01*
X113550500Y-56407486D01*
X113550500Y-42457486D01*
X117874500Y-42457486D01*
X117874500Y-42642513D01*
X117903445Y-42825265D01*
X117960619Y-43001232D01*
X117960620Y-43001235D01*
X117988398Y-43055751D01*
X118044622Y-43166096D01*
X118153379Y-43315787D01*
X118284213Y-43446621D01*
X118433904Y-43555378D01*
X118514763Y-43596577D01*
X118598764Y-43639379D01*
X118598767Y-43639380D01*
X118670245Y-43662604D01*
X118774736Y-43696555D01*
X118957486Y-43725500D01*
X118957487Y-43725500D01*
X119142513Y-43725500D01*
X119142514Y-43725500D01*
X119325264Y-43696555D01*
X119429755Y-43662603D01*
X119499592Y-43660608D01*
X119555751Y-43692854D01*
X119973386Y-44110489D01*
X119973387Y-44110490D01*
X119973389Y-44110491D01*
X120032693Y-44144729D01*
X120032696Y-44144732D01*
X120066937Y-44164500D01*
X120076114Y-44169799D01*
X120190691Y-44200500D01*
X120312035Y-44200500D01*
X120379074Y-44220185D01*
X120399715Y-44236818D01*
X120623386Y-44460490D01*
X120726113Y-44519799D01*
X120750326Y-44526286D01*
X120826677Y-44546744D01*
X120839677Y-44554669D01*
X120886333Y-44583107D01*
X120894350Y-44592885D01*
X120952848Y-44672148D01*
X120952849Y-44672148D01*
X120952850Y-44672150D01*
X121062118Y-44752793D01*
X121104845Y-44767744D01*
X121190299Y-44797646D01*
X121220730Y-44800500D01*
X121220734Y-44800500D01*
X122279270Y-44800500D01*
X122309699Y-44797646D01*
X122309701Y-44797646D01*
X122373790Y-44775219D01*
X122437882Y-44752793D01*
X122547150Y-44672150D01*
X122599759Y-44600867D01*
X122655406Y-44558616D01*
X122699529Y-44550500D01*
X123300471Y-44550500D01*
X123367510Y-44570185D01*
X123400241Y-44600867D01*
X123452848Y-44672148D01*
X123452849Y-44672148D01*
X123452850Y-44672150D01*
X123562118Y-44752793D01*
X123604845Y-44767744D01*
X123690299Y-44797646D01*
X123720730Y-44800500D01*
X123720734Y-44800500D01*
X124779270Y-44800500D01*
X124809699Y-44797646D01*
X124809701Y-44797646D01*
X124873790Y-44775219D01*
X124937882Y-44752793D01*
X125047150Y-44672150D01*
X125127793Y-44562882D01*
X125150219Y-44498790D01*
X125172646Y-44434701D01*
X125172646Y-44434699D01*
X125175500Y-44404269D01*
X125175500Y-43795730D01*
X125172646Y-43765300D01*
X125172646Y-43765298D01*
X125136012Y-43660608D01*
X125127793Y-43637118D01*
X125047150Y-43527850D01*
X124937882Y-43447207D01*
X124937880Y-43447206D01*
X124809700Y-43402353D01*
X124779270Y-43399500D01*
X124779266Y-43399500D01*
X123720734Y-43399500D01*
X123720730Y-43399500D01*
X123690300Y-43402353D01*
X123690298Y-43402353D01*
X123562119Y-43447206D01*
X123562117Y-43447207D01*
X123452848Y-43527851D01*
X123400241Y-43599133D01*
X123344594Y-43641384D01*
X123300471Y-43649500D01*
X122699529Y-43649500D01*
X122632490Y-43629815D01*
X122599759Y-43599133D01*
X122547151Y-43527851D01*
X122540185Y-43522710D01*
X122437882Y-43447207D01*
X122437880Y-43447206D01*
X122309700Y-43402353D01*
X122279270Y-43399500D01*
X122279266Y-43399500D01*
X121220734Y-43399500D01*
X121220730Y-43399500D01*
X121190303Y-43402353D01*
X121062116Y-43447207D01*
X121045667Y-43459347D01*
X120980037Y-43483315D01*
X120911867Y-43467996D01*
X120884357Y-43447254D01*
X120826616Y-43389513D01*
X120826614Y-43389511D01*
X120775250Y-43359856D01*
X120723888Y-43330201D01*
X120715719Y-43328012D01*
X120699673Y-43323713D01*
X120609309Y-43299500D01*
X120480758Y-43299500D01*
X120473599Y-43298665D01*
X120447807Y-43287708D01*
X120420926Y-43279815D01*
X120411671Y-43272357D01*
X120409291Y-43271346D01*
X120407922Y-43269336D01*
X120400284Y-43263181D01*
X120192854Y-43055751D01*
X120159369Y-42994428D01*
X120162603Y-42929756D01*
X120196555Y-42825264D01*
X120225500Y-42642514D01*
X120225500Y-42457486D01*
X120196555Y-42274736D01*
X120164312Y-42175500D01*
X120139379Y-42098764D01*
X120096577Y-42014763D01*
X120055378Y-41933904D01*
X119946621Y-41784213D01*
X119815787Y-41653379D01*
X119666096Y-41544622D01*
X119653455Y-41538181D01*
X119501235Y-41460620D01*
X119501232Y-41460619D01*
X119325265Y-41403445D01*
X119233889Y-41388972D01*
X119142514Y-41374500D01*
X118957486Y-41374500D01*
X118896569Y-41384148D01*
X118774734Y-41403445D01*
X118598767Y-41460619D01*
X118598764Y-41460620D01*
X118433903Y-41544622D01*
X118348499Y-41606672D01*
X118284213Y-41653379D01*
X118284211Y-41653381D01*
X118284210Y-41653381D01*
X118153381Y-41784210D01*
X118153381Y-41784211D01*
X118153379Y-41784213D01*
X118130916Y-41815131D01*
X118044622Y-41933903D01*
X117960621Y-42098764D01*
X117903445Y-42274734D01*
X117874500Y-42457486D01*
X113550500Y-42457486D01*
X113550500Y-37457486D01*
X117874500Y-37457486D01*
X117874500Y-37642513D01*
X117903445Y-37825265D01*
X117960619Y-38001232D01*
X117960620Y-38001235D01*
X118042298Y-38161534D01*
X118044622Y-38166096D01*
X118153379Y-38315787D01*
X118284213Y-38446621D01*
X118433904Y-38555378D01*
X118514763Y-38596577D01*
X118598764Y-38639379D01*
X118598767Y-38639380D01*
X118686750Y-38667967D01*
X118774736Y-38696555D01*
X118957486Y-38725500D01*
X118957487Y-38725500D01*
X119142513Y-38725500D01*
X119142514Y-38725500D01*
X119325264Y-38696555D01*
X119501235Y-38639379D01*
X119666096Y-38555378D01*
X119815787Y-38446621D01*
X119946621Y-38315787D01*
X120055378Y-38166096D01*
X120139379Y-38001235D01*
X120196555Y-37825264D01*
X120225500Y-37642514D01*
X120225500Y-37457486D01*
X120196555Y-37274736D01*
X120183354Y-37234108D01*
X125549500Y-37234108D01*
X125549500Y-37365892D01*
X125551721Y-37374181D01*
X125583608Y-37493187D01*
X125616554Y-37550250D01*
X125649500Y-37607314D01*
X125742686Y-37700500D01*
X125856814Y-37766392D01*
X125984108Y-37800500D01*
X125984110Y-37800500D01*
X126074167Y-37800500D01*
X126141206Y-37820185D01*
X126161848Y-37836819D01*
X128634540Y-40309511D01*
X128690489Y-40365460D01*
X128690491Y-40365461D01*
X128690495Y-40365464D01*
X128759004Y-40405017D01*
X128759011Y-40405021D01*
X128835438Y-40425500D01*
X132641324Y-40425500D01*
X132708363Y-40445185D01*
X132729005Y-40461819D01*
X132792686Y-40525500D01*
X132906814Y-40591392D01*
X133034108Y-40625500D01*
X133034110Y-40625500D01*
X133165890Y-40625500D01*
X133165892Y-40625500D01*
X133293186Y-40591392D01*
X133407314Y-40525500D01*
X133500500Y-40432314D01*
X133566392Y-40318186D01*
X133600500Y-40190892D01*
X133600500Y-40059108D01*
X133566392Y-39931814D01*
X133500500Y-39817686D01*
X133407314Y-39724500D01*
X133350250Y-39691554D01*
X133293187Y-39658608D01*
X133229539Y-39641554D01*
X133165892Y-39624500D01*
X133034108Y-39624500D01*
X132906812Y-39658608D01*
X132792686Y-39724500D01*
X132792683Y-39724502D01*
X132729005Y-39788181D01*
X132667682Y-39821666D01*
X132641324Y-39824500D01*
X129050833Y-39824500D01*
X128983794Y-39804815D01*
X128963152Y-39788181D01*
X126586819Y-37411848D01*
X126553334Y-37350525D01*
X126550500Y-37324167D01*
X126550500Y-37234110D01*
X126550500Y-37234108D01*
X126516392Y-37106814D01*
X126450500Y-36992686D01*
X126357314Y-36899500D01*
X126300250Y-36866554D01*
X126243187Y-36833608D01*
X126179539Y-36816554D01*
X126115892Y-36799500D01*
X125984108Y-36799500D01*
X125856812Y-36833608D01*
X125742686Y-36899500D01*
X125742683Y-36899502D01*
X125649502Y-36992683D01*
X125649500Y-36992686D01*
X125583608Y-37106812D01*
X125566667Y-37170038D01*
X125549500Y-37234108D01*
X120183354Y-37234108D01*
X120157159Y-37153487D01*
X120139380Y-37098767D01*
X120139379Y-37098764D01*
X120077785Y-36977881D01*
X120055378Y-36933904D01*
X119946621Y-36784213D01*
X119815787Y-36653379D01*
X119666096Y-36544622D01*
X119501235Y-36460620D01*
X119501232Y-36460619D01*
X119325265Y-36403445D01*
X119233889Y-36388972D01*
X119142514Y-36374500D01*
X118957486Y-36374500D01*
X118896569Y-36384148D01*
X118774734Y-36403445D01*
X118598767Y-36460619D01*
X118598764Y-36460620D01*
X118433903Y-36544622D01*
X118364909Y-36594750D01*
X118284213Y-36653379D01*
X118284211Y-36653381D01*
X118284210Y-36653381D01*
X118153381Y-36784210D01*
X118153381Y-36784211D01*
X118153379Y-36784213D01*
X118106672Y-36848499D01*
X118044622Y-36933903D01*
X117960620Y-37098764D01*
X117960619Y-37098767D01*
X117903445Y-37274734D01*
X117874500Y-37457486D01*
X113550500Y-37457486D01*
X113550500Y-34855247D01*
X156699500Y-34855247D01*
X156699500Y-36594752D01*
X156711131Y-36653229D01*
X156711132Y-36653230D01*
X156755447Y-36719552D01*
X156821769Y-36763867D01*
X156821770Y-36763868D01*
X156880247Y-36775499D01*
X156880250Y-36775500D01*
X156880252Y-36775500D01*
X158619750Y-36775500D01*
X158619751Y-36775499D01*
X158634568Y-36772552D01*
X158678229Y-36763868D01*
X158678229Y-36763867D01*
X158678231Y-36763867D01*
X158744552Y-36719552D01*
X158788867Y-36653231D01*
X158788867Y-36653229D01*
X158788868Y-36653229D01*
X158800499Y-36594752D01*
X158800500Y-36594750D01*
X158800500Y-34855249D01*
X158800499Y-34855247D01*
X158788868Y-34796770D01*
X158788867Y-34796769D01*
X158744552Y-34730447D01*
X158678230Y-34686132D01*
X158678229Y-34686131D01*
X158619752Y-34674500D01*
X158619748Y-34674500D01*
X156880252Y-34674500D01*
X156880247Y-34674500D01*
X156821770Y-34686131D01*
X156821769Y-34686132D01*
X156755447Y-34730447D01*
X156711132Y-34796769D01*
X156711131Y-34796770D01*
X156699500Y-34855247D01*
X113550500Y-34855247D01*
X113550500Y-33924769D01*
X113570185Y-33857730D01*
X113622989Y-33811975D01*
X113674842Y-33800769D01*
X183325849Y-33995870D01*
G37*
%TD.AperFunction*%
%TD*%
M02*
