%TF.GenerationSoftware,KiCad,Pcbnew,9.0.7*%
%TF.CreationDate,2026-03-05T16:09:56-06:00*%
%TF.ProjectId,circle_of_life_v2,63697263-6c65-45f6-9f66-5f6c6966655f,rev?*%
%TF.SameCoordinates,Original*%
%TF.FileFunction,Soldermask,Bot*%
%TF.FilePolarity,Negative*%
%FSLAX46Y46*%
G04 Gerber Fmt 4.6, Leading zero omitted, Abs format (unit mm)*
G04 Created by KiCad (PCBNEW 9.0.7) date 2026-03-05 16:09:56*
%MOMM*%
%LPD*%
G01*
G04 APERTURE LIST*
G04 Aperture macros list*
%AMRoundRect*
0 Rectangle with rounded corners*
0 $1 Rounding radius*
0 $2 $3 $4 $5 $6 $7 $8 $9 X,Y pos of 4 corners*
0 Add a 4 corners polygon primitive as box body*
4,1,4,$2,$3,$4,$5,$6,$7,$8,$9,$2,$3,0*
0 Add four circle primitives for the rounded corners*
1,1,$1+$1,$2,$3*
1,1,$1+$1,$4,$5*
1,1,$1+$1,$6,$7*
1,1,$1+$1,$8,$9*
0 Add four rect primitives between the rounded corners*
20,1,$1+$1,$2,$3,$4,$5,0*
20,1,$1+$1,$4,$5,$6,$7,0*
20,1,$1+$1,$6,$7,$8,$9,0*
20,1,$1+$1,$8,$9,$2,$3,0*%
G04 Aperture macros list end*
%ADD10RoundRect,0.250000X-0.475000X0.337500X-0.475000X-0.337500X0.475000X-0.337500X0.475000X0.337500X0*%
%ADD11C,0.650000*%
%ADD12O,2.100000X1.000000*%
%ADD13O,1.600000X1.000000*%
%ADD14C,1.650000*%
%ADD15C,3.200000*%
%ADD16C,1.950000*%
%ADD17R,1.800000X1.800000*%
%ADD18C,1.800000*%
%ADD19R,4.650000X4.650000*%
%ADD20C,4.650000*%
%ADD21R,1.700000X1.700000*%
%ADD22C,1.700000*%
%ADD23RoundRect,0.250000X-0.475000X0.250000X-0.475000X-0.250000X0.475000X-0.250000X0.475000X0.250000X0*%
%ADD24R,0.810000X0.940000*%
%ADD25R,1.100000X1.100000*%
%ADD26C,1.100000*%
%ADD27RoundRect,0.250000X0.475000X-0.250000X0.475000X0.250000X-0.475000X0.250000X-0.475000X-0.250000X0*%
%ADD28RoundRect,0.200000X-0.275000X0.200000X-0.275000X-0.200000X0.275000X-0.200000X0.275000X0.200000X0*%
%ADD29R,0.950000X0.800000*%
%ADD30R,1.200000X1.200000*%
%ADD31C,1.200000*%
%ADD32R,0.800000X0.950000*%
%ADD33RoundRect,0.200000X0.275000X-0.200000X0.275000X0.200000X-0.275000X0.200000X-0.275000X-0.200000X0*%
%ADD34RoundRect,0.200000X0.200000X0.275000X-0.200000X0.275000X-0.200000X-0.275000X0.200000X-0.275000X0*%
G04 APERTURE END LIST*
D10*
%TO.C,C15*%
X146212000Y-75700500D03*
X146212000Y-77775500D03*
%TD*%
D11*
%TO.C,P1*%
X176850000Y-51390000D03*
X176850000Y-45610000D03*
D12*
X176320000Y-52820000D03*
D13*
X180500000Y-52820000D03*
D12*
X176320000Y-44180000D03*
D13*
X180500000Y-44180000D03*
%TD*%
D14*
%TO.C,J5*%
X148990000Y-116400000D03*
X143910000Y-116400000D03*
%TD*%
D15*
%TO.C,H1*%
X116250000Y-29325000D03*
%TD*%
D16*
%TO.C,J7*%
X119050000Y-47550000D03*
X119050000Y-42550000D03*
X119050000Y-37550000D03*
%TD*%
D15*
%TO.C,H4*%
X116425000Y-118975000D03*
%TD*%
D17*
%TO.C,D7*%
X116100000Y-103000000D03*
D18*
X118640000Y-103000000D03*
%TD*%
D19*
%TO.C,J4*%
X131277500Y-106900000D03*
D20*
X131277500Y-112700000D03*
X136077500Y-109900000D03*
%TD*%
D16*
%TO.C,J8*%
X178100000Y-76750000D03*
X178100000Y-71750000D03*
X178100000Y-66750000D03*
%TD*%
D15*
%TO.C,H3*%
X180675000Y-118975000D03*
%TD*%
D16*
%TO.C,J3*%
X119100000Y-85075000D03*
X119100000Y-80075000D03*
X119100000Y-75075000D03*
%TD*%
D14*
%TO.C,J9*%
X172700000Y-116750000D03*
X167620000Y-116750000D03*
%TD*%
D17*
%TO.C,D5*%
X116200000Y-111350000D03*
D18*
X118740000Y-111350000D03*
%TD*%
D15*
%TO.C,H2*%
X180575000Y-29200000D03*
%TD*%
D16*
%TO.C,J6*%
X119050000Y-66500000D03*
X119050000Y-61500000D03*
X119050000Y-56500000D03*
%TD*%
D17*
%TO.C,D6*%
X116085000Y-94825000D03*
D18*
X118625000Y-94825000D03*
%TD*%
D21*
%TO.C,J2*%
X136765000Y-56300000D03*
D22*
X139305000Y-56300000D03*
X141845000Y-56300000D03*
X144385000Y-56300000D03*
%TD*%
D23*
%TO.C,C26*%
X123800000Y-62800000D03*
X123800000Y-64700000D03*
%TD*%
D24*
%TO.C,C35*%
X161300000Y-99400000D03*
X162640000Y-99400000D03*
%TD*%
D25*
%TO.C,C17*%
X137312000Y-76538000D03*
D26*
X137312000Y-79038000D03*
%TD*%
D27*
%TO.C,C28*%
X173400000Y-73950000D03*
X173400000Y-72050000D03*
%TD*%
D28*
%TO.C,R6*%
X179400000Y-47325000D03*
X179400000Y-48975000D03*
%TD*%
D21*
%TO.C,J1*%
X157750000Y-35725000D03*
D22*
X157750000Y-38265000D03*
X157750000Y-40805000D03*
X157750000Y-43345000D03*
%TD*%
D23*
%TO.C,C30*%
X121750000Y-44100000D03*
X121750000Y-46000000D03*
%TD*%
D29*
%TO.C,R18*%
X173000000Y-67425000D03*
X173000000Y-65825000D03*
%TD*%
D23*
%TO.C,C37*%
X161775000Y-91075000D03*
X161775000Y-92975000D03*
%TD*%
D30*
%TO.C,C2*%
X121600000Y-80700000D03*
D31*
X121600000Y-85700000D03*
%TD*%
D23*
%TO.C,C1*%
X116400000Y-81675000D03*
X116400000Y-83575000D03*
%TD*%
D32*
%TO.C,R19*%
X121300000Y-56500000D03*
X122900000Y-56500000D03*
%TD*%
D33*
%TO.C,R5*%
X177400000Y-48975000D03*
X177400000Y-47325000D03*
%TD*%
D27*
%TO.C,C31*%
X175850000Y-73950000D03*
X175850000Y-72050000D03*
%TD*%
D30*
%TO.C,C10*%
X151340000Y-109100000D03*
D31*
X151340000Y-105600000D03*
%TD*%
D34*
%TO.C,R3*%
X170775000Y-49600000D03*
X169125000Y-49600000D03*
%TD*%
D23*
%TO.C,C29*%
X121600000Y-62800000D03*
X121600000Y-64700000D03*
%TD*%
D25*
%TO.C,C32*%
X174100000Y-86300000D03*
D26*
X174100000Y-83800000D03*
%TD*%
D23*
%TO.C,C27*%
X124250000Y-44100000D03*
X124250000Y-46000000D03*
%TD*%
D25*
%TO.C,C11*%
X144200000Y-74825000D03*
D26*
X144200000Y-77325000D03*
%TD*%
D29*
%TO.C,R34*%
X159600000Y-101100000D03*
X159600000Y-99500000D03*
%TD*%
D32*
%TO.C,R4*%
X123000000Y-75025000D03*
X121400000Y-75025000D03*
%TD*%
M02*
