M48
; DRILL file {KiCad 9.0.7} date 2026-03-05T16:09:48-0600
; FORMAT={-:-/ absolute / inch / decimal}
; #@! TF.CreationDate,2026-03-05T16:09:48-06:00
; #@! TF.GenerationSoftware,Kicad,Pcbnew,9.0.7
; #@! TF.FileFunction,Plated,1,2,PTH
FMAT,2
INCH
; #@! TA.AperFunction,Plated,PTH,ViaDrill
T1C0.0118
; #@! TA.AperFunction,Plated,PTH,ComponentDrill
T2C0.0236
; #@! TA.AperFunction,Plated,PTH,ComponentDrill
T3C0.0276
; #@! TA.AperFunction,Plated,PTH,ComponentDrill
T4C0.0315
; #@! TA.AperFunction,Plated,PTH,ComponentDrill
T5C0.0354
; #@! TA.AperFunction,Plated,PTH,ComponentDrill
T6C0.0394
; #@! TA.AperFunction,Plated,PTH,ComponentDrill
T7C0.0433
; #@! TA.AperFunction,Plated,PTH,ComponentDrill
T8C0.0512
; #@! TA.AperFunction,Plated,PTH,ComponentDrill
T9C0.1220
%
G90
G05
T1
X4.8297Y-3.7972
X4.8445Y-4.4459
X4.8524Y-4.122
X4.8868Y-2.9528
X4.8957Y-2.2264
X4.9291Y-2.3524
X4.9626Y-1.4685
X5.0827Y-1.3652
X5.1265Y-1.8105
X5.1329Y-3.1299
X5.1654Y-2.7648
X5.2264Y-2.3287
X5.2402Y-1.5797
X5.2923Y-1.9154
X5.2933Y-1.8632
X5.3002Y-1.6161
X5.3002Y-1.7657
X5.3012Y-1.6663
X5.3012Y-1.7156
X5.3967Y-3.4075
X5.3967Y-3.4478
X5.439Y-1.4665
X5.439Y-1.4665
X5.44Y-1.3642
X5.4409Y-3.4469
X5.4419Y-3.4045
X5.4862Y-3.4478
X5.4882Y-1.999
X5.4892Y-3.4055
X5.5128Y-2.9941
X5.5128Y-3.0295
X5.5128Y-3.065
X5.5236Y-3.4488
X5.5285Y-3.4075
X5.5482Y-1.6112
X5.5482Y-1.6673
X5.5482Y-1.7224
X5.5787Y-3.125
X5.5994Y-1.5669
X5.5994Y-1.7736
X5.6526Y-1.565
X5.6545Y-1.7736
X5.7004Y-3.9787
X5.7008Y-2.3967
X5.7077Y-1.7717
X5.7096Y-1.565
X5.753Y-1.6171
X5.7539Y-1.6703
X5.7549Y-1.7254
X5.8484Y-3.1063
X5.8799Y-4.0089
X5.9242Y-2.3169
X5.9951Y-1.3632
X6.0335Y-3.1742
X6.0423Y-2.3396
X6.0463Y-3.9656
X6.0591Y-2.0571
X6.1604Y-1.9104
X6.1624Y-3.9528
X6.1909Y-3.5925
X6.2008Y-1.9094
X6.2106Y-2.0591
X6.2835Y-2.7815
X6.2835Y-4.0217
X6.3091Y-3.8031
X6.3484Y-3.7677
X6.3697Y-3.7179
X6.375Y-1.7948
X6.376Y-1.9498
X6.4006Y-3.8573
X6.4016Y-3.8071
X6.4134Y-2.9193
X6.4203Y-4.0955
X6.4449Y-1.6008
X6.4449Y-3.8071
X6.4449Y-3.8553
X6.4459Y-4.0571
X6.4498Y-1.5128
X6.4783Y-3.7165
X6.4833Y-1.6008
X6.4858Y-1.528
X6.4902Y-3.8061
X6.4941Y-3.8533
X6.5305Y-4.0955
X6.5354Y-1.7677
X6.5413Y-1.8268
X6.5689Y-4.0187
X6.5797Y-1.5148
X6.5797Y-1.5571
X6.5797Y-1.6004
X6.5974Y-3.9636
X6.624Y-1.5571
X6.625Y-1.6014
X6.626Y-1.5157
X6.6565Y-3.936
X6.6654Y-1.6014
X6.6673Y-1.5167
X6.6673Y-1.5591
X6.7126Y-2.4094
X6.7205Y-1.6486
X6.7352Y-2.0955
X6.7884Y-2.3071
X6.7913Y-1.4045
X6.815Y-4.3425
X6.8209Y-1.752
X6.8248Y-4.064
X6.8386Y-1.9606
X6.8583Y-4.1102
X6.9537Y-2.1772
X6.9734Y-1.9705
X6.9823Y-2.4951
X7.0059Y-2.1762
X7.1043Y-4.3297
X7.1732Y-2.31
T3
X5.406Y-3.0133
X5.406Y-3.1117
X5.6772Y-2.9459
X5.6772Y-3.0443
X6.8543Y-3.2992
X6.8543Y-3.3976
T4
X4.7874Y-3.1772
X4.7874Y-3.374
X5.9583Y-4.1575
X5.9583Y-4.2953
T5
X4.5703Y-3.7333
X4.5709Y-4.0551
X4.5748Y-4.3839
X4.6703Y-3.7333
X4.6709Y-4.0551
X4.6748Y-4.3839
T6
X5.3844Y-2.2165
X5.4844Y-2.2165
X5.5844Y-2.2165
X5.6844Y-2.2165
X6.2106Y-1.4065
X6.2106Y-1.5065
X6.2106Y-1.6065
X6.2106Y-1.7065
T7
X5.6657Y-4.5827
X5.8657Y-4.5827
X6.5992Y-4.5965
X6.7992Y-4.5965
T8
X4.687Y-1.4783
X4.687Y-1.6752
X4.687Y-1.872
X4.687Y-2.2244
X4.687Y-2.4213
X4.687Y-2.6181
X4.689Y-2.9557
X4.689Y-3.1526
X4.689Y-3.3494
X7.0118Y-2.628
X7.0118Y-2.8248
X7.0118Y-3.0217
T9
X5.1684Y-4.2087
X5.1684Y-4.437
X5.3574Y-4.3268
T2
G00X6.9201Y-1.7394
M15
G01X6.9634Y-1.7394
M16
G05
G00X6.9201Y-2.0795
M15
G01X6.9634Y-2.0795
M16
G05
G00X7.0945Y-1.7394
M15
G01X7.1181Y-1.7394
M16
G05
G00X7.0945Y-2.0795
M15
G01X7.1181Y-2.0795
M16
G05
M30
