%TF.GenerationSoftware,KiCad,Pcbnew,9.0.7*%
%TF.CreationDate,2026-03-26T22:20:58-05:00*%
%TF.ProjectId,circle_of_life_v2,63697263-6c65-45f6-9f66-5f6c6966655f,rev?*%
%TF.SameCoordinates,Original*%
%TF.FileFunction,Soldermask,Top*%
%TF.FilePolarity,Negative*%
%FSLAX46Y46*%
G04 Gerber Fmt 4.6, Leading zero omitted, Abs format (unit mm)*
G04 Created by KiCad (PCBNEW 9.0.7) date 2026-03-26 22:20:58*
%MOMM*%
%LPD*%
G01*
G04 APERTURE LIST*
G04 Aperture macros list*
%AMRoundRect*
0 Rectangle with rounded corners*
0 $1 Rounding radius*
0 $2 $3 $4 $5 $6 $7 $8 $9 X,Y pos of 4 corners*
0 Add a 4 corners polygon primitive as box body*
4,1,4,$2,$3,$4,$5,$6,$7,$8,$9,$2,$3,0*
0 Add four circle primitives for the rounded corners*
1,1,$1+$1,$2,$3*
1,1,$1+$1,$4,$5*
1,1,$1+$1,$6,$7*
1,1,$1+$1,$8,$9*
0 Add four rect primitives between the rounded corners*
20,1,$1+$1,$2,$3,$4,$5,0*
20,1,$1+$1,$4,$5,$6,$7,0*
20,1,$1+$1,$6,$7,$8,$9,0*
20,1,$1+$1,$8,$9,$2,$3,0*%
%AMFreePoly0*
4,1,23,0.500000,-0.750000,0.000000,-0.750000,0.000000,-0.745722,-0.065263,-0.745722,-0.191342,-0.711940,-0.304381,-0.646677,-0.396677,-0.554381,-0.461940,-0.441342,-0.495722,-0.315263,-0.495722,-0.250000,-0.500000,-0.250000,-0.500000,0.250000,-0.495722,0.250000,-0.495722,0.315263,-0.461940,0.441342,-0.396677,0.554381,-0.304381,0.646677,-0.191342,0.711940,-0.065263,0.745722,0.000000,0.745722,
0.000000,0.750000,0.500000,0.750000,0.500000,-0.750000,0.500000,-0.750000,$1*%
%AMFreePoly1*
4,1,23,0.000000,0.745722,0.065263,0.745722,0.191342,0.711940,0.304381,0.646677,0.396677,0.554381,0.461940,0.441342,0.495722,0.315263,0.495722,0.250000,0.500000,0.250000,0.500000,-0.250000,0.495722,-0.250000,0.495722,-0.315263,0.461940,-0.441342,0.396677,-0.554381,0.304381,-0.646677,0.191342,-0.711940,0.065263,-0.745722,0.000000,-0.745722,0.000000,-0.750000,-0.500000,-0.750000,
-0.500000,0.750000,0.000000,0.750000,0.000000,0.745722,0.000000,0.745722,$1*%
G04 Aperture macros list end*
%ADD10RoundRect,0.200000X-0.200000X-0.275000X0.200000X-0.275000X0.200000X0.275000X-0.200000X0.275000X0*%
%ADD11C,0.650000*%
%ADD12R,1.450000X0.600000*%
%ADD13R,1.450000X0.300000*%
%ADD14O,2.100000X1.000000*%
%ADD15O,1.600000X1.000000*%
%ADD16R,0.800000X0.950000*%
%ADD17R,0.950000X0.800000*%
%ADD18R,1.500000X0.900000*%
%ADD19R,0.900000X1.500000*%
%ADD20R,0.900000X0.900000*%
%ADD21C,1.650000*%
%ADD22R,1.117600X1.447800*%
%ADD23R,1.800000X1.100000*%
%ADD24C,3.200000*%
%ADD25RoundRect,0.150000X-0.150000X0.587500X-0.150000X-0.587500X0.150000X-0.587500X0.150000X0.587500X0*%
%ADD26C,1.950000*%
%ADD27RoundRect,0.250000X-0.250000X-0.475000X0.250000X-0.475000X0.250000X0.475000X-0.250000X0.475000X0*%
%ADD28RoundRect,0.250000X0.475000X-0.250000X0.475000X0.250000X-0.475000X0.250000X-0.475000X-0.250000X0*%
%ADD29R,0.450000X0.600000*%
%ADD30R,0.300000X0.800000*%
%ADD31R,0.800000X0.300000*%
%ADD32R,3.750000X2.750000*%
%ADD33RoundRect,0.102000X0.650000X0.700000X-0.650000X0.700000X-0.650000X-0.700000X0.650000X-0.700000X0*%
%ADD34R,1.850000X5.100000*%
%ADD35RoundRect,0.250000X-0.475000X0.250000X-0.475000X-0.250000X0.475000X-0.250000X0.475000X0.250000X0*%
%ADD36R,3.450000X1.800000*%
%ADD37R,0.950000X1.400000*%
%ADD38R,1.920000X1.170000*%
%ADD39RoundRect,0.200000X-0.275000X0.200000X-0.275000X-0.200000X0.275000X-0.200000X0.275000X0.200000X0*%
%ADD40RoundRect,0.150000X-0.200000X0.150000X-0.200000X-0.150000X0.200000X-0.150000X0.200000X0.150000X0*%
%ADD41RoundRect,0.250000X0.250000X0.475000X-0.250000X0.475000X-0.250000X-0.475000X0.250000X-0.475000X0*%
%ADD42R,1.800000X1.800000*%
%ADD43C,1.800000*%
%ADD44RoundRect,0.218750X0.256250X-0.218750X0.256250X0.218750X-0.256250X0.218750X-0.256250X-0.218750X0*%
%ADD45R,0.600000X0.450000*%
%ADD46R,2.250000X2.150000*%
%ADD47R,0.600000X1.300000*%
%ADD48R,4.650000X4.650000*%
%ADD49C,4.650000*%
%ADD50RoundRect,0.250000X0.512652X0.159099X0.159099X0.512652X-0.512652X-0.159099X-0.159099X-0.512652X0*%
%ADD51R,6.000000X2.010000*%
%ADD52RoundRect,0.218750X-0.256250X0.218750X-0.256250X-0.218750X0.256250X-0.218750X0.256250X0.218750X0*%
%ADD53R,1.400000X0.950000*%
%ADD54R,0.300000X0.475000*%
%ADD55R,0.600000X0.500000*%
%ADD56RoundRect,0.250000X-0.450000X0.350000X-0.450000X-0.350000X0.450000X-0.350000X0.450000X0.350000X0*%
%ADD57RoundRect,0.250000X0.262500X0.450000X-0.262500X0.450000X-0.262500X-0.450000X0.262500X-0.450000X0*%
%ADD58R,0.300000X1.000000*%
%ADD59R,1.000000X0.300000*%
%ADD60R,3.350000X3.350000*%
%ADD61R,2.200000X3.150000*%
%ADD62R,1.700000X1.150000*%
%ADD63RoundRect,0.150000X0.150000X-0.587500X0.150000X0.587500X-0.150000X0.587500X-0.150000X-0.587500X0*%
%ADD64R,2.070000X2.660000*%
%ADD65R,0.900000X1.950000*%
%ADD66R,3.200000X1.950000*%
%ADD67RoundRect,0.225000X0.250000X-0.225000X0.250000X0.225000X-0.250000X0.225000X-0.250000X-0.225000X0*%
%ADD68R,1.000000X1.750000*%
%ADD69RoundRect,0.200000X0.275000X-0.200000X0.275000X0.200000X-0.275000X0.200000X-0.275000X-0.200000X0*%
%ADD70FreePoly0,270.000000*%
%ADD71FreePoly1,270.000000*%
%ADD72R,1.700000X1.700000*%
%ADD73C,1.700000*%
%ADD74R,1.100000X1.100000*%
%ADD75C,1.100000*%
%ADD76R,1.200000X1.200000*%
%ADD77C,1.200000*%
G04 APERTURE END LIST*
%TO.C,JP3*%
G36*
X173100000Y-52150000D02*
G01*
X171600000Y-52150000D01*
X171600000Y-52450000D01*
X173100000Y-52450000D01*
X173100000Y-52150000D01*
G37*
%TD*%
D10*
%TO.C,R43*%
X162500000Y-56225000D03*
X164150000Y-56225000D03*
%TD*%
D11*
%TO.C,P1*%
X176850000Y-51390000D03*
X176850000Y-45610000D03*
D12*
X175405000Y-51750000D03*
X175405000Y-50950000D03*
D13*
X175405000Y-49750000D03*
X175405000Y-48750000D03*
X175405000Y-48250000D03*
X175405000Y-47250000D03*
D12*
X175405000Y-46050000D03*
X175405000Y-45250000D03*
X175405000Y-45250000D03*
X175405000Y-46050000D03*
D13*
X175405000Y-46750000D03*
X175405000Y-47750000D03*
X175405000Y-49250000D03*
X175405000Y-50250000D03*
D12*
X175405000Y-50950000D03*
X175405000Y-51750000D03*
D14*
X176320000Y-52820000D03*
D15*
X180500000Y-52820000D03*
D14*
X176320000Y-44180000D03*
D15*
X180500000Y-44180000D03*
%TD*%
D10*
%TO.C,R11*%
X172340000Y-40100000D03*
X173990000Y-40100000D03*
%TD*%
D16*
%TO.C,R20*%
X125400000Y-58350000D03*
X127000000Y-58350000D03*
%TD*%
D17*
%TO.C,R10*%
X132050000Y-63050000D03*
X132050000Y-64650000D03*
%TD*%
D18*
%TO.C,IC1*%
X136350000Y-34680000D03*
X136350000Y-35950000D03*
X136350000Y-37220000D03*
X136350000Y-38490000D03*
X136350000Y-39760000D03*
X136350000Y-41030000D03*
X136350000Y-42300000D03*
X136350000Y-43570000D03*
X136350000Y-44840000D03*
X136350000Y-46110000D03*
X136350000Y-47380000D03*
X136350000Y-48650000D03*
X136350000Y-49920000D03*
X136350000Y-51190000D03*
D19*
X139385000Y-52440000D03*
X140655000Y-52440000D03*
X141925000Y-52440000D03*
X143195000Y-52440000D03*
X144465000Y-52440000D03*
X145735000Y-52440000D03*
X147005000Y-52440000D03*
X148275000Y-52440000D03*
X149545000Y-52440000D03*
X150815000Y-52440000D03*
D18*
X153850000Y-51190000D03*
X153850000Y-49920000D03*
X153850000Y-48650000D03*
X153850000Y-47380000D03*
X153850000Y-46110000D03*
X153850000Y-44840000D03*
X153850000Y-43570000D03*
X153850000Y-42300000D03*
X153850000Y-41030000D03*
X153850000Y-39760000D03*
X153850000Y-38490000D03*
X153850000Y-37220000D03*
X153850000Y-35950000D03*
X153850000Y-34680000D03*
D20*
X143600000Y-42400000D03*
X142200000Y-42400000D03*
X142200000Y-43800000D03*
X143600000Y-43800000D03*
X145000000Y-43800000D03*
X145000000Y-42400000D03*
X145000000Y-41000000D03*
X143600000Y-41000000D03*
X142200000Y-41000000D03*
%TD*%
D21*
%TO.C,J5*%
X148990000Y-116400000D03*
X143910000Y-116400000D03*
%TD*%
D22*
%TO.C,C36*%
X167001700Y-92950000D03*
X165198300Y-92950000D03*
%TD*%
D23*
%TO.C,SW2*%
X147250000Y-60600000D03*
X153450000Y-60600000D03*
X147250000Y-64300000D03*
X153450000Y-64300000D03*
%TD*%
D17*
%TO.C,R15*%
X121725000Y-103100000D03*
X121725000Y-104700000D03*
%TD*%
D24*
%TO.C,H1*%
X116250000Y-29325000D03*
%TD*%
D25*
%TO.C,Q2*%
X164900000Y-51650000D03*
X163000000Y-51650000D03*
X163950000Y-53525000D03*
%TD*%
D26*
%TO.C,J7*%
X119050000Y-47550000D03*
X119050000Y-42550000D03*
X119050000Y-37550000D03*
%TD*%
D27*
%TO.C,C38*%
X155350000Y-93450000D03*
X157250000Y-93450000D03*
%TD*%
D28*
%TO.C,C23*%
X148200000Y-88000000D03*
X148200000Y-86100000D03*
%TD*%
D24*
%TO.C,H4*%
X116425000Y-118975000D03*
%TD*%
D29*
%TO.C,C40*%
X165250000Y-101050000D03*
X166200000Y-101050000D03*
%TD*%
D30*
%TO.C,IC5*%
X165500000Y-95450000D03*
X165000000Y-95450000D03*
X164500000Y-95450000D03*
X164000000Y-95450000D03*
X163500000Y-95450000D03*
X163000000Y-95450000D03*
X162500000Y-95450000D03*
X162000000Y-95450000D03*
D31*
X161250000Y-96200000D03*
X161250000Y-96700000D03*
X161250000Y-97200000D03*
X161250000Y-97700000D03*
X161250000Y-98200000D03*
X161250000Y-98700000D03*
D30*
X162000000Y-99450000D03*
X162500000Y-99450000D03*
X163000000Y-99450000D03*
X163500000Y-99450000D03*
X164000000Y-99450000D03*
X164500000Y-99450000D03*
X165000000Y-99450000D03*
X165500000Y-99450000D03*
D31*
X166250000Y-98700000D03*
X166250000Y-98200000D03*
X166250000Y-97700000D03*
X166250000Y-97200000D03*
X166250000Y-96700000D03*
X166250000Y-96200000D03*
D32*
X163750000Y-97450000D03*
%TD*%
D33*
%TO.C,D9*%
X135427500Y-97437500D03*
X132527500Y-97437500D03*
%TD*%
D34*
%TO.C,L1*%
X137312000Y-72488000D03*
X141312000Y-72488000D03*
%TD*%
D35*
%TO.C,C34*%
X169350000Y-84450000D03*
X169350000Y-86350000D03*
%TD*%
D36*
%TO.C,C18*%
X144577500Y-89250000D03*
X138677500Y-89250000D03*
%TD*%
D35*
%TO.C,C13*%
X146212000Y-75788000D03*
X146212000Y-77688000D03*
%TD*%
D37*
%TO.C,R23*%
X140112000Y-81038000D03*
X142012000Y-81038000D03*
%TD*%
D38*
%TO.C,C4*%
X133150000Y-37450000D03*
X133150000Y-34710000D03*
%TD*%
D39*
%TO.C,R2*%
X166500000Y-47825000D03*
X166500000Y-49475000D03*
%TD*%
D38*
%TO.C,C20*%
X135312000Y-76418000D03*
X135312000Y-79158000D03*
%TD*%
D40*
%TO.C,D11*%
X161575000Y-74150000D03*
X161575000Y-72750000D03*
%TD*%
D28*
%TO.C,C19*%
X182200000Y-61900000D03*
X182200000Y-60000000D03*
%TD*%
D17*
%TO.C,R38*%
X178600000Y-110000000D03*
X178600000Y-108400000D03*
%TD*%
D41*
%TO.C,C8*%
X133950000Y-61050000D03*
X132050000Y-61050000D03*
%TD*%
D42*
%TO.C,D7*%
X116100000Y-103000000D03*
D43*
X118640000Y-103000000D03*
%TD*%
D16*
%TO.C,R35*%
X161500000Y-101100000D03*
X163100000Y-101100000D03*
%TD*%
D44*
%TO.C,D1*%
X163050000Y-37364495D03*
X163050000Y-35789495D03*
%TD*%
D23*
%TO.C,SW1*%
X136100000Y-60620000D03*
X142300000Y-60620000D03*
X136100000Y-64320000D03*
X142300000Y-64320000D03*
%TD*%
D38*
%TO.C,C22*%
X132712000Y-76368000D03*
X132712000Y-79108000D03*
%TD*%
D17*
%TO.C,R21*%
X124700000Y-37300000D03*
X124700000Y-35700000D03*
%TD*%
D45*
%TO.C,C41*%
X167850000Y-98300000D03*
X167850000Y-99250000D03*
%TD*%
D17*
%TO.C,R14*%
X121575000Y-94825000D03*
X121575000Y-96425000D03*
%TD*%
D46*
%TO.C,D8*%
X148600000Y-108700000D03*
X144200000Y-108700000D03*
%TD*%
D47*
%TO.C,Q4*%
X174700000Y-110250000D03*
X176600000Y-110250000D03*
X175650000Y-108150000D03*
%TD*%
D27*
%TO.C,C3*%
X170050000Y-44450000D03*
X171950000Y-44450000D03*
%TD*%
%TO.C,C5*%
X172325000Y-41950000D03*
X174225000Y-41950000D03*
%TD*%
D48*
%TO.C,J4*%
X131277500Y-106900000D03*
D49*
X131277500Y-112700000D03*
X136077500Y-109900000D03*
%TD*%
D35*
%TO.C,C7*%
X144850000Y-62670000D03*
X144850000Y-64570000D03*
%TD*%
D17*
%TO.C,R7*%
X161125000Y-37525000D03*
X161125000Y-35925000D03*
%TD*%
D50*
%TO.C,C42*%
X170421751Y-103346751D03*
X169078249Y-102003249D03*
%TD*%
D28*
%TO.C,C21*%
X150550000Y-88000000D03*
X150550000Y-86100000D03*
%TD*%
D16*
%TO.C,R33*%
X155100000Y-99350000D03*
X153500000Y-99350000D03*
%TD*%
D28*
%TO.C,C16*%
X172400000Y-61800000D03*
X172400000Y-59900000D03*
%TD*%
D35*
%TO.C,C25*%
X127600000Y-54600000D03*
X127600000Y-56500000D03*
%TD*%
D51*
%TO.C,L2*%
X171300000Y-88550000D03*
X171300000Y-92850000D03*
%TD*%
D35*
%TO.C,C9*%
X156300000Y-62300000D03*
X156300000Y-64200000D03*
%TD*%
D52*
%TO.C,D4*%
X163300000Y-41939495D03*
X163300000Y-43514495D03*
%TD*%
D26*
%TO.C,J8*%
X178100000Y-76750000D03*
X178100000Y-71750000D03*
X178100000Y-66750000D03*
%TD*%
D24*
%TO.C,H3*%
X180675000Y-118975000D03*
%TD*%
D53*
%TO.C,R24*%
X144262000Y-81238000D03*
X144262000Y-79338000D03*
%TD*%
D54*
%TO.C,IC4*%
X142300000Y-76112000D03*
X141800000Y-76112000D03*
X141300000Y-76112000D03*
X141300000Y-77788000D03*
X141800000Y-77788000D03*
X142300000Y-77788000D03*
%TD*%
D55*
%TO.C,D3*%
X168950000Y-46400000D03*
X169950000Y-46400000D03*
%TD*%
D56*
%TO.C,C33*%
X171750000Y-84100000D03*
X171750000Y-86100000D03*
%TD*%
D26*
%TO.C,J3*%
X119100000Y-85075000D03*
X119100000Y-80075000D03*
X119100000Y-75075000D03*
%TD*%
D17*
%TO.C,R9*%
X133900000Y-64650000D03*
X133900000Y-63050000D03*
%TD*%
D53*
%TO.C,R30*%
X159150000Y-93150000D03*
X159150000Y-91250000D03*
%TD*%
D57*
%TO.C,R25*%
X159712500Y-76000000D03*
X157887500Y-76000000D03*
%TD*%
D47*
%TO.C,Q3*%
X143840000Y-105000000D03*
X145740000Y-105000000D03*
X144790000Y-102600000D03*
%TD*%
D53*
%TO.C,R26*%
X159550000Y-72100000D03*
X159550000Y-74000000D03*
%TD*%
D58*
%TO.C,IC2*%
X166740000Y-41910000D03*
X167240000Y-41910000D03*
X167740000Y-41910000D03*
X168240000Y-41910000D03*
X168740000Y-41910000D03*
X169240000Y-41910000D03*
X169740000Y-41910000D03*
D59*
X170590000Y-41060000D03*
X170590000Y-40560000D03*
X170590000Y-40060000D03*
X170590000Y-39560000D03*
X170590000Y-39060000D03*
X170590000Y-38560000D03*
X170590000Y-38060000D03*
D58*
X169740000Y-37210000D03*
X169240000Y-37210000D03*
X168740000Y-37210000D03*
X168240000Y-37210000D03*
X167740000Y-37210000D03*
X167240000Y-37210000D03*
X166740000Y-37210000D03*
D59*
X165890000Y-38060000D03*
X165890000Y-38560000D03*
X165890000Y-39060000D03*
X165890000Y-39560000D03*
X165890000Y-40060000D03*
X165890000Y-40560000D03*
X165890000Y-41060000D03*
D60*
X168240000Y-39560000D03*
%TD*%
D53*
%TO.C,R27*%
X157350000Y-72100000D03*
X157350000Y-74000000D03*
%TD*%
D17*
%TO.C,R8*%
X161150000Y-41800000D03*
X161150000Y-43400000D03*
%TD*%
D61*
%TO.C,D10*%
X145327500Y-97050000D03*
X138327500Y-97050000D03*
%TD*%
D28*
%TO.C,C6*%
X130750000Y-36600000D03*
X130750000Y-34700000D03*
%TD*%
D16*
%TO.C,R17*%
X149290000Y-105000000D03*
X147690000Y-105000000D03*
%TD*%
D21*
%TO.C,J9*%
X172700000Y-116750000D03*
X167620000Y-116750000D03*
%TD*%
D17*
%TO.C,R31*%
X155125000Y-102675000D03*
X155125000Y-101075000D03*
%TD*%
D62*
%TO.C,R36*%
X175825000Y-102275000D03*
X175825000Y-105425000D03*
%TD*%
D42*
%TO.C,D5*%
X116200000Y-111350000D03*
D43*
X118740000Y-111350000D03*
%TD*%
D63*
%TO.C,Q1*%
X163000000Y-47462500D03*
X164900000Y-47462500D03*
X163950000Y-45587500D03*
%TD*%
D64*
%TO.C,F1*%
X130240000Y-100987500D03*
X135140000Y-100987500D03*
%TD*%
D35*
%TO.C,C24*%
X130312000Y-76388000D03*
X130312000Y-78288000D03*
%TD*%
D65*
%TO.C,IC3*%
X175050000Y-61450000D03*
X177350000Y-61450000D03*
X179650000Y-61450000D03*
D66*
X177350000Y-55350000D03*
%TD*%
D67*
%TO.C,C39*%
X157875000Y-100375000D03*
X157875000Y-98825000D03*
%TD*%
D16*
%TO.C,R37*%
X170250000Y-110300000D03*
X171850000Y-110300000D03*
%TD*%
D35*
%TO.C,C14*%
X148512000Y-75788000D03*
X148512000Y-77688000D03*
%TD*%
D68*
%TO.C,R28*%
X164100000Y-90600000D03*
X161100000Y-90600000D03*
%TD*%
D17*
%TO.C,R32*%
X159050000Y-95000000D03*
X159050000Y-96600000D03*
%TD*%
D28*
%TO.C,C12*%
X153440000Y-108200000D03*
X153440000Y-106300000D03*
%TD*%
D69*
%TO.C,R12*%
X172440000Y-38400000D03*
X172440000Y-36750000D03*
%TD*%
D37*
%TO.C,R29*%
X163000000Y-92900000D03*
X161100000Y-92900000D03*
%TD*%
D24*
%TO.C,H2*%
X180575000Y-29200000D03*
%TD*%
D10*
%TO.C,R1*%
X163175000Y-49525000D03*
X164825000Y-49525000D03*
%TD*%
D17*
%TO.C,R13*%
X121850000Y-112950000D03*
X121850000Y-111350000D03*
%TD*%
D26*
%TO.C,J6*%
X119050000Y-66500000D03*
X119050000Y-61500000D03*
X119050000Y-56500000D03*
%TD*%
D16*
%TO.C,R16*%
X147740000Y-103300000D03*
X149340000Y-103300000D03*
%TD*%
D70*
%TO.C,JP3*%
X172350000Y-51650000D03*
D71*
X172350000Y-52950000D03*
%TD*%
D42*
%TO.C,D6*%
X116085000Y-94825000D03*
D43*
X118625000Y-94825000D03*
%TD*%
D17*
%TO.C,R22*%
X125450000Y-56500000D03*
X125450000Y-54900000D03*
%TD*%
D72*
%TO.C,J2*%
X136765000Y-56300000D03*
D73*
X139305000Y-56300000D03*
X141845000Y-56300000D03*
X144385000Y-56300000D03*
%TD*%
D55*
%TO.C,D2*%
X168075000Y-46400000D03*
X167075000Y-46400000D03*
%TD*%
D74*
%TO.C,C17*%
X137312000Y-76538000D03*
D75*
X137312000Y-79038000D03*
%TD*%
D72*
%TO.C,J1*%
X157750000Y-35725000D03*
D73*
X157750000Y-38265000D03*
X157750000Y-40805000D03*
X157750000Y-43345000D03*
%TD*%
D76*
%TO.C,C2*%
X121600000Y-80700000D03*
D77*
X121600000Y-85700000D03*
%TD*%
D76*
%TO.C,C10*%
X151340000Y-109100000D03*
D77*
X151340000Y-105600000D03*
%TD*%
D74*
%TO.C,C32*%
X174100000Y-86300000D03*
D75*
X174100000Y-83800000D03*
%TD*%
D74*
%TO.C,C11*%
X144200000Y-74825000D03*
D75*
X144200000Y-77325000D03*
%TD*%
M02*
