%TF.GenerationSoftware,KiCad,Pcbnew,9.0.7*%
%TF.CreationDate,2026-02-25T22:42:23-06:00*%
%TF.ProjectId,grow_lights,67726f77-5f6c-4696-9768-74732e6b6963,rev?*%
%TF.SameCoordinates,Original*%
%TF.FileFunction,Copper,L2,Bot*%
%TF.FilePolarity,Positive*%
%FSLAX46Y46*%
G04 Gerber Fmt 4.6, Leading zero omitted, Abs format (unit mm)*
G04 Created by KiCad (PCBNEW 9.0.7) date 2026-02-25 22:42:23*
%MOMM*%
%LPD*%
G01*
G04 APERTURE LIST*
%TA.AperFunction,ComponentPad*%
%ADD10C,1.650000*%
%TD*%
%TA.AperFunction,ViaPad*%
%ADD11C,1.300000*%
%TD*%
G04 APERTURE END LIST*
D10*
%TO.P,J11,1,Pin_1*%
%TO.N,LEDS*%
X110536000Y-58928000D03*
%TO.P,J11,2,Pin_2*%
%TO.N,LED-*%
X115616000Y-58928000D03*
%TD*%
D11*
%TO.N,LED-*%
X142240000Y-135890000D03*
%TD*%
%TA.AperFunction,Conductor*%
%TO.N,LED-*%
G36*
X122119055Y-52343685D02*
G01*
X122164810Y-52396489D01*
X122175999Y-52445967D01*
X122427999Y-67818000D01*
X122943745Y-67821426D01*
X198758439Y-68325178D01*
X198825343Y-68345307D01*
X198870746Y-68398414D01*
X198881611Y-68449565D01*
X198628387Y-148974726D01*
X198608492Y-149041703D01*
X198555545Y-149087292D01*
X198504727Y-149098336D01*
X105787949Y-149351661D01*
X105720856Y-149332159D01*
X105674957Y-149279480D01*
X105663611Y-149228050D01*
X105663204Y-149098336D01*
X105410390Y-68450389D01*
X105429864Y-68383288D01*
X105482524Y-68337368D01*
X105534389Y-68326000D01*
X113284000Y-68326000D01*
X113284000Y-58823720D01*
X114291000Y-58823720D01*
X114291000Y-59032279D01*
X114323626Y-59238272D01*
X114388075Y-59436627D01*
X114482759Y-59622451D01*
X114518627Y-59671818D01*
X114518627Y-59671819D01*
X115092212Y-59098234D01*
X115103482Y-59140292D01*
X115175890Y-59265708D01*
X115278292Y-59368110D01*
X115403708Y-59440518D01*
X115445765Y-59451787D01*
X114872179Y-60025371D01*
X114872180Y-60025372D01*
X114921543Y-60061236D01*
X114921556Y-60061244D01*
X115107372Y-60155924D01*
X115305727Y-60220373D01*
X115511721Y-60253000D01*
X115720279Y-60253000D01*
X115926272Y-60220373D01*
X116124627Y-60155924D01*
X116310451Y-60061240D01*
X116359818Y-60025372D01*
X116359818Y-60025371D01*
X115786234Y-59451787D01*
X115828292Y-59440518D01*
X115953708Y-59368110D01*
X116056110Y-59265708D01*
X116128518Y-59140292D01*
X116139787Y-59098234D01*
X116713371Y-59671818D01*
X116713372Y-59671818D01*
X116749240Y-59622451D01*
X116843924Y-59436627D01*
X116908373Y-59238272D01*
X116941000Y-59032279D01*
X116941000Y-58823720D01*
X116908373Y-58617727D01*
X116843924Y-58419372D01*
X116749244Y-58233556D01*
X116749236Y-58233543D01*
X116713372Y-58184180D01*
X116713371Y-58184179D01*
X116139787Y-58757764D01*
X116128518Y-58715708D01*
X116056110Y-58590292D01*
X115953708Y-58487890D01*
X115828292Y-58415482D01*
X115786233Y-58404212D01*
X116359819Y-57830627D01*
X116310451Y-57794759D01*
X116124627Y-57700075D01*
X115926272Y-57635626D01*
X115720279Y-57603000D01*
X115511721Y-57603000D01*
X115305727Y-57635626D01*
X115107372Y-57700075D01*
X114921552Y-57794757D01*
X114872180Y-57830627D01*
X115445766Y-58404212D01*
X115403708Y-58415482D01*
X115278292Y-58487890D01*
X115175890Y-58590292D01*
X115103482Y-58715708D01*
X115092212Y-58757765D01*
X114518627Y-58184180D01*
X114482757Y-58233552D01*
X114388075Y-58419372D01*
X114323626Y-58617727D01*
X114291000Y-58823720D01*
X113284000Y-58823720D01*
X113284000Y-52448000D01*
X113303685Y-52380961D01*
X113356489Y-52335206D01*
X113408000Y-52324000D01*
X122052016Y-52324000D01*
X122119055Y-52343685D01*
G37*
%TD.AperFunction*%
%TD*%
M02*
