%TF.GenerationSoftware,KiCad,Pcbnew,9.0.7*%
%TF.CreationDate,2026-02-25T22:42:23-06:00*%
%TF.ProjectId,grow_lights,67726f77-5f6c-4696-9768-74732e6b6963,rev?*%
%TF.SameCoordinates,Original*%
%TF.FileFunction,Copper,L1,Top*%
%TF.FilePolarity,Positive*%
%FSLAX46Y46*%
G04 Gerber Fmt 4.6, Leading zero omitted, Abs format (unit mm)*
G04 Created by KiCad (PCBNEW 9.0.7) date 2026-02-25 22:42:23*
%MOMM*%
%LPD*%
G01*
G04 APERTURE LIST*
%TA.AperFunction,ComponentPad*%
%ADD10C,1.650000*%
%TD*%
%TA.AperFunction,SMDPad,CuDef*%
%ADD11R,1.420000X2.100000*%
%TD*%
%TA.AperFunction,SMDPad,CuDef*%
%ADD12R,2.490000X2.100000*%
%TD*%
%TA.AperFunction,ViaPad*%
%ADD13C,1.300000*%
%TD*%
%TA.AperFunction,Conductor*%
%ADD14C,1.300000*%
%TD*%
%TA.AperFunction,Conductor*%
%ADD15C,0.200000*%
%TD*%
G04 APERTURE END LIST*
D10*
%TO.P,J11,1,Pin_1*%
%TO.N,LEDS*%
X110536000Y-58928000D03*
%TO.P,J11,2,Pin_2*%
%TO.N,LED-*%
X115616000Y-58928000D03*
%TD*%
D11*
%TO.P,LED6,1,A*%
%TO.N,LEDS*%
X117078000Y-77216000D03*
D12*
%TO.P,LED6,2,K*%
%TO.N,Net-(LED6-K)*%
X119623000Y-77216000D03*
%TD*%
%TO.P,LED10,1,A*%
%TO.N,Net-(LED10-A)*%
X147828000Y-136652000D03*
D11*
%TO.P,LED10,2,K*%
%TO.N,LED-*%
X145283000Y-136652000D03*
%TD*%
%TO.P,LED4,1,A*%
%TO.N,Net-(LED2-K)*%
X148082000Y-96266000D03*
D12*
%TO.P,LED4,2,K*%
%TO.N,Net-(LED1-A)*%
X145537000Y-96266000D03*
%TD*%
%TO.P,LED1,1,A*%
%TO.N,Net-(LED1-A)*%
X119396000Y-97028000D03*
D11*
%TO.P,LED1,2,K*%
%TO.N,Net-(LED1-K)*%
X116851000Y-97028000D03*
%TD*%
%TO.P,LED7,1,A*%
%TO.N,Net-(LED6-K)*%
X145283000Y-77470000D03*
D12*
%TO.P,LED7,2,K*%
%TO.N,Net-(LED7-K)*%
X147828000Y-77470000D03*
%TD*%
%TO.P,LED5,1,A*%
%TO.N,Net-(LED3-K)*%
X146553000Y-118364000D03*
D11*
%TO.P,LED5,2,K*%
%TO.N,Net-(LED5-K)*%
X149098000Y-118364000D03*
%TD*%
D12*
%TO.P,LED9,1,A*%
%TO.N,Net-(LED5-K)*%
X172715000Y-118364000D03*
D11*
%TO.P,LED9,2,K*%
%TO.N,Net-(LED10-A)*%
X175260000Y-118364000D03*
%TD*%
D12*
%TO.P,LED3,1,A*%
%TO.N,Net-(LED1-K)*%
X116878000Y-117856000D03*
D11*
%TO.P,LED3,2,K*%
%TO.N,Net-(LED3-K)*%
X119423000Y-117856000D03*
%TD*%
%TO.P,LED8,1,A*%
%TO.N,Net-(LED7-K)*%
X173217000Y-78232000D03*
D12*
%TO.P,LED8,2,K*%
%TO.N,Net-(LED2-A)*%
X175762000Y-78232000D03*
%TD*%
D11*
%TO.P,LED2,1,A*%
%TO.N,Net-(LED2-A)*%
X176276000Y-96266000D03*
D12*
%TO.P,LED2,2,K*%
%TO.N,Net-(LED2-K)*%
X173731000Y-96266000D03*
%TD*%
D13*
%TO.N,LED-*%
X142240000Y-135890000D03*
%TD*%
D14*
%TO.N,LED-*%
X142240000Y-135890000D02*
X143002000Y-136652000D01*
X143002000Y-136652000D02*
X145283000Y-136652000D01*
%TO.N,LEDS*%
X110536000Y-70674000D02*
X117078000Y-77216000D01*
X110536000Y-58928000D02*
X110536000Y-70674000D01*
D15*
%TO.N,Net-(LED1-A)*%
X120158000Y-96266000D02*
X119396000Y-97028000D01*
D14*
X145537000Y-96266000D02*
X120158000Y-96266000D01*
D15*
%TO.N,Net-(LED1-K)*%
X116851000Y-117829000D02*
X116878000Y-117856000D01*
D14*
X116851000Y-97028000D02*
X116851000Y-117829000D01*
%TO.N,Net-(LED2-K)*%
X173731000Y-96266000D02*
X148082000Y-96266000D01*
D15*
X148098000Y-96012000D02*
X147844000Y-96266000D01*
%TO.N,Net-(LED2-A)*%
X175762000Y-95752000D02*
X176276000Y-96266000D01*
D14*
X175762000Y-78232000D02*
X175762000Y-95752000D01*
D15*
X175762000Y-78232000D02*
X176276000Y-78746000D01*
%TO.N,Net-(LED3-K)*%
X146045000Y-117856000D02*
X146553000Y-118364000D01*
X146850000Y-117856000D02*
X147358000Y-118364000D01*
D14*
X119423000Y-117856000D02*
X146045000Y-117856000D01*
%TO.N,Net-(LED5-K)*%
X149098000Y-118364000D02*
X172715000Y-118364000D01*
%TO.N,Net-(LED6-K)*%
X119623000Y-77216000D02*
X145029000Y-77216000D01*
D15*
X145029000Y-77216000D02*
X145283000Y-77470000D01*
%TO.N,Net-(LED7-K)*%
X147828000Y-77470000D02*
X148590000Y-78232000D01*
X172455000Y-77470000D02*
X173217000Y-78232000D01*
D14*
X147828000Y-77470000D02*
X172455000Y-77470000D01*
D15*
%TO.N,Net-(LED10-A)*%
X175260000Y-118364000D02*
X175260000Y-119380000D01*
D14*
X157988000Y-136652000D02*
X147828000Y-136652000D01*
X175260000Y-119380000D02*
X157988000Y-136652000D01*
%TD*%
M02*
