%TF.GenerationSoftware,KiCad,Pcbnew,9.0.7*%
%TF.CreationDate,2026-02-25T21:26:21-06:00*%
%TF.ProjectId,circle_of_life,63697263-6c65-45f6-9f66-5f6c6966652e,rev?*%
%TF.SameCoordinates,Original*%
%TF.FileFunction,Copper,L2,Bot*%
%TF.FilePolarity,Positive*%
%FSLAX46Y46*%
G04 Gerber Fmt 4.6, Leading zero omitted, Abs format (unit mm)*
G04 Created by KiCad (PCBNEW 9.0.7) date 2026-02-25 21:26:21*
%MOMM*%
%LPD*%
G01*
G04 APERTURE LIST*
G04 Aperture macros list*
%AMRoundRect*
0 Rectangle with rounded corners*
0 $1 Rounding radius*
0 $2 $3 $4 $5 $6 $7 $8 $9 X,Y pos of 4 corners*
0 Add a 4 corners polygon primitive as box body*
4,1,4,$2,$3,$4,$5,$6,$7,$8,$9,$2,$3,0*
0 Add four circle primitives for the rounded corners*
1,1,$1+$1,$2,$3*
1,1,$1+$1,$4,$5*
1,1,$1+$1,$6,$7*
1,1,$1+$1,$8,$9*
0 Add four rect primitives between the rounded corners*
20,1,$1+$1,$2,$3,$4,$5,0*
20,1,$1+$1,$4,$5,$6,$7,0*
20,1,$1+$1,$6,$7,$8,$9,0*
20,1,$1+$1,$8,$9,$2,$3,0*%
G04 Aperture macros list end*
%TA.AperFunction,ComponentPad*%
%ADD10R,1.700000X1.700000*%
%TD*%
%TA.AperFunction,ComponentPad*%
%ADD11C,1.700000*%
%TD*%
%TA.AperFunction,HeatsinkPad*%
%ADD12O,2.100000X1.000000*%
%TD*%
%TA.AperFunction,HeatsinkPad*%
%ADD13O,1.600000X1.000000*%
%TD*%
%TA.AperFunction,ComponentPad*%
%ADD14C,1.950000*%
%TD*%
%TA.AperFunction,ComponentPad*%
%ADD15R,1.200000X1.200000*%
%TD*%
%TA.AperFunction,ComponentPad*%
%ADD16C,1.200000*%
%TD*%
%TA.AperFunction,ComponentPad*%
%ADD17R,4.650000X4.650000*%
%TD*%
%TA.AperFunction,ComponentPad*%
%ADD18C,4.650000*%
%TD*%
%TA.AperFunction,ComponentPad*%
%ADD19C,1.650000*%
%TD*%
%TA.AperFunction,ComponentPad*%
%ADD20R,1.800000X1.800000*%
%TD*%
%TA.AperFunction,ComponentPad*%
%ADD21C,1.800000*%
%TD*%
%TA.AperFunction,ComponentPad*%
%ADD22R,1.100000X1.100000*%
%TD*%
%TA.AperFunction,ComponentPad*%
%ADD23C,1.100000*%
%TD*%
%TA.AperFunction,SMDPad,CuDef*%
%ADD24R,0.950000X0.800000*%
%TD*%
%TA.AperFunction,SMDPad,CuDef*%
%ADD25RoundRect,0.250000X-0.250000X-0.475000X0.250000X-0.475000X0.250000X0.475000X-0.250000X0.475000X0*%
%TD*%
%TA.AperFunction,SMDPad,CuDef*%
%ADD26RoundRect,0.250000X0.475000X-0.250000X0.475000X0.250000X-0.475000X0.250000X-0.475000X-0.250000X0*%
%TD*%
%TA.AperFunction,SMDPad,CuDef*%
%ADD27R,0.940000X0.810000*%
%TD*%
%TA.AperFunction,SMDPad,CuDef*%
%ADD28RoundRect,0.250000X0.250000X0.475000X-0.250000X0.475000X-0.250000X-0.475000X0.250000X-0.475000X0*%
%TD*%
%TA.AperFunction,SMDPad,CuDef*%
%ADD29R,0.800000X0.950000*%
%TD*%
%TA.AperFunction,SMDPad,CuDef*%
%ADD30RoundRect,0.250000X-0.475000X0.250000X-0.475000X-0.250000X0.475000X-0.250000X0.475000X0.250000X0*%
%TD*%
%TA.AperFunction,ViaPad*%
%ADD31C,0.600000*%
%TD*%
%TA.AperFunction,Conductor*%
%ADD32C,0.500000*%
%TD*%
%TA.AperFunction,Conductor*%
%ADD33C,0.300000*%
%TD*%
%TA.AperFunction,Conductor*%
%ADD34C,0.250000*%
%TD*%
G04 APERTURE END LIST*
D10*
%TO.P,J7,1,Pin_1*%
%TO.N,+3.3V*%
X128900000Y-134700000D03*
D11*
%TO.P,J7,2,Pin_2*%
%TO.N,TXD0*%
X128900000Y-132160000D03*
%TO.P,J7,3,Pin_3*%
%TO.N,RXD0*%
X128900000Y-129620000D03*
%TO.P,J7,4,Pin_4*%
%TO.N,GND*%
X128900000Y-127080000D03*
%TD*%
D12*
%TO.P,P1,S1,SHIELD*%
%TO.N,GND*%
X94360000Y-146540000D03*
D13*
X90180000Y-146540000D03*
D12*
X94360000Y-155180000D03*
D13*
X90180000Y-155180000D03*
%TD*%
D14*
%TO.P,J4,1,Pin_1*%
%TO.N,GND*%
X92080000Y-171900000D03*
%TO.P,J4,2,Pin_2*%
%TO.N,+5V*%
X92080000Y-166900000D03*
%TO.P,J4,3,Pin_3*%
%TO.N,PH_SGN*%
X92080000Y-161900000D03*
%TD*%
D10*
%TO.P,J8,1,Pin_1*%
%TO.N,TMS*%
X93800000Y-141620000D03*
D11*
%TO.P,J8,2,Pin_2*%
%TO.N,TDI*%
X93800000Y-139080000D03*
%TO.P,J8,3,Pin_3*%
%TO.N,TCK*%
X93800000Y-136540000D03*
%TO.P,J8,4,Pin_4*%
%TO.N,TDO*%
X93800000Y-134000000D03*
%TD*%
D14*
%TO.P,J6,1,Pin_1*%
%TO.N,+3.3V*%
X92230000Y-110950000D03*
%TO.P,J6,2,Pin_2*%
%TO.N,GND*%
X97230000Y-110950000D03*
%TO.P,J6,3,Pin_3*%
%TO.N,TMP_SGN*%
X102230000Y-110950000D03*
%TD*%
D15*
%TO.P,C36,1*%
%TO.N,+5V*%
X128200000Y-192500000D03*
D16*
%TO.P,C36,2*%
%TO.N,GND*%
X128200000Y-196000000D03*
%TD*%
D15*
%TO.P,C12,1*%
%TO.N,+12V*%
X155850000Y-157780000D03*
D16*
%TO.P,C12,2*%
%TO.N,GND*%
X155850000Y-154280000D03*
%TD*%
D17*
%TO.P,J3,1,1*%
%TO.N,Net-(F2-Pad1)*%
X157400000Y-177200000D03*
D18*
%TO.P,J3,2,2*%
%TO.N,GND*%
X163200000Y-177200000D03*
%TO.P,J3,3,3*%
X160400000Y-172400000D03*
%TD*%
D14*
%TO.P,J2,1,Pin_1*%
%TO.N,GND*%
X92000000Y-194300000D03*
%TO.P,J2,2,Pin_2*%
%TO.N,+5V*%
X97000000Y-194300000D03*
%TO.P,J2,3,Pin_3*%
%TO.N,Net-(J2-Pin_3)*%
X102000000Y-194300000D03*
%TD*%
D19*
%TO.P,J11,1,Pin_1*%
%TO.N,LEDS*%
X167931944Y-117649586D03*
%TO.P,J11,2,Pin_2*%
%TO.N,GND*%
X167931944Y-112569586D03*
%TD*%
D20*
%TO.P,D5,1,K*%
%TO.N,GND*%
X91790000Y-120990000D03*
D21*
%TO.P,D5,2,A*%
%TO.N,Net-(D5-A)*%
X91790000Y-118450000D03*
%TD*%
D14*
%TO.P,J5,1,Pin_1*%
%TO.N,GND*%
X110600000Y-194200000D03*
%TO.P,J5,2,Pin_2*%
%TO.N,+5V*%
X115600000Y-194200000D03*
%TO.P,J5,3,Pin_3*%
%TO.N,FLOW_SGN*%
X120600000Y-194200000D03*
%TD*%
D20*
%TO.P,D6,1,K*%
%TO.N,GND*%
X110090000Y-184300000D03*
D21*
%TO.P,D6,2,A*%
%TO.N,Net-(D6-A)*%
X110090000Y-186840000D03*
%TD*%
D20*
%TO.P,D7,1,K*%
%TO.N,GND*%
X101640000Y-172060000D03*
D21*
%TO.P,D7,2,A*%
%TO.N,Net-(D7-A)*%
X99100000Y-172060000D03*
%TD*%
D19*
%TO.P,J1,1,Pin_1*%
%TO.N,+12V*%
X167200000Y-159360000D03*
%TO.P,J1,2,Pin_2*%
%TO.N,Net-(D4-A)*%
X167200000Y-164440000D03*
%TD*%
D15*
%TO.P,C13,1*%
%TO.N,+5V*%
X95975000Y-183550000D03*
D16*
%TO.P,C13,2*%
%TO.N,GND*%
X90975000Y-183550000D03*
%TD*%
D22*
%TO.P,C37,1*%
%TO.N,+12V*%
X137400000Y-128700000D03*
D23*
%TO.P,C37,2*%
%TO.N,GND*%
X139900000Y-128700000D03*
%TD*%
D22*
%TO.P,C29,1*%
%TO.N,+12V*%
X131850000Y-171600000D03*
D23*
%TO.P,C29,2*%
%TO.N,GND*%
X134350000Y-171600000D03*
%TD*%
D24*
%TO.P,R17,1*%
%TO.N,Net-(IC4-ISMON)*%
X150600000Y-113310000D03*
%TO.P,R17,2*%
%TO.N,Net-(C25-Pad2)*%
X150600000Y-111710000D03*
%TD*%
D25*
%TO.P,C34,1*%
%TO.N,+3.3V*%
X93700000Y-109950000D03*
%TO.P,C34,2*%
%TO.N,GND*%
X95600000Y-109950000D03*
%TD*%
D26*
%TO.P,C16,1*%
%TO.N,+12V*%
X154400000Y-156980000D03*
%TO.P,C16,2*%
%TO.N,GND*%
X154400000Y-155080000D03*
%TD*%
D27*
%TO.P,C22,1*%
%TO.N,INTV*%
X150800000Y-119800000D03*
%TO.P,C22,2*%
%TO.N,GND*%
X150800000Y-118460000D03*
%TD*%
D25*
%TO.P,C35,1*%
%TO.N,+3.3V*%
X93740000Y-111700000D03*
%TO.P,C35,2*%
%TO.N,GND*%
X95640000Y-111700000D03*
%TD*%
D28*
%TO.P,C25,1*%
%TO.N,GND*%
X152935796Y-109510000D03*
%TO.P,C25,2*%
%TO.N,Net-(C25-Pad2)*%
X151035796Y-109510000D03*
%TD*%
D24*
%TO.P,R16,1*%
%TO.N,Net-(IC4-~{FAULT})*%
X152700000Y-118200000D03*
%TO.P,R16,2*%
%TO.N,INTV*%
X152700000Y-119800000D03*
%TD*%
D28*
%TO.P,C32,1*%
%TO.N,+5V*%
X113780000Y-195800000D03*
%TO.P,C32,2*%
%TO.N,GND*%
X111880000Y-195800000D03*
%TD*%
D29*
%TO.P,R2,1*%
%TO.N,+3.3V*%
X100880000Y-113400000D03*
%TO.P,R2,2*%
%TO.N,TMP_SGN*%
X102480000Y-113400000D03*
%TD*%
D28*
%TO.P,C14,1*%
%TO.N,+5V*%
X95450000Y-194300000D03*
%TO.P,C14,2*%
%TO.N,GND*%
X93550000Y-194300000D03*
%TD*%
D30*
%TO.P,C30,1*%
%TO.N,+5V*%
X93100000Y-168320000D03*
%TO.P,C30,2*%
%TO.N,GND*%
X93100000Y-170220000D03*
%TD*%
%TO.P,C31,1*%
%TO.N,+5V*%
X91100000Y-168320000D03*
%TO.P,C31,2*%
%TO.N,GND*%
X91100000Y-170220000D03*
%TD*%
D28*
%TO.P,C33,1*%
%TO.N,+5V*%
X113660000Y-191800000D03*
%TO.P,C33,2*%
%TO.N,GND*%
X111760000Y-191800000D03*
%TD*%
D31*
%TO.N,GND*%
X96900000Y-163200000D03*
X146000000Y-117900000D03*
X147700000Y-116200000D03*
X135100000Y-185040000D03*
X156900000Y-109600000D03*
X146900000Y-117100000D03*
X112500000Y-155000000D03*
X146800000Y-116200000D03*
X104700000Y-152800000D03*
X99300000Y-123700000D03*
X136200000Y-195800000D03*
X117300000Y-141650000D03*
X152300000Y-112400000D03*
X148600000Y-117900000D03*
X111100000Y-130700000D03*
X99300000Y-148000000D03*
X142800000Y-113200000D03*
X149300000Y-166100000D03*
X133300000Y-185040000D03*
X143800000Y-127600000D03*
X110700000Y-161100000D03*
X148600000Y-116200000D03*
X119800000Y-165400000D03*
X118900000Y-116300000D03*
X146000000Y-117100000D03*
X101600000Y-178700000D03*
X104400000Y-156200000D03*
X146200000Y-170300000D03*
X111100000Y-127900000D03*
X109700000Y-130700000D03*
X107700000Y-143000000D03*
X133100000Y-147900000D03*
X151600000Y-178300000D03*
X111100000Y-129200000D03*
X146000000Y-116200000D03*
X108300000Y-127900000D03*
X147300000Y-110900000D03*
X108300000Y-129300000D03*
X136900000Y-165000000D03*
X109700000Y-129300000D03*
X134200000Y-185040000D03*
X114200000Y-153200000D03*
X114200000Y-155000000D03*
X136100000Y-179000000D03*
X113400000Y-154100000D03*
X97000000Y-154100000D03*
X112500000Y-153200000D03*
X133400000Y-156900000D03*
X147800000Y-117900000D03*
X120722935Y-155150000D03*
X113300000Y-153200000D03*
X113400000Y-155000000D03*
X154600000Y-119800000D03*
X103600000Y-184700000D03*
X148600000Y-117100000D03*
X147800000Y-117100000D03*
X146900000Y-117900000D03*
X116400000Y-158300000D03*
X121700000Y-165500000D03*
X151100000Y-127000000D03*
X132000000Y-139100000D03*
X153400000Y-159900000D03*
X112500000Y-154100000D03*
X116400000Y-162500000D03*
X114200000Y-154100000D03*
X108300000Y-130600000D03*
X109700000Y-127900000D03*
%TO.N,+3.3V*%
X108900000Y-157800000D03*
X108300000Y-152600000D03*
%TO.N,ISP*%
X156700000Y-118500000D03*
X161800000Y-107800000D03*
%TO.N,INTV*%
X146400000Y-120700000D03*
%TO.N,MCU_EN*%
X114900000Y-120200000D03*
X124077717Y-152700000D03*
%TO.N,IO0*%
X115000000Y-148100000D03*
X111400000Y-148300000D03*
%TO.N,EN*%
X140300000Y-161000000D03*
X140400000Y-170175000D03*
X136138000Y-183840000D03*
X126600000Y-137700000D03*
%TO.N,TDI*%
X100910000Y-120200000D03*
%TO.N,PUMP_SGN*%
X151800000Y-159900000D03*
X104700000Y-120200000D03*
%TO.N,TEMP_FAULT*%
X109700000Y-120200000D03*
X102300000Y-167500000D03*
%TO.N,FLOW_SGN*%
X105900000Y-120200000D03*
X117800000Y-188100000D03*
%TO.N,TCK*%
X98100000Y-126400000D03*
%TO.N,TDO*%
X98200000Y-135100000D03*
%TO.N,PWM_DIM*%
X110200000Y-113800000D03*
X135400000Y-110300000D03*
X107260000Y-120200000D03*
X147300000Y-112200000D03*
%TO.N,TMP_SGN*%
X103500000Y-120200000D03*
%TO.N,FLOW_FAULT*%
X111000000Y-120100000D03*
X115800000Y-188200000D03*
%TO.N,TMS*%
X102180000Y-120200000D03*
%TO.N,PH_SGN*%
X98000000Y-159900000D03*
X108500000Y-120200000D03*
%TO.N,Net-(IC4-ISMON)*%
X150400000Y-114500000D03*
%TO.N,Net-(IC4-~{FAULT})*%
X149400000Y-114000000D03*
%TO.N,Net-(IC4-PWMTG)*%
X160331944Y-113800000D03*
X146300000Y-112200000D03*
%TO.N,SRV_SGN_3.3V*%
X106900000Y-136800000D03*
X99300000Y-182050000D03*
%TO.N,DTR*%
X115000000Y-149600000D03*
X112052935Y-150450000D03*
%TO.N,TXD0*%
X122800000Y-132160000D03*
X113610000Y-137900000D03*
%TO.N,RXD0*%
X122700000Y-129620000D03*
X112300000Y-137900000D03*
%TD*%
D32*
%TO.N,GND*%
X154770000Y-155360000D02*
X155850000Y-154280000D01*
D33*
X95320000Y-111540000D02*
X95480000Y-111700000D01*
X95480000Y-111700000D02*
X96480000Y-111700000D01*
D32*
X154400000Y-155360000D02*
X154770000Y-155360000D01*
D33*
X95320000Y-109950000D02*
X95320000Y-111540000D01*
X96480000Y-111700000D02*
X97230000Y-110950000D01*
%TO.N,+5V*%
X115270000Y-193500000D02*
X115270000Y-193900000D01*
X114440000Y-194880000D02*
X115270000Y-194050000D01*
X95170000Y-194300000D02*
X97000000Y-194300000D01*
X113500000Y-195400000D02*
X114020000Y-194880000D01*
X115270000Y-194050000D02*
X115270000Y-193900000D01*
X91100000Y-168600000D02*
X91100000Y-167880000D01*
X114020000Y-194880000D02*
X114440000Y-194880000D01*
X93100000Y-168480000D02*
X93100000Y-167920000D01*
X113870000Y-192100000D02*
X115270000Y-193500000D01*
X93100000Y-167920000D02*
X92080000Y-166900000D01*
X91100000Y-167880000D02*
X92080000Y-166900000D01*
X113500000Y-192100000D02*
X113870000Y-192100000D01*
%TO.N,+3.3V*%
X93900000Y-111915000D02*
X95385000Y-113400000D01*
X93980000Y-109950000D02*
X93980000Y-111620000D01*
X108900000Y-157800000D02*
X108900000Y-153200000D01*
X93980000Y-111620000D02*
X93900000Y-111700000D01*
X93900000Y-111700000D02*
X93900000Y-111915000D01*
X93900000Y-111700000D02*
X92980000Y-111700000D01*
X92980000Y-111700000D02*
X92230000Y-110950000D01*
X108900000Y-153200000D02*
X108300000Y-152600000D01*
X95385000Y-113400000D02*
X100880000Y-113400000D01*
D32*
%TO.N,+12V*%
X154770000Y-156700000D02*
X155850000Y-157780000D01*
X154400000Y-156700000D02*
X154770000Y-156700000D01*
D33*
%TO.N,ISP*%
X161800000Y-115600000D02*
X161800000Y-107800000D01*
X156700000Y-118500000D02*
X158900000Y-118500000D01*
X158900000Y-118500000D02*
X161400000Y-116000000D01*
X161400000Y-116000000D02*
X161800000Y-115600000D01*
%TO.N,INTV*%
X147300000Y-119800000D02*
X150800000Y-119800000D01*
X146400000Y-120700000D02*
X147300000Y-119800000D01*
X150800000Y-119800000D02*
X152700000Y-119800000D01*
%TO.N,Net-(C25-Pad2)*%
X150600000Y-111710000D02*
X150600000Y-109521204D01*
X150600000Y-109521204D02*
X150588796Y-109510000D01*
%TO.N,MCU_EN*%
X123600000Y-128900000D02*
X123600000Y-152222283D01*
X114900000Y-120200000D02*
X123600000Y-128900000D01*
X123600000Y-152222283D02*
X124077717Y-152700000D01*
%TO.N,IO0*%
X111400000Y-148300000D02*
X111600000Y-148100000D01*
X111600000Y-148100000D02*
X115000000Y-148100000D01*
%TO.N,EN*%
X140400000Y-170175000D02*
X140400000Y-179578000D01*
X131349000Y-139369654D02*
X140300000Y-148320654D01*
X140400000Y-179578000D02*
X136138000Y-183840000D01*
X131349000Y-139249000D02*
X131349000Y-139369654D01*
X140300000Y-148320654D02*
X140300000Y-161000000D01*
X129800000Y-137700000D02*
X131349000Y-139249000D01*
X126600000Y-137700000D02*
X129800000Y-137700000D01*
%TO.N,TDI*%
X95140654Y-139080000D02*
X93800000Y-139080000D01*
X100910000Y-120200000D02*
X100910000Y-133310654D01*
X100910000Y-133310654D02*
X95140654Y-139080000D01*
%TO.N,PUMP_SGN*%
X104700000Y-116000000D02*
X108700000Y-112000000D01*
X108700000Y-112000000D02*
X117100000Y-112000000D01*
X117100000Y-112000000D02*
X151800000Y-146700000D01*
X151800000Y-146700000D02*
X151800000Y-159900000D01*
X104700000Y-120200000D02*
X104700000Y-116000000D01*
%TO.N,TEMP_FAULT*%
X106399000Y-133401000D02*
X100200000Y-139600000D01*
X98700000Y-161900000D02*
X98700000Y-166400000D01*
X106399000Y-123501000D02*
X106399000Y-133401000D01*
X99100000Y-167000000D02*
X99600000Y-167500000D01*
X99600000Y-167500000D02*
X102300000Y-167500000D01*
X100200000Y-139600000D02*
X100200000Y-149999000D01*
X98700000Y-166400000D02*
X98900000Y-166600000D01*
X99100000Y-166900000D02*
X99100000Y-167000000D01*
X98900000Y-166600000D02*
X98900000Y-166700000D01*
X109700000Y-120200000D02*
X106399000Y-123501000D01*
X100300000Y-150099000D02*
X100300000Y-160300000D01*
X98900000Y-166700000D02*
X99100000Y-166900000D01*
X100200000Y-149999000D02*
X100300000Y-150099000D01*
X100300000Y-160300000D02*
X98700000Y-161900000D01*
%TO.N,FLOW_SGN*%
X125279346Y-141300000D02*
X125200000Y-141220654D01*
X116000000Y-113000000D02*
X109300000Y-113000000D01*
X125000000Y-122000000D02*
X119551000Y-116551000D01*
X125200000Y-141220654D02*
X125200000Y-134579346D01*
X119551000Y-116030346D02*
X119169654Y-115649000D01*
X125200000Y-134579346D02*
X125000000Y-134379346D01*
X125400000Y-142220654D02*
X125149000Y-141969654D01*
X125149000Y-141969654D02*
X125149000Y-141430346D01*
X122000000Y-166120654D02*
X122351000Y-165769654D01*
X119169654Y-115649000D02*
X118649000Y-115649000D01*
X122000000Y-185100000D02*
X122000000Y-166120654D01*
X125000000Y-134379346D02*
X125000000Y-122000000D01*
X125400000Y-162181346D02*
X125400000Y-142220654D01*
X125149000Y-141430346D02*
X125279346Y-141300000D01*
X119551000Y-116551000D02*
X119551000Y-116030346D01*
X122351000Y-165230346D02*
X125400000Y-162181346D01*
X117800000Y-188100000D02*
X119000000Y-188100000D01*
X109300000Y-113000000D02*
X105900000Y-116400000D01*
X118649000Y-115649000D02*
X116000000Y-113000000D01*
X119000000Y-188100000D02*
X122000000Y-185100000D01*
X105900000Y-116400000D02*
X105900000Y-120200000D01*
X122351000Y-165769654D02*
X122351000Y-165230346D01*
%TO.N,TCK*%
X92400000Y-136600000D02*
X92460000Y-136540000D01*
X91900000Y-132600000D02*
X91900000Y-136000000D01*
X98100000Y-126400000D02*
X91900000Y-132600000D01*
X92460000Y-136540000D02*
X93800000Y-136540000D01*
X92400000Y-136500000D02*
X92400000Y-136600000D01*
X91900000Y-136000000D02*
X92400000Y-136500000D01*
%TO.N,TDO*%
X94900000Y-135100000D02*
X93800000Y-134000000D01*
X98200000Y-135100000D02*
X94900000Y-135100000D01*
%TO.N,PWM_DIM*%
X139400000Y-113800000D02*
X139500000Y-113900000D01*
X107260000Y-116740000D02*
X110200000Y-113800000D01*
X139300000Y-113900000D02*
X139400000Y-113800000D01*
X139500000Y-113900000D02*
X145600000Y-113900000D01*
X135400000Y-110300000D02*
X139000000Y-113900000D01*
X107260000Y-120200000D02*
X107260000Y-116740000D01*
X145600000Y-113900000D02*
X147300000Y-112200000D01*
X139000000Y-113900000D02*
X139300000Y-113900000D01*
%TO.N,TMP_SGN*%
X102480000Y-119180000D02*
X102480000Y-113400000D01*
X103500000Y-120200000D02*
X102480000Y-119180000D01*
X102480000Y-113400000D02*
X102480000Y-111200000D01*
X102480000Y-111200000D02*
X102230000Y-110950000D01*
%TO.N,FLOW_FAULT*%
X110200000Y-127479346D02*
X110200000Y-120900000D01*
X110351000Y-129569654D02*
X110351000Y-129030346D01*
X114900000Y-188200000D02*
X111800000Y-185100000D01*
X110200000Y-128879346D02*
X110200000Y-128320654D01*
X111800000Y-153200000D02*
X110200000Y-151600000D01*
X110351000Y-130969654D02*
X110351000Y-130430346D01*
X110200000Y-120900000D02*
X111000000Y-120100000D01*
X110200000Y-131120654D02*
X110351000Y-130969654D01*
X110200000Y-129720654D02*
X110351000Y-129569654D01*
X110351000Y-129030346D02*
X110200000Y-128879346D01*
X110351000Y-128169654D02*
X110351000Y-127630346D01*
X111800000Y-185100000D02*
X111800000Y-153200000D01*
X110200000Y-130279346D02*
X110200000Y-129720654D01*
X115800000Y-188200000D02*
X114900000Y-188200000D01*
X110200000Y-151600000D02*
X110200000Y-131120654D01*
X110200000Y-128320654D02*
X110351000Y-128169654D01*
X110351000Y-130430346D02*
X110200000Y-130279346D01*
X110351000Y-127630346D02*
X110200000Y-127479346D01*
%TO.N,TMS*%
X102180000Y-120200000D02*
X102180000Y-133240000D01*
X102180000Y-133240000D02*
X93800000Y-141620000D01*
%TO.N,PH_SGN*%
X104049000Y-133051000D02*
X98000000Y-139100000D01*
X98000000Y-139100000D02*
X98000000Y-159900000D01*
X104049000Y-124651000D02*
X104049000Y-133051000D01*
X108500000Y-120200000D02*
X104049000Y-124651000D01*
%TO.N,Net-(IC4-ISMON)*%
X150400000Y-113510000D02*
X150600000Y-113310000D01*
X150400000Y-114500000D02*
X150400000Y-113510000D01*
%TO.N,Net-(IC4-~{FAULT})*%
X149400000Y-114900000D02*
X149400000Y-114000000D01*
X152700000Y-118200000D02*
X149400000Y-114900000D01*
%TO.N,Net-(IC4-PWMTG)*%
X148600000Y-107600000D02*
X146300000Y-109900000D01*
X157200000Y-107600000D02*
X148600000Y-107600000D01*
X160300000Y-110700000D02*
X157200000Y-107600000D01*
X160331944Y-113800000D02*
X160300000Y-113768056D01*
X146300000Y-109900000D02*
X146300000Y-112200000D01*
X160300000Y-113768056D02*
X160300000Y-110700000D01*
%TO.N,SRV_SGN_3.3V*%
X106900000Y-143400000D02*
X106800000Y-143500000D01*
X106800000Y-143500000D02*
X106800000Y-174500000D01*
X99300000Y-182000000D02*
X99300000Y-182050000D01*
X106800000Y-174500000D02*
X99300000Y-182000000D01*
X106900000Y-136800000D02*
X106900000Y-143400000D01*
D34*
%TO.N,DTR*%
X112952935Y-149550000D02*
X112052935Y-150450000D01*
X114950000Y-149550000D02*
X112952935Y-149550000D01*
X115000000Y-149600000D02*
X114950000Y-149550000D01*
%TO.N,TXD0*%
X119350000Y-132160000D02*
X122800000Y-132160000D01*
X113610000Y-137900000D02*
X119350000Y-132160000D01*
%TO.N,RXD0*%
X120580000Y-129620000D02*
X122700000Y-129620000D01*
X112300000Y-137900000D02*
X120580000Y-129620000D01*
%TD*%
%TA.AperFunction,Conductor*%
%TO.N,GND*%
G36*
X170015677Y-105719685D02*
G01*
X170036319Y-105736319D01*
X172863681Y-108563681D01*
X172897166Y-108625004D01*
X172900000Y-108651362D01*
X172900000Y-197848638D01*
X172880315Y-197915677D01*
X172863681Y-197936319D01*
X171036819Y-199763181D01*
X170975496Y-199796666D01*
X170949138Y-199799500D01*
X87750862Y-199799500D01*
X87683823Y-199779815D01*
X87663181Y-199763181D01*
X86736819Y-198836819D01*
X86703334Y-198775496D01*
X86700500Y-198749138D01*
X86700500Y-193774983D01*
X94449500Y-193774983D01*
X94449500Y-194825001D01*
X94449501Y-194825019D01*
X94460000Y-194927796D01*
X94460001Y-194927799D01*
X94485803Y-195005663D01*
X94515186Y-195094334D01*
X94607288Y-195243656D01*
X94731344Y-195367712D01*
X94880666Y-195459814D01*
X95047203Y-195514999D01*
X95149991Y-195525500D01*
X95750008Y-195525499D01*
X95750016Y-195525498D01*
X95750019Y-195525498D01*
X95822949Y-195518048D01*
X95852797Y-195514999D01*
X96004764Y-195464641D01*
X96074591Y-195462240D01*
X96116652Y-195482030D01*
X96183094Y-195530302D01*
X96226669Y-195561961D01*
X96358526Y-195629145D01*
X96433599Y-195667398D01*
X96433601Y-195667398D01*
X96433604Y-195667400D01*
X96654486Y-195739169D01*
X96772668Y-195757886D01*
X96883871Y-195775500D01*
X96883876Y-195775500D01*
X97116129Y-195775500D01*
X97217502Y-195759443D01*
X97345514Y-195739169D01*
X97566396Y-195667400D01*
X97773331Y-195561961D01*
X97961224Y-195425449D01*
X98125449Y-195261224D01*
X98261961Y-195073331D01*
X98367400Y-194866396D01*
X98439169Y-194645514D01*
X98459443Y-194517502D01*
X98475500Y-194416129D01*
X98475500Y-194183870D01*
X100524500Y-194183870D01*
X100524500Y-194416129D01*
X100560831Y-194645514D01*
X100632601Y-194866400D01*
X100663885Y-194927797D01*
X100738039Y-195073331D01*
X100874551Y-195261224D01*
X101038776Y-195425449D01*
X101226669Y-195561961D01*
X101324436Y-195611776D01*
X101433599Y-195667398D01*
X101433601Y-195667398D01*
X101433604Y-195667400D01*
X101654486Y-195739169D01*
X101772668Y-195757886D01*
X101883871Y-195775500D01*
X101883876Y-195775500D01*
X102116129Y-195775500D01*
X102217502Y-195759443D01*
X102345514Y-195739169D01*
X102566396Y-195667400D01*
X102773331Y-195561961D01*
X102961224Y-195425449D01*
X103125449Y-195261224D01*
X103261961Y-195073331D01*
X103367400Y-194866396D01*
X103439169Y-194645514D01*
X103459443Y-194517502D01*
X103475500Y-194416129D01*
X103475500Y-194183870D01*
X103456232Y-194062222D01*
X103439169Y-193954486D01*
X103367400Y-193733604D01*
X103367398Y-193733601D01*
X103367398Y-193733599D01*
X103296314Y-193594091D01*
X103261961Y-193526669D01*
X103125449Y-193338776D01*
X102961224Y-193174551D01*
X102773331Y-193038039D01*
X102728111Y-193014998D01*
X102566400Y-192932601D01*
X102345514Y-192860831D01*
X102116129Y-192824500D01*
X102116124Y-192824500D01*
X101883876Y-192824500D01*
X101883871Y-192824500D01*
X101654485Y-192860831D01*
X101433599Y-192932601D01*
X101226668Y-193038039D01*
X101038773Y-193174553D01*
X100874553Y-193338773D01*
X100738039Y-193526668D01*
X100632601Y-193733599D01*
X100560831Y-193954485D01*
X100524500Y-194183870D01*
X98475500Y-194183870D01*
X98456232Y-194062222D01*
X98439169Y-193954486D01*
X98367400Y-193733604D01*
X98367398Y-193733601D01*
X98367398Y-193733599D01*
X98296314Y-193594091D01*
X98261961Y-193526669D01*
X98125449Y-193338776D01*
X97961224Y-193174551D01*
X97773331Y-193038039D01*
X97728111Y-193014998D01*
X97566400Y-192932601D01*
X97345514Y-192860831D01*
X97116129Y-192824500D01*
X97116124Y-192824500D01*
X96883876Y-192824500D01*
X96883871Y-192824500D01*
X96654485Y-192860831D01*
X96433599Y-192932601D01*
X96226670Y-193038038D01*
X96226668Y-193038039D01*
X96116650Y-193117970D01*
X96050843Y-193141449D01*
X96004762Y-193135357D01*
X95931511Y-193111084D01*
X95852797Y-193085001D01*
X95852795Y-193085000D01*
X95750010Y-193074500D01*
X95149998Y-193074500D01*
X95149980Y-193074501D01*
X95047203Y-193085000D01*
X95047200Y-193085001D01*
X94880668Y-193140185D01*
X94880663Y-193140187D01*
X94731342Y-193232289D01*
X94607289Y-193356342D01*
X94515187Y-193505663D01*
X94515185Y-193505668D01*
X94501304Y-193547558D01*
X94460001Y-193672203D01*
X94460001Y-193672204D01*
X94460000Y-193672204D01*
X94449500Y-193774983D01*
X86700500Y-193774983D01*
X86700500Y-191274983D01*
X112659500Y-191274983D01*
X112659500Y-192325001D01*
X112659501Y-192325019D01*
X112670000Y-192427796D01*
X112670001Y-192427799D01*
X112725185Y-192594331D01*
X112725186Y-192594334D01*
X112817288Y-192743656D01*
X112941344Y-192867712D01*
X113090666Y-192959814D01*
X113257203Y-193014999D01*
X113359991Y-193025500D01*
X113824191Y-193025499D01*
X113891230Y-193045183D01*
X113911872Y-193061818D01*
X114253637Y-193403583D01*
X114287122Y-193464906D01*
X114282138Y-193534598D01*
X114276441Y-193547558D01*
X114232602Y-193633596D01*
X114160831Y-193854485D01*
X114124500Y-194083870D01*
X114124500Y-194105500D01*
X114104815Y-194172539D01*
X114052011Y-194218294D01*
X114000500Y-194229500D01*
X113955929Y-194229500D01*
X113830261Y-194254497D01*
X113830255Y-194254499D01*
X113711874Y-194303534D01*
X113605331Y-194374723D01*
X113424678Y-194555375D01*
X113376001Y-194585399D01*
X113210668Y-194640185D01*
X113210663Y-194640187D01*
X113061342Y-194732289D01*
X112937289Y-194856342D01*
X112845187Y-195005663D01*
X112845186Y-195005666D01*
X112790001Y-195172203D01*
X112790001Y-195172204D01*
X112790000Y-195172204D01*
X112779500Y-195274983D01*
X112779500Y-196325001D01*
X112779501Y-196325019D01*
X112790000Y-196427796D01*
X112790001Y-196427799D01*
X112845185Y-196594331D01*
X112845186Y-196594334D01*
X112937288Y-196743656D01*
X113061344Y-196867712D01*
X113210666Y-196959814D01*
X113377203Y-197014999D01*
X113479991Y-197025500D01*
X114080008Y-197025499D01*
X114080016Y-197025498D01*
X114080019Y-197025498D01*
X114136302Y-197019748D01*
X114182797Y-197014999D01*
X114349334Y-196959814D01*
X114498656Y-196867712D01*
X114622712Y-196743656D01*
X114714814Y-196594334D01*
X114769999Y-196427797D01*
X114780500Y-196325009D01*
X114780499Y-195640785D01*
X114800183Y-195573747D01*
X114852987Y-195527992D01*
X114922146Y-195518048D01*
X114960795Y-195530302D01*
X115033597Y-195567397D01*
X115033600Y-195567397D01*
X115033604Y-195567400D01*
X115254486Y-195639169D01*
X115372668Y-195657886D01*
X115483871Y-195675500D01*
X115483876Y-195675500D01*
X115716129Y-195675500D01*
X115817502Y-195659443D01*
X115945514Y-195639169D01*
X116166396Y-195567400D01*
X116373331Y-195461961D01*
X116561224Y-195325449D01*
X116725449Y-195161224D01*
X116861961Y-194973331D01*
X116967400Y-194766396D01*
X117039169Y-194545514D01*
X117066219Y-194374723D01*
X117075500Y-194316129D01*
X117075500Y-194083870D01*
X119124500Y-194083870D01*
X119124500Y-194316129D01*
X119160831Y-194545514D01*
X119232601Y-194766400D01*
X119314838Y-194927797D01*
X119338039Y-194973331D01*
X119474551Y-195161224D01*
X119638776Y-195325449D01*
X119826669Y-195461961D01*
X119924436Y-195511776D01*
X120033599Y-195567398D01*
X120033601Y-195567398D01*
X120033604Y-195567400D01*
X120254486Y-195639169D01*
X120372668Y-195657886D01*
X120483871Y-195675500D01*
X120483876Y-195675500D01*
X120716129Y-195675500D01*
X120817502Y-195659443D01*
X120945514Y-195639169D01*
X121166396Y-195567400D01*
X121373331Y-195461961D01*
X121561224Y-195325449D01*
X121725449Y-195161224D01*
X121861961Y-194973331D01*
X121967400Y-194766396D01*
X122039169Y-194545514D01*
X122066219Y-194374723D01*
X122075500Y-194316129D01*
X122075500Y-194083870D01*
X122055007Y-193954485D01*
X122039169Y-193854486D01*
X121967400Y-193633604D01*
X121967398Y-193633601D01*
X121967398Y-193633599D01*
X121902212Y-193505666D01*
X121861961Y-193426669D01*
X121725449Y-193238776D01*
X121561224Y-193074551D01*
X121373331Y-192938039D01*
X121362658Y-192932601D01*
X121166400Y-192832601D01*
X120945514Y-192760831D01*
X120716129Y-192724500D01*
X120716124Y-192724500D01*
X120483876Y-192724500D01*
X120483871Y-192724500D01*
X120254485Y-192760831D01*
X120033599Y-192832601D01*
X119826668Y-192938039D01*
X119638773Y-193074553D01*
X119474553Y-193238773D01*
X119338039Y-193426668D01*
X119232601Y-193633599D01*
X119160831Y-193854485D01*
X119124500Y-194083870D01*
X117075500Y-194083870D01*
X117055007Y-193954485D01*
X117039169Y-193854486D01*
X116967400Y-193633604D01*
X116967398Y-193633601D01*
X116967398Y-193633599D01*
X116902212Y-193505666D01*
X116861961Y-193426669D01*
X116725449Y-193238776D01*
X116561224Y-193074551D01*
X116373331Y-192938039D01*
X116362658Y-192932601D01*
X116166400Y-192832601D01*
X115945514Y-192760831D01*
X115716129Y-192724500D01*
X115716124Y-192724500D01*
X115483876Y-192724500D01*
X115483871Y-192724500D01*
X115479015Y-192724882D01*
X115478879Y-192723156D01*
X115416998Y-192715132D01*
X115379262Y-192689316D01*
X114696818Y-192006872D01*
X114682114Y-191979944D01*
X114665522Y-191954126D01*
X114664630Y-191947925D01*
X114663333Y-191945549D01*
X114660499Y-191919191D01*
X114660499Y-191852135D01*
X127099500Y-191852135D01*
X127099500Y-193147870D01*
X127099501Y-193147876D01*
X127105908Y-193207483D01*
X127156202Y-193342328D01*
X127156206Y-193342335D01*
X127242452Y-193457544D01*
X127242455Y-193457547D01*
X127357664Y-193543793D01*
X127357671Y-193543797D01*
X127492517Y-193594091D01*
X127492516Y-193594091D01*
X127499444Y-193594835D01*
X127552127Y-193600500D01*
X128847872Y-193600499D01*
X128907483Y-193594091D01*
X129042331Y-193543796D01*
X129157546Y-193457546D01*
X129243796Y-193342331D01*
X129294091Y-193207483D01*
X129300500Y-193147873D01*
X129300499Y-191852128D01*
X129294091Y-191792517D01*
X129243796Y-191657669D01*
X129243795Y-191657668D01*
X129243793Y-191657664D01*
X129157547Y-191542455D01*
X129157544Y-191542452D01*
X129042335Y-191456206D01*
X129042328Y-191456202D01*
X128907482Y-191405908D01*
X128907483Y-191405908D01*
X128847883Y-191399501D01*
X128847881Y-191399500D01*
X128847873Y-191399500D01*
X128847864Y-191399500D01*
X127552129Y-191399500D01*
X127552123Y-191399501D01*
X127492516Y-191405908D01*
X127357671Y-191456202D01*
X127357664Y-191456206D01*
X127242455Y-191542452D01*
X127242452Y-191542455D01*
X127156206Y-191657664D01*
X127156202Y-191657671D01*
X127105908Y-191792517D01*
X127099501Y-191852116D01*
X127099501Y-191852123D01*
X127099500Y-191852135D01*
X114660499Y-191852135D01*
X114660499Y-191274998D01*
X114660498Y-191274981D01*
X114649999Y-191172203D01*
X114649998Y-191172200D01*
X114594814Y-191005666D01*
X114502712Y-190856344D01*
X114378656Y-190732288D01*
X114229334Y-190640186D01*
X114062797Y-190585001D01*
X114062795Y-190585000D01*
X113960010Y-190574500D01*
X113359998Y-190574500D01*
X113359980Y-190574501D01*
X113257203Y-190585000D01*
X113257200Y-190585001D01*
X113090668Y-190640185D01*
X113090663Y-190640187D01*
X112941342Y-190732289D01*
X112817289Y-190856342D01*
X112725187Y-191005663D01*
X112725186Y-191005666D01*
X112670001Y-191172203D01*
X112670001Y-191172204D01*
X112670000Y-191172204D01*
X112659500Y-191274983D01*
X86700500Y-191274983D01*
X86700500Y-186729778D01*
X108689500Y-186729778D01*
X108689500Y-186950221D01*
X108723985Y-187167952D01*
X108792103Y-187377603D01*
X108792104Y-187377606D01*
X108860122Y-187511096D01*
X108879690Y-187549500D01*
X108892187Y-187574025D01*
X109021752Y-187752358D01*
X109021756Y-187752363D01*
X109177636Y-187908243D01*
X109177641Y-187908247D01*
X109333045Y-188021153D01*
X109355978Y-188037815D01*
X109484375Y-188103237D01*
X109552393Y-188137895D01*
X109552396Y-188137896D01*
X109657221Y-188171955D01*
X109762049Y-188206015D01*
X109979778Y-188240500D01*
X109979779Y-188240500D01*
X110200221Y-188240500D01*
X110200222Y-188240500D01*
X110417951Y-188206015D01*
X110627606Y-188137895D01*
X110824022Y-188037815D01*
X111002365Y-187908242D01*
X111158242Y-187752365D01*
X111287815Y-187574022D01*
X111387895Y-187377606D01*
X111456015Y-187167951D01*
X111490500Y-186950222D01*
X111490500Y-186729778D01*
X111456015Y-186512049D01*
X111387895Y-186302394D01*
X111387895Y-186302393D01*
X111353237Y-186234375D01*
X111287815Y-186105978D01*
X111271260Y-186083192D01*
X111158247Y-185927641D01*
X111158243Y-185927636D01*
X111002363Y-185771756D01*
X111002358Y-185771752D01*
X110824025Y-185642187D01*
X110824024Y-185642186D01*
X110824022Y-185642185D01*
X110761096Y-185610122D01*
X110627606Y-185542104D01*
X110627603Y-185542103D01*
X110417952Y-185473985D01*
X110309086Y-185456742D01*
X110200222Y-185439500D01*
X109979778Y-185439500D01*
X109907201Y-185450995D01*
X109762047Y-185473985D01*
X109552396Y-185542103D01*
X109552393Y-185542104D01*
X109355974Y-185642187D01*
X109177641Y-185771752D01*
X109177636Y-185771756D01*
X109021756Y-185927636D01*
X109021752Y-185927641D01*
X108892187Y-186105974D01*
X108792104Y-186302393D01*
X108792103Y-186302396D01*
X108723985Y-186512047D01*
X108689500Y-186729778D01*
X86700500Y-186729778D01*
X86700500Y-182902135D01*
X94874500Y-182902135D01*
X94874500Y-184197870D01*
X94874501Y-184197876D01*
X94880908Y-184257483D01*
X94931202Y-184392328D01*
X94931206Y-184392335D01*
X95017452Y-184507544D01*
X95017455Y-184507547D01*
X95132664Y-184593793D01*
X95132671Y-184593797D01*
X95267517Y-184644091D01*
X95267516Y-184644091D01*
X95274444Y-184644835D01*
X95327127Y-184650500D01*
X96622872Y-184650499D01*
X96682483Y-184644091D01*
X96817331Y-184593796D01*
X96932546Y-184507546D01*
X97018796Y-184392331D01*
X97069091Y-184257483D01*
X97075500Y-184197873D01*
X97075499Y-182902128D01*
X97069091Y-182842517D01*
X97038089Y-182759397D01*
X97018797Y-182707671D01*
X97018793Y-182707664D01*
X96932547Y-182592455D01*
X96932544Y-182592452D01*
X96817335Y-182506206D01*
X96817328Y-182506202D01*
X96682482Y-182455908D01*
X96682483Y-182455908D01*
X96622883Y-182449501D01*
X96622881Y-182449500D01*
X96622873Y-182449500D01*
X96622864Y-182449500D01*
X95327129Y-182449500D01*
X95327123Y-182449501D01*
X95267516Y-182455908D01*
X95132671Y-182506202D01*
X95132664Y-182506206D01*
X95017455Y-182592452D01*
X95017452Y-182592455D01*
X94931206Y-182707664D01*
X94931202Y-182707671D01*
X94880908Y-182842517D01*
X94874501Y-182902116D01*
X94874501Y-182902123D01*
X94874500Y-182902135D01*
X86700500Y-182902135D01*
X86700500Y-181971153D01*
X98499500Y-181971153D01*
X98499500Y-182128846D01*
X98530261Y-182283489D01*
X98530264Y-182283501D01*
X98590602Y-182429172D01*
X98590609Y-182429185D01*
X98678210Y-182560288D01*
X98678213Y-182560292D01*
X98789707Y-182671786D01*
X98789711Y-182671789D01*
X98920814Y-182759390D01*
X98920827Y-182759397D01*
X99066498Y-182819735D01*
X99066503Y-182819737D01*
X99221153Y-182850499D01*
X99221156Y-182850500D01*
X99221158Y-182850500D01*
X99378844Y-182850500D01*
X99378845Y-182850499D01*
X99533497Y-182819737D01*
X99679179Y-182759394D01*
X99810289Y-182671789D01*
X99921789Y-182560289D01*
X100009394Y-182429179D01*
X100069737Y-182283497D01*
X100095495Y-182154004D01*
X100127880Y-182092093D01*
X100129375Y-182090570D01*
X107305277Y-174914669D01*
X107376465Y-174808127D01*
X107425501Y-174689743D01*
X107450500Y-174564069D01*
X107450500Y-174435931D01*
X107450500Y-153178269D01*
X107470185Y-153111230D01*
X107522989Y-153065475D01*
X107592147Y-153055531D01*
X107655703Y-153084556D01*
X107674292Y-153105626D01*
X107674347Y-153105581D01*
X107675609Y-153107119D01*
X107677603Y-153109379D01*
X107678212Y-153110291D01*
X107789707Y-153221786D01*
X107789711Y-153221789D01*
X107920814Y-153309390D01*
X107920827Y-153309397D01*
X108008230Y-153345599D01*
X108066503Y-153369737D01*
X108133581Y-153383079D01*
X108150337Y-153391844D01*
X108168816Y-153395864D01*
X108193852Y-153414606D01*
X108195490Y-153415463D01*
X108197070Y-153417015D01*
X108213181Y-153433126D01*
X108246666Y-153494449D01*
X108249500Y-153520807D01*
X108249500Y-157295064D01*
X108229815Y-157362103D01*
X108228603Y-157363954D01*
X108190608Y-157420817D01*
X108190602Y-157420828D01*
X108130264Y-157566498D01*
X108130261Y-157566510D01*
X108099500Y-157721153D01*
X108099500Y-157878846D01*
X108130261Y-158033489D01*
X108130264Y-158033501D01*
X108190602Y-158179172D01*
X108190609Y-158179185D01*
X108278210Y-158310288D01*
X108278213Y-158310292D01*
X108389707Y-158421786D01*
X108389711Y-158421789D01*
X108520814Y-158509390D01*
X108520827Y-158509397D01*
X108666498Y-158569735D01*
X108666503Y-158569737D01*
X108821153Y-158600499D01*
X108821156Y-158600500D01*
X108821158Y-158600500D01*
X108978844Y-158600500D01*
X108978845Y-158600499D01*
X109133497Y-158569737D01*
X109279179Y-158509394D01*
X109410289Y-158421789D01*
X109521789Y-158310289D01*
X109609394Y-158179179D01*
X109669737Y-158033497D01*
X109700500Y-157878842D01*
X109700500Y-157721158D01*
X109700500Y-157721155D01*
X109700499Y-157721153D01*
X109669738Y-157566510D01*
X109669737Y-157566503D01*
X109609394Y-157420821D01*
X109571396Y-157363953D01*
X109550520Y-157297276D01*
X109550500Y-157295064D01*
X109550500Y-153135928D01*
X109525502Y-153010261D01*
X109525501Y-153010260D01*
X109525501Y-153010256D01*
X109476465Y-152891873D01*
X109476464Y-152891872D01*
X109476461Y-152891866D01*
X109405277Y-152785332D01*
X109405271Y-152785326D01*
X109314669Y-152694724D01*
X109117015Y-152497070D01*
X109083530Y-152435747D01*
X109083095Y-152433660D01*
X109069737Y-152366503D01*
X109045599Y-152308230D01*
X109009397Y-152220827D01*
X109009390Y-152220814D01*
X108921789Y-152089711D01*
X108921786Y-152089707D01*
X108810292Y-151978213D01*
X108810288Y-151978210D01*
X108679185Y-151890609D01*
X108679172Y-151890602D01*
X108533501Y-151830264D01*
X108533489Y-151830261D01*
X108378845Y-151799500D01*
X108378842Y-151799500D01*
X108221158Y-151799500D01*
X108221155Y-151799500D01*
X108066510Y-151830261D01*
X108066498Y-151830264D01*
X107920827Y-151890602D01*
X107920814Y-151890609D01*
X107789711Y-151978210D01*
X107789707Y-151978213D01*
X107678213Y-152089707D01*
X107678206Y-152089716D01*
X107677597Y-152090628D01*
X107677155Y-152090997D01*
X107674347Y-152094419D01*
X107673697Y-152093886D01*
X107623982Y-152135429D01*
X107554656Y-152144132D01*
X107491631Y-152113973D01*
X107454916Y-152054527D01*
X107450500Y-152021730D01*
X107450500Y-143784600D01*
X107459205Y-143738958D01*
X107464061Y-143726690D01*
X107476465Y-143708127D01*
X107525501Y-143589744D01*
X107530608Y-143564069D01*
X107550500Y-143464069D01*
X107550500Y-137304935D01*
X107570185Y-137237896D01*
X107571366Y-137236090D01*
X107609394Y-137179179D01*
X107669737Y-137033497D01*
X107700500Y-136878842D01*
X107700500Y-136721158D01*
X107700500Y-136721155D01*
X107700499Y-136721153D01*
X107669738Y-136566510D01*
X107669737Y-136566503D01*
X107614734Y-136433713D01*
X107609397Y-136420827D01*
X107609390Y-136420814D01*
X107521789Y-136289711D01*
X107521786Y-136289707D01*
X107410292Y-136178213D01*
X107410288Y-136178210D01*
X107279185Y-136090609D01*
X107279172Y-136090602D01*
X107133501Y-136030264D01*
X107133489Y-136030261D01*
X106978845Y-135999500D01*
X106978842Y-135999500D01*
X106821158Y-135999500D01*
X106821155Y-135999500D01*
X106666510Y-136030261D01*
X106666498Y-136030264D01*
X106520827Y-136090602D01*
X106520814Y-136090609D01*
X106389711Y-136178210D01*
X106389707Y-136178213D01*
X106278213Y-136289707D01*
X106278210Y-136289711D01*
X106190609Y-136420814D01*
X106190602Y-136420827D01*
X106130264Y-136566498D01*
X106130261Y-136566510D01*
X106099500Y-136721153D01*
X106099500Y-136878846D01*
X106130261Y-137033489D01*
X106130264Y-137033501D01*
X106190602Y-137179172D01*
X106190606Y-137179179D01*
X106228602Y-137236044D01*
X106249480Y-137302721D01*
X106249500Y-137304935D01*
X106249500Y-143115398D01*
X106229815Y-143182437D01*
X106228604Y-143184286D01*
X106223534Y-143191872D01*
X106174499Y-143310255D01*
X106174497Y-143310261D01*
X106149500Y-143435928D01*
X106149500Y-174179191D01*
X106129815Y-174246230D01*
X106113181Y-174266872D01*
X99134653Y-181245399D01*
X99073330Y-181278884D01*
X99071167Y-181279335D01*
X99066504Y-181280262D01*
X99066500Y-181280263D01*
X98920827Y-181340602D01*
X98920814Y-181340609D01*
X98789711Y-181428210D01*
X98789707Y-181428213D01*
X98678213Y-181539707D01*
X98678210Y-181539711D01*
X98590609Y-181670814D01*
X98590602Y-181670827D01*
X98530264Y-181816498D01*
X98530261Y-181816510D01*
X98499500Y-181971153D01*
X86700500Y-181971153D01*
X86700500Y-171949778D01*
X97699500Y-171949778D01*
X97699500Y-172170221D01*
X97733985Y-172387952D01*
X97802103Y-172597603D01*
X97802104Y-172597606D01*
X97902187Y-172794025D01*
X98031752Y-172972358D01*
X98031756Y-172972363D01*
X98187636Y-173128243D01*
X98187641Y-173128247D01*
X98343192Y-173241260D01*
X98365978Y-173257815D01*
X98494375Y-173323237D01*
X98562393Y-173357895D01*
X98562396Y-173357896D01*
X98667221Y-173391955D01*
X98772049Y-173426015D01*
X98989778Y-173460500D01*
X98989779Y-173460500D01*
X99210221Y-173460500D01*
X99210222Y-173460500D01*
X99427951Y-173426015D01*
X99637606Y-173357895D01*
X99834022Y-173257815D01*
X100012365Y-173128242D01*
X100168242Y-172972365D01*
X100297815Y-172794022D01*
X100397895Y-172597606D01*
X100466015Y-172387951D01*
X100500500Y-172170222D01*
X100500500Y-171949778D01*
X100466015Y-171732049D01*
X100397895Y-171522394D01*
X100397895Y-171522393D01*
X100363237Y-171454375D01*
X100297815Y-171325978D01*
X100281260Y-171303192D01*
X100168247Y-171147641D01*
X100168243Y-171147636D01*
X100012363Y-170991756D01*
X100012358Y-170991752D01*
X99834025Y-170862187D01*
X99834024Y-170862186D01*
X99834022Y-170862185D01*
X99771096Y-170830122D01*
X99637606Y-170762104D01*
X99637603Y-170762103D01*
X99427952Y-170693985D01*
X99319086Y-170676742D01*
X99210222Y-170659500D01*
X98989778Y-170659500D01*
X98917201Y-170670995D01*
X98772047Y-170693985D01*
X98562396Y-170762103D01*
X98562393Y-170762104D01*
X98365974Y-170862187D01*
X98187641Y-170991752D01*
X98187636Y-170991756D01*
X98031756Y-171147636D01*
X98031752Y-171147641D01*
X97902187Y-171325974D01*
X97802104Y-171522393D01*
X97802103Y-171522396D01*
X97733985Y-171732047D01*
X97699500Y-171949778D01*
X86700500Y-171949778D01*
X86700500Y-168019983D01*
X89874500Y-168019983D01*
X89874500Y-168620001D01*
X89874501Y-168620019D01*
X89885000Y-168722796D01*
X89885001Y-168722799D01*
X89940185Y-168889331D01*
X89940186Y-168889334D01*
X90032288Y-169038656D01*
X90156344Y-169162712D01*
X90305666Y-169254814D01*
X90472203Y-169309999D01*
X90574991Y-169320500D01*
X91625008Y-169320499D01*
X91625016Y-169320498D01*
X91625019Y-169320498D01*
X91681302Y-169314748D01*
X91727797Y-169309999D01*
X91894334Y-169254814D01*
X92034905Y-169168109D01*
X92102296Y-169149670D01*
X92165094Y-169168109D01*
X92305666Y-169254814D01*
X92472203Y-169309999D01*
X92574991Y-169320500D01*
X93625008Y-169320499D01*
X93625016Y-169320498D01*
X93625019Y-169320498D01*
X93681302Y-169314748D01*
X93727797Y-169309999D01*
X93894334Y-169254814D01*
X94043656Y-169162712D01*
X94167712Y-169038656D01*
X94259814Y-168889334D01*
X94314999Y-168722797D01*
X94325500Y-168620009D01*
X94325499Y-168019992D01*
X94314999Y-167917203D01*
X94259814Y-167750666D01*
X94167712Y-167601344D01*
X94043656Y-167477288D01*
X93894334Y-167385186D01*
X93727797Y-167330001D01*
X93727795Y-167330000D01*
X93639693Y-167321000D01*
X93575002Y-167294604D01*
X93534850Y-167237423D01*
X93529823Y-167178244D01*
X93555500Y-167016129D01*
X93555500Y-166783870D01*
X93525090Y-166591873D01*
X93519169Y-166554486D01*
X93447400Y-166333604D01*
X93447398Y-166333601D01*
X93447398Y-166333599D01*
X93362446Y-166166873D01*
X93341961Y-166126669D01*
X93205449Y-165938776D01*
X93041224Y-165774551D01*
X92853331Y-165638039D01*
X92646400Y-165532601D01*
X92425514Y-165460831D01*
X92196129Y-165424500D01*
X92196124Y-165424500D01*
X91963876Y-165424500D01*
X91963871Y-165424500D01*
X91734485Y-165460831D01*
X91513599Y-165532601D01*
X91306668Y-165638039D01*
X91118773Y-165774553D01*
X90954553Y-165938773D01*
X90818039Y-166126668D01*
X90712601Y-166333599D01*
X90640831Y-166554485D01*
X90604500Y-166783870D01*
X90604500Y-167016129D01*
X90630813Y-167182266D01*
X90621858Y-167251560D01*
X90576862Y-167305012D01*
X90520942Y-167325022D01*
X90472202Y-167330001D01*
X90472200Y-167330001D01*
X90305668Y-167385185D01*
X90305663Y-167385187D01*
X90156342Y-167477289D01*
X90032289Y-167601342D01*
X89940187Y-167750663D01*
X89940186Y-167750666D01*
X89885001Y-167917203D01*
X89885001Y-167917204D01*
X89885000Y-167917204D01*
X89874500Y-168019983D01*
X86700500Y-168019983D01*
X86700500Y-161783870D01*
X90604500Y-161783870D01*
X90604500Y-162016129D01*
X90640831Y-162245514D01*
X90712601Y-162466400D01*
X90778644Y-162596014D01*
X90818039Y-162673331D01*
X90954551Y-162861224D01*
X91118776Y-163025449D01*
X91306669Y-163161961D01*
X91404112Y-163211611D01*
X91513599Y-163267398D01*
X91513601Y-163267398D01*
X91513604Y-163267400D01*
X91734486Y-163339169D01*
X91852668Y-163357886D01*
X91963871Y-163375500D01*
X91963876Y-163375500D01*
X92196129Y-163375500D01*
X92297502Y-163359443D01*
X92425514Y-163339169D01*
X92646396Y-163267400D01*
X92853331Y-163161961D01*
X93041224Y-163025449D01*
X93205449Y-162861224D01*
X93341961Y-162673331D01*
X93447400Y-162466396D01*
X93519169Y-162245514D01*
X93539443Y-162117502D01*
X93555500Y-162016129D01*
X93555500Y-161783870D01*
X93536232Y-161662222D01*
X93519169Y-161554486D01*
X93447400Y-161333604D01*
X93447398Y-161333601D01*
X93447398Y-161333599D01*
X93341960Y-161126668D01*
X93205449Y-160938776D01*
X93041224Y-160774551D01*
X92853331Y-160638039D01*
X92819531Y-160620817D01*
X92646400Y-160532601D01*
X92425514Y-160460831D01*
X92196129Y-160424500D01*
X92196124Y-160424500D01*
X91963876Y-160424500D01*
X91963871Y-160424500D01*
X91734485Y-160460831D01*
X91513599Y-160532601D01*
X91306668Y-160638039D01*
X91118773Y-160774553D01*
X90954553Y-160938773D01*
X90818039Y-161126668D01*
X90712601Y-161333599D01*
X90640831Y-161554485D01*
X90604500Y-161783870D01*
X86700500Y-161783870D01*
X86700500Y-153674234D01*
X93254500Y-153674234D01*
X93254500Y-153825765D01*
X93293719Y-153972136D01*
X93331602Y-154037750D01*
X93369485Y-154103365D01*
X93476635Y-154210515D01*
X93607865Y-154286281D01*
X93754234Y-154325500D01*
X93754236Y-154325500D01*
X93905764Y-154325500D01*
X93905766Y-154325500D01*
X94052135Y-154286281D01*
X94183365Y-154210515D01*
X94290515Y-154103365D01*
X94366281Y-153972135D01*
X94405500Y-153825766D01*
X94405500Y-153674234D01*
X94366281Y-153527865D01*
X94290515Y-153396635D01*
X94183365Y-153289485D01*
X94066113Y-153221789D01*
X94052136Y-153213719D01*
X93978950Y-153194109D01*
X93905766Y-153174500D01*
X93754234Y-153174500D01*
X93607863Y-153213719D01*
X93476635Y-153289485D01*
X93476632Y-153289487D01*
X93369487Y-153396632D01*
X93369485Y-153396635D01*
X93293719Y-153527863D01*
X93254500Y-153674234D01*
X86700500Y-153674234D01*
X86700500Y-147894234D01*
X93254500Y-147894234D01*
X93254500Y-148045766D01*
X93283914Y-148155542D01*
X93293719Y-148192136D01*
X93330928Y-148256582D01*
X93369485Y-148323365D01*
X93476635Y-148430515D01*
X93607865Y-148506281D01*
X93754234Y-148545500D01*
X93754236Y-148545500D01*
X93905764Y-148545500D01*
X93905766Y-148545500D01*
X94052135Y-148506281D01*
X94183365Y-148430515D01*
X94290515Y-148323365D01*
X94366281Y-148192135D01*
X94405500Y-148045766D01*
X94405500Y-147894234D01*
X94366281Y-147747865D01*
X94290515Y-147616635D01*
X94183365Y-147509485D01*
X94117750Y-147471602D01*
X94052136Y-147433719D01*
X93978950Y-147414109D01*
X93905766Y-147394500D01*
X93754234Y-147394500D01*
X93607863Y-147433719D01*
X93476635Y-147509485D01*
X93476632Y-147509487D01*
X93369487Y-147616632D01*
X93369485Y-147616635D01*
X93293719Y-147747863D01*
X93254500Y-147894234D01*
X86700500Y-147894234D01*
X86700500Y-118339778D01*
X90389500Y-118339778D01*
X90389500Y-118560221D01*
X90423985Y-118777952D01*
X90492103Y-118987603D01*
X90492104Y-118987606D01*
X90526656Y-119055416D01*
X90578758Y-119157671D01*
X90592187Y-119184025D01*
X90721752Y-119362358D01*
X90721756Y-119362363D01*
X90877636Y-119518243D01*
X90877641Y-119518247D01*
X90976004Y-119589711D01*
X91055978Y-119647815D01*
X91138195Y-119689707D01*
X91252393Y-119747895D01*
X91252396Y-119747896D01*
X91341445Y-119776829D01*
X91462049Y-119816015D01*
X91679778Y-119850500D01*
X91679779Y-119850500D01*
X91900221Y-119850500D01*
X91900222Y-119850500D01*
X92117951Y-119816015D01*
X92327606Y-119747895D01*
X92524022Y-119647815D01*
X92702365Y-119518242D01*
X92858242Y-119362365D01*
X92987815Y-119184022D01*
X93087895Y-118987606D01*
X93156015Y-118777951D01*
X93190500Y-118560222D01*
X93190500Y-118339778D01*
X93156015Y-118122049D01*
X93121955Y-118017221D01*
X93087896Y-117912396D01*
X93087895Y-117912393D01*
X93037343Y-117813181D01*
X92987815Y-117715978D01*
X92872799Y-117557671D01*
X92858247Y-117537641D01*
X92858243Y-117537636D01*
X92702363Y-117381756D01*
X92702358Y-117381752D01*
X92524025Y-117252187D01*
X92524024Y-117252186D01*
X92524022Y-117252185D01*
X92461096Y-117220122D01*
X92327606Y-117152104D01*
X92327603Y-117152103D01*
X92117952Y-117083985D01*
X91971611Y-117060807D01*
X91900222Y-117049500D01*
X91679778Y-117049500D01*
X91608389Y-117060807D01*
X91462047Y-117083985D01*
X91252396Y-117152103D01*
X91252393Y-117152104D01*
X91055974Y-117252187D01*
X90877641Y-117381752D01*
X90877636Y-117381756D01*
X90721756Y-117537636D01*
X90721752Y-117537641D01*
X90592187Y-117715974D01*
X90492104Y-117912393D01*
X90492103Y-117912396D01*
X90423985Y-118122047D01*
X90389500Y-118339778D01*
X86700500Y-118339778D01*
X86700500Y-110833870D01*
X90754500Y-110833870D01*
X90754500Y-111066129D01*
X90790831Y-111295514D01*
X90862601Y-111516400D01*
X90950909Y-111689711D01*
X90968039Y-111723331D01*
X91104551Y-111911224D01*
X91268776Y-112075449D01*
X91456669Y-112211961D01*
X91550328Y-112259683D01*
X91663599Y-112317398D01*
X91663601Y-112317398D01*
X91663604Y-112317400D01*
X91884486Y-112389169D01*
X92002668Y-112407886D01*
X92113871Y-112425500D01*
X92113876Y-112425500D01*
X92346129Y-112425500D01*
X92450392Y-112408985D01*
X92575514Y-112389169D01*
X92634155Y-112370114D01*
X92703994Y-112368120D01*
X92763827Y-112404200D01*
X92790177Y-112449040D01*
X92800835Y-112481204D01*
X92805185Y-112494331D01*
X92805187Y-112494336D01*
X92821547Y-112520859D01*
X92897288Y-112643656D01*
X93021344Y-112767712D01*
X93170666Y-112859814D01*
X93337203Y-112914999D01*
X93439991Y-112925500D01*
X93939191Y-112925499D01*
X94006230Y-112945183D01*
X94026872Y-112961818D01*
X94474966Y-113409911D01*
X94879724Y-113814669D01*
X94943897Y-113878842D01*
X94970332Y-113905277D01*
X95076866Y-113976461D01*
X95076872Y-113976464D01*
X95076873Y-113976465D01*
X95195256Y-114025501D01*
X95195260Y-114025501D01*
X95195261Y-114025502D01*
X95320928Y-114050500D01*
X95320931Y-114050500D01*
X99926139Y-114050500D01*
X99993178Y-114070185D01*
X100030637Y-114110418D01*
X100030888Y-114110231D01*
X100032635Y-114112565D01*
X100034973Y-114115076D01*
X100036207Y-114117336D01*
X100122452Y-114232544D01*
X100122455Y-114232547D01*
X100237664Y-114318793D01*
X100237671Y-114318797D01*
X100372517Y-114369091D01*
X100372516Y-114369091D01*
X100379444Y-114369835D01*
X100432127Y-114375500D01*
X101327872Y-114375499D01*
X101387483Y-114369091D01*
X101522331Y-114318796D01*
X101605690Y-114256393D01*
X101630450Y-114247157D01*
X101653642Y-114234494D01*
X101662670Y-114235139D01*
X101671152Y-114231976D01*
X101696974Y-114237592D01*
X101723333Y-114239478D01*
X101735047Y-114245874D01*
X101739425Y-114246827D01*
X101754310Y-114256393D01*
X101779810Y-114275482D01*
X101821682Y-114331415D01*
X101829500Y-114374749D01*
X101829500Y-119244070D01*
X101846645Y-119330259D01*
X101846646Y-119330263D01*
X101852292Y-119358652D01*
X101853258Y-119363507D01*
X101847029Y-119433099D01*
X101815330Y-119473903D01*
X101804165Y-119488275D01*
X101800532Y-119490798D01*
X101669707Y-119578213D01*
X101632681Y-119615240D01*
X101571358Y-119648725D01*
X101501666Y-119643741D01*
X101457319Y-119615240D01*
X101420292Y-119578213D01*
X101420288Y-119578210D01*
X101289185Y-119490609D01*
X101289172Y-119490602D01*
X101143501Y-119430264D01*
X101143489Y-119430261D01*
X100988845Y-119399500D01*
X100988842Y-119399500D01*
X100831158Y-119399500D01*
X100831155Y-119399500D01*
X100676510Y-119430261D01*
X100676498Y-119430264D01*
X100530827Y-119490602D01*
X100530814Y-119490609D01*
X100399711Y-119578210D01*
X100399707Y-119578213D01*
X100288213Y-119689707D01*
X100288210Y-119689711D01*
X100200609Y-119820814D01*
X100200602Y-119820827D01*
X100140264Y-119966498D01*
X100140261Y-119966510D01*
X100109500Y-120121153D01*
X100109500Y-120278846D01*
X100140261Y-120433489D01*
X100140264Y-120433501D01*
X100200602Y-120579172D01*
X100200606Y-120579179D01*
X100238602Y-120636044D01*
X100259480Y-120702721D01*
X100259500Y-120704935D01*
X100259500Y-132989846D01*
X100239815Y-133056885D01*
X100223181Y-133077527D01*
X98849511Y-134451196D01*
X98788188Y-134484681D01*
X98718496Y-134479697D01*
X98692939Y-134466617D01*
X98579185Y-134390609D01*
X98579172Y-134390602D01*
X98433501Y-134330264D01*
X98433489Y-134330261D01*
X98278845Y-134299500D01*
X98278842Y-134299500D01*
X98121158Y-134299500D01*
X98121155Y-134299500D01*
X97966510Y-134330261D01*
X97966498Y-134330264D01*
X97820827Y-134390602D01*
X97820820Y-134390606D01*
X97791928Y-134409911D01*
X97763955Y-134428602D01*
X97697279Y-134449480D01*
X97695065Y-134449500D01*
X95241325Y-134449500D01*
X95174286Y-134429815D01*
X95128531Y-134377011D01*
X95118587Y-134307853D01*
X95118852Y-134306102D01*
X95141253Y-134164672D01*
X95150500Y-134106287D01*
X95150500Y-133893713D01*
X95117246Y-133683757D01*
X95051557Y-133481588D01*
X94955051Y-133292184D01*
X94955049Y-133292181D01*
X94955048Y-133292179D01*
X94830109Y-133120213D01*
X94679786Y-132969890D01*
X94507820Y-132844951D01*
X94318414Y-132748444D01*
X94318413Y-132748443D01*
X94318412Y-132748443D01*
X94116243Y-132682754D01*
X94116241Y-132682753D01*
X94116240Y-132682753D01*
X93954957Y-132657208D01*
X93906287Y-132649500D01*
X93693713Y-132649500D01*
X93645042Y-132657208D01*
X93483760Y-132682753D01*
X93281585Y-132748444D01*
X93092179Y-132844951D01*
X92920213Y-132969890D01*
X92769892Y-133120211D01*
X92768778Y-133121516D01*
X92768231Y-133121872D01*
X92766451Y-133123653D01*
X92766076Y-133123278D01*
X92710266Y-133159700D01*
X92640398Y-133160188D01*
X92581357Y-133122826D01*
X92551888Y-133059474D01*
X92550500Y-133040970D01*
X92550500Y-132920807D01*
X92570185Y-132853768D01*
X92586814Y-132833131D01*
X98202931Y-127217013D01*
X98264252Y-127183530D01*
X98266317Y-127183099D01*
X98333497Y-127169737D01*
X98479179Y-127109394D01*
X98610289Y-127021789D01*
X98721789Y-126910289D01*
X98809394Y-126779179D01*
X98869737Y-126633497D01*
X98900500Y-126478842D01*
X98900500Y-126321158D01*
X98900500Y-126321155D01*
X98900499Y-126321153D01*
X98869738Y-126166510D01*
X98869738Y-126166508D01*
X98869737Y-126166503D01*
X98869735Y-126166498D01*
X98809397Y-126020827D01*
X98809390Y-126020814D01*
X98721789Y-125889711D01*
X98721786Y-125889707D01*
X98610292Y-125778213D01*
X98610288Y-125778210D01*
X98479185Y-125690609D01*
X98479172Y-125690602D01*
X98333501Y-125630264D01*
X98333489Y-125630261D01*
X98178845Y-125599500D01*
X98178842Y-125599500D01*
X98021158Y-125599500D01*
X98021155Y-125599500D01*
X97866510Y-125630261D01*
X97866498Y-125630264D01*
X97720827Y-125690602D01*
X97720814Y-125690609D01*
X97589711Y-125778210D01*
X97589707Y-125778213D01*
X97478213Y-125889707D01*
X97478210Y-125889711D01*
X97390609Y-126020814D01*
X97390602Y-126020827D01*
X97330264Y-126166498D01*
X97330261Y-126166508D01*
X97316920Y-126233579D01*
X97284535Y-126295490D01*
X97282984Y-126297068D01*
X91394726Y-132185326D01*
X91340632Y-132266286D01*
X91340630Y-132266288D01*
X91323539Y-132291865D01*
X91323533Y-132291875D01*
X91274499Y-132410255D01*
X91274497Y-132410261D01*
X91249500Y-132535928D01*
X91249500Y-136064071D01*
X91254779Y-136090609D01*
X91272205Y-136178211D01*
X91274499Y-136189744D01*
X91274500Y-136189746D01*
X91323534Y-136308125D01*
X91394726Y-136414673D01*
X91394727Y-136414674D01*
X91760381Y-136780327D01*
X91787261Y-136820555D01*
X91823533Y-136908125D01*
X91894726Y-137014673D01*
X91985328Y-137105275D01*
X92075465Y-137165502D01*
X92075464Y-137165502D01*
X92091871Y-137176464D01*
X92091872Y-137176464D01*
X92091873Y-137176465D01*
X92210256Y-137225501D01*
X92210260Y-137225501D01*
X92210261Y-137225502D01*
X92335928Y-137250500D01*
X92335931Y-137250500D01*
X92464071Y-137250500D01*
X92545959Y-137234211D01*
X92615551Y-137240438D01*
X92670469Y-137282943D01*
X92769890Y-137419785D01*
X92769894Y-137419790D01*
X92920213Y-137570109D01*
X93092182Y-137695050D01*
X93100946Y-137699516D01*
X93151742Y-137747491D01*
X93168536Y-137815312D01*
X93145998Y-137881447D01*
X93100946Y-137920484D01*
X93092182Y-137924949D01*
X92920213Y-138049890D01*
X92769890Y-138200213D01*
X92644951Y-138372179D01*
X92548444Y-138561585D01*
X92482753Y-138763760D01*
X92471577Y-138834326D01*
X92449500Y-138973713D01*
X92449500Y-139186287D01*
X92459534Y-139249644D01*
X92478509Y-139369446D01*
X92482754Y-139396243D01*
X92534321Y-139554950D01*
X92548444Y-139598414D01*
X92644951Y-139787820D01*
X92769890Y-139959786D01*
X92883430Y-140073326D01*
X92916915Y-140134649D01*
X92911931Y-140204341D01*
X92870059Y-140260274D01*
X92839083Y-140277189D01*
X92707669Y-140326203D01*
X92707664Y-140326206D01*
X92592455Y-140412452D01*
X92592452Y-140412455D01*
X92506206Y-140527664D01*
X92506202Y-140527671D01*
X92455908Y-140662517D01*
X92449501Y-140722116D01*
X92449500Y-140722135D01*
X92449500Y-142517870D01*
X92449501Y-142517876D01*
X92455908Y-142577483D01*
X92506202Y-142712328D01*
X92506206Y-142712335D01*
X92592452Y-142827544D01*
X92592455Y-142827547D01*
X92707664Y-142913793D01*
X92707671Y-142913797D01*
X92842517Y-142964091D01*
X92842516Y-142964091D01*
X92849444Y-142964835D01*
X92902127Y-142970500D01*
X94697872Y-142970499D01*
X94757483Y-142964091D01*
X94892331Y-142913796D01*
X95007546Y-142827546D01*
X95093796Y-142712331D01*
X95144091Y-142577483D01*
X95150500Y-142517873D01*
X95150499Y-141240806D01*
X95170184Y-141173768D01*
X95186813Y-141153131D01*
X97137819Y-139202126D01*
X97199142Y-139168641D01*
X97268834Y-139173625D01*
X97324767Y-139215497D01*
X97349184Y-139280961D01*
X97349500Y-139289807D01*
X97349500Y-159395064D01*
X97329815Y-159462103D01*
X97328603Y-159463954D01*
X97290608Y-159520817D01*
X97290602Y-159520828D01*
X97230264Y-159666498D01*
X97230261Y-159666510D01*
X97199500Y-159821153D01*
X97199500Y-159978846D01*
X97230261Y-160133489D01*
X97230264Y-160133501D01*
X97290602Y-160279172D01*
X97290609Y-160279185D01*
X97378210Y-160410288D01*
X97378213Y-160410292D01*
X97489707Y-160521786D01*
X97489711Y-160521789D01*
X97620814Y-160609390D01*
X97620827Y-160609397D01*
X97766498Y-160669735D01*
X97766503Y-160669737D01*
X97921153Y-160700499D01*
X97921156Y-160700500D01*
X97921158Y-160700500D01*
X98078844Y-160700500D01*
X98078845Y-160700499D01*
X98233497Y-160669737D01*
X98379179Y-160609394D01*
X98510289Y-160521789D01*
X98621789Y-160410289D01*
X98709394Y-160279179D01*
X98769737Y-160133497D01*
X98800500Y-159978842D01*
X98800500Y-159821158D01*
X98800500Y-159821155D01*
X98800499Y-159821153D01*
X98769738Y-159666510D01*
X98769737Y-159666503D01*
X98709394Y-159520821D01*
X98671396Y-159463953D01*
X98650520Y-159397276D01*
X98650500Y-159395064D01*
X98650500Y-139420808D01*
X98670185Y-139353769D01*
X98686819Y-139333127D01*
X104554273Y-133465673D01*
X104554277Y-133465669D01*
X104625465Y-133359127D01*
X104674501Y-133240744D01*
X104678058Y-133222861D01*
X104699500Y-133115069D01*
X104699500Y-124971808D01*
X104719185Y-124904769D01*
X104735819Y-124884127D01*
X105536819Y-124083127D01*
X105598142Y-124049642D01*
X105667834Y-124054626D01*
X105723767Y-124096498D01*
X105748184Y-124161962D01*
X105748500Y-124170808D01*
X105748500Y-133080191D01*
X105728815Y-133147230D01*
X105712181Y-133167872D01*
X99694727Y-139185325D01*
X99694721Y-139185332D01*
X99638320Y-139269743D01*
X99638321Y-139269744D01*
X99623534Y-139291874D01*
X99574499Y-139410255D01*
X99574497Y-139410261D01*
X99549500Y-139535928D01*
X99549500Y-139535931D01*
X99549500Y-150063069D01*
X99549500Y-150063071D01*
X99549499Y-150063071D01*
X99574497Y-150188738D01*
X99574499Y-150188744D01*
X99623533Y-150307124D01*
X99623534Y-150307126D01*
X99623535Y-150307127D01*
X99628600Y-150314708D01*
X99649480Y-150381383D01*
X99649500Y-150383600D01*
X99649500Y-159979192D01*
X99629815Y-160046231D01*
X99613181Y-160066873D01*
X98194722Y-161485331D01*
X98194720Y-161485333D01*
X98178047Y-161510289D01*
X98164311Y-161530847D01*
X98148517Y-161554485D01*
X98123534Y-161591873D01*
X98074499Y-161710255D01*
X98074497Y-161710261D01*
X98049500Y-161835928D01*
X98049500Y-166464070D01*
X98063674Y-166535322D01*
X98063674Y-166535324D01*
X98074497Y-166589737D01*
X98074499Y-166589744D01*
X98119961Y-166699500D01*
X98123535Y-166708127D01*
X98194723Y-166814669D01*
X98260383Y-166880329D01*
X98287261Y-166920555D01*
X98323533Y-167008125D01*
X98347210Y-167043559D01*
X98394723Y-167114669D01*
X98460383Y-167180329D01*
X98487261Y-167220555D01*
X98523533Y-167308125D01*
X98594726Y-167414673D01*
X99185328Y-168005275D01*
X99281809Y-168069741D01*
X99284366Y-168071449D01*
X99291873Y-168076465D01*
X99410256Y-168125501D01*
X99410260Y-168125501D01*
X99410261Y-168125502D01*
X99535928Y-168150500D01*
X99535931Y-168150500D01*
X101795065Y-168150500D01*
X101862104Y-168170185D01*
X101863909Y-168171366D01*
X101920821Y-168209394D01*
X101920823Y-168209395D01*
X101920827Y-168209397D01*
X102066498Y-168269735D01*
X102066503Y-168269737D01*
X102221153Y-168300499D01*
X102221156Y-168300500D01*
X102221158Y-168300500D01*
X102378844Y-168300500D01*
X102378845Y-168300499D01*
X102533497Y-168269737D01*
X102679179Y-168209394D01*
X102810289Y-168121789D01*
X102921789Y-168010289D01*
X103009394Y-167879179D01*
X103069737Y-167733497D01*
X103100500Y-167578842D01*
X103100500Y-167421158D01*
X103100500Y-167421155D01*
X103100499Y-167421153D01*
X103093344Y-167385185D01*
X103069737Y-167266503D01*
X103069735Y-167266498D01*
X103009397Y-167120827D01*
X103009390Y-167120814D01*
X102921789Y-166989711D01*
X102921786Y-166989707D01*
X102810292Y-166878213D01*
X102810288Y-166878210D01*
X102679185Y-166790609D01*
X102679172Y-166790602D01*
X102533501Y-166730264D01*
X102533489Y-166730261D01*
X102378845Y-166699500D01*
X102378842Y-166699500D01*
X102221158Y-166699500D01*
X102221155Y-166699500D01*
X102066510Y-166730261D01*
X102066498Y-166730264D01*
X101920827Y-166790602D01*
X101920820Y-166790606D01*
X101891928Y-166809911D01*
X101863955Y-166828602D01*
X101797279Y-166849480D01*
X101795065Y-166849500D01*
X99920808Y-166849500D01*
X99891367Y-166840855D01*
X99861381Y-166834332D01*
X99856365Y-166830577D01*
X99853769Y-166829815D01*
X99833127Y-166813181D01*
X99739617Y-166719671D01*
X99712737Y-166679442D01*
X99676468Y-166591880D01*
X99676467Y-166591879D01*
X99676465Y-166591873D01*
X99638680Y-166535323D01*
X99638680Y-166535322D01*
X99605275Y-166485328D01*
X99539617Y-166419670D01*
X99537965Y-166417383D01*
X99536663Y-166416613D01*
X99530544Y-166407107D01*
X99516493Y-166387650D01*
X99514462Y-166383608D01*
X99476465Y-166291873D01*
X99448153Y-166249501D01*
X99405277Y-166185331D01*
X99386819Y-166166873D01*
X99353334Y-166105550D01*
X99350500Y-166079192D01*
X99350500Y-162220808D01*
X99370185Y-162153769D01*
X99386819Y-162133127D01*
X100805273Y-160714673D01*
X100805277Y-160714669D01*
X100876465Y-160608127D01*
X100923438Y-160494724D01*
X100925501Y-160489744D01*
X100925503Y-160489735D01*
X100950500Y-160364071D01*
X100950500Y-150034928D01*
X100925502Y-149909261D01*
X100925501Y-149909260D01*
X100925501Y-149909256D01*
X100894122Y-149833501D01*
X100876465Y-149790872D01*
X100871396Y-149783286D01*
X100850520Y-149716608D01*
X100850500Y-149714398D01*
X100850500Y-139920808D01*
X100870185Y-139853769D01*
X100886819Y-139833127D01*
X106904273Y-133815673D01*
X106904277Y-133815669D01*
X106975465Y-133709127D01*
X107024501Y-133590744D01*
X107027864Y-133573835D01*
X107032978Y-133548129D01*
X107032978Y-133548126D01*
X107049500Y-133465069D01*
X107049500Y-123821808D01*
X107069185Y-123754769D01*
X107085819Y-123734127D01*
X109337819Y-121482127D01*
X109399142Y-121448642D01*
X109468834Y-121453626D01*
X109524767Y-121495498D01*
X109549184Y-121560962D01*
X109549500Y-121569808D01*
X109549500Y-127543417D01*
X109569108Y-127641989D01*
X109571877Y-127655909D01*
X109574499Y-127669090D01*
X109623535Y-127787473D01*
X109658379Y-127839621D01*
X109662595Y-127848955D01*
X109666066Y-127873824D01*
X109673569Y-127897788D01*
X109670812Y-127907834D01*
X109672253Y-127918154D01*
X109661727Y-127940952D01*
X109655084Y-127965168D01*
X109652692Y-127968890D01*
X109623534Y-128012528D01*
X109574499Y-128130909D01*
X109574497Y-128130915D01*
X109549500Y-128256582D01*
X109549500Y-128256585D01*
X109549500Y-128943415D01*
X109549500Y-128943417D01*
X109549499Y-128943417D01*
X109574497Y-129069084D01*
X109574499Y-129069090D01*
X109623534Y-129187471D01*
X109652692Y-129231110D01*
X109673569Y-129297788D01*
X109655084Y-129365168D01*
X109652692Y-129368889D01*
X109628379Y-129405277D01*
X109623535Y-129412525D01*
X109574499Y-129530909D01*
X109574497Y-129530915D01*
X109549500Y-129656582D01*
X109549500Y-130343416D01*
X109560187Y-130397139D01*
X109560187Y-130397141D01*
X109574497Y-130469082D01*
X109574499Y-130469090D01*
X109623534Y-130587471D01*
X109652692Y-130631110D01*
X109658664Y-130650186D01*
X109669171Y-130667194D01*
X109668891Y-130682848D01*
X109673569Y-130697788D01*
X109668280Y-130717064D01*
X109667924Y-130737052D01*
X109655905Y-130762172D01*
X109655084Y-130765168D01*
X109652692Y-130768890D01*
X109625565Y-130809489D01*
X109625564Y-130809491D01*
X109623533Y-130812529D01*
X109623531Y-130812533D01*
X109574500Y-130930905D01*
X109574497Y-130930915D01*
X109549500Y-131056582D01*
X109549500Y-131056585D01*
X109549500Y-151664069D01*
X109549500Y-151664071D01*
X109549499Y-151664071D01*
X109574497Y-151789738D01*
X109574499Y-151789744D01*
X109616277Y-151890606D01*
X109623535Y-151908127D01*
X109678645Y-151990606D01*
X109694726Y-152014673D01*
X109694727Y-152014674D01*
X111113181Y-153433127D01*
X111146666Y-153494450D01*
X111149500Y-153520808D01*
X111149500Y-185164070D01*
X111172116Y-185277762D01*
X111172116Y-185277767D01*
X111172117Y-185277767D01*
X111174499Y-185289746D01*
X111223533Y-185408125D01*
X111294726Y-185514673D01*
X114485326Y-188705273D01*
X114485329Y-188705275D01*
X114485331Y-188705277D01*
X114591873Y-188776465D01*
X114710256Y-188825501D01*
X114710260Y-188825501D01*
X114710261Y-188825502D01*
X114835928Y-188850500D01*
X114835931Y-188850500D01*
X115295065Y-188850500D01*
X115362104Y-188870185D01*
X115363909Y-188871366D01*
X115420821Y-188909394D01*
X115420823Y-188909395D01*
X115420827Y-188909397D01*
X115566498Y-188969735D01*
X115566503Y-188969737D01*
X115721153Y-189000499D01*
X115721156Y-189000500D01*
X115721158Y-189000500D01*
X115878844Y-189000500D01*
X115878845Y-189000499D01*
X116033497Y-188969737D01*
X116179179Y-188909394D01*
X116310289Y-188821789D01*
X116421789Y-188710289D01*
X116509394Y-188579179D01*
X116569737Y-188433497D01*
X116600500Y-188278842D01*
X116600500Y-188121158D01*
X116600500Y-188121155D01*
X116600499Y-188121153D01*
X116583921Y-188037812D01*
X116569737Y-187966503D01*
X116528314Y-187866498D01*
X116509397Y-187820827D01*
X116509390Y-187820814D01*
X116421789Y-187689711D01*
X116421786Y-187689707D01*
X116310292Y-187578213D01*
X116310288Y-187578210D01*
X116179185Y-187490609D01*
X116179172Y-187490602D01*
X116033501Y-187430264D01*
X116033489Y-187430261D01*
X115878845Y-187399500D01*
X115878842Y-187399500D01*
X115721158Y-187399500D01*
X115721155Y-187399500D01*
X115566510Y-187430261D01*
X115566498Y-187430264D01*
X115420827Y-187490602D01*
X115420820Y-187490606D01*
X115391928Y-187509911D01*
X115363955Y-187528602D01*
X115345908Y-187534253D01*
X115330000Y-187544477D01*
X115299040Y-187548928D01*
X115297279Y-187549480D01*
X115295065Y-187549500D01*
X115220808Y-187549500D01*
X115153769Y-187529815D01*
X115133127Y-187513181D01*
X112486819Y-184866873D01*
X112453334Y-184805550D01*
X112450500Y-184779192D01*
X112450500Y-153135928D01*
X112425502Y-153010261D01*
X112425501Y-153010260D01*
X112425501Y-153010256D01*
X112376465Y-152891873D01*
X112375042Y-152889744D01*
X112305277Y-152785331D01*
X112305275Y-152785329D01*
X112305273Y-152785326D01*
X110886819Y-151366872D01*
X110853334Y-151305549D01*
X110850500Y-151279191D01*
X110850500Y-149124424D01*
X110870185Y-149057385D01*
X110922989Y-149011630D01*
X110992147Y-149001686D01*
X111021952Y-149009863D01*
X111152995Y-149064142D01*
X111166503Y-149069737D01*
X111321153Y-149100499D01*
X111321156Y-149100500D01*
X111321158Y-149100500D01*
X111478844Y-149100500D01*
X111478845Y-149100499D01*
X111633497Y-149069737D01*
X111779179Y-149009394D01*
X111910289Y-148921789D01*
X112021789Y-148810289D01*
X112024914Y-148805611D01*
X112078525Y-148760806D01*
X112128018Y-148750500D01*
X112625197Y-148750500D01*
X112692236Y-148770185D01*
X112737991Y-148822989D01*
X112747935Y-148892147D01*
X112718910Y-148955703D01*
X112672650Y-148989061D01*
X112656651Y-148995687D01*
X112656642Y-148995692D01*
X112554203Y-149064140D01*
X112528637Y-149089707D01*
X112467077Y-149151267D01*
X112467074Y-149151270D01*
X111994138Y-149624205D01*
X111932815Y-149657690D01*
X111930649Y-149658141D01*
X111819443Y-149680261D01*
X111819433Y-149680264D01*
X111673762Y-149740602D01*
X111673749Y-149740609D01*
X111542646Y-149828210D01*
X111542642Y-149828213D01*
X111431148Y-149939707D01*
X111431145Y-149939711D01*
X111343544Y-150070814D01*
X111343537Y-150070827D01*
X111283199Y-150216498D01*
X111283196Y-150216510D01*
X111252435Y-150371153D01*
X111252435Y-150528846D01*
X111283196Y-150683489D01*
X111283199Y-150683501D01*
X111343537Y-150829172D01*
X111343544Y-150829185D01*
X111431145Y-150960288D01*
X111431148Y-150960292D01*
X111542642Y-151071786D01*
X111542646Y-151071789D01*
X111673749Y-151159390D01*
X111673762Y-151159397D01*
X111819433Y-151219735D01*
X111819438Y-151219737D01*
X111974088Y-151250499D01*
X111974091Y-151250500D01*
X111974093Y-151250500D01*
X112131779Y-151250500D01*
X112131780Y-151250499D01*
X112286432Y-151219737D01*
X112432114Y-151159394D01*
X112563224Y-151071789D01*
X112674724Y-150960289D01*
X112762329Y-150829179D01*
X112822672Y-150683497D01*
X112844793Y-150572282D01*
X112877175Y-150510375D01*
X112878612Y-150508911D01*
X113175707Y-150211816D01*
X113237029Y-150178334D01*
X113263387Y-150175500D01*
X114392059Y-150175500D01*
X114459098Y-150195185D01*
X114479740Y-150211819D01*
X114489707Y-150221786D01*
X114489711Y-150221789D01*
X114620814Y-150309390D01*
X114620827Y-150309397D01*
X114766498Y-150369735D01*
X114766503Y-150369737D01*
X114921153Y-150400499D01*
X114921156Y-150400500D01*
X114921158Y-150400500D01*
X115078844Y-150400500D01*
X115078845Y-150400499D01*
X115233497Y-150369737D01*
X115379179Y-150309394D01*
X115510289Y-150221789D01*
X115621789Y-150110289D01*
X115709394Y-149979179D01*
X115769737Y-149833497D01*
X115800500Y-149678842D01*
X115800500Y-149521158D01*
X115800500Y-149521155D01*
X115800499Y-149521153D01*
X115769738Y-149366510D01*
X115769737Y-149366503D01*
X115769735Y-149366498D01*
X115709397Y-149220827D01*
X115709390Y-149220814D01*
X115621789Y-149089711D01*
X115621786Y-149089707D01*
X115510292Y-148978213D01*
X115510284Y-148978207D01*
X115472712Y-148953102D01*
X115427906Y-148899490D01*
X115419199Y-148830165D01*
X115449353Y-148767138D01*
X115472712Y-148746898D01*
X115499279Y-148729145D01*
X115510289Y-148721789D01*
X115621789Y-148610289D01*
X115709394Y-148479179D01*
X115769737Y-148333497D01*
X115800500Y-148178842D01*
X115800500Y-148021158D01*
X115800500Y-148021155D01*
X115800499Y-148021153D01*
X115798782Y-148012522D01*
X115769737Y-147866503D01*
X115720596Y-147747865D01*
X115709397Y-147720827D01*
X115709390Y-147720814D01*
X115621789Y-147589711D01*
X115621786Y-147589707D01*
X115510292Y-147478213D01*
X115510288Y-147478210D01*
X115379185Y-147390609D01*
X115379172Y-147390602D01*
X115233501Y-147330264D01*
X115233489Y-147330261D01*
X115078845Y-147299500D01*
X115078842Y-147299500D01*
X114921158Y-147299500D01*
X114921155Y-147299500D01*
X114766510Y-147330261D01*
X114766498Y-147330264D01*
X114620827Y-147390602D01*
X114620820Y-147390606D01*
X114591928Y-147409911D01*
X114563955Y-147428602D01*
X114497279Y-147449480D01*
X114495065Y-147449500D01*
X111535929Y-147449500D01*
X111410261Y-147474497D01*
X111410251Y-147474500D01*
X111372685Y-147490061D01*
X111325233Y-147499500D01*
X111321155Y-147499500D01*
X111166510Y-147530261D01*
X111166507Y-147530262D01*
X111166506Y-147530262D01*
X111166503Y-147530263D01*
X111086372Y-147563454D01*
X111021952Y-147590137D01*
X110952482Y-147597605D01*
X110890003Y-147566329D01*
X110854351Y-147506240D01*
X110850500Y-147475575D01*
X110850500Y-131430582D01*
X110870185Y-131363543D01*
X110871361Y-131361746D01*
X110927465Y-131277781D01*
X110976501Y-131159398D01*
X110982369Y-131129896D01*
X111001500Y-131033723D01*
X111001500Y-130366277D01*
X111001500Y-130366274D01*
X110976502Y-130240607D01*
X110976501Y-130240606D01*
X110976501Y-130240602D01*
X110927465Y-130122219D01*
X110895868Y-130074930D01*
X110895868Y-130074929D01*
X110891836Y-130068896D01*
X110870954Y-130002220D01*
X110889435Y-129934839D01*
X110891805Y-129931149D01*
X110927465Y-129877781D01*
X110976501Y-129759398D01*
X110987743Y-129702881D01*
X111001500Y-129633723D01*
X111001500Y-128966277D01*
X111001500Y-128966274D01*
X110976502Y-128840607D01*
X110976501Y-128840606D01*
X110976501Y-128840602D01*
X110927465Y-128722219D01*
X110895868Y-128674930D01*
X110895868Y-128674929D01*
X110891836Y-128668896D01*
X110870954Y-128602220D01*
X110889435Y-128534839D01*
X110891805Y-128531149D01*
X110927465Y-128477781D01*
X110976501Y-128359398D01*
X110987743Y-128302881D01*
X111001500Y-128233723D01*
X111001500Y-127566277D01*
X111001500Y-127566274D01*
X110976502Y-127440607D01*
X110976501Y-127440606D01*
X110976501Y-127440602D01*
X110927465Y-127322219D01*
X110927464Y-127322218D01*
X110927460Y-127322210D01*
X110905672Y-127289603D01*
X110905670Y-127289601D01*
X110871397Y-127238307D01*
X110850520Y-127171629D01*
X110850500Y-127169417D01*
X110850500Y-121220807D01*
X110870185Y-121153768D01*
X110886815Y-121133130D01*
X111102931Y-120917013D01*
X111164252Y-120883530D01*
X111166317Y-120883099D01*
X111233497Y-120869737D01*
X111379179Y-120809394D01*
X111510289Y-120721789D01*
X111621789Y-120610289D01*
X111709394Y-120479179D01*
X111769737Y-120333497D01*
X111800500Y-120178842D01*
X111800500Y-120021158D01*
X111800500Y-120021155D01*
X111800499Y-120021153D01*
X111789628Y-119966503D01*
X111769737Y-119866503D01*
X111769735Y-119866498D01*
X111709397Y-119720827D01*
X111709390Y-119720814D01*
X111621789Y-119589711D01*
X111621786Y-119589707D01*
X111510292Y-119478213D01*
X111510288Y-119478210D01*
X111379185Y-119390609D01*
X111379172Y-119390602D01*
X111233501Y-119330264D01*
X111233489Y-119330261D01*
X111078845Y-119299500D01*
X111078842Y-119299500D01*
X110921158Y-119299500D01*
X110921155Y-119299500D01*
X110766510Y-119330261D01*
X110766498Y-119330264D01*
X110620827Y-119390602D01*
X110620814Y-119390609D01*
X110489711Y-119478210D01*
X110387680Y-119580241D01*
X110326357Y-119613725D01*
X110256665Y-119608741D01*
X110215060Y-119582000D01*
X110214999Y-119582076D01*
X110214350Y-119581544D01*
X110212311Y-119580233D01*
X110210288Y-119578210D01*
X110079185Y-119490609D01*
X110079172Y-119490602D01*
X109933501Y-119430264D01*
X109933489Y-119430261D01*
X109778845Y-119399500D01*
X109778842Y-119399500D01*
X109621158Y-119399500D01*
X109621155Y-119399500D01*
X109466510Y-119430261D01*
X109466498Y-119430264D01*
X109320827Y-119490602D01*
X109320814Y-119490609D01*
X109189711Y-119578210D01*
X109189707Y-119578213D01*
X109187681Y-119580240D01*
X109186357Y-119580962D01*
X109185001Y-119582076D01*
X109184789Y-119581818D01*
X109126358Y-119613725D01*
X109056666Y-119608741D01*
X109015060Y-119582001D01*
X109014999Y-119582076D01*
X109014360Y-119581552D01*
X109012319Y-119580240D01*
X109010292Y-119578213D01*
X109010288Y-119578210D01*
X108879185Y-119490609D01*
X108879172Y-119490602D01*
X108733501Y-119430264D01*
X108733489Y-119430261D01*
X108578845Y-119399500D01*
X108578842Y-119399500D01*
X108421158Y-119399500D01*
X108421155Y-119399500D01*
X108266510Y-119430261D01*
X108266498Y-119430264D01*
X108120827Y-119490602D01*
X108120818Y-119490607D01*
X108103389Y-119502253D01*
X108036711Y-119523129D01*
X107969331Y-119504643D01*
X107922642Y-119452663D01*
X107910500Y-119399149D01*
X107910500Y-117060807D01*
X107930185Y-116993768D01*
X107946814Y-116973131D01*
X110302931Y-114617013D01*
X110364252Y-114583530D01*
X110366317Y-114583099D01*
X110433497Y-114569737D01*
X110579179Y-114509394D01*
X110710289Y-114421789D01*
X110821789Y-114310289D01*
X110909394Y-114179179D01*
X110969737Y-114033497D01*
X111000500Y-113878842D01*
X111000500Y-113774500D01*
X111020185Y-113707461D01*
X111072989Y-113661706D01*
X111124500Y-113650500D01*
X115679192Y-113650500D01*
X115746231Y-113670185D01*
X115766873Y-113686819D01*
X118234325Y-116154272D01*
X118234332Y-116154278D01*
X118318108Y-116210255D01*
X118318111Y-116210256D01*
X118325733Y-116215349D01*
X118340872Y-116225465D01*
X118389908Y-116245776D01*
X118459256Y-116274501D01*
X118459260Y-116274501D01*
X118459261Y-116274502D01*
X118584928Y-116299500D01*
X118584931Y-116299500D01*
X118713069Y-116299500D01*
X118776500Y-116299500D01*
X118843539Y-116319185D01*
X118889294Y-116371989D01*
X118900500Y-116423500D01*
X118900500Y-116615069D01*
X118919011Y-116708127D01*
X118924208Y-116734257D01*
X118925499Y-116740745D01*
X118974534Y-116859125D01*
X119045726Y-116965673D01*
X119045727Y-116965674D01*
X124313181Y-122233127D01*
X124346666Y-122294450D01*
X124349500Y-122320808D01*
X124349500Y-128442064D01*
X124329815Y-128509103D01*
X124277011Y-128554858D01*
X124207853Y-128564802D01*
X124144297Y-128535777D01*
X124122398Y-128510955D01*
X124105275Y-128485328D01*
X115717015Y-120097068D01*
X115683530Y-120035745D01*
X115683079Y-120033578D01*
X115669738Y-119966510D01*
X115669737Y-119966503D01*
X115628314Y-119866498D01*
X115609397Y-119820827D01*
X115609390Y-119820814D01*
X115521789Y-119689711D01*
X115521786Y-119689707D01*
X115410292Y-119578213D01*
X115410288Y-119578210D01*
X115279185Y-119490609D01*
X115279172Y-119490602D01*
X115133501Y-119430264D01*
X115133489Y-119430261D01*
X114978845Y-119399500D01*
X114978842Y-119399500D01*
X114821158Y-119399500D01*
X114821155Y-119399500D01*
X114666510Y-119430261D01*
X114666498Y-119430264D01*
X114520827Y-119490602D01*
X114520814Y-119490609D01*
X114389711Y-119578210D01*
X114389707Y-119578213D01*
X114278213Y-119689707D01*
X114278210Y-119689711D01*
X114190609Y-119820814D01*
X114190602Y-119820827D01*
X114130264Y-119966498D01*
X114130261Y-119966510D01*
X114099500Y-120121153D01*
X114099500Y-120278846D01*
X114130261Y-120433489D01*
X114130264Y-120433501D01*
X114190602Y-120579172D01*
X114190609Y-120579185D01*
X114278210Y-120710288D01*
X114278213Y-120710292D01*
X114389707Y-120821786D01*
X114389711Y-120821789D01*
X114520814Y-120909390D01*
X114520827Y-120909397D01*
X114608230Y-120945599D01*
X114666503Y-120969737D01*
X114733580Y-120983079D01*
X114795490Y-121015463D01*
X114797069Y-121017015D01*
X122451112Y-128671058D01*
X122463839Y-128694366D01*
X122479711Y-128715669D01*
X122480326Y-128724560D01*
X122484597Y-128732381D01*
X122482702Y-128758873D01*
X122484537Y-128785371D01*
X122480248Y-128793182D01*
X122479613Y-128802073D01*
X122463694Y-128823336D01*
X122450914Y-128846618D01*
X122441637Y-128852801D01*
X122437741Y-128858006D01*
X122422611Y-128867705D01*
X122416881Y-128870816D01*
X122320821Y-128910606D01*
X122221824Y-128976753D01*
X122216830Y-128979466D01*
X122188004Y-128985668D01*
X122159864Y-128994480D01*
X122157650Y-128994500D01*
X120518389Y-128994500D01*
X120457971Y-129006518D01*
X120414743Y-129015116D01*
X120397546Y-129018537D01*
X120283716Y-129065687D01*
X120283707Y-129065692D01*
X120181268Y-129134140D01*
X120137705Y-129177703D01*
X120094142Y-129221267D01*
X120094139Y-129221270D01*
X112241203Y-137074205D01*
X112179880Y-137107690D01*
X112177714Y-137108141D01*
X112066508Y-137130261D01*
X112066498Y-137130264D01*
X111920827Y-137190602D01*
X111920814Y-137190609D01*
X111789711Y-137278210D01*
X111789707Y-137278213D01*
X111678213Y-137389707D01*
X111678210Y-137389711D01*
X111590609Y-137520814D01*
X111590602Y-137520827D01*
X111530264Y-137666498D01*
X111530261Y-137666510D01*
X111499500Y-137821153D01*
X111499500Y-137978846D01*
X111530261Y-138133489D01*
X111530264Y-138133501D01*
X111590602Y-138279172D01*
X111590609Y-138279185D01*
X111678210Y-138410288D01*
X111678213Y-138410292D01*
X111789707Y-138521786D01*
X111789711Y-138521789D01*
X111920814Y-138609390D01*
X111920827Y-138609397D01*
X112066498Y-138669735D01*
X112066503Y-138669737D01*
X112221153Y-138700499D01*
X112221156Y-138700500D01*
X112221158Y-138700500D01*
X112378844Y-138700500D01*
X112378845Y-138700499D01*
X112533497Y-138669737D01*
X112679179Y-138609394D01*
X112810289Y-138521789D01*
X112831579Y-138500499D01*
X112867319Y-138464760D01*
X112928642Y-138431275D01*
X112998334Y-138436259D01*
X113042681Y-138464760D01*
X113099707Y-138521786D01*
X113099711Y-138521789D01*
X113230814Y-138609390D01*
X113230827Y-138609397D01*
X113376498Y-138669735D01*
X113376503Y-138669737D01*
X113531153Y-138700499D01*
X113531156Y-138700500D01*
X113531158Y-138700500D01*
X113688844Y-138700500D01*
X113688845Y-138700499D01*
X113843497Y-138669737D01*
X113989179Y-138609394D01*
X114120289Y-138521789D01*
X114231789Y-138410289D01*
X114319394Y-138279179D01*
X114379737Y-138133497D01*
X114401858Y-138022282D01*
X114434240Y-137960375D01*
X114435735Y-137958853D01*
X119572771Y-132821819D01*
X119634094Y-132788334D01*
X119660452Y-132785500D01*
X122257650Y-132785500D01*
X122324689Y-132805185D01*
X122326541Y-132806398D01*
X122420821Y-132869394D01*
X122420823Y-132869395D01*
X122420827Y-132869397D01*
X122544944Y-132920807D01*
X122566503Y-132929737D01*
X122721153Y-132960499D01*
X122721156Y-132960500D01*
X122825500Y-132960500D01*
X122892539Y-132980185D01*
X122938294Y-133032989D01*
X122949500Y-133084500D01*
X122949500Y-152286352D01*
X122970490Y-152391873D01*
X122974499Y-152412027D01*
X123023534Y-152530408D01*
X123094726Y-152636956D01*
X123094727Y-152636957D01*
X123260701Y-152802930D01*
X123294186Y-152864253D01*
X123294637Y-152866420D01*
X123307978Y-152933489D01*
X123307981Y-152933501D01*
X123368319Y-153079172D01*
X123368326Y-153079185D01*
X123455927Y-153210288D01*
X123455930Y-153210292D01*
X123567424Y-153321786D01*
X123567428Y-153321789D01*
X123698531Y-153409390D01*
X123698544Y-153409397D01*
X123843515Y-153469445D01*
X123844220Y-153469737D01*
X123968455Y-153494449D01*
X123998870Y-153500499D01*
X123998873Y-153500500D01*
X123998875Y-153500500D01*
X124156561Y-153500500D01*
X124156562Y-153500499D01*
X124311214Y-153469737D01*
X124456896Y-153409394D01*
X124556609Y-153342768D01*
X124623286Y-153321890D01*
X124690666Y-153340374D01*
X124737357Y-153392353D01*
X124749500Y-153445870D01*
X124749500Y-161860537D01*
X124729815Y-161927576D01*
X124713181Y-161948218D01*
X121845727Y-164815671D01*
X121845726Y-164815672D01*
X121774534Y-164922220D01*
X121725499Y-165040601D01*
X121725497Y-165040607D01*
X121700500Y-165166274D01*
X121700500Y-165448845D01*
X121680815Y-165515884D01*
X121664181Y-165536526D01*
X121494727Y-165705979D01*
X121494724Y-165705982D01*
X121446718Y-165777830D01*
X121423535Y-165812525D01*
X121374499Y-165930909D01*
X121374497Y-165930915D01*
X121349500Y-166056582D01*
X121349500Y-184779192D01*
X121329815Y-184846231D01*
X121313181Y-184866873D01*
X118766873Y-187413181D01*
X118705550Y-187446666D01*
X118679192Y-187449500D01*
X118304935Y-187449500D01*
X118237896Y-187429815D01*
X118236090Y-187428633D01*
X118179179Y-187390606D01*
X118179172Y-187390602D01*
X118033501Y-187330264D01*
X118033489Y-187330261D01*
X117878845Y-187299500D01*
X117878842Y-187299500D01*
X117721158Y-187299500D01*
X117721155Y-187299500D01*
X117566510Y-187330261D01*
X117566498Y-187330264D01*
X117420827Y-187390602D01*
X117420814Y-187390609D01*
X117289711Y-187478210D01*
X117289707Y-187478213D01*
X117178213Y-187589707D01*
X117178210Y-187589711D01*
X117090609Y-187720814D01*
X117090602Y-187720827D01*
X117030264Y-187866498D01*
X117030261Y-187866510D01*
X116999500Y-188021153D01*
X116999500Y-188178846D01*
X117030261Y-188333489D01*
X117030264Y-188333501D01*
X117090602Y-188479172D01*
X117090609Y-188479185D01*
X117178210Y-188610288D01*
X117178213Y-188610292D01*
X117289707Y-188721786D01*
X117289711Y-188721789D01*
X117420814Y-188809390D01*
X117420827Y-188809397D01*
X117520060Y-188850500D01*
X117566503Y-188869737D01*
X117721153Y-188900499D01*
X117721156Y-188900500D01*
X117721158Y-188900500D01*
X117878844Y-188900500D01*
X117878845Y-188900499D01*
X118033497Y-188869737D01*
X118179179Y-188809394D01*
X118236044Y-188771397D01*
X118302721Y-188750520D01*
X118304935Y-188750500D01*
X119064071Y-188750500D01*
X119148615Y-188733682D01*
X119189744Y-188725501D01*
X119308127Y-188676465D01*
X119414669Y-188605277D01*
X122505277Y-185514669D01*
X122576465Y-185408127D01*
X122625501Y-185289743D01*
X122650500Y-185164069D01*
X122650500Y-185035931D01*
X122650500Y-183761153D01*
X135337500Y-183761153D01*
X135337500Y-183918846D01*
X135368261Y-184073489D01*
X135368264Y-184073501D01*
X135428602Y-184219172D01*
X135428609Y-184219185D01*
X135516210Y-184350288D01*
X135516213Y-184350292D01*
X135627707Y-184461786D01*
X135627711Y-184461789D01*
X135758814Y-184549390D01*
X135758827Y-184549397D01*
X135866020Y-184593797D01*
X135904503Y-184609737D01*
X136059153Y-184640499D01*
X136059156Y-184640500D01*
X136059158Y-184640500D01*
X136216844Y-184640500D01*
X136216845Y-184640499D01*
X136371497Y-184609737D01*
X136517179Y-184549394D01*
X136648289Y-184461789D01*
X136759789Y-184350289D01*
X136847394Y-184219179D01*
X136907737Y-184073497D01*
X136921079Y-184006416D01*
X136953463Y-183944509D01*
X136954959Y-183942985D01*
X140905276Y-179992669D01*
X140976465Y-179886127D01*
X141025501Y-179767744D01*
X141025583Y-179767331D01*
X141025585Y-179767321D01*
X141025591Y-179767322D01*
X141025591Y-179767290D01*
X141050500Y-179642069D01*
X141050500Y-174827135D01*
X154574500Y-174827135D01*
X154574500Y-179572870D01*
X154574501Y-179572876D01*
X154580908Y-179632483D01*
X154631202Y-179767328D01*
X154631206Y-179767335D01*
X154717452Y-179882544D01*
X154717455Y-179882547D01*
X154832664Y-179968793D01*
X154832671Y-179968797D01*
X154967517Y-180019091D01*
X154967516Y-180019091D01*
X154974444Y-180019835D01*
X155027127Y-180025500D01*
X159772872Y-180025499D01*
X159832483Y-180019091D01*
X159967331Y-179968796D01*
X160082546Y-179882546D01*
X160168796Y-179767331D01*
X160219091Y-179632483D01*
X160225500Y-179572873D01*
X160225499Y-174827128D01*
X160219091Y-174767517D01*
X160190083Y-174689743D01*
X160168797Y-174632671D01*
X160168793Y-174632664D01*
X160082547Y-174517455D01*
X160082544Y-174517452D01*
X159967335Y-174431206D01*
X159967328Y-174431202D01*
X159832482Y-174380908D01*
X159832483Y-174380908D01*
X159772883Y-174374501D01*
X159772881Y-174374500D01*
X159772873Y-174374500D01*
X159772864Y-174374500D01*
X155027129Y-174374500D01*
X155027123Y-174374501D01*
X154967516Y-174380908D01*
X154832671Y-174431202D01*
X154832664Y-174431206D01*
X154717455Y-174517452D01*
X154717452Y-174517455D01*
X154631206Y-174632664D01*
X154631202Y-174632671D01*
X154580908Y-174767517D01*
X154576542Y-174808130D01*
X154574501Y-174827123D01*
X154574500Y-174827135D01*
X141050500Y-174827135D01*
X141050500Y-170679935D01*
X141070185Y-170612896D01*
X141071366Y-170611090D01*
X141109394Y-170554179D01*
X141169737Y-170408497D01*
X141200500Y-170253842D01*
X141200500Y-170096158D01*
X141200500Y-170096155D01*
X141200499Y-170096153D01*
X141169738Y-169941510D01*
X141169737Y-169941503D01*
X141169735Y-169941498D01*
X141109397Y-169795827D01*
X141109390Y-169795814D01*
X141021789Y-169664711D01*
X141021786Y-169664707D01*
X140910292Y-169553213D01*
X140910288Y-169553210D01*
X140779185Y-169465609D01*
X140779172Y-169465602D01*
X140633501Y-169405264D01*
X140633489Y-169405261D01*
X140478845Y-169374500D01*
X140478842Y-169374500D01*
X140321158Y-169374500D01*
X140321155Y-169374500D01*
X140166510Y-169405261D01*
X140166498Y-169405264D01*
X140020827Y-169465602D01*
X140020814Y-169465609D01*
X139889711Y-169553210D01*
X139889707Y-169553213D01*
X139778213Y-169664707D01*
X139778210Y-169664711D01*
X139690609Y-169795814D01*
X139690602Y-169795827D01*
X139630264Y-169941498D01*
X139630261Y-169941510D01*
X139599500Y-170096153D01*
X139599500Y-170253846D01*
X139630261Y-170408489D01*
X139630264Y-170408501D01*
X139690602Y-170554172D01*
X139690606Y-170554179D01*
X139728602Y-170611044D01*
X139749480Y-170677721D01*
X139749500Y-170679935D01*
X139749500Y-179257191D01*
X139729815Y-179324230D01*
X139713181Y-179344872D01*
X136035068Y-183022984D01*
X135973745Y-183056469D01*
X135971579Y-183056920D01*
X135904508Y-183070261D01*
X135904498Y-183070264D01*
X135758827Y-183130602D01*
X135758814Y-183130609D01*
X135627711Y-183218210D01*
X135627707Y-183218213D01*
X135516213Y-183329707D01*
X135516210Y-183329711D01*
X135428609Y-183460814D01*
X135428602Y-183460827D01*
X135368264Y-183606498D01*
X135368261Y-183606510D01*
X135337500Y-183761153D01*
X122650500Y-183761153D01*
X122650500Y-171002135D01*
X130799500Y-171002135D01*
X130799500Y-172197870D01*
X130799501Y-172197876D01*
X130805908Y-172257483D01*
X130856202Y-172392328D01*
X130856206Y-172392335D01*
X130942452Y-172507544D01*
X130942455Y-172507547D01*
X131057664Y-172593793D01*
X131057671Y-172593797D01*
X131192517Y-172644091D01*
X131192516Y-172644091D01*
X131199444Y-172644835D01*
X131252127Y-172650500D01*
X132447872Y-172650499D01*
X132507483Y-172644091D01*
X132642331Y-172593796D01*
X132757546Y-172507546D01*
X132843796Y-172392331D01*
X132894091Y-172257483D01*
X132900500Y-172197873D01*
X132900499Y-171002128D01*
X132894091Y-170942517D01*
X132843796Y-170807669D01*
X132843795Y-170807668D01*
X132843793Y-170807664D01*
X132757547Y-170692455D01*
X132757544Y-170692452D01*
X132642335Y-170606206D01*
X132642328Y-170606202D01*
X132507482Y-170555908D01*
X132507483Y-170555908D01*
X132447883Y-170549501D01*
X132447881Y-170549500D01*
X132447873Y-170549500D01*
X132447864Y-170549500D01*
X131252129Y-170549500D01*
X131252123Y-170549501D01*
X131192516Y-170555908D01*
X131057671Y-170606202D01*
X131057664Y-170606206D01*
X130942455Y-170692452D01*
X130942452Y-170692455D01*
X130856206Y-170807664D01*
X130856202Y-170807671D01*
X130805908Y-170942517D01*
X130800615Y-170991752D01*
X130799501Y-171002123D01*
X130799500Y-171002135D01*
X122650500Y-171002135D01*
X122650500Y-166441462D01*
X122670185Y-166374423D01*
X122686819Y-166353781D01*
X122856273Y-166184327D01*
X122856277Y-166184323D01*
X122927465Y-166077781D01*
X122976501Y-165959398D01*
X122976501Y-165959394D01*
X122976503Y-165959391D01*
X122982168Y-165930911D01*
X122982168Y-165930910D01*
X123001500Y-165833725D01*
X123001500Y-165551153D01*
X123021185Y-165484114D01*
X123037819Y-165463472D01*
X124165616Y-164335675D01*
X165874500Y-164335675D01*
X165874500Y-164544324D01*
X165907137Y-164750389D01*
X165971612Y-164948820D01*
X166018380Y-165040607D01*
X166066330Y-165134714D01*
X166188965Y-165303505D01*
X166336495Y-165451035D01*
X166505286Y-165573670D01*
X166593116Y-165618421D01*
X166691179Y-165668387D01*
X166691181Y-165668387D01*
X166691184Y-165668389D01*
X166797545Y-165702948D01*
X166889610Y-165732862D01*
X167095676Y-165765500D01*
X167095681Y-165765500D01*
X167304324Y-165765500D01*
X167510389Y-165732862D01*
X167708816Y-165668389D01*
X167894714Y-165573670D01*
X168063505Y-165451035D01*
X168211035Y-165303505D01*
X168333670Y-165134714D01*
X168428389Y-164948816D01*
X168492862Y-164750389D01*
X168525500Y-164544324D01*
X168525500Y-164335675D01*
X168492862Y-164129610D01*
X168428387Y-163931179D01*
X168333669Y-163745285D01*
X168211035Y-163576495D01*
X168063505Y-163428965D01*
X167894714Y-163306330D01*
X167708820Y-163211612D01*
X167510389Y-163147137D01*
X167304324Y-163114500D01*
X167304319Y-163114500D01*
X167095681Y-163114500D01*
X167095676Y-163114500D01*
X166889610Y-163147137D01*
X166691179Y-163211612D01*
X166505285Y-163306330D01*
X166336493Y-163428966D01*
X166188966Y-163576493D01*
X166066330Y-163745285D01*
X165971612Y-163931179D01*
X165907137Y-164129610D01*
X165874500Y-164335675D01*
X124165616Y-164335675D01*
X125905273Y-162596018D01*
X125905276Y-162596015D01*
X125976465Y-162489473D01*
X126025501Y-162371090D01*
X126036724Y-162314669D01*
X126043612Y-162280042D01*
X126050500Y-162245416D01*
X126050500Y-142156582D01*
X126025502Y-142030915D01*
X126025501Y-142030914D01*
X126025501Y-142030910D01*
X125982927Y-141928127D01*
X125976466Y-141912528D01*
X125905277Y-141805985D01*
X125860941Y-141761649D01*
X125854895Y-141753131D01*
X125846784Y-141729580D01*
X125834846Y-141707718D01*
X125835604Y-141697117D01*
X125832144Y-141687070D01*
X125838053Y-141662871D01*
X125839830Y-141638026D01*
X125848035Y-141621992D01*
X125848719Y-141619195D01*
X125850176Y-141617809D01*
X125852910Y-141612468D01*
X125855811Y-141608127D01*
X125904847Y-141489744D01*
X125929845Y-141364069D01*
X125929845Y-141235931D01*
X125904847Y-141110256D01*
X125859938Y-141001838D01*
X125850500Y-140954386D01*
X125850500Y-138381941D01*
X125870185Y-138314902D01*
X125922989Y-138269147D01*
X125992147Y-138259203D01*
X126055703Y-138288228D01*
X126062181Y-138294260D01*
X126089707Y-138321786D01*
X126089711Y-138321789D01*
X126220814Y-138409390D01*
X126220827Y-138409397D01*
X126285679Y-138436259D01*
X126366503Y-138469737D01*
X126521153Y-138500499D01*
X126521156Y-138500500D01*
X126521158Y-138500500D01*
X126678844Y-138500500D01*
X126678845Y-138500499D01*
X126833497Y-138469737D01*
X126979179Y-138409394D01*
X127036044Y-138371397D01*
X127102721Y-138350520D01*
X127104935Y-138350500D01*
X129479192Y-138350500D01*
X129546231Y-138370185D01*
X129566873Y-138386819D01*
X130694776Y-139514722D01*
X130721656Y-139554950D01*
X130772533Y-139677778D01*
X130843726Y-139784327D01*
X130843727Y-139784328D01*
X139613181Y-148553781D01*
X139646666Y-148615104D01*
X139649500Y-148641462D01*
X139649500Y-160495064D01*
X139629815Y-160562103D01*
X139628603Y-160563954D01*
X139590608Y-160620817D01*
X139590602Y-160620828D01*
X139530264Y-160766498D01*
X139530261Y-160766510D01*
X139499500Y-160921153D01*
X139499500Y-161078846D01*
X139530261Y-161233489D01*
X139530264Y-161233501D01*
X139590602Y-161379172D01*
X139590609Y-161379185D01*
X139678210Y-161510288D01*
X139678213Y-161510292D01*
X139789707Y-161621786D01*
X139789711Y-161621789D01*
X139920814Y-161709390D01*
X139920827Y-161709397D01*
X140066498Y-161769735D01*
X140066503Y-161769737D01*
X140221153Y-161800499D01*
X140221156Y-161800500D01*
X140221158Y-161800500D01*
X140378844Y-161800500D01*
X140378845Y-161800499D01*
X140533497Y-161769737D01*
X140677098Y-161710256D01*
X140679172Y-161709397D01*
X140679172Y-161709396D01*
X140679179Y-161709394D01*
X140810289Y-161621789D01*
X140921789Y-161510289D01*
X141009394Y-161379179D01*
X141069737Y-161233497D01*
X141100500Y-161078842D01*
X141100500Y-160921158D01*
X141100500Y-160921155D01*
X141100499Y-160921153D01*
X141071338Y-160774553D01*
X141069737Y-160766503D01*
X141069735Y-160766498D01*
X141009397Y-160620828D01*
X141009396Y-160620827D01*
X141009394Y-160620821D01*
X140971396Y-160563953D01*
X140950520Y-160497276D01*
X140950500Y-160495064D01*
X140950500Y-148256582D01*
X140925502Y-148130915D01*
X140925501Y-148130914D01*
X140925501Y-148130910D01*
X140890233Y-148045766D01*
X140890232Y-148045763D01*
X140876468Y-148012532D01*
X140876462Y-148012522D01*
X140805278Y-147905986D01*
X140805272Y-147905979D01*
X132003222Y-139103930D01*
X131976342Y-139063701D01*
X131925467Y-138940876D01*
X131925465Y-138940873D01*
X131854277Y-138834331D01*
X131854275Y-138834329D01*
X131854273Y-138834326D01*
X130214673Y-137194726D01*
X130214669Y-137194723D01*
X130108127Y-137123535D01*
X130064048Y-137105277D01*
X129989744Y-137074499D01*
X129989738Y-137074497D01*
X129864071Y-137049500D01*
X129864069Y-137049500D01*
X127104935Y-137049500D01*
X127037896Y-137029815D01*
X127036090Y-137028633D01*
X126979179Y-136990606D01*
X126979172Y-136990602D01*
X126833501Y-136930264D01*
X126833489Y-136930261D01*
X126678845Y-136899500D01*
X126678842Y-136899500D01*
X126521158Y-136899500D01*
X126521155Y-136899500D01*
X126366510Y-136930261D01*
X126366498Y-136930264D01*
X126220827Y-136990602D01*
X126220814Y-136990609D01*
X126089711Y-137078210D01*
X126089707Y-137078213D01*
X126062181Y-137105740D01*
X126000858Y-137139225D01*
X125931166Y-137134241D01*
X125875233Y-137092369D01*
X125850816Y-137026905D01*
X125850500Y-137018059D01*
X125850500Y-134515274D01*
X125825502Y-134389607D01*
X125825501Y-134389606D01*
X125825501Y-134389602D01*
X125776465Y-134271219D01*
X125705277Y-134164677D01*
X125705275Y-134164675D01*
X125705273Y-134164672D01*
X125686819Y-134146218D01*
X125653334Y-134084895D01*
X125650500Y-134058537D01*
X125650500Y-129513713D01*
X127549500Y-129513713D01*
X127549500Y-129726286D01*
X127582531Y-129934839D01*
X127582754Y-129936243D01*
X127627816Y-130074930D01*
X127648444Y-130138414D01*
X127744951Y-130327820D01*
X127869890Y-130499786D01*
X128020213Y-130650109D01*
X128192182Y-130775050D01*
X128200946Y-130779516D01*
X128251742Y-130827491D01*
X128268536Y-130895312D01*
X128245998Y-130961447D01*
X128200946Y-131000484D01*
X128192182Y-131004949D01*
X128020213Y-131129890D01*
X127869890Y-131280213D01*
X127744951Y-131452179D01*
X127648444Y-131641585D01*
X127582753Y-131843760D01*
X127549500Y-132053713D01*
X127549500Y-132266287D01*
X127553553Y-132291875D01*
X127582753Y-132476239D01*
X127648444Y-132678414D01*
X127744951Y-132867820D01*
X127869890Y-133039786D01*
X127983430Y-133153326D01*
X128016915Y-133214649D01*
X128011931Y-133284341D01*
X127970059Y-133340274D01*
X127939083Y-133357189D01*
X127807669Y-133406203D01*
X127807664Y-133406206D01*
X127692455Y-133492452D01*
X127692452Y-133492455D01*
X127606206Y-133607664D01*
X127606202Y-133607671D01*
X127555908Y-133742517D01*
X127549501Y-133802116D01*
X127549501Y-133802123D01*
X127549500Y-133802135D01*
X127549500Y-135597870D01*
X127549501Y-135597876D01*
X127555908Y-135657483D01*
X127606202Y-135792328D01*
X127606206Y-135792335D01*
X127692452Y-135907544D01*
X127692455Y-135907547D01*
X127807664Y-135993793D01*
X127807671Y-135993797D01*
X127942517Y-136044091D01*
X127942516Y-136044091D01*
X127949444Y-136044835D01*
X128002127Y-136050500D01*
X129797872Y-136050499D01*
X129857483Y-136044091D01*
X129992331Y-135993796D01*
X130107546Y-135907546D01*
X130193796Y-135792331D01*
X130244091Y-135657483D01*
X130250500Y-135597873D01*
X130250499Y-133802128D01*
X130244091Y-133742517D01*
X130231637Y-133709127D01*
X130193797Y-133607671D01*
X130193793Y-133607664D01*
X130107547Y-133492455D01*
X130107544Y-133492452D01*
X129992335Y-133406206D01*
X129992328Y-133406202D01*
X129860917Y-133357189D01*
X129804983Y-133315318D01*
X129780566Y-133249853D01*
X129795418Y-133181580D01*
X129816563Y-133153332D01*
X129930104Y-133039792D01*
X130055051Y-132867816D01*
X130151557Y-132678412D01*
X130217246Y-132476243D01*
X130250500Y-132266287D01*
X130250500Y-132053713D01*
X130217246Y-131843757D01*
X130151557Y-131641588D01*
X130055051Y-131452184D01*
X130055049Y-131452181D01*
X130055048Y-131452179D01*
X129930109Y-131280213D01*
X129779786Y-131129890D01*
X129607820Y-131004951D01*
X129607115Y-131004591D01*
X129599054Y-131000485D01*
X129548259Y-130952512D01*
X129531463Y-130884692D01*
X129553999Y-130818556D01*
X129599054Y-130779515D01*
X129607816Y-130775051D01*
X129702878Y-130705985D01*
X129779786Y-130650109D01*
X129779788Y-130650106D01*
X129779792Y-130650104D01*
X129930104Y-130499792D01*
X129930106Y-130499788D01*
X129930109Y-130499786D01*
X130053902Y-130329397D01*
X130055051Y-130327816D01*
X130151557Y-130138412D01*
X130217246Y-129936243D01*
X130250500Y-129726287D01*
X130250500Y-129513713D01*
X130217246Y-129303757D01*
X130151557Y-129101588D01*
X130055051Y-128912184D01*
X130055049Y-128912181D01*
X130055048Y-128912179D01*
X129930109Y-128740213D01*
X129779786Y-128589890D01*
X129607820Y-128464951D01*
X129418414Y-128368444D01*
X129418413Y-128368443D01*
X129418412Y-128368443D01*
X129216243Y-128302754D01*
X129216241Y-128302753D01*
X129216240Y-128302753D01*
X129054957Y-128277208D01*
X129006287Y-128269500D01*
X128793713Y-128269500D01*
X128745042Y-128277208D01*
X128583760Y-128302753D01*
X128381585Y-128368444D01*
X128192179Y-128464951D01*
X128020213Y-128589890D01*
X127869890Y-128740213D01*
X127744951Y-128912179D01*
X127648444Y-129101585D01*
X127582753Y-129303760D01*
X127549500Y-129513713D01*
X125650500Y-129513713D01*
X125650500Y-121935928D01*
X125625502Y-121810261D01*
X125625501Y-121810260D01*
X125625501Y-121810256D01*
X125606101Y-121763422D01*
X125598633Y-121693955D01*
X125629908Y-121631476D01*
X125689996Y-121595823D01*
X125759821Y-121598316D01*
X125808344Y-121628290D01*
X151113181Y-146933127D01*
X151146666Y-146994450D01*
X151149500Y-147020808D01*
X151149500Y-159395064D01*
X151129815Y-159462103D01*
X151128603Y-159463954D01*
X151090608Y-159520817D01*
X151090602Y-159520828D01*
X151030264Y-159666498D01*
X151030261Y-159666510D01*
X150999500Y-159821153D01*
X150999500Y-159978846D01*
X151030261Y-160133489D01*
X151030264Y-160133501D01*
X151090602Y-160279172D01*
X151090609Y-160279185D01*
X151178210Y-160410288D01*
X151178213Y-160410292D01*
X151289707Y-160521786D01*
X151289711Y-160521789D01*
X151420814Y-160609390D01*
X151420827Y-160609397D01*
X151566498Y-160669735D01*
X151566503Y-160669737D01*
X151721153Y-160700499D01*
X151721156Y-160700500D01*
X151721158Y-160700500D01*
X151878844Y-160700500D01*
X151878845Y-160700499D01*
X152033497Y-160669737D01*
X152179179Y-160609394D01*
X152310289Y-160521789D01*
X152421789Y-160410289D01*
X152509394Y-160279179D01*
X152569737Y-160133497D01*
X152600500Y-159978842D01*
X152600500Y-159821158D01*
X152600500Y-159821155D01*
X152600499Y-159821153D01*
X152569738Y-159666510D01*
X152569737Y-159666503D01*
X152509394Y-159520821D01*
X152471396Y-159463953D01*
X152465746Y-159445907D01*
X152455523Y-159429999D01*
X152451071Y-159399036D01*
X152450520Y-159397276D01*
X152450500Y-159395064D01*
X152450500Y-159255675D01*
X165874500Y-159255675D01*
X165874500Y-159464324D01*
X165907137Y-159670389D01*
X165971612Y-159868820D01*
X166027850Y-159979192D01*
X166066330Y-160054714D01*
X166188965Y-160223505D01*
X166336495Y-160371035D01*
X166505286Y-160493670D01*
X166560473Y-160521789D01*
X166691179Y-160588387D01*
X166691181Y-160588387D01*
X166691184Y-160588389D01*
X166755831Y-160609394D01*
X166889610Y-160652862D01*
X167095676Y-160685500D01*
X167095681Y-160685500D01*
X167304324Y-160685500D01*
X167510389Y-160652862D01*
X167556009Y-160638039D01*
X167708816Y-160588389D01*
X167894714Y-160493670D01*
X168063505Y-160371035D01*
X168211035Y-160223505D01*
X168333670Y-160054714D01*
X168428389Y-159868816D01*
X168492862Y-159670389D01*
X168493478Y-159666498D01*
X168525500Y-159464324D01*
X168525500Y-159255675D01*
X168492862Y-159049610D01*
X168437914Y-158880499D01*
X168428389Y-158851184D01*
X168428387Y-158851181D01*
X168428387Y-158851179D01*
X168378421Y-158753116D01*
X168333670Y-158665286D01*
X168211035Y-158496495D01*
X168063505Y-158348965D01*
X167894714Y-158226330D01*
X167708820Y-158131612D01*
X167510389Y-158067137D01*
X167304324Y-158034500D01*
X167304319Y-158034500D01*
X167095681Y-158034500D01*
X167095676Y-158034500D01*
X166889610Y-158067137D01*
X166691179Y-158131612D01*
X166505285Y-158226330D01*
X166336493Y-158348966D01*
X166188966Y-158496493D01*
X166066330Y-158665285D01*
X165971612Y-158851179D01*
X165907137Y-159049610D01*
X165874500Y-159255675D01*
X152450500Y-159255675D01*
X152450500Y-156679983D01*
X153174500Y-156679983D01*
X153174500Y-157280001D01*
X153174501Y-157280019D01*
X153185000Y-157382796D01*
X153185001Y-157382799D01*
X153197603Y-157420828D01*
X153240186Y-157549334D01*
X153332288Y-157698656D01*
X153456344Y-157822712D01*
X153605666Y-157914814D01*
X153772203Y-157969999D01*
X153874991Y-157980500D01*
X154625500Y-157980499D01*
X154692539Y-158000183D01*
X154738294Y-158052987D01*
X154749500Y-158104499D01*
X154749500Y-158427869D01*
X154749501Y-158427876D01*
X154755908Y-158487483D01*
X154806202Y-158622328D01*
X154806206Y-158622335D01*
X154892452Y-158737544D01*
X154892455Y-158737547D01*
X155007664Y-158823793D01*
X155007671Y-158823797D01*
X155142517Y-158874091D01*
X155142516Y-158874091D01*
X155149444Y-158874835D01*
X155202127Y-158880500D01*
X156497872Y-158880499D01*
X156557483Y-158874091D01*
X156692331Y-158823796D01*
X156807546Y-158737546D01*
X156893796Y-158622331D01*
X156944091Y-158487483D01*
X156950500Y-158427873D01*
X156950499Y-157132128D01*
X156944091Y-157072517D01*
X156893796Y-156937669D01*
X156893795Y-156937668D01*
X156893793Y-156937664D01*
X156807547Y-156822455D01*
X156807544Y-156822452D01*
X156692335Y-156736206D01*
X156692328Y-156736202D01*
X156557482Y-156685908D01*
X156557483Y-156685908D01*
X156497883Y-156679501D01*
X156497881Y-156679500D01*
X156497873Y-156679500D01*
X156497865Y-156679500D01*
X155862230Y-156679500D01*
X155795191Y-156659815D01*
X155774549Y-156643181D01*
X155589406Y-156458039D01*
X155563919Y-156416714D01*
X155562864Y-156417207D01*
X155559815Y-156410668D01*
X155559812Y-156410663D01*
X155467712Y-156261344D01*
X155343656Y-156137288D01*
X155194334Y-156045186D01*
X155027797Y-155990001D01*
X155027793Y-155990000D01*
X155021173Y-155988583D01*
X155021340Y-155987800D01*
X154996769Y-155981595D01*
X154988920Y-155978344D01*
X154988907Y-155978340D01*
X154843920Y-155949500D01*
X154843918Y-155949500D01*
X154326082Y-155949500D01*
X154326080Y-155949500D01*
X154187242Y-155977117D01*
X154163050Y-155979500D01*
X153874999Y-155979500D01*
X153874980Y-155979501D01*
X153772203Y-155990000D01*
X153772200Y-155990001D01*
X153605668Y-156045185D01*
X153605663Y-156045187D01*
X153456342Y-156137289D01*
X153332289Y-156261342D01*
X153240187Y-156410663D01*
X153240185Y-156410668D01*
X153231374Y-156437258D01*
X153185001Y-156577203D01*
X153185001Y-156577204D01*
X153185000Y-156577204D01*
X153174500Y-156679983D01*
X152450500Y-156679983D01*
X152450500Y-146635928D01*
X152425502Y-146510260D01*
X152425500Y-146510254D01*
X152405189Y-146461221D01*
X152405187Y-146461216D01*
X152376468Y-146391878D01*
X152376462Y-146391868D01*
X152305278Y-146285332D01*
X152305272Y-146285325D01*
X134122082Y-128102135D01*
X136349500Y-128102135D01*
X136349500Y-129297870D01*
X136349501Y-129297876D01*
X136355908Y-129357483D01*
X136406202Y-129492328D01*
X136406206Y-129492335D01*
X136492452Y-129607544D01*
X136492455Y-129607547D01*
X136607664Y-129693793D01*
X136607671Y-129693797D01*
X136742517Y-129744091D01*
X136742516Y-129744091D01*
X136749444Y-129744835D01*
X136802127Y-129750500D01*
X137997872Y-129750499D01*
X138057483Y-129744091D01*
X138192331Y-129693796D01*
X138307546Y-129607546D01*
X138393796Y-129492331D01*
X138444091Y-129357483D01*
X138450500Y-129297873D01*
X138450499Y-128102128D01*
X138444091Y-128042517D01*
X138432905Y-128012527D01*
X138393797Y-127907671D01*
X138393793Y-127907664D01*
X138307547Y-127792455D01*
X138307544Y-127792452D01*
X138192335Y-127706206D01*
X138192328Y-127706202D01*
X138057482Y-127655908D01*
X138057483Y-127655908D01*
X137997883Y-127649501D01*
X137997881Y-127649500D01*
X137997873Y-127649500D01*
X137997864Y-127649500D01*
X136802129Y-127649500D01*
X136802123Y-127649501D01*
X136742516Y-127655908D01*
X136607671Y-127706202D01*
X136607664Y-127706206D01*
X136492455Y-127792452D01*
X136492452Y-127792455D01*
X136406206Y-127907664D01*
X136406202Y-127907671D01*
X136355908Y-128042517D01*
X136349501Y-128102116D01*
X136349501Y-128102123D01*
X136349500Y-128102135D01*
X134122082Y-128102135D01*
X117514673Y-111494726D01*
X117514669Y-111494723D01*
X117408127Y-111423535D01*
X117289744Y-111374499D01*
X117289738Y-111374497D01*
X117164071Y-111349500D01*
X117164069Y-111349500D01*
X108635931Y-111349500D01*
X108635929Y-111349500D01*
X108510261Y-111374497D01*
X108510255Y-111374499D01*
X108391870Y-111423535D01*
X108285331Y-111494722D01*
X108285324Y-111494728D01*
X104194722Y-115585331D01*
X104194718Y-115585336D01*
X104174447Y-115615676D01*
X104174447Y-115615677D01*
X104123534Y-115691874D01*
X104074499Y-115810255D01*
X104074497Y-115810261D01*
X104049500Y-115935928D01*
X104049500Y-119375575D01*
X104041320Y-119403431D01*
X104035936Y-119431965D01*
X104031594Y-119436554D01*
X104029815Y-119442614D01*
X104007876Y-119461623D01*
X103987918Y-119482720D01*
X103981783Y-119484233D01*
X103977011Y-119488369D01*
X103948277Y-119492500D01*
X103920083Y-119499457D01*
X103912141Y-119497696D01*
X103907853Y-119498313D01*
X103885401Y-119492912D01*
X103879729Y-119490973D01*
X103879179Y-119490606D01*
X103733497Y-119430263D01*
X103658325Y-119415310D01*
X103650512Y-119412640D01*
X103628445Y-119397055D01*
X103604509Y-119384535D01*
X103602930Y-119382984D01*
X103166819Y-118946873D01*
X103133334Y-118885550D01*
X103130500Y-118859192D01*
X103130500Y-114374749D01*
X103150185Y-114307710D01*
X103180190Y-114275482D01*
X103237546Y-114232546D01*
X103323796Y-114117331D01*
X103374091Y-113982483D01*
X103380500Y-113922873D01*
X103380499Y-112877128D01*
X103374091Y-112817517D01*
X103368496Y-112802517D01*
X103323797Y-112682671D01*
X103323793Y-112682664D01*
X103237548Y-112567457D01*
X103237546Y-112567454D01*
X103217509Y-112552454D01*
X103180188Y-112524515D01*
X103177451Y-112520859D01*
X103173297Y-112518962D01*
X103156705Y-112493144D01*
X103138318Y-112468581D01*
X103137302Y-112462953D01*
X103135523Y-112460184D01*
X103130500Y-112425249D01*
X103130500Y-112182748D01*
X103150185Y-112115709D01*
X103181618Y-112082428D01*
X103191220Y-112075452D01*
X103191220Y-112075451D01*
X103191224Y-112075449D01*
X103355449Y-111911224D01*
X103491961Y-111723331D01*
X103597400Y-111516396D01*
X103669169Y-111295514D01*
X103697686Y-111115461D01*
X103705500Y-111066129D01*
X103705500Y-110833870D01*
X103680998Y-110679172D01*
X103669169Y-110604486D01*
X103597400Y-110383604D01*
X103597398Y-110383601D01*
X103597398Y-110383599D01*
X103540209Y-110271361D01*
X103514629Y-110221158D01*
X103514626Y-110221153D01*
X134599500Y-110221153D01*
X134599500Y-110378846D01*
X134630261Y-110533489D01*
X134630264Y-110533501D01*
X134690602Y-110679172D01*
X134690609Y-110679185D01*
X134778210Y-110810288D01*
X134778213Y-110810292D01*
X134889707Y-110921786D01*
X134889711Y-110921789D01*
X135020814Y-111009390D01*
X135020827Y-111009397D01*
X135108230Y-111045599D01*
X135166503Y-111069737D01*
X135233580Y-111083079D01*
X135295488Y-111115461D01*
X135297068Y-111117014D01*
X138585325Y-114405272D01*
X138585326Y-114405273D01*
X138585329Y-114405275D01*
X138585331Y-114405277D01*
X138691873Y-114476465D01*
X138810256Y-114525501D01*
X138810260Y-114525501D01*
X138810261Y-114525502D01*
X138935928Y-114550500D01*
X138935931Y-114550500D01*
X139364072Y-114550500D01*
X139375803Y-114548166D01*
X139424197Y-114548166D01*
X139435928Y-114550500D01*
X139435931Y-114550500D01*
X145664071Y-114550500D01*
X145748615Y-114533682D01*
X145789744Y-114525501D01*
X145908127Y-114476465D01*
X146014669Y-114405277D01*
X147402931Y-113017013D01*
X147464252Y-112983530D01*
X147466317Y-112983099D01*
X147533497Y-112969737D01*
X147679179Y-112909394D01*
X147810289Y-112821789D01*
X147921789Y-112710289D01*
X148009394Y-112579179D01*
X148014252Y-112567452D01*
X148033551Y-112520859D01*
X148069737Y-112433497D01*
X148100500Y-112278842D01*
X148100500Y-112121158D01*
X148100500Y-112121155D01*
X148100499Y-112121153D01*
X148069738Y-111966510D01*
X148069737Y-111966503D01*
X148030540Y-111871872D01*
X148009397Y-111820827D01*
X148009390Y-111820814D01*
X147921789Y-111689711D01*
X147921786Y-111689707D01*
X147810292Y-111578213D01*
X147810288Y-111578210D01*
X147679185Y-111490609D01*
X147679172Y-111490602D01*
X147533501Y-111430264D01*
X147533489Y-111430261D01*
X147378845Y-111399500D01*
X147378842Y-111399500D01*
X147221158Y-111399500D01*
X147221153Y-111399500D01*
X147098691Y-111423859D01*
X147029099Y-111417632D01*
X146973922Y-111374768D01*
X146950678Y-111308879D01*
X146950500Y-111302242D01*
X146950500Y-110220807D01*
X146970185Y-110153768D01*
X146986819Y-110133126D01*
X148833126Y-108286819D01*
X148894449Y-108253334D01*
X148920807Y-108250500D01*
X150209566Y-108250500D01*
X150276605Y-108270185D01*
X150322360Y-108322989D01*
X150332304Y-108392147D01*
X150303279Y-108455703D01*
X150297247Y-108462181D01*
X150193085Y-108566342D01*
X150100983Y-108715663D01*
X150100981Y-108715668D01*
X150098054Y-108724501D01*
X150045797Y-108882203D01*
X150045797Y-108882204D01*
X150045796Y-108882204D01*
X150035296Y-108984983D01*
X150035296Y-109129887D01*
X150015611Y-109196926D01*
X150014402Y-109198772D01*
X150012335Y-109201864D01*
X150012330Y-109201873D01*
X149963295Y-109320255D01*
X149963293Y-109320263D01*
X149938297Y-109445926D01*
X149938297Y-109574070D01*
X149947117Y-109618408D01*
X149949500Y-109642601D01*
X149949500Y-110756138D01*
X149929815Y-110823177D01*
X149889581Y-110860637D01*
X149889769Y-110860888D01*
X149887441Y-110862630D01*
X149884932Y-110864967D01*
X149882670Y-110866202D01*
X149767455Y-110952452D01*
X149767452Y-110952455D01*
X149681206Y-111067664D01*
X149681202Y-111067671D01*
X149630908Y-111202517D01*
X149624501Y-111262116D01*
X149624501Y-111262123D01*
X149624500Y-111262135D01*
X149624500Y-112157870D01*
X149624501Y-112157876D01*
X149630908Y-112217483D01*
X149681202Y-112352328D01*
X149681203Y-112352330D01*
X149718941Y-112402742D01*
X149735790Y-112425249D01*
X149743606Y-112435689D01*
X149768023Y-112501153D01*
X149753172Y-112569426D01*
X149743606Y-112584311D01*
X149681203Y-112667669D01*
X149681202Y-112667671D01*
X149630908Y-112802517D01*
X149624501Y-112862116D01*
X149624501Y-112862123D01*
X149624500Y-112862135D01*
X149624500Y-113077378D01*
X149604815Y-113144417D01*
X149552011Y-113190172D01*
X149484932Y-113199816D01*
X149484905Y-113200097D01*
X149483765Y-113199984D01*
X149482853Y-113200116D01*
X149479809Y-113199595D01*
X149478843Y-113199500D01*
X149478842Y-113199500D01*
X149321158Y-113199500D01*
X149321155Y-113199500D01*
X149166510Y-113230261D01*
X149166498Y-113230264D01*
X149020827Y-113290602D01*
X149020814Y-113290609D01*
X148889711Y-113378210D01*
X148889707Y-113378213D01*
X148778213Y-113489707D01*
X148778210Y-113489711D01*
X148690609Y-113620814D01*
X148690602Y-113620827D01*
X148630264Y-113766498D01*
X148630261Y-113766510D01*
X148599500Y-113921153D01*
X148599500Y-114078846D01*
X148630261Y-114233489D01*
X148630264Y-114233501D01*
X148690602Y-114379172D01*
X148690606Y-114379179D01*
X148728602Y-114436044D01*
X148749480Y-114502721D01*
X148749500Y-114504935D01*
X148749500Y-114964069D01*
X148761322Y-115023498D01*
X148761322Y-115023500D01*
X148774497Y-115089736D01*
X148774499Y-115089744D01*
X148787772Y-115121789D01*
X148823535Y-115208127D01*
X148894723Y-115314669D01*
X148894726Y-115314673D01*
X148894727Y-115314674D01*
X151688181Y-118108127D01*
X151721666Y-118169450D01*
X151724500Y-118195808D01*
X151724500Y-118647870D01*
X151724501Y-118647876D01*
X151730908Y-118707483D01*
X151781202Y-118842328D01*
X151781203Y-118842330D01*
X151792501Y-118857422D01*
X151816917Y-118922887D01*
X151802065Y-118991160D01*
X151752659Y-119040565D01*
X151684386Y-119055416D01*
X151618924Y-119030999D01*
X151512331Y-118951204D01*
X151512328Y-118951202D01*
X151377482Y-118900908D01*
X151377483Y-118900908D01*
X151317883Y-118894501D01*
X151317881Y-118894500D01*
X151317873Y-118894500D01*
X151317864Y-118894500D01*
X150282129Y-118894500D01*
X150282123Y-118894501D01*
X150222516Y-118900908D01*
X150087671Y-118951202D01*
X150087664Y-118951206D01*
X149972457Y-119037451D01*
X149972448Y-119037460D01*
X149925772Y-119099811D01*
X149869838Y-119141682D01*
X149826506Y-119149500D01*
X147235929Y-119149500D01*
X147110261Y-119174497D01*
X147110255Y-119174499D01*
X146991875Y-119223533D01*
X146991866Y-119223538D01*
X146885331Y-119294723D01*
X146885327Y-119294726D01*
X146297069Y-119882984D01*
X146235746Y-119916469D01*
X146233580Y-119916920D01*
X146166508Y-119930261D01*
X146166498Y-119930264D01*
X146020827Y-119990602D01*
X146020814Y-119990609D01*
X145889711Y-120078210D01*
X145889707Y-120078213D01*
X145778213Y-120189707D01*
X145778210Y-120189711D01*
X145690609Y-120320814D01*
X145690602Y-120320827D01*
X145630264Y-120466498D01*
X145630261Y-120466510D01*
X145599500Y-120621153D01*
X145599500Y-120778846D01*
X145630261Y-120933489D01*
X145630264Y-120933501D01*
X145690602Y-121079172D01*
X145690609Y-121079185D01*
X145778210Y-121210288D01*
X145778213Y-121210292D01*
X145889707Y-121321786D01*
X145889711Y-121321789D01*
X146020814Y-121409390D01*
X146020827Y-121409397D01*
X146127607Y-121453626D01*
X146166503Y-121469737D01*
X146321153Y-121500499D01*
X146321156Y-121500500D01*
X146321158Y-121500500D01*
X146478844Y-121500500D01*
X146478845Y-121500499D01*
X146633497Y-121469737D01*
X146779179Y-121409394D01*
X146910289Y-121321789D01*
X147021789Y-121210289D01*
X147109394Y-121079179D01*
X147169737Y-120933497D01*
X147183079Y-120866417D01*
X147215462Y-120804508D01*
X147216900Y-120803043D01*
X147533127Y-120486816D01*
X147594449Y-120453334D01*
X147620807Y-120450500D01*
X149826506Y-120450500D01*
X149893545Y-120470185D01*
X149925772Y-120500189D01*
X149972448Y-120562539D01*
X149972451Y-120562542D01*
X149972454Y-120562546D01*
X149994673Y-120579179D01*
X150087664Y-120648793D01*
X150087671Y-120648797D01*
X150222517Y-120699091D01*
X150222516Y-120699091D01*
X150229444Y-120699835D01*
X150282127Y-120705500D01*
X151317872Y-120705499D01*
X151377483Y-120699091D01*
X151512331Y-120648796D01*
X151627546Y-120562546D01*
X151650104Y-120532411D01*
X151706036Y-120490541D01*
X151775727Y-120485555D01*
X151837051Y-120519040D01*
X151848636Y-120532409D01*
X151867454Y-120557546D01*
X151867457Y-120557548D01*
X151982664Y-120643793D01*
X151982671Y-120643797D01*
X152117517Y-120694091D01*
X152117516Y-120694091D01*
X152124444Y-120694835D01*
X152177127Y-120700500D01*
X153222872Y-120700499D01*
X153282483Y-120694091D01*
X153417331Y-120643796D01*
X153532546Y-120557546D01*
X153618796Y-120442331D01*
X153669091Y-120307483D01*
X153675500Y-120247873D01*
X153675499Y-119352128D01*
X153669842Y-119299500D01*
X153669091Y-119292516D01*
X153618797Y-119157671D01*
X153618796Y-119157669D01*
X153575483Y-119099811D01*
X153556393Y-119074310D01*
X153531977Y-119008847D01*
X153546828Y-118940574D01*
X153556394Y-118925689D01*
X153574945Y-118900908D01*
X153618796Y-118842331D01*
X153669091Y-118707483D01*
X153675500Y-118647873D01*
X153675499Y-117752128D01*
X153669091Y-117692517D01*
X153618796Y-117557669D01*
X153618795Y-117557668D01*
X153618793Y-117557664D01*
X153532547Y-117442455D01*
X153532544Y-117442452D01*
X153417335Y-117356206D01*
X153417328Y-117356202D01*
X153282482Y-117305908D01*
X153282483Y-117305908D01*
X153222883Y-117299501D01*
X153222881Y-117299500D01*
X153222873Y-117299500D01*
X153222865Y-117299500D01*
X152770808Y-117299500D01*
X152703769Y-117279815D01*
X152683127Y-117263181D01*
X150796196Y-115376250D01*
X150762711Y-115314927D01*
X150767695Y-115245235D01*
X150809567Y-115189302D01*
X150814958Y-115185486D01*
X150910289Y-115121789D01*
X151021789Y-115010289D01*
X151109394Y-114879179D01*
X151169737Y-114733497D01*
X151200500Y-114578842D01*
X151200500Y-114421158D01*
X151200500Y-114421155D01*
X151179647Y-114316324D01*
X151185874Y-114246732D01*
X151228737Y-114191555D01*
X151257926Y-114175952D01*
X151317331Y-114153796D01*
X151432546Y-114067546D01*
X151518796Y-113952331D01*
X151569091Y-113817483D01*
X151575500Y-113757873D01*
X151575499Y-112862128D01*
X151569091Y-112802517D01*
X151543659Y-112734331D01*
X151518797Y-112667671D01*
X151518796Y-112667669D01*
X151456394Y-112584311D01*
X151431977Y-112518847D01*
X151446828Y-112450574D01*
X151456394Y-112435689D01*
X151462180Y-112427960D01*
X151518796Y-112352331D01*
X151569091Y-112217483D01*
X151575500Y-112157873D01*
X151575499Y-111262128D01*
X151569091Y-111202517D01*
X151537200Y-111117014D01*
X151518797Y-111067671D01*
X151518793Y-111067664D01*
X151432547Y-110952455D01*
X151432544Y-110952452D01*
X151413861Y-110938466D01*
X151371990Y-110882533D01*
X151367006Y-110812841D01*
X151400491Y-110751518D01*
X151449165Y-110721495D01*
X151605130Y-110669814D01*
X151754452Y-110577712D01*
X151878508Y-110453656D01*
X151970610Y-110304334D01*
X152025795Y-110137797D01*
X152036296Y-110035009D01*
X152036295Y-108984992D01*
X152025795Y-108882203D01*
X151970610Y-108715666D01*
X151878508Y-108566344D01*
X151774345Y-108462181D01*
X151740860Y-108400858D01*
X151745844Y-108331166D01*
X151787716Y-108275233D01*
X151853180Y-108250816D01*
X151862026Y-108250500D01*
X156879192Y-108250500D01*
X156946231Y-108270185D01*
X156966873Y-108286819D01*
X159613181Y-110933127D01*
X159646666Y-110994450D01*
X159649500Y-111020808D01*
X159649500Y-113342872D01*
X159629815Y-113409911D01*
X159628603Y-113411761D01*
X159622555Y-113420812D01*
X159622546Y-113420828D01*
X159562208Y-113566498D01*
X159562205Y-113566510D01*
X159531444Y-113721153D01*
X159531444Y-113878846D01*
X159562205Y-114033489D01*
X159562208Y-114033501D01*
X159622546Y-114179172D01*
X159622553Y-114179185D01*
X159710154Y-114310288D01*
X159710157Y-114310292D01*
X159821651Y-114421786D01*
X159821655Y-114421789D01*
X159952758Y-114509390D01*
X159952771Y-114509397D01*
X160052004Y-114550500D01*
X160098447Y-114569737D01*
X160202412Y-114590417D01*
X160253097Y-114600499D01*
X160253100Y-114600500D01*
X160253102Y-114600500D01*
X160410788Y-114600500D01*
X160410789Y-114600499D01*
X160565441Y-114569737D01*
X160711123Y-114509394D01*
X160842233Y-114421789D01*
X160889273Y-114374749D01*
X160937819Y-114326204D01*
X160999142Y-114292719D01*
X161068834Y-114297703D01*
X161124767Y-114339575D01*
X161149184Y-114405039D01*
X161149500Y-114413885D01*
X161149500Y-115279192D01*
X161129815Y-115346231D01*
X161113181Y-115366873D01*
X158666873Y-117813181D01*
X158605550Y-117846666D01*
X158579192Y-117849500D01*
X157204935Y-117849500D01*
X157137896Y-117829815D01*
X157136090Y-117828633D01*
X157079179Y-117790606D01*
X157079172Y-117790602D01*
X156933501Y-117730264D01*
X156933489Y-117730261D01*
X156778845Y-117699500D01*
X156778842Y-117699500D01*
X156621158Y-117699500D01*
X156621155Y-117699500D01*
X156466510Y-117730261D01*
X156466498Y-117730264D01*
X156320827Y-117790602D01*
X156320814Y-117790609D01*
X156189711Y-117878210D01*
X156189707Y-117878213D01*
X156078213Y-117989707D01*
X156078210Y-117989711D01*
X155990609Y-118120814D01*
X155990602Y-118120827D01*
X155930264Y-118266498D01*
X155930261Y-118266510D01*
X155899500Y-118421153D01*
X155899500Y-118578846D01*
X155930261Y-118733489D01*
X155930264Y-118733501D01*
X155990602Y-118879172D01*
X155990609Y-118879185D01*
X156078210Y-119010288D01*
X156078213Y-119010292D01*
X156189707Y-119121786D01*
X156189711Y-119121789D01*
X156320814Y-119209390D01*
X156320827Y-119209397D01*
X156466498Y-119269735D01*
X156466503Y-119269737D01*
X156616131Y-119299500D01*
X156621153Y-119300499D01*
X156621156Y-119300500D01*
X156621158Y-119300500D01*
X156778844Y-119300500D01*
X156778845Y-119300499D01*
X156933497Y-119269737D01*
X157079179Y-119209394D01*
X157136044Y-119171397D01*
X157202721Y-119150520D01*
X157204935Y-119150500D01*
X158964071Y-119150500D01*
X159048615Y-119133682D01*
X159089744Y-119125501D01*
X159208127Y-119076465D01*
X159257020Y-119043796D01*
X159314669Y-119005277D01*
X160774685Y-117545261D01*
X166606444Y-117545261D01*
X166606444Y-117753910D01*
X166639081Y-117959975D01*
X166703556Y-118158406D01*
X166758638Y-118266510D01*
X166798274Y-118344300D01*
X166920909Y-118513091D01*
X167068439Y-118660621D01*
X167237230Y-118783256D01*
X167325060Y-118828007D01*
X167423123Y-118877973D01*
X167423125Y-118877973D01*
X167423128Y-118877975D01*
X167523396Y-118910554D01*
X167621554Y-118942448D01*
X167827620Y-118975086D01*
X167827625Y-118975086D01*
X168036268Y-118975086D01*
X168242333Y-118942448D01*
X168248101Y-118940574D01*
X168440760Y-118877975D01*
X168626658Y-118783256D01*
X168795449Y-118660621D01*
X168942979Y-118513091D01*
X169065614Y-118344300D01*
X169160333Y-118158402D01*
X169224806Y-117959975D01*
X169237756Y-117878211D01*
X169257444Y-117753910D01*
X169257444Y-117545261D01*
X169224806Y-117339196D01*
X169164016Y-117152105D01*
X169160333Y-117140770D01*
X169160331Y-117140767D01*
X169160331Y-117140765D01*
X169110365Y-117042702D01*
X169065614Y-116954872D01*
X168942979Y-116786081D01*
X168795449Y-116638551D01*
X168626658Y-116515916D01*
X168440764Y-116421198D01*
X168242333Y-116356723D01*
X168036268Y-116324086D01*
X168036263Y-116324086D01*
X167827625Y-116324086D01*
X167827620Y-116324086D01*
X167621554Y-116356723D01*
X167423123Y-116421198D01*
X167237229Y-116515916D01*
X167068437Y-116638552D01*
X166920910Y-116786079D01*
X166798274Y-116954871D01*
X166703556Y-117140765D01*
X166639081Y-117339196D01*
X166606444Y-117545261D01*
X160774685Y-117545261D01*
X161905277Y-116414669D01*
X162305276Y-116014670D01*
X162376465Y-115908127D01*
X162425501Y-115789744D01*
X162444969Y-115691874D01*
X162450500Y-115664071D01*
X162450500Y-108304935D01*
X162470185Y-108237896D01*
X162471366Y-108236090D01*
X162509394Y-108179179D01*
X162569737Y-108033497D01*
X162600500Y-107878842D01*
X162600500Y-107721158D01*
X162600500Y-107721155D01*
X162600499Y-107721153D01*
X162569738Y-107566510D01*
X162569737Y-107566503D01*
X162569735Y-107566498D01*
X162509397Y-107420827D01*
X162509390Y-107420814D01*
X162421789Y-107289711D01*
X162421786Y-107289707D01*
X162310292Y-107178213D01*
X162310288Y-107178210D01*
X162179185Y-107090609D01*
X162179172Y-107090602D01*
X162033501Y-107030264D01*
X162033489Y-107030261D01*
X161878845Y-106999500D01*
X161878842Y-106999500D01*
X161721158Y-106999500D01*
X161721155Y-106999500D01*
X161566510Y-107030261D01*
X161566498Y-107030264D01*
X161420827Y-107090602D01*
X161420814Y-107090609D01*
X161289711Y-107178210D01*
X161289707Y-107178213D01*
X161178213Y-107289707D01*
X161178210Y-107289711D01*
X161090609Y-107420814D01*
X161090602Y-107420827D01*
X161030264Y-107566498D01*
X161030261Y-107566510D01*
X160999500Y-107721153D01*
X160999500Y-107878846D01*
X161030261Y-108033489D01*
X161030264Y-108033501D01*
X161090602Y-108179172D01*
X161090606Y-108179179D01*
X161128602Y-108236044D01*
X161149480Y-108302721D01*
X161149500Y-108304935D01*
X161149500Y-110427647D01*
X161147679Y-110433848D01*
X161148863Y-110440204D01*
X161137953Y-110466968D01*
X161129815Y-110494686D01*
X161124931Y-110498917D01*
X161122491Y-110504905D01*
X161098842Y-110521523D01*
X161077011Y-110540441D01*
X161070614Y-110541360D01*
X161065325Y-110545078D01*
X161036451Y-110546272D01*
X161007853Y-110550385D01*
X161001973Y-110547699D01*
X160995515Y-110547967D01*
X160970583Y-110533364D01*
X160944297Y-110521360D01*
X160939410Y-110515106D01*
X160935225Y-110512655D01*
X160924326Y-110495802D01*
X160914932Y-110483779D01*
X160912769Y-110479518D01*
X160876465Y-110391873D01*
X160846486Y-110347006D01*
X160842365Y-110340839D01*
X160842364Y-110340836D01*
X160805278Y-110285332D01*
X160805272Y-110285325D01*
X157614673Y-107094726D01*
X157614669Y-107094723D01*
X157508127Y-107023535D01*
X157508122Y-107023533D01*
X157389744Y-106974499D01*
X157389738Y-106974497D01*
X157264071Y-106949500D01*
X157264069Y-106949500D01*
X148535931Y-106949500D01*
X148535929Y-106949500D01*
X148410261Y-106974497D01*
X148410255Y-106974499D01*
X148291875Y-107023533D01*
X148291866Y-107023538D01*
X148185331Y-107094723D01*
X148185327Y-107094726D01*
X145794723Y-109485330D01*
X145777686Y-109510830D01*
X145777685Y-109510831D01*
X145723534Y-109591874D01*
X145674499Y-109710255D01*
X145674497Y-109710261D01*
X145649500Y-109835928D01*
X145649500Y-111695064D01*
X145629815Y-111762103D01*
X145628603Y-111763954D01*
X145590608Y-111820817D01*
X145590602Y-111820828D01*
X145530264Y-111966498D01*
X145530261Y-111966510D01*
X145499500Y-112121153D01*
X145499500Y-112278846D01*
X145530261Y-112433489D01*
X145530264Y-112433501D01*
X145590602Y-112579172D01*
X145590609Y-112579185D01*
X145678210Y-112710288D01*
X145678213Y-112710292D01*
X145686306Y-112718385D01*
X145719791Y-112779708D01*
X145714807Y-112849400D01*
X145686306Y-112893747D01*
X145366873Y-113213181D01*
X145305550Y-113246666D01*
X145279192Y-113249500D01*
X139784602Y-113249500D01*
X139717563Y-113229815D01*
X139715714Y-113228604D01*
X139708127Y-113223534D01*
X139589744Y-113174499D01*
X139589736Y-113174497D01*
X139464073Y-113149501D01*
X139464069Y-113149501D01*
X139335931Y-113149501D01*
X139305591Y-113155535D01*
X139262072Y-113164192D01*
X139192481Y-113157963D01*
X139150201Y-113130255D01*
X136217015Y-110197069D01*
X136183530Y-110135746D01*
X136183093Y-110133652D01*
X136169737Y-110066503D01*
X136137542Y-109988776D01*
X136109397Y-109920827D01*
X136109390Y-109920814D01*
X136021789Y-109789711D01*
X136021786Y-109789707D01*
X135910292Y-109678213D01*
X135910288Y-109678210D01*
X135779185Y-109590609D01*
X135779172Y-109590602D01*
X135633501Y-109530264D01*
X135633489Y-109530261D01*
X135478845Y-109499500D01*
X135478842Y-109499500D01*
X135321158Y-109499500D01*
X135321155Y-109499500D01*
X135166510Y-109530261D01*
X135166498Y-109530264D01*
X135020827Y-109590602D01*
X135020814Y-109590609D01*
X134889711Y-109678210D01*
X134889707Y-109678213D01*
X134778213Y-109789707D01*
X134778210Y-109789711D01*
X134690609Y-109920814D01*
X134690602Y-109920827D01*
X134630264Y-110066498D01*
X134630261Y-110066510D01*
X134599500Y-110221153D01*
X103514626Y-110221153D01*
X103491961Y-110176669D01*
X103355449Y-109988776D01*
X103191224Y-109824551D01*
X103003331Y-109688039D01*
X102796400Y-109582601D01*
X102575514Y-109510831D01*
X102346129Y-109474500D01*
X102346124Y-109474500D01*
X102113876Y-109474500D01*
X102113871Y-109474500D01*
X101884485Y-109510831D01*
X101663599Y-109582601D01*
X101456668Y-109688039D01*
X101268773Y-109824553D01*
X101104553Y-109988773D01*
X100968039Y-110176668D01*
X100862601Y-110383599D01*
X100790831Y-110604485D01*
X100754500Y-110833870D01*
X100754500Y-111066129D01*
X100790831Y-111295514D01*
X100862601Y-111516400D01*
X100950909Y-111689711D01*
X100968039Y-111723331D01*
X101104551Y-111911224D01*
X101268776Y-112075449D01*
X101382211Y-112157864D01*
X101446197Y-112204353D01*
X101488862Y-112259683D01*
X101494841Y-112329297D01*
X101462235Y-112391092D01*
X101401396Y-112425449D01*
X101360056Y-112427960D01*
X101327883Y-112424501D01*
X101327881Y-112424500D01*
X101327873Y-112424500D01*
X101327864Y-112424500D01*
X100432129Y-112424500D01*
X100432123Y-112424501D01*
X100372516Y-112430908D01*
X100237671Y-112481202D01*
X100237664Y-112481206D01*
X100122455Y-112567452D01*
X100122452Y-112567455D01*
X100036207Y-112682663D01*
X100034973Y-112684924D01*
X100033150Y-112686746D01*
X100030888Y-112689769D01*
X100030453Y-112689443D01*
X99985569Y-112734331D01*
X99926139Y-112749500D01*
X95705807Y-112749500D01*
X95638768Y-112729815D01*
X95618126Y-112713181D01*
X94776818Y-111871872D01*
X94743333Y-111810549D01*
X94740499Y-111784191D01*
X94740499Y-111174998D01*
X94740498Y-111174981D01*
X94729999Y-111072203D01*
X94729998Y-111072200D01*
X94704234Y-110994450D01*
X94674814Y-110905666D01*
X94648961Y-110863751D01*
X94644265Y-110847193D01*
X94635523Y-110833590D01*
X94630500Y-110798655D01*
X94630500Y-110777362D01*
X94636794Y-110738358D01*
X94689999Y-110577797D01*
X94700500Y-110475009D01*
X94700499Y-109424992D01*
X94689999Y-109322203D01*
X94634814Y-109155666D01*
X94542712Y-109006344D01*
X94418656Y-108882288D01*
X94269334Y-108790186D01*
X94102797Y-108735001D01*
X94102795Y-108735000D01*
X94000010Y-108724500D01*
X93399998Y-108724500D01*
X93399980Y-108724501D01*
X93297203Y-108735000D01*
X93297200Y-108735001D01*
X93130668Y-108790185D01*
X93130663Y-108790187D01*
X92981342Y-108882289D01*
X92857289Y-109006342D01*
X92765187Y-109155663D01*
X92765186Y-109155666D01*
X92710001Y-109322203D01*
X92710001Y-109322204D01*
X92710000Y-109322204D01*
X92702214Y-109398419D01*
X92675817Y-109463110D01*
X92618636Y-109503261D01*
X92559458Y-109508288D01*
X92346129Y-109474500D01*
X92346124Y-109474500D01*
X92113876Y-109474500D01*
X92113871Y-109474500D01*
X91884485Y-109510831D01*
X91663599Y-109582601D01*
X91456668Y-109688039D01*
X91268773Y-109824553D01*
X91104553Y-109988773D01*
X90968039Y-110176668D01*
X90862601Y-110383599D01*
X90790831Y-110604485D01*
X90754500Y-110833870D01*
X86700500Y-110833870D01*
X86700500Y-108450862D01*
X86720185Y-108383823D01*
X86736819Y-108363181D01*
X89363681Y-105736319D01*
X89425004Y-105702834D01*
X89451362Y-105700000D01*
X169948638Y-105700000D01*
X170015677Y-105719685D01*
G37*
%TD.AperFunction*%
%TD*%
M02*
