%TF.GenerationSoftware,KiCad,Pcbnew,9.0.7*%
%TF.CreationDate,2026-02-25T21:26:25-06:00*%
%TF.ProjectId,circle_of_life,63697263-6c65-45f6-9f66-5f6c6966652e,rev?*%
%TF.SameCoordinates,Original*%
%TF.FileFunction,Drillmap*%
%TF.FilePolarity,Positive*%
%FSLAX45Y45*%
G04 Gerber Fmt 4.5, Leading zero omitted, Abs format (unit mm)*
G04 Created by KiCad (PCBNEW 9.0.7) date 2026-02-25 21:26:25*
%MOMM*%
%LPD*%
G01*
G04 APERTURE LIST*
%ADD10C,0.050000*%
%ADD11C,0.200000*%
%ADD12C,0.100000*%
G04 APERTURE END LIST*
D10*
X8620000Y-10390000D02*
X17360000Y-10390000D01*
X17360000Y-20030000D01*
X8620000Y-20030000D01*
X8620000Y-10390000D01*
D11*
D12*
X9350500Y-14764500D02*
X9415500Y-14829500D01*
X9415500Y-14764500D02*
X9350500Y-14829500D01*
X9350500Y-15342500D02*
X9415500Y-15407500D01*
X9415500Y-15342500D02*
X9350500Y-15407500D01*
D11*
X8878277Y-20343984D02*
X8878277Y-20143984D01*
X8878277Y-20143984D02*
X8925896Y-20143984D01*
X8925896Y-20143984D02*
X8954467Y-20153508D01*
X8954467Y-20153508D02*
X8973515Y-20172555D01*
X8973515Y-20172555D02*
X8983039Y-20191603D01*
X8983039Y-20191603D02*
X8992563Y-20229698D01*
X8992563Y-20229698D02*
X8992563Y-20258270D01*
X8992563Y-20258270D02*
X8983039Y-20296365D01*
X8983039Y-20296365D02*
X8973515Y-20315412D01*
X8973515Y-20315412D02*
X8954467Y-20334460D01*
X8954467Y-20334460D02*
X8925896Y-20343984D01*
X8925896Y-20343984D02*
X8878277Y-20343984D01*
X9078277Y-20343984D02*
X9078277Y-20210650D01*
X9078277Y-20248746D02*
X9087801Y-20229698D01*
X9087801Y-20229698D02*
X9097324Y-20220174D01*
X9097324Y-20220174D02*
X9116372Y-20210650D01*
X9116372Y-20210650D02*
X9135420Y-20210650D01*
X9202086Y-20343984D02*
X9202086Y-20210650D01*
X9202086Y-20143984D02*
X9192563Y-20153508D01*
X9192563Y-20153508D02*
X9202086Y-20163031D01*
X9202086Y-20163031D02*
X9211610Y-20153508D01*
X9211610Y-20153508D02*
X9202086Y-20143984D01*
X9202086Y-20143984D02*
X9202086Y-20163031D01*
X9325896Y-20343984D02*
X9306848Y-20334460D01*
X9306848Y-20334460D02*
X9297324Y-20315412D01*
X9297324Y-20315412D02*
X9297324Y-20143984D01*
X9430658Y-20343984D02*
X9411610Y-20334460D01*
X9411610Y-20334460D02*
X9402086Y-20315412D01*
X9402086Y-20315412D02*
X9402086Y-20143984D01*
X9659229Y-20343984D02*
X9659229Y-20143984D01*
X9659229Y-20143984D02*
X9725896Y-20286841D01*
X9725896Y-20286841D02*
X9792563Y-20143984D01*
X9792563Y-20143984D02*
X9792563Y-20343984D01*
X9973515Y-20343984D02*
X9973515Y-20239222D01*
X9973515Y-20239222D02*
X9963991Y-20220174D01*
X9963991Y-20220174D02*
X9944944Y-20210650D01*
X9944944Y-20210650D02*
X9906848Y-20210650D01*
X9906848Y-20210650D02*
X9887801Y-20220174D01*
X9973515Y-20334460D02*
X9954467Y-20343984D01*
X9954467Y-20343984D02*
X9906848Y-20343984D01*
X9906848Y-20343984D02*
X9887801Y-20334460D01*
X9887801Y-20334460D02*
X9878277Y-20315412D01*
X9878277Y-20315412D02*
X9878277Y-20296365D01*
X9878277Y-20296365D02*
X9887801Y-20277317D01*
X9887801Y-20277317D02*
X9906848Y-20267793D01*
X9906848Y-20267793D02*
X9954467Y-20267793D01*
X9954467Y-20267793D02*
X9973515Y-20258270D01*
X10068753Y-20210650D02*
X10068753Y-20410650D01*
X10068753Y-20220174D02*
X10087801Y-20210650D01*
X10087801Y-20210650D02*
X10125896Y-20210650D01*
X10125896Y-20210650D02*
X10144944Y-20220174D01*
X10144944Y-20220174D02*
X10154467Y-20229698D01*
X10154467Y-20229698D02*
X10163991Y-20248746D01*
X10163991Y-20248746D02*
X10163991Y-20305889D01*
X10163991Y-20305889D02*
X10154467Y-20324936D01*
X10154467Y-20324936D02*
X10144944Y-20334460D01*
X10144944Y-20334460D02*
X10125896Y-20343984D01*
X10125896Y-20343984D02*
X10087801Y-20343984D01*
X10087801Y-20343984D02*
X10068753Y-20334460D01*
X10249705Y-20324936D02*
X10259229Y-20334460D01*
X10259229Y-20334460D02*
X10249705Y-20343984D01*
X10249705Y-20343984D02*
X10240182Y-20334460D01*
X10240182Y-20334460D02*
X10249705Y-20324936D01*
X10249705Y-20324936D02*
X10249705Y-20343984D01*
X10249705Y-20220174D02*
X10259229Y-20229698D01*
X10259229Y-20229698D02*
X10249705Y-20239222D01*
X10249705Y-20239222D02*
X10240182Y-20229698D01*
X10240182Y-20229698D02*
X10249705Y-20220174D01*
X10249705Y-20220174D02*
X10249705Y-20239222D01*
D12*
X8552500Y-20640000D02*
X8617500Y-20705000D01*
X8617500Y-20640000D02*
X8552500Y-20705000D01*
D11*
X8916372Y-20563984D02*
X8935420Y-20563984D01*
X8935420Y-20563984D02*
X8954467Y-20573508D01*
X8954467Y-20573508D02*
X8963991Y-20583031D01*
X8963991Y-20583031D02*
X8973515Y-20602079D01*
X8973515Y-20602079D02*
X8983039Y-20640174D01*
X8983039Y-20640174D02*
X8983039Y-20687793D01*
X8983039Y-20687793D02*
X8973515Y-20725889D01*
X8973515Y-20725889D02*
X8963991Y-20744936D01*
X8963991Y-20744936D02*
X8954467Y-20754460D01*
X8954467Y-20754460D02*
X8935420Y-20763984D01*
X8935420Y-20763984D02*
X8916372Y-20763984D01*
X8916372Y-20763984D02*
X8897324Y-20754460D01*
X8897324Y-20754460D02*
X8887801Y-20744936D01*
X8887801Y-20744936D02*
X8878277Y-20725889D01*
X8878277Y-20725889D02*
X8868753Y-20687793D01*
X8868753Y-20687793D02*
X8868753Y-20640174D01*
X8868753Y-20640174D02*
X8878277Y-20602079D01*
X8878277Y-20602079D02*
X8887801Y-20583031D01*
X8887801Y-20583031D02*
X8897324Y-20573508D01*
X8897324Y-20573508D02*
X8916372Y-20563984D01*
X9068753Y-20744936D02*
X9078277Y-20754460D01*
X9078277Y-20754460D02*
X9068753Y-20763984D01*
X9068753Y-20763984D02*
X9059229Y-20754460D01*
X9059229Y-20754460D02*
X9068753Y-20744936D01*
X9068753Y-20744936D02*
X9068753Y-20763984D01*
X9249705Y-20563984D02*
X9211610Y-20563984D01*
X9211610Y-20563984D02*
X9192563Y-20573508D01*
X9192563Y-20573508D02*
X9183039Y-20583031D01*
X9183039Y-20583031D02*
X9163991Y-20611603D01*
X9163991Y-20611603D02*
X9154467Y-20649698D01*
X9154467Y-20649698D02*
X9154467Y-20725889D01*
X9154467Y-20725889D02*
X9163991Y-20744936D01*
X9163991Y-20744936D02*
X9173515Y-20754460D01*
X9173515Y-20754460D02*
X9192563Y-20763984D01*
X9192563Y-20763984D02*
X9230658Y-20763984D01*
X9230658Y-20763984D02*
X9249705Y-20754460D01*
X9249705Y-20754460D02*
X9259229Y-20744936D01*
X9259229Y-20744936D02*
X9268753Y-20725889D01*
X9268753Y-20725889D02*
X9268753Y-20678270D01*
X9268753Y-20678270D02*
X9259229Y-20659222D01*
X9259229Y-20659222D02*
X9249705Y-20649698D01*
X9249705Y-20649698D02*
X9230658Y-20640174D01*
X9230658Y-20640174D02*
X9192563Y-20640174D01*
X9192563Y-20640174D02*
X9173515Y-20649698D01*
X9173515Y-20649698D02*
X9163991Y-20659222D01*
X9163991Y-20659222D02*
X9154467Y-20678270D01*
X9449705Y-20563984D02*
X9354467Y-20563984D01*
X9354467Y-20563984D02*
X9344944Y-20659222D01*
X9344944Y-20659222D02*
X9354467Y-20649698D01*
X9354467Y-20649698D02*
X9373515Y-20640174D01*
X9373515Y-20640174D02*
X9421134Y-20640174D01*
X9421134Y-20640174D02*
X9440182Y-20649698D01*
X9440182Y-20649698D02*
X9449705Y-20659222D01*
X9449705Y-20659222D02*
X9459229Y-20678270D01*
X9459229Y-20678270D02*
X9459229Y-20725889D01*
X9459229Y-20725889D02*
X9449705Y-20744936D01*
X9449705Y-20744936D02*
X9440182Y-20754460D01*
X9440182Y-20754460D02*
X9421134Y-20763984D01*
X9421134Y-20763984D02*
X9373515Y-20763984D01*
X9373515Y-20763984D02*
X9354467Y-20754460D01*
X9354467Y-20754460D02*
X9344944Y-20744936D01*
X9583039Y-20563984D02*
X9602086Y-20563984D01*
X9602086Y-20563984D02*
X9621134Y-20573508D01*
X9621134Y-20573508D02*
X9630658Y-20583031D01*
X9630658Y-20583031D02*
X9640182Y-20602079D01*
X9640182Y-20602079D02*
X9649705Y-20640174D01*
X9649705Y-20640174D02*
X9649705Y-20687793D01*
X9649705Y-20687793D02*
X9640182Y-20725889D01*
X9640182Y-20725889D02*
X9630658Y-20744936D01*
X9630658Y-20744936D02*
X9621134Y-20754460D01*
X9621134Y-20754460D02*
X9602086Y-20763984D01*
X9602086Y-20763984D02*
X9583039Y-20763984D01*
X9583039Y-20763984D02*
X9563991Y-20754460D01*
X9563991Y-20754460D02*
X9554467Y-20744936D01*
X9554467Y-20744936D02*
X9544944Y-20725889D01*
X9544944Y-20725889D02*
X9535420Y-20687793D01*
X9535420Y-20687793D02*
X9535420Y-20640174D01*
X9535420Y-20640174D02*
X9544944Y-20602079D01*
X9544944Y-20602079D02*
X9554467Y-20583031D01*
X9554467Y-20583031D02*
X9563991Y-20573508D01*
X9563991Y-20573508D02*
X9583039Y-20563984D01*
X9735420Y-20763984D02*
X9735420Y-20630650D01*
X9735420Y-20649698D02*
X9744944Y-20640174D01*
X9744944Y-20640174D02*
X9763991Y-20630650D01*
X9763991Y-20630650D02*
X9792563Y-20630650D01*
X9792563Y-20630650D02*
X9811610Y-20640174D01*
X9811610Y-20640174D02*
X9821134Y-20659222D01*
X9821134Y-20659222D02*
X9821134Y-20763984D01*
X9821134Y-20659222D02*
X9830658Y-20640174D01*
X9830658Y-20640174D02*
X9849705Y-20630650D01*
X9849705Y-20630650D02*
X9878277Y-20630650D01*
X9878277Y-20630650D02*
X9897325Y-20640174D01*
X9897325Y-20640174D02*
X9906848Y-20659222D01*
X9906848Y-20659222D02*
X9906848Y-20763984D01*
X10002086Y-20763984D02*
X10002086Y-20630650D01*
X10002086Y-20649698D02*
X10011610Y-20640174D01*
X10011610Y-20640174D02*
X10030658Y-20630650D01*
X10030658Y-20630650D02*
X10059229Y-20630650D01*
X10059229Y-20630650D02*
X10078277Y-20640174D01*
X10078277Y-20640174D02*
X10087801Y-20659222D01*
X10087801Y-20659222D02*
X10087801Y-20763984D01*
X10087801Y-20659222D02*
X10097325Y-20640174D01*
X10097325Y-20640174D02*
X10116372Y-20630650D01*
X10116372Y-20630650D02*
X10144944Y-20630650D01*
X10144944Y-20630650D02*
X10163991Y-20640174D01*
X10163991Y-20640174D02*
X10173515Y-20659222D01*
X10173515Y-20659222D02*
X10173515Y-20763984D01*
X10563991Y-20554460D02*
X10392563Y-20811603D01*
X10821134Y-20563984D02*
X10840182Y-20563984D01*
X10840182Y-20563984D02*
X10859229Y-20573508D01*
X10859229Y-20573508D02*
X10868753Y-20583031D01*
X10868753Y-20583031D02*
X10878277Y-20602079D01*
X10878277Y-20602079D02*
X10887801Y-20640174D01*
X10887801Y-20640174D02*
X10887801Y-20687793D01*
X10887801Y-20687793D02*
X10878277Y-20725889D01*
X10878277Y-20725889D02*
X10868753Y-20744936D01*
X10868753Y-20744936D02*
X10859229Y-20754460D01*
X10859229Y-20754460D02*
X10840182Y-20763984D01*
X10840182Y-20763984D02*
X10821134Y-20763984D01*
X10821134Y-20763984D02*
X10802087Y-20754460D01*
X10802087Y-20754460D02*
X10792563Y-20744936D01*
X10792563Y-20744936D02*
X10783039Y-20725889D01*
X10783039Y-20725889D02*
X10773515Y-20687793D01*
X10773515Y-20687793D02*
X10773515Y-20640174D01*
X10773515Y-20640174D02*
X10783039Y-20602079D01*
X10783039Y-20602079D02*
X10792563Y-20583031D01*
X10792563Y-20583031D02*
X10802087Y-20573508D01*
X10802087Y-20573508D02*
X10821134Y-20563984D01*
X10973515Y-20744936D02*
X10983039Y-20754460D01*
X10983039Y-20754460D02*
X10973515Y-20763984D01*
X10973515Y-20763984D02*
X10963991Y-20754460D01*
X10963991Y-20754460D02*
X10973515Y-20744936D01*
X10973515Y-20744936D02*
X10973515Y-20763984D01*
X11106848Y-20563984D02*
X11125896Y-20563984D01*
X11125896Y-20563984D02*
X11144944Y-20573508D01*
X11144944Y-20573508D02*
X11154468Y-20583031D01*
X11154468Y-20583031D02*
X11163991Y-20602079D01*
X11163991Y-20602079D02*
X11173515Y-20640174D01*
X11173515Y-20640174D02*
X11173515Y-20687793D01*
X11173515Y-20687793D02*
X11163991Y-20725889D01*
X11163991Y-20725889D02*
X11154468Y-20744936D01*
X11154468Y-20744936D02*
X11144944Y-20754460D01*
X11144944Y-20754460D02*
X11125896Y-20763984D01*
X11125896Y-20763984D02*
X11106848Y-20763984D01*
X11106848Y-20763984D02*
X11087801Y-20754460D01*
X11087801Y-20754460D02*
X11078277Y-20744936D01*
X11078277Y-20744936D02*
X11068753Y-20725889D01*
X11068753Y-20725889D02*
X11059229Y-20687793D01*
X11059229Y-20687793D02*
X11059229Y-20640174D01*
X11059229Y-20640174D02*
X11068753Y-20602079D01*
X11068753Y-20602079D02*
X11078277Y-20583031D01*
X11078277Y-20583031D02*
X11087801Y-20573508D01*
X11087801Y-20573508D02*
X11106848Y-20563984D01*
X11249706Y-20583031D02*
X11259229Y-20573508D01*
X11259229Y-20573508D02*
X11278277Y-20563984D01*
X11278277Y-20563984D02*
X11325896Y-20563984D01*
X11325896Y-20563984D02*
X11344944Y-20573508D01*
X11344944Y-20573508D02*
X11354467Y-20583031D01*
X11354467Y-20583031D02*
X11363991Y-20602079D01*
X11363991Y-20602079D02*
X11363991Y-20621127D01*
X11363991Y-20621127D02*
X11354467Y-20649698D01*
X11354467Y-20649698D02*
X11240182Y-20763984D01*
X11240182Y-20763984D02*
X11363991Y-20763984D01*
X11544944Y-20563984D02*
X11449706Y-20563984D01*
X11449706Y-20563984D02*
X11440182Y-20659222D01*
X11440182Y-20659222D02*
X11449706Y-20649698D01*
X11449706Y-20649698D02*
X11468753Y-20640174D01*
X11468753Y-20640174D02*
X11516372Y-20640174D01*
X11516372Y-20640174D02*
X11535420Y-20649698D01*
X11535420Y-20649698D02*
X11544944Y-20659222D01*
X11544944Y-20659222D02*
X11554467Y-20678270D01*
X11554467Y-20678270D02*
X11554467Y-20725889D01*
X11554467Y-20725889D02*
X11544944Y-20744936D01*
X11544944Y-20744936D02*
X11535420Y-20754460D01*
X11535420Y-20754460D02*
X11516372Y-20763984D01*
X11516372Y-20763984D02*
X11468753Y-20763984D01*
X11468753Y-20763984D02*
X11449706Y-20754460D01*
X11449706Y-20754460D02*
X11440182Y-20744936D01*
X11725896Y-20563984D02*
X11687801Y-20563984D01*
X11687801Y-20563984D02*
X11668753Y-20573508D01*
X11668753Y-20573508D02*
X11659229Y-20583031D01*
X11659229Y-20583031D02*
X11640182Y-20611603D01*
X11640182Y-20611603D02*
X11630658Y-20649698D01*
X11630658Y-20649698D02*
X11630658Y-20725889D01*
X11630658Y-20725889D02*
X11640182Y-20744936D01*
X11640182Y-20744936D02*
X11649706Y-20754460D01*
X11649706Y-20754460D02*
X11668753Y-20763984D01*
X11668753Y-20763984D02*
X11706848Y-20763984D01*
X11706848Y-20763984D02*
X11725896Y-20754460D01*
X11725896Y-20754460D02*
X11735420Y-20744936D01*
X11735420Y-20744936D02*
X11744944Y-20725889D01*
X11744944Y-20725889D02*
X11744944Y-20678270D01*
X11744944Y-20678270D02*
X11735420Y-20659222D01*
X11735420Y-20659222D02*
X11725896Y-20649698D01*
X11725896Y-20649698D02*
X11706848Y-20640174D01*
X11706848Y-20640174D02*
X11668753Y-20640174D01*
X11668753Y-20640174D02*
X11649706Y-20649698D01*
X11649706Y-20649698D02*
X11640182Y-20659222D01*
X11640182Y-20659222D02*
X11630658Y-20678270D01*
X11821134Y-20563984D02*
X11821134Y-20602079D01*
X11897325Y-20563984D02*
X11897325Y-20602079D01*
X12192563Y-20840174D02*
X12183039Y-20830650D01*
X12183039Y-20830650D02*
X12163991Y-20802079D01*
X12163991Y-20802079D02*
X12154468Y-20783031D01*
X12154468Y-20783031D02*
X12144944Y-20754460D01*
X12144944Y-20754460D02*
X12135420Y-20706841D01*
X12135420Y-20706841D02*
X12135420Y-20668746D01*
X12135420Y-20668746D02*
X12144944Y-20621127D01*
X12144944Y-20621127D02*
X12154468Y-20592555D01*
X12154468Y-20592555D02*
X12163991Y-20573508D01*
X12163991Y-20573508D02*
X12183039Y-20544936D01*
X12183039Y-20544936D02*
X12192563Y-20535412D01*
X12259229Y-20583031D02*
X12268753Y-20573508D01*
X12268753Y-20573508D02*
X12287801Y-20563984D01*
X12287801Y-20563984D02*
X12335420Y-20563984D01*
X12335420Y-20563984D02*
X12354468Y-20573508D01*
X12354468Y-20573508D02*
X12363991Y-20583031D01*
X12363991Y-20583031D02*
X12373515Y-20602079D01*
X12373515Y-20602079D02*
X12373515Y-20621127D01*
X12373515Y-20621127D02*
X12363991Y-20649698D01*
X12363991Y-20649698D02*
X12249706Y-20763984D01*
X12249706Y-20763984D02*
X12373515Y-20763984D01*
X12611610Y-20763984D02*
X12611610Y-20563984D01*
X12697325Y-20763984D02*
X12697325Y-20659222D01*
X12697325Y-20659222D02*
X12687801Y-20640174D01*
X12687801Y-20640174D02*
X12668753Y-20630650D01*
X12668753Y-20630650D02*
X12640182Y-20630650D01*
X12640182Y-20630650D02*
X12621134Y-20640174D01*
X12621134Y-20640174D02*
X12611610Y-20649698D01*
X12821134Y-20763984D02*
X12802087Y-20754460D01*
X12802087Y-20754460D02*
X12792563Y-20744936D01*
X12792563Y-20744936D02*
X12783039Y-20725889D01*
X12783039Y-20725889D02*
X12783039Y-20668746D01*
X12783039Y-20668746D02*
X12792563Y-20649698D01*
X12792563Y-20649698D02*
X12802087Y-20640174D01*
X12802087Y-20640174D02*
X12821134Y-20630650D01*
X12821134Y-20630650D02*
X12849706Y-20630650D01*
X12849706Y-20630650D02*
X12868753Y-20640174D01*
X12868753Y-20640174D02*
X12878277Y-20649698D01*
X12878277Y-20649698D02*
X12887801Y-20668746D01*
X12887801Y-20668746D02*
X12887801Y-20725889D01*
X12887801Y-20725889D02*
X12878277Y-20744936D01*
X12878277Y-20744936D02*
X12868753Y-20754460D01*
X12868753Y-20754460D02*
X12849706Y-20763984D01*
X12849706Y-20763984D02*
X12821134Y-20763984D01*
X13002087Y-20763984D02*
X12983039Y-20754460D01*
X12983039Y-20754460D02*
X12973515Y-20735412D01*
X12973515Y-20735412D02*
X12973515Y-20563984D01*
X13154468Y-20754460D02*
X13135420Y-20763984D01*
X13135420Y-20763984D02*
X13097325Y-20763984D01*
X13097325Y-20763984D02*
X13078277Y-20754460D01*
X13078277Y-20754460D02*
X13068753Y-20735412D01*
X13068753Y-20735412D02*
X13068753Y-20659222D01*
X13068753Y-20659222D02*
X13078277Y-20640174D01*
X13078277Y-20640174D02*
X13097325Y-20630650D01*
X13097325Y-20630650D02*
X13135420Y-20630650D01*
X13135420Y-20630650D02*
X13154468Y-20640174D01*
X13154468Y-20640174D02*
X13163991Y-20659222D01*
X13163991Y-20659222D02*
X13163991Y-20678270D01*
X13163991Y-20678270D02*
X13068753Y-20697317D01*
X13240182Y-20754460D02*
X13259230Y-20763984D01*
X13259230Y-20763984D02*
X13297325Y-20763984D01*
X13297325Y-20763984D02*
X13316372Y-20754460D01*
X13316372Y-20754460D02*
X13325896Y-20735412D01*
X13325896Y-20735412D02*
X13325896Y-20725889D01*
X13325896Y-20725889D02*
X13316372Y-20706841D01*
X13316372Y-20706841D02*
X13297325Y-20697317D01*
X13297325Y-20697317D02*
X13268753Y-20697317D01*
X13268753Y-20697317D02*
X13249706Y-20687793D01*
X13249706Y-20687793D02*
X13240182Y-20668746D01*
X13240182Y-20668746D02*
X13240182Y-20659222D01*
X13240182Y-20659222D02*
X13249706Y-20640174D01*
X13249706Y-20640174D02*
X13268753Y-20630650D01*
X13268753Y-20630650D02*
X13297325Y-20630650D01*
X13297325Y-20630650D02*
X13316372Y-20640174D01*
X13392563Y-20840174D02*
X13402087Y-20830650D01*
X13402087Y-20830650D02*
X13421134Y-20802079D01*
X13421134Y-20802079D02*
X13430658Y-20783031D01*
X13430658Y-20783031D02*
X13440182Y-20754460D01*
X13440182Y-20754460D02*
X13449706Y-20706841D01*
X13449706Y-20706841D02*
X13449706Y-20668746D01*
X13449706Y-20668746D02*
X13440182Y-20621127D01*
X13440182Y-20621127D02*
X13430658Y-20592555D01*
X13430658Y-20592555D02*
X13421134Y-20573508D01*
X13421134Y-20573508D02*
X13402087Y-20544936D01*
X13402087Y-20544936D02*
X13392563Y-20535412D01*
X13754468Y-20840174D02*
X13744944Y-20830650D01*
X13744944Y-20830650D02*
X13725896Y-20802079D01*
X13725896Y-20802079D02*
X13716372Y-20783031D01*
X13716372Y-20783031D02*
X13706849Y-20754460D01*
X13706849Y-20754460D02*
X13697325Y-20706841D01*
X13697325Y-20706841D02*
X13697325Y-20668746D01*
X13697325Y-20668746D02*
X13706849Y-20621127D01*
X13706849Y-20621127D02*
X13716372Y-20592555D01*
X13716372Y-20592555D02*
X13725896Y-20573508D01*
X13725896Y-20573508D02*
X13744944Y-20544936D01*
X13744944Y-20544936D02*
X13754468Y-20535412D01*
X13830658Y-20630650D02*
X13830658Y-20763984D01*
X13830658Y-20649698D02*
X13840182Y-20640174D01*
X13840182Y-20640174D02*
X13859230Y-20630650D01*
X13859230Y-20630650D02*
X13887801Y-20630650D01*
X13887801Y-20630650D02*
X13906849Y-20640174D01*
X13906849Y-20640174D02*
X13916372Y-20659222D01*
X13916372Y-20659222D02*
X13916372Y-20763984D01*
X14040182Y-20763984D02*
X14021134Y-20754460D01*
X14021134Y-20754460D02*
X14011611Y-20744936D01*
X14011611Y-20744936D02*
X14002087Y-20725889D01*
X14002087Y-20725889D02*
X14002087Y-20668746D01*
X14002087Y-20668746D02*
X14011611Y-20649698D01*
X14011611Y-20649698D02*
X14021134Y-20640174D01*
X14021134Y-20640174D02*
X14040182Y-20630650D01*
X14040182Y-20630650D02*
X14068753Y-20630650D01*
X14068753Y-20630650D02*
X14087801Y-20640174D01*
X14087801Y-20640174D02*
X14097325Y-20649698D01*
X14097325Y-20649698D02*
X14106849Y-20668746D01*
X14106849Y-20668746D02*
X14106849Y-20725889D01*
X14106849Y-20725889D02*
X14097325Y-20744936D01*
X14097325Y-20744936D02*
X14087801Y-20754460D01*
X14087801Y-20754460D02*
X14068753Y-20763984D01*
X14068753Y-20763984D02*
X14040182Y-20763984D01*
X14163992Y-20630650D02*
X14240182Y-20630650D01*
X14192563Y-20563984D02*
X14192563Y-20735412D01*
X14192563Y-20735412D02*
X14202087Y-20754460D01*
X14202087Y-20754460D02*
X14221134Y-20763984D01*
X14221134Y-20763984D02*
X14240182Y-20763984D01*
X14459230Y-20630650D02*
X14459230Y-20830650D01*
X14459230Y-20640174D02*
X14478277Y-20630650D01*
X14478277Y-20630650D02*
X14516373Y-20630650D01*
X14516373Y-20630650D02*
X14535420Y-20640174D01*
X14535420Y-20640174D02*
X14544944Y-20649698D01*
X14544944Y-20649698D02*
X14554468Y-20668746D01*
X14554468Y-20668746D02*
X14554468Y-20725889D01*
X14554468Y-20725889D02*
X14544944Y-20744936D01*
X14544944Y-20744936D02*
X14535420Y-20754460D01*
X14535420Y-20754460D02*
X14516373Y-20763984D01*
X14516373Y-20763984D02*
X14478277Y-20763984D01*
X14478277Y-20763984D02*
X14459230Y-20754460D01*
X14668753Y-20763984D02*
X14649706Y-20754460D01*
X14649706Y-20754460D02*
X14640182Y-20735412D01*
X14640182Y-20735412D02*
X14640182Y-20563984D01*
X14830658Y-20763984D02*
X14830658Y-20659222D01*
X14830658Y-20659222D02*
X14821134Y-20640174D01*
X14821134Y-20640174D02*
X14802087Y-20630650D01*
X14802087Y-20630650D02*
X14763992Y-20630650D01*
X14763992Y-20630650D02*
X14744944Y-20640174D01*
X14830658Y-20754460D02*
X14811611Y-20763984D01*
X14811611Y-20763984D02*
X14763992Y-20763984D01*
X14763992Y-20763984D02*
X14744944Y-20754460D01*
X14744944Y-20754460D02*
X14735420Y-20735412D01*
X14735420Y-20735412D02*
X14735420Y-20716365D01*
X14735420Y-20716365D02*
X14744944Y-20697317D01*
X14744944Y-20697317D02*
X14763992Y-20687793D01*
X14763992Y-20687793D02*
X14811611Y-20687793D01*
X14811611Y-20687793D02*
X14830658Y-20678270D01*
X14897325Y-20630650D02*
X14973515Y-20630650D01*
X14925896Y-20563984D02*
X14925896Y-20735412D01*
X14925896Y-20735412D02*
X14935420Y-20754460D01*
X14935420Y-20754460D02*
X14954468Y-20763984D01*
X14954468Y-20763984D02*
X14973515Y-20763984D01*
X15116373Y-20754460D02*
X15097325Y-20763984D01*
X15097325Y-20763984D02*
X15059230Y-20763984D01*
X15059230Y-20763984D02*
X15040182Y-20754460D01*
X15040182Y-20754460D02*
X15030658Y-20735412D01*
X15030658Y-20735412D02*
X15030658Y-20659222D01*
X15030658Y-20659222D02*
X15040182Y-20640174D01*
X15040182Y-20640174D02*
X15059230Y-20630650D01*
X15059230Y-20630650D02*
X15097325Y-20630650D01*
X15097325Y-20630650D02*
X15116373Y-20640174D01*
X15116373Y-20640174D02*
X15125896Y-20659222D01*
X15125896Y-20659222D02*
X15125896Y-20678270D01*
X15125896Y-20678270D02*
X15030658Y-20697317D01*
X15297325Y-20763984D02*
X15297325Y-20563984D01*
X15297325Y-20754460D02*
X15278277Y-20763984D01*
X15278277Y-20763984D02*
X15240182Y-20763984D01*
X15240182Y-20763984D02*
X15221134Y-20754460D01*
X15221134Y-20754460D02*
X15211611Y-20744936D01*
X15211611Y-20744936D02*
X15202087Y-20725889D01*
X15202087Y-20725889D02*
X15202087Y-20668746D01*
X15202087Y-20668746D02*
X15211611Y-20649698D01*
X15211611Y-20649698D02*
X15221134Y-20640174D01*
X15221134Y-20640174D02*
X15240182Y-20630650D01*
X15240182Y-20630650D02*
X15278277Y-20630650D01*
X15278277Y-20630650D02*
X15297325Y-20640174D01*
X15373515Y-20840174D02*
X15383039Y-20830650D01*
X15383039Y-20830650D02*
X15402087Y-20802079D01*
X15402087Y-20802079D02*
X15411611Y-20783031D01*
X15411611Y-20783031D02*
X15421134Y-20754460D01*
X15421134Y-20754460D02*
X15430658Y-20706841D01*
X15430658Y-20706841D02*
X15430658Y-20668746D01*
X15430658Y-20668746D02*
X15421134Y-20621127D01*
X15421134Y-20621127D02*
X15411611Y-20592555D01*
X15411611Y-20592555D02*
X15402087Y-20573508D01*
X15402087Y-20573508D02*
X15383039Y-20544936D01*
X15383039Y-20544936D02*
X15373515Y-20535412D01*
M02*
