%TF.GenerationSoftware,KiCad,Pcbnew,9.0.7*%
%TF.CreationDate,2026-02-25T21:26:21-06:00*%
%TF.ProjectId,circle_of_life,63697263-6c65-45f6-9f66-5f6c6966652e,rev?*%
%TF.SameCoordinates,Original*%
%TF.FileFunction,Paste,Top*%
%TF.FilePolarity,Positive*%
%FSLAX46Y46*%
G04 Gerber Fmt 4.6, Leading zero omitted, Abs format (unit mm)*
G04 Created by KiCad (PCBNEW 9.0.7) date 2026-02-25 21:26:21*
%MOMM*%
%LPD*%
G01*
G04 APERTURE LIST*
G04 Aperture macros list*
%AMRoundRect*
0 Rectangle with rounded corners*
0 $1 Rounding radius*
0 $2 $3 $4 $5 $6 $7 $8 $9 X,Y pos of 4 corners*
0 Add a 4 corners polygon primitive as box body*
4,1,4,$2,$3,$4,$5,$6,$7,$8,$9,$2,$3,0*
0 Add four circle primitives for the rounded corners*
1,1,$1+$1,$2,$3*
1,1,$1+$1,$4,$5*
1,1,$1+$1,$6,$7*
1,1,$1+$1,$8,$9*
0 Add four rect primitives between the rounded corners*
20,1,$1+$1,$2,$3,$4,$5,0*
20,1,$1+$1,$4,$5,$6,$7,0*
20,1,$1+$1,$6,$7,$8,$9,0*
20,1,$1+$1,$8,$9,$2,$3,0*%
G04 Aperture macros list end*
%ADD10R,0.950000X0.800000*%
%ADD11R,0.800000X0.950000*%
%ADD12R,6.000000X2.010000*%
%ADD13RoundRect,0.250000X0.475000X-0.250000X0.475000X0.250000X-0.475000X0.250000X-0.475000X-0.250000X0*%
%ADD14R,1.117600X1.447800*%
%ADD15R,1.450000X0.600000*%
%ADD16R,1.450000X0.300000*%
%ADD17R,1.100000X1.800000*%
%ADD18RoundRect,0.250000X-0.250000X-0.475000X0.250000X-0.475000X0.250000X0.475000X-0.250000X0.475000X0*%
%ADD19RoundRect,0.200000X-0.200000X-0.275000X0.200000X-0.275000X0.200000X0.275000X-0.200000X0.275000X0*%
%ADD20RoundRect,0.225000X0.225000X0.250000X-0.225000X0.250000X-0.225000X-0.250000X0.225000X-0.250000X0*%
%ADD21R,0.900000X1.950000*%
%ADD22R,3.200000X1.950000*%
%ADD23RoundRect,0.200000X0.275000X-0.200000X0.275000X0.200000X-0.275000X0.200000X-0.275000X-0.200000X0*%
%ADD24R,0.600000X0.450000*%
%ADD25RoundRect,0.250000X0.250000X0.475000X-0.250000X0.475000X-0.250000X-0.475000X0.250000X-0.475000X0*%
%ADD26R,1.300000X0.600000*%
%ADD27RoundRect,0.225000X-0.250000X0.225000X-0.250000X-0.225000X0.250000X-0.225000X0.250000X0.225000X0*%
%ADD28R,0.950000X1.400000*%
%ADD29R,1.750000X1.000000*%
%ADD30RoundRect,0.150000X-0.587500X-0.150000X0.587500X-0.150000X0.587500X0.150000X-0.587500X0.150000X0*%
%ADD31R,1.400000X0.950000*%
%ADD32R,0.450000X0.600000*%
%ADD33R,0.300000X0.800000*%
%ADD34R,0.800000X0.300000*%
%ADD35R,3.750000X2.750000*%
%ADD36R,0.900000X1.500000*%
%ADD37R,1.500000X0.900000*%
%ADD38R,0.900000X0.900000*%
%ADD39RoundRect,0.218750X0.218750X0.256250X-0.218750X0.256250X-0.218750X-0.256250X0.218750X-0.256250X0*%
%ADD40RoundRect,0.218750X-0.218750X-0.256250X0.218750X-0.256250X0.218750X0.256250X-0.218750X0.256250X0*%
%ADD41R,0.475000X0.300000*%
%ADD42R,3.450000X1.800000*%
%ADD43R,1.200000X0.750000*%
%ADD44R,1.000000X0.300000*%
%ADD45R,0.300000X1.000000*%
%ADD46R,3.350000X3.350000*%
%ADD47RoundRect,0.200000X-0.275000X0.200000X-0.275000X-0.200000X0.275000X-0.200000X0.275000X0.200000X0*%
%ADD48RoundRect,0.250000X-0.262500X-0.450000X0.262500X-0.450000X0.262500X0.450000X-0.262500X0.450000X0*%
%ADD49R,2.150000X2.250000*%
%ADD50R,5.100000X1.850000*%
%ADD51R,1.400000X1.300000*%
%ADD52RoundRect,0.250000X0.650000X-0.325000X0.650000X0.325000X-0.650000X0.325000X-0.650000X-0.325000X0*%
%ADD53R,2.070000X2.660000*%
%ADD54R,1.170000X1.920000*%
%ADD55R,1.700000X1.150000*%
%ADD56R,0.500000X0.600000*%
%ADD57R,3.150000X2.200000*%
%ADD58R,0.600000X1.200000*%
%ADD59R,1.803400X0.914400*%
G04 APERTURE END LIST*
D10*
%TO.C,R18*%
X148600000Y-112500000D03*
X148600000Y-110900000D03*
%TD*%
D11*
%TO.C,R9*%
X98050000Y-161180000D03*
X99650000Y-161180000D03*
%TD*%
D12*
%TO.C,L1*%
X138600000Y-123400000D03*
X138600000Y-119100000D03*
%TD*%
D13*
%TO.C,C18*%
X143700000Y-126350000D03*
X143700000Y-124450000D03*
%TD*%
D14*
%TO.C,C19*%
X143198300Y-121000000D03*
X145001700Y-121000000D03*
%TD*%
D10*
%TO.C,R11*%
X101620000Y-161130000D03*
X101620000Y-162730000D03*
%TD*%
D15*
%TO.C,P1*%
X95275000Y-147610000D03*
X95275000Y-148410000D03*
D16*
X95275000Y-149610000D03*
X95275000Y-150610000D03*
X95275000Y-151110000D03*
X95275000Y-152110000D03*
D15*
X95275000Y-153310000D03*
X95275000Y-154110000D03*
X95275000Y-154110000D03*
X95275000Y-153310000D03*
D16*
X95275000Y-152610000D03*
X95275000Y-151610000D03*
X95275000Y-150110000D03*
X95275000Y-149110000D03*
D15*
X95275000Y-148410000D03*
X95275000Y-147610000D03*
%TD*%
D17*
%TO.C,SW2*%
X131252935Y-141700000D03*
X131252935Y-147900000D03*
X127552935Y-141700000D03*
X127552935Y-147900000D03*
%TD*%
D10*
%TO.C,R24*%
X134902935Y-150950000D03*
X134902935Y-152550000D03*
%TD*%
D11*
%TO.C,R13*%
X153450000Y-161350000D03*
X151850000Y-161350000D03*
%TD*%
D17*
%TO.C,SW1*%
X131252935Y-151200000D03*
X131252935Y-157400000D03*
X127552935Y-151200000D03*
X127552935Y-157400000D03*
%TD*%
D10*
%TO.C,R25*%
X136902935Y-152950000D03*
X136902935Y-154550000D03*
%TD*%
D18*
%TO.C,C5*%
X132950000Y-181300000D03*
X134850000Y-181300000D03*
%TD*%
D19*
%TO.C,R33*%
X97675000Y-149300000D03*
X99325000Y-149300000D03*
%TD*%
D20*
%TO.C,C42*%
X103275000Y-180050000D03*
X101725000Y-180050000D03*
%TD*%
D21*
%TO.C,IC2*%
X118422935Y-161250000D03*
X120722935Y-161250000D03*
X123022935Y-161250000D03*
D22*
X120722935Y-155150000D03*
%TD*%
D23*
%TO.C,R37*%
X118052935Y-150527500D03*
X118052935Y-148877500D03*
%TD*%
D24*
%TO.C,C20*%
X142850000Y-115785000D03*
X142850000Y-114835000D03*
%TD*%
D25*
%TO.C,C44*%
X109102935Y-156250000D03*
X107202935Y-156250000D03*
%TD*%
%TO.C,C41*%
X130352935Y-139050000D03*
X128452935Y-139050000D03*
%TD*%
D10*
%TO.C,R10*%
X119400000Y-188100000D03*
X119400000Y-186500000D03*
%TD*%
D26*
%TO.C,Q2*%
X160331944Y-116750000D03*
X160331944Y-114850000D03*
X158231944Y-115800000D03*
%TD*%
D27*
%TO.C,C24*%
X152300000Y-113635000D03*
X152300000Y-115185000D03*
%TD*%
D25*
%TO.C,C15*%
X101550000Y-164930000D03*
X99650000Y-164930000D03*
%TD*%
D18*
%TO.C,C3*%
X132150000Y-179100000D03*
X134050000Y-179100000D03*
%TD*%
D19*
%TO.C,R30*%
X113497935Y-162450000D03*
X115147935Y-162450000D03*
%TD*%
D28*
%TO.C,R19*%
X151050000Y-123100000D03*
X152950000Y-123100000D03*
%TD*%
D25*
%TO.C,C23*%
X153350000Y-119800000D03*
X151450000Y-119800000D03*
%TD*%
D28*
%TO.C,R20*%
X152950000Y-125300000D03*
X151050000Y-125300000D03*
%TD*%
D18*
%TO.C,C1*%
X118022935Y-163900000D03*
X119922935Y-163900000D03*
%TD*%
D29*
%TO.C,R22*%
X148700000Y-125900000D03*
X148700000Y-122900000D03*
%TD*%
D25*
%TO.C,C2*%
X123422935Y-163900000D03*
X121522935Y-163900000D03*
%TD*%
D30*
%TO.C,Q4*%
X122215435Y-146752500D03*
X122215435Y-148652500D03*
X124090435Y-147702500D03*
%TD*%
D28*
%TO.C,R4*%
X138500000Y-165100000D03*
X140400000Y-165100000D03*
%TD*%
%TO.C,R6*%
X138150000Y-180800000D03*
X136250000Y-180800000D03*
%TD*%
%TO.C,R7*%
X138500000Y-162850000D03*
X140400000Y-162850000D03*
%TD*%
D27*
%TO.C,C45*%
X110652935Y-158375000D03*
X110652935Y-159925000D03*
%TD*%
D31*
%TO.C,R5*%
X137934540Y-184750000D03*
X137934540Y-182850000D03*
%TD*%
D32*
%TO.C,C21*%
X145575000Y-113060000D03*
X144625000Y-113060000D03*
%TD*%
D13*
%TO.C,C38*%
X133152935Y-152700000D03*
X133152935Y-150800000D03*
%TD*%
D33*
%TO.C,IC4*%
X145600000Y-119060000D03*
X146100000Y-119060000D03*
X146600000Y-119060000D03*
X147100000Y-119060000D03*
X147600000Y-119060000D03*
X148100000Y-119060000D03*
X148600000Y-119060000D03*
X149100000Y-119060000D03*
D34*
X149850000Y-118310000D03*
X149850000Y-117810000D03*
X149850000Y-117310000D03*
X149850000Y-116810000D03*
X149850000Y-116310000D03*
X149850000Y-115810000D03*
D33*
X149100000Y-115060000D03*
X148600000Y-115060000D03*
X148100000Y-115060000D03*
X147600000Y-115060000D03*
X147100000Y-115060000D03*
X146600000Y-115060000D03*
X146100000Y-115060000D03*
X145600000Y-115060000D03*
D34*
X144850000Y-115810000D03*
X144850000Y-116310000D03*
X144850000Y-116810000D03*
X144850000Y-117310000D03*
X144850000Y-117810000D03*
X144850000Y-118310000D03*
D35*
X147350000Y-117060000D03*
%TD*%
D11*
%TO.C,R8*%
X99650000Y-163180000D03*
X98050000Y-163180000D03*
%TD*%
D36*
%TO.C,IC1*%
X117420000Y-122000000D03*
X116150000Y-122000000D03*
X114880000Y-122000000D03*
X113610000Y-122000000D03*
X112340000Y-122000000D03*
X111070000Y-122000000D03*
X109800000Y-122000000D03*
X108530000Y-122000000D03*
X107260000Y-122000000D03*
X105990000Y-122000000D03*
X104720000Y-122000000D03*
X103450000Y-122000000D03*
X102180000Y-122000000D03*
X100910000Y-122000000D03*
D37*
X99660000Y-125035000D03*
X99660000Y-126305000D03*
X99660000Y-127575000D03*
X99660000Y-128845000D03*
X99660000Y-130115000D03*
X99660000Y-131385000D03*
X99660000Y-132655000D03*
X99660000Y-133925000D03*
X99660000Y-135195000D03*
X99660000Y-136465000D03*
D36*
X100910000Y-139500000D03*
X102180000Y-139500000D03*
X103450000Y-139500000D03*
X104720000Y-139500000D03*
X105990000Y-139500000D03*
X107260000Y-139500000D03*
X108530000Y-139500000D03*
X109800000Y-139500000D03*
X111070000Y-139500000D03*
X112340000Y-139500000D03*
X113610000Y-139500000D03*
X114880000Y-139500000D03*
X116150000Y-139500000D03*
X117420000Y-139500000D03*
D38*
X109700000Y-129250000D03*
X109700000Y-127850000D03*
X108300000Y-127850000D03*
X108300000Y-129250000D03*
X108300000Y-130650000D03*
X109700000Y-130650000D03*
X111100000Y-130650000D03*
X111100000Y-129250000D03*
X111100000Y-127850000D03*
%TD*%
D39*
%TO.C,D10*%
X117240435Y-143100000D03*
X115665435Y-143100000D03*
%TD*%
D18*
%TO.C,C28*%
X115750000Y-116300000D03*
X117650000Y-116300000D03*
%TD*%
D11*
%TO.C,R15*%
X153850000Y-109560000D03*
X155450000Y-109560000D03*
%TD*%
D40*
%TO.C,D9*%
X108965435Y-143100000D03*
X110540435Y-143100000D03*
%TD*%
D18*
%TO.C,C39*%
X133202935Y-154500000D03*
X135102935Y-154500000D03*
%TD*%
D41*
%TO.C,IC3*%
X133362000Y-182900000D03*
X133362000Y-183400000D03*
X133362000Y-183900000D03*
X135038000Y-183900000D03*
X135038000Y-183400000D03*
X135038000Y-182900000D03*
%TD*%
D26*
%TO.C,Q1*%
X153500000Y-167050000D03*
X153500000Y-165150000D03*
X151100000Y-166100000D03*
%TD*%
D42*
%TO.C,C9*%
X144400000Y-175600000D03*
X150300000Y-175600000D03*
%TD*%
D43*
%TO.C,D3*%
X140400000Y-168100000D03*
X137000000Y-168100000D03*
%TD*%
D44*
%TO.C,IC6*%
X110950000Y-152700000D03*
X110950000Y-153200000D03*
X110950000Y-153700000D03*
X110950000Y-154200000D03*
X110950000Y-154700000D03*
X110950000Y-155200000D03*
X110950000Y-155700000D03*
D45*
X111800000Y-156550000D03*
X112300000Y-156550000D03*
X112800000Y-156550000D03*
X113300000Y-156550000D03*
X113800000Y-156550000D03*
X114300000Y-156550000D03*
X114800000Y-156550000D03*
D44*
X115650000Y-155700000D03*
X115650000Y-155200000D03*
X115650000Y-154700000D03*
X115650000Y-154200000D03*
X115650000Y-153700000D03*
X115650000Y-153200000D03*
X115650000Y-152700000D03*
D45*
X114800000Y-151850000D03*
X114300000Y-151850000D03*
X113800000Y-151850000D03*
X113300000Y-151850000D03*
X112800000Y-151850000D03*
X112300000Y-151850000D03*
X111800000Y-151850000D03*
D46*
X113300000Y-154200000D03*
%TD*%
D47*
%TO.C,R39*%
X113902935Y-144875000D03*
X113902935Y-146525000D03*
%TD*%
D10*
%TO.C,R23*%
X155350000Y-114260000D03*
X155350000Y-115860000D03*
%TD*%
D48*
%TO.C,R3*%
X142287500Y-162850000D03*
X144112500Y-162850000D03*
%TD*%
D49*
%TO.C,D4*%
X157350000Y-162150000D03*
X157350000Y-166550000D03*
%TD*%
D50*
%TO.C,L2*%
X128600000Y-188300000D03*
X128600000Y-184300000D03*
%TD*%
D10*
%TO.C,R34*%
X110452935Y-146500000D03*
X110452935Y-144900000D03*
%TD*%
D51*
%TO.C,D2*%
X151600000Y-183850000D03*
X151600000Y-180950000D03*
%TD*%
D11*
%TO.C,R12*%
X151800000Y-163100000D03*
X153400000Y-163100000D03*
%TD*%
D52*
%TO.C,C43*%
X140100000Y-115275000D03*
X140100000Y-112325000D03*
%TD*%
D18*
%TO.C,C4*%
X132150000Y-176400000D03*
X134050000Y-176400000D03*
%TD*%
D10*
%TO.C,R1*%
X100250000Y-186500000D03*
X100250000Y-188100000D03*
%TD*%
D53*
%TO.C,F2*%
X156550000Y-187700000D03*
X151650000Y-187700000D03*
%TD*%
D54*
%TO.C,C6*%
X133430000Y-193800000D03*
X136170000Y-193800000D03*
%TD*%
D10*
%TO.C,R35*%
X115752935Y-146400000D03*
X115752935Y-144800000D03*
%TD*%
D23*
%TO.C,R29*%
X111822935Y-163975000D03*
X111822935Y-162325000D03*
%TD*%
D55*
%TO.C,R14*%
X160200000Y-107750000D03*
X160200000Y-110900000D03*
%TD*%
D19*
%TO.C,R32*%
X113425000Y-158300000D03*
X115075000Y-158300000D03*
%TD*%
D56*
%TO.C,D8*%
X105652935Y-153850000D03*
X105652935Y-152850000D03*
%TD*%
D57*
%TO.C,D1*%
X146350000Y-181400000D03*
X146350000Y-188400000D03*
%TD*%
D11*
%TO.C,R21*%
X150600000Y-109560000D03*
X152200000Y-109560000D03*
%TD*%
D47*
%TO.C,R36*%
X119952935Y-148877500D03*
X119952935Y-150527500D03*
%TD*%
D13*
%TO.C,C26*%
X155350000Y-113010000D03*
X155350000Y-111110000D03*
%TD*%
D18*
%TO.C,C40*%
X101875000Y-186550000D03*
X103775000Y-186550000D03*
%TD*%
%TO.C,C8*%
X132980000Y-195800000D03*
X134880000Y-195800000D03*
%TD*%
D56*
%TO.C,D11*%
X105552935Y-155150000D03*
X105552935Y-156150000D03*
%TD*%
D10*
%TO.C,R26*%
X96230000Y-120547158D03*
X96230000Y-118947158D03*
%TD*%
D11*
%TO.C,R28*%
X99650000Y-167560000D03*
X101250000Y-167560000D03*
%TD*%
D30*
%TO.C,Q3*%
X122177935Y-150652500D03*
X122177935Y-152552500D03*
X124052935Y-151602500D03*
%TD*%
D18*
%TO.C,C11*%
X142850000Y-168300000D03*
X144750000Y-168300000D03*
%TD*%
D54*
%TO.C,C7*%
X133430000Y-191300000D03*
X136170000Y-191300000D03*
%TD*%
D10*
%TO.C,R27*%
X114340000Y-186600000D03*
X114340000Y-188200000D03*
%TD*%
D54*
%TO.C,C27*%
X116200000Y-118500000D03*
X118940000Y-118500000D03*
%TD*%
D47*
%TO.C,R38*%
X112224284Y-144875000D03*
X112224284Y-146525000D03*
%TD*%
D58*
%TO.C,IC5*%
X102250000Y-182050000D03*
X101300000Y-182050000D03*
X100350000Y-182050000D03*
X100350000Y-184550000D03*
X101300000Y-184550000D03*
X102250000Y-184550000D03*
%TD*%
D18*
%TO.C,C10*%
X142850000Y-170300000D03*
X144750000Y-170300000D03*
%TD*%
D19*
%TO.C,R31*%
X113525000Y-160000000D03*
X115175000Y-160000000D03*
%TD*%
D59*
%TO.C,C17*%
X146000000Y-127397000D03*
X146000000Y-124603000D03*
%TD*%
M02*
