%TF.GenerationSoftware,KiCad,Pcbnew,9.0.7*%
%TF.CreationDate,2026-02-25T21:26:25-06:00*%
%TF.ProjectId,circle_of_life,63697263-6c65-45f6-9f66-5f6c6966652e,rev?*%
%TF.SameCoordinates,Original*%
%TF.FileFunction,Drillmap*%
%TF.FilePolarity,Positive*%
%FSLAX45Y45*%
G04 Gerber Fmt 4.5, Leading zero omitted, Abs format (unit mm)*
G04 Created by KiCad (PCBNEW 9.0.7) date 2026-02-25 21:26:25*
%MOMM*%
%LPD*%
G01*
G04 APERTURE LIST*
%ADD10C,0.050000*%
%ADD11C,0.200000*%
%ADD12C,0.100000*%
%ADD13C,0.110000*%
%ADD14C,0.130000*%
%ADD15C,0.310000*%
G04 APERTURE END LIST*
D10*
X8620000Y-10390000D02*
X17360000Y-10390000D01*
X17360000Y-20030000D01*
X8620000Y-20030000D01*
X8620000Y-10390000D01*
D11*
D12*
X9675000Y-16305000D02*
X9705000Y-16335000D01*
X9705000Y-16305000D02*
X9675000Y-16335000D01*
X9685000Y-15395000D02*
X9715000Y-15425000D01*
X9715000Y-15395000D02*
X9685000Y-15425000D01*
X9785000Y-15975000D02*
X9815000Y-16005000D01*
X9815000Y-15975000D02*
X9785000Y-16005000D01*
X9795000Y-12625000D02*
X9825000Y-12655000D01*
X9825000Y-12625000D02*
X9795000Y-12655000D01*
X9805000Y-13495000D02*
X9835000Y-13525000D01*
X9835000Y-13495000D02*
X9805000Y-13525000D01*
X9915000Y-12355000D02*
X9945000Y-12385000D01*
X9945000Y-12355000D02*
X9915000Y-12385000D01*
X9915000Y-14785000D02*
X9945000Y-14815000D01*
X9945000Y-14785000D02*
X9915000Y-14815000D01*
X9915000Y-18190000D02*
X9945000Y-18220000D01*
X9945000Y-18190000D02*
X9915000Y-18220000D01*
X10076000Y-12005000D02*
X10106000Y-12035000D01*
X10106000Y-12005000D02*
X10076000Y-12035000D01*
X10145000Y-17855000D02*
X10175000Y-17885000D01*
X10175000Y-17855000D02*
X10145000Y-17885000D01*
X10203000Y-12005000D02*
X10233000Y-12035000D01*
X10233000Y-12005000D02*
X10203000Y-12035000D01*
X10215000Y-16735000D02*
X10245000Y-16765000D01*
X10245000Y-16735000D02*
X10215000Y-16765000D01*
X10335000Y-12005000D02*
X10365000Y-12035000D01*
X10365000Y-12005000D02*
X10335000Y-12035000D01*
X10345000Y-18455000D02*
X10375000Y-18485000D01*
X10375000Y-18455000D02*
X10345000Y-18485000D01*
X10425000Y-15605000D02*
X10455000Y-15635000D01*
X10455000Y-15605000D02*
X10425000Y-15635000D01*
X10455000Y-12005000D02*
X10485000Y-12035000D01*
X10485000Y-12005000D02*
X10455000Y-12035000D01*
X10455000Y-15265000D02*
X10485000Y-15295000D01*
X10485000Y-15265000D02*
X10455000Y-15295000D01*
X10575000Y-12005000D02*
X10605000Y-12035000D01*
X10605000Y-12005000D02*
X10575000Y-12035000D01*
X10675000Y-13665000D02*
X10705000Y-13695000D01*
X10705000Y-13665000D02*
X10675000Y-13695000D01*
X10711000Y-12005000D02*
X10741000Y-12035000D01*
X10741000Y-12005000D02*
X10711000Y-12035000D01*
X10755000Y-14285000D02*
X10785000Y-14315000D01*
X10785000Y-14285000D02*
X10755000Y-14315000D01*
X10815000Y-12775000D02*
X10845000Y-12805000D01*
X10845000Y-12775000D02*
X10815000Y-12805000D01*
X10815000Y-12915000D02*
X10845000Y-12945000D01*
X10845000Y-12915000D02*
X10815000Y-12945000D01*
X10815000Y-13045000D02*
X10845000Y-13075000D01*
X10845000Y-13045000D02*
X10815000Y-13075000D01*
X10815000Y-15245000D02*
X10845000Y-15275000D01*
X10845000Y-15245000D02*
X10815000Y-15275000D01*
X10835000Y-12005000D02*
X10865000Y-12035000D01*
X10865000Y-12005000D02*
X10835000Y-12035000D01*
X10875000Y-15765000D02*
X10905000Y-15795000D01*
X10905000Y-15765000D02*
X10875000Y-15795000D01*
X10955000Y-12005000D02*
X10985000Y-12035000D01*
X10985000Y-12005000D02*
X10955000Y-12035000D01*
X10955000Y-12775000D02*
X10985000Y-12805000D01*
X10985000Y-12775000D02*
X10955000Y-12805000D01*
X10955000Y-12915000D02*
X10985000Y-12945000D01*
X10985000Y-12915000D02*
X10955000Y-12945000D01*
X10955000Y-13055000D02*
X10985000Y-13085000D01*
X10985000Y-13055000D02*
X10955000Y-13085000D01*
X11005000Y-11365000D02*
X11035000Y-11395000D01*
X11035000Y-11365000D02*
X11005000Y-11395000D01*
X11055000Y-16095000D02*
X11085000Y-16125000D01*
X11085000Y-16095000D02*
X11055000Y-16125000D01*
X11085000Y-11995000D02*
X11115000Y-12025000D01*
X11115000Y-11995000D02*
X11085000Y-12025000D01*
X11095000Y-12775000D02*
X11125000Y-12805000D01*
X11125000Y-12775000D02*
X11095000Y-12805000D01*
X11095000Y-12905000D02*
X11125000Y-12935000D01*
X11125000Y-12905000D02*
X11095000Y-12935000D01*
X11095000Y-13055000D02*
X11125000Y-13085000D01*
X11125000Y-13055000D02*
X11095000Y-13085000D01*
X11125000Y-14815000D02*
X11155000Y-14845000D01*
X11155000Y-14815000D02*
X11125000Y-14845000D01*
X11190293Y-15030000D02*
X11220293Y-15060000D01*
X11220293Y-15030000D02*
X11190293Y-15060000D01*
X11215000Y-13775000D02*
X11245000Y-13805000D01*
X11245000Y-13775000D02*
X11215000Y-13805000D01*
X11235000Y-15305000D02*
X11265000Y-15335000D01*
X11265000Y-15305000D02*
X11235000Y-15335000D01*
X11235000Y-15395000D02*
X11265000Y-15425000D01*
X11265000Y-15395000D02*
X11235000Y-15425000D01*
X11235000Y-15485000D02*
X11265000Y-15515000D01*
X11265000Y-15485000D02*
X11235000Y-15515000D01*
X11315000Y-15305000D02*
X11345000Y-15335000D01*
X11345000Y-15305000D02*
X11315000Y-15335000D01*
X11325000Y-15395000D02*
X11355000Y-15425000D01*
X11355000Y-15395000D02*
X11325000Y-15425000D01*
X11325000Y-15485000D02*
X11355000Y-15515000D01*
X11355000Y-15485000D02*
X11325000Y-15515000D01*
X11346000Y-13775000D02*
X11376000Y-13805000D01*
X11376000Y-13775000D02*
X11346000Y-13805000D01*
X11405000Y-15305000D02*
X11435000Y-15335000D01*
X11435000Y-15305000D02*
X11405000Y-15335000D01*
X11405000Y-15395000D02*
X11435000Y-15425000D01*
X11435000Y-15395000D02*
X11405000Y-15425000D01*
X11405000Y-15485000D02*
X11435000Y-15515000D01*
X11435000Y-15485000D02*
X11405000Y-15515000D01*
X11475000Y-12005000D02*
X11505000Y-12035000D01*
X11505000Y-12005000D02*
X11475000Y-12035000D01*
X11485000Y-14795000D02*
X11515000Y-14825000D01*
X11515000Y-14795000D02*
X11485000Y-14825000D01*
X11485000Y-14945000D02*
X11515000Y-14975000D01*
X11515000Y-14945000D02*
X11485000Y-14975000D01*
X11565000Y-18805000D02*
X11595000Y-18835000D01*
X11595000Y-18805000D02*
X11565000Y-18835000D01*
X11625000Y-15815000D02*
X11655000Y-15845000D01*
X11655000Y-15815000D02*
X11625000Y-15845000D01*
X11625000Y-16235000D02*
X11655000Y-16265000D01*
X11655000Y-16235000D02*
X11625000Y-16265000D01*
X11715000Y-14150000D02*
X11745000Y-14180000D01*
X11745000Y-14150000D02*
X11715000Y-14180000D01*
X11765000Y-18795000D02*
X11795000Y-18825000D01*
X11795000Y-18795000D02*
X11765000Y-18825000D01*
X11875000Y-11615000D02*
X11905000Y-11645000D01*
X11905000Y-11615000D02*
X11875000Y-11645000D01*
X11965000Y-16525000D02*
X11995000Y-16555000D01*
X11995000Y-16525000D02*
X11965000Y-16555000D01*
X12057293Y-15500000D02*
X12087293Y-15530000D01*
X12087293Y-15500000D02*
X12057293Y-15530000D01*
X12155000Y-16535000D02*
X12185000Y-16565000D01*
X12185000Y-16535000D02*
X12155000Y-16565000D01*
X12255000Y-12947000D02*
X12285000Y-12977000D01*
X12285000Y-12947000D02*
X12255000Y-12977000D01*
X12265000Y-13201000D02*
X12295000Y-13231000D01*
X12295000Y-13201000D02*
X12265000Y-13231000D01*
X12392772Y-15255000D02*
X12422772Y-15285000D01*
X12422772Y-15255000D02*
X12392772Y-15285000D01*
X12645000Y-13755000D02*
X12675000Y-13785000D01*
X12675000Y-13755000D02*
X12645000Y-13785000D01*
X13185000Y-13895000D02*
X13215000Y-13925000D01*
X13215000Y-13895000D02*
X13185000Y-13925000D01*
X13295000Y-14775000D02*
X13325000Y-14805000D01*
X13325000Y-14775000D02*
X13295000Y-14805000D01*
X13315000Y-18489000D02*
X13345000Y-18519000D01*
X13345000Y-18489000D02*
X13315000Y-18519000D01*
X13325000Y-15675000D02*
X13355000Y-15705000D01*
X13355000Y-15675000D02*
X13325000Y-15705000D01*
X13405000Y-18489000D02*
X13435000Y-18519000D01*
X13435000Y-18489000D02*
X13405000Y-18519000D01*
X13495000Y-18489000D02*
X13525000Y-18519000D01*
X13525000Y-18489000D02*
X13495000Y-18519000D01*
X13525000Y-11015000D02*
X13555000Y-11045000D01*
X13555000Y-11015000D02*
X13525000Y-11045000D01*
X13595000Y-17885000D02*
X13625000Y-17915000D01*
X13625000Y-17885000D02*
X13595000Y-17915000D01*
X13598800Y-18369000D02*
X13628800Y-18399000D01*
X13628800Y-18369000D02*
X13598800Y-18399000D01*
X13605000Y-19565000D02*
X13635000Y-19595000D01*
X13635000Y-19565000D02*
X13605000Y-19595000D01*
X13675000Y-16485000D02*
X13705000Y-16515000D01*
X13705000Y-16485000D02*
X13675000Y-16515000D01*
X14015000Y-16085000D02*
X14045000Y-16115000D01*
X14045000Y-16085000D02*
X14015000Y-16115000D01*
X14025000Y-17002500D02*
X14055000Y-17032500D01*
X14055000Y-17002500D02*
X14025000Y-17032500D01*
X14265000Y-11305000D02*
X14295000Y-11335000D01*
X14295000Y-11305000D02*
X14265000Y-11335000D01*
X14365000Y-12745000D02*
X14395000Y-12775000D01*
X14395000Y-12745000D02*
X14365000Y-12775000D01*
X14585000Y-11605000D02*
X14615000Y-11635000D01*
X14615000Y-11605000D02*
X14585000Y-11635000D01*
X14585000Y-11695000D02*
X14615000Y-11725000D01*
X14615000Y-11695000D02*
X14585000Y-11725000D01*
X14585000Y-11775000D02*
X14615000Y-11805000D01*
X14615000Y-11775000D02*
X14585000Y-11805000D01*
X14605000Y-17015000D02*
X14635000Y-17045000D01*
X14635000Y-17015000D02*
X14605000Y-17045000D01*
X14615000Y-11205000D02*
X14645000Y-11235000D01*
X14645000Y-11205000D02*
X14615000Y-11235000D01*
X14625000Y-12055000D02*
X14655000Y-12085000D01*
X14655000Y-12055000D02*
X14625000Y-12085000D01*
X14665000Y-11605000D02*
X14695000Y-11635000D01*
X14695000Y-11605000D02*
X14665000Y-11635000D01*
X14675000Y-11695000D02*
X14705000Y-11725000D01*
X14705000Y-11695000D02*
X14675000Y-11725000D01*
X14675000Y-11775000D02*
X14705000Y-11805000D01*
X14705000Y-11775000D02*
X14675000Y-11805000D01*
X14715000Y-11075000D02*
X14745000Y-11105000D01*
X14745000Y-11075000D02*
X14715000Y-11105000D01*
X14715000Y-11205000D02*
X14745000Y-11235000D01*
X14745000Y-11205000D02*
X14715000Y-11235000D01*
X14755000Y-11605000D02*
X14785000Y-11635000D01*
X14785000Y-11605000D02*
X14755000Y-11635000D01*
X14765000Y-11695000D02*
X14795000Y-11725000D01*
X14795000Y-11695000D02*
X14765000Y-11725000D01*
X14765000Y-11775000D02*
X14795000Y-11805000D01*
X14795000Y-11775000D02*
X14765000Y-11805000D01*
X14845000Y-11605000D02*
X14875000Y-11635000D01*
X14875000Y-11605000D02*
X14845000Y-11635000D01*
X14845000Y-11695000D02*
X14875000Y-11725000D01*
X14875000Y-11695000D02*
X14845000Y-11725000D01*
X14845000Y-11775000D02*
X14875000Y-11805000D01*
X14875000Y-11775000D02*
X14845000Y-11805000D01*
X14915000Y-16595000D02*
X14945000Y-16625000D01*
X14945000Y-16595000D02*
X14915000Y-16625000D01*
X14925000Y-11385000D02*
X14955000Y-11415000D01*
X14955000Y-11385000D02*
X14925000Y-11415000D01*
X15025000Y-11435000D02*
X15055000Y-11465000D01*
X15055000Y-11435000D02*
X15025000Y-11465000D01*
X15095000Y-12685000D02*
X15125000Y-12715000D01*
X15125000Y-12685000D02*
X15095000Y-12715000D01*
X15145000Y-17815000D02*
X15175000Y-17845000D01*
X15175000Y-17815000D02*
X15145000Y-17845000D01*
X15165000Y-15975000D02*
X15195000Y-16005000D01*
X15195000Y-15975000D02*
X15165000Y-16005000D01*
X15215000Y-11225000D02*
X15245000Y-11255000D01*
X15245000Y-11225000D02*
X15215000Y-11255000D01*
X15325000Y-15975000D02*
X15355000Y-16005000D01*
X15355000Y-15975000D02*
X15325000Y-16005000D01*
X15445000Y-11965000D02*
X15475000Y-11995000D01*
X15475000Y-11965000D02*
X15445000Y-11995000D01*
X15655000Y-11835000D02*
X15685000Y-11865000D01*
X15685000Y-11835000D02*
X15655000Y-11865000D01*
X15675000Y-10945000D02*
X15705000Y-10975000D01*
X15705000Y-10945000D02*
X15675000Y-10975000D01*
X16018194Y-11365000D02*
X16048194Y-11395000D01*
X16048194Y-11365000D02*
X16018194Y-11395000D01*
X16165000Y-10765000D02*
X16195000Y-10795000D01*
X16195000Y-10765000D02*
X16165000Y-10795000D01*
X9048000Y-14654000D02*
G75*
G02*
X8988000Y-14654000I-30000J0D01*
G01*
X8988000Y-14654000D02*
G75*
G02*
X9048000Y-14654000I30000J0D01*
G01*
X9048000Y-14624000D02*
X8988000Y-14624000D01*
X8988000Y-14684000D02*
G75*
G02*
X8988000Y-14624000I0J30000D01*
G01*
X8988000Y-14684000D02*
X9048000Y-14684000D01*
X9048000Y-14684000D02*
G75*
G03*
X9048000Y-14624000I0J30000D01*
G01*
X9048000Y-15518000D02*
G75*
G02*
X8988000Y-15518000I-30000J0D01*
G01*
X8988000Y-15518000D02*
G75*
G02*
X9048000Y-15518000I30000J0D01*
G01*
X9048000Y-15488000D02*
X8988000Y-15488000D01*
X8988000Y-15548000D02*
G75*
G02*
X8988000Y-15488000I0J30000D01*
G01*
X8988000Y-15548000D02*
X9048000Y-15548000D01*
X9048000Y-15548000D02*
G75*
G03*
X9048000Y-15488000I0J30000D01*
G01*
X9466000Y-14654000D02*
G75*
G02*
X9406000Y-14654000I-30000J0D01*
G01*
X9406000Y-14654000D02*
G75*
G02*
X9466000Y-14654000I30000J0D01*
G01*
X9491000Y-14624000D02*
X9381000Y-14624000D01*
X9381000Y-14684000D02*
G75*
G02*
X9381000Y-14624000I0J30000D01*
G01*
X9381000Y-14684000D02*
X9491000Y-14684000D01*
X9491000Y-14684000D02*
G75*
G03*
X9491000Y-14624000I0J30000D01*
G01*
X9466000Y-15518000D02*
G75*
G02*
X9406000Y-15518000I-30000J0D01*
G01*
X9406000Y-15518000D02*
G75*
G02*
X9466000Y-15518000I30000J0D01*
G01*
X9491000Y-15488000D02*
X9381000Y-15488000D01*
X9381000Y-15548000D02*
G75*
G02*
X9381000Y-15488000I0J30000D01*
G01*
X9381000Y-15548000D02*
X9491000Y-15548000D01*
X9491000Y-15548000D02*
G75*
G03*
X9491000Y-15488000I0J30000D01*
G01*
X13185000Y-17125000D02*
X13185000Y-17195000D01*
X13150000Y-17160000D02*
X13220000Y-17160000D01*
X13435000Y-17125000D02*
X13435000Y-17195000D01*
X13400000Y-17160000D02*
X13470000Y-17160000D01*
X13740000Y-12835000D02*
X13740000Y-12905000D01*
X13705000Y-12870000D02*
X13775000Y-12870000D01*
X13990000Y-12835000D02*
X13990000Y-12905000D01*
X13955000Y-12870000D02*
X14025000Y-12870000D01*
X9125785Y-18383285D02*
X9125785Y-18326716D01*
X9069216Y-18326716D01*
X9069216Y-18383285D01*
X9125785Y-18383285D01*
X9625785Y-18383285D02*
X9625785Y-18326716D01*
X9569216Y-18326716D01*
X9569216Y-18383285D01*
X9625785Y-18383285D01*
X12848284Y-19278285D02*
X12848284Y-19221716D01*
X12791715Y-19221716D01*
X12791715Y-19278285D01*
X12848284Y-19278285D01*
X12848284Y-19628285D02*
X12848284Y-19571716D01*
X12791715Y-19571716D01*
X12791715Y-19628285D01*
X12848284Y-19628285D01*
X15613284Y-15456284D02*
X15613284Y-15399715D01*
X15556715Y-15399715D01*
X15556715Y-15456284D01*
X15613284Y-15456284D01*
X15613284Y-15806284D02*
X15613284Y-15749715D01*
X15556715Y-15749715D01*
X15556715Y-15806284D01*
X15613284Y-15806284D01*
X9179000Y-11890000D02*
X9224000Y-11845000D01*
X9179000Y-11800000D01*
X9134000Y-11845000D01*
X9179000Y-11890000D01*
X9179000Y-12144000D02*
X9224000Y-12099000D01*
X9179000Y-12054000D01*
X9134000Y-12099000D01*
X9179000Y-12144000D01*
X9910000Y-17251000D02*
X9955000Y-17206000D01*
X9910000Y-17161000D01*
X9865000Y-17206000D01*
X9910000Y-17251000D01*
X10164000Y-17251000D02*
X10209000Y-17206000D01*
X10164000Y-17161000D01*
X10119000Y-17206000D01*
X10164000Y-17251000D01*
X11009000Y-18475000D02*
X11054000Y-18430000D01*
X11009000Y-18385000D01*
X10964000Y-18430000D01*
X11009000Y-18475000D01*
X11009000Y-18729000D02*
X11054000Y-18684000D01*
X11009000Y-18639000D01*
X10964000Y-18684000D01*
X11009000Y-18729000D01*
X9330000Y-13350000D02*
X9430000Y-13450000D01*
X9430000Y-13350000D02*
X9330000Y-13450000D01*
X9430000Y-13400000D02*
G75*
G02*
X9330000Y-13400000I-50000J0D01*
G01*
X9330000Y-13400000D02*
G75*
G02*
X9430000Y-13400000I50000J0D01*
G01*
X9330000Y-13604000D02*
X9430000Y-13704000D01*
X9430000Y-13604000D02*
X9330000Y-13704000D01*
X9430000Y-13654000D02*
G75*
G02*
X9330000Y-13654000I-50000J0D01*
G01*
X9330000Y-13654000D02*
G75*
G02*
X9430000Y-13654000I50000J0D01*
G01*
X9330000Y-13858000D02*
X9430000Y-13958000D01*
X9430000Y-13858000D02*
X9330000Y-13958000D01*
X9430000Y-13908000D02*
G75*
G02*
X9330000Y-13908000I-50000J0D01*
G01*
X9330000Y-13908000D02*
G75*
G02*
X9430000Y-13908000I50000J0D01*
G01*
X9330000Y-14112000D02*
X9430000Y-14212000D01*
X9430000Y-14112000D02*
X9330000Y-14212000D01*
X9430000Y-14162000D02*
G75*
G02*
X9330000Y-14162000I-50000J0D01*
G01*
X9330000Y-14162000D02*
G75*
G02*
X9430000Y-14162000I50000J0D01*
G01*
X12840000Y-12658000D02*
X12940000Y-12758000D01*
X12940000Y-12658000D02*
X12840000Y-12758000D01*
X12940000Y-12708000D02*
G75*
G02*
X12840000Y-12708000I-50000J0D01*
G01*
X12840000Y-12708000D02*
G75*
G02*
X12940000Y-12708000I50000J0D01*
G01*
X12840000Y-12912000D02*
X12940000Y-13012000D01*
X12940000Y-12912000D02*
X12840000Y-13012000D01*
X12940000Y-12962000D02*
G75*
G02*
X12840000Y-12962000I-50000J0D01*
G01*
X12840000Y-12962000D02*
G75*
G02*
X12940000Y-12962000I50000J0D01*
G01*
X12840000Y-13166000D02*
X12940000Y-13266000D01*
X12940000Y-13166000D02*
X12840000Y-13266000D01*
X12940000Y-13216000D02*
G75*
G02*
X12840000Y-13216000I-50000J0D01*
G01*
X12840000Y-13216000D02*
G75*
G02*
X12940000Y-13216000I50000J0D01*
G01*
X12840000Y-13420000D02*
X12940000Y-13520000D01*
X12940000Y-13420000D02*
X12840000Y-13520000D01*
X12940000Y-13470000D02*
G75*
G02*
X12840000Y-13470000I-50000J0D01*
G01*
X12840000Y-13470000D02*
G75*
G02*
X12940000Y-13470000I50000J0D01*
G01*
D13*
X16665000Y-15881000D02*
X16775000Y-15991000D01*
X16775000Y-15881000D02*
X16665000Y-15991000D01*
X16720000Y-15881000D02*
X16720000Y-15991000D01*
X16665000Y-15936000D02*
X16775000Y-15936000D01*
X16665000Y-16389000D02*
X16775000Y-16499000D01*
X16775000Y-16389000D02*
X16665000Y-16499000D01*
X16720000Y-16389000D02*
X16720000Y-16499000D01*
X16665000Y-16444000D02*
X16775000Y-16444000D01*
X16738194Y-11201959D02*
X16848194Y-11311959D01*
X16848194Y-11201959D02*
X16738194Y-11311959D01*
X16793194Y-11201959D02*
X16793194Y-11311959D01*
X16738194Y-11256959D02*
X16848194Y-11256959D01*
X16738194Y-11709959D02*
X16848194Y-11819959D01*
X16848194Y-11709959D02*
X16738194Y-11819959D01*
X16793194Y-11709959D02*
X16793194Y-11819959D01*
X16738194Y-11764959D02*
X16848194Y-11764959D01*
D14*
X9135000Y-19365000D02*
X9265000Y-19495000D01*
X9265000Y-19365000D02*
X9135000Y-19495000D01*
X9245962Y-19475962D02*
X9245962Y-19384038D01*
X9154038Y-19384038D01*
X9154038Y-19475962D01*
X9245962Y-19475962D01*
X9143000Y-16125000D02*
X9273000Y-16255000D01*
X9273000Y-16125000D02*
X9143000Y-16255000D01*
X9253962Y-16235962D02*
X9253962Y-16144038D01*
X9162038Y-16144038D01*
X9162038Y-16235962D01*
X9253962Y-16235962D01*
X9143000Y-16625000D02*
X9273000Y-16755000D01*
X9273000Y-16625000D02*
X9143000Y-16755000D01*
X9253962Y-16735962D02*
X9253962Y-16644038D01*
X9162038Y-16644038D01*
X9162038Y-16735962D01*
X9253962Y-16735962D01*
X9143000Y-17125000D02*
X9273000Y-17255000D01*
X9273000Y-17125000D02*
X9143000Y-17255000D01*
X9253962Y-17235962D02*
X9253962Y-17144038D01*
X9162038Y-17144038D01*
X9162038Y-17235962D01*
X9253962Y-17235962D01*
X9158000Y-11030000D02*
X9288000Y-11160000D01*
X9288000Y-11030000D02*
X9158000Y-11160000D01*
X9268962Y-11140962D02*
X9268962Y-11049038D01*
X9177038Y-11049038D01*
X9177038Y-11140962D01*
X9268962Y-11140962D01*
X9635000Y-19365000D02*
X9765000Y-19495000D01*
X9765000Y-19365000D02*
X9635000Y-19495000D01*
X9745962Y-19475962D02*
X9745962Y-19384038D01*
X9654038Y-19384038D01*
X9654038Y-19475962D01*
X9745962Y-19475962D01*
X9658000Y-11030000D02*
X9788000Y-11160000D01*
X9788000Y-11030000D02*
X9658000Y-11160000D01*
X9768962Y-11140962D02*
X9768962Y-11049038D01*
X9677038Y-11049038D01*
X9677038Y-11140962D01*
X9768962Y-11140962D01*
X10135000Y-19365000D02*
X10265000Y-19495000D01*
X10265000Y-19365000D02*
X10135000Y-19495000D01*
X10245962Y-19475962D02*
X10245962Y-19384038D01*
X10154038Y-19384038D01*
X10154038Y-19475962D01*
X10245962Y-19475962D01*
X10158000Y-11030000D02*
X10288000Y-11160000D01*
X10288000Y-11030000D02*
X10158000Y-11160000D01*
X10268962Y-11140962D02*
X10268962Y-11049038D01*
X10177038Y-11049038D01*
X10177038Y-11140962D01*
X10268962Y-11140962D01*
X10995000Y-19355000D02*
X11125000Y-19485000D01*
X11125000Y-19355000D02*
X10995000Y-19485000D01*
X11105962Y-19465962D02*
X11105962Y-19374038D01*
X11014038Y-19374038D01*
X11014038Y-19465962D01*
X11105962Y-19465962D01*
X11495000Y-19355000D02*
X11625000Y-19485000D01*
X11625000Y-19355000D02*
X11495000Y-19485000D01*
X11605962Y-19465962D02*
X11605962Y-19374038D01*
X11514038Y-19374038D01*
X11514038Y-19465962D01*
X11605962Y-19465962D01*
X11995000Y-19355000D02*
X12125000Y-19485000D01*
X12125000Y-19355000D02*
X11995000Y-19485000D01*
X12105962Y-19465962D02*
X12105962Y-19374038D01*
X12014038Y-19374038D01*
X12014038Y-19465962D01*
X12105962Y-19465962D01*
D15*
X15585000Y-17565000D02*
X15895000Y-17875000D01*
X15895000Y-17565000D02*
X15585000Y-17875000D01*
X15740000Y-17875000D02*
X15895000Y-17720000D01*
X15740000Y-17565000D01*
X15585000Y-17720000D01*
X15740000Y-17875000D01*
X15885000Y-17085000D02*
X16195000Y-17395000D01*
X16195000Y-17085000D02*
X15885000Y-17395000D01*
X16040000Y-17395000D02*
X16195000Y-17240000D01*
X16040000Y-17085000D01*
X15885000Y-17240000D01*
X16040000Y-17395000D01*
X16165000Y-17565000D02*
X16475000Y-17875000D01*
X16475000Y-17565000D02*
X16165000Y-17875000D01*
X16320000Y-17875000D02*
X16475000Y-17720000D01*
X16320000Y-17565000D01*
X16165000Y-17720000D01*
X16320000Y-17875000D01*
D11*
X8878277Y-20343984D02*
X8878277Y-20143984D01*
X8878277Y-20143984D02*
X8925896Y-20143984D01*
X8925896Y-20143984D02*
X8954467Y-20153508D01*
X8954467Y-20153508D02*
X8973515Y-20172555D01*
X8973515Y-20172555D02*
X8983039Y-20191603D01*
X8983039Y-20191603D02*
X8992563Y-20229698D01*
X8992563Y-20229698D02*
X8992563Y-20258270D01*
X8992563Y-20258270D02*
X8983039Y-20296365D01*
X8983039Y-20296365D02*
X8973515Y-20315412D01*
X8973515Y-20315412D02*
X8954467Y-20334460D01*
X8954467Y-20334460D02*
X8925896Y-20343984D01*
X8925896Y-20343984D02*
X8878277Y-20343984D01*
X9078277Y-20343984D02*
X9078277Y-20210650D01*
X9078277Y-20248746D02*
X9087801Y-20229698D01*
X9087801Y-20229698D02*
X9097324Y-20220174D01*
X9097324Y-20220174D02*
X9116372Y-20210650D01*
X9116372Y-20210650D02*
X9135420Y-20210650D01*
X9202086Y-20343984D02*
X9202086Y-20210650D01*
X9202086Y-20143984D02*
X9192563Y-20153508D01*
X9192563Y-20153508D02*
X9202086Y-20163031D01*
X9202086Y-20163031D02*
X9211610Y-20153508D01*
X9211610Y-20153508D02*
X9202086Y-20143984D01*
X9202086Y-20143984D02*
X9202086Y-20163031D01*
X9325896Y-20343984D02*
X9306848Y-20334460D01*
X9306848Y-20334460D02*
X9297324Y-20315412D01*
X9297324Y-20315412D02*
X9297324Y-20143984D01*
X9430658Y-20343984D02*
X9411610Y-20334460D01*
X9411610Y-20334460D02*
X9402086Y-20315412D01*
X9402086Y-20315412D02*
X9402086Y-20143984D01*
X9659229Y-20343984D02*
X9659229Y-20143984D01*
X9659229Y-20143984D02*
X9725896Y-20286841D01*
X9725896Y-20286841D02*
X9792563Y-20143984D01*
X9792563Y-20143984D02*
X9792563Y-20343984D01*
X9973515Y-20343984D02*
X9973515Y-20239222D01*
X9973515Y-20239222D02*
X9963991Y-20220174D01*
X9963991Y-20220174D02*
X9944944Y-20210650D01*
X9944944Y-20210650D02*
X9906848Y-20210650D01*
X9906848Y-20210650D02*
X9887801Y-20220174D01*
X9973515Y-20334460D02*
X9954467Y-20343984D01*
X9954467Y-20343984D02*
X9906848Y-20343984D01*
X9906848Y-20343984D02*
X9887801Y-20334460D01*
X9887801Y-20334460D02*
X9878277Y-20315412D01*
X9878277Y-20315412D02*
X9878277Y-20296365D01*
X9878277Y-20296365D02*
X9887801Y-20277317D01*
X9887801Y-20277317D02*
X9906848Y-20267793D01*
X9906848Y-20267793D02*
X9954467Y-20267793D01*
X9954467Y-20267793D02*
X9973515Y-20258270D01*
X10068753Y-20210650D02*
X10068753Y-20410650D01*
X10068753Y-20220174D02*
X10087801Y-20210650D01*
X10087801Y-20210650D02*
X10125896Y-20210650D01*
X10125896Y-20210650D02*
X10144944Y-20220174D01*
X10144944Y-20220174D02*
X10154467Y-20229698D01*
X10154467Y-20229698D02*
X10163991Y-20248746D01*
X10163991Y-20248746D02*
X10163991Y-20305889D01*
X10163991Y-20305889D02*
X10154467Y-20324936D01*
X10154467Y-20324936D02*
X10144944Y-20334460D01*
X10144944Y-20334460D02*
X10125896Y-20343984D01*
X10125896Y-20343984D02*
X10087801Y-20343984D01*
X10087801Y-20343984D02*
X10068753Y-20334460D01*
X10249705Y-20324936D02*
X10259229Y-20334460D01*
X10259229Y-20334460D02*
X10249705Y-20343984D01*
X10249705Y-20343984D02*
X10240182Y-20334460D01*
X10240182Y-20334460D02*
X10249705Y-20324936D01*
X10249705Y-20324936D02*
X10249705Y-20343984D01*
X10249705Y-20220174D02*
X10259229Y-20229698D01*
X10259229Y-20229698D02*
X10249705Y-20239222D01*
X10249705Y-20239222D02*
X10240182Y-20229698D01*
X10240182Y-20229698D02*
X10249705Y-20220174D01*
X10249705Y-20220174D02*
X10249705Y-20239222D01*
D12*
X8587500Y-20657500D02*
X8617500Y-20687500D01*
X8617500Y-20657500D02*
X8587500Y-20687500D01*
D11*
X8916372Y-20563984D02*
X8935420Y-20563984D01*
X8935420Y-20563984D02*
X8954467Y-20573508D01*
X8954467Y-20573508D02*
X8963991Y-20583031D01*
X8963991Y-20583031D02*
X8973515Y-20602079D01*
X8973515Y-20602079D02*
X8983039Y-20640174D01*
X8983039Y-20640174D02*
X8983039Y-20687793D01*
X8983039Y-20687793D02*
X8973515Y-20725889D01*
X8973515Y-20725889D02*
X8963991Y-20744936D01*
X8963991Y-20744936D02*
X8954467Y-20754460D01*
X8954467Y-20754460D02*
X8935420Y-20763984D01*
X8935420Y-20763984D02*
X8916372Y-20763984D01*
X8916372Y-20763984D02*
X8897324Y-20754460D01*
X8897324Y-20754460D02*
X8887801Y-20744936D01*
X8887801Y-20744936D02*
X8878277Y-20725889D01*
X8878277Y-20725889D02*
X8868753Y-20687793D01*
X8868753Y-20687793D02*
X8868753Y-20640174D01*
X8868753Y-20640174D02*
X8878277Y-20602079D01*
X8878277Y-20602079D02*
X8887801Y-20583031D01*
X8887801Y-20583031D02*
X8897324Y-20573508D01*
X8897324Y-20573508D02*
X8916372Y-20563984D01*
X9068753Y-20744936D02*
X9078277Y-20754460D01*
X9078277Y-20754460D02*
X9068753Y-20763984D01*
X9068753Y-20763984D02*
X9059229Y-20754460D01*
X9059229Y-20754460D02*
X9068753Y-20744936D01*
X9068753Y-20744936D02*
X9068753Y-20763984D01*
X9144944Y-20563984D02*
X9268753Y-20563984D01*
X9268753Y-20563984D02*
X9202086Y-20640174D01*
X9202086Y-20640174D02*
X9230658Y-20640174D01*
X9230658Y-20640174D02*
X9249705Y-20649698D01*
X9249705Y-20649698D02*
X9259229Y-20659222D01*
X9259229Y-20659222D02*
X9268753Y-20678270D01*
X9268753Y-20678270D02*
X9268753Y-20725889D01*
X9268753Y-20725889D02*
X9259229Y-20744936D01*
X9259229Y-20744936D02*
X9249705Y-20754460D01*
X9249705Y-20754460D02*
X9230658Y-20763984D01*
X9230658Y-20763984D02*
X9173515Y-20763984D01*
X9173515Y-20763984D02*
X9154467Y-20754460D01*
X9154467Y-20754460D02*
X9144944Y-20744936D01*
X9392563Y-20563984D02*
X9411610Y-20563984D01*
X9411610Y-20563984D02*
X9430658Y-20573508D01*
X9430658Y-20573508D02*
X9440182Y-20583031D01*
X9440182Y-20583031D02*
X9449705Y-20602079D01*
X9449705Y-20602079D02*
X9459229Y-20640174D01*
X9459229Y-20640174D02*
X9459229Y-20687793D01*
X9459229Y-20687793D02*
X9449705Y-20725889D01*
X9449705Y-20725889D02*
X9440182Y-20744936D01*
X9440182Y-20744936D02*
X9430658Y-20754460D01*
X9430658Y-20754460D02*
X9411610Y-20763984D01*
X9411610Y-20763984D02*
X9392563Y-20763984D01*
X9392563Y-20763984D02*
X9373515Y-20754460D01*
X9373515Y-20754460D02*
X9363991Y-20744936D01*
X9363991Y-20744936D02*
X9354467Y-20725889D01*
X9354467Y-20725889D02*
X9344944Y-20687793D01*
X9344944Y-20687793D02*
X9344944Y-20640174D01*
X9344944Y-20640174D02*
X9354467Y-20602079D01*
X9354467Y-20602079D02*
X9363991Y-20583031D01*
X9363991Y-20583031D02*
X9373515Y-20573508D01*
X9373515Y-20573508D02*
X9392563Y-20563984D01*
X9583039Y-20563984D02*
X9602086Y-20563984D01*
X9602086Y-20563984D02*
X9621134Y-20573508D01*
X9621134Y-20573508D02*
X9630658Y-20583031D01*
X9630658Y-20583031D02*
X9640182Y-20602079D01*
X9640182Y-20602079D02*
X9649705Y-20640174D01*
X9649705Y-20640174D02*
X9649705Y-20687793D01*
X9649705Y-20687793D02*
X9640182Y-20725889D01*
X9640182Y-20725889D02*
X9630658Y-20744936D01*
X9630658Y-20744936D02*
X9621134Y-20754460D01*
X9621134Y-20754460D02*
X9602086Y-20763984D01*
X9602086Y-20763984D02*
X9583039Y-20763984D01*
X9583039Y-20763984D02*
X9563991Y-20754460D01*
X9563991Y-20754460D02*
X9554467Y-20744936D01*
X9554467Y-20744936D02*
X9544944Y-20725889D01*
X9544944Y-20725889D02*
X9535420Y-20687793D01*
X9535420Y-20687793D02*
X9535420Y-20640174D01*
X9535420Y-20640174D02*
X9544944Y-20602079D01*
X9544944Y-20602079D02*
X9554467Y-20583031D01*
X9554467Y-20583031D02*
X9563991Y-20573508D01*
X9563991Y-20573508D02*
X9583039Y-20563984D01*
X9735420Y-20763984D02*
X9735420Y-20630650D01*
X9735420Y-20649698D02*
X9744944Y-20640174D01*
X9744944Y-20640174D02*
X9763991Y-20630650D01*
X9763991Y-20630650D02*
X9792563Y-20630650D01*
X9792563Y-20630650D02*
X9811610Y-20640174D01*
X9811610Y-20640174D02*
X9821134Y-20659222D01*
X9821134Y-20659222D02*
X9821134Y-20763984D01*
X9821134Y-20659222D02*
X9830658Y-20640174D01*
X9830658Y-20640174D02*
X9849705Y-20630650D01*
X9849705Y-20630650D02*
X9878277Y-20630650D01*
X9878277Y-20630650D02*
X9897325Y-20640174D01*
X9897325Y-20640174D02*
X9906848Y-20659222D01*
X9906848Y-20659222D02*
X9906848Y-20763984D01*
X10002086Y-20763984D02*
X10002086Y-20630650D01*
X10002086Y-20649698D02*
X10011610Y-20640174D01*
X10011610Y-20640174D02*
X10030658Y-20630650D01*
X10030658Y-20630650D02*
X10059229Y-20630650D01*
X10059229Y-20630650D02*
X10078277Y-20640174D01*
X10078277Y-20640174D02*
X10087801Y-20659222D01*
X10087801Y-20659222D02*
X10087801Y-20763984D01*
X10087801Y-20659222D02*
X10097325Y-20640174D01*
X10097325Y-20640174D02*
X10116372Y-20630650D01*
X10116372Y-20630650D02*
X10144944Y-20630650D01*
X10144944Y-20630650D02*
X10163991Y-20640174D01*
X10163991Y-20640174D02*
X10173515Y-20659222D01*
X10173515Y-20659222D02*
X10173515Y-20763984D01*
X10563991Y-20554460D02*
X10392563Y-20811603D01*
X10821134Y-20563984D02*
X10840182Y-20563984D01*
X10840182Y-20563984D02*
X10859229Y-20573508D01*
X10859229Y-20573508D02*
X10868753Y-20583031D01*
X10868753Y-20583031D02*
X10878277Y-20602079D01*
X10878277Y-20602079D02*
X10887801Y-20640174D01*
X10887801Y-20640174D02*
X10887801Y-20687793D01*
X10887801Y-20687793D02*
X10878277Y-20725889D01*
X10878277Y-20725889D02*
X10868753Y-20744936D01*
X10868753Y-20744936D02*
X10859229Y-20754460D01*
X10859229Y-20754460D02*
X10840182Y-20763984D01*
X10840182Y-20763984D02*
X10821134Y-20763984D01*
X10821134Y-20763984D02*
X10802087Y-20754460D01*
X10802087Y-20754460D02*
X10792563Y-20744936D01*
X10792563Y-20744936D02*
X10783039Y-20725889D01*
X10783039Y-20725889D02*
X10773515Y-20687793D01*
X10773515Y-20687793D02*
X10773515Y-20640174D01*
X10773515Y-20640174D02*
X10783039Y-20602079D01*
X10783039Y-20602079D02*
X10792563Y-20583031D01*
X10792563Y-20583031D02*
X10802087Y-20573508D01*
X10802087Y-20573508D02*
X10821134Y-20563984D01*
X10973515Y-20744936D02*
X10983039Y-20754460D01*
X10983039Y-20754460D02*
X10973515Y-20763984D01*
X10973515Y-20763984D02*
X10963991Y-20754460D01*
X10963991Y-20754460D02*
X10973515Y-20744936D01*
X10973515Y-20744936D02*
X10973515Y-20763984D01*
X11106848Y-20563984D02*
X11125896Y-20563984D01*
X11125896Y-20563984D02*
X11144944Y-20573508D01*
X11144944Y-20573508D02*
X11154468Y-20583031D01*
X11154468Y-20583031D02*
X11163991Y-20602079D01*
X11163991Y-20602079D02*
X11173515Y-20640174D01*
X11173515Y-20640174D02*
X11173515Y-20687793D01*
X11173515Y-20687793D02*
X11163991Y-20725889D01*
X11163991Y-20725889D02*
X11154468Y-20744936D01*
X11154468Y-20744936D02*
X11144944Y-20754460D01*
X11144944Y-20754460D02*
X11125896Y-20763984D01*
X11125896Y-20763984D02*
X11106848Y-20763984D01*
X11106848Y-20763984D02*
X11087801Y-20754460D01*
X11087801Y-20754460D02*
X11078277Y-20744936D01*
X11078277Y-20744936D02*
X11068753Y-20725889D01*
X11068753Y-20725889D02*
X11059229Y-20687793D01*
X11059229Y-20687793D02*
X11059229Y-20640174D01*
X11059229Y-20640174D02*
X11068753Y-20602079D01*
X11068753Y-20602079D02*
X11078277Y-20583031D01*
X11078277Y-20583031D02*
X11087801Y-20573508D01*
X11087801Y-20573508D02*
X11106848Y-20563984D01*
X11363991Y-20763984D02*
X11249706Y-20763984D01*
X11306848Y-20763984D02*
X11306848Y-20563984D01*
X11306848Y-20563984D02*
X11287801Y-20592555D01*
X11287801Y-20592555D02*
X11268753Y-20611603D01*
X11268753Y-20611603D02*
X11249706Y-20621127D01*
X11554467Y-20763984D02*
X11440182Y-20763984D01*
X11497325Y-20763984D02*
X11497325Y-20563984D01*
X11497325Y-20563984D02*
X11478277Y-20592555D01*
X11478277Y-20592555D02*
X11459229Y-20611603D01*
X11459229Y-20611603D02*
X11440182Y-20621127D01*
X11668753Y-20649698D02*
X11649706Y-20640174D01*
X11649706Y-20640174D02*
X11640182Y-20630650D01*
X11640182Y-20630650D02*
X11630658Y-20611603D01*
X11630658Y-20611603D02*
X11630658Y-20602079D01*
X11630658Y-20602079D02*
X11640182Y-20583031D01*
X11640182Y-20583031D02*
X11649706Y-20573508D01*
X11649706Y-20573508D02*
X11668753Y-20563984D01*
X11668753Y-20563984D02*
X11706848Y-20563984D01*
X11706848Y-20563984D02*
X11725896Y-20573508D01*
X11725896Y-20573508D02*
X11735420Y-20583031D01*
X11735420Y-20583031D02*
X11744944Y-20602079D01*
X11744944Y-20602079D02*
X11744944Y-20611603D01*
X11744944Y-20611603D02*
X11735420Y-20630650D01*
X11735420Y-20630650D02*
X11725896Y-20640174D01*
X11725896Y-20640174D02*
X11706848Y-20649698D01*
X11706848Y-20649698D02*
X11668753Y-20649698D01*
X11668753Y-20649698D02*
X11649706Y-20659222D01*
X11649706Y-20659222D02*
X11640182Y-20668746D01*
X11640182Y-20668746D02*
X11630658Y-20687793D01*
X11630658Y-20687793D02*
X11630658Y-20725889D01*
X11630658Y-20725889D02*
X11640182Y-20744936D01*
X11640182Y-20744936D02*
X11649706Y-20754460D01*
X11649706Y-20754460D02*
X11668753Y-20763984D01*
X11668753Y-20763984D02*
X11706848Y-20763984D01*
X11706848Y-20763984D02*
X11725896Y-20754460D01*
X11725896Y-20754460D02*
X11735420Y-20744936D01*
X11735420Y-20744936D02*
X11744944Y-20725889D01*
X11744944Y-20725889D02*
X11744944Y-20687793D01*
X11744944Y-20687793D02*
X11735420Y-20668746D01*
X11735420Y-20668746D02*
X11725896Y-20659222D01*
X11725896Y-20659222D02*
X11706848Y-20649698D01*
X11821134Y-20563984D02*
X11821134Y-20602079D01*
X11897325Y-20563984D02*
X11897325Y-20602079D01*
X12192563Y-20840174D02*
X12183039Y-20830650D01*
X12183039Y-20830650D02*
X12163991Y-20802079D01*
X12163991Y-20802079D02*
X12154468Y-20783031D01*
X12154468Y-20783031D02*
X12144944Y-20754460D01*
X12144944Y-20754460D02*
X12135420Y-20706841D01*
X12135420Y-20706841D02*
X12135420Y-20668746D01*
X12135420Y-20668746D02*
X12144944Y-20621127D01*
X12144944Y-20621127D02*
X12154468Y-20592555D01*
X12154468Y-20592555D02*
X12163991Y-20573508D01*
X12163991Y-20573508D02*
X12183039Y-20544936D01*
X12183039Y-20544936D02*
X12192563Y-20535412D01*
X12373515Y-20763984D02*
X12259229Y-20763984D01*
X12316372Y-20763984D02*
X12316372Y-20563984D01*
X12316372Y-20563984D02*
X12297325Y-20592555D01*
X12297325Y-20592555D02*
X12278277Y-20611603D01*
X12278277Y-20611603D02*
X12259229Y-20621127D01*
X12563991Y-20763984D02*
X12449706Y-20763984D01*
X12506848Y-20763984D02*
X12506848Y-20563984D01*
X12506848Y-20563984D02*
X12487801Y-20592555D01*
X12487801Y-20592555D02*
X12468753Y-20611603D01*
X12468753Y-20611603D02*
X12449706Y-20621127D01*
X12754468Y-20763984D02*
X12640182Y-20763984D01*
X12697325Y-20763984D02*
X12697325Y-20563984D01*
X12697325Y-20563984D02*
X12678277Y-20592555D01*
X12678277Y-20592555D02*
X12659229Y-20611603D01*
X12659229Y-20611603D02*
X12640182Y-20621127D01*
X12992563Y-20763984D02*
X12992563Y-20563984D01*
X13078277Y-20763984D02*
X13078277Y-20659222D01*
X13078277Y-20659222D02*
X13068753Y-20640174D01*
X13068753Y-20640174D02*
X13049706Y-20630650D01*
X13049706Y-20630650D02*
X13021134Y-20630650D01*
X13021134Y-20630650D02*
X13002087Y-20640174D01*
X13002087Y-20640174D02*
X12992563Y-20649698D01*
X13202087Y-20763984D02*
X13183039Y-20754460D01*
X13183039Y-20754460D02*
X13173515Y-20744936D01*
X13173515Y-20744936D02*
X13163991Y-20725889D01*
X13163991Y-20725889D02*
X13163991Y-20668746D01*
X13163991Y-20668746D02*
X13173515Y-20649698D01*
X13173515Y-20649698D02*
X13183039Y-20640174D01*
X13183039Y-20640174D02*
X13202087Y-20630650D01*
X13202087Y-20630650D02*
X13230658Y-20630650D01*
X13230658Y-20630650D02*
X13249706Y-20640174D01*
X13249706Y-20640174D02*
X13259230Y-20649698D01*
X13259230Y-20649698D02*
X13268753Y-20668746D01*
X13268753Y-20668746D02*
X13268753Y-20725889D01*
X13268753Y-20725889D02*
X13259230Y-20744936D01*
X13259230Y-20744936D02*
X13249706Y-20754460D01*
X13249706Y-20754460D02*
X13230658Y-20763984D01*
X13230658Y-20763984D02*
X13202087Y-20763984D01*
X13383039Y-20763984D02*
X13363991Y-20754460D01*
X13363991Y-20754460D02*
X13354468Y-20735412D01*
X13354468Y-20735412D02*
X13354468Y-20563984D01*
X13535420Y-20754460D02*
X13516372Y-20763984D01*
X13516372Y-20763984D02*
X13478277Y-20763984D01*
X13478277Y-20763984D02*
X13459230Y-20754460D01*
X13459230Y-20754460D02*
X13449706Y-20735412D01*
X13449706Y-20735412D02*
X13449706Y-20659222D01*
X13449706Y-20659222D02*
X13459230Y-20640174D01*
X13459230Y-20640174D02*
X13478277Y-20630650D01*
X13478277Y-20630650D02*
X13516372Y-20630650D01*
X13516372Y-20630650D02*
X13535420Y-20640174D01*
X13535420Y-20640174D02*
X13544944Y-20659222D01*
X13544944Y-20659222D02*
X13544944Y-20678270D01*
X13544944Y-20678270D02*
X13449706Y-20697317D01*
X13621134Y-20754460D02*
X13640182Y-20763984D01*
X13640182Y-20763984D02*
X13678277Y-20763984D01*
X13678277Y-20763984D02*
X13697325Y-20754460D01*
X13697325Y-20754460D02*
X13706849Y-20735412D01*
X13706849Y-20735412D02*
X13706849Y-20725889D01*
X13706849Y-20725889D02*
X13697325Y-20706841D01*
X13697325Y-20706841D02*
X13678277Y-20697317D01*
X13678277Y-20697317D02*
X13649706Y-20697317D01*
X13649706Y-20697317D02*
X13630658Y-20687793D01*
X13630658Y-20687793D02*
X13621134Y-20668746D01*
X13621134Y-20668746D02*
X13621134Y-20659222D01*
X13621134Y-20659222D02*
X13630658Y-20640174D01*
X13630658Y-20640174D02*
X13649706Y-20630650D01*
X13649706Y-20630650D02*
X13678277Y-20630650D01*
X13678277Y-20630650D02*
X13697325Y-20640174D01*
X13773515Y-20840174D02*
X13783039Y-20830650D01*
X13783039Y-20830650D02*
X13802087Y-20802079D01*
X13802087Y-20802079D02*
X13811611Y-20783031D01*
X13811611Y-20783031D02*
X13821134Y-20754460D01*
X13821134Y-20754460D02*
X13830658Y-20706841D01*
X13830658Y-20706841D02*
X13830658Y-20668746D01*
X13830658Y-20668746D02*
X13821134Y-20621127D01*
X13821134Y-20621127D02*
X13811611Y-20592555D01*
X13811611Y-20592555D02*
X13802087Y-20573508D01*
X13802087Y-20573508D02*
X13783039Y-20544936D01*
X13783039Y-20544936D02*
X13773515Y-20535412D01*
D12*
X8617500Y-20936500D02*
G75*
G02*
X8557500Y-20936500I-30000J0D01*
G01*
X8557500Y-20936500D02*
G75*
G02*
X8617500Y-20936500I30000J0D01*
G01*
D11*
X8916372Y-20827984D02*
X8935420Y-20827984D01*
X8935420Y-20827984D02*
X8954467Y-20837508D01*
X8954467Y-20837508D02*
X8963991Y-20847031D01*
X8963991Y-20847031D02*
X8973515Y-20866079D01*
X8973515Y-20866079D02*
X8983039Y-20904174D01*
X8983039Y-20904174D02*
X8983039Y-20951793D01*
X8983039Y-20951793D02*
X8973515Y-20989889D01*
X8973515Y-20989889D02*
X8963991Y-21008936D01*
X8963991Y-21008936D02*
X8954467Y-21018460D01*
X8954467Y-21018460D02*
X8935420Y-21027984D01*
X8935420Y-21027984D02*
X8916372Y-21027984D01*
X8916372Y-21027984D02*
X8897324Y-21018460D01*
X8897324Y-21018460D02*
X8887801Y-21008936D01*
X8887801Y-21008936D02*
X8878277Y-20989889D01*
X8878277Y-20989889D02*
X8868753Y-20951793D01*
X8868753Y-20951793D02*
X8868753Y-20904174D01*
X8868753Y-20904174D02*
X8878277Y-20866079D01*
X8878277Y-20866079D02*
X8887801Y-20847031D01*
X8887801Y-20847031D02*
X8897324Y-20837508D01*
X8897324Y-20837508D02*
X8916372Y-20827984D01*
X9068753Y-21008936D02*
X9078277Y-21018460D01*
X9078277Y-21018460D02*
X9068753Y-21027984D01*
X9068753Y-21027984D02*
X9059229Y-21018460D01*
X9059229Y-21018460D02*
X9068753Y-21008936D01*
X9068753Y-21008936D02*
X9068753Y-21027984D01*
X9249705Y-20827984D02*
X9211610Y-20827984D01*
X9211610Y-20827984D02*
X9192563Y-20837508D01*
X9192563Y-20837508D02*
X9183039Y-20847031D01*
X9183039Y-20847031D02*
X9163991Y-20875603D01*
X9163991Y-20875603D02*
X9154467Y-20913698D01*
X9154467Y-20913698D02*
X9154467Y-20989889D01*
X9154467Y-20989889D02*
X9163991Y-21008936D01*
X9163991Y-21008936D02*
X9173515Y-21018460D01*
X9173515Y-21018460D02*
X9192563Y-21027984D01*
X9192563Y-21027984D02*
X9230658Y-21027984D01*
X9230658Y-21027984D02*
X9249705Y-21018460D01*
X9249705Y-21018460D02*
X9259229Y-21008936D01*
X9259229Y-21008936D02*
X9268753Y-20989889D01*
X9268753Y-20989889D02*
X9268753Y-20942270D01*
X9268753Y-20942270D02*
X9259229Y-20923222D01*
X9259229Y-20923222D02*
X9249705Y-20913698D01*
X9249705Y-20913698D02*
X9230658Y-20904174D01*
X9230658Y-20904174D02*
X9192563Y-20904174D01*
X9192563Y-20904174D02*
X9173515Y-20913698D01*
X9173515Y-20913698D02*
X9163991Y-20923222D01*
X9163991Y-20923222D02*
X9154467Y-20942270D01*
X9392563Y-20827984D02*
X9411610Y-20827984D01*
X9411610Y-20827984D02*
X9430658Y-20837508D01*
X9430658Y-20837508D02*
X9440182Y-20847031D01*
X9440182Y-20847031D02*
X9449705Y-20866079D01*
X9449705Y-20866079D02*
X9459229Y-20904174D01*
X9459229Y-20904174D02*
X9459229Y-20951793D01*
X9459229Y-20951793D02*
X9449705Y-20989889D01*
X9449705Y-20989889D02*
X9440182Y-21008936D01*
X9440182Y-21008936D02*
X9430658Y-21018460D01*
X9430658Y-21018460D02*
X9411610Y-21027984D01*
X9411610Y-21027984D02*
X9392563Y-21027984D01*
X9392563Y-21027984D02*
X9373515Y-21018460D01*
X9373515Y-21018460D02*
X9363991Y-21008936D01*
X9363991Y-21008936D02*
X9354467Y-20989889D01*
X9354467Y-20989889D02*
X9344944Y-20951793D01*
X9344944Y-20951793D02*
X9344944Y-20904174D01*
X9344944Y-20904174D02*
X9354467Y-20866079D01*
X9354467Y-20866079D02*
X9363991Y-20847031D01*
X9363991Y-20847031D02*
X9373515Y-20837508D01*
X9373515Y-20837508D02*
X9392563Y-20827984D01*
X9583039Y-20827984D02*
X9602086Y-20827984D01*
X9602086Y-20827984D02*
X9621134Y-20837508D01*
X9621134Y-20837508D02*
X9630658Y-20847031D01*
X9630658Y-20847031D02*
X9640182Y-20866079D01*
X9640182Y-20866079D02*
X9649705Y-20904174D01*
X9649705Y-20904174D02*
X9649705Y-20951793D01*
X9649705Y-20951793D02*
X9640182Y-20989889D01*
X9640182Y-20989889D02*
X9630658Y-21008936D01*
X9630658Y-21008936D02*
X9621134Y-21018460D01*
X9621134Y-21018460D02*
X9602086Y-21027984D01*
X9602086Y-21027984D02*
X9583039Y-21027984D01*
X9583039Y-21027984D02*
X9563991Y-21018460D01*
X9563991Y-21018460D02*
X9554467Y-21008936D01*
X9554467Y-21008936D02*
X9544944Y-20989889D01*
X9544944Y-20989889D02*
X9535420Y-20951793D01*
X9535420Y-20951793D02*
X9535420Y-20904174D01*
X9535420Y-20904174D02*
X9544944Y-20866079D01*
X9544944Y-20866079D02*
X9554467Y-20847031D01*
X9554467Y-20847031D02*
X9563991Y-20837508D01*
X9563991Y-20837508D02*
X9583039Y-20827984D01*
X9735420Y-21027984D02*
X9735420Y-20894650D01*
X9735420Y-20913698D02*
X9744944Y-20904174D01*
X9744944Y-20904174D02*
X9763991Y-20894650D01*
X9763991Y-20894650D02*
X9792563Y-20894650D01*
X9792563Y-20894650D02*
X9811610Y-20904174D01*
X9811610Y-20904174D02*
X9821134Y-20923222D01*
X9821134Y-20923222D02*
X9821134Y-21027984D01*
X9821134Y-20923222D02*
X9830658Y-20904174D01*
X9830658Y-20904174D02*
X9849705Y-20894650D01*
X9849705Y-20894650D02*
X9878277Y-20894650D01*
X9878277Y-20894650D02*
X9897325Y-20904174D01*
X9897325Y-20904174D02*
X9906848Y-20923222D01*
X9906848Y-20923222D02*
X9906848Y-21027984D01*
X10002086Y-21027984D02*
X10002086Y-20894650D01*
X10002086Y-20913698D02*
X10011610Y-20904174D01*
X10011610Y-20904174D02*
X10030658Y-20894650D01*
X10030658Y-20894650D02*
X10059229Y-20894650D01*
X10059229Y-20894650D02*
X10078277Y-20904174D01*
X10078277Y-20904174D02*
X10087801Y-20923222D01*
X10087801Y-20923222D02*
X10087801Y-21027984D01*
X10087801Y-20923222D02*
X10097325Y-20904174D01*
X10097325Y-20904174D02*
X10116372Y-20894650D01*
X10116372Y-20894650D02*
X10144944Y-20894650D01*
X10144944Y-20894650D02*
X10163991Y-20904174D01*
X10163991Y-20904174D02*
X10173515Y-20923222D01*
X10173515Y-20923222D02*
X10173515Y-21027984D01*
X10563991Y-20818460D02*
X10392563Y-21075603D01*
X10821134Y-20827984D02*
X10840182Y-20827984D01*
X10840182Y-20827984D02*
X10859229Y-20837508D01*
X10859229Y-20837508D02*
X10868753Y-20847031D01*
X10868753Y-20847031D02*
X10878277Y-20866079D01*
X10878277Y-20866079D02*
X10887801Y-20904174D01*
X10887801Y-20904174D02*
X10887801Y-20951793D01*
X10887801Y-20951793D02*
X10878277Y-20989889D01*
X10878277Y-20989889D02*
X10868753Y-21008936D01*
X10868753Y-21008936D02*
X10859229Y-21018460D01*
X10859229Y-21018460D02*
X10840182Y-21027984D01*
X10840182Y-21027984D02*
X10821134Y-21027984D01*
X10821134Y-21027984D02*
X10802087Y-21018460D01*
X10802087Y-21018460D02*
X10792563Y-21008936D01*
X10792563Y-21008936D02*
X10783039Y-20989889D01*
X10783039Y-20989889D02*
X10773515Y-20951793D01*
X10773515Y-20951793D02*
X10773515Y-20904174D01*
X10773515Y-20904174D02*
X10783039Y-20866079D01*
X10783039Y-20866079D02*
X10792563Y-20847031D01*
X10792563Y-20847031D02*
X10802087Y-20837508D01*
X10802087Y-20837508D02*
X10821134Y-20827984D01*
X10973515Y-21008936D02*
X10983039Y-21018460D01*
X10983039Y-21018460D02*
X10973515Y-21027984D01*
X10973515Y-21027984D02*
X10963991Y-21018460D01*
X10963991Y-21018460D02*
X10973515Y-21008936D01*
X10973515Y-21008936D02*
X10973515Y-21027984D01*
X11106848Y-20827984D02*
X11125896Y-20827984D01*
X11125896Y-20827984D02*
X11144944Y-20837508D01*
X11144944Y-20837508D02*
X11154468Y-20847031D01*
X11154468Y-20847031D02*
X11163991Y-20866079D01*
X11163991Y-20866079D02*
X11173515Y-20904174D01*
X11173515Y-20904174D02*
X11173515Y-20951793D01*
X11173515Y-20951793D02*
X11163991Y-20989889D01*
X11163991Y-20989889D02*
X11154468Y-21008936D01*
X11154468Y-21008936D02*
X11144944Y-21018460D01*
X11144944Y-21018460D02*
X11125896Y-21027984D01*
X11125896Y-21027984D02*
X11106848Y-21027984D01*
X11106848Y-21027984D02*
X11087801Y-21018460D01*
X11087801Y-21018460D02*
X11078277Y-21008936D01*
X11078277Y-21008936D02*
X11068753Y-20989889D01*
X11068753Y-20989889D02*
X11059229Y-20951793D01*
X11059229Y-20951793D02*
X11059229Y-20904174D01*
X11059229Y-20904174D02*
X11068753Y-20866079D01*
X11068753Y-20866079D02*
X11078277Y-20847031D01*
X11078277Y-20847031D02*
X11087801Y-20837508D01*
X11087801Y-20837508D02*
X11106848Y-20827984D01*
X11249706Y-20847031D02*
X11259229Y-20837508D01*
X11259229Y-20837508D02*
X11278277Y-20827984D01*
X11278277Y-20827984D02*
X11325896Y-20827984D01*
X11325896Y-20827984D02*
X11344944Y-20837508D01*
X11344944Y-20837508D02*
X11354467Y-20847031D01*
X11354467Y-20847031D02*
X11363991Y-20866079D01*
X11363991Y-20866079D02*
X11363991Y-20885127D01*
X11363991Y-20885127D02*
X11354467Y-20913698D01*
X11354467Y-20913698D02*
X11240182Y-21027984D01*
X11240182Y-21027984D02*
X11363991Y-21027984D01*
X11430658Y-20827984D02*
X11554467Y-20827984D01*
X11554467Y-20827984D02*
X11487801Y-20904174D01*
X11487801Y-20904174D02*
X11516372Y-20904174D01*
X11516372Y-20904174D02*
X11535420Y-20913698D01*
X11535420Y-20913698D02*
X11544944Y-20923222D01*
X11544944Y-20923222D02*
X11554467Y-20942270D01*
X11554467Y-20942270D02*
X11554467Y-20989889D01*
X11554467Y-20989889D02*
X11544944Y-21008936D01*
X11544944Y-21008936D02*
X11535420Y-21018460D01*
X11535420Y-21018460D02*
X11516372Y-21027984D01*
X11516372Y-21027984D02*
X11459229Y-21027984D01*
X11459229Y-21027984D02*
X11440182Y-21018460D01*
X11440182Y-21018460D02*
X11430658Y-21008936D01*
X11725896Y-20827984D02*
X11687801Y-20827984D01*
X11687801Y-20827984D02*
X11668753Y-20837508D01*
X11668753Y-20837508D02*
X11659229Y-20847031D01*
X11659229Y-20847031D02*
X11640182Y-20875603D01*
X11640182Y-20875603D02*
X11630658Y-20913698D01*
X11630658Y-20913698D02*
X11630658Y-20989889D01*
X11630658Y-20989889D02*
X11640182Y-21008936D01*
X11640182Y-21008936D02*
X11649706Y-21018460D01*
X11649706Y-21018460D02*
X11668753Y-21027984D01*
X11668753Y-21027984D02*
X11706848Y-21027984D01*
X11706848Y-21027984D02*
X11725896Y-21018460D01*
X11725896Y-21018460D02*
X11735420Y-21008936D01*
X11735420Y-21008936D02*
X11744944Y-20989889D01*
X11744944Y-20989889D02*
X11744944Y-20942270D01*
X11744944Y-20942270D02*
X11735420Y-20923222D01*
X11735420Y-20923222D02*
X11725896Y-20913698D01*
X11725896Y-20913698D02*
X11706848Y-20904174D01*
X11706848Y-20904174D02*
X11668753Y-20904174D01*
X11668753Y-20904174D02*
X11649706Y-20913698D01*
X11649706Y-20913698D02*
X11640182Y-20923222D01*
X11640182Y-20923222D02*
X11630658Y-20942270D01*
X11821134Y-20827984D02*
X11821134Y-20866079D01*
X11897325Y-20827984D02*
X11897325Y-20866079D01*
X12192563Y-21104174D02*
X12183039Y-21094650D01*
X12183039Y-21094650D02*
X12163991Y-21066079D01*
X12163991Y-21066079D02*
X12154468Y-21047031D01*
X12154468Y-21047031D02*
X12144944Y-21018460D01*
X12144944Y-21018460D02*
X12135420Y-20970841D01*
X12135420Y-20970841D02*
X12135420Y-20932746D01*
X12135420Y-20932746D02*
X12144944Y-20885127D01*
X12144944Y-20885127D02*
X12154468Y-20856555D01*
X12154468Y-20856555D02*
X12163991Y-20837508D01*
X12163991Y-20837508D02*
X12183039Y-20808936D01*
X12183039Y-20808936D02*
X12192563Y-20799412D01*
X12306848Y-20827984D02*
X12325896Y-20827984D01*
X12325896Y-20827984D02*
X12344944Y-20837508D01*
X12344944Y-20837508D02*
X12354468Y-20847031D01*
X12354468Y-20847031D02*
X12363991Y-20866079D01*
X12363991Y-20866079D02*
X12373515Y-20904174D01*
X12373515Y-20904174D02*
X12373515Y-20951793D01*
X12373515Y-20951793D02*
X12363991Y-20989889D01*
X12363991Y-20989889D02*
X12354468Y-21008936D01*
X12354468Y-21008936D02*
X12344944Y-21018460D01*
X12344944Y-21018460D02*
X12325896Y-21027984D01*
X12325896Y-21027984D02*
X12306848Y-21027984D01*
X12306848Y-21027984D02*
X12287801Y-21018460D01*
X12287801Y-21018460D02*
X12278277Y-21008936D01*
X12278277Y-21008936D02*
X12268753Y-20989889D01*
X12268753Y-20989889D02*
X12259229Y-20951793D01*
X12259229Y-20951793D02*
X12259229Y-20904174D01*
X12259229Y-20904174D02*
X12268753Y-20866079D01*
X12268753Y-20866079D02*
X12278277Y-20847031D01*
X12278277Y-20847031D02*
X12287801Y-20837508D01*
X12287801Y-20837508D02*
X12306848Y-20827984D01*
X12611610Y-21027984D02*
X12611610Y-20827984D01*
X12697325Y-21027984D02*
X12697325Y-20923222D01*
X12697325Y-20923222D02*
X12687801Y-20904174D01*
X12687801Y-20904174D02*
X12668753Y-20894650D01*
X12668753Y-20894650D02*
X12640182Y-20894650D01*
X12640182Y-20894650D02*
X12621134Y-20904174D01*
X12621134Y-20904174D02*
X12611610Y-20913698D01*
X12821134Y-21027984D02*
X12802087Y-21018460D01*
X12802087Y-21018460D02*
X12792563Y-21008936D01*
X12792563Y-21008936D02*
X12783039Y-20989889D01*
X12783039Y-20989889D02*
X12783039Y-20932746D01*
X12783039Y-20932746D02*
X12792563Y-20913698D01*
X12792563Y-20913698D02*
X12802087Y-20904174D01*
X12802087Y-20904174D02*
X12821134Y-20894650D01*
X12821134Y-20894650D02*
X12849706Y-20894650D01*
X12849706Y-20894650D02*
X12868753Y-20904174D01*
X12868753Y-20904174D02*
X12878277Y-20913698D01*
X12878277Y-20913698D02*
X12887801Y-20932746D01*
X12887801Y-20932746D02*
X12887801Y-20989889D01*
X12887801Y-20989889D02*
X12878277Y-21008936D01*
X12878277Y-21008936D02*
X12868753Y-21018460D01*
X12868753Y-21018460D02*
X12849706Y-21027984D01*
X12849706Y-21027984D02*
X12821134Y-21027984D01*
X13002087Y-21027984D02*
X12983039Y-21018460D01*
X12983039Y-21018460D02*
X12973515Y-20999412D01*
X12973515Y-20999412D02*
X12973515Y-20827984D01*
X13154468Y-21018460D02*
X13135420Y-21027984D01*
X13135420Y-21027984D02*
X13097325Y-21027984D01*
X13097325Y-21027984D02*
X13078277Y-21018460D01*
X13078277Y-21018460D02*
X13068753Y-20999412D01*
X13068753Y-20999412D02*
X13068753Y-20923222D01*
X13068753Y-20923222D02*
X13078277Y-20904174D01*
X13078277Y-20904174D02*
X13097325Y-20894650D01*
X13097325Y-20894650D02*
X13135420Y-20894650D01*
X13135420Y-20894650D02*
X13154468Y-20904174D01*
X13154468Y-20904174D02*
X13163991Y-20923222D01*
X13163991Y-20923222D02*
X13163991Y-20942270D01*
X13163991Y-20942270D02*
X13068753Y-20961317D01*
X13240182Y-21018460D02*
X13259230Y-21027984D01*
X13259230Y-21027984D02*
X13297325Y-21027984D01*
X13297325Y-21027984D02*
X13316372Y-21018460D01*
X13316372Y-21018460D02*
X13325896Y-20999412D01*
X13325896Y-20999412D02*
X13325896Y-20989889D01*
X13325896Y-20989889D02*
X13316372Y-20970841D01*
X13316372Y-20970841D02*
X13297325Y-20961317D01*
X13297325Y-20961317D02*
X13268753Y-20961317D01*
X13268753Y-20961317D02*
X13249706Y-20951793D01*
X13249706Y-20951793D02*
X13240182Y-20932746D01*
X13240182Y-20932746D02*
X13240182Y-20923222D01*
X13240182Y-20923222D02*
X13249706Y-20904174D01*
X13249706Y-20904174D02*
X13268753Y-20894650D01*
X13268753Y-20894650D02*
X13297325Y-20894650D01*
X13297325Y-20894650D02*
X13316372Y-20904174D01*
X13563992Y-20951793D02*
X13716373Y-20951793D01*
X13640182Y-21027984D02*
X13640182Y-20875603D01*
X14049706Y-20894650D02*
X14049706Y-21027984D01*
X14002087Y-20818460D02*
X13954468Y-20961317D01*
X13954468Y-20961317D02*
X14078277Y-20961317D01*
X14297325Y-21018460D02*
X14316373Y-21027984D01*
X14316373Y-21027984D02*
X14354468Y-21027984D01*
X14354468Y-21027984D02*
X14373515Y-21018460D01*
X14373515Y-21018460D02*
X14383039Y-20999412D01*
X14383039Y-20999412D02*
X14383039Y-20989889D01*
X14383039Y-20989889D02*
X14373515Y-20970841D01*
X14373515Y-20970841D02*
X14354468Y-20961317D01*
X14354468Y-20961317D02*
X14325896Y-20961317D01*
X14325896Y-20961317D02*
X14306849Y-20951793D01*
X14306849Y-20951793D02*
X14297325Y-20932746D01*
X14297325Y-20932746D02*
X14297325Y-20923222D01*
X14297325Y-20923222D02*
X14306849Y-20904174D01*
X14306849Y-20904174D02*
X14325896Y-20894650D01*
X14325896Y-20894650D02*
X14354468Y-20894650D01*
X14354468Y-20894650D02*
X14373515Y-20904174D01*
X14497325Y-21027984D02*
X14478277Y-21018460D01*
X14478277Y-21018460D02*
X14468754Y-20999412D01*
X14468754Y-20999412D02*
X14468754Y-20827984D01*
X14602087Y-21027984D02*
X14583039Y-21018460D01*
X14583039Y-21018460D02*
X14573515Y-21008936D01*
X14573515Y-21008936D02*
X14563992Y-20989889D01*
X14563992Y-20989889D02*
X14563992Y-20932746D01*
X14563992Y-20932746D02*
X14573515Y-20913698D01*
X14573515Y-20913698D02*
X14583039Y-20904174D01*
X14583039Y-20904174D02*
X14602087Y-20894650D01*
X14602087Y-20894650D02*
X14630658Y-20894650D01*
X14630658Y-20894650D02*
X14649706Y-20904174D01*
X14649706Y-20904174D02*
X14659230Y-20913698D01*
X14659230Y-20913698D02*
X14668754Y-20932746D01*
X14668754Y-20932746D02*
X14668754Y-20989889D01*
X14668754Y-20989889D02*
X14659230Y-21008936D01*
X14659230Y-21008936D02*
X14649706Y-21018460D01*
X14649706Y-21018460D02*
X14630658Y-21027984D01*
X14630658Y-21027984D02*
X14602087Y-21027984D01*
X14725896Y-20894650D02*
X14802087Y-20894650D01*
X14754468Y-20827984D02*
X14754468Y-20999412D01*
X14754468Y-20999412D02*
X14763992Y-21018460D01*
X14763992Y-21018460D02*
X14783039Y-21027984D01*
X14783039Y-21027984D02*
X14802087Y-21027984D01*
X14859230Y-21018460D02*
X14878277Y-21027984D01*
X14878277Y-21027984D02*
X14916373Y-21027984D01*
X14916373Y-21027984D02*
X14935420Y-21018460D01*
X14935420Y-21018460D02*
X14944944Y-20999412D01*
X14944944Y-20999412D02*
X14944944Y-20989889D01*
X14944944Y-20989889D02*
X14935420Y-20970841D01*
X14935420Y-20970841D02*
X14916373Y-20961317D01*
X14916373Y-20961317D02*
X14887801Y-20961317D01*
X14887801Y-20961317D02*
X14868754Y-20951793D01*
X14868754Y-20951793D02*
X14859230Y-20932746D01*
X14859230Y-20932746D02*
X14859230Y-20923222D01*
X14859230Y-20923222D02*
X14868754Y-20904174D01*
X14868754Y-20904174D02*
X14887801Y-20894650D01*
X14887801Y-20894650D02*
X14916373Y-20894650D01*
X14916373Y-20894650D02*
X14935420Y-20904174D01*
X15011611Y-21104174D02*
X15021135Y-21094650D01*
X15021135Y-21094650D02*
X15040182Y-21066079D01*
X15040182Y-21066079D02*
X15049706Y-21047031D01*
X15049706Y-21047031D02*
X15059230Y-21018460D01*
X15059230Y-21018460D02*
X15068754Y-20970841D01*
X15068754Y-20970841D02*
X15068754Y-20932746D01*
X15068754Y-20932746D02*
X15059230Y-20885127D01*
X15059230Y-20885127D02*
X15049706Y-20856555D01*
X15049706Y-20856555D02*
X15040182Y-20837508D01*
X15040182Y-20837508D02*
X15021135Y-20808936D01*
X15021135Y-20808936D02*
X15011611Y-20799412D01*
D12*
X8582500Y-21165500D02*
X8582500Y-21235500D01*
X8547500Y-21200500D02*
X8617500Y-21200500D01*
D11*
X8916372Y-21091984D02*
X8935420Y-21091984D01*
X8935420Y-21091984D02*
X8954467Y-21101508D01*
X8954467Y-21101508D02*
X8963991Y-21111031D01*
X8963991Y-21111031D02*
X8973515Y-21130079D01*
X8973515Y-21130079D02*
X8983039Y-21168174D01*
X8983039Y-21168174D02*
X8983039Y-21215793D01*
X8983039Y-21215793D02*
X8973515Y-21253889D01*
X8973515Y-21253889D02*
X8963991Y-21272936D01*
X8963991Y-21272936D02*
X8954467Y-21282460D01*
X8954467Y-21282460D02*
X8935420Y-21291984D01*
X8935420Y-21291984D02*
X8916372Y-21291984D01*
X8916372Y-21291984D02*
X8897324Y-21282460D01*
X8897324Y-21282460D02*
X8887801Y-21272936D01*
X8887801Y-21272936D02*
X8878277Y-21253889D01*
X8878277Y-21253889D02*
X8868753Y-21215793D01*
X8868753Y-21215793D02*
X8868753Y-21168174D01*
X8868753Y-21168174D02*
X8878277Y-21130079D01*
X8878277Y-21130079D02*
X8887801Y-21111031D01*
X8887801Y-21111031D02*
X8897324Y-21101508D01*
X8897324Y-21101508D02*
X8916372Y-21091984D01*
X9068753Y-21272936D02*
X9078277Y-21282460D01*
X9078277Y-21282460D02*
X9068753Y-21291984D01*
X9068753Y-21291984D02*
X9059229Y-21282460D01*
X9059229Y-21282460D02*
X9068753Y-21272936D01*
X9068753Y-21272936D02*
X9068753Y-21291984D01*
X9144944Y-21091984D02*
X9278277Y-21091984D01*
X9278277Y-21091984D02*
X9192563Y-21291984D01*
X9392563Y-21091984D02*
X9411610Y-21091984D01*
X9411610Y-21091984D02*
X9430658Y-21101508D01*
X9430658Y-21101508D02*
X9440182Y-21111031D01*
X9440182Y-21111031D02*
X9449705Y-21130079D01*
X9449705Y-21130079D02*
X9459229Y-21168174D01*
X9459229Y-21168174D02*
X9459229Y-21215793D01*
X9459229Y-21215793D02*
X9449705Y-21253889D01*
X9449705Y-21253889D02*
X9440182Y-21272936D01*
X9440182Y-21272936D02*
X9430658Y-21282460D01*
X9430658Y-21282460D02*
X9411610Y-21291984D01*
X9411610Y-21291984D02*
X9392563Y-21291984D01*
X9392563Y-21291984D02*
X9373515Y-21282460D01*
X9373515Y-21282460D02*
X9363991Y-21272936D01*
X9363991Y-21272936D02*
X9354467Y-21253889D01*
X9354467Y-21253889D02*
X9344944Y-21215793D01*
X9344944Y-21215793D02*
X9344944Y-21168174D01*
X9344944Y-21168174D02*
X9354467Y-21130079D01*
X9354467Y-21130079D02*
X9363991Y-21111031D01*
X9363991Y-21111031D02*
X9373515Y-21101508D01*
X9373515Y-21101508D02*
X9392563Y-21091984D01*
X9583039Y-21091984D02*
X9602086Y-21091984D01*
X9602086Y-21091984D02*
X9621134Y-21101508D01*
X9621134Y-21101508D02*
X9630658Y-21111031D01*
X9630658Y-21111031D02*
X9640182Y-21130079D01*
X9640182Y-21130079D02*
X9649705Y-21168174D01*
X9649705Y-21168174D02*
X9649705Y-21215793D01*
X9649705Y-21215793D02*
X9640182Y-21253889D01*
X9640182Y-21253889D02*
X9630658Y-21272936D01*
X9630658Y-21272936D02*
X9621134Y-21282460D01*
X9621134Y-21282460D02*
X9602086Y-21291984D01*
X9602086Y-21291984D02*
X9583039Y-21291984D01*
X9583039Y-21291984D02*
X9563991Y-21282460D01*
X9563991Y-21282460D02*
X9554467Y-21272936D01*
X9554467Y-21272936D02*
X9544944Y-21253889D01*
X9544944Y-21253889D02*
X9535420Y-21215793D01*
X9535420Y-21215793D02*
X9535420Y-21168174D01*
X9535420Y-21168174D02*
X9544944Y-21130079D01*
X9544944Y-21130079D02*
X9554467Y-21111031D01*
X9554467Y-21111031D02*
X9563991Y-21101508D01*
X9563991Y-21101508D02*
X9583039Y-21091984D01*
X9735420Y-21291984D02*
X9735420Y-21158650D01*
X9735420Y-21177698D02*
X9744944Y-21168174D01*
X9744944Y-21168174D02*
X9763991Y-21158650D01*
X9763991Y-21158650D02*
X9792563Y-21158650D01*
X9792563Y-21158650D02*
X9811610Y-21168174D01*
X9811610Y-21168174D02*
X9821134Y-21187222D01*
X9821134Y-21187222D02*
X9821134Y-21291984D01*
X9821134Y-21187222D02*
X9830658Y-21168174D01*
X9830658Y-21168174D02*
X9849705Y-21158650D01*
X9849705Y-21158650D02*
X9878277Y-21158650D01*
X9878277Y-21158650D02*
X9897325Y-21168174D01*
X9897325Y-21168174D02*
X9906848Y-21187222D01*
X9906848Y-21187222D02*
X9906848Y-21291984D01*
X10002086Y-21291984D02*
X10002086Y-21158650D01*
X10002086Y-21177698D02*
X10011610Y-21168174D01*
X10011610Y-21168174D02*
X10030658Y-21158650D01*
X10030658Y-21158650D02*
X10059229Y-21158650D01*
X10059229Y-21158650D02*
X10078277Y-21168174D01*
X10078277Y-21168174D02*
X10087801Y-21187222D01*
X10087801Y-21187222D02*
X10087801Y-21291984D01*
X10087801Y-21187222D02*
X10097325Y-21168174D01*
X10097325Y-21168174D02*
X10116372Y-21158650D01*
X10116372Y-21158650D02*
X10144944Y-21158650D01*
X10144944Y-21158650D02*
X10163991Y-21168174D01*
X10163991Y-21168174D02*
X10173515Y-21187222D01*
X10173515Y-21187222D02*
X10173515Y-21291984D01*
X10563991Y-21082460D02*
X10392563Y-21339603D01*
X10821134Y-21091984D02*
X10840182Y-21091984D01*
X10840182Y-21091984D02*
X10859229Y-21101508D01*
X10859229Y-21101508D02*
X10868753Y-21111031D01*
X10868753Y-21111031D02*
X10878277Y-21130079D01*
X10878277Y-21130079D02*
X10887801Y-21168174D01*
X10887801Y-21168174D02*
X10887801Y-21215793D01*
X10887801Y-21215793D02*
X10878277Y-21253889D01*
X10878277Y-21253889D02*
X10868753Y-21272936D01*
X10868753Y-21272936D02*
X10859229Y-21282460D01*
X10859229Y-21282460D02*
X10840182Y-21291984D01*
X10840182Y-21291984D02*
X10821134Y-21291984D01*
X10821134Y-21291984D02*
X10802087Y-21282460D01*
X10802087Y-21282460D02*
X10792563Y-21272936D01*
X10792563Y-21272936D02*
X10783039Y-21253889D01*
X10783039Y-21253889D02*
X10773515Y-21215793D01*
X10773515Y-21215793D02*
X10773515Y-21168174D01*
X10773515Y-21168174D02*
X10783039Y-21130079D01*
X10783039Y-21130079D02*
X10792563Y-21111031D01*
X10792563Y-21111031D02*
X10802087Y-21101508D01*
X10802087Y-21101508D02*
X10821134Y-21091984D01*
X10973515Y-21272936D02*
X10983039Y-21282460D01*
X10983039Y-21282460D02*
X10973515Y-21291984D01*
X10973515Y-21291984D02*
X10963991Y-21282460D01*
X10963991Y-21282460D02*
X10973515Y-21272936D01*
X10973515Y-21272936D02*
X10973515Y-21291984D01*
X11106848Y-21091984D02*
X11125896Y-21091984D01*
X11125896Y-21091984D02*
X11144944Y-21101508D01*
X11144944Y-21101508D02*
X11154468Y-21111031D01*
X11154468Y-21111031D02*
X11163991Y-21130079D01*
X11163991Y-21130079D02*
X11173515Y-21168174D01*
X11173515Y-21168174D02*
X11173515Y-21215793D01*
X11173515Y-21215793D02*
X11163991Y-21253889D01*
X11163991Y-21253889D02*
X11154468Y-21272936D01*
X11154468Y-21272936D02*
X11144944Y-21282460D01*
X11144944Y-21282460D02*
X11125896Y-21291984D01*
X11125896Y-21291984D02*
X11106848Y-21291984D01*
X11106848Y-21291984D02*
X11087801Y-21282460D01*
X11087801Y-21282460D02*
X11078277Y-21272936D01*
X11078277Y-21272936D02*
X11068753Y-21253889D01*
X11068753Y-21253889D02*
X11059229Y-21215793D01*
X11059229Y-21215793D02*
X11059229Y-21168174D01*
X11059229Y-21168174D02*
X11068753Y-21130079D01*
X11068753Y-21130079D02*
X11078277Y-21111031D01*
X11078277Y-21111031D02*
X11087801Y-21101508D01*
X11087801Y-21101508D02*
X11106848Y-21091984D01*
X11249706Y-21111031D02*
X11259229Y-21101508D01*
X11259229Y-21101508D02*
X11278277Y-21091984D01*
X11278277Y-21091984D02*
X11325896Y-21091984D01*
X11325896Y-21091984D02*
X11344944Y-21101508D01*
X11344944Y-21101508D02*
X11354467Y-21111031D01*
X11354467Y-21111031D02*
X11363991Y-21130079D01*
X11363991Y-21130079D02*
X11363991Y-21149127D01*
X11363991Y-21149127D02*
X11354467Y-21177698D01*
X11354467Y-21177698D02*
X11240182Y-21291984D01*
X11240182Y-21291984D02*
X11363991Y-21291984D01*
X11430658Y-21091984D02*
X11563991Y-21091984D01*
X11563991Y-21091984D02*
X11478277Y-21291984D01*
X11725896Y-21091984D02*
X11687801Y-21091984D01*
X11687801Y-21091984D02*
X11668753Y-21101508D01*
X11668753Y-21101508D02*
X11659229Y-21111031D01*
X11659229Y-21111031D02*
X11640182Y-21139603D01*
X11640182Y-21139603D02*
X11630658Y-21177698D01*
X11630658Y-21177698D02*
X11630658Y-21253889D01*
X11630658Y-21253889D02*
X11640182Y-21272936D01*
X11640182Y-21272936D02*
X11649706Y-21282460D01*
X11649706Y-21282460D02*
X11668753Y-21291984D01*
X11668753Y-21291984D02*
X11706848Y-21291984D01*
X11706848Y-21291984D02*
X11725896Y-21282460D01*
X11725896Y-21282460D02*
X11735420Y-21272936D01*
X11735420Y-21272936D02*
X11744944Y-21253889D01*
X11744944Y-21253889D02*
X11744944Y-21206270D01*
X11744944Y-21206270D02*
X11735420Y-21187222D01*
X11735420Y-21187222D02*
X11725896Y-21177698D01*
X11725896Y-21177698D02*
X11706848Y-21168174D01*
X11706848Y-21168174D02*
X11668753Y-21168174D01*
X11668753Y-21168174D02*
X11649706Y-21177698D01*
X11649706Y-21177698D02*
X11640182Y-21187222D01*
X11640182Y-21187222D02*
X11630658Y-21206270D01*
X11821134Y-21091984D02*
X11821134Y-21130079D01*
X11897325Y-21091984D02*
X11897325Y-21130079D01*
X12192563Y-21368174D02*
X12183039Y-21358650D01*
X12183039Y-21358650D02*
X12163991Y-21330079D01*
X12163991Y-21330079D02*
X12154468Y-21311031D01*
X12154468Y-21311031D02*
X12144944Y-21282460D01*
X12144944Y-21282460D02*
X12135420Y-21234841D01*
X12135420Y-21234841D02*
X12135420Y-21196746D01*
X12135420Y-21196746D02*
X12144944Y-21149127D01*
X12144944Y-21149127D02*
X12154468Y-21120555D01*
X12154468Y-21120555D02*
X12163991Y-21101508D01*
X12163991Y-21101508D02*
X12183039Y-21072936D01*
X12183039Y-21072936D02*
X12192563Y-21063412D01*
X12354468Y-21158650D02*
X12354468Y-21291984D01*
X12306848Y-21082460D02*
X12259229Y-21225317D01*
X12259229Y-21225317D02*
X12383039Y-21225317D01*
X12611610Y-21291984D02*
X12611610Y-21091984D01*
X12697325Y-21291984D02*
X12697325Y-21187222D01*
X12697325Y-21187222D02*
X12687801Y-21168174D01*
X12687801Y-21168174D02*
X12668753Y-21158650D01*
X12668753Y-21158650D02*
X12640182Y-21158650D01*
X12640182Y-21158650D02*
X12621134Y-21168174D01*
X12621134Y-21168174D02*
X12611610Y-21177698D01*
X12821134Y-21291984D02*
X12802087Y-21282460D01*
X12802087Y-21282460D02*
X12792563Y-21272936D01*
X12792563Y-21272936D02*
X12783039Y-21253889D01*
X12783039Y-21253889D02*
X12783039Y-21196746D01*
X12783039Y-21196746D02*
X12792563Y-21177698D01*
X12792563Y-21177698D02*
X12802087Y-21168174D01*
X12802087Y-21168174D02*
X12821134Y-21158650D01*
X12821134Y-21158650D02*
X12849706Y-21158650D01*
X12849706Y-21158650D02*
X12868753Y-21168174D01*
X12868753Y-21168174D02*
X12878277Y-21177698D01*
X12878277Y-21177698D02*
X12887801Y-21196746D01*
X12887801Y-21196746D02*
X12887801Y-21253889D01*
X12887801Y-21253889D02*
X12878277Y-21272936D01*
X12878277Y-21272936D02*
X12868753Y-21282460D01*
X12868753Y-21282460D02*
X12849706Y-21291984D01*
X12849706Y-21291984D02*
X12821134Y-21291984D01*
X13002087Y-21291984D02*
X12983039Y-21282460D01*
X12983039Y-21282460D02*
X12973515Y-21263412D01*
X12973515Y-21263412D02*
X12973515Y-21091984D01*
X13154468Y-21282460D02*
X13135420Y-21291984D01*
X13135420Y-21291984D02*
X13097325Y-21291984D01*
X13097325Y-21291984D02*
X13078277Y-21282460D01*
X13078277Y-21282460D02*
X13068753Y-21263412D01*
X13068753Y-21263412D02*
X13068753Y-21187222D01*
X13068753Y-21187222D02*
X13078277Y-21168174D01*
X13078277Y-21168174D02*
X13097325Y-21158650D01*
X13097325Y-21158650D02*
X13135420Y-21158650D01*
X13135420Y-21158650D02*
X13154468Y-21168174D01*
X13154468Y-21168174D02*
X13163991Y-21187222D01*
X13163991Y-21187222D02*
X13163991Y-21206270D01*
X13163991Y-21206270D02*
X13068753Y-21225317D01*
X13240182Y-21282460D02*
X13259230Y-21291984D01*
X13259230Y-21291984D02*
X13297325Y-21291984D01*
X13297325Y-21291984D02*
X13316372Y-21282460D01*
X13316372Y-21282460D02*
X13325896Y-21263412D01*
X13325896Y-21263412D02*
X13325896Y-21253889D01*
X13325896Y-21253889D02*
X13316372Y-21234841D01*
X13316372Y-21234841D02*
X13297325Y-21225317D01*
X13297325Y-21225317D02*
X13268753Y-21225317D01*
X13268753Y-21225317D02*
X13249706Y-21215793D01*
X13249706Y-21215793D02*
X13240182Y-21196746D01*
X13240182Y-21196746D02*
X13240182Y-21187222D01*
X13240182Y-21187222D02*
X13249706Y-21168174D01*
X13249706Y-21168174D02*
X13268753Y-21158650D01*
X13268753Y-21158650D02*
X13297325Y-21158650D01*
X13297325Y-21158650D02*
X13316372Y-21168174D01*
X13392563Y-21368174D02*
X13402087Y-21358650D01*
X13402087Y-21358650D02*
X13421134Y-21330079D01*
X13421134Y-21330079D02*
X13430658Y-21311031D01*
X13430658Y-21311031D02*
X13440182Y-21282460D01*
X13440182Y-21282460D02*
X13449706Y-21234841D01*
X13449706Y-21234841D02*
X13449706Y-21196746D01*
X13449706Y-21196746D02*
X13440182Y-21149127D01*
X13440182Y-21149127D02*
X13430658Y-21120555D01*
X13430658Y-21120555D02*
X13421134Y-21101508D01*
X13421134Y-21101508D02*
X13402087Y-21072936D01*
X13402087Y-21072936D02*
X13392563Y-21063412D01*
D12*
X8605785Y-21492785D02*
X8605785Y-21436216D01*
X8549216Y-21436216D01*
X8549216Y-21492785D01*
X8605785Y-21492785D01*
D11*
X8916372Y-21355984D02*
X8935420Y-21355984D01*
X8935420Y-21355984D02*
X8954467Y-21365508D01*
X8954467Y-21365508D02*
X8963991Y-21375031D01*
X8963991Y-21375031D02*
X8973515Y-21394079D01*
X8973515Y-21394079D02*
X8983039Y-21432174D01*
X8983039Y-21432174D02*
X8983039Y-21479793D01*
X8983039Y-21479793D02*
X8973515Y-21517889D01*
X8973515Y-21517889D02*
X8963991Y-21536936D01*
X8963991Y-21536936D02*
X8954467Y-21546460D01*
X8954467Y-21546460D02*
X8935420Y-21555984D01*
X8935420Y-21555984D02*
X8916372Y-21555984D01*
X8916372Y-21555984D02*
X8897324Y-21546460D01*
X8897324Y-21546460D02*
X8887801Y-21536936D01*
X8887801Y-21536936D02*
X8878277Y-21517889D01*
X8878277Y-21517889D02*
X8868753Y-21479793D01*
X8868753Y-21479793D02*
X8868753Y-21432174D01*
X8868753Y-21432174D02*
X8878277Y-21394079D01*
X8878277Y-21394079D02*
X8887801Y-21375031D01*
X8887801Y-21375031D02*
X8897324Y-21365508D01*
X8897324Y-21365508D02*
X8916372Y-21355984D01*
X9068753Y-21536936D02*
X9078277Y-21546460D01*
X9078277Y-21546460D02*
X9068753Y-21555984D01*
X9068753Y-21555984D02*
X9059229Y-21546460D01*
X9059229Y-21546460D02*
X9068753Y-21536936D01*
X9068753Y-21536936D02*
X9068753Y-21555984D01*
X9192563Y-21441698D02*
X9173515Y-21432174D01*
X9173515Y-21432174D02*
X9163991Y-21422650D01*
X9163991Y-21422650D02*
X9154467Y-21403603D01*
X9154467Y-21403603D02*
X9154467Y-21394079D01*
X9154467Y-21394079D02*
X9163991Y-21375031D01*
X9163991Y-21375031D02*
X9173515Y-21365508D01*
X9173515Y-21365508D02*
X9192563Y-21355984D01*
X9192563Y-21355984D02*
X9230658Y-21355984D01*
X9230658Y-21355984D02*
X9249705Y-21365508D01*
X9249705Y-21365508D02*
X9259229Y-21375031D01*
X9259229Y-21375031D02*
X9268753Y-21394079D01*
X9268753Y-21394079D02*
X9268753Y-21403603D01*
X9268753Y-21403603D02*
X9259229Y-21422650D01*
X9259229Y-21422650D02*
X9249705Y-21432174D01*
X9249705Y-21432174D02*
X9230658Y-21441698D01*
X9230658Y-21441698D02*
X9192563Y-21441698D01*
X9192563Y-21441698D02*
X9173515Y-21451222D01*
X9173515Y-21451222D02*
X9163991Y-21460746D01*
X9163991Y-21460746D02*
X9154467Y-21479793D01*
X9154467Y-21479793D02*
X9154467Y-21517889D01*
X9154467Y-21517889D02*
X9163991Y-21536936D01*
X9163991Y-21536936D02*
X9173515Y-21546460D01*
X9173515Y-21546460D02*
X9192563Y-21555984D01*
X9192563Y-21555984D02*
X9230658Y-21555984D01*
X9230658Y-21555984D02*
X9249705Y-21546460D01*
X9249705Y-21546460D02*
X9259229Y-21536936D01*
X9259229Y-21536936D02*
X9268753Y-21517889D01*
X9268753Y-21517889D02*
X9268753Y-21479793D01*
X9268753Y-21479793D02*
X9259229Y-21460746D01*
X9259229Y-21460746D02*
X9249705Y-21451222D01*
X9249705Y-21451222D02*
X9230658Y-21441698D01*
X9392563Y-21355984D02*
X9411610Y-21355984D01*
X9411610Y-21355984D02*
X9430658Y-21365508D01*
X9430658Y-21365508D02*
X9440182Y-21375031D01*
X9440182Y-21375031D02*
X9449705Y-21394079D01*
X9449705Y-21394079D02*
X9459229Y-21432174D01*
X9459229Y-21432174D02*
X9459229Y-21479793D01*
X9459229Y-21479793D02*
X9449705Y-21517889D01*
X9449705Y-21517889D02*
X9440182Y-21536936D01*
X9440182Y-21536936D02*
X9430658Y-21546460D01*
X9430658Y-21546460D02*
X9411610Y-21555984D01*
X9411610Y-21555984D02*
X9392563Y-21555984D01*
X9392563Y-21555984D02*
X9373515Y-21546460D01*
X9373515Y-21546460D02*
X9363991Y-21536936D01*
X9363991Y-21536936D02*
X9354467Y-21517889D01*
X9354467Y-21517889D02*
X9344944Y-21479793D01*
X9344944Y-21479793D02*
X9344944Y-21432174D01*
X9344944Y-21432174D02*
X9354467Y-21394079D01*
X9354467Y-21394079D02*
X9363991Y-21375031D01*
X9363991Y-21375031D02*
X9373515Y-21365508D01*
X9373515Y-21365508D02*
X9392563Y-21355984D01*
X9583039Y-21355984D02*
X9602086Y-21355984D01*
X9602086Y-21355984D02*
X9621134Y-21365508D01*
X9621134Y-21365508D02*
X9630658Y-21375031D01*
X9630658Y-21375031D02*
X9640182Y-21394079D01*
X9640182Y-21394079D02*
X9649705Y-21432174D01*
X9649705Y-21432174D02*
X9649705Y-21479793D01*
X9649705Y-21479793D02*
X9640182Y-21517889D01*
X9640182Y-21517889D02*
X9630658Y-21536936D01*
X9630658Y-21536936D02*
X9621134Y-21546460D01*
X9621134Y-21546460D02*
X9602086Y-21555984D01*
X9602086Y-21555984D02*
X9583039Y-21555984D01*
X9583039Y-21555984D02*
X9563991Y-21546460D01*
X9563991Y-21546460D02*
X9554467Y-21536936D01*
X9554467Y-21536936D02*
X9544944Y-21517889D01*
X9544944Y-21517889D02*
X9535420Y-21479793D01*
X9535420Y-21479793D02*
X9535420Y-21432174D01*
X9535420Y-21432174D02*
X9544944Y-21394079D01*
X9544944Y-21394079D02*
X9554467Y-21375031D01*
X9554467Y-21375031D02*
X9563991Y-21365508D01*
X9563991Y-21365508D02*
X9583039Y-21355984D01*
X9735420Y-21555984D02*
X9735420Y-21422650D01*
X9735420Y-21441698D02*
X9744944Y-21432174D01*
X9744944Y-21432174D02*
X9763991Y-21422650D01*
X9763991Y-21422650D02*
X9792563Y-21422650D01*
X9792563Y-21422650D02*
X9811610Y-21432174D01*
X9811610Y-21432174D02*
X9821134Y-21451222D01*
X9821134Y-21451222D02*
X9821134Y-21555984D01*
X9821134Y-21451222D02*
X9830658Y-21432174D01*
X9830658Y-21432174D02*
X9849705Y-21422650D01*
X9849705Y-21422650D02*
X9878277Y-21422650D01*
X9878277Y-21422650D02*
X9897325Y-21432174D01*
X9897325Y-21432174D02*
X9906848Y-21451222D01*
X9906848Y-21451222D02*
X9906848Y-21555984D01*
X10002086Y-21555984D02*
X10002086Y-21422650D01*
X10002086Y-21441698D02*
X10011610Y-21432174D01*
X10011610Y-21432174D02*
X10030658Y-21422650D01*
X10030658Y-21422650D02*
X10059229Y-21422650D01*
X10059229Y-21422650D02*
X10078277Y-21432174D01*
X10078277Y-21432174D02*
X10087801Y-21451222D01*
X10087801Y-21451222D02*
X10087801Y-21555984D01*
X10087801Y-21451222D02*
X10097325Y-21432174D01*
X10097325Y-21432174D02*
X10116372Y-21422650D01*
X10116372Y-21422650D02*
X10144944Y-21422650D01*
X10144944Y-21422650D02*
X10163991Y-21432174D01*
X10163991Y-21432174D02*
X10173515Y-21451222D01*
X10173515Y-21451222D02*
X10173515Y-21555984D01*
X10563991Y-21346460D02*
X10392563Y-21603603D01*
X10821134Y-21355984D02*
X10840182Y-21355984D01*
X10840182Y-21355984D02*
X10859229Y-21365508D01*
X10859229Y-21365508D02*
X10868753Y-21375031D01*
X10868753Y-21375031D02*
X10878277Y-21394079D01*
X10878277Y-21394079D02*
X10887801Y-21432174D01*
X10887801Y-21432174D02*
X10887801Y-21479793D01*
X10887801Y-21479793D02*
X10878277Y-21517889D01*
X10878277Y-21517889D02*
X10868753Y-21536936D01*
X10868753Y-21536936D02*
X10859229Y-21546460D01*
X10859229Y-21546460D02*
X10840182Y-21555984D01*
X10840182Y-21555984D02*
X10821134Y-21555984D01*
X10821134Y-21555984D02*
X10802087Y-21546460D01*
X10802087Y-21546460D02*
X10792563Y-21536936D01*
X10792563Y-21536936D02*
X10783039Y-21517889D01*
X10783039Y-21517889D02*
X10773515Y-21479793D01*
X10773515Y-21479793D02*
X10773515Y-21432174D01*
X10773515Y-21432174D02*
X10783039Y-21394079D01*
X10783039Y-21394079D02*
X10792563Y-21375031D01*
X10792563Y-21375031D02*
X10802087Y-21365508D01*
X10802087Y-21365508D02*
X10821134Y-21355984D01*
X10973515Y-21536936D02*
X10983039Y-21546460D01*
X10983039Y-21546460D02*
X10973515Y-21555984D01*
X10973515Y-21555984D02*
X10963991Y-21546460D01*
X10963991Y-21546460D02*
X10973515Y-21536936D01*
X10973515Y-21536936D02*
X10973515Y-21555984D01*
X11106848Y-21355984D02*
X11125896Y-21355984D01*
X11125896Y-21355984D02*
X11144944Y-21365508D01*
X11144944Y-21365508D02*
X11154468Y-21375031D01*
X11154468Y-21375031D02*
X11163991Y-21394079D01*
X11163991Y-21394079D02*
X11173515Y-21432174D01*
X11173515Y-21432174D02*
X11173515Y-21479793D01*
X11173515Y-21479793D02*
X11163991Y-21517889D01*
X11163991Y-21517889D02*
X11154468Y-21536936D01*
X11154468Y-21536936D02*
X11144944Y-21546460D01*
X11144944Y-21546460D02*
X11125896Y-21555984D01*
X11125896Y-21555984D02*
X11106848Y-21555984D01*
X11106848Y-21555984D02*
X11087801Y-21546460D01*
X11087801Y-21546460D02*
X11078277Y-21536936D01*
X11078277Y-21536936D02*
X11068753Y-21517889D01*
X11068753Y-21517889D02*
X11059229Y-21479793D01*
X11059229Y-21479793D02*
X11059229Y-21432174D01*
X11059229Y-21432174D02*
X11068753Y-21394079D01*
X11068753Y-21394079D02*
X11078277Y-21375031D01*
X11078277Y-21375031D02*
X11087801Y-21365508D01*
X11087801Y-21365508D02*
X11106848Y-21355984D01*
X11240182Y-21355984D02*
X11363991Y-21355984D01*
X11363991Y-21355984D02*
X11297325Y-21432174D01*
X11297325Y-21432174D02*
X11325896Y-21432174D01*
X11325896Y-21432174D02*
X11344944Y-21441698D01*
X11344944Y-21441698D02*
X11354467Y-21451222D01*
X11354467Y-21451222D02*
X11363991Y-21470270D01*
X11363991Y-21470270D02*
X11363991Y-21517889D01*
X11363991Y-21517889D02*
X11354467Y-21536936D01*
X11354467Y-21536936D02*
X11344944Y-21546460D01*
X11344944Y-21546460D02*
X11325896Y-21555984D01*
X11325896Y-21555984D02*
X11268753Y-21555984D01*
X11268753Y-21555984D02*
X11249706Y-21546460D01*
X11249706Y-21546460D02*
X11240182Y-21536936D01*
X11554467Y-21555984D02*
X11440182Y-21555984D01*
X11497325Y-21555984D02*
X11497325Y-21355984D01*
X11497325Y-21355984D02*
X11478277Y-21384555D01*
X11478277Y-21384555D02*
X11459229Y-21403603D01*
X11459229Y-21403603D02*
X11440182Y-21413127D01*
X11735420Y-21355984D02*
X11640182Y-21355984D01*
X11640182Y-21355984D02*
X11630658Y-21451222D01*
X11630658Y-21451222D02*
X11640182Y-21441698D01*
X11640182Y-21441698D02*
X11659229Y-21432174D01*
X11659229Y-21432174D02*
X11706848Y-21432174D01*
X11706848Y-21432174D02*
X11725896Y-21441698D01*
X11725896Y-21441698D02*
X11735420Y-21451222D01*
X11735420Y-21451222D02*
X11744944Y-21470270D01*
X11744944Y-21470270D02*
X11744944Y-21517889D01*
X11744944Y-21517889D02*
X11735420Y-21536936D01*
X11735420Y-21536936D02*
X11725896Y-21546460D01*
X11725896Y-21546460D02*
X11706848Y-21555984D01*
X11706848Y-21555984D02*
X11659229Y-21555984D01*
X11659229Y-21555984D02*
X11640182Y-21546460D01*
X11640182Y-21546460D02*
X11630658Y-21536936D01*
X11821134Y-21355984D02*
X11821134Y-21394079D01*
X11897325Y-21355984D02*
X11897325Y-21394079D01*
X12192563Y-21632174D02*
X12183039Y-21622650D01*
X12183039Y-21622650D02*
X12163991Y-21594079D01*
X12163991Y-21594079D02*
X12154468Y-21575031D01*
X12154468Y-21575031D02*
X12144944Y-21546460D01*
X12144944Y-21546460D02*
X12135420Y-21498841D01*
X12135420Y-21498841D02*
X12135420Y-21460746D01*
X12135420Y-21460746D02*
X12144944Y-21413127D01*
X12144944Y-21413127D02*
X12154468Y-21384555D01*
X12154468Y-21384555D02*
X12163991Y-21365508D01*
X12163991Y-21365508D02*
X12183039Y-21336936D01*
X12183039Y-21336936D02*
X12192563Y-21327412D01*
X12354468Y-21355984D02*
X12316372Y-21355984D01*
X12316372Y-21355984D02*
X12297325Y-21365508D01*
X12297325Y-21365508D02*
X12287801Y-21375031D01*
X12287801Y-21375031D02*
X12268753Y-21403603D01*
X12268753Y-21403603D02*
X12259229Y-21441698D01*
X12259229Y-21441698D02*
X12259229Y-21517889D01*
X12259229Y-21517889D02*
X12268753Y-21536936D01*
X12268753Y-21536936D02*
X12278277Y-21546460D01*
X12278277Y-21546460D02*
X12297325Y-21555984D01*
X12297325Y-21555984D02*
X12335420Y-21555984D01*
X12335420Y-21555984D02*
X12354468Y-21546460D01*
X12354468Y-21546460D02*
X12363991Y-21536936D01*
X12363991Y-21536936D02*
X12373515Y-21517889D01*
X12373515Y-21517889D02*
X12373515Y-21470270D01*
X12373515Y-21470270D02*
X12363991Y-21451222D01*
X12363991Y-21451222D02*
X12354468Y-21441698D01*
X12354468Y-21441698D02*
X12335420Y-21432174D01*
X12335420Y-21432174D02*
X12297325Y-21432174D01*
X12297325Y-21432174D02*
X12278277Y-21441698D01*
X12278277Y-21441698D02*
X12268753Y-21451222D01*
X12268753Y-21451222D02*
X12259229Y-21470270D01*
X12611610Y-21555984D02*
X12611610Y-21355984D01*
X12697325Y-21555984D02*
X12697325Y-21451222D01*
X12697325Y-21451222D02*
X12687801Y-21432174D01*
X12687801Y-21432174D02*
X12668753Y-21422650D01*
X12668753Y-21422650D02*
X12640182Y-21422650D01*
X12640182Y-21422650D02*
X12621134Y-21432174D01*
X12621134Y-21432174D02*
X12611610Y-21441698D01*
X12821134Y-21555984D02*
X12802087Y-21546460D01*
X12802087Y-21546460D02*
X12792563Y-21536936D01*
X12792563Y-21536936D02*
X12783039Y-21517889D01*
X12783039Y-21517889D02*
X12783039Y-21460746D01*
X12783039Y-21460746D02*
X12792563Y-21441698D01*
X12792563Y-21441698D02*
X12802087Y-21432174D01*
X12802087Y-21432174D02*
X12821134Y-21422650D01*
X12821134Y-21422650D02*
X12849706Y-21422650D01*
X12849706Y-21422650D02*
X12868753Y-21432174D01*
X12868753Y-21432174D02*
X12878277Y-21441698D01*
X12878277Y-21441698D02*
X12887801Y-21460746D01*
X12887801Y-21460746D02*
X12887801Y-21517889D01*
X12887801Y-21517889D02*
X12878277Y-21536936D01*
X12878277Y-21536936D02*
X12868753Y-21546460D01*
X12868753Y-21546460D02*
X12849706Y-21555984D01*
X12849706Y-21555984D02*
X12821134Y-21555984D01*
X13002087Y-21555984D02*
X12983039Y-21546460D01*
X12983039Y-21546460D02*
X12973515Y-21527412D01*
X12973515Y-21527412D02*
X12973515Y-21355984D01*
X13154468Y-21546460D02*
X13135420Y-21555984D01*
X13135420Y-21555984D02*
X13097325Y-21555984D01*
X13097325Y-21555984D02*
X13078277Y-21546460D01*
X13078277Y-21546460D02*
X13068753Y-21527412D01*
X13068753Y-21527412D02*
X13068753Y-21451222D01*
X13068753Y-21451222D02*
X13078277Y-21432174D01*
X13078277Y-21432174D02*
X13097325Y-21422650D01*
X13097325Y-21422650D02*
X13135420Y-21422650D01*
X13135420Y-21422650D02*
X13154468Y-21432174D01*
X13154468Y-21432174D02*
X13163991Y-21451222D01*
X13163991Y-21451222D02*
X13163991Y-21470270D01*
X13163991Y-21470270D02*
X13068753Y-21489317D01*
X13240182Y-21546460D02*
X13259230Y-21555984D01*
X13259230Y-21555984D02*
X13297325Y-21555984D01*
X13297325Y-21555984D02*
X13316372Y-21546460D01*
X13316372Y-21546460D02*
X13325896Y-21527412D01*
X13325896Y-21527412D02*
X13325896Y-21517889D01*
X13325896Y-21517889D02*
X13316372Y-21498841D01*
X13316372Y-21498841D02*
X13297325Y-21489317D01*
X13297325Y-21489317D02*
X13268753Y-21489317D01*
X13268753Y-21489317D02*
X13249706Y-21479793D01*
X13249706Y-21479793D02*
X13240182Y-21460746D01*
X13240182Y-21460746D02*
X13240182Y-21451222D01*
X13240182Y-21451222D02*
X13249706Y-21432174D01*
X13249706Y-21432174D02*
X13268753Y-21422650D01*
X13268753Y-21422650D02*
X13297325Y-21422650D01*
X13297325Y-21422650D02*
X13316372Y-21432174D01*
X13392563Y-21632174D02*
X13402087Y-21622650D01*
X13402087Y-21622650D02*
X13421134Y-21594079D01*
X13421134Y-21594079D02*
X13430658Y-21575031D01*
X13430658Y-21575031D02*
X13440182Y-21546460D01*
X13440182Y-21546460D02*
X13449706Y-21498841D01*
X13449706Y-21498841D02*
X13449706Y-21460746D01*
X13449706Y-21460746D02*
X13440182Y-21413127D01*
X13440182Y-21413127D02*
X13430658Y-21384555D01*
X13430658Y-21384555D02*
X13421134Y-21365508D01*
X13421134Y-21365508D02*
X13402087Y-21336936D01*
X13402087Y-21336936D02*
X13392563Y-21327412D01*
D12*
X8572500Y-21773500D02*
X8617500Y-21728500D01*
X8572500Y-21683500D01*
X8527500Y-21728500D01*
X8572500Y-21773500D01*
D11*
X8916372Y-21619984D02*
X8935420Y-21619984D01*
X8935420Y-21619984D02*
X8954467Y-21629508D01*
X8954467Y-21629508D02*
X8963991Y-21639031D01*
X8963991Y-21639031D02*
X8973515Y-21658079D01*
X8973515Y-21658079D02*
X8983039Y-21696174D01*
X8983039Y-21696174D02*
X8983039Y-21743793D01*
X8983039Y-21743793D02*
X8973515Y-21781889D01*
X8973515Y-21781889D02*
X8963991Y-21800936D01*
X8963991Y-21800936D02*
X8954467Y-21810460D01*
X8954467Y-21810460D02*
X8935420Y-21819984D01*
X8935420Y-21819984D02*
X8916372Y-21819984D01*
X8916372Y-21819984D02*
X8897324Y-21810460D01*
X8897324Y-21810460D02*
X8887801Y-21800936D01*
X8887801Y-21800936D02*
X8878277Y-21781889D01*
X8878277Y-21781889D02*
X8868753Y-21743793D01*
X8868753Y-21743793D02*
X8868753Y-21696174D01*
X8868753Y-21696174D02*
X8878277Y-21658079D01*
X8878277Y-21658079D02*
X8887801Y-21639031D01*
X8887801Y-21639031D02*
X8897324Y-21629508D01*
X8897324Y-21629508D02*
X8916372Y-21619984D01*
X9068753Y-21800936D02*
X9078277Y-21810460D01*
X9078277Y-21810460D02*
X9068753Y-21819984D01*
X9068753Y-21819984D02*
X9059229Y-21810460D01*
X9059229Y-21810460D02*
X9068753Y-21800936D01*
X9068753Y-21800936D02*
X9068753Y-21819984D01*
X9173515Y-21819984D02*
X9211610Y-21819984D01*
X9211610Y-21819984D02*
X9230658Y-21810460D01*
X9230658Y-21810460D02*
X9240182Y-21800936D01*
X9240182Y-21800936D02*
X9259229Y-21772365D01*
X9259229Y-21772365D02*
X9268753Y-21734270D01*
X9268753Y-21734270D02*
X9268753Y-21658079D01*
X9268753Y-21658079D02*
X9259229Y-21639031D01*
X9259229Y-21639031D02*
X9249705Y-21629508D01*
X9249705Y-21629508D02*
X9230658Y-21619984D01*
X9230658Y-21619984D02*
X9192563Y-21619984D01*
X9192563Y-21619984D02*
X9173515Y-21629508D01*
X9173515Y-21629508D02*
X9163991Y-21639031D01*
X9163991Y-21639031D02*
X9154467Y-21658079D01*
X9154467Y-21658079D02*
X9154467Y-21705698D01*
X9154467Y-21705698D02*
X9163991Y-21724746D01*
X9163991Y-21724746D02*
X9173515Y-21734270D01*
X9173515Y-21734270D02*
X9192563Y-21743793D01*
X9192563Y-21743793D02*
X9230658Y-21743793D01*
X9230658Y-21743793D02*
X9249705Y-21734270D01*
X9249705Y-21734270D02*
X9259229Y-21724746D01*
X9259229Y-21724746D02*
X9268753Y-21705698D01*
X9392563Y-21619984D02*
X9411610Y-21619984D01*
X9411610Y-21619984D02*
X9430658Y-21629508D01*
X9430658Y-21629508D02*
X9440182Y-21639031D01*
X9440182Y-21639031D02*
X9449705Y-21658079D01*
X9449705Y-21658079D02*
X9459229Y-21696174D01*
X9459229Y-21696174D02*
X9459229Y-21743793D01*
X9459229Y-21743793D02*
X9449705Y-21781889D01*
X9449705Y-21781889D02*
X9440182Y-21800936D01*
X9440182Y-21800936D02*
X9430658Y-21810460D01*
X9430658Y-21810460D02*
X9411610Y-21819984D01*
X9411610Y-21819984D02*
X9392563Y-21819984D01*
X9392563Y-21819984D02*
X9373515Y-21810460D01*
X9373515Y-21810460D02*
X9363991Y-21800936D01*
X9363991Y-21800936D02*
X9354467Y-21781889D01*
X9354467Y-21781889D02*
X9344944Y-21743793D01*
X9344944Y-21743793D02*
X9344944Y-21696174D01*
X9344944Y-21696174D02*
X9354467Y-21658079D01*
X9354467Y-21658079D02*
X9363991Y-21639031D01*
X9363991Y-21639031D02*
X9373515Y-21629508D01*
X9373515Y-21629508D02*
X9392563Y-21619984D01*
X9583039Y-21619984D02*
X9602086Y-21619984D01*
X9602086Y-21619984D02*
X9621134Y-21629508D01*
X9621134Y-21629508D02*
X9630658Y-21639031D01*
X9630658Y-21639031D02*
X9640182Y-21658079D01*
X9640182Y-21658079D02*
X9649705Y-21696174D01*
X9649705Y-21696174D02*
X9649705Y-21743793D01*
X9649705Y-21743793D02*
X9640182Y-21781889D01*
X9640182Y-21781889D02*
X9630658Y-21800936D01*
X9630658Y-21800936D02*
X9621134Y-21810460D01*
X9621134Y-21810460D02*
X9602086Y-21819984D01*
X9602086Y-21819984D02*
X9583039Y-21819984D01*
X9583039Y-21819984D02*
X9563991Y-21810460D01*
X9563991Y-21810460D02*
X9554467Y-21800936D01*
X9554467Y-21800936D02*
X9544944Y-21781889D01*
X9544944Y-21781889D02*
X9535420Y-21743793D01*
X9535420Y-21743793D02*
X9535420Y-21696174D01*
X9535420Y-21696174D02*
X9544944Y-21658079D01*
X9544944Y-21658079D02*
X9554467Y-21639031D01*
X9554467Y-21639031D02*
X9563991Y-21629508D01*
X9563991Y-21629508D02*
X9583039Y-21619984D01*
X9735420Y-21819984D02*
X9735420Y-21686650D01*
X9735420Y-21705698D02*
X9744944Y-21696174D01*
X9744944Y-21696174D02*
X9763991Y-21686650D01*
X9763991Y-21686650D02*
X9792563Y-21686650D01*
X9792563Y-21686650D02*
X9811610Y-21696174D01*
X9811610Y-21696174D02*
X9821134Y-21715222D01*
X9821134Y-21715222D02*
X9821134Y-21819984D01*
X9821134Y-21715222D02*
X9830658Y-21696174D01*
X9830658Y-21696174D02*
X9849705Y-21686650D01*
X9849705Y-21686650D02*
X9878277Y-21686650D01*
X9878277Y-21686650D02*
X9897325Y-21696174D01*
X9897325Y-21696174D02*
X9906848Y-21715222D01*
X9906848Y-21715222D02*
X9906848Y-21819984D01*
X10002086Y-21819984D02*
X10002086Y-21686650D01*
X10002086Y-21705698D02*
X10011610Y-21696174D01*
X10011610Y-21696174D02*
X10030658Y-21686650D01*
X10030658Y-21686650D02*
X10059229Y-21686650D01*
X10059229Y-21686650D02*
X10078277Y-21696174D01*
X10078277Y-21696174D02*
X10087801Y-21715222D01*
X10087801Y-21715222D02*
X10087801Y-21819984D01*
X10087801Y-21715222D02*
X10097325Y-21696174D01*
X10097325Y-21696174D02*
X10116372Y-21686650D01*
X10116372Y-21686650D02*
X10144944Y-21686650D01*
X10144944Y-21686650D02*
X10163991Y-21696174D01*
X10163991Y-21696174D02*
X10173515Y-21715222D01*
X10173515Y-21715222D02*
X10173515Y-21819984D01*
X10563991Y-21610460D02*
X10392563Y-21867603D01*
X10821134Y-21619984D02*
X10840182Y-21619984D01*
X10840182Y-21619984D02*
X10859229Y-21629508D01*
X10859229Y-21629508D02*
X10868753Y-21639031D01*
X10868753Y-21639031D02*
X10878277Y-21658079D01*
X10878277Y-21658079D02*
X10887801Y-21696174D01*
X10887801Y-21696174D02*
X10887801Y-21743793D01*
X10887801Y-21743793D02*
X10878277Y-21781889D01*
X10878277Y-21781889D02*
X10868753Y-21800936D01*
X10868753Y-21800936D02*
X10859229Y-21810460D01*
X10859229Y-21810460D02*
X10840182Y-21819984D01*
X10840182Y-21819984D02*
X10821134Y-21819984D01*
X10821134Y-21819984D02*
X10802087Y-21810460D01*
X10802087Y-21810460D02*
X10792563Y-21800936D01*
X10792563Y-21800936D02*
X10783039Y-21781889D01*
X10783039Y-21781889D02*
X10773515Y-21743793D01*
X10773515Y-21743793D02*
X10773515Y-21696174D01*
X10773515Y-21696174D02*
X10783039Y-21658079D01*
X10783039Y-21658079D02*
X10792563Y-21639031D01*
X10792563Y-21639031D02*
X10802087Y-21629508D01*
X10802087Y-21629508D02*
X10821134Y-21619984D01*
X10973515Y-21800936D02*
X10983039Y-21810460D01*
X10983039Y-21810460D02*
X10973515Y-21819984D01*
X10973515Y-21819984D02*
X10963991Y-21810460D01*
X10963991Y-21810460D02*
X10973515Y-21800936D01*
X10973515Y-21800936D02*
X10973515Y-21819984D01*
X11106848Y-21619984D02*
X11125896Y-21619984D01*
X11125896Y-21619984D02*
X11144944Y-21629508D01*
X11144944Y-21629508D02*
X11154468Y-21639031D01*
X11154468Y-21639031D02*
X11163991Y-21658079D01*
X11163991Y-21658079D02*
X11173515Y-21696174D01*
X11173515Y-21696174D02*
X11173515Y-21743793D01*
X11173515Y-21743793D02*
X11163991Y-21781889D01*
X11163991Y-21781889D02*
X11154468Y-21800936D01*
X11154468Y-21800936D02*
X11144944Y-21810460D01*
X11144944Y-21810460D02*
X11125896Y-21819984D01*
X11125896Y-21819984D02*
X11106848Y-21819984D01*
X11106848Y-21819984D02*
X11087801Y-21810460D01*
X11087801Y-21810460D02*
X11078277Y-21800936D01*
X11078277Y-21800936D02*
X11068753Y-21781889D01*
X11068753Y-21781889D02*
X11059229Y-21743793D01*
X11059229Y-21743793D02*
X11059229Y-21696174D01*
X11059229Y-21696174D02*
X11068753Y-21658079D01*
X11068753Y-21658079D02*
X11078277Y-21639031D01*
X11078277Y-21639031D02*
X11087801Y-21629508D01*
X11087801Y-21629508D02*
X11106848Y-21619984D01*
X11240182Y-21619984D02*
X11363991Y-21619984D01*
X11363991Y-21619984D02*
X11297325Y-21696174D01*
X11297325Y-21696174D02*
X11325896Y-21696174D01*
X11325896Y-21696174D02*
X11344944Y-21705698D01*
X11344944Y-21705698D02*
X11354467Y-21715222D01*
X11354467Y-21715222D02*
X11363991Y-21734270D01*
X11363991Y-21734270D02*
X11363991Y-21781889D01*
X11363991Y-21781889D02*
X11354467Y-21800936D01*
X11354467Y-21800936D02*
X11344944Y-21810460D01*
X11344944Y-21810460D02*
X11325896Y-21819984D01*
X11325896Y-21819984D02*
X11268753Y-21819984D01*
X11268753Y-21819984D02*
X11249706Y-21810460D01*
X11249706Y-21810460D02*
X11240182Y-21800936D01*
X11544944Y-21619984D02*
X11449706Y-21619984D01*
X11449706Y-21619984D02*
X11440182Y-21715222D01*
X11440182Y-21715222D02*
X11449706Y-21705698D01*
X11449706Y-21705698D02*
X11468753Y-21696174D01*
X11468753Y-21696174D02*
X11516372Y-21696174D01*
X11516372Y-21696174D02*
X11535420Y-21705698D01*
X11535420Y-21705698D02*
X11544944Y-21715222D01*
X11544944Y-21715222D02*
X11554467Y-21734270D01*
X11554467Y-21734270D02*
X11554467Y-21781889D01*
X11554467Y-21781889D02*
X11544944Y-21800936D01*
X11544944Y-21800936D02*
X11535420Y-21810460D01*
X11535420Y-21810460D02*
X11516372Y-21819984D01*
X11516372Y-21819984D02*
X11468753Y-21819984D01*
X11468753Y-21819984D02*
X11449706Y-21810460D01*
X11449706Y-21810460D02*
X11440182Y-21800936D01*
X11725896Y-21686650D02*
X11725896Y-21819984D01*
X11678277Y-21610460D02*
X11630658Y-21753317D01*
X11630658Y-21753317D02*
X11754467Y-21753317D01*
X11821134Y-21619984D02*
X11821134Y-21658079D01*
X11897325Y-21619984D02*
X11897325Y-21658079D01*
X12192563Y-21896174D02*
X12183039Y-21886650D01*
X12183039Y-21886650D02*
X12163991Y-21858079D01*
X12163991Y-21858079D02*
X12154468Y-21839031D01*
X12154468Y-21839031D02*
X12144944Y-21810460D01*
X12144944Y-21810460D02*
X12135420Y-21762841D01*
X12135420Y-21762841D02*
X12135420Y-21724746D01*
X12135420Y-21724746D02*
X12144944Y-21677127D01*
X12144944Y-21677127D02*
X12154468Y-21648555D01*
X12154468Y-21648555D02*
X12163991Y-21629508D01*
X12163991Y-21629508D02*
X12183039Y-21600936D01*
X12183039Y-21600936D02*
X12192563Y-21591412D01*
X12354468Y-21619984D02*
X12316372Y-21619984D01*
X12316372Y-21619984D02*
X12297325Y-21629508D01*
X12297325Y-21629508D02*
X12287801Y-21639031D01*
X12287801Y-21639031D02*
X12268753Y-21667603D01*
X12268753Y-21667603D02*
X12259229Y-21705698D01*
X12259229Y-21705698D02*
X12259229Y-21781889D01*
X12259229Y-21781889D02*
X12268753Y-21800936D01*
X12268753Y-21800936D02*
X12278277Y-21810460D01*
X12278277Y-21810460D02*
X12297325Y-21819984D01*
X12297325Y-21819984D02*
X12335420Y-21819984D01*
X12335420Y-21819984D02*
X12354468Y-21810460D01*
X12354468Y-21810460D02*
X12363991Y-21800936D01*
X12363991Y-21800936D02*
X12373515Y-21781889D01*
X12373515Y-21781889D02*
X12373515Y-21734270D01*
X12373515Y-21734270D02*
X12363991Y-21715222D01*
X12363991Y-21715222D02*
X12354468Y-21705698D01*
X12354468Y-21705698D02*
X12335420Y-21696174D01*
X12335420Y-21696174D02*
X12297325Y-21696174D01*
X12297325Y-21696174D02*
X12278277Y-21705698D01*
X12278277Y-21705698D02*
X12268753Y-21715222D01*
X12268753Y-21715222D02*
X12259229Y-21734270D01*
X12611610Y-21819984D02*
X12611610Y-21619984D01*
X12697325Y-21819984D02*
X12697325Y-21715222D01*
X12697325Y-21715222D02*
X12687801Y-21696174D01*
X12687801Y-21696174D02*
X12668753Y-21686650D01*
X12668753Y-21686650D02*
X12640182Y-21686650D01*
X12640182Y-21686650D02*
X12621134Y-21696174D01*
X12621134Y-21696174D02*
X12611610Y-21705698D01*
X12821134Y-21819984D02*
X12802087Y-21810460D01*
X12802087Y-21810460D02*
X12792563Y-21800936D01*
X12792563Y-21800936D02*
X12783039Y-21781889D01*
X12783039Y-21781889D02*
X12783039Y-21724746D01*
X12783039Y-21724746D02*
X12792563Y-21705698D01*
X12792563Y-21705698D02*
X12802087Y-21696174D01*
X12802087Y-21696174D02*
X12821134Y-21686650D01*
X12821134Y-21686650D02*
X12849706Y-21686650D01*
X12849706Y-21686650D02*
X12868753Y-21696174D01*
X12868753Y-21696174D02*
X12878277Y-21705698D01*
X12878277Y-21705698D02*
X12887801Y-21724746D01*
X12887801Y-21724746D02*
X12887801Y-21781889D01*
X12887801Y-21781889D02*
X12878277Y-21800936D01*
X12878277Y-21800936D02*
X12868753Y-21810460D01*
X12868753Y-21810460D02*
X12849706Y-21819984D01*
X12849706Y-21819984D02*
X12821134Y-21819984D01*
X13002087Y-21819984D02*
X12983039Y-21810460D01*
X12983039Y-21810460D02*
X12973515Y-21791412D01*
X12973515Y-21791412D02*
X12973515Y-21619984D01*
X13154468Y-21810460D02*
X13135420Y-21819984D01*
X13135420Y-21819984D02*
X13097325Y-21819984D01*
X13097325Y-21819984D02*
X13078277Y-21810460D01*
X13078277Y-21810460D02*
X13068753Y-21791412D01*
X13068753Y-21791412D02*
X13068753Y-21715222D01*
X13068753Y-21715222D02*
X13078277Y-21696174D01*
X13078277Y-21696174D02*
X13097325Y-21686650D01*
X13097325Y-21686650D02*
X13135420Y-21686650D01*
X13135420Y-21686650D02*
X13154468Y-21696174D01*
X13154468Y-21696174D02*
X13163991Y-21715222D01*
X13163991Y-21715222D02*
X13163991Y-21734270D01*
X13163991Y-21734270D02*
X13068753Y-21753317D01*
X13240182Y-21810460D02*
X13259230Y-21819984D01*
X13259230Y-21819984D02*
X13297325Y-21819984D01*
X13297325Y-21819984D02*
X13316372Y-21810460D01*
X13316372Y-21810460D02*
X13325896Y-21791412D01*
X13325896Y-21791412D02*
X13325896Y-21781889D01*
X13325896Y-21781889D02*
X13316372Y-21762841D01*
X13316372Y-21762841D02*
X13297325Y-21753317D01*
X13297325Y-21753317D02*
X13268753Y-21753317D01*
X13268753Y-21753317D02*
X13249706Y-21743793D01*
X13249706Y-21743793D02*
X13240182Y-21724746D01*
X13240182Y-21724746D02*
X13240182Y-21715222D01*
X13240182Y-21715222D02*
X13249706Y-21696174D01*
X13249706Y-21696174D02*
X13268753Y-21686650D01*
X13268753Y-21686650D02*
X13297325Y-21686650D01*
X13297325Y-21686650D02*
X13316372Y-21696174D01*
X13392563Y-21896174D02*
X13402087Y-21886650D01*
X13402087Y-21886650D02*
X13421134Y-21858079D01*
X13421134Y-21858079D02*
X13430658Y-21839031D01*
X13430658Y-21839031D02*
X13440182Y-21810460D01*
X13440182Y-21810460D02*
X13449706Y-21762841D01*
X13449706Y-21762841D02*
X13449706Y-21724746D01*
X13449706Y-21724746D02*
X13440182Y-21677127D01*
X13440182Y-21677127D02*
X13430658Y-21648555D01*
X13430658Y-21648555D02*
X13421134Y-21629508D01*
X13421134Y-21629508D02*
X13402087Y-21600936D01*
X13402087Y-21600936D02*
X13392563Y-21591412D01*
D12*
X8517500Y-21942500D02*
X8617500Y-22042500D01*
X8617500Y-21942500D02*
X8517500Y-22042500D01*
X8617500Y-21992500D02*
G75*
G02*
X8517500Y-21992500I-50000J0D01*
G01*
X8517500Y-21992500D02*
G75*
G02*
X8617500Y-21992500I50000J0D01*
G01*
D11*
X8983039Y-22083984D02*
X8868753Y-22083984D01*
X8925896Y-22083984D02*
X8925896Y-21883984D01*
X8925896Y-21883984D02*
X8906848Y-21912555D01*
X8906848Y-21912555D02*
X8887801Y-21931603D01*
X8887801Y-21931603D02*
X8868753Y-21941127D01*
X9068753Y-22064936D02*
X9078277Y-22074460D01*
X9078277Y-22074460D02*
X9068753Y-22083984D01*
X9068753Y-22083984D02*
X9059229Y-22074460D01*
X9059229Y-22074460D02*
X9068753Y-22064936D01*
X9068753Y-22064936D02*
X9068753Y-22083984D01*
X9202086Y-21883984D02*
X9221134Y-21883984D01*
X9221134Y-21883984D02*
X9240182Y-21893508D01*
X9240182Y-21893508D02*
X9249705Y-21903031D01*
X9249705Y-21903031D02*
X9259229Y-21922079D01*
X9259229Y-21922079D02*
X9268753Y-21960174D01*
X9268753Y-21960174D02*
X9268753Y-22007793D01*
X9268753Y-22007793D02*
X9259229Y-22045889D01*
X9259229Y-22045889D02*
X9249705Y-22064936D01*
X9249705Y-22064936D02*
X9240182Y-22074460D01*
X9240182Y-22074460D02*
X9221134Y-22083984D01*
X9221134Y-22083984D02*
X9202086Y-22083984D01*
X9202086Y-22083984D02*
X9183039Y-22074460D01*
X9183039Y-22074460D02*
X9173515Y-22064936D01*
X9173515Y-22064936D02*
X9163991Y-22045889D01*
X9163991Y-22045889D02*
X9154467Y-22007793D01*
X9154467Y-22007793D02*
X9154467Y-21960174D01*
X9154467Y-21960174D02*
X9163991Y-21922079D01*
X9163991Y-21922079D02*
X9173515Y-21903031D01*
X9173515Y-21903031D02*
X9183039Y-21893508D01*
X9183039Y-21893508D02*
X9202086Y-21883984D01*
X9392563Y-21883984D02*
X9411610Y-21883984D01*
X9411610Y-21883984D02*
X9430658Y-21893508D01*
X9430658Y-21893508D02*
X9440182Y-21903031D01*
X9440182Y-21903031D02*
X9449705Y-21922079D01*
X9449705Y-21922079D02*
X9459229Y-21960174D01*
X9459229Y-21960174D02*
X9459229Y-22007793D01*
X9459229Y-22007793D02*
X9449705Y-22045889D01*
X9449705Y-22045889D02*
X9440182Y-22064936D01*
X9440182Y-22064936D02*
X9430658Y-22074460D01*
X9430658Y-22074460D02*
X9411610Y-22083984D01*
X9411610Y-22083984D02*
X9392563Y-22083984D01*
X9392563Y-22083984D02*
X9373515Y-22074460D01*
X9373515Y-22074460D02*
X9363991Y-22064936D01*
X9363991Y-22064936D02*
X9354467Y-22045889D01*
X9354467Y-22045889D02*
X9344944Y-22007793D01*
X9344944Y-22007793D02*
X9344944Y-21960174D01*
X9344944Y-21960174D02*
X9354467Y-21922079D01*
X9354467Y-21922079D02*
X9363991Y-21903031D01*
X9363991Y-21903031D02*
X9373515Y-21893508D01*
X9373515Y-21893508D02*
X9392563Y-21883984D01*
X9583039Y-21883984D02*
X9602086Y-21883984D01*
X9602086Y-21883984D02*
X9621134Y-21893508D01*
X9621134Y-21893508D02*
X9630658Y-21903031D01*
X9630658Y-21903031D02*
X9640182Y-21922079D01*
X9640182Y-21922079D02*
X9649705Y-21960174D01*
X9649705Y-21960174D02*
X9649705Y-22007793D01*
X9649705Y-22007793D02*
X9640182Y-22045889D01*
X9640182Y-22045889D02*
X9630658Y-22064936D01*
X9630658Y-22064936D02*
X9621134Y-22074460D01*
X9621134Y-22074460D02*
X9602086Y-22083984D01*
X9602086Y-22083984D02*
X9583039Y-22083984D01*
X9583039Y-22083984D02*
X9563991Y-22074460D01*
X9563991Y-22074460D02*
X9554467Y-22064936D01*
X9554467Y-22064936D02*
X9544944Y-22045889D01*
X9544944Y-22045889D02*
X9535420Y-22007793D01*
X9535420Y-22007793D02*
X9535420Y-21960174D01*
X9535420Y-21960174D02*
X9544944Y-21922079D01*
X9544944Y-21922079D02*
X9554467Y-21903031D01*
X9554467Y-21903031D02*
X9563991Y-21893508D01*
X9563991Y-21893508D02*
X9583039Y-21883984D01*
X9735420Y-22083984D02*
X9735420Y-21950650D01*
X9735420Y-21969698D02*
X9744944Y-21960174D01*
X9744944Y-21960174D02*
X9763991Y-21950650D01*
X9763991Y-21950650D02*
X9792563Y-21950650D01*
X9792563Y-21950650D02*
X9811610Y-21960174D01*
X9811610Y-21960174D02*
X9821134Y-21979222D01*
X9821134Y-21979222D02*
X9821134Y-22083984D01*
X9821134Y-21979222D02*
X9830658Y-21960174D01*
X9830658Y-21960174D02*
X9849705Y-21950650D01*
X9849705Y-21950650D02*
X9878277Y-21950650D01*
X9878277Y-21950650D02*
X9897325Y-21960174D01*
X9897325Y-21960174D02*
X9906848Y-21979222D01*
X9906848Y-21979222D02*
X9906848Y-22083984D01*
X10002086Y-22083984D02*
X10002086Y-21950650D01*
X10002086Y-21969698D02*
X10011610Y-21960174D01*
X10011610Y-21960174D02*
X10030658Y-21950650D01*
X10030658Y-21950650D02*
X10059229Y-21950650D01*
X10059229Y-21950650D02*
X10078277Y-21960174D01*
X10078277Y-21960174D02*
X10087801Y-21979222D01*
X10087801Y-21979222D02*
X10087801Y-22083984D01*
X10087801Y-21979222D02*
X10097325Y-21960174D01*
X10097325Y-21960174D02*
X10116372Y-21950650D01*
X10116372Y-21950650D02*
X10144944Y-21950650D01*
X10144944Y-21950650D02*
X10163991Y-21960174D01*
X10163991Y-21960174D02*
X10173515Y-21979222D01*
X10173515Y-21979222D02*
X10173515Y-22083984D01*
X10563991Y-21874460D02*
X10392563Y-22131603D01*
X10821134Y-21883984D02*
X10840182Y-21883984D01*
X10840182Y-21883984D02*
X10859229Y-21893508D01*
X10859229Y-21893508D02*
X10868753Y-21903031D01*
X10868753Y-21903031D02*
X10878277Y-21922079D01*
X10878277Y-21922079D02*
X10887801Y-21960174D01*
X10887801Y-21960174D02*
X10887801Y-22007793D01*
X10887801Y-22007793D02*
X10878277Y-22045889D01*
X10878277Y-22045889D02*
X10868753Y-22064936D01*
X10868753Y-22064936D02*
X10859229Y-22074460D01*
X10859229Y-22074460D02*
X10840182Y-22083984D01*
X10840182Y-22083984D02*
X10821134Y-22083984D01*
X10821134Y-22083984D02*
X10802087Y-22074460D01*
X10802087Y-22074460D02*
X10792563Y-22064936D01*
X10792563Y-22064936D02*
X10783039Y-22045889D01*
X10783039Y-22045889D02*
X10773515Y-22007793D01*
X10773515Y-22007793D02*
X10773515Y-21960174D01*
X10773515Y-21960174D02*
X10783039Y-21922079D01*
X10783039Y-21922079D02*
X10792563Y-21903031D01*
X10792563Y-21903031D02*
X10802087Y-21893508D01*
X10802087Y-21893508D02*
X10821134Y-21883984D01*
X10973515Y-22064936D02*
X10983039Y-22074460D01*
X10983039Y-22074460D02*
X10973515Y-22083984D01*
X10973515Y-22083984D02*
X10963991Y-22074460D01*
X10963991Y-22074460D02*
X10973515Y-22064936D01*
X10973515Y-22064936D02*
X10973515Y-22083984D01*
X11106848Y-21883984D02*
X11125896Y-21883984D01*
X11125896Y-21883984D02*
X11144944Y-21893508D01*
X11144944Y-21893508D02*
X11154468Y-21903031D01*
X11154468Y-21903031D02*
X11163991Y-21922079D01*
X11163991Y-21922079D02*
X11173515Y-21960174D01*
X11173515Y-21960174D02*
X11173515Y-22007793D01*
X11173515Y-22007793D02*
X11163991Y-22045889D01*
X11163991Y-22045889D02*
X11154468Y-22064936D01*
X11154468Y-22064936D02*
X11144944Y-22074460D01*
X11144944Y-22074460D02*
X11125896Y-22083984D01*
X11125896Y-22083984D02*
X11106848Y-22083984D01*
X11106848Y-22083984D02*
X11087801Y-22074460D01*
X11087801Y-22074460D02*
X11078277Y-22064936D01*
X11078277Y-22064936D02*
X11068753Y-22045889D01*
X11068753Y-22045889D02*
X11059229Y-22007793D01*
X11059229Y-22007793D02*
X11059229Y-21960174D01*
X11059229Y-21960174D02*
X11068753Y-21922079D01*
X11068753Y-21922079D02*
X11078277Y-21903031D01*
X11078277Y-21903031D02*
X11087801Y-21893508D01*
X11087801Y-21893508D02*
X11106848Y-21883984D01*
X11240182Y-21883984D02*
X11363991Y-21883984D01*
X11363991Y-21883984D02*
X11297325Y-21960174D01*
X11297325Y-21960174D02*
X11325896Y-21960174D01*
X11325896Y-21960174D02*
X11344944Y-21969698D01*
X11344944Y-21969698D02*
X11354467Y-21979222D01*
X11354467Y-21979222D02*
X11363991Y-21998270D01*
X11363991Y-21998270D02*
X11363991Y-22045889D01*
X11363991Y-22045889D02*
X11354467Y-22064936D01*
X11354467Y-22064936D02*
X11344944Y-22074460D01*
X11344944Y-22074460D02*
X11325896Y-22083984D01*
X11325896Y-22083984D02*
X11268753Y-22083984D01*
X11268753Y-22083984D02*
X11249706Y-22074460D01*
X11249706Y-22074460D02*
X11240182Y-22064936D01*
X11459229Y-22083984D02*
X11497325Y-22083984D01*
X11497325Y-22083984D02*
X11516372Y-22074460D01*
X11516372Y-22074460D02*
X11525896Y-22064936D01*
X11525896Y-22064936D02*
X11544944Y-22036365D01*
X11544944Y-22036365D02*
X11554467Y-21998270D01*
X11554467Y-21998270D02*
X11554467Y-21922079D01*
X11554467Y-21922079D02*
X11544944Y-21903031D01*
X11544944Y-21903031D02*
X11535420Y-21893508D01*
X11535420Y-21893508D02*
X11516372Y-21883984D01*
X11516372Y-21883984D02*
X11478277Y-21883984D01*
X11478277Y-21883984D02*
X11459229Y-21893508D01*
X11459229Y-21893508D02*
X11449706Y-21903031D01*
X11449706Y-21903031D02*
X11440182Y-21922079D01*
X11440182Y-21922079D02*
X11440182Y-21969698D01*
X11440182Y-21969698D02*
X11449706Y-21988746D01*
X11449706Y-21988746D02*
X11459229Y-21998270D01*
X11459229Y-21998270D02*
X11478277Y-22007793D01*
X11478277Y-22007793D02*
X11516372Y-22007793D01*
X11516372Y-22007793D02*
X11535420Y-21998270D01*
X11535420Y-21998270D02*
X11544944Y-21988746D01*
X11544944Y-21988746D02*
X11554467Y-21969698D01*
X11725896Y-21950650D02*
X11725896Y-22083984D01*
X11678277Y-21874460D02*
X11630658Y-22017317D01*
X11630658Y-22017317D02*
X11754467Y-22017317D01*
X11821134Y-21883984D02*
X11821134Y-21922079D01*
X11897325Y-21883984D02*
X11897325Y-21922079D01*
X12192563Y-22160174D02*
X12183039Y-22150650D01*
X12183039Y-22150650D02*
X12163991Y-22122079D01*
X12163991Y-22122079D02*
X12154468Y-22103031D01*
X12154468Y-22103031D02*
X12144944Y-22074460D01*
X12144944Y-22074460D02*
X12135420Y-22026841D01*
X12135420Y-22026841D02*
X12135420Y-21988746D01*
X12135420Y-21988746D02*
X12144944Y-21941127D01*
X12144944Y-21941127D02*
X12154468Y-21912555D01*
X12154468Y-21912555D02*
X12163991Y-21893508D01*
X12163991Y-21893508D02*
X12183039Y-21864936D01*
X12183039Y-21864936D02*
X12192563Y-21855412D01*
X12297325Y-21969698D02*
X12278277Y-21960174D01*
X12278277Y-21960174D02*
X12268753Y-21950650D01*
X12268753Y-21950650D02*
X12259229Y-21931603D01*
X12259229Y-21931603D02*
X12259229Y-21922079D01*
X12259229Y-21922079D02*
X12268753Y-21903031D01*
X12268753Y-21903031D02*
X12278277Y-21893508D01*
X12278277Y-21893508D02*
X12297325Y-21883984D01*
X12297325Y-21883984D02*
X12335420Y-21883984D01*
X12335420Y-21883984D02*
X12354468Y-21893508D01*
X12354468Y-21893508D02*
X12363991Y-21903031D01*
X12363991Y-21903031D02*
X12373515Y-21922079D01*
X12373515Y-21922079D02*
X12373515Y-21931603D01*
X12373515Y-21931603D02*
X12363991Y-21950650D01*
X12363991Y-21950650D02*
X12354468Y-21960174D01*
X12354468Y-21960174D02*
X12335420Y-21969698D01*
X12335420Y-21969698D02*
X12297325Y-21969698D01*
X12297325Y-21969698D02*
X12278277Y-21979222D01*
X12278277Y-21979222D02*
X12268753Y-21988746D01*
X12268753Y-21988746D02*
X12259229Y-22007793D01*
X12259229Y-22007793D02*
X12259229Y-22045889D01*
X12259229Y-22045889D02*
X12268753Y-22064936D01*
X12268753Y-22064936D02*
X12278277Y-22074460D01*
X12278277Y-22074460D02*
X12297325Y-22083984D01*
X12297325Y-22083984D02*
X12335420Y-22083984D01*
X12335420Y-22083984D02*
X12354468Y-22074460D01*
X12354468Y-22074460D02*
X12363991Y-22064936D01*
X12363991Y-22064936D02*
X12373515Y-22045889D01*
X12373515Y-22045889D02*
X12373515Y-22007793D01*
X12373515Y-22007793D02*
X12363991Y-21988746D01*
X12363991Y-21988746D02*
X12354468Y-21979222D01*
X12354468Y-21979222D02*
X12335420Y-21969698D01*
X12611610Y-22083984D02*
X12611610Y-21883984D01*
X12697325Y-22083984D02*
X12697325Y-21979222D01*
X12697325Y-21979222D02*
X12687801Y-21960174D01*
X12687801Y-21960174D02*
X12668753Y-21950650D01*
X12668753Y-21950650D02*
X12640182Y-21950650D01*
X12640182Y-21950650D02*
X12621134Y-21960174D01*
X12621134Y-21960174D02*
X12611610Y-21969698D01*
X12821134Y-22083984D02*
X12802087Y-22074460D01*
X12802087Y-22074460D02*
X12792563Y-22064936D01*
X12792563Y-22064936D02*
X12783039Y-22045889D01*
X12783039Y-22045889D02*
X12783039Y-21988746D01*
X12783039Y-21988746D02*
X12792563Y-21969698D01*
X12792563Y-21969698D02*
X12802087Y-21960174D01*
X12802087Y-21960174D02*
X12821134Y-21950650D01*
X12821134Y-21950650D02*
X12849706Y-21950650D01*
X12849706Y-21950650D02*
X12868753Y-21960174D01*
X12868753Y-21960174D02*
X12878277Y-21969698D01*
X12878277Y-21969698D02*
X12887801Y-21988746D01*
X12887801Y-21988746D02*
X12887801Y-22045889D01*
X12887801Y-22045889D02*
X12878277Y-22064936D01*
X12878277Y-22064936D02*
X12868753Y-22074460D01*
X12868753Y-22074460D02*
X12849706Y-22083984D01*
X12849706Y-22083984D02*
X12821134Y-22083984D01*
X13002087Y-22083984D02*
X12983039Y-22074460D01*
X12983039Y-22074460D02*
X12973515Y-22055412D01*
X12973515Y-22055412D02*
X12973515Y-21883984D01*
X13154468Y-22074460D02*
X13135420Y-22083984D01*
X13135420Y-22083984D02*
X13097325Y-22083984D01*
X13097325Y-22083984D02*
X13078277Y-22074460D01*
X13078277Y-22074460D02*
X13068753Y-22055412D01*
X13068753Y-22055412D02*
X13068753Y-21979222D01*
X13068753Y-21979222D02*
X13078277Y-21960174D01*
X13078277Y-21960174D02*
X13097325Y-21950650D01*
X13097325Y-21950650D02*
X13135420Y-21950650D01*
X13135420Y-21950650D02*
X13154468Y-21960174D01*
X13154468Y-21960174D02*
X13163991Y-21979222D01*
X13163991Y-21979222D02*
X13163991Y-21998270D01*
X13163991Y-21998270D02*
X13068753Y-22017317D01*
X13240182Y-22074460D02*
X13259230Y-22083984D01*
X13259230Y-22083984D02*
X13297325Y-22083984D01*
X13297325Y-22083984D02*
X13316372Y-22074460D01*
X13316372Y-22074460D02*
X13325896Y-22055412D01*
X13325896Y-22055412D02*
X13325896Y-22045889D01*
X13325896Y-22045889D02*
X13316372Y-22026841D01*
X13316372Y-22026841D02*
X13297325Y-22017317D01*
X13297325Y-22017317D02*
X13268753Y-22017317D01*
X13268753Y-22017317D02*
X13249706Y-22007793D01*
X13249706Y-22007793D02*
X13240182Y-21988746D01*
X13240182Y-21988746D02*
X13240182Y-21979222D01*
X13240182Y-21979222D02*
X13249706Y-21960174D01*
X13249706Y-21960174D02*
X13268753Y-21950650D01*
X13268753Y-21950650D02*
X13297325Y-21950650D01*
X13297325Y-21950650D02*
X13316372Y-21960174D01*
X13392563Y-22160174D02*
X13402087Y-22150650D01*
X13402087Y-22150650D02*
X13421134Y-22122079D01*
X13421134Y-22122079D02*
X13430658Y-22103031D01*
X13430658Y-22103031D02*
X13440182Y-22074460D01*
X13440182Y-22074460D02*
X13449706Y-22026841D01*
X13449706Y-22026841D02*
X13449706Y-21988746D01*
X13449706Y-21988746D02*
X13440182Y-21941127D01*
X13440182Y-21941127D02*
X13430658Y-21912555D01*
X13430658Y-21912555D02*
X13421134Y-21893508D01*
X13421134Y-21893508D02*
X13402087Y-21864936D01*
X13402087Y-21864936D02*
X13392563Y-21855412D01*
D13*
X8507500Y-22201500D02*
X8617500Y-22311500D01*
X8617500Y-22201500D02*
X8507500Y-22311500D01*
X8562500Y-22201500D02*
X8562500Y-22311500D01*
X8507500Y-22256500D02*
X8617500Y-22256500D01*
D11*
X8983039Y-22347984D02*
X8868753Y-22347984D01*
X8925896Y-22347984D02*
X8925896Y-22147984D01*
X8925896Y-22147984D02*
X8906848Y-22176555D01*
X8906848Y-22176555D02*
X8887801Y-22195603D01*
X8887801Y-22195603D02*
X8868753Y-22205127D01*
X9068753Y-22328936D02*
X9078277Y-22338460D01*
X9078277Y-22338460D02*
X9068753Y-22347984D01*
X9068753Y-22347984D02*
X9059229Y-22338460D01*
X9059229Y-22338460D02*
X9068753Y-22328936D01*
X9068753Y-22328936D02*
X9068753Y-22347984D01*
X9268753Y-22347984D02*
X9154467Y-22347984D01*
X9211610Y-22347984D02*
X9211610Y-22147984D01*
X9211610Y-22147984D02*
X9192563Y-22176555D01*
X9192563Y-22176555D02*
X9173515Y-22195603D01*
X9173515Y-22195603D02*
X9154467Y-22205127D01*
X9392563Y-22147984D02*
X9411610Y-22147984D01*
X9411610Y-22147984D02*
X9430658Y-22157508D01*
X9430658Y-22157508D02*
X9440182Y-22167031D01*
X9440182Y-22167031D02*
X9449705Y-22186079D01*
X9449705Y-22186079D02*
X9459229Y-22224174D01*
X9459229Y-22224174D02*
X9459229Y-22271793D01*
X9459229Y-22271793D02*
X9449705Y-22309889D01*
X9449705Y-22309889D02*
X9440182Y-22328936D01*
X9440182Y-22328936D02*
X9430658Y-22338460D01*
X9430658Y-22338460D02*
X9411610Y-22347984D01*
X9411610Y-22347984D02*
X9392563Y-22347984D01*
X9392563Y-22347984D02*
X9373515Y-22338460D01*
X9373515Y-22338460D02*
X9363991Y-22328936D01*
X9363991Y-22328936D02*
X9354467Y-22309889D01*
X9354467Y-22309889D02*
X9344944Y-22271793D01*
X9344944Y-22271793D02*
X9344944Y-22224174D01*
X9344944Y-22224174D02*
X9354467Y-22186079D01*
X9354467Y-22186079D02*
X9363991Y-22167031D01*
X9363991Y-22167031D02*
X9373515Y-22157508D01*
X9373515Y-22157508D02*
X9392563Y-22147984D01*
X9583039Y-22147984D02*
X9602086Y-22147984D01*
X9602086Y-22147984D02*
X9621134Y-22157508D01*
X9621134Y-22157508D02*
X9630658Y-22167031D01*
X9630658Y-22167031D02*
X9640182Y-22186079D01*
X9640182Y-22186079D02*
X9649705Y-22224174D01*
X9649705Y-22224174D02*
X9649705Y-22271793D01*
X9649705Y-22271793D02*
X9640182Y-22309889D01*
X9640182Y-22309889D02*
X9630658Y-22328936D01*
X9630658Y-22328936D02*
X9621134Y-22338460D01*
X9621134Y-22338460D02*
X9602086Y-22347984D01*
X9602086Y-22347984D02*
X9583039Y-22347984D01*
X9583039Y-22347984D02*
X9563991Y-22338460D01*
X9563991Y-22338460D02*
X9554467Y-22328936D01*
X9554467Y-22328936D02*
X9544944Y-22309889D01*
X9544944Y-22309889D02*
X9535420Y-22271793D01*
X9535420Y-22271793D02*
X9535420Y-22224174D01*
X9535420Y-22224174D02*
X9544944Y-22186079D01*
X9544944Y-22186079D02*
X9554467Y-22167031D01*
X9554467Y-22167031D02*
X9563991Y-22157508D01*
X9563991Y-22157508D02*
X9583039Y-22147984D01*
X9735420Y-22347984D02*
X9735420Y-22214650D01*
X9735420Y-22233698D02*
X9744944Y-22224174D01*
X9744944Y-22224174D02*
X9763991Y-22214650D01*
X9763991Y-22214650D02*
X9792563Y-22214650D01*
X9792563Y-22214650D02*
X9811610Y-22224174D01*
X9811610Y-22224174D02*
X9821134Y-22243222D01*
X9821134Y-22243222D02*
X9821134Y-22347984D01*
X9821134Y-22243222D02*
X9830658Y-22224174D01*
X9830658Y-22224174D02*
X9849705Y-22214650D01*
X9849705Y-22214650D02*
X9878277Y-22214650D01*
X9878277Y-22214650D02*
X9897325Y-22224174D01*
X9897325Y-22224174D02*
X9906848Y-22243222D01*
X9906848Y-22243222D02*
X9906848Y-22347984D01*
X10002086Y-22347984D02*
X10002086Y-22214650D01*
X10002086Y-22233698D02*
X10011610Y-22224174D01*
X10011610Y-22224174D02*
X10030658Y-22214650D01*
X10030658Y-22214650D02*
X10059229Y-22214650D01*
X10059229Y-22214650D02*
X10078277Y-22224174D01*
X10078277Y-22224174D02*
X10087801Y-22243222D01*
X10087801Y-22243222D02*
X10087801Y-22347984D01*
X10087801Y-22243222D02*
X10097325Y-22224174D01*
X10097325Y-22224174D02*
X10116372Y-22214650D01*
X10116372Y-22214650D02*
X10144944Y-22214650D01*
X10144944Y-22214650D02*
X10163991Y-22224174D01*
X10163991Y-22224174D02*
X10173515Y-22243222D01*
X10173515Y-22243222D02*
X10173515Y-22347984D01*
X10563991Y-22138460D02*
X10392563Y-22395603D01*
X10821134Y-22147984D02*
X10840182Y-22147984D01*
X10840182Y-22147984D02*
X10859229Y-22157508D01*
X10859229Y-22157508D02*
X10868753Y-22167031D01*
X10868753Y-22167031D02*
X10878277Y-22186079D01*
X10878277Y-22186079D02*
X10887801Y-22224174D01*
X10887801Y-22224174D02*
X10887801Y-22271793D01*
X10887801Y-22271793D02*
X10878277Y-22309889D01*
X10878277Y-22309889D02*
X10868753Y-22328936D01*
X10868753Y-22328936D02*
X10859229Y-22338460D01*
X10859229Y-22338460D02*
X10840182Y-22347984D01*
X10840182Y-22347984D02*
X10821134Y-22347984D01*
X10821134Y-22347984D02*
X10802087Y-22338460D01*
X10802087Y-22338460D02*
X10792563Y-22328936D01*
X10792563Y-22328936D02*
X10783039Y-22309889D01*
X10783039Y-22309889D02*
X10773515Y-22271793D01*
X10773515Y-22271793D02*
X10773515Y-22224174D01*
X10773515Y-22224174D02*
X10783039Y-22186079D01*
X10783039Y-22186079D02*
X10792563Y-22167031D01*
X10792563Y-22167031D02*
X10802087Y-22157508D01*
X10802087Y-22157508D02*
X10821134Y-22147984D01*
X10973515Y-22328936D02*
X10983039Y-22338460D01*
X10983039Y-22338460D02*
X10973515Y-22347984D01*
X10973515Y-22347984D02*
X10963991Y-22338460D01*
X10963991Y-22338460D02*
X10973515Y-22328936D01*
X10973515Y-22328936D02*
X10973515Y-22347984D01*
X11106848Y-22147984D02*
X11125896Y-22147984D01*
X11125896Y-22147984D02*
X11144944Y-22157508D01*
X11144944Y-22157508D02*
X11154468Y-22167031D01*
X11154468Y-22167031D02*
X11163991Y-22186079D01*
X11163991Y-22186079D02*
X11173515Y-22224174D01*
X11173515Y-22224174D02*
X11173515Y-22271793D01*
X11173515Y-22271793D02*
X11163991Y-22309889D01*
X11163991Y-22309889D02*
X11154468Y-22328936D01*
X11154468Y-22328936D02*
X11144944Y-22338460D01*
X11144944Y-22338460D02*
X11125896Y-22347984D01*
X11125896Y-22347984D02*
X11106848Y-22347984D01*
X11106848Y-22347984D02*
X11087801Y-22338460D01*
X11087801Y-22338460D02*
X11078277Y-22328936D01*
X11078277Y-22328936D02*
X11068753Y-22309889D01*
X11068753Y-22309889D02*
X11059229Y-22271793D01*
X11059229Y-22271793D02*
X11059229Y-22224174D01*
X11059229Y-22224174D02*
X11068753Y-22186079D01*
X11068753Y-22186079D02*
X11078277Y-22167031D01*
X11078277Y-22167031D02*
X11087801Y-22157508D01*
X11087801Y-22157508D02*
X11106848Y-22147984D01*
X11344944Y-22214650D02*
X11344944Y-22347984D01*
X11297325Y-22138460D02*
X11249706Y-22281317D01*
X11249706Y-22281317D02*
X11373515Y-22281317D01*
X11430658Y-22147984D02*
X11554467Y-22147984D01*
X11554467Y-22147984D02*
X11487801Y-22224174D01*
X11487801Y-22224174D02*
X11516372Y-22224174D01*
X11516372Y-22224174D02*
X11535420Y-22233698D01*
X11535420Y-22233698D02*
X11544944Y-22243222D01*
X11544944Y-22243222D02*
X11554467Y-22262270D01*
X11554467Y-22262270D02*
X11554467Y-22309889D01*
X11554467Y-22309889D02*
X11544944Y-22328936D01*
X11544944Y-22328936D02*
X11535420Y-22338460D01*
X11535420Y-22338460D02*
X11516372Y-22347984D01*
X11516372Y-22347984D02*
X11459229Y-22347984D01*
X11459229Y-22347984D02*
X11440182Y-22338460D01*
X11440182Y-22338460D02*
X11430658Y-22328936D01*
X11621134Y-22147984D02*
X11744944Y-22147984D01*
X11744944Y-22147984D02*
X11678277Y-22224174D01*
X11678277Y-22224174D02*
X11706848Y-22224174D01*
X11706848Y-22224174D02*
X11725896Y-22233698D01*
X11725896Y-22233698D02*
X11735420Y-22243222D01*
X11735420Y-22243222D02*
X11744944Y-22262270D01*
X11744944Y-22262270D02*
X11744944Y-22309889D01*
X11744944Y-22309889D02*
X11735420Y-22328936D01*
X11735420Y-22328936D02*
X11725896Y-22338460D01*
X11725896Y-22338460D02*
X11706848Y-22347984D01*
X11706848Y-22347984D02*
X11649706Y-22347984D01*
X11649706Y-22347984D02*
X11630658Y-22338460D01*
X11630658Y-22338460D02*
X11621134Y-22328936D01*
X11821134Y-22147984D02*
X11821134Y-22186079D01*
X11897325Y-22147984D02*
X11897325Y-22186079D01*
X12192563Y-22424174D02*
X12183039Y-22414650D01*
X12183039Y-22414650D02*
X12163991Y-22386079D01*
X12163991Y-22386079D02*
X12154468Y-22367031D01*
X12154468Y-22367031D02*
X12144944Y-22338460D01*
X12144944Y-22338460D02*
X12135420Y-22290841D01*
X12135420Y-22290841D02*
X12135420Y-22252746D01*
X12135420Y-22252746D02*
X12144944Y-22205127D01*
X12144944Y-22205127D02*
X12154468Y-22176555D01*
X12154468Y-22176555D02*
X12163991Y-22157508D01*
X12163991Y-22157508D02*
X12183039Y-22128936D01*
X12183039Y-22128936D02*
X12192563Y-22119412D01*
X12354468Y-22214650D02*
X12354468Y-22347984D01*
X12306848Y-22138460D02*
X12259229Y-22281317D01*
X12259229Y-22281317D02*
X12383039Y-22281317D01*
X12611610Y-22347984D02*
X12611610Y-22147984D01*
X12697325Y-22347984D02*
X12697325Y-22243222D01*
X12697325Y-22243222D02*
X12687801Y-22224174D01*
X12687801Y-22224174D02*
X12668753Y-22214650D01*
X12668753Y-22214650D02*
X12640182Y-22214650D01*
X12640182Y-22214650D02*
X12621134Y-22224174D01*
X12621134Y-22224174D02*
X12611610Y-22233698D01*
X12821134Y-22347984D02*
X12802087Y-22338460D01*
X12802087Y-22338460D02*
X12792563Y-22328936D01*
X12792563Y-22328936D02*
X12783039Y-22309889D01*
X12783039Y-22309889D02*
X12783039Y-22252746D01*
X12783039Y-22252746D02*
X12792563Y-22233698D01*
X12792563Y-22233698D02*
X12802087Y-22224174D01*
X12802087Y-22224174D02*
X12821134Y-22214650D01*
X12821134Y-22214650D02*
X12849706Y-22214650D01*
X12849706Y-22214650D02*
X12868753Y-22224174D01*
X12868753Y-22224174D02*
X12878277Y-22233698D01*
X12878277Y-22233698D02*
X12887801Y-22252746D01*
X12887801Y-22252746D02*
X12887801Y-22309889D01*
X12887801Y-22309889D02*
X12878277Y-22328936D01*
X12878277Y-22328936D02*
X12868753Y-22338460D01*
X12868753Y-22338460D02*
X12849706Y-22347984D01*
X12849706Y-22347984D02*
X12821134Y-22347984D01*
X13002087Y-22347984D02*
X12983039Y-22338460D01*
X12983039Y-22338460D02*
X12973515Y-22319412D01*
X12973515Y-22319412D02*
X12973515Y-22147984D01*
X13154468Y-22338460D02*
X13135420Y-22347984D01*
X13135420Y-22347984D02*
X13097325Y-22347984D01*
X13097325Y-22347984D02*
X13078277Y-22338460D01*
X13078277Y-22338460D02*
X13068753Y-22319412D01*
X13068753Y-22319412D02*
X13068753Y-22243222D01*
X13068753Y-22243222D02*
X13078277Y-22224174D01*
X13078277Y-22224174D02*
X13097325Y-22214650D01*
X13097325Y-22214650D02*
X13135420Y-22214650D01*
X13135420Y-22214650D02*
X13154468Y-22224174D01*
X13154468Y-22224174D02*
X13163991Y-22243222D01*
X13163991Y-22243222D02*
X13163991Y-22262270D01*
X13163991Y-22262270D02*
X13068753Y-22281317D01*
X13240182Y-22338460D02*
X13259230Y-22347984D01*
X13259230Y-22347984D02*
X13297325Y-22347984D01*
X13297325Y-22347984D02*
X13316372Y-22338460D01*
X13316372Y-22338460D02*
X13325896Y-22319412D01*
X13325896Y-22319412D02*
X13325896Y-22309889D01*
X13325896Y-22309889D02*
X13316372Y-22290841D01*
X13316372Y-22290841D02*
X13297325Y-22281317D01*
X13297325Y-22281317D02*
X13268753Y-22281317D01*
X13268753Y-22281317D02*
X13249706Y-22271793D01*
X13249706Y-22271793D02*
X13240182Y-22252746D01*
X13240182Y-22252746D02*
X13240182Y-22243222D01*
X13240182Y-22243222D02*
X13249706Y-22224174D01*
X13249706Y-22224174D02*
X13268753Y-22214650D01*
X13268753Y-22214650D02*
X13297325Y-22214650D01*
X13297325Y-22214650D02*
X13316372Y-22224174D01*
X13392563Y-22424174D02*
X13402087Y-22414650D01*
X13402087Y-22414650D02*
X13421134Y-22386079D01*
X13421134Y-22386079D02*
X13430658Y-22367031D01*
X13430658Y-22367031D02*
X13440182Y-22338460D01*
X13440182Y-22338460D02*
X13449706Y-22290841D01*
X13449706Y-22290841D02*
X13449706Y-22252746D01*
X13449706Y-22252746D02*
X13440182Y-22205127D01*
X13440182Y-22205127D02*
X13430658Y-22176555D01*
X13430658Y-22176555D02*
X13421134Y-22157508D01*
X13421134Y-22157508D02*
X13402087Y-22128936D01*
X13402087Y-22128936D02*
X13392563Y-22119412D01*
D14*
X8487500Y-22455500D02*
X8617500Y-22585500D01*
X8617500Y-22455500D02*
X8487500Y-22585500D01*
X8598462Y-22566462D02*
X8598462Y-22474538D01*
X8506538Y-22474538D01*
X8506538Y-22566462D01*
X8598462Y-22566462D01*
D11*
X8983039Y-22611984D02*
X8868753Y-22611984D01*
X8925896Y-22611984D02*
X8925896Y-22411984D01*
X8925896Y-22411984D02*
X8906848Y-22440555D01*
X8906848Y-22440555D02*
X8887801Y-22459603D01*
X8887801Y-22459603D02*
X8868753Y-22469127D01*
X9068753Y-22592936D02*
X9078277Y-22602460D01*
X9078277Y-22602460D02*
X9068753Y-22611984D01*
X9068753Y-22611984D02*
X9059229Y-22602460D01*
X9059229Y-22602460D02*
X9068753Y-22592936D01*
X9068753Y-22592936D02*
X9068753Y-22611984D01*
X9144944Y-22411984D02*
X9268753Y-22411984D01*
X9268753Y-22411984D02*
X9202086Y-22488174D01*
X9202086Y-22488174D02*
X9230658Y-22488174D01*
X9230658Y-22488174D02*
X9249705Y-22497698D01*
X9249705Y-22497698D02*
X9259229Y-22507222D01*
X9259229Y-22507222D02*
X9268753Y-22526269D01*
X9268753Y-22526269D02*
X9268753Y-22573888D01*
X9268753Y-22573888D02*
X9259229Y-22592936D01*
X9259229Y-22592936D02*
X9249705Y-22602460D01*
X9249705Y-22602460D02*
X9230658Y-22611984D01*
X9230658Y-22611984D02*
X9173515Y-22611984D01*
X9173515Y-22611984D02*
X9154467Y-22602460D01*
X9154467Y-22602460D02*
X9144944Y-22592936D01*
X9392563Y-22411984D02*
X9411610Y-22411984D01*
X9411610Y-22411984D02*
X9430658Y-22421508D01*
X9430658Y-22421508D02*
X9440182Y-22431031D01*
X9440182Y-22431031D02*
X9449705Y-22450079D01*
X9449705Y-22450079D02*
X9459229Y-22488174D01*
X9459229Y-22488174D02*
X9459229Y-22535793D01*
X9459229Y-22535793D02*
X9449705Y-22573888D01*
X9449705Y-22573888D02*
X9440182Y-22592936D01*
X9440182Y-22592936D02*
X9430658Y-22602460D01*
X9430658Y-22602460D02*
X9411610Y-22611984D01*
X9411610Y-22611984D02*
X9392563Y-22611984D01*
X9392563Y-22611984D02*
X9373515Y-22602460D01*
X9373515Y-22602460D02*
X9363991Y-22592936D01*
X9363991Y-22592936D02*
X9354467Y-22573888D01*
X9354467Y-22573888D02*
X9344944Y-22535793D01*
X9344944Y-22535793D02*
X9344944Y-22488174D01*
X9344944Y-22488174D02*
X9354467Y-22450079D01*
X9354467Y-22450079D02*
X9363991Y-22431031D01*
X9363991Y-22431031D02*
X9373515Y-22421508D01*
X9373515Y-22421508D02*
X9392563Y-22411984D01*
X9583039Y-22411984D02*
X9602086Y-22411984D01*
X9602086Y-22411984D02*
X9621134Y-22421508D01*
X9621134Y-22421508D02*
X9630658Y-22431031D01*
X9630658Y-22431031D02*
X9640182Y-22450079D01*
X9640182Y-22450079D02*
X9649705Y-22488174D01*
X9649705Y-22488174D02*
X9649705Y-22535793D01*
X9649705Y-22535793D02*
X9640182Y-22573888D01*
X9640182Y-22573888D02*
X9630658Y-22592936D01*
X9630658Y-22592936D02*
X9621134Y-22602460D01*
X9621134Y-22602460D02*
X9602086Y-22611984D01*
X9602086Y-22611984D02*
X9583039Y-22611984D01*
X9583039Y-22611984D02*
X9563991Y-22602460D01*
X9563991Y-22602460D02*
X9554467Y-22592936D01*
X9554467Y-22592936D02*
X9544944Y-22573888D01*
X9544944Y-22573888D02*
X9535420Y-22535793D01*
X9535420Y-22535793D02*
X9535420Y-22488174D01*
X9535420Y-22488174D02*
X9544944Y-22450079D01*
X9544944Y-22450079D02*
X9554467Y-22431031D01*
X9554467Y-22431031D02*
X9563991Y-22421508D01*
X9563991Y-22421508D02*
X9583039Y-22411984D01*
X9735420Y-22611984D02*
X9735420Y-22478650D01*
X9735420Y-22497698D02*
X9744944Y-22488174D01*
X9744944Y-22488174D02*
X9763991Y-22478650D01*
X9763991Y-22478650D02*
X9792563Y-22478650D01*
X9792563Y-22478650D02*
X9811610Y-22488174D01*
X9811610Y-22488174D02*
X9821134Y-22507222D01*
X9821134Y-22507222D02*
X9821134Y-22611984D01*
X9821134Y-22507222D02*
X9830658Y-22488174D01*
X9830658Y-22488174D02*
X9849705Y-22478650D01*
X9849705Y-22478650D02*
X9878277Y-22478650D01*
X9878277Y-22478650D02*
X9897325Y-22488174D01*
X9897325Y-22488174D02*
X9906848Y-22507222D01*
X9906848Y-22507222D02*
X9906848Y-22611984D01*
X10002086Y-22611984D02*
X10002086Y-22478650D01*
X10002086Y-22497698D02*
X10011610Y-22488174D01*
X10011610Y-22488174D02*
X10030658Y-22478650D01*
X10030658Y-22478650D02*
X10059229Y-22478650D01*
X10059229Y-22478650D02*
X10078277Y-22488174D01*
X10078277Y-22488174D02*
X10087801Y-22507222D01*
X10087801Y-22507222D02*
X10087801Y-22611984D01*
X10087801Y-22507222D02*
X10097325Y-22488174D01*
X10097325Y-22488174D02*
X10116372Y-22478650D01*
X10116372Y-22478650D02*
X10144944Y-22478650D01*
X10144944Y-22478650D02*
X10163991Y-22488174D01*
X10163991Y-22488174D02*
X10173515Y-22507222D01*
X10173515Y-22507222D02*
X10173515Y-22611984D01*
X10563991Y-22402460D02*
X10392563Y-22659603D01*
X10821134Y-22411984D02*
X10840182Y-22411984D01*
X10840182Y-22411984D02*
X10859229Y-22421508D01*
X10859229Y-22421508D02*
X10868753Y-22431031D01*
X10868753Y-22431031D02*
X10878277Y-22450079D01*
X10878277Y-22450079D02*
X10887801Y-22488174D01*
X10887801Y-22488174D02*
X10887801Y-22535793D01*
X10887801Y-22535793D02*
X10878277Y-22573888D01*
X10878277Y-22573888D02*
X10868753Y-22592936D01*
X10868753Y-22592936D02*
X10859229Y-22602460D01*
X10859229Y-22602460D02*
X10840182Y-22611984D01*
X10840182Y-22611984D02*
X10821134Y-22611984D01*
X10821134Y-22611984D02*
X10802087Y-22602460D01*
X10802087Y-22602460D02*
X10792563Y-22592936D01*
X10792563Y-22592936D02*
X10783039Y-22573888D01*
X10783039Y-22573888D02*
X10773515Y-22535793D01*
X10773515Y-22535793D02*
X10773515Y-22488174D01*
X10773515Y-22488174D02*
X10783039Y-22450079D01*
X10783039Y-22450079D02*
X10792563Y-22431031D01*
X10792563Y-22431031D02*
X10802087Y-22421508D01*
X10802087Y-22421508D02*
X10821134Y-22411984D01*
X10973515Y-22592936D02*
X10983039Y-22602460D01*
X10983039Y-22602460D02*
X10973515Y-22611984D01*
X10973515Y-22611984D02*
X10963991Y-22602460D01*
X10963991Y-22602460D02*
X10973515Y-22592936D01*
X10973515Y-22592936D02*
X10973515Y-22611984D01*
X11106848Y-22411984D02*
X11125896Y-22411984D01*
X11125896Y-22411984D02*
X11144944Y-22421508D01*
X11144944Y-22421508D02*
X11154468Y-22431031D01*
X11154468Y-22431031D02*
X11163991Y-22450079D01*
X11163991Y-22450079D02*
X11173515Y-22488174D01*
X11173515Y-22488174D02*
X11173515Y-22535793D01*
X11173515Y-22535793D02*
X11163991Y-22573888D01*
X11163991Y-22573888D02*
X11154468Y-22592936D01*
X11154468Y-22592936D02*
X11144944Y-22602460D01*
X11144944Y-22602460D02*
X11125896Y-22611984D01*
X11125896Y-22611984D02*
X11106848Y-22611984D01*
X11106848Y-22611984D02*
X11087801Y-22602460D01*
X11087801Y-22602460D02*
X11078277Y-22592936D01*
X11078277Y-22592936D02*
X11068753Y-22573888D01*
X11068753Y-22573888D02*
X11059229Y-22535793D01*
X11059229Y-22535793D02*
X11059229Y-22488174D01*
X11059229Y-22488174D02*
X11068753Y-22450079D01*
X11068753Y-22450079D02*
X11078277Y-22431031D01*
X11078277Y-22431031D02*
X11087801Y-22421508D01*
X11087801Y-22421508D02*
X11106848Y-22411984D01*
X11354467Y-22411984D02*
X11259229Y-22411984D01*
X11259229Y-22411984D02*
X11249706Y-22507222D01*
X11249706Y-22507222D02*
X11259229Y-22497698D01*
X11259229Y-22497698D02*
X11278277Y-22488174D01*
X11278277Y-22488174D02*
X11325896Y-22488174D01*
X11325896Y-22488174D02*
X11344944Y-22497698D01*
X11344944Y-22497698D02*
X11354467Y-22507222D01*
X11354467Y-22507222D02*
X11363991Y-22526269D01*
X11363991Y-22526269D02*
X11363991Y-22573888D01*
X11363991Y-22573888D02*
X11354467Y-22592936D01*
X11354467Y-22592936D02*
X11344944Y-22602460D01*
X11344944Y-22602460D02*
X11325896Y-22611984D01*
X11325896Y-22611984D02*
X11278277Y-22611984D01*
X11278277Y-22611984D02*
X11259229Y-22602460D01*
X11259229Y-22602460D02*
X11249706Y-22592936D01*
X11554467Y-22611984D02*
X11440182Y-22611984D01*
X11497325Y-22611984D02*
X11497325Y-22411984D01*
X11497325Y-22411984D02*
X11478277Y-22440555D01*
X11478277Y-22440555D02*
X11459229Y-22459603D01*
X11459229Y-22459603D02*
X11440182Y-22469127D01*
X11630658Y-22431031D02*
X11640182Y-22421508D01*
X11640182Y-22421508D02*
X11659229Y-22411984D01*
X11659229Y-22411984D02*
X11706848Y-22411984D01*
X11706848Y-22411984D02*
X11725896Y-22421508D01*
X11725896Y-22421508D02*
X11735420Y-22431031D01*
X11735420Y-22431031D02*
X11744944Y-22450079D01*
X11744944Y-22450079D02*
X11744944Y-22469127D01*
X11744944Y-22469127D02*
X11735420Y-22497698D01*
X11735420Y-22497698D02*
X11621134Y-22611984D01*
X11621134Y-22611984D02*
X11744944Y-22611984D01*
X11821134Y-22411984D02*
X11821134Y-22450079D01*
X11897325Y-22411984D02*
X11897325Y-22450079D01*
X12192563Y-22688174D02*
X12183039Y-22678650D01*
X12183039Y-22678650D02*
X12163991Y-22650079D01*
X12163991Y-22650079D02*
X12154468Y-22631031D01*
X12154468Y-22631031D02*
X12144944Y-22602460D01*
X12144944Y-22602460D02*
X12135420Y-22554841D01*
X12135420Y-22554841D02*
X12135420Y-22516746D01*
X12135420Y-22516746D02*
X12144944Y-22469127D01*
X12144944Y-22469127D02*
X12154468Y-22440555D01*
X12154468Y-22440555D02*
X12163991Y-22421508D01*
X12163991Y-22421508D02*
X12183039Y-22392936D01*
X12183039Y-22392936D02*
X12192563Y-22383412D01*
X12373515Y-22611984D02*
X12259229Y-22611984D01*
X12316372Y-22611984D02*
X12316372Y-22411984D01*
X12316372Y-22411984D02*
X12297325Y-22440555D01*
X12297325Y-22440555D02*
X12278277Y-22459603D01*
X12278277Y-22459603D02*
X12259229Y-22469127D01*
X12449706Y-22431031D02*
X12459229Y-22421508D01*
X12459229Y-22421508D02*
X12478277Y-22411984D01*
X12478277Y-22411984D02*
X12525896Y-22411984D01*
X12525896Y-22411984D02*
X12544944Y-22421508D01*
X12544944Y-22421508D02*
X12554468Y-22431031D01*
X12554468Y-22431031D02*
X12563991Y-22450079D01*
X12563991Y-22450079D02*
X12563991Y-22469127D01*
X12563991Y-22469127D02*
X12554468Y-22497698D01*
X12554468Y-22497698D02*
X12440182Y-22611984D01*
X12440182Y-22611984D02*
X12563991Y-22611984D01*
X12802087Y-22611984D02*
X12802087Y-22411984D01*
X12887801Y-22611984D02*
X12887801Y-22507222D01*
X12887801Y-22507222D02*
X12878277Y-22488174D01*
X12878277Y-22488174D02*
X12859230Y-22478650D01*
X12859230Y-22478650D02*
X12830658Y-22478650D01*
X12830658Y-22478650D02*
X12811610Y-22488174D01*
X12811610Y-22488174D02*
X12802087Y-22497698D01*
X13011610Y-22611984D02*
X12992563Y-22602460D01*
X12992563Y-22602460D02*
X12983039Y-22592936D01*
X12983039Y-22592936D02*
X12973515Y-22573888D01*
X12973515Y-22573888D02*
X12973515Y-22516746D01*
X12973515Y-22516746D02*
X12983039Y-22497698D01*
X12983039Y-22497698D02*
X12992563Y-22488174D01*
X12992563Y-22488174D02*
X13011610Y-22478650D01*
X13011610Y-22478650D02*
X13040182Y-22478650D01*
X13040182Y-22478650D02*
X13059230Y-22488174D01*
X13059230Y-22488174D02*
X13068753Y-22497698D01*
X13068753Y-22497698D02*
X13078277Y-22516746D01*
X13078277Y-22516746D02*
X13078277Y-22573888D01*
X13078277Y-22573888D02*
X13068753Y-22592936D01*
X13068753Y-22592936D02*
X13059230Y-22602460D01*
X13059230Y-22602460D02*
X13040182Y-22611984D01*
X13040182Y-22611984D02*
X13011610Y-22611984D01*
X13192563Y-22611984D02*
X13173515Y-22602460D01*
X13173515Y-22602460D02*
X13163991Y-22583412D01*
X13163991Y-22583412D02*
X13163991Y-22411984D01*
X13344944Y-22602460D02*
X13325896Y-22611984D01*
X13325896Y-22611984D02*
X13287801Y-22611984D01*
X13287801Y-22611984D02*
X13268753Y-22602460D01*
X13268753Y-22602460D02*
X13259230Y-22583412D01*
X13259230Y-22583412D02*
X13259230Y-22507222D01*
X13259230Y-22507222D02*
X13268753Y-22488174D01*
X13268753Y-22488174D02*
X13287801Y-22478650D01*
X13287801Y-22478650D02*
X13325896Y-22478650D01*
X13325896Y-22478650D02*
X13344944Y-22488174D01*
X13344944Y-22488174D02*
X13354468Y-22507222D01*
X13354468Y-22507222D02*
X13354468Y-22526269D01*
X13354468Y-22526269D02*
X13259230Y-22545317D01*
X13430658Y-22602460D02*
X13449706Y-22611984D01*
X13449706Y-22611984D02*
X13487801Y-22611984D01*
X13487801Y-22611984D02*
X13506849Y-22602460D01*
X13506849Y-22602460D02*
X13516372Y-22583412D01*
X13516372Y-22583412D02*
X13516372Y-22573888D01*
X13516372Y-22573888D02*
X13506849Y-22554841D01*
X13506849Y-22554841D02*
X13487801Y-22545317D01*
X13487801Y-22545317D02*
X13459230Y-22545317D01*
X13459230Y-22545317D02*
X13440182Y-22535793D01*
X13440182Y-22535793D02*
X13430658Y-22516746D01*
X13430658Y-22516746D02*
X13430658Y-22507222D01*
X13430658Y-22507222D02*
X13440182Y-22488174D01*
X13440182Y-22488174D02*
X13459230Y-22478650D01*
X13459230Y-22478650D02*
X13487801Y-22478650D01*
X13487801Y-22478650D02*
X13506849Y-22488174D01*
X13583039Y-22688174D02*
X13592563Y-22678650D01*
X13592563Y-22678650D02*
X13611611Y-22650079D01*
X13611611Y-22650079D02*
X13621134Y-22631031D01*
X13621134Y-22631031D02*
X13630658Y-22602460D01*
X13630658Y-22602460D02*
X13640182Y-22554841D01*
X13640182Y-22554841D02*
X13640182Y-22516746D01*
X13640182Y-22516746D02*
X13630658Y-22469127D01*
X13630658Y-22469127D02*
X13621134Y-22440555D01*
X13621134Y-22440555D02*
X13611611Y-22421508D01*
X13611611Y-22421508D02*
X13592563Y-22392936D01*
X13592563Y-22392936D02*
X13583039Y-22383412D01*
X8417500Y-22684500D02*
X8617500Y-22884500D01*
X8617500Y-22684500D02*
X8417500Y-22884500D01*
X8517500Y-22884500D02*
X8617500Y-22784500D01*
X8517500Y-22684500D01*
X8417500Y-22784500D01*
X8517500Y-22884500D01*
X8859229Y-22675984D02*
X8983039Y-22675984D01*
X8983039Y-22675984D02*
X8916372Y-22752174D01*
X8916372Y-22752174D02*
X8944944Y-22752174D01*
X8944944Y-22752174D02*
X8963991Y-22761698D01*
X8963991Y-22761698D02*
X8973515Y-22771222D01*
X8973515Y-22771222D02*
X8983039Y-22790269D01*
X8983039Y-22790269D02*
X8983039Y-22837888D01*
X8983039Y-22837888D02*
X8973515Y-22856936D01*
X8973515Y-22856936D02*
X8963991Y-22866460D01*
X8963991Y-22866460D02*
X8944944Y-22875984D01*
X8944944Y-22875984D02*
X8887801Y-22875984D01*
X8887801Y-22875984D02*
X8868753Y-22866460D01*
X8868753Y-22866460D02*
X8859229Y-22856936D01*
X9068753Y-22856936D02*
X9078277Y-22866460D01*
X9078277Y-22866460D02*
X9068753Y-22875984D01*
X9068753Y-22875984D02*
X9059229Y-22866460D01*
X9059229Y-22866460D02*
X9068753Y-22856936D01*
X9068753Y-22856936D02*
X9068753Y-22875984D01*
X9268753Y-22875984D02*
X9154467Y-22875984D01*
X9211610Y-22875984D02*
X9211610Y-22675984D01*
X9211610Y-22675984D02*
X9192563Y-22704555D01*
X9192563Y-22704555D02*
X9173515Y-22723603D01*
X9173515Y-22723603D02*
X9154467Y-22733127D01*
X9392563Y-22675984D02*
X9411610Y-22675984D01*
X9411610Y-22675984D02*
X9430658Y-22685508D01*
X9430658Y-22685508D02*
X9440182Y-22695031D01*
X9440182Y-22695031D02*
X9449705Y-22714079D01*
X9449705Y-22714079D02*
X9459229Y-22752174D01*
X9459229Y-22752174D02*
X9459229Y-22799793D01*
X9459229Y-22799793D02*
X9449705Y-22837888D01*
X9449705Y-22837888D02*
X9440182Y-22856936D01*
X9440182Y-22856936D02*
X9430658Y-22866460D01*
X9430658Y-22866460D02*
X9411610Y-22875984D01*
X9411610Y-22875984D02*
X9392563Y-22875984D01*
X9392563Y-22875984D02*
X9373515Y-22866460D01*
X9373515Y-22866460D02*
X9363991Y-22856936D01*
X9363991Y-22856936D02*
X9354467Y-22837888D01*
X9354467Y-22837888D02*
X9344944Y-22799793D01*
X9344944Y-22799793D02*
X9344944Y-22752174D01*
X9344944Y-22752174D02*
X9354467Y-22714079D01*
X9354467Y-22714079D02*
X9363991Y-22695031D01*
X9363991Y-22695031D02*
X9373515Y-22685508D01*
X9373515Y-22685508D02*
X9392563Y-22675984D01*
X9583039Y-22675984D02*
X9602086Y-22675984D01*
X9602086Y-22675984D02*
X9621134Y-22685508D01*
X9621134Y-22685508D02*
X9630658Y-22695031D01*
X9630658Y-22695031D02*
X9640182Y-22714079D01*
X9640182Y-22714079D02*
X9649705Y-22752174D01*
X9649705Y-22752174D02*
X9649705Y-22799793D01*
X9649705Y-22799793D02*
X9640182Y-22837888D01*
X9640182Y-22837888D02*
X9630658Y-22856936D01*
X9630658Y-22856936D02*
X9621134Y-22866460D01*
X9621134Y-22866460D02*
X9602086Y-22875984D01*
X9602086Y-22875984D02*
X9583039Y-22875984D01*
X9583039Y-22875984D02*
X9563991Y-22866460D01*
X9563991Y-22866460D02*
X9554467Y-22856936D01*
X9554467Y-22856936D02*
X9544944Y-22837888D01*
X9544944Y-22837888D02*
X9535420Y-22799793D01*
X9535420Y-22799793D02*
X9535420Y-22752174D01*
X9535420Y-22752174D02*
X9544944Y-22714079D01*
X9544944Y-22714079D02*
X9554467Y-22695031D01*
X9554467Y-22695031D02*
X9563991Y-22685508D01*
X9563991Y-22685508D02*
X9583039Y-22675984D01*
X9735420Y-22875984D02*
X9735420Y-22742650D01*
X9735420Y-22761698D02*
X9744944Y-22752174D01*
X9744944Y-22752174D02*
X9763991Y-22742650D01*
X9763991Y-22742650D02*
X9792563Y-22742650D01*
X9792563Y-22742650D02*
X9811610Y-22752174D01*
X9811610Y-22752174D02*
X9821134Y-22771222D01*
X9821134Y-22771222D02*
X9821134Y-22875984D01*
X9821134Y-22771222D02*
X9830658Y-22752174D01*
X9830658Y-22752174D02*
X9849705Y-22742650D01*
X9849705Y-22742650D02*
X9878277Y-22742650D01*
X9878277Y-22742650D02*
X9897325Y-22752174D01*
X9897325Y-22752174D02*
X9906848Y-22771222D01*
X9906848Y-22771222D02*
X9906848Y-22875984D01*
X10002086Y-22875984D02*
X10002086Y-22742650D01*
X10002086Y-22761698D02*
X10011610Y-22752174D01*
X10011610Y-22752174D02*
X10030658Y-22742650D01*
X10030658Y-22742650D02*
X10059229Y-22742650D01*
X10059229Y-22742650D02*
X10078277Y-22752174D01*
X10078277Y-22752174D02*
X10087801Y-22771222D01*
X10087801Y-22771222D02*
X10087801Y-22875984D01*
X10087801Y-22771222D02*
X10097325Y-22752174D01*
X10097325Y-22752174D02*
X10116372Y-22742650D01*
X10116372Y-22742650D02*
X10144944Y-22742650D01*
X10144944Y-22742650D02*
X10163991Y-22752174D01*
X10163991Y-22752174D02*
X10173515Y-22771222D01*
X10173515Y-22771222D02*
X10173515Y-22875984D01*
X10563991Y-22666460D02*
X10392563Y-22923603D01*
X10821134Y-22675984D02*
X10840182Y-22675984D01*
X10840182Y-22675984D02*
X10859229Y-22685508D01*
X10859229Y-22685508D02*
X10868753Y-22695031D01*
X10868753Y-22695031D02*
X10878277Y-22714079D01*
X10878277Y-22714079D02*
X10887801Y-22752174D01*
X10887801Y-22752174D02*
X10887801Y-22799793D01*
X10887801Y-22799793D02*
X10878277Y-22837888D01*
X10878277Y-22837888D02*
X10868753Y-22856936D01*
X10868753Y-22856936D02*
X10859229Y-22866460D01*
X10859229Y-22866460D02*
X10840182Y-22875984D01*
X10840182Y-22875984D02*
X10821134Y-22875984D01*
X10821134Y-22875984D02*
X10802087Y-22866460D01*
X10802087Y-22866460D02*
X10792563Y-22856936D01*
X10792563Y-22856936D02*
X10783039Y-22837888D01*
X10783039Y-22837888D02*
X10773515Y-22799793D01*
X10773515Y-22799793D02*
X10773515Y-22752174D01*
X10773515Y-22752174D02*
X10783039Y-22714079D01*
X10783039Y-22714079D02*
X10792563Y-22695031D01*
X10792563Y-22695031D02*
X10802087Y-22685508D01*
X10802087Y-22685508D02*
X10821134Y-22675984D01*
X10973515Y-22856936D02*
X10983039Y-22866460D01*
X10983039Y-22866460D02*
X10973515Y-22875984D01*
X10973515Y-22875984D02*
X10963991Y-22866460D01*
X10963991Y-22866460D02*
X10973515Y-22856936D01*
X10973515Y-22856936D02*
X10973515Y-22875984D01*
X11173515Y-22875984D02*
X11059229Y-22875984D01*
X11116372Y-22875984D02*
X11116372Y-22675984D01*
X11116372Y-22675984D02*
X11097325Y-22704555D01*
X11097325Y-22704555D02*
X11078277Y-22723603D01*
X11078277Y-22723603D02*
X11059229Y-22733127D01*
X11249706Y-22695031D02*
X11259229Y-22685508D01*
X11259229Y-22685508D02*
X11278277Y-22675984D01*
X11278277Y-22675984D02*
X11325896Y-22675984D01*
X11325896Y-22675984D02*
X11344944Y-22685508D01*
X11344944Y-22685508D02*
X11354467Y-22695031D01*
X11354467Y-22695031D02*
X11363991Y-22714079D01*
X11363991Y-22714079D02*
X11363991Y-22733127D01*
X11363991Y-22733127D02*
X11354467Y-22761698D01*
X11354467Y-22761698D02*
X11240182Y-22875984D01*
X11240182Y-22875984D02*
X11363991Y-22875984D01*
X11440182Y-22695031D02*
X11449706Y-22685508D01*
X11449706Y-22685508D02*
X11468753Y-22675984D01*
X11468753Y-22675984D02*
X11516372Y-22675984D01*
X11516372Y-22675984D02*
X11535420Y-22685508D01*
X11535420Y-22685508D02*
X11544944Y-22695031D01*
X11544944Y-22695031D02*
X11554467Y-22714079D01*
X11554467Y-22714079D02*
X11554467Y-22733127D01*
X11554467Y-22733127D02*
X11544944Y-22761698D01*
X11544944Y-22761698D02*
X11430658Y-22875984D01*
X11430658Y-22875984D02*
X11554467Y-22875984D01*
X11678277Y-22675984D02*
X11697325Y-22675984D01*
X11697325Y-22675984D02*
X11716372Y-22685508D01*
X11716372Y-22685508D02*
X11725896Y-22695031D01*
X11725896Y-22695031D02*
X11735420Y-22714079D01*
X11735420Y-22714079D02*
X11744944Y-22752174D01*
X11744944Y-22752174D02*
X11744944Y-22799793D01*
X11744944Y-22799793D02*
X11735420Y-22837888D01*
X11735420Y-22837888D02*
X11725896Y-22856936D01*
X11725896Y-22856936D02*
X11716372Y-22866460D01*
X11716372Y-22866460D02*
X11697325Y-22875984D01*
X11697325Y-22875984D02*
X11678277Y-22875984D01*
X11678277Y-22875984D02*
X11659229Y-22866460D01*
X11659229Y-22866460D02*
X11649706Y-22856936D01*
X11649706Y-22856936D02*
X11640182Y-22837888D01*
X11640182Y-22837888D02*
X11630658Y-22799793D01*
X11630658Y-22799793D02*
X11630658Y-22752174D01*
X11630658Y-22752174D02*
X11640182Y-22714079D01*
X11640182Y-22714079D02*
X11649706Y-22695031D01*
X11649706Y-22695031D02*
X11659229Y-22685508D01*
X11659229Y-22685508D02*
X11678277Y-22675984D01*
X11821134Y-22675984D02*
X11821134Y-22714079D01*
X11897325Y-22675984D02*
X11897325Y-22714079D01*
X12192563Y-22952174D02*
X12183039Y-22942650D01*
X12183039Y-22942650D02*
X12163991Y-22914079D01*
X12163991Y-22914079D02*
X12154468Y-22895031D01*
X12154468Y-22895031D02*
X12144944Y-22866460D01*
X12144944Y-22866460D02*
X12135420Y-22818841D01*
X12135420Y-22818841D02*
X12135420Y-22780746D01*
X12135420Y-22780746D02*
X12144944Y-22733127D01*
X12144944Y-22733127D02*
X12154468Y-22704555D01*
X12154468Y-22704555D02*
X12163991Y-22685508D01*
X12163991Y-22685508D02*
X12183039Y-22656936D01*
X12183039Y-22656936D02*
X12192563Y-22647412D01*
X12249706Y-22675984D02*
X12373515Y-22675984D01*
X12373515Y-22675984D02*
X12306848Y-22752174D01*
X12306848Y-22752174D02*
X12335420Y-22752174D01*
X12335420Y-22752174D02*
X12354468Y-22761698D01*
X12354468Y-22761698D02*
X12363991Y-22771222D01*
X12363991Y-22771222D02*
X12373515Y-22790269D01*
X12373515Y-22790269D02*
X12373515Y-22837888D01*
X12373515Y-22837888D02*
X12363991Y-22856936D01*
X12363991Y-22856936D02*
X12354468Y-22866460D01*
X12354468Y-22866460D02*
X12335420Y-22875984D01*
X12335420Y-22875984D02*
X12278277Y-22875984D01*
X12278277Y-22875984D02*
X12259229Y-22866460D01*
X12259229Y-22866460D02*
X12249706Y-22856936D01*
X12611610Y-22875984D02*
X12611610Y-22675984D01*
X12697325Y-22875984D02*
X12697325Y-22771222D01*
X12697325Y-22771222D02*
X12687801Y-22752174D01*
X12687801Y-22752174D02*
X12668753Y-22742650D01*
X12668753Y-22742650D02*
X12640182Y-22742650D01*
X12640182Y-22742650D02*
X12621134Y-22752174D01*
X12621134Y-22752174D02*
X12611610Y-22761698D01*
X12821134Y-22875984D02*
X12802087Y-22866460D01*
X12802087Y-22866460D02*
X12792563Y-22856936D01*
X12792563Y-22856936D02*
X12783039Y-22837888D01*
X12783039Y-22837888D02*
X12783039Y-22780746D01*
X12783039Y-22780746D02*
X12792563Y-22761698D01*
X12792563Y-22761698D02*
X12802087Y-22752174D01*
X12802087Y-22752174D02*
X12821134Y-22742650D01*
X12821134Y-22742650D02*
X12849706Y-22742650D01*
X12849706Y-22742650D02*
X12868753Y-22752174D01*
X12868753Y-22752174D02*
X12878277Y-22761698D01*
X12878277Y-22761698D02*
X12887801Y-22780746D01*
X12887801Y-22780746D02*
X12887801Y-22837888D01*
X12887801Y-22837888D02*
X12878277Y-22856936D01*
X12878277Y-22856936D02*
X12868753Y-22866460D01*
X12868753Y-22866460D02*
X12849706Y-22875984D01*
X12849706Y-22875984D02*
X12821134Y-22875984D01*
X13002087Y-22875984D02*
X12983039Y-22866460D01*
X12983039Y-22866460D02*
X12973515Y-22847412D01*
X12973515Y-22847412D02*
X12973515Y-22675984D01*
X13154468Y-22866460D02*
X13135420Y-22875984D01*
X13135420Y-22875984D02*
X13097325Y-22875984D01*
X13097325Y-22875984D02*
X13078277Y-22866460D01*
X13078277Y-22866460D02*
X13068753Y-22847412D01*
X13068753Y-22847412D02*
X13068753Y-22771222D01*
X13068753Y-22771222D02*
X13078277Y-22752174D01*
X13078277Y-22752174D02*
X13097325Y-22742650D01*
X13097325Y-22742650D02*
X13135420Y-22742650D01*
X13135420Y-22742650D02*
X13154468Y-22752174D01*
X13154468Y-22752174D02*
X13163991Y-22771222D01*
X13163991Y-22771222D02*
X13163991Y-22790269D01*
X13163991Y-22790269D02*
X13068753Y-22809317D01*
X13240182Y-22866460D02*
X13259230Y-22875984D01*
X13259230Y-22875984D02*
X13297325Y-22875984D01*
X13297325Y-22875984D02*
X13316372Y-22866460D01*
X13316372Y-22866460D02*
X13325896Y-22847412D01*
X13325896Y-22847412D02*
X13325896Y-22837888D01*
X13325896Y-22837888D02*
X13316372Y-22818841D01*
X13316372Y-22818841D02*
X13297325Y-22809317D01*
X13297325Y-22809317D02*
X13268753Y-22809317D01*
X13268753Y-22809317D02*
X13249706Y-22799793D01*
X13249706Y-22799793D02*
X13240182Y-22780746D01*
X13240182Y-22780746D02*
X13240182Y-22771222D01*
X13240182Y-22771222D02*
X13249706Y-22752174D01*
X13249706Y-22752174D02*
X13268753Y-22742650D01*
X13268753Y-22742650D02*
X13297325Y-22742650D01*
X13297325Y-22742650D02*
X13316372Y-22752174D01*
X13392563Y-22952174D02*
X13402087Y-22942650D01*
X13402087Y-22942650D02*
X13421134Y-22914079D01*
X13421134Y-22914079D02*
X13430658Y-22895031D01*
X13430658Y-22895031D02*
X13440182Y-22866460D01*
X13440182Y-22866460D02*
X13449706Y-22818841D01*
X13449706Y-22818841D02*
X13449706Y-22780746D01*
X13449706Y-22780746D02*
X13440182Y-22733127D01*
X13440182Y-22733127D02*
X13430658Y-22704555D01*
X13430658Y-22704555D02*
X13421134Y-22685508D01*
X13421134Y-22685508D02*
X13402087Y-22656936D01*
X13402087Y-22656936D02*
X13392563Y-22647412D01*
M02*
