%TF.GenerationSoftware,KiCad,Pcbnew,9.0.7*%
%TF.CreationDate,2026-03-12T14:58:56-05:00*%
%TF.ProjectId,grow_lights,67726f77-5f6c-4696-9768-74732e6b6963,rev?*%
%TF.SameCoordinates,Original*%
%TF.FileFunction,Copper,L2,Bot*%
%TF.FilePolarity,Positive*%
%FSLAX46Y46*%
G04 Gerber Fmt 4.6, Leading zero omitted, Abs format (unit mm)*
G04 Created by KiCad (PCBNEW 9.0.7) date 2026-03-12 14:58:56*
%MOMM*%
%LPD*%
G01*
G04 APERTURE LIST*
%TA.AperFunction,ComponentPad*%
%ADD10C,1.650000*%
%TD*%
%TA.AperFunction,ViaPad*%
%ADD11C,1.300000*%
%TD*%
G04 APERTURE END LIST*
D10*
%TO.P,J11,1,Pin_1*%
%TO.N,LEDS*%
X138430000Y-59690000D03*
%TO.P,J11,2,Pin_2*%
%TO.N,LED-*%
X143510000Y-59690000D03*
%TD*%
D11*
%TO.N,LED-*%
X142240000Y-135890000D03*
%TD*%
%TA.AperFunction,Conductor*%
%TO.N,LED-*%
G36*
X149803039Y-52089685D02*
G01*
X149848794Y-52142489D01*
X149860000Y-52194000D01*
X149860000Y-71120000D01*
X190376000Y-71120000D01*
X190443039Y-71139685D01*
X190488794Y-71192489D01*
X190500000Y-71244000D01*
X190500000Y-140846000D01*
X190480315Y-140913039D01*
X190427511Y-140958794D01*
X190376000Y-140970000D01*
X111884000Y-140970000D01*
X111816961Y-140950315D01*
X111771206Y-140897511D01*
X111760000Y-140846000D01*
X111760000Y-71244000D01*
X111779685Y-71176961D01*
X111832489Y-71131206D01*
X111884000Y-71120000D01*
X142240000Y-71120000D01*
X142240000Y-60554375D01*
X142259685Y-60487336D01*
X142312489Y-60441581D01*
X142373730Y-60430757D01*
X142412628Y-60433818D01*
X142986212Y-59860234D01*
X142997482Y-59902292D01*
X143069890Y-60027708D01*
X143172292Y-60130110D01*
X143297708Y-60202518D01*
X143339765Y-60213787D01*
X142766179Y-60787371D01*
X142766180Y-60787372D01*
X142815543Y-60823236D01*
X142815556Y-60823244D01*
X143001372Y-60917924D01*
X143199727Y-60982373D01*
X143405721Y-61015000D01*
X143614279Y-61015000D01*
X143820272Y-60982373D01*
X144018627Y-60917924D01*
X144204451Y-60823240D01*
X144253818Y-60787372D01*
X144253818Y-60787371D01*
X143680234Y-60213787D01*
X143722292Y-60202518D01*
X143847708Y-60130110D01*
X143950110Y-60027708D01*
X144022518Y-59902292D01*
X144033787Y-59860234D01*
X144607371Y-60433818D01*
X144607372Y-60433818D01*
X144643240Y-60384451D01*
X144737924Y-60198627D01*
X144802373Y-60000272D01*
X144835000Y-59794279D01*
X144835000Y-59585720D01*
X144802373Y-59379727D01*
X144737924Y-59181372D01*
X144643244Y-58995556D01*
X144643236Y-58995543D01*
X144607372Y-58946180D01*
X144607371Y-58946179D01*
X144033787Y-59519764D01*
X144022518Y-59477708D01*
X143950110Y-59352292D01*
X143847708Y-59249890D01*
X143722292Y-59177482D01*
X143680233Y-59166212D01*
X144253819Y-58592627D01*
X144204451Y-58556759D01*
X144018627Y-58462075D01*
X143820272Y-58397626D01*
X143614279Y-58365000D01*
X143405721Y-58365000D01*
X143199727Y-58397626D01*
X143001372Y-58462075D01*
X142815552Y-58556757D01*
X142766180Y-58592627D01*
X143339766Y-59166212D01*
X143297708Y-59177482D01*
X143172292Y-59249890D01*
X143069890Y-59352292D01*
X142997482Y-59477708D01*
X142986212Y-59519765D01*
X142412627Y-58946180D01*
X142373730Y-58949242D01*
X142360118Y-58946382D01*
X142346353Y-58948362D01*
X142326601Y-58939341D01*
X142305352Y-58934878D01*
X142295447Y-58925114D01*
X142282797Y-58919337D01*
X142271057Y-58901070D01*
X142255595Y-58885827D01*
X142251768Y-58871055D01*
X142245023Y-58860559D01*
X142240000Y-58825624D01*
X142240000Y-52194000D01*
X142259685Y-52126961D01*
X142312489Y-52081206D01*
X142364000Y-52070000D01*
X149736000Y-52070000D01*
X149803039Y-52089685D01*
G37*
%TD.AperFunction*%
%TD*%
M02*
